<?xml version="1.0" encoding="utf-8"?>
<!-- Generator: Adobe Illustrator 23.0.4, SVG Export Plug-In . SVG Version: 6.00 Build 0)  -->
<svg version="1.1" id="Layer_1" xmlns="http://www.w3.org/2000/svg" xmlns:xlink="http://www.w3.org/1999/xlink" x="0px" y="0px"
	 viewBox="0 0 1920 1920" style="enable-background:new 0 0 1920 1920;" xml:space="preserve">
<style type="text/css">
	.st0{fill:url(#SVGID_1_);}
	.st1{fill:url(#SVGID_2_);}
	.st2{fill:#322C74;}
	.st3{fill:#0B6A90;}
</style>
<linearGradient id="SVGID_1_" gradientUnits="userSpaceOnUse" x1="-6.465143e-08" y1="1920" x2="1920" y2="6.465143e-08">
	<stop  offset="0" style="stop-color:#FFFFFF"/>
	<stop  offset="1" style="stop-color:#CCC9E4"/>
</linearGradient>
<rect class="st0" width="1920" height="1920"/>
<g>
	<g id="Layer_1-2">
		
			<linearGradient id="SVGID_2_" gradientUnits="userSpaceOnUse" x1="239.0511" y1="1501.4095" x2="547.4983" y2="1192.9623" gradientTransform="matrix(0.7071 -0.7071 -0.7071 -0.7071 1036.825 2175.3394)">
			<stop  offset="0" style="stop-color:#45B9EA"/>
			<stop  offset="1" style="stop-color:#5651A2"/>
		</linearGradient>
		<path class="st1" d="M264.7,780.1L151.5,893.3c-9.7,9.7-9.7,25.3,0,35c0,0,0,0,0,0L378,1154.9c9.7,9.6,25.3,9.6,35,0l113.3-113.3
			c71.5-72.9,70.3-190-2.6-261.5C451.7,709.6,336.6,709.6,264.7,780.1z M464.2,1011.4c0,7.5-3,14.8-8.3,20.1l-40.2,40.2
			c-11.5,10.7-29.5,10.1-40.2-1.4c-10.2-10.9-10.2-27.9,0-38.9l40.2-40.4c11.1-11.1,29.2-11.1,40.3,0.1c5.3,5.3,8.3,12.5,8.3,20.1
			V1011.4z M444,910.8c0,7.6-3,14.8-8.4,20.1l-80.4,80.5c-11.5,10.7-29.5,10.1-40.2-1.4c-10.2-10.9-10.2-27.9,0-38.9l80.5-80.5
			c11.1-11.1,29.1-11.2,40.2-0.1C441.1,896,444.1,903.3,444,910.8L444,910.8z M423.9,810.2c0.1,7.6-2.9,14.9-8.3,20.2L294.9,951.1
			c-11.5,10.7-29.5,10.1-40.2-1.4c-10.2-10.9-10.2-27.9,0-38.9l120.7-120.7c11.1-11.1,29.2-11.1,40.3,0.1
			C420.9,795.5,423.9,802.7,423.9,810.2z"/>
		<path class="st2" d="M704.6,816.3v44.4h89.1v44.1h-89.1V974h-56.9V772.3H806v44.1L704.6,816.3z"/>
		<path class="st2" d="M820.7,873.1c0-60.6,47.6-104.9,112.1-104.9s112.1,44.4,112.1,104.9c0,60.6-47.6,104.9-112.1,104.9
			S820.7,933.6,820.7,873.1z M987.3,873.1c0-34.9-23.9-57.7-54.5-57.7c-30.6,0-54.5,22.8-54.5,57.7c0,34.9,23.9,57.6,54.5,57.6
			C963.4,930.7,987.3,908,987.3,873.1z"/>
		<path class="st2" d="M1163.2,920.4H1132V974h-57.1V772.3h92.3c55.1,0,89.7,28.5,89.7,74.7c0,29.7-14.4,51.6-39.5,63.5l43.5,63.5
			h-61.1L1163.2,920.4z M1163.7,817.2H1132v59.1h31.7c23.6,0,35.5-11,35.5-29.4C1199.2,828.4,1187.4,817.2,1163.7,817.2
			L1163.7,817.2z"/>
		<path class="st2" d="M1470.5,974l-0.6-107l-51.7,87.1h-25.4l-51.8-84.2V974h-52.8V772.3h47l71,116.5l69.2-116.5h47l0.6,201.7
			H1470.5z"/>
		<path class="st2" d="M1549.2,955.8l18.7-42.1c19.9,12.7,43,19.6,66.6,19.9c23.6,0,32.9-6.7,32.9-16.4c0-32-114.8-8.7-114.8-83.6
			c0-36.1,29.4-65.5,89.4-65.5c26.2,0,53.3,6.1,73.2,17.6l-17.6,42.4c-17.1-9.7-36.4-15.1-56-15.6c-23.9,0-32.6,8.1-32.6,18.2
			c0,30.9,114.5,7.8,114.5,82.2c0,35.2-29.4,65.2-89.4,65.2C1601.3,978,1568.2,969.1,1549.2,955.8z"/>
		<path class="st3" d="M745.4,1119.1v-88.4l-43.3,74.7h-3.7L655,1031v88.1h-7.5v-103.3h6.4l46.3,80l46.2-79.9h6.2v103.3
			L745.4,1119.1z"/>
		<path class="st3" d="M852.7,1090h-59.8l-13.2,29.1h-8.1l47.5-103.3h7.5l47.5,103.3H866L852.7,1090z M849.9,1083.7l-27.2-59.8
			l-27,59.8H849.9z"/>
		<path class="st3" d="M892.9,1015.8h40.9c32.8,0,54.9,21.6,54.9,51.7c0,30.1-22.2,51.7-54.9,51.7h-40.9V1015.8z M933.2,1112.3
			c29.3,0,48-18.7,48-44.8s-18.7-44.8-48-44.8h-32.8v89.7H933.2z"/>
		<path class="st3" d="M1086.1,1112.3v6.8h-71.4v-103.3h69.1v6.8h-61.6v40.8h55.1v6.7h-55.1v42.4H1086.1z"/>
		<path class="st3" d="M1151.5,1015.8h40.9c32.8,0,54.9,21.6,54.9,51.7c0,30.1-22.1,51.7-54.9,51.7h-40.9V1015.8z M1191.8,1112.3
			c29.2,0,48-18.7,48-44.8s-18.7-44.8-48-44.8H1159v89.7H1191.8z"/>
		<path class="st3" d="M1273.4,1015.8h7.5v103.3h-7.5V1015.8z"/>
		<path class="st3" d="M1390.8,1067.9h7.2v38.7c-10.2,9-23.4,13.7-36.9,13.3c-31.2,0-54.1-22.4-54.1-52.3s22.9-52.3,54.2-52.3
			c13.8-0.6,27.2,4.5,37.2,14.2l-4.7,5c-8.6-8.4-20.3-12.8-32.3-12.3c-26.9,0-46.8,19.5-46.8,45.5s19.9,45.5,46.8,45.5
			c10.6,0.4,21-2.9,29.4-9.4V1067.9z"/>
		<path class="st3" d="M1431.1,1015.8h7.5v103.3h-7.5V1015.8z"/>
		<path class="st3" d="M1494.4,1022.6h-37.2v-6.8h81.9v6.8h-37.4v96.5h-7.5L1494.4,1022.6z"/>
		<path class="st3" d="M1616.5,1090h-60l-13.2,29.1h-8.1l47.5-103.3h7.5l47.5,103.3h-8.1L1616.5,1090z M1613.7,1083.7l-27.2-59.8
			l-27,59.8H1613.7z"/>
		<path class="st3" d="M1656.6,1015.8h7.5v96.6h59.5v6.8h-67V1015.8z"/>
	</g>
</g>
</svg>
