<?xml version="1.0" encoding="utf-8"?>
<!-- Generator: Adobe Illustrator 23.0.6, SVG Export Plug-In . SVG Version: 6.00 Build 0)  -->
<svg version="1.1" id="Layer_1" xmlns="http://www.w3.org/2000/svg" xmlns:xlink="http://www.w3.org/1999/xlink" x="0px" y="0px"
	 viewBox="0 0 1000 1000" style="enable-background:new 0 0 1000 1000;" xml:space="preserve">
<style type="text/css">
	.st0{fill:#FFFFFF;}
	.st1{fill:#734BE1;}
	.st2{fill:#393F7E;}
	.st3{fill:#929497;}
	.st4{fill:#63EBD6;}
	.st5{fill:url(#SVGID_1_);}
	.st6{enable-background:new    ;}
	.st7{fill:#404041;}
</style>
<rect y="0" class="st0" width="1000" height="1000"/>
<g>
	<path class="st1" d="M671.3,327.2v0.2c0,0.5,0,0.8-0.1,1.2c0,0.8,0,1.6-0.2,2.4c0,0,0,0.1,0,0.2c-0.1,0.6-0.3,1.1-0.4,1.7
		c-0.1,0.6-0.2,1.1-0.5,1.7c0,0,0,0.1,0,0.2c-0.2,0.6-0.5,1.1-0.7,1.6c-0.2,0.6-0.5,1.1-0.7,1.7v0.1c-0.2,0.4-0.5,0.7-0.6,1.1
		c-0.5,0.7-0.9,1.5-1.4,2.3c0,0.1-0.1,0.2-0.2,0.3c-0.6,0.8-1.3,1.7-2,2.5c-0.2,0.2-0.4,0.4-0.6,0.6c-0.3,0.4-0.7,0.7-1,1.1
		c-0.3,0.2-0.6,0.5-0.8,0.7c-0.7,0.6-1.5,1.3-2.3,2c-0.5,0.5-1.1,0.8-1.6,1.3c-0.9,0.6-1.8,1.3-2.8,1.9c-0.5,0.3-0.8,0.6-1.2,0.8
		c-0.4,0.2-0.8,0.5-1.1,0.7c-2.2,1.3-4.5,2.5-6.8,3.6c-0.7,0.4-1.6,0.7-2.4,1c-1.3,0.6-2.6,1.1-4,1.7c-0.3,0.1-0.7,0.2-1,0.3
		c-0.6,0.2-1.3,0.4-2,0.6c-1.8,0.6-3.7,1.1-5.5,1.6c-0.7,0.2-1.5,0.4-2.2,0.6c-0.5,0.1-0.9,0.2-1.4,0.3c-2.1,0.5-4.2,0.8-6.4,1.1
		c-0.6,0.1-1.2,0.2-1.8,0.2c-0.3,0-0.6,0-0.8,0.1c-1.7,0.2-3.5,0.4-5.3,0.5c-0.2,0-0.4,0-0.6,0h-0.2c-1.9,0.1-3.9,0.2-5.8,0.2H606
		c-0.3,0-0.6,0-1,0c-1.6,0-3.2,0-4.8-0.1c-0.3,0-0.6,0-1,0c-0.2,0-0.3,0-0.5,0c-2.2-0.1-4.3-0.3-6.5-0.6c-0.1,0-0.3,0-0.4,0
		c-0.3,0-0.5,0-0.7-0.1c-2.6-0.3-5.2-0.7-8-1.2H583c0,0,0,0-0.1,0l-0.2-16.7c4.2-4.4,6.8-9,7.9-13.9c1.8-8.6-1-17.7-8.4-27
		c0,0,0.1,0,0.2,0c2.7,0.5,5.3,0.9,8,1.2c0.4,0,0.8,0.1,1.1,0.2c1.1,0.1,2.2,0.3,3.3,0.3s2.2,0.2,3.3,0.2c0.7,0,1.3,0,2,0
		c1.1,0,2.2,0.1,3.3,0.1c0.8,0,1.7,0,2.6,0c1,0,1.9,0,2.9,0s1.9,0,2.9-0.1c0.3,0,0.6,0,0.9,0c1.7-0.1,3.5-0.3,5.2-0.5
		c0.9-0.1,1.7-0.2,2.7-0.3c1.3-0.2,2.7-0.4,4-0.6c1.3-0.3,2.6-0.6,3.8-0.8c0.1,0,0.2,0,0.3,0c0.6-0.2,1.3-0.3,1.9-0.5
		c0.8-0.2,1.7-0.5,2.5-0.7c0.1,0,0.2,0,0.3,0c0.9-0.3,1.8-0.6,2.7-0.8c0.5-0.1,0.9-0.3,1.3-0.5c0.2,0,0.5-0.1,0.6-0.2
		c0.1,0,0.2,0,0.3-0.1c0.8-0.3,1.6-0.6,2.4-0.9c0.8-0.3,1.6-0.6,2.3-1c0.8-0.3,1.6-0.6,2.4-1c1.1-0.6,2.3-1.1,3.4-1.7
		c1.1-0.6,2.3-1.2,3.4-1.9c0.8-0.5,1.6-1.1,2.4-1.6c1-0.6,1.9-1.3,2.8-2c0.6-0.4,1.1-0.8,1.6-1.3c0.8-0.6,1.6-1.3,2.3-2
		c0.5-0.5,1-0.9,1.4-1.4l0.4-0.4c0.2-0.2,0.4-0.4,0.6-0.6c0.8-0.9,1.5-1.8,2.2-2.7c0.3-0.4,0.6-0.7,0.7-1.1c0.2-0.4,0.5-0.7,0.7-1.1
		c0.1-0.2,0.2-0.4,0.4-0.6c0.1-0.2,0.2-0.4,0.3-0.6l0,0c0.1-0.3,0.2-0.6,0.4-0.8c0.3-0.6,0.6-1.1,0.7-1.7c0.1-0.3,0.2-0.6,0.3-0.8
		s0.2-0.6,0.2-0.9s0.1-0.6,0.2-0.8c0-0.3,0.1-0.6,0.2-0.9s0.2-0.6,0.2-1c0.1-0.8,0.1-1.6,0.2-2.4c0-0.4,0-0.7,0.1-1.1L671.3,327.2z"
		/>
	<path class="st1" d="M591.5,388.9c0-0.3,0.1-0.6,0.1-0.9v-0.1c0-0.3,0-0.6,0.1-0.8c0-0.1,0-0.1,0-0.2c0-0.3,0-0.6,0-0.9v-0.1
		c0-0.3,0-0.6,0-0.8V385c0-0.1,0-0.1,0-0.2l-0.7-57.6c0,0.1,0,0.2,0,0.4c0,0.3,0,0.6,0,0.8v0.1c0,0.3,0,0.6,0,0.9c0,0.1,0,0.1,0,0.2
		c0,0.3,0,0.6-0.1,0.8v0.1c0,0.3-0.1,0.6-0.1,0.9c0,0.1,0,0.1,0,0.2c0,0.3-0.1,0.6-0.2,1l0,0c-0.2,1-0.5,1.9-0.8,2.9
		c-0.4,1.1-0.9,2.3-1.5,3.4l0,0c-0.6,1.2-1.4,2.3-2.2,3.5c-0.5,0.7-1,1.3-1.6,2c-0.1,0.2-0.3,0.4-0.5,0.6c-0.8,0.9-1.6,1.8-2.5,2.6
		c-0.2,0.2-0.4,0.4-0.6,0.6c-0.7,0.7-1.5,1.4-2.3,2c-0.3,0.2-0.6,0.5-0.8,0.6c-1,0.8-2.1,1.6-3.3,2.4c-0.1,0.1-0.2,0.1-0.3,0.2
		c-1.2,0.8-2.5,1.7-3.9,2.5c-2.2,1.3-4.5,2.5-6.8,3.7c-0.8,0.4-1.6,0.7-2.3,1c-1.6,0.7-3.1,1.4-4.7,2c-2.2,0.8-4.4,1.5-6.6,2.2
		c-0.5,0.1-1.1,0.3-1.6,0.4c-1.7,0.5-3.4,0.9-5.2,1.2c-1.3,0.3-2.6,0.5-4,0.6c-1.3,0.2-2.6,0.4-4,0.6c-0.9,0.1-1.9,0.2-2.8,0.3
		c-1.6,0.1-3.3,0.3-4.9,0.3c-0.9,0-1.8,0-2.8,0.1c-1.7,0-3.4,0-5.2,0c-1,0-1.9,0-2.9-0.1c-2.5-0.1-5.1-0.3-7.7-0.6
		c-1.7-0.2-3.5-0.5-5.2-0.7c-1.5-0.2-3.1-0.4-4.6-0.7c-2.6-0.5-5.1-1-7.7-1.6c-0.6-0.1-1.1-0.3-1.7-0.4c-2-0.5-4-1-5.9-1.6
		c-1.3-0.4-2.5-0.7-3.8-1.1c-1.8-0.6-3.6-1.1-5.4-1.7c-1.2-0.4-2.5-0.8-3.7-1.3c-1.8-0.6-3.6-1.4-5.4-2.1c-1.3-0.6-2.7-1.1-4-1.6
		c-1.9-0.8-3.8-1.7-5.7-2.5c-1.3-0.6-2.5-1.1-3.8-1.7c-2.1-1-4.3-2.1-6.4-3.2c-1.1-0.6-2.2-1.1-3.2-1.7c-3.3-1.7-6.5-3.5-9.8-5.4
		l-44.7-25.9l-62.2-35.9l0.7,57.6l62.2,35.9l44.8,25.9c3.3,1.9,6.6,3.7,9.8,5.4c1.1,0.6,2.2,1.1,3.2,1.6c2.2,1.1,4.3,2.2,6.4,3.2
		c1.3,0.6,2.5,1.1,3.8,1.7c1.9,0.9,3.8,1.7,5.7,2.5c1.3,0.6,2.7,1.1,4,1.6c1.4,0.6,2.9,1.1,4.2,1.7c0.4,0.1,0.8,0.3,1.2,0.4
		c1.2,0.5,2.5,0.9,3.7,1.3c1.8,0.6,3.6,1.2,5.4,1.8c1.3,0.4,2.5,0.7,3.8,1.1c1,0.3,2.1,0.6,3.1,0.9c1,0.2,1.9,0.5,2.9,0.7
		c0.6,0.1,1.1,0.3,1.7,0.4c2.3,0.6,4.6,1.1,6.9,1.5c0.3,0,0.5,0.1,0.8,0.1c1.5,0.3,3.1,0.5,4.6,0.7c1.2,0.2,2.5,0.4,3.7,0.6
		c0.5,0,1,0.1,1.6,0.2c2.2,0.2,4.3,0.4,6.5,0.6c0.4,0,0.8,0,1.3,0c1,0,1.9,0,2.9,0.1c1,0,2,0.1,3,0.1c0.7,0,1.4,0,2.1,0
		c0.9,0,1.9,0,2.8-0.1c0.6,0,1.3,0,1.9,0c1,0,2-0.2,3-0.3c0.9-0.1,1.9-0.1,2.8-0.3c0.4,0,0.7,0,1.1-0.1c1-0.1,1.9-0.3,2.9-0.5
		c1.3-0.2,2.6-0.4,4-0.6c0.3,0,0.6-0.1,1-0.2c1.4-0.3,2.9-0.7,4.3-1.1c0.5-0.1,1.1-0.2,1.6-0.4c2.1-0.6,4.2-1.3,6.3-2
		c0.1,0,0.2-0.1,0.3-0.1c1.6-0.6,3.2-1.3,4.8-2c0.8-0.3,1.6-0.6,2.3-1c2.3-1.1,4.6-2.3,6.8-3.7c0.5-0.3,1-0.6,1.4-0.9
		c0.8-0.5,1.6-1.1,2.4-1.6c0.1-0.1,0.2-0.1,0.3-0.2c1.1-0.8,2.2-1.6,3.3-2.4c0.3-0.2,0.6-0.5,0.8-0.6c0.8-0.7,1.6-1.4,2.3-2.1
		c0.2-0.2,0.4-0.4,0.6-0.5c0.1-0.1,0.2-0.1,0.2-0.2c0.8-0.8,1.6-1.6,2.3-2.4c0.1-0.2,0.3-0.4,0.5-0.6c0.5-0.6,0.9-1.1,1.3-1.7
		c0.1-0.1,0.1-0.2,0.2-0.4c0.8-1.1,1.6-2.3,2.2-3.5l0,0l0,0c0.6-1.1,1.1-2.3,1.5-3.4c0-0.1,0.1-0.1,0.1-0.2c0.3-0.9,0.6-1.8,0.7-2.7
		l-0.4-29.2l0.4,29.2c0-0.3,0.1-0.6,0.2-1v-0.1C591.5,389,591.5,389,591.5,388.9z"/>
	<path class="st1" d="M575.2,262.6c-9.8,5.9-21.9,4.6-36.4-3.8l-30-17.3l29.3-17.6l30,17.3C582.5,249.6,585,256.7,575.2,262.6z"/>
	<path class="st1" d="M510.6,312.5c-10.3,6.2-22.8,5-37.5-3.4L434,286.5l31-18.6l39.1,22.6C518.7,299,521,306.3,510.6,312.5z"/>
	<g>
		<path class="st2" d="M311,568.9c0,14.4-12.1,22.8-34.9,22.8h-46.5v-82.6h44.1c22.8,0,33.3,9.1,33.3,21.6c0,7.7-3.9,14-11.5,17.8
			C305.3,552,311,559.1,311,568.9z M257,528.6v12.3h13c6.3,0,9.1-2.1,9.1-6.1s-2.9-6.1-9.1-6.1L257,528.6L257,528.6z M282.9,565.7
			c0-4.2-3.1-6.5-9.2-6.5H257v13h16.7C279.8,572.2,282.9,570,282.9,565.7z"/>
		<path class="st2" d="M320,554.5v-45.4h27.8v44.6c0,12.6,4.8,17.3,12.6,17.3s12.6-4.7,12.6-17.3v-44.6h27.4v45.4
			c0,24.7-14.9,39-40.2,39C334.9,593.5,320,579.3,320,554.5z"/>
		<path class="st2" d="M409.9,550.4c0-25,19.7-43.1,46.6-43.1s46.6,18.2,46.6,43.1c0,25-19.7,43.1-46.6,43.1
			S409.9,575.4,409.9,550.4z M475,550.4c0-12.8-8.2-20.7-18.5-20.7s-18.5,7.8-18.5,20.7c0,12.8,8.2,20.7,18.5,20.7
			C466.7,571,475,563.2,475,550.4z"/>
		<path class="st2" d="M598.4,509.1l-34.9,82.5h-27.4l-34.9-82.5h29.9l19.7,48.2l20.1-48.2L598.4,509.1L598.4,509.1z"/>
		<path class="st2" d="M669.8,570.7v21h-68.6v-82.5h67.1v21h-39.7v9.7h34.9V560h-34.9v10.9L669.8,570.7L669.8,570.7z"/>
		<path class="st2" d="M677.2,550.4c0-25,19.7-43.1,46.6-43.1c26.9,0,46.6,18.2,46.6,43.1c0,25-19.7,43.1-46.6,43.1
			S677.2,575.4,677.2,550.4z M742.3,550.4c0-12.8-8.2-20.7-18.5-20.7s-18.5,7.8-18.5,20.7c0,12.8,8.2,20.7,18.5,20.7
			C734,571,742.3,563.2,742.3,550.4z"/>
	</g>
</g>
<rect x="536.7" y="919.8" class="st3" width="160" height="48"/>
<rect x="368.7" y="919.8" class="st2" width="160" height="48"/>
<rect x="32.5" y="919.8" class="st4" width="160" height="48"/>
<rect x="200.6" y="919.8" class="st1" width="160" height="48"/>
<linearGradient id="SVGID_1_" gradientUnits="userSpaceOnUse" x1="712.7853" y1="125.7571" x2="967.7853" y2="125.7571" gradientTransform="matrix(-1 0 0 1 1680.5853 818.043)">
	<stop  offset="0" style="stop-color:#734BE1"/>
	<stop  offset="1" style="stop-color:#63EBD6"/>
</linearGradient>
<rect x="712.8" y="919.8" class="st5" width="255" height="48"/>
<g class="st6">
	<path class="st7" d="M379.6,904.8c0.6,0.7,0.9,1.5,0.9,2.5c0,0.8-0.2,1.6-0.7,2.4s-1.2,1.3-2.1,1.8s-2.2,0.7-3.6,0.7
		c-1,0-2-0.1-2.9-0.3s-1.8-0.5-2.6-0.9l1.6-3.5c0.6,0.3,1.2,0.6,1.9,0.8c0.7,0.2,1.3,0.3,1.9,0.3c0.5,0,1-0.1,1.3-0.3
		c0.3-0.2,0.5-0.5,0.5-0.8c0-0.6-0.6-1-1.7-1h-1.9v-2.9l2.1-2.1h-5v-3.6h10.4v2.9l-2.6,2.6C378.2,903.6,379,904.1,379.6,904.8z"/>
	<path class="st7" d="M390.4,898.2c1,0.5,1.8,1.3,2.3,2.3c0.6,1,0.8,2.3,0.8,3.8c0,1.6-0.3,3-1,4.2c-0.6,1.2-1.6,2.1-2.7,2.7
		c-1.2,0.6-2.5,0.9-4.1,0.9c-0.8,0-1.6-0.1-2.4-0.3c-0.8-0.2-1.4-0.5-1.9-0.8l1.7-3.3c0.7,0.5,1.5,0.7,2.5,0.7c0.8,0,1.5-0.2,2-0.6
		c0.5-0.4,0.9-1,1-1.8c-0.7,0.5-1.7,0.8-2.8,0.8c-0.9,0-1.6-0.2-2.4-0.6c-0.7-0.4-1.3-0.9-1.8-1.6s-0.7-1.5-0.7-2.3
		c0-1,0.2-1.8,0.8-2.6c0.5-0.7,1.2-1.3,2-1.7c0.9-0.4,1.8-0.6,2.9-0.6C388.2,897.4,389.4,897.7,390.4,898.2z M388.2,903.2
		c0.3-0.3,0.4-0.6,0.4-1c0-0.4-0.1-0.8-0.4-1c-0.3-0.3-0.6-0.4-1-0.4c-0.4,0-0.8,0.1-1,0.4c-0.3,0.3-0.4,0.6-0.4,1
		c0,0.4,0.1,0.8,0.4,1c0.3,0.3,0.6,0.4,1,0.4C387.6,903.6,387.9,903.4,388.2,903.2z"/>
	<path class="st7" d="M404.9,904.8c0.6,0.7,0.9,1.5,0.9,2.5c0,0.8-0.2,1.6-0.7,2.4s-1.2,1.3-2.1,1.8s-2.2,0.7-3.6,0.7
		c-1,0-2-0.1-2.9-0.3s-1.8-0.5-2.6-0.9l1.6-3.5c0.6,0.3,1.2,0.6,1.9,0.8c0.7,0.2,1.3,0.3,1.9,0.3c0.5,0,1-0.1,1.3-0.3
		c0.3-0.2,0.5-0.5,0.5-0.8c0-0.6-0.6-1-1.7-1h-1.9v-2.9l2.1-2.1h-5v-3.6H405v2.9l-2.6,2.6C403.5,903.6,404.3,904.1,404.9,904.8z"/>
	<path class="st7" d="M412.1,901.4h2.4v3.3h-2.2v7h-4.5v-7h-1.5v-3.3h1.5v-0.1c0-1.4,0.4-2.6,1.3-3.4c0.9-0.8,2.1-1.2,3.6-1.2
		c0.5,0,1,0,1.5,0.1c0.5,0.1,0.9,0.2,1.2,0.4l-1.1,3.1c-0.4-0.2-0.7-0.3-1-0.3c-0.3,0-0.6,0.1-0.8,0.3
		C412.2,900.7,412.1,901,412.1,901.4L412.1,901.4z"/>
	<path class="st7" d="M427.7,897.8v2.9l-4.7,11.1h-5.2l4.4-10.3h-2.7v2h-3.9v-5.7H427.7z"/>
	<path class="st7" d="M439.8,907.3h-7.6c0.2,0.4,0.4,0.7,0.8,1c0.4,0.2,0.8,0.3,1.4,0.3c0.5,0,0.9-0.1,1.2-0.2
		c0.3-0.1,0.7-0.3,1.1-0.6l2.4,2.4c-1.1,1.2-2.7,1.8-4.8,1.8c-1.3,0-2.5-0.2-3.5-0.7c-1-0.5-1.8-1.2-2.3-2c-0.5-0.9-0.8-1.8-0.8-2.9
		c0-1.1,0.3-2.1,0.8-2.9c0.5-0.9,1.3-1.5,2.2-2c0.9-0.5,2-0.7,3.2-0.7c1.1,0,2.1,0.2,3,0.7c0.9,0.4,1.6,1.1,2.2,1.9s0.8,1.9,0.8,3.1
		C439.9,906.4,439.9,906.7,439.8,907.3z M432.7,904.1c-0.3,0.3-0.5,0.6-0.6,1.1h3.5c-0.1-0.5-0.3-0.8-0.6-1.1s-0.7-0.4-1.2-0.4
		C433.4,903.7,433,903.8,432.7,904.1z"/>
</g>
<g class="st6">
	<path class="st7" d="M213,897.8v2.9l-4.7,11.1h-5.2l4.4-10.3h-2.7v2H201v-5.7H213z"/>
	<path class="st7" d="M224.3,904.8c0.6,0.7,0.9,1.5,0.9,2.5c0,0.8-0.2,1.6-0.7,2.4s-1.2,1.3-2.1,1.8s-2.2,0.7-3.6,0.7
		c-1,0-2-0.1-2.9-0.3s-1.8-0.5-2.6-0.9l1.6-3.5c0.6,0.3,1.2,0.6,1.9,0.8c0.7,0.2,1.3,0.3,1.9,0.3c0.5,0,1-0.1,1.3-0.3
		c0.3-0.2,0.5-0.5,0.5-0.8c0-0.6-0.6-1-1.7-1h-1.9v-2.9l2.1-2.1h-5v-3.6h10.4v2.9l-2.6,2.6C222.9,903.6,223.7,904.1,224.3,904.8z"/>
	<path class="st7" d="M239.8,909.4H238v2.4h-4.6v-2.4h-7.3v-3l5.9-8.6h4.8l-5.3,7.9h1.9v-2.1h4.4v2.1h1.9V909.4z"/>
	<path class="st7" d="M250.9,901.3c0.8,0.5,1.4,1.1,1.9,2c0.5,0.9,0.7,1.9,0.7,3c0,1.1-0.2,2.1-0.7,3c-0.5,0.9-1.1,1.5-1.9,2
		c-0.8,0.5-1.7,0.7-2.7,0.7c-1.3,0-2.3-0.4-3-1.1v0.9h-4.3v-14.8h4.5v4.6c0.6-0.6,1.6-0.9,2.8-0.9
		C249.2,900.6,250,900.9,250.9,901.3z M248.4,907.9c0.3-0.4,0.5-0.9,0.5-1.6c0-0.7-0.2-1.2-0.5-1.6c-0.3-0.4-0.8-0.6-1.3-0.6
		s-0.9,0.2-1.3,0.6c-0.3,0.4-0.5,0.9-0.5,1.6c0,0.7,0.2,1.2,0.5,1.6c0.3,0.4,0.8,0.6,1.3,0.6S248.1,908.3,248.4,907.9z"/>
	<path class="st7" d="M266.5,907.3h-7.6c0.2,0.4,0.4,0.7,0.8,1c0.4,0.2,0.8,0.3,1.4,0.3c0.5,0,0.9-0.1,1.2-0.2
		c0.3-0.1,0.7-0.3,1.1-0.6l2.4,2.4c-1.1,1.2-2.7,1.8-4.8,1.8c-1.3,0-2.5-0.2-3.5-0.7c-1-0.5-1.8-1.2-2.3-2c-0.5-0.9-0.8-1.8-0.8-2.9
		c0-1.1,0.3-2.1,0.8-2.9c0.5-0.9,1.3-1.5,2.2-2c0.9-0.5,2-0.7,3.2-0.7c1.1,0,2.1,0.2,3,0.7c0.9,0.4,1.6,1.1,2.2,1.9s0.8,1.9,0.8,3.1
		C266.5,906.4,266.5,906.7,266.5,907.3z M259.4,904.1c-0.3,0.3-0.5,0.6-0.6,1.1h3.5c-0.1-0.5-0.3-0.8-0.6-1.1s-0.7-0.4-1.2-0.4
		C260.1,903.7,259.7,903.8,259.4,904.1z"/>
	<path class="st7" d="M273.8,897.8v14h-4.7v-10.4h-2.4v-3.6H273.8z"/>
</g>
<g class="st6">
	<path class="st7" d="M43.1,903.3c0.7,0.4,1.3,0.9,1.8,1.6s0.7,1.5,0.7,2.3c0,1-0.2,1.8-0.8,2.6c-0.5,0.7-1.2,1.3-2,1.7
		c-0.9,0.4-1.8,0.6-2.9,0.6c-1.3,0-2.5-0.3-3.5-0.8c-1-0.5-1.8-1.3-2.4-2.3c-0.6-1-0.8-2.3-0.8-3.8c0-1.6,0.3-3,1-4.2
		c0.6-1.2,1.6-2.1,2.7-2.7c1.2-0.6,2.5-0.9,4.1-0.9c0.8,0,1.6,0.1,2.4,0.3c0.8,0.2,1.4,0.5,1.9,0.8l-1.7,3.3
		c-0.7-0.5-1.5-0.7-2.5-0.7c-0.8,0-1.5,0.2-2,0.6c-0.5,0.4-0.9,1-1,1.8c0.7-0.5,1.7-0.8,2.8-0.8C41.6,902.7,42.4,902.9,43.1,903.3z
		 M40.6,908.4c0.3-0.3,0.4-0.6,0.4-1c0-0.4-0.1-0.8-0.4-1c-0.3-0.3-0.6-0.4-1-0.4s-0.8,0.1-1,0.4s-0.4,0.6-0.4,1
		c0,0.4,0.1,0.8,0.4,1c0.3,0.3,0.6,0.4,1,0.4S40.3,908.7,40.6,908.4z"/>
	<path class="st7" d="M56.7,904.8c0.6,0.7,0.9,1.5,0.9,2.5c0,0.8-0.2,1.6-0.7,2.4s-1.2,1.3-2.1,1.8s-2.2,0.7-3.6,0.7
		c-1,0-2-0.1-2.9-0.3s-1.8-0.5-2.6-0.9l1.6-3.5c0.6,0.3,1.2,0.6,1.9,0.8c0.7,0.2,1.3,0.3,1.9,0.3c0.5,0,1-0.1,1.3-0.3
		c0.3-0.2,0.5-0.5,0.5-0.8c0-0.6-0.6-1-1.7-1h-1.9v-2.9l2.1-2.1h-5v-3.6h10.4v2.9l-2.6,2.6C55.3,903.6,56.1,904.1,56.7,904.8z"/>
	<path class="st7" d="M70.6,907.3H63c0.2,0.4,0.4,0.7,0.8,1c0.4,0.2,0.8,0.3,1.4,0.3c0.5,0,0.9-0.1,1.2-0.2c0.3-0.1,0.7-0.3,1.1-0.6
		l2.4,2.4c-1.1,1.2-2.7,1.8-4.8,1.8c-1.3,0-2.5-0.2-3.5-0.7c-1-0.5-1.8-1.2-2.3-2c-0.5-0.9-0.8-1.8-0.8-2.9c0-1.1,0.3-2.1,0.8-2.9
		c0.5-0.9,1.3-1.5,2.2-2c0.9-0.5,2-0.7,3.2-0.7c1.1,0,2.1,0.2,3,0.7c0.9,0.4,1.6,1.1,2.2,1.9s0.8,1.9,0.8,3.1
		C70.7,906.4,70.7,906.7,70.6,907.3z M63.5,904.1c-0.3,0.3-0.5,0.6-0.6,1.1h3.5c-0.1-0.5-0.3-0.8-0.6-1.1s-0.7-0.4-1.2-0.4
		C64.2,903.7,63.8,903.8,63.5,904.1z"/>
	<path class="st7" d="M82,901.3c0.8,0.5,1.4,1.1,1.9,2c0.5,0.9,0.7,1.9,0.7,3c0,1.1-0.2,2.1-0.7,3c-0.5,0.9-1.1,1.5-1.9,2
		c-0.8,0.5-1.7,0.7-2.7,0.7c-1.3,0-2.3-0.4-3-1.1v0.9h-4.3v-14.8h4.5v4.6c0.6-0.6,1.6-0.9,2.8-0.9C80.4,900.6,81.2,900.9,82,901.3z
		 M79.6,907.9c0.3-0.4,0.5-0.9,0.5-1.6c0-0.7-0.2-1.2-0.5-1.6c-0.3-0.4-0.8-0.6-1.3-0.6s-0.9,0.2-1.3,0.6c-0.3,0.4-0.5,0.9-0.5,1.6
		c0,0.7,0.2,1.2,0.5,1.6c0.3,0.4,0.8,0.6,1.3,0.6S79.3,908.3,79.6,907.9z"/>
	<path class="st7" d="M98.2,896.9v14.8h-4.3v-0.9c-0.7,0.7-1.7,1.1-3,1.1c-1,0-1.8-0.2-2.6-0.7s-1.4-1.1-1.9-2
		c-0.5-0.9-0.7-1.9-0.7-3c0-1.1,0.2-2.1,0.7-3c0.5-0.9,1.1-1.5,1.9-2s1.7-0.7,2.6-0.7c1.2,0,2.1,0.3,2.8,0.9v-4.6H98.2z M93.3,907.9
		c0.3-0.4,0.5-0.9,0.5-1.6c0-0.7-0.2-1.2-0.5-1.6c-0.3-0.4-0.8-0.6-1.3-0.6s-0.9,0.2-1.3,0.6c-0.3,0.4-0.5,0.9-0.5,1.6
		c0,0.7,0.2,1.2,0.5,1.6c0.3,0.4,0.8,0.6,1.3,0.6S92.9,908.3,93.3,907.9z"/>
	<path class="st7" d="M109.8,903.3c0.7,0.4,1.3,0.9,1.8,1.6s0.7,1.5,0.7,2.3c0,1-0.2,1.8-0.8,2.6c-0.5,0.7-1.2,1.3-2,1.7
		c-0.9,0.4-1.8,0.6-2.9,0.6c-1.3,0-2.5-0.3-3.5-0.8c-1-0.5-1.8-1.3-2.4-2.3c-0.6-1-0.8-2.3-0.8-3.8c0-1.6,0.3-3,1-4.2
		c0.6-1.2,1.6-2.1,2.7-2.7c1.2-0.6,2.5-0.9,4.1-0.9c0.8,0,1.6,0.1,2.4,0.3c0.8,0.2,1.4,0.5,1.9,0.8l-1.7,3.3
		c-0.7-0.5-1.5-0.7-2.5-0.7c-0.8,0-1.5,0.2-2,0.6c-0.5,0.4-0.9,1-1,1.8c0.7-0.5,1.7-0.8,2.8-0.8C108.2,902.7,109,902.9,109.8,903.3z
		 M107.2,908.4c0.3-0.3,0.4-0.6,0.4-1c0-0.4-0.1-0.8-0.4-1c-0.3-0.3-0.6-0.4-1-0.4s-0.8,0.1-1,0.4s-0.4,0.6-0.4,1
		c0,0.4,0.1,0.8,0.4,1c0.3,0.3,0.6,0.4,1,0.4S106.9,908.7,107.2,908.4z"/>
</g>
<g class="st6">
	<path class="st7" d="M546.1,898.2c1,0.5,1.8,1.3,2.3,2.3s0.8,2.3,0.8,3.8c0,1.6-0.3,3-1,4.2c-0.6,1.2-1.6,2.1-2.7,2.7
		c-1.2,0.6-2.5,0.9-4.1,0.9c-0.8,0-1.6-0.1-2.4-0.3c-0.8-0.2-1.4-0.5-1.9-0.8l1.7-3.3c0.7,0.5,1.5,0.7,2.5,0.7c0.8,0,1.5-0.2,2-0.6
		c0.5-0.4,0.9-1,1-1.8c-0.7,0.5-1.7,0.8-2.8,0.8c-0.9,0-1.6-0.2-2.4-0.6c-0.7-0.4-1.3-0.9-1.8-1.6c-0.4-0.7-0.7-1.5-0.7-2.3
		c0-1,0.2-1.8,0.8-2.6c0.5-0.7,1.2-1.3,2-1.7c0.9-0.4,1.8-0.6,2.9-0.6C543.9,897.4,545.1,897.7,546.1,898.2z M544,903.2
		c0.3-0.3,0.4-0.6,0.4-1c0-0.4-0.1-0.8-0.4-1c-0.3-0.3-0.6-0.4-1-0.4c-0.4,0-0.8,0.1-1,0.4c-0.3,0.3-0.4,0.6-0.4,1
		c0,0.4,0.1,0.8,0.4,1c0.3,0.3,0.6,0.4,1,0.4C543.3,903.6,543.7,903.4,544,903.2z"/>
	<path class="st7" d="M561.5,908.1v3.7h-11.2v-2.9l5.1-4.7c0.4-0.4,0.7-0.8,0.9-1.1c0.1-0.3,0.2-0.6,0.2-0.9c0-0.3-0.1-0.6-0.4-0.8
		s-0.6-0.3-1-0.3c-0.4,0-0.8,0.1-1.2,0.3s-0.7,0.5-0.9,1l-3.6-1.8c0.5-1,1.3-1.8,2.3-2.4s2.3-0.9,3.7-0.9c1.1,0,2.1,0.2,2.9,0.5
		c0.9,0.4,1.5,0.9,2,1.5c0.5,0.7,0.7,1.4,0.7,2.3c0,0.8-0.2,1.5-0.5,2.2c-0.3,0.7-1,1.4-1.9,2.3l-2,1.8H561.5z"/>
	<path class="st7" d="M571.3,898.2c1,0.5,1.8,1.3,2.3,2.3s0.8,2.3,0.8,3.8c0,1.6-0.3,3-1,4.2c-0.6,1.2-1.6,2.1-2.7,2.7
		c-1.2,0.6-2.5,0.9-4.1,0.9c-0.8,0-1.6-0.1-2.4-0.3c-0.8-0.2-1.4-0.5-1.9-0.8l1.7-3.3c0.7,0.5,1.5,0.7,2.5,0.7c0.8,0,1.5-0.2,2-0.6
		c0.5-0.4,0.9-1,1-1.8c-0.7,0.5-1.7,0.8-2.8,0.8c-0.9,0-1.6-0.2-2.4-0.6c-0.7-0.4-1.3-0.9-1.8-1.6c-0.4-0.7-0.7-1.5-0.7-2.3
		c0-1,0.2-1.8,0.8-2.6c0.5-0.7,1.2-1.3,2-1.7c0.9-0.4,1.8-0.6,2.9-0.6C569.1,897.4,570.3,897.7,571.3,898.2z M569.1,903.2
		c0.3-0.3,0.4-0.6,0.4-1c0-0.4-0.1-0.8-0.4-1c-0.3-0.3-0.6-0.4-1-0.4c-0.4,0-0.8,0.1-1,0.4c-0.3,0.3-0.4,0.6-0.4,1
		c0,0.4,0.1,0.8,0.4,1c0.3,0.3,0.6,0.4,1,0.4C568.5,903.6,568.9,903.4,569.1,903.2z"/>
	<path class="st7" d="M589.2,909.4h-1.9v2.4h-4.6v-2.4h-7.3v-3l5.9-8.6h4.8l-5.3,7.9h1.9v-2.1h4.4v2.1h1.9V909.4z"/>
	<path class="st7" d="M598.8,898.2c1,0.5,1.8,1.3,2.3,2.3s0.8,2.3,0.8,3.8c0,1.6-0.3,3-1,4.2c-0.6,1.2-1.6,2.1-2.7,2.7
		c-1.2,0.6-2.5,0.9-4.1,0.9c-0.8,0-1.6-0.1-2.4-0.3c-0.8-0.2-1.4-0.5-1.9-0.8l1.7-3.3c0.7,0.5,1.5,0.7,2.5,0.7c0.8,0,1.5-0.2,2-0.6
		c0.5-0.4,0.9-1,1-1.8c-0.7,0.5-1.7,0.8-2.8,0.8c-0.9,0-1.6-0.2-2.4-0.6c-0.7-0.4-1.3-0.9-1.8-1.6c-0.4-0.7-0.7-1.5-0.7-2.3
		c0-1,0.2-1.8,0.8-2.6c0.5-0.7,1.2-1.3,2-1.7c0.9-0.4,1.8-0.6,2.9-0.6C596.6,897.4,597.8,897.7,598.8,898.2z M596.6,903.2
		c0.3-0.3,0.4-0.6,0.4-1c0-0.4-0.1-0.8-0.4-1c-0.3-0.3-0.6-0.4-1-0.4c-0.4,0-0.8,0.1-1,0.4c-0.3,0.3-0.4,0.6-0.4,1
		c0,0.4,0.1,0.8,0.4,1c0.3,0.3,0.6,0.4,1,0.4C596,903.6,596.3,903.4,596.6,903.2z"/>
	<path class="st7" d="M614.9,897.8v2.9l-4.7,11.1h-5.2l4.4-10.3h-2.7v2H603v-5.7H614.9z"/>
</g>
</svg>
