<svg id="Layer_1" data-name="Layer 1" xmlns="http://www.w3.org/2000/svg" viewBox="0 0 250 250"><defs><style>.cls-1{fill:#00c4b7;}.cls-2{fill:#00e6d6;}</style></defs><title>Teal_Sprinkles_Pattern</title><rect class="cls-1" y="-0.27" width="250" height="250.54"/><path class="cls-2" d="M34.5,54.86a1.49,1.49,0,0,1-1.44-1.08L30.15,43.62A1.5,1.5,0,0,1,33,42.79L35.94,53a1.52,1.52,0,0,1-1,1.86A2,2,0,0,1,34.5,54.86Z"/><path class="cls-2" d="M16.61,9a1.5,1.5,0,0,1-.62.13,1.49,1.49,0,0,1-1.36-.87L10.84,0h3.29l3.22,7A1.5,1.5,0,0,1,16.61,9Z"/><path class="cls-2" d="M50.67,0,49,13.27a1.49,1.49,0,0,1-1.48,1.31h-.18a1.49,1.49,0,0,1-1.3-1.67L47.65,0Z"/><path class="cls-2" d="M85.22,0l-1,7.83a1.49,1.49,0,0,1-1.48,1.31h-.19a1.5,1.5,0,0,1-1.3-1.67L82.21,0Z"/><path class="cls-2" d="M71.7,4.08a1.5,1.5,0,0,1-1.28.7,1.52,1.52,0,0,1-.79-.22L62.26,0H68l3.26,2A1.5,1.5,0,0,1,71.7,4.08Z"/><path class="cls-2" d="M30.51,0,27.62,14.47a1.5,1.5,0,0,1-1.47,1.2l-.3,0a1.5,1.5,0,0,1-1.17-1.76L27.46,0Z"/><path class="cls-2" d="M104.65,0,95.13,5.66a1.39,1.39,0,0,1-.76.21,1.49,1.49,0,0,1-.76-2.78L98.8,0Z"/><path class="cls-2" d="M126.24,0,123,9.23a1.5,1.5,0,0,1-1.41,1,1.43,1.43,0,0,1-.5-.09,1.48,1.48,0,0,1-.91-1.9L123.07,0Z"/><path class="cls-2" d="M158.19,7.79a1.49,1.49,0,0,1-1.91.9L135.23,1.07A1.48,1.48,0,0,1,134.28,0h6.8L157.3,5.87A1.51,1.51,0,0,1,158.19,7.79Z"/><path class="cls-2" d="M175.1,6.3A1.49,1.49,0,0,1,173,6l-4.5-6h3.74l3.15,4.21A1.48,1.48,0,0,1,175.1,6.3Z"/><path class="cls-2" d="M202.64,0l-18,9a1.44,1.44,0,0,1-.67.16,1.5,1.5,0,0,1-.67-2.83L195.94,0Z"/><path class="cls-2" d="M223.53,0l-3.25,12a1.49,1.49,0,0,1-1.44,1.11,1.31,1.31,0,0,1-.39-.05,1.48,1.48,0,0,1-1-1.83l3-11.25Z"/><path class="cls-2" d="M242.08,0l-4.81,11.49a1.5,1.5,0,0,1-1.38.92,1.46,1.46,0,0,1-.57-.12,1.49,1.49,0,0,1-.81-2L238.84,0Z"/><path class="cls-2" d="M14.62,250H11.33l-.69-1.51a1.49,1.49,0,0,1,2.72-1.24Z"/><path class="cls-2" d="M51.22,244.42,50.54,250h-3l.73-5.94a1.5,1.5,0,0,1,3,.36Z"/><path class="cls-2" d="M86.06,242.25l-1,7.75h-3l1-8.12a1.5,1.5,0,1,1,3,.37Z"/><path class="cls-2" d="M69.68,250H64l-2-1.22a1.5,1.5,0,0,1,1.58-2.55Z"/><path class="cls-2" d="M31.61,243.44,30.3,250H27.25l1.42-7.14a1.5,1.5,0,1,1,2.94.58Z"/><path class="cls-2" d="M110.38,245.52,102.86,250H97l11.83-7a1.49,1.49,0,1,1,1.54,2.56Z"/><path class="cls-2" d="M127.71,244.74,125.87,250h-3.18l2.2-6.26a1.5,1.5,0,0,1,2.82,1Z"/><path class="cls-2" d="M144,250h-8.79a1.49,1.49,0,1,1,1-2.81Z"/><path class="cls-2" d="M173.05,250H169.3l-1.74-2.32a1.5,1.5,0,1,1,2.4-1.8Z"/><path class="cls-2" d="M205,247.75,200.5,250h-6.69l9.85-4.92a1.49,1.49,0,1,1,1.33,2.67Z"/><path class="cls-2" d="M226.45,238.1,223.24,250h-3.1l3.42-12.68a1.5,1.5,0,1,1,2.89.78Z"/><path class="cls-2" d="M243.8,244.82,241.63,250h-3.24l2.65-6.34a1.5,1.5,0,1,1,2.76,1.16Z"/><path class="cls-2" d="M249.73,14.82v3.79l-14,10.9a1.53,1.53,0,0,1-.92.32,1.48,1.48,0,0,1-1.18-.58,1.49,1.49,0,0,1,.25-2.1Z"/><path class="cls-2" d="M249.73,32.67v3.2l-5.66-2.15a1.5,1.5,0,1,1,1.07-2.8Z"/><path class="cls-2" d="M249.73,49.37v5.26L238.21,71.27a1.46,1.46,0,0,1-1.23.65,1.5,1.5,0,0,1-1.23-2.35Z"/><path class="cls-2" d="M249.73,84.54v3.07l-5.45-1.21a1.5,1.5,0,0,1,.65-2.93Z"/><path class="cls-2" d="M249.73,103.54v3.14l-3.4-1.08a1.5,1.5,0,0,1,.9-2.86Z"/><path class="cls-2" d="M249.73,122.3v3.25l-4.18,1.77a1.51,1.51,0,0,1-.58.12,1.5,1.5,0,0,1-.59-2.88Z"/><path class="cls-2" d="M249.73,93.23V96.4l-10-3.52a1.49,1.49,0,1,1,1-2.82Z"/><path class="cls-2" d="M249.73,138.94v3.25l-3.46,1.46a1.51,1.51,0,0,1-.58.12,1.5,1.5,0,0,1-.58-2.88Z"/><path class="cls-2" d="M249.73,156v7.56l-1.58,3.66a1.49,1.49,0,0,1-1.37.9A1.5,1.5,0,0,1,245.4,166Z"/><path class="cls-2" d="M249.73,179.57v5.26l-3.53,5.1a1.49,1.49,0,0,1-2.09.38,1.49,1.49,0,0,1-.38-2.08Z"/><path class="cls-2" d="M249.73,197.17v3.26l-4.63-2a1.5,1.5,0,0,1,1.18-2.75Z"/><path class="cls-2" d="M249.73,214.43v3l-10.1.72h-.11a1.5,1.5,0,0,1-.11-3Z"/><path class="cls-2" d="M249.73,235v3.82l-5-3.94a1.5,1.5,0,0,1,1.86-2.35Z"/><path class="cls-2" d="M6,14.27.27,18.74V15l3.92-3A1.5,1.5,0,1,1,6,14.27Z"/><path class="cls-2" d="M11.94,38.66a1.49,1.49,0,0,1-1.93.86L.27,35.81V32.6l10.81,4.13A1.49,1.49,0,0,1,11.94,38.66Z"/><path class="cls-2" d="M5.24,47.69l-5,7.18V49.61L2.78,46a1.5,1.5,0,1,1,2.46,1.71Z"/><path class="cls-2" d="M6.57,87.44A1.52,1.52,0,0,1,5.1,88.61a1.22,1.22,0,0,1-.32,0l-4.51-1V84.5l5.16,1.15A1.5,1.5,0,0,1,6.57,87.44Z"/><path class="cls-2" d="M6.89,107.16a1.49,1.49,0,0,1-1.42,1,1.83,1.83,0,0,1-.46-.07L.27,106.63v-3.14l5.65,1.79A1.5,1.5,0,0,1,6.89,107.16Z"/><path class="cls-2" d="M5.69,123.33.27,125.62v-3.25l4.25-1.8a1.5,1.5,0,0,1,1.17,2.76Z"/><path class="cls-2" d="M4.7,96.32a1.48,1.48,0,0,1-1.41,1,1.43,1.43,0,0,1-.5-.09L.27,96.35V93.17l3.52,1.24A1.5,1.5,0,0,1,4.7,96.32Z"/><path class="cls-2" d="M3.87,140.75l-3.6,1.51V139l2.44-1a1.5,1.5,0,1,1,1.16,2.76Z"/><path class="cls-2" d="M6.84,148.67.27,163.91v-7.57l3.82-8.86a1.5,1.5,0,1,1,2.75,1.19Z"/><path class="cls-2" d="M6.7,175.78.27,185.07v-5.26l4-5.73a1.5,1.5,0,0,1,2.46,1.7Z"/><path class="cls-2" d="M7.93,202a1.49,1.49,0,0,1-1.37.91A1.52,1.52,0,0,1,6,202.8l-5.7-2.44v-3.27L7.14,200A1.5,1.5,0,0,1,7.93,202Z"/><path class="cls-2" d="M7,215.46a1.5,1.5,0,0,1-1.39,1.61l-5.3.38v-3l5.09-.36A1.49,1.49,0,0,1,7,215.46Z"/><path class="cls-2" d="M9.9,244.44a1.46,1.46,0,0,1-1.17.57,1.5,1.5,0,0,1-.93-.32l-7.53-6v-3.82l9.39,7.46A1.49,1.49,0,0,1,9.9,244.44Z"/><path class="cls-2" d="M64.25,86.43A1.49,1.49,0,0,1,63,85.77L55.75,74.88a1.5,1.5,0,1,1,2.49-1.66L65.5,84.11a1.49,1.49,0,0,1-.42,2.07A1.47,1.47,0,0,1,64.25,86.43Z"/><path class="cls-2" d="M141.91,79.9a1.4,1.4,0,0,1-.49-.08,1.5,1.5,0,0,1-.93-1.9l4.36-12.7a1.5,1.5,0,1,1,2.83,1l-4.36,12.7A1.49,1.49,0,0,1,141.91,79.9Z"/><path class="cls-2" d="M117.6,131.43a1.49,1.49,0,0,1-1.2-.6l-6.53-8.71a1.49,1.49,0,0,1,2.39-1.79l6.53,8.7a1.5,1.5,0,0,1-1.19,2.4Z"/><path class="cls-2" d="M57,177.88a1.49,1.49,0,0,1-1.44-1.11l-4.72-17.42a1.5,1.5,0,0,1,2.89-.78L58.44,176a1.5,1.5,0,0,1-1,1.84A1.9,1.9,0,0,1,57,177.88Z"/><path class="cls-2" d="M33,144.49a1.49,1.49,0,0,1-.47-2.91l32.29-10.89a1.5,1.5,0,1,1,1,2.84l-32.3,10.88A1.34,1.34,0,0,1,33,144.49Z"/><path class="cls-2" d="M141.91,179a1.5,1.5,0,0,1-1.15-.54l-5.45-6.53a1.5,1.5,0,0,1,.2-2.11,1.48,1.48,0,0,1,2.1.19l5.45,6.53a1.5,1.5,0,0,1-1.15,2.46Z"/><path class="cls-2" d="M144.08,201.83A1.5,1.5,0,0,1,143,199.3l12-12.7a1.5,1.5,0,1,1,2.18,2.06l-12,12.7A1.49,1.49,0,0,1,144.08,201.83Z"/><path class="cls-2" d="M178.92,182.23a1.5,1.5,0,0,1-1.29-.73l-5.8-9.8a1.49,1.49,0,1,1,2.57-1.52l5.81,9.79a1.49,1.49,0,0,1-.53,2.05A1.39,1.39,0,0,1,178.92,182.23Z"/><path class="cls-2" d="M165.86,160.46a1.5,1.5,0,0,1-1.12-.5l-8.71-9.8a1.5,1.5,0,0,1,2.24-2L167,158a1.49,1.49,0,0,1-.13,2.11A1.45,1.45,0,0,1,165.86,160.46Z"/><path class="cls-2" d="M119.05,171.71a1.5,1.5,0,0,1-1.06-2.56l7.62-7.62a1.5,1.5,0,0,1,2.12,2.12l-7.62,7.62A1.53,1.53,0,0,1,119.05,171.71Z"/><path class="cls-2" d="M160.05,169.17a1.49,1.49,0,0,1-.61-.13l-6.53-2.9a1.5,1.5,0,1,1,1.22-2.74l6.53,2.9a1.5,1.5,0,0,1-.61,2.87Z"/><path class="cls-2" d="M177.83,118a1.41,1.41,0,0,1-.63-.14,1.49,1.49,0,0,1-.72-2L181.56,105a1.49,1.49,0,1,1,2.71,1.26l-5.08,10.89A1.49,1.49,0,0,1,177.83,118Z"/><path class="cls-2" d="M146.26,138a1.5,1.5,0,0,1-.48-2.91l13.79-4.72a1.5,1.5,0,0,1,1,2.83l-13.79,4.72A1.4,1.4,0,0,1,146.26,138Z"/><path class="cls-2" d="M136.47,149.94a1.51,1.51,0,0,1-1.36-.86,1.49,1.49,0,0,1,.71-2l7.62-3.63a1.5,1.5,0,1,1,1.29,2.7l-7.62,3.63A1.5,1.5,0,0,1,136.47,149.94Z"/><path class="cls-2" d="M108.88,160.46a1.5,1.5,0,0,1-1.49-1.4l-.72-10.88a1.49,1.49,0,1,1,3-.2l.73,10.88a1.51,1.51,0,0,1-1.39,1.6Z"/><path class="cls-2" d="M94,187.68a1.5,1.5,0,0,1-.49-2.92l12.7-4.35a1.5,1.5,0,0,1,1,2.83l-12.7,4.35A1.36,1.36,0,0,1,94,187.68Z"/><path class="cls-2" d="M123,197.47a1.37,1.37,0,0,1-.4-.05,1.49,1.49,0,0,1-1-1.84l3.62-13.07a1.5,1.5,0,0,1,2.89.8l-3.63,13.07A1.49,1.49,0,0,1,123,197.47Z"/><path class="cls-2" d="M84.21,213.8a1.5,1.5,0,0,1-.55-2.89l13.79-5.44a1.5,1.5,0,0,1,1.1,2.79L84.76,213.7A1.52,1.52,0,0,1,84.21,213.8Z"/><path class="cls-2" d="M114.33,232.31l-.21,0a1.49,1.49,0,0,1-1.27-1.69L115,215.36a1.5,1.5,0,0,1,3,.42L115.81,231A1.5,1.5,0,0,1,114.33,232.31Z"/><path class="cls-2" d="M67.88,214.17a1.52,1.52,0,0,1-.42-.06,1.5,1.5,0,0,1-1-1.86L69.71,201a1.5,1.5,0,1,1,2.87.84l-3.26,11.25A1.51,1.51,0,0,1,67.88,214.17Z"/><path class="cls-2" d="M62.44,230.13h-.12l-9.07-.73a1.49,1.49,0,1,1,.24-3l9.07.72a1.5,1.5,0,0,1-.12,3Z"/><path class="cls-2" d="M69.7,242.47a1.5,1.5,0,0,1-.92-2.68l9.79-7.62a1.5,1.5,0,1,1,1.84,2.36l-9.8,7.62A1.43,1.43,0,0,1,69.7,242.47Z"/><path class="cls-2" d="M98,240.29a1.5,1.5,0,0,1-1.5-1.49v-6.9a1.5,1.5,0,1,1,3,0v6.9A1.5,1.5,0,0,1,98,240.29Z"/><path class="cls-2" d="M120.86,237a1.5,1.5,0,0,1-.66-2.84l22.14-10.89a1.5,1.5,0,0,1,1.32,2.69l-22.14,10.88A1.43,1.43,0,0,1,120.86,237Z"/><path class="cls-2" d="M151.34,246.46a1.49,1.49,0,0,1-1.24-.66l-4.36-6.54a1.5,1.5,0,0,1,2.49-1.66l4.36,6.54a1.49,1.49,0,0,1-.42,2.07A1.47,1.47,0,0,1,151.34,246.46Z"/><path class="cls-2" d="M161.5,237a1.5,1.5,0,0,1-1-2.61l7.26-6.53a1.49,1.49,0,1,1,2,2.22l-7.26,6.53A1.47,1.47,0,0,1,161.5,237Z"/><path class="cls-2" d="M184.36,242.47a1.46,1.46,0,0,1-.84-.26,1.49,1.49,0,0,1-.39-2.08l6.17-9.07a1.49,1.49,0,1,1,2.47,1.68l-6.17,9.08A1.51,1.51,0,0,1,184.36,242.47Z"/><path class="cls-2" d="M213.76,241a1.51,1.51,0,0,1-1-.39l-15.24-13.79a1.5,1.5,0,0,1,2-2.22l15.24,13.79a1.5,1.5,0,0,1-1,2.61Z"/><path class="cls-2" d="M235.53,236.66a1.49,1.49,0,0,1-1.29-.74l-2.54-4.35a1.49,1.49,0,1,1,2.58-1.51l2.54,4.35a1.49,1.49,0,0,1-.54,2.05A1.43,1.43,0,0,1,235.53,236.66Z"/><path class="cls-2" d="M219.93,230.13a1.52,1.52,0,0,1-.42-.06,1.49,1.49,0,0,1-1-1.85l4.35-14.88a1.5,1.5,0,1,1,2.88.84l-4.36,14.88A1.49,1.49,0,0,1,219.93,230.13Z"/><path class="cls-2" d="M189.44,219.61H176.38a1.5,1.5,0,1,1,0-3h13.06a1.5,1.5,0,1,1,0,3Z"/><path class="cls-2" d="M154.61,221.42a1.5,1.5,0,0,1-1.5-1.49v-8.71a1.5,1.5,0,0,1,3,0v8.71A1.5,1.5,0,0,1,154.61,221.42Z"/><path class="cls-2" d="M173.12,205.09a1.5,1.5,0,0,1-1-2.62l5.81-5.08a1.5,1.5,0,1,1,2,2.25l-5.81,5.08A1.46,1.46,0,0,1,173.12,205.09Z"/><path class="cls-2" d="M203.6,209.81a1.5,1.5,0,0,1-1.5-1.5V197.43a1.5,1.5,0,1,1,3,0v10.88A1.5,1.5,0,0,1,203.6,209.81Z"/><path class="cls-2" d="M222.1,197.84h-8.34a1.5,1.5,0,0,1,0-3h8.34a1.5,1.5,0,0,1,0,3Z"/><path class="cls-2" d="M216.66,187l-.28,0-11.61-2.17a1.5,1.5,0,0,1,.55-2.95L216.94,184a1.5,1.5,0,0,1-.28,3Z"/><path class="cls-2" d="M194.16,193.48a1.5,1.5,0,0,1-1.49-1.5V179.65a1.5,1.5,0,1,1,3,0V192A1.5,1.5,0,0,1,194.16,193.48Z"/><path class="cls-2" d="M230.09,172.44h-.16l-10.16-1.09a1.5,1.5,0,1,1,.32-3l10.16,1.09a1.5,1.5,0,0,1-.16,3Z"/><path class="cls-2" d="M217,167a1.45,1.45,0,0,1-.74-.2,1.49,1.49,0,0,1-.56-2l4.36-7.62a1.5,1.5,0,1,1,2.6,1.49l-4.36,7.62A1.49,1.49,0,0,1,217,167Z"/><path class="cls-2" d="M201.42,171.35a1.52,1.52,0,0,1-1.25-.67L198,167.41a1.49,1.49,0,0,1,.41-2.07,1.51,1.51,0,0,1,2.08.41l2.18,3.27a1.51,1.51,0,0,1-1.25,2.33Z"/><path class="cls-2" d="M205.77,155a1.48,1.48,0,0,1-.77-.22l-5.44-3.26A1.5,1.5,0,0,1,201.1,149l5.44,3.27a1.5,1.5,0,0,1-.77,2.78Z"/><path class="cls-2" d="M217,144.49h-.08l-6.53-.36a1.5,1.5,0,0,1,.16-3l6.54.36a1.5,1.5,0,0,1-.09,3Z"/><path class="cls-2" d="M217,125.62a1.49,1.49,0,0,1-1.49-1.43l-.36-8.71a1.5,1.5,0,1,1,3-.12l.36,8.7a1.5,1.5,0,0,1-1.43,1.56Z"/><path class="cls-2" d="M96.19,67.2a1.5,1.5,0,0,1-1.38-.9l-2.54-5.8A1.5,1.5,0,0,1,95,59.3l2.54,5.8a1.52,1.52,0,0,1-.77,2A1.61,1.61,0,0,1,96.19,67.2Z"/><path class="cls-2" d="M90.74,99.86A1.5,1.5,0,0,1,90,97.05l9.79-5.44a1.5,1.5,0,0,1,1.46,2.62l-9.8,5.44A1.47,1.47,0,0,1,90.74,99.86Z"/><path class="cls-2" d="M130.66,111.83a1.5,1.5,0,0,1-1.5-1.49v-8.71a1.5,1.5,0,0,1,3,0v8.71A1.5,1.5,0,0,1,130.66,111.83Z"/><path class="cls-2" d="M97.27,137.6a1.46,1.46,0,0,1-.72-.19L86.75,132a1.5,1.5,0,0,1,1.45-2.62l9.8,5.44a1.51,1.51,0,0,1,.58,2A1.49,1.49,0,0,1,97.27,137.6Z"/><path class="cls-2" d="M62.07,117.28a1.5,1.5,0,0,1-1.49-1.5v-3.26a1.5,1.5,0,1,1,3,0v3.26A1.5,1.5,0,0,1,62.07,117.28Z"/><path class="cls-2" d="M32.68,178.24a1.54,1.54,0,0,1-.77-.21l-5.44-3.27A1.5,1.5,0,0,1,28,172.19l5.44,3.27a1.5,1.5,0,0,1-.77,2.78Z"/><path class="cls-2" d="M13.08,212a1.5,1.5,0,0,1-.24-3l6.53-1.09a1.5,1.5,0,0,1,.49,2.95L13.33,212Z"/><path class="cls-2" d="M21.79,230.13a1.43,1.43,0,0,1-.66-.16,1.49,1.49,0,0,1-.67-2l4.35-8.71a1.5,1.5,0,1,1,2.68,1.34l-4.36,8.71A1.49,1.49,0,0,1,21.79,230.13Z"/><path class="cls-2" d="M40.66,216a1.49,1.49,0,0,1-1.46-1.2l-1.45-7.26a1.49,1.49,0,1,1,2.93-.59l1.45,7.26A1.49,1.49,0,0,1,41,216,1.53,1.53,0,0,1,40.66,216Z"/><path class="cls-2" d="M41.75,233.4a1.56,1.56,0,0,1-.63-.14,1.5,1.5,0,0,1-.72-2l5.44-11.62a1.5,1.5,0,0,1,2.71,1.27l-5.44,11.62A1.5,1.5,0,0,1,41.75,233.4Z"/><path class="cls-2" d="M59.17,207.27a1.5,1.5,0,0,1-.67-.16l-8.71-4.35a1.5,1.5,0,1,1,1.34-2.68l8.71,4.36a1.49,1.49,0,0,1-.67,2.83Z"/><path class="cls-2" d="M19.62,196.39a1.52,1.52,0,0,1-1.25-.67,1.5,1.5,0,0,1,.42-2.08l7.62-5.08a1.5,1.5,0,0,1,1.66,2.49l-7.62,5.08A1.53,1.53,0,0,1,19.62,196.39Z"/><path class="cls-2" d="M20,163.73a1.5,1.5,0,0,1-1.49-1.39L17.4,147.46a1.5,1.5,0,0,1,3-.22l1.08,14.88a1.5,1.5,0,0,1-1.38,1.6Z"/><path class="cls-2" d="M41.39,169.17a1.5,1.5,0,0,1-1-.36l-7.62-6.53A1.5,1.5,0,1,1,34.74,160l7.63,6.54a1.5,1.5,0,0,1,.16,2.11A1.52,1.52,0,0,1,41.39,169.17Z"/><path class="cls-2" d="M71.15,190.22a1.5,1.5,0,0,1-1-2.6l9.44-8.71a1.5,1.5,0,0,1,2,2.2l-9.44,8.71A1.52,1.52,0,0,1,71.15,190.22Z"/><path class="cls-2" d="M52.64,190.22h-.06l-9.79-.36a1.5,1.5,0,0,1,.11-3l9.8.36a1.5,1.5,0,0,1-.06,3Z"/><path class="cls-2" d="M74.41,170.62a1.5,1.5,0,0,1-.43-2.93l7.26-2.18a1.5,1.5,0,0,1,.86,2.87l-7.26,2.18A1.59,1.59,0,0,1,74.41,170.62Z"/><path class="cls-2" d="M71.15,160.82a1.56,1.56,0,0,1-.87-.27,1.51,1.51,0,0,1-.36-2.09l8.71-12.33a1.5,1.5,0,0,1,2.45,1.72l-8.71,12.34A1.49,1.49,0,0,1,71.15,160.82Z"/><path class="cls-2" d="M40.3,128.89l-.22,0a1.49,1.49,0,0,1-1.26-1.7l1.09-7.26a1.5,1.5,0,0,1,3,.45l-1.09,7.25A1.49,1.49,0,0,1,40.3,128.89Z"/><path class="cls-2" d="M19.62,130.34a1.47,1.47,0,0,1-.36,0,1.51,1.51,0,0,1-1.1-1.81l3.27-13.43a1.5,1.5,0,0,1,2.91.71L21.07,129.2A1.49,1.49,0,0,1,19.62,130.34Z"/><path class="cls-2" d="M42.48,104.94a1.47,1.47,0,0,1-.36,0l-16-4a1.5,1.5,0,1,1,.73-2.9l16,4a1.5,1.5,0,0,1-.36,3Z"/><path class="cls-2" d="M96.91,163a1.46,1.46,0,0,1-1.24-.67l-6.54-9.79a1.51,1.51,0,0,1,.42-2.08,1.49,1.49,0,0,1,2.07.42l6.54,9.79a1.5,1.5,0,0,1-.42,2.08A1.47,1.47,0,0,1,96.91,163Z"/><path class="cls-2" d="M90.38,119.46a1.5,1.5,0,0,1-.41-2.94l7.62-2.18a1.5,1.5,0,1,1,.82,2.88l-7.62,2.18A1.51,1.51,0,0,1,90.38,119.46Z"/><path class="cls-2" d="M78.4,140.86a1.49,1.49,0,0,1-1.49-1.49v-12a1.5,1.5,0,0,1,3,0v12A1.5,1.5,0,0,1,78.4,140.86Z"/><path class="cls-2" d="M75.14,102a1.5,1.5,0,0,1-1.35-2.15l4.72-9.8a1.49,1.49,0,1,1,2.69,1.3l-4.71,9.8A1.52,1.52,0,0,1,75.14,102Z"/><path class="cls-2" d="M41.39,75.91a1.47,1.47,0,0,1-.67-.16L32,71.4a1.5,1.5,0,0,1,1.34-2.68l8.71,4.35a1.5,1.5,0,0,1-.67,2.84Z"/><path class="cls-2" d="M26.15,90.79a1.52,1.52,0,0,1-1.22-.63L16.59,78.55A1.49,1.49,0,1,1,19,76.81l8.35,11.61A1.5,1.5,0,0,1,27,90.51,1.48,1.48,0,0,1,26.15,90.79Z"/><path class="cls-2" d="M5.83,72.28a1.47,1.47,0,0,1-.36,0,1.5,1.5,0,0,1-1.09-1.82l2.9-11.61a1.49,1.49,0,1,1,2.9.72L7.28,71.15A1.49,1.49,0,0,1,5.83,72.28Z"/><path class="cls-2" d="M66.79,53.05a1.5,1.5,0,0,1-1-.36L52.75,41.44a1.5,1.5,0,1,1,2-2.27L67.77,50.42a1.49,1.49,0,0,1,.16,2.11A1.52,1.52,0,0,1,66.79,53.05Z"/><path class="cls-2" d="M51.19,64.66a1.5,1.5,0,0,1-.77-2.78l3.63-2.18a1.5,1.5,0,0,1,1.54,2.57L52,64.45A1.54,1.54,0,0,1,51.19,64.66Z"/><path class="cls-2" d="M39.58,36.72a1.47,1.47,0,0,1-.91-.31l-7.62-5.8a1.5,1.5,0,0,1,1.81-2.38L40.48,34a1.5,1.5,0,0,1-.9,2.69Z"/><path class="cls-2" d="M13.45,27.65a1.59,1.59,0,0,1-.56-.11,1.5,1.5,0,0,1-.83-1.95l2.18-5.44A1.5,1.5,0,0,1,17,21.26l-2.18,5.45A1.5,1.5,0,0,1,13.45,27.65Z"/><path class="cls-2" d="M42.48,17.12a1.49,1.49,0,0,1-1.2-.6l-4.35-5.8a1.5,1.5,0,1,1,2.39-1.8l4.36,5.81a1.5,1.5,0,0,1-.3,2.09A1.45,1.45,0,0,1,42.48,17.12Z"/><path class="cls-2" d="M69.69,16a1.4,1.4,0,0,1-.59-.13l-8.35-3.63A1.5,1.5,0,0,1,62,9.54l8.34,3.63a1.5,1.5,0,0,1,.78,2A1.51,1.51,0,0,1,69.69,16Z"/><path class="cls-2" d="M69.7,32a1.5,1.5,0,0,1-1.18-.57L62,23.08a1.51,1.51,0,0,1,.26-2.1,1.49,1.49,0,0,1,2.1.26l6.53,8.34a1.5,1.5,0,0,1-.25,2.1A1.47,1.47,0,0,1,69.7,32Z"/><path class="cls-2" d="M101.63,27.65a1.5,1.5,0,0,1-1.5-1.5v-12a1.5,1.5,0,0,1,3,0v12A1.5,1.5,0,0,1,101.63,27.65Z"/><path class="cls-2" d="M136.1,14.58a1.49,1.49,0,0,1-1.2-.6l-3.26-4.35A1.5,1.5,0,1,1,134,7.83l3.27,4.36a1.49,1.49,0,0,1-.3,2.09A1.44,1.44,0,0,1,136.1,14.58Z"/><path class="cls-2" d="M116.87,28.74a1.49,1.49,0,0,1-1.43-1.07l-2.18-7.26a1.5,1.5,0,0,1,2.87-.86l2.17,7.26a1.49,1.49,0,0,1-1,1.86A1.29,1.29,0,0,1,116.87,28.74Z"/><path class="cls-2" d="M99.45,40.71a1.47,1.47,0,0,1-.46-.07L85.56,36.28a1.49,1.49,0,1,1,.93-2.84l13.42,4.35a1.49,1.49,0,0,1-.46,2.92Z"/><path class="cls-2" d="M79.49,61.76h-.08A1.5,1.5,0,0,1,78,60.18l.36-6.53a1.5,1.5,0,1,1,3,.16L81,60.34A1.51,1.51,0,0,1,79.49,61.76Z"/><path class="cls-2" d="M91.83,23.29a1.44,1.44,0,0,1-.69-.17l-7.62-4a1.49,1.49,0,1,1,1.38-2.65l7.63,4a1.5,1.5,0,0,1-.7,2.82Z"/><path class="cls-2" d="M164.41,17.85a1.5,1.5,0,0,1-1.5-1.5V6.55a1.5,1.5,0,0,1,3,0v9.8A1.5,1.5,0,0,1,164.41,17.85Z"/><path class="cls-2" d="M144.08,31.28a1.49,1.49,0,0,1-1.44-1.11,1.51,1.51,0,0,1,1.06-1.84l9.43-2.54A1.51,1.51,0,0,1,155,26.85a1.49,1.49,0,0,1-1.06,1.83l-9.44,2.54A1.32,1.32,0,0,1,144.08,31.28Z"/><path class="cls-2" d="M143,24.74a1.42,1.42,0,0,1-.77-.21,1.5,1.5,0,0,1-.52-2.05L145,17a1.5,1.5,0,0,1,2.57,1.54L144.28,24A1.51,1.51,0,0,1,143,24.74Z"/><path class="cls-2" d="M129.93,62.85a1.49,1.49,0,0,1-1.46-1.2l-2.54-12.34a1.48,1.48,0,0,1,1.16-1.76,1.49,1.49,0,0,1,1.77,1.16l2.54,12.34a1.5,1.5,0,0,1-1.17,1.77A1.53,1.53,0,0,1,129.93,62.85Z"/><path class="cls-2" d="M113.6,71.19a1.49,1.49,0,0,1-1.45-1.13L108.89,57A1.48,1.48,0,0,1,110,55.18a1.5,1.5,0,0,1,1.82,1.09l3.27,13.06A1.51,1.51,0,0,1,114,71.15,1.61,1.61,0,0,1,113.6,71.19Z"/><path class="cls-2" d="M119.05,88.61a1.47,1.47,0,0,1-.54-.1l-7.62-2.9a1.5,1.5,0,0,1,1.07-2.8l7.62,2.9a1.5,1.5,0,0,1-.53,2.9Z"/><path class="cls-2" d="M119.05,108.57a1.5,1.5,0,0,1-1.5-1.5V98.36a1.5,1.5,0,0,1,3,0v8.71A1.5,1.5,0,0,1,119.05,108.57Z"/><path class="cls-2" d="M134.29,130.34a1.49,1.49,0,0,1-.67-2.83l11.61-5.81a1.5,1.5,0,1,1,1.34,2.68L135,130.18A1.5,1.5,0,0,1,134.29,130.34Z"/><path class="cls-2" d="M124.13,148.85l-.25,0a1.5,1.5,0,0,1-1.23-1.72l1.45-8.71a1.5,1.5,0,1,1,3,.49l-1.45,8.71A1.49,1.49,0,0,1,124.13,148.85Z"/><path class="cls-2" d="M126.3,209.45a1.5,1.5,0,0,1-.33-3l8-1.81a1.5,1.5,0,0,1,.66,2.92l-8,1.81A1.37,1.37,0,0,1,126.3,209.45Z"/><path class="cls-2" d="M187.63,153.93a1.49,1.49,0,0,1-1.48-1.31l-1.09-8.71a1.5,1.5,0,1,1,3-.37l1.09,8.71a1.5,1.5,0,0,1-1.3,1.67Z"/><path class="cls-2" d="M181.1,138H168a1.5,1.5,0,1,1,0-3H181.1a1.5,1.5,0,1,1,0,3Z"/><path class="cls-2" d="M200.69,123.45a1.5,1.5,0,0,1-1.49-1.5V113.6a1.5,1.5,0,0,1,3,0V122A1.5,1.5,0,0,1,200.69,123.45Z"/><path class="cls-2" d="M229.73,145.22h-.06a1.5,1.5,0,0,1-1.44-1.55l.36-9.8a1.5,1.5,0,0,1,3,.11l-.36,9.8A1.5,1.5,0,0,1,229.73,145.22Z"/><path class="cls-2" d="M235.17,164.09a1.49,1.49,0,0,1-1.41-1L230.49,154a1.5,1.5,0,1,1,2.82-1l3.27,9.07a1.5,1.5,0,0,1-.91,1.92A1.43,1.43,0,0,1,235.17,164.09Z"/><path class="cls-2" d="M231.9,199.65a1.33,1.33,0,0,1-.47-.08,1.49,1.49,0,0,1-1-1.89l2.18-6.53a1.5,1.5,0,1,1,2.84.95l-2.18,6.53A1.5,1.5,0,0,1,231.9,199.65Z"/><path class="cls-2" d="M190.53,132.16a1.5,1.5,0,0,1-.64-.15l-8.35-4a1.5,1.5,0,0,1,1.29-2.7l8.35,4a1.5,1.5,0,0,1-.65,2.85Z"/><path class="cls-2" d="M151.7,102.76a1.49,1.49,0,0,1-1.49-1.42l-.36-7.26a1.5,1.5,0,1,1,3-.15l.36,7.26a1.49,1.49,0,0,1-1.42,1.57Z"/><path class="cls-2" d="M161.5,115.1a1.5,1.5,0,0,1-1.05-2.55l9.79-9.8a1.5,1.5,0,0,1,2.12,2.11l-9.8,9.8A1.49,1.49,0,0,1,161.5,115.1Z"/><path class="cls-2" d="M157.87,83.17A1.51,1.51,0,0,1,156.52,81l6.53-13.79a1.5,1.5,0,0,1,2.71,1.28l-6.53,13.79A1.51,1.51,0,0,1,157.87,83.17Z"/><path class="cls-2" d="M156.06,52.69a1.48,1.48,0,0,1-.46-.08l-12.34-4a1.5,1.5,0,0,1,.92-2.85l12.34,4a1.5,1.5,0,0,1-.46,2.93Z"/><path class="cls-2" d="M175.66,50.87A1.51,1.51,0,0,1,174.3,50L167.41,35.5a1.49,1.49,0,0,1,2.7-1.28L177,48.73a1.51,1.51,0,0,1-.71,2A1.64,1.64,0,0,1,175.66,50.87Z"/><path class="cls-2" d="M196.34,44a1.46,1.46,0,0,1-.72-.19l-8-4.35a1.5,1.5,0,0,1,1.43-2.63l8,4.36a1.5,1.5,0,0,1-.72,2.81Z"/><path class="cls-2" d="M178.92,69.38a1.5,1.5,0,0,1-.13-3l12-1.09a1.51,1.51,0,0,1,1.63,1.36A1.49,1.49,0,0,1,191,68.28l-12,1.09Z"/><path class="cls-2" d="M190.9,94.05a1.49,1.49,0,0,1-1.37-2.11L195,80a1.49,1.49,0,0,1,2.72,1.24l-5.44,12A1.5,1.5,0,0,1,190.9,94.05Z"/><path class="cls-2" d="M180.73,89a1.46,1.46,0,0,1-.82-.25l-3.27-2.18a1.5,1.5,0,1,1,1.66-2.49l3.27,2.18a1.5,1.5,0,0,1-.84,2.74Z"/><path class="cls-2" d="M218.11,105.3a1.5,1.5,0,0,1-1.49-1.39l-1.09-15.24a1.5,1.5,0,0,1,3-.21l1.08,15.24a1.5,1.5,0,0,1-1.38,1.6Z"/><path class="cls-2" d="M221,63.93a1.48,1.48,0,0,1-.64-.14l-7.62-3.63a1.5,1.5,0,1,1,1.29-2.7l7.62,3.63a1.49,1.49,0,0,1-.65,2.84Z"/><path class="cls-2" d="M215.57,42.89a1.24,1.24,0,0,1-.27,0,1.5,1.5,0,0,1-1.2-1.74l2.54-13.79a1.49,1.49,0,1,1,2.94.54L217,41.66A1.5,1.5,0,0,1,215.57,42.89Z"/><path class="cls-2" d="M209,32.36a1.49,1.49,0,0,1-1-.37l-9.8-8.71a1.5,1.5,0,1,1,2-2.24L210,29.75a1.49,1.49,0,0,1,.13,2.11A1.51,1.51,0,0,1,209,32.36Z"/><path class="cls-2" d="M233,106h-.05a1.51,1.51,0,0,1-1.45-1.54l.37-12a1.49,1.49,0,0,1,1.54-1.45,1.51,1.51,0,0,1,1.45,1.54l-.36,12A1.5,1.5,0,0,1,233,106Z"/><path class="cls-2" d="M235.17,119.46a1.5,1.5,0,0,1-.77-2.79L238,114.5a1.49,1.49,0,1,1,1.54,2.56l-3.63,2.18A1.46,1.46,0,0,1,235.17,119.46Z"/><path class="cls-2" d="M208.31,77h-8.7a1.5,1.5,0,0,1,0-3h8.7a1.5,1.5,0,0,1,0,3Z"/><path class="cls-2" d="M85.3,85.34a1.47,1.47,0,0,1-1.38-.92,1.5,1.5,0,0,1,.81-2l10.52-4.35a1.5,1.5,0,1,1,1.14,2.77L85.87,85.23A1.44,1.44,0,0,1,85.3,85.34Z"/><path class="cls-2" d="M51.19,128.16a1.5,1.5,0,0,1-1.5-1.49V123a1.5,1.5,0,0,1,3,0v3.63A1.5,1.5,0,0,1,51.19,128.16Z"/><path class="cls-2" d="M53.73,88.61h-.14L46,87.88a1.5,1.5,0,0,1,.28-3l7.62.72a1.5,1.5,0,0,1-.14,3Z"/><path class="cls-2" d="M84.93,76.64a1.56,1.56,0,0,1-.66-.16L71.2,70a1.5,1.5,0,0,1,1.34-2.68L85.61,73.8a1.5,1.5,0,0,1-.68,2.84Z"/><path class="cls-2" d="M120.86,40.71a1.52,1.52,0,0,1-1.31-.77,1.49,1.49,0,0,1,.58-2l9.07-5.08a1.5,1.5,0,1,1,1.46,2.61l-9.07,5.08A1.47,1.47,0,0,1,120.86,40.71Z"/><path class="cls-2" d="M113.24,202.92a1.53,1.53,0,0,1-1.23-.64L106.93,195a1.5,1.5,0,0,1,2.46-1.72l5.08,7.26a1.5,1.5,0,0,1-1.23,2.36Z"/><path class="cls-2" d="M170.94,194.21a1.47,1.47,0,0,1-.91-.31l-18.51-14.15a1.5,1.5,0,0,1,1.82-2.38l18.51,14.15a1.51,1.51,0,0,1,.28,2.1A1.49,1.49,0,0,1,170.94,194.21Z"/><path class="cls-2" d="M33.77,205.09a1.1,1.1,0,0,1-.25,0,1.5,1.5,0,0,1-1.23-1.72l1.09-6.53a1.5,1.5,0,0,1,3,.49l-1.09,6.53A1.49,1.49,0,0,1,33.77,205.09Z"/><path class="cls-2" d="M61,154.29A1.5,1.5,0,0,1,59.51,153l-1.09-6.53a1.5,1.5,0,1,1,2.95-.49l1.09,6.53a1.49,1.49,0,0,1-1.23,1.72Z"/><path class="cls-2" d="M139.73,98.41a1.5,1.5,0,0,1-1.39-.94l-6.53-16.33A1.5,1.5,0,1,1,134.59,80l6.53,16.33a1.5,1.5,0,0,1-.83,1.94A1.59,1.59,0,0,1,139.73,98.41Z"/><path class="cls-2" d="M194.16,55.23a1.5,1.5,0,0,1-.06-3l8.34-.36a1.5,1.5,0,1,1,.13,3l-8.34.36Z"/><path class="cls-2" d="M19.62,65.75l-.22,0A1.49,1.49,0,0,1,18.14,64l1.45-9.79a1.5,1.5,0,1,1,3,.43l-1.45,9.8A1.49,1.49,0,0,1,19.62,65.75Z"/><path class="cls-2" d="M13.09,110.38h-.16a1.49,1.49,0,0,1-1.33-1.64l1.09-10.52a1.49,1.49,0,1,1,3,.31L14.58,109A1.5,1.5,0,0,1,13.09,110.38Z"/><path class="cls-2" d="M53.73,108.57a1.65,1.65,0,0,1-.57-.11,1.51,1.51,0,0,1-.82-1.95l3.27-8a1.5,1.5,0,1,1,2.77,1.14l-3.27,8A1.48,1.48,0,0,1,53.73,108.57Z"/><path class="cls-2" d="M182.19,25.47a1.48,1.48,0,0,1-1.18-.58l-2.54-3.26a1.5,1.5,0,1,1,2.36-1.84l2.54,3.26a1.49,1.49,0,0,1-.26,2.1A1.47,1.47,0,0,1,182.19,25.47Z"/><path class="cls-2" d="M237.71,48.33h-6.9a1.5,1.5,0,0,1,0-3h6.9a1.5,1.5,0,0,1,0,3Z"/></svg>