<svg id="Layer_1" data-name="Layer 1" xmlns="http://www.w3.org/2000/svg" viewBox="0 0 250 250"><defs><style>.cls-1{fill:#fff;}.cls-2{fill:#b3b3b3;}.cls-3{fill:#c6882c;}.cls-4{fill:#00a89d;}.cls-5{fill:#e59d34;}</style></defs><title>Yellow_X_Pattern</title><rect class="cls-1" width="250" height="250"/><path class="cls-2" d="M248.81,82.06c-.05,0,0,.12,0,.1a10.88,10.88,0,0,0,1.15-.54v-.31A10.38,10.38,0,0,0,248.81,82.06Z"/><path class="cls-2" d="M249.19,171.29c-.91-.13-1.83-.26-2.74-.37a12,12,0,0,0-2.67-.22.06.06,0,0,0,0,.11,11.53,11.53,0,0,0,2.61.54c.91.15,1.82.28,2.74.41l.88.13v-.48Z"/><path class="cls-2" d="M249.81,105.64c0,.07.11.1.14,0a1.17,1.17,0,0,0,.05-.11v-1.2A8.07,8.07,0,0,0,249.81,105.64Z"/><path d="M88.67,185.29a19.08,19.08,0,0,1,2.45.52c1.4.44,1.2,2.6-.08,3.05-.49.17-1,.22-1.5.35a15.12,15.12,0,0,1-2,8.59c-1.06,1.8-3.9,1.71-4.2-.65s-.45-4.74-.53-7.17a26,26,0,0,1-9.15-2.16.3.3,0,0,1,0-.55,25.87,25.87,0,0,1,9.41-2.41,33.19,33.19,0,0,1,.33-4,1.2,1.2,0,0,1,1.93-.75A12.37,12.37,0,0,1,88.67,185.29Z"/><path d="M184.7,229.63a21,21,0,0,1,.9-2.35c.66-1.31,2.75-.77,3,.56.09.51.06,1,.12,1.54a15.13,15.13,0,0,1,8.17,3.27c1.62,1.33,1.07,4.13-1.3,4s-4.75-.29-7.16-.6a26.08,26.08,0,0,1-3.57,8.7.3.3,0,0,1-.54-.1,25.87,25.87,0,0,1-.91-9.66,35.58,35.58,0,0,1-3.92-.95,1.21,1.21,0,0,1-.43-2A12.28,12.28,0,0,1,184.7,229.63Z"/><path d="M142.12,13.61a20.62,20.62,0,0,1,7.15,3.57,1.41,1.41,0,0,1-.46,2.39,20.29,20.29,0,0,1-6.51.47,20,20,0,0,1-2.44,9.22c-.29.48-1.15.75-1.47.11A21.11,21.11,0,0,1,136.6,19a22.28,22.28,0,0,1-6.43-3,1.91,1.91,0,0,1,.63-3.24,22.54,22.54,0,0,1,6.58-.14c.2-1,.39-2.11.62-3.06a1.86,1.86,0,0,1,3.66.23C141.85,11,142,12.3,142.12,13.61Z"/><path d="M47.12,54.61a20.62,20.62,0,0,1,7.15,3.57,1.41,1.41,0,0,1-.46,2.39A20.29,20.29,0,0,1,47.3,61a20,20,0,0,1-2.44,9.22c-.29.48-1.15.75-1.47.11A21.11,21.11,0,0,1,41.6,60a22.28,22.28,0,0,1-6.43-3,1.91,1.91,0,0,1,.63-3.24,22.54,22.54,0,0,1,6.58-.14c.2-1,.39-2.11.62-3.06a1.86,1.86,0,0,1,3.66.23C46.85,52,47,53.3,47.12,54.61Z"/><path d="M119.12,212.61a20.62,20.62,0,0,1,7.15,3.57,1.41,1.41,0,0,1-.46,2.39,20.29,20.29,0,0,1-6.51.47,20,20,0,0,1-2.44,9.22c-.29.48-1.15.75-1.47.11A21.11,21.11,0,0,1,113.6,218a22.28,22.28,0,0,1-6.43-3,1.91,1.91,0,0,1,.63-3.24,22.54,22.54,0,0,1,6.58-.14c.2-1,.39-2.11.62-3.06a1.86,1.86,0,0,1,3.66.23C118.85,210,119,211.3,119.12,212.61Z"/><path d="M56.44,238.56A23,23,0,0,1,58,240.5c.81,1.23-.71,2.78-2,2.33-.49-.18-.92-.46-1.39-.67a15.25,15.25,0,0,1-6.93,5.44c-2,.73-4.11-1.14-2.85-3.15s2.62-4,4.1-5.9a26.3,26.3,0,0,1-5.76-7.44.31.31,0,0,1,.36-.43,25.83,25.83,0,0,1,8.82,4,35.2,35.2,0,0,1,2.79-2.92,1.21,1.21,0,0,1,2,.64A12.51,12.51,0,0,1,56.44,238.56Z"/><path d="M94.94,19.76a21.57,21.57,0,0,0-1.66,1.89c-.84,1.2.62,2.79,1.9,2.39.5-.16.94-.43,1.42-.62a15.28,15.28,0,0,0,6.73,5.68c1.93.8,4.15-1,3-3.05s-2.48-4.06-3.89-6a26,26,0,0,0,6-7.24.3.3,0,0,0-.34-.43,25.71,25.71,0,0,0-9,3.74,35.41,35.41,0,0,0-2.68-3,1.21,1.21,0,0,0-2,.57A12.34,12.34,0,0,0,94.94,19.76Z"/><path d="M76.94,60.76a21.57,21.57,0,0,0-1.66,1.89c-.84,1.2.62,2.79,1.9,2.39.5-.16.94-.43,1.42-.62a15.28,15.28,0,0,0,6.73,5.68c1.93.8,4.15-1,3-3S85.81,63,84.4,61a26,26,0,0,0,6-7.24.3.3,0,0,0-.34-.43,25.71,25.71,0,0,0-9,3.74,35.41,35.41,0,0,0-2.68-3,1.21,1.21,0,0,0-2,.57A12.34,12.34,0,0,0,76.94,60.76Z"/><path d="M57.94,50.76a21.57,21.57,0,0,0-1.66,1.89c-.84,1.2.62,2.79,1.9,2.39.5-.16.94-.43,1.42-.62a15.28,15.28,0,0,0,6.73,5.68c1.93.8,4.15-1,3-3.05S66.81,53,65.4,51a26,26,0,0,0,6-7.24.3.3,0,0,0-.34-.43,25.71,25.71,0,0,0-9,3.74,35.41,35.41,0,0,0-2.68-3,1.21,1.21,0,0,0-2,.57A12.34,12.34,0,0,0,57.94,50.76Z"/><path d="M163,96.73a20.73,20.73,0,0,1,8,.49,1.41,1.41,0,0,1,.51,2.38,20.26,20.26,0,0,1-5.8,3,20,20,0,0,1,1.35,9.45c-.08.55-.76,1.13-1.31.67a21.13,21.13,0,0,1-5.7-8.85,22.19,22.19,0,0,1-7.07-.21,1.91,1.91,0,0,1-.69-3.23,22.75,22.75,0,0,1,6-2.7c-.22-1-.47-2.09-.62-3.06a1.86,1.86,0,0,1,3.46-1.21C161.77,94.43,162.41,95.58,163,96.73Z"/><path d="M234,229.73a20.73,20.73,0,0,1,8,.49,1.41,1.41,0,0,1,.51,2.38,20.26,20.26,0,0,1-5.8,3,20,20,0,0,1,1.35,9.45c-.08.55-.76,1.13-1.31.67a21.13,21.13,0,0,1-5.7-8.85,22.19,22.19,0,0,1-7.07-.21,1.91,1.91,0,0,1-.69-3.23,22.75,22.75,0,0,1,6-2.7c-.22-1-.47-2.09-.62-3.06a1.86,1.86,0,0,1,3.46-1.21C232.77,227.43,233.41,228.58,234,229.73Z"/><path d="M229.23,41.14a20.64,20.64,0,0,1-6.42-4.76,1.41,1.41,0,0,1,.87-2.27,20.23,20.23,0,0,1,6.49.67,19.92,19.92,0,0,1,4-8.66c.37-.42,1.25-.54,1.46.15a21.06,21.06,0,0,1,0,10.52,22.32,22.32,0,0,1,5.82,4,1.9,1.9,0,0,1-1.18,3.08,22.36,22.36,0,0,1-6.51-1c-.38,1-.74,2-1.14,2.91a1.86,1.86,0,0,1-3.56-.87C229,43.76,229.13,42.45,229.23,41.14Z"/><path d="M196.23,82.14a20.64,20.64,0,0,1-6.42-4.76,1.41,1.41,0,0,1,.87-2.27,20.23,20.23,0,0,1,6.49.67,19.92,19.92,0,0,1,4-8.66c.37-.42,1.25-.54,1.46.15a21.06,21.06,0,0,1,0,10.52,22.32,22.32,0,0,1,5.82,4,1.9,1.9,0,0,1-1.18,3.08,22.36,22.36,0,0,1-6.51-1c-.38,1-.74,2-1.14,2.91a1.86,1.86,0,0,1-3.56-.87C196,84.76,196.13,83.45,196.23,82.14Z"/><path d="M201.23,123.14a20.64,20.64,0,0,1-6.42-4.76,1.41,1.41,0,0,1,.87-2.27,20.23,20.23,0,0,1,6.49.67,19.92,19.92,0,0,1,4-8.66c.37-.42,1.25-.54,1.46.15a21.06,21.06,0,0,1,0,10.52,22.32,22.32,0,0,1,5.82,4,1.9,1.9,0,0,1-1.18,3.08,22.36,22.36,0,0,1-6.51-1c-.38,1-.74,2-1.14,2.91a1.86,1.86,0,0,1-3.56-.87C201,125.76,201.13,124.45,201.23,123.14Z"/><path d="M95.23,159.14a20.64,20.64,0,0,1-6.42-4.76,1.41,1.41,0,0,1,.87-2.27,20.23,20.23,0,0,1,6.49.67,19.92,19.92,0,0,1,4-8.66c.37-.42,1.25-.54,1.46.15a21.06,21.06,0,0,1,0,10.52,22.32,22.32,0,0,1,5.82,4,1.9,1.9,0,0,1-1.18,3.08,22.36,22.36,0,0,1-6.51-1c-.38,1-.74,2-1.14,2.91a1.86,1.86,0,0,1-3.56-.87C95,161.76,95.13,160.45,95.23,159.14Z"/><path d="M136.23,194.14a20.64,20.64,0,0,1-6.42-4.76,1.41,1.41,0,0,1,.87-2.27,20.23,20.23,0,0,1,6.49.67,19.92,19.92,0,0,1,4-8.66c.37-.42,1.25-.54,1.46.15a21.06,21.06,0,0,1,0,10.52,22.32,22.32,0,0,1,5.82,4,1.9,1.9,0,0,1-1.18,3.08,22.36,22.36,0,0,1-6.51-1c-.38,1-.74,2-1.14,2.91a1.86,1.86,0,0,1-3.56-.87C136,196.76,136.13,195.45,136.23,194.14Z"/><path d="M159.23,162.14a20.64,20.64,0,0,1-6.42-4.76,1.41,1.41,0,0,1,.87-2.27,20.23,20.23,0,0,1,6.49.67,19.92,19.92,0,0,1,4-8.66c.37-.42,1.25-.54,1.46.15a21.06,21.06,0,0,1,0,10.52,22.32,22.32,0,0,1,5.82,4,1.9,1.9,0,0,1-1.18,3.08,22.36,22.36,0,0,1-6.51-1c-.38,1-.74,2-1.14,2.91a1.86,1.86,0,0,1-3.56-.87C159,164.76,159.13,163.45,159.23,162.14Z"/><path d="M213.23,152.14a20.64,20.64,0,0,1-6.42-4.76,1.41,1.41,0,0,1,.87-2.27,20.23,20.23,0,0,1,6.49.67,19.92,19.92,0,0,1,4-8.66c.37-.42,1.25-.54,1.46.15a21.06,21.06,0,0,1,0,10.52,22.32,22.32,0,0,1,5.82,4,1.9,1.9,0,0,1-1.18,3.08,22.36,22.36,0,0,1-6.51-1c-.38,1-.74,2-1.14,2.91a1.86,1.86,0,0,1-3.56-.87C213,154.76,213.13,153.45,213.23,152.14Z"/><path d="M207.23,240.14a20.64,20.64,0,0,1-6.42-4.76,1.41,1.41,0,0,1,.87-2.27,20.23,20.23,0,0,1,6.49.67,19.92,19.92,0,0,1,4-8.66c.37-.42,1.25-.54,1.46.15a21.06,21.06,0,0,1,0,10.52,22.32,22.32,0,0,1,5.82,4,1.9,1.9,0,0,1-1.18,3.08,22.36,22.36,0,0,1-6.51-1c-.38,1-.74,2-1.14,2.91a1.86,1.86,0,0,1-3.56-.87C207,242.76,207.13,241.45,207.23,240.14Z"/><path d="M30.54,8.43a20.72,20.72,0,0,1,5.08,6.17,1.41,1.41,0,0,1-1.4,2,20.31,20.31,0,0,1-6.13-2.21,20,20,0,0,1-6,7.44c-.46.31-1.34.21-1.38-.5a21,21,0,0,1,2.59-10.21A22.4,22.4,0,0,1,18.63,5.8a1.92,1.92,0,0,1,1.9-2.71A22.71,22.71,0,0,1,26.6,5.64c.6-.87,1.2-1.77,1.8-2.55a1.86,1.86,0,0,1,3.25,1.7C31.35,5.94,31,7.19,30.54,8.43Z"/><path d="M137.26,158.78a21,21,0,0,0-1.7-1.84c-1.11-1-2.85.31-2.58,1.63.1.52.33,1,.47,1.48a15.2,15.2,0,0,0-6.36,6.1c-1,1.84.56,4.23,2.73,3.26s4.29-2,6.41-3.23a26.41,26.41,0,0,0,6.57,6.73.31.31,0,0,0,.47-.3,26,26,0,0,0-2.78-9.3,35.77,35.77,0,0,0,3.27-2.35,1.21,1.21,0,0,0-.35-2.05A12.33,12.33,0,0,0,137.26,158.78Z"/><path d="M87.62,137.35a21.36,21.36,0,0,1-1.25,2.17c-.86,1.2-2.85.34-2.88-1,0-.53.1-1,.12-1.54a15.28,15.28,0,0,1-7.56-4.52c-1.39-1.56-.41-4.24,1.92-3.79s4.65,1,7,1.71a26.23,26.23,0,0,1,4.88-8,.31.31,0,0,1,.53.19,25.93,25.93,0,0,1-.62,9.68,35.09,35.09,0,0,1,3.72,1.56,1.2,1.2,0,0,1,.11,2.07A12.34,12.34,0,0,1,87.62,137.35Z"/><path d="M16.62,155.35a21.36,21.36,0,0,1-1.25,2.17c-.86,1.2-2.85.34-2.88-1,0-.53.1-1,.12-1.54a15.28,15.28,0,0,1-7.56-4.52c-1.39-1.56-.41-4.24,1.92-3.79s4.65,1,7,1.71a26.23,26.23,0,0,1,4.88-8,.31.31,0,0,1,.53.19,25.93,25.93,0,0,1-.62,9.68,35.09,35.09,0,0,1,3.72,1.56,1.2,1.2,0,0,1,.11,2.07A12.34,12.34,0,0,1,16.62,155.35Z"/><path d="M40.62,87.35a21.36,21.36,0,0,1-1.25,2.17c-.86,1.2-2.85.34-2.88-1,0-.53.1-1,.12-1.54a15.28,15.28,0,0,1-7.56-4.52c-1.39-1.56-.41-4.24,1.92-3.79s4.65,1,7,1.71a26.23,26.23,0,0,1,4.88-8,.31.31,0,0,1,.53.19,25.93,25.93,0,0,1-.62,9.68,35.09,35.09,0,0,1,3.72,1.56,1.2,1.2,0,0,1,.11,2.07A12.34,12.34,0,0,1,40.62,87.35Z"/><path d="M66.2,184.54c.7.05,1.51-.7,1.24-1.45a24.33,24.33,0,0,0-2.27-4.63,87.45,87.45,0,0,0,5.52-6.82c2.37-3.15-2.39-7.07-5.21-4.43-1.85,1.73-3.61,3.42-5.24,5.17a23.05,23.05,0,0,0-7-5.2,1.41,1.41,0,0,0-1.83,1.25c-.24,3.61,1.57,7.41,4.3,10.42A18.18,18.18,0,0,0,54.31,183c-.16.86.45,2,1.51,1.67a18.8,18.8,0,0,0,4.53-2.07A13.75,13.75,0,0,0,66.2,184.54Z"/><path d="M3.75,111.12a19.85,19.85,0,0,0-3.75-5v6.39a15.46,15.46,0,0,0,2.25.57A1.41,1.41,0,0,0,3.75,111.12Z"/><path d="M5.2,98c.17-.54-.19-1.35-.88-1.18A16,16,0,0,0,0,98.67v7.07A19.78,19.78,0,0,0,5.2,98Z"/><path d="M250,105.74V98.67a27.23,27.23,0,0,0-4.69,3.62,22.26,22.26,0,0,0-6.45-2.92,1.91,1.91,0,0,0-2,2.6A22.4,22.4,0,0,0,241,107c-.65.83-1.34,1.67-1.9,2.48a1.85,1.85,0,0,0,2.57,2.6c1-.62,2.09-1.36,3.16-2.12a23.74,23.74,0,0,0,5.13,2.48v-6.39l-.16-.18Z"/><path d="M147.11,77.25a21.36,21.36,0,0,1,2.42.69c1.36.54,1,2.68-.29,3-.51.14-1,.15-1.53.25a15.21,15.21,0,0,1-2.55,8.43c-1.18,1.72-4,1.43-4.14-.94s-.13-4.76,0-7.19a26.28,26.28,0,0,1-9-2.79.31.31,0,0,1,.05-.56,26,26,0,0,1,9.55-1.74,34.54,34.54,0,0,1,.61-4,1.2,1.2,0,0,1,2-.61A12.23,12.23,0,0,1,147.11,77.25Z"/><path d="M125.11,22.25a21.36,21.36,0,0,1,2.42.69c1.36.54,1,2.68-.29,3-.51.14-1,.15-1.53.25a15.21,15.21,0,0,1-2.55,8.43c-1.18,1.72-4,1.43-4.14-.94s-.13-4.76,0-7.19a26.28,26.28,0,0,1-9-2.79.31.31,0,0,1,0-.56,26,26,0,0,1,9.55-1.74,34.54,34.54,0,0,1,.61-4,1.2,1.2,0,0,1,2-.61A12.23,12.23,0,0,1,125.11,22.25Z"/><path d="M83.27,91.64A20.85,20.85,0,0,1,81.37,90c-1-1.07.22-2.85,1.55-2.63.52.09,1,.29,1.49.42a15.28,15.28,0,0,1,5.87-6.57c1.8-1.06,4.25.41,3.36,2.61s-1.9,4.37-3,6.52a26.35,26.35,0,0,1,7,6.33.3.3,0,0,1-.28.48,25.64,25.64,0,0,1-9.39-2.46,35,35,0,0,1-2.24,3.36,1.21,1.21,0,0,1-2.06-.28A12.34,12.34,0,0,1,83.27,91.64Z"/><path d="M187.27,199.27a.86.86,0,0,0,.29,1.55,48.08,48.08,0,0,0,7.49,1,24.18,24.18,0,0,0-.8,9.92,2.77,2.77,0,0,0,5.2,1.08,24.57,24.57,0,0,0,3.19-10.35c1.57.09,3.12.14,4.72.31,2.76.29,4.88-4,1.75-5.06a39.94,39.94,0,0,0-6.46-1.68c-.07-.94-.1-1.86-.21-2.8a1.76,1.76,0,0,0-3.31-.7c-.57,1-1.07,2.06-1.58,3.08A17.48,17.48,0,0,0,187.27,199.27Z"/><path d="M198.72,170a.86.86,0,0,1-1.57,0,47.47,47.47,0,0,1-2.41-7.16,24.34,24.34,0,0,1-9.59,2.68,2.77,2.77,0,0,1-2.06-4.9,24.54,24.54,0,0,1,9.56-5.11c-.39-1.53-.74-3-1.21-4.57-.81-2.66,3-5.55,4.63-2.69a39.89,39.89,0,0,1,2.89,6c.93-.11,1.84-.25,2.79-.33a1.76,1.76,0,0,1,1.31,3.12c-.9.76-1.81,1.44-2.72,2.14A17.45,17.45,0,0,1,198.72,170Z"/><path d="M4.62,24.48A20.29,20.29,0,0,1,4.26,22c-.06-1.47,2-2,2.9-1,.33.4.55.86.84,1.29a15.24,15.24,0,0,1,8.75-1.1c2.05.38,2.93,3.09.82,4.17s-4.3,2.05-6.55,2.95a26.37,26.37,0,0,1,1.1,9.34.31.31,0,0,1-.53.18,26,26,0,0,1-5.48-8,35.2,35.2,0,0,1-3.89,1.07A1.21,1.21,0,0,1,.85,29.34,12.4,12.4,0,0,1,4.62,24.48Z"/><path d="M179,98.3a1.21,1.21,0,0,0,.31,1.88,24.64,24.64,0,0,0,5,1.24A86.85,86.85,0,0,0,186,110c.89,3.84,6.95,2.72,6.74-1.15-.14-2.53-.3-5-.6-7.33a23,23,0,0,0,8.48-2,1.41,1.41,0,0,0,.23-2.21c-2.62-2.5-6.69-3.56-10.75-3.4a17.89,17.89,0,0,0-2.27-3.74c-.55-.68-1.82-.94-2.25.07a19,19,0,0,0-1.32,4.81A13.79,13.79,0,0,0,179,98.3Z"/><path d="M127.85,51.46a.86.86,0,0,1-.18-1.46c3.2-2.48,6.8-3.06,10.6-3.28a32.45,32.45,0,0,1,.2-12.07,1.92,1.92,0,0,1,3.65-.45,49.67,49.67,0,0,1,3.5,12.24c3.15,0,6.29.3,9,2a.19.19,0,0,1,0,.31c-2.29,2-5.34,2.86-8.42,3.34a55.45,55.45,0,0,1,0,7.52,1.56,1.56,0,0,1-2.78.71,35.61,35.61,0,0,1-3.5-7.47C135.67,53.32,131.77,53.59,127.85,51.46Z"/><path d="M89,207.66a14.89,14.89,0,0,1,3.84-3.73,1,1,0,0,1,1.55.78,14.92,14.92,0,0,1-.89,5.33,51.73,51.73,0,0,1,9.24,8.36c1.61,1.8,0,4.69-2.46,3.6a103.22,103.22,0,0,1-10.41-5.22c-2,2.65-4.5,4.75-7.1,5.4-.5.12-1.23-.19-1.18-.82.26-3.26,1.92-5.32,3.67-7.89a18,18,0,0,1-4.37-5A1.51,1.51,0,0,1,82,206.12,15.87,15.87,0,0,1,89,207.66Z"/><path d="M108.86,105.4a21.52,21.52,0,0,1,2.26-1.11c1.37-.51,2.54,1.31,1.81,2.45-.28.45-.65.8-1,1.21a15.14,15.14,0,0,1,3.74,8c.28,2.08-2,3.75-3.71,2.08s-3.27-3.46-4.83-5.33a25.91,25.91,0,0,1-8.54,3.94.3.3,0,0,1-.33-.45,25.74,25.74,0,0,1,5.93-7.68,34.91,34.91,0,0,1-2.22-3.37,1.22,1.22,0,0,1,1.07-1.79A12.26,12.26,0,0,1,108.86,105.4Z"/><path d="M90.86,227.4a21.52,21.52,0,0,1,2.26-1.11c1.37-.51,2.54,1.31,1.81,2.45-.28.45-.65.8-1,1.21a15.14,15.14,0,0,1,3.74,8c.28,2.08-2,3.75-3.71,2.08s-3.27-3.46-4.83-5.33a25.91,25.91,0,0,1-8.54,3.94.3.3,0,0,1-.33-.45,25.74,25.74,0,0,1,5.93-7.68A34.91,34.91,0,0,1,84,227.11a1.22,1.22,0,0,1,1.07-1.79A12.26,12.26,0,0,1,90.86,227.4Z"/><path d="M69.3,10.08A24.29,24.29,0,0,0,76,2.73a48,48,0,0,0,5.84,4.8.86.86,0,0,0,1.32-.85,17.13,17.13,0,0,0-2-6.68H68.45A23.42,23.42,0,0,0,65,7,2.77,2.77,0,0,0,69.3,10.08Z"/><path d="M80,243.42a1.76,1.76,0,0,0-2.76-1.95c-.76.57-1.46,1.18-2.19,1.76a39.5,39.5,0,0,0-5.64-3.58c-2.93-1.53-4.59,2.92-2.5,4.74,1.21,1.05,2.31,2.15,3.44,3.24-.67.76-1.3,1.55-1.9,2.37h12.7a18.65,18.65,0,0,0-2.32-3.32C79.24,245.61,79.65,244.54,80,243.42Z"/><path d="M244.72,135.69a1.26,1.26,0,0,1-1.37,1.86,36.82,36.82,0,0,1-8.39-3.74,20.48,20.48,0,0,1-4.05,6.36c-1.45,1.5-4.7.59-4.48-1.77a32.79,32.79,0,0,1,2.14-8.51c-3.5-2.15-7.35-4-9.37-7.67a.76.76,0,0,1,.63-1.14c3.89-.51,7.64,1.36,11.1,3.34,1-2.15,2.13-4.3,3.2-6.51.72-1.49,2.94-.76,3,.76a49.48,49.48,0,0,1-.51,9.34A28,28,0,0,1,244.72,135.69Z"/><path d="M158.72,243.69a1.26,1.26,0,0,1-1.37,1.86,36.82,36.82,0,0,1-8.39-3.74,20.48,20.48,0,0,1-4.05,6.36c-1.45,1.5-4.7.59-4.48-1.77a32.79,32.79,0,0,1,2.14-8.51c-3.5-2.15-7.35-4-9.37-7.67a.76.76,0,0,1,.63-1.14c3.89-.51,7.64,1.36,11.1,3.34,1-2.15,2.13-4.3,3.2-6.51.72-1.49,2.94-.76,3,.76a49.48,49.48,0,0,1-.51,9.34A28,28,0,0,1,158.72,243.69Z"/><path d="M245.66,52.42a1.21,1.21,0,0,0,.75,1.94,26.34,26.34,0,0,0,3.59.3V49.48A11.74,11.74,0,0,0,245.66,52.42Z"/><path d="M2.84,64.09a.3.3,0,0,0,.55,0A26.08,26.08,0,0,0,5.55,55c2.43-.07,4.87-.24,7.17-.53s2.45-3.14.65-4.2a15.28,15.28,0,0,0-8.59-2c-.13-.5-.18-1-.35-1.5-.45-1.27-2.61-1.47-3.06-.07a20.91,20.91,0,0,0-.51,2.45c-.29.1-.58.22-.86.34v5.18l.43,0A25.57,25.57,0,0,0,2.84,64.09Z"/><path d="M2.43,178.73a.21.21,0,0,0,.2-.25A12.36,12.36,0,0,0,0,174.37v4.27A11,11,0,0,0,2.43,178.73Z"/><path d="M1.24,159.59A1.84,1.84,0,0,0,0,157.34v6.51C.48,162.44.9,161,1.24,159.59Z"/><path d="M246.67,171.47a51.43,51.43,0,0,0,3.33-7.62v-6.51a2,2,0,0,0-1.94.41,32.32,32.32,0,0,0-7.42,9.51c-3.18-2.1-6.4-3.81-10.44-3.76a.86.86,0,0,0-.74,1.28c1.85,4.06,5.12,6.19,8.73,8.35a35.66,35.66,0,0,0-1.69,8.08,1.56,1.56,0,0,0,2.65,1.1,57.38,57.38,0,0,0,4.55-6,19.82,19.82,0,0,0,6.3,2.31v-4.27A25.09,25.09,0,0,0,246.67,171.47Z"/><path d="M93,50a1.26,1.26,0,0,0,.8,2.17,37.15,37.15,0,0,0,9.1-1.28A20.45,20.45,0,0,0,105,58.08c1,1.84,4.36,1.85,4.79-.47a32.86,32.86,0,0,0,.29-8.77c4-1.11,8.17-1.83,11.12-4.79a.76.76,0,0,0-.29-1.27c-3.6-1.57-7.72-.8-11.59.15-.41-2.36-.86-4.72-1.28-7.14-.28-1.63-2.62-1.54-3.09-.09a48.89,48.89,0,0,0-2.08,9.12A28,28,0,0,0,93,50Z"/><path d="M187,52a1.26,1.26,0,0,0,.8,2.17,37.15,37.15,0,0,0,9.1-1.28A20.45,20.45,0,0,0,199,60.08c1,1.84,4.36,1.85,4.79-.47a32.86,32.86,0,0,0,.29-8.77c3.95-1.11,8.17-1.83,11.12-4.79a.76.76,0,0,0-.29-1.27c-3.6-1.57-7.72-.8-11.59.15-.41-2.36-.86-4.72-1.28-7.14-.28-1.63-2.62-1.54-3.09-.09a48.89,48.89,0,0,0-2.08,9.12A28,28,0,0,0,187,52Z"/><path d="M18.38,91.8c-.47-.25-1,.35-.78.8a61.38,61.38,0,0,0,8.23,12.65c-3.6,2.66-7.73,5.32-10.23,8.89-.34.48-.11,1.35.57,1.36,4.66.08,9.81-2,14.32-5.23a49.8,49.8,0,0,0,9.86,7.82c1.22.7,2.65-.94,2.07-2.11a48,48,0,0,0-6.93-10,26.21,26.21,0,0,0,6-8.91,1,1,0,0,0-1.32-1.3,40.17,40.17,0,0,0-9.06,5.49A62.53,62.53,0,0,0,18.38,91.8Z"/><path d="M146,100.42a.86.86,0,0,0-1.19-.87c-3.72,1.61-6,4.48-8,7.69a32.27,32.27,0,0,0-10.65-5.67,1.91,1.91,0,0,0-2.16,3,49.85,49.85,0,0,0,9,9c-1.55,2.74-2.8,5.64-2.59,8.82a.2.2,0,0,0,.28.15c2.89-1,5.08-3.28,7-5.74a56.54,56.54,0,0,0,6.6,3.6,1.56,1.56,0,0,0,2-2.08,35.88,35.88,0,0,0-4.83-6.69C143.85,108.16,146,104.88,146,100.42Z"/><path d="M37.72,167.18a.86.86,0,0,1,.84,1.21c-1.66,3.68-4.57,5.88-7.82,7.87A32.41,32.41,0,0,1,36.23,187a1.91,1.91,0,0,1-3,2.1A49.24,49.24,0,0,1,24.38,180c-2.77,1.5-5.69,2.7-8.87,2.44-.14,0-.18-.18-.14-.29,1.06-2.87,3.37-5,5.86-6.89a55.7,55.7,0,0,1-3.49-6.66,1.57,1.57,0,0,1,2.12-1.94,36.83,36.83,0,0,1,6.6,4.95C29.94,169.21,33.26,167.14,37.72,167.18Z"/><path d="M208.46,216.13a.86.86,0,0,0,1,1.23,46.9,46.9,0,0,0,7.09-2.63,24.17,24.17,0,0,0,3.95,9.13,2.77,2.77,0,0,0,5.1-1.48,24.48,24.48,0,0,0-2-10.64c1.43-.66,2.82-1.34,4.31-1.94,2.57-1,2.44-5.79-.83-5.29a39.53,39.53,0,0,0-6.5,1.55c-.49-.79-.95-1.59-1.49-2.38a1.76,1.76,0,0,0-3.25.94c0,1.18,0,2.32,0,3.47A17.38,17.38,0,0,0,208.46,216.13Z"/><path d="M243.3,59.49a.86.86,0,0,0-1-1.07c-3.94.94-6.65,3.37-9.22,6.18a32.45,32.45,0,0,0-9.5-7.44,1.92,1.92,0,0,0-2.65,2.55,49.76,49.76,0,0,0,7.31,10.43c-2,2.44-3.73,5.07-4.08,8.24,0,.14.13.22.25.2,3-.5,5.57-2.35,7.89-4.44a55.58,55.58,0,0,0,5.87,4.69,1.56,1.56,0,0,0,2.3-1.7,35.64,35.64,0,0,0-3.6-7.43C239.83,66.73,242.49,63.87,243.3,59.49Z"/><path d="M8.14,209.92A.86.86,0,0,1,8,208.36a47.14,47.14,0,0,1,6.87-3.15A24.12,24.12,0,0,1,11.16,196a2.77,2.77,0,0,1,4.66-2.56,24.66,24.66,0,0,1,6.08,9c1.47-.55,2.94-1.05,4.42-1.67,2.55-1.09,5.82,2.35,3.16,4.32a41.12,41.12,0,0,1-5.69,3.5c.21.91.45,1.8.62,2.74a1.76,1.76,0,0,1-3,1.63c-.86-.81-1.63-1.65-2.42-2.49A17.41,17.41,0,0,1,8.14,209.92Z"/><path d="M81.6,40.11a.87.87,0,0,0,.94-1.27,48.55,48.55,0,0,0-4.38-6.16A24.13,24.13,0,0,0,86,26.5,2.77,2.77,0,0,0,83.21,22a24.53,24.53,0,0,0-9.75,4.73c-1-1.21-2-2.38-3-3.66-1.67-2.22-6.22-.87-4.9,2.16a40.77,40.77,0,0,0,3.18,5.88c-.64.68-1.29,1.33-1.91,2.06A1.76,1.76,0,0,0,68.59,36c1.14-.27,2.23-.61,3.33-.94A17.52,17.52,0,0,0,81.6,40.11Z"/><path d="M220.73,9.21c.53-.05.77.71.41,1a61.58,61.58,0,0,1-12.52,8.43c2.28,3.86,5,7.92,5.94,12.18.12.57-.42,1.29-1.05,1-4.33-1.75-8.23-5.73-11.13-10.41a50.13,50.13,0,0,1-12.14,3.34c-1.4.17-2.07-1.9-1.08-2.75a48.2,48.2,0,0,1,10.28-6.49,26.36,26.36,0,0,1-2-10.55,1,1,0,0,1,1.73-.68,40.38,40.38,0,0,1,6.19,8.6A62.34,62.34,0,0,1,220.73,9.21Z"/><path d="M109,128a1.26,1.26,0,0,1,1.88-1.35,37,37,0,0,1,6.83,6.15,20.33,20.33,0,0,1,5.81-4.8c1.84-1,4.65.9,3.71,3.06a32.31,32.31,0,0,1-4.67,7.44c2.67,3.13,5.76,6.08,6.55,10.19a.76.76,0,0,1-.95.89c-3.87-.72-6.85-3.65-9.53-6.6-1.65,1.72-3.35,3.42-5,5.19-1.15,1.2-3-.18-2.61-1.64a48.49,48.49,0,0,1,3.37-8.73A28,28,0,0,1,109,128Z"/><path d="M55.88,18.08a20.55,20.55,0,0,0,2.5.27c1.47,0,1.94-2.1.87-2.92-.42-.32-.89-.52-1.32-.81a15.18,15.18,0,0,0,.79-8.77c-.45-2-3.19-2.83-4.2-.68s-1.9,4.37-2.71,6.65a26.13,26.13,0,0,0-9.38-.77.31.31,0,0,0-.16.53,25.82,25.82,0,0,0,8.2,5.19,38.48,38.48,0,0,0-.93,3.93A1.21,1.21,0,0,0,51.16,22,12.3,12.3,0,0,0,55.88,18.08Z"/><path d="M0,199.16v2A1.22,1.22,0,0,0,0,199.16Z"/><path d="M245.48,197a13.88,13.88,0,0,0-2.26-5.73,1.21,1.21,0,0,0-1.91,0,24,24,0,0,0-2.09,4.72,86.75,86.75,0,0,0-8.77.15c-3.94.21-3.89,6.38,0,6.84,2.52.3,4.94.56,7.33.69a23.13,23.13,0,0,0,.51,8.69,1.41,1.41,0,0,0,2.13.61c2.93-2.14,4.67-6,5.22-10a18.59,18.59,0,0,0,4.08-1.59,1.35,1.35,0,0,0,.33-.26v-2A19.46,19.46,0,0,0,245.48,197Z"/><path d="M150.85,4.46c3.92,2.13,7.82,1.86,12,1.41a35.61,35.61,0,0,0,3.5,7.47,1.56,1.56,0,0,0,2.78-.71,55.45,55.45,0,0,0,0-7.52c3.08-.48,6.13-1.3,8.42-3.34a.19.19,0,0,0,0-.31A11.49,11.49,0,0,0,174.16,0H158.32a15.5,15.5,0,0,0-7.65,3A.86.86,0,0,0,150.85,4.46Z"/><path d="M165.12,237.2a1.92,1.92,0,0,0-3.65.45,32.45,32.45,0,0,0-.2,12.07c-1,.06-2,.14-3,.28h15.84a22.18,22.18,0,0,0-5.54-.56A49.67,49.67,0,0,0,165.12,237.2Z"/><path d="M12,134a14.9,14.9,0,0,0,2,5,1,1,0,0,0,1.73-.09,14.92,14.92,0,0,0,1.36-5.23,51.9,51.9,0,0,0,11.84-3.87c2.2-1,1.85-4.31-.78-4.29a102.32,102.32,0,0,0-11.64.52c-.77-3.23-2.17-6.16-4.29-7.81-.41-.32-1.2-.33-1.41.26-1.08,3.09-.41,5.65.15,8.7a18.08,18.08,0,0,0-6,2.82,1.51,1.51,0,0,0,.13,2.6A15.71,15.71,0,0,0,12,134Z"/><path d="M166,168.86c-.36-.39-1.05,0-1,.5A61.31,61.31,0,0,0,168.62,184c-4.27,1.35-9,2.52-12.56,5.08a.85.85,0,0,0,.09,1.47c4.39,1.59,9.95,1.25,15.24-.29a50.42,50.42,0,0,0,6.78,10.61c.93,1.06,2.81,0,2.65-1.32a48.51,48.51,0,0,0-3.3-11.71,26.34,26.34,0,0,0,8.56-6.48,1,1,0,0,0-.82-1.66A40,40,0,0,0,174.91,182,62.61,62.61,0,0,0,166,168.86Z"/><path d="M155.53,137.8a23.61,23.61,0,0,1,.91,2.34c.38,1.42-1.53,2.42-2.61,1.6-.41-.32-.73-.72-1.11-1.07a15.27,15.27,0,0,1-8.27,3c-2.09.09-3.56-2.35-1.75-3.88s3.73-3,5.73-4.35a26.06,26.06,0,0,1-3.18-8.85.31.31,0,0,1,.48-.29,25.67,25.67,0,0,1,7.13,6.58,35.19,35.19,0,0,1,3.56-1.92,1.21,1.21,0,0,1,1.68,1.22A12.39,12.39,0,0,1,155.53,137.8Z"/><path d="M112.17,161.61a.6.6,0,0,0-1.1.11,61.44,61.44,0,0,0-1.84,15c-4.47-.27-9.33-.88-13.55.24a.86.86,0,0,0-.43,1.41c3.52,3.06,8.83,4.73,14.33,5.19a49.75,49.75,0,0,0,2.52,12.33c.49,1.33,2.64,1,3-.28a48.59,48.59,0,0,0,1.12-12.11,26.33,26.33,0,0,0,10.31-3,1,1,0,0,0-.18-1.84A39.89,39.89,0,0,0,115.84,177,62.6,62.6,0,0,0,112.17,161.61Z"/><path d="M68.12,195.06c.45-.29,1,.27.83.73A61.06,61.06,0,0,1,61.63,209c3.78,2.41,8.07,4.77,10.82,8.16a.85.85,0,0,1-.47,1.39c-4.65.4-9.93-1.36-14.65-4.22A50.37,50.37,0,0,1,48,222.81c-1.17.78-2.71-.75-2.22-2A48.47,48.47,0,0,1,52,210.39a26.19,26.19,0,0,1-6.59-8.47,1,1,0,0,1,1.22-1.39,40.13,40.13,0,0,1,9.42,4.85A62.38,62.38,0,0,1,68.12,195.06Z"/><path d="M75.89,158.2a20.58,20.58,0,0,1-7.43,2.93A1.41,1.41,0,0,1,67,159.19,20.05,20.05,0,0,1,71,154a20.08,20.08,0,0,1-5.22-8c-.16-.54.22-1.35.9-1.17a21.09,21.09,0,0,1,8.91,5.62,21.84,21.84,0,0,1,6.5-2.8,1.91,1.91,0,0,1,2,2.63,22.58,22.58,0,0,1-4.3,5c.64.84,1.31,1.69,1.86,2.5A1.86,1.86,0,0,1,79,160.39C78,159.75,77,159,75.89,158.2Z"/><path d="M39.89,159.2a20.58,20.58,0,0,1-7.43,2.93A1.41,1.41,0,0,1,31,160.19,20.05,20.05,0,0,1,35,155a20.08,20.08,0,0,1-5.22-8c-.16-.54.22-1.35.9-1.17a21.09,21.09,0,0,1,8.91,5.62,21.84,21.84,0,0,1,6.5-2.8,1.91,1.91,0,0,1,2,2.63,22.58,22.58,0,0,1-4.3,5c.64.84,1.31,1.69,1.86,2.5A1.86,1.86,0,0,1,43,161.39C42,160.75,41,160,39.89,159.2Z"/><path d="M182.9,126a14.77,14.77,0,0,0,.66-5.32,1,1,0,0,0-1.56-.77,15.11,15.11,0,0,0-3.72,3.92,51.67,51.67,0,0,0-12.23-2.35c-2.41-.2-3.71,2.87-1.4,4.13a103.46,103.46,0,0,0,10.43,5.18c-.89,3.2-1.08,6.45,0,8.92.2.47.89.86,1.36.45,2.45-2.17,3.09-4.74,4.09-7.68a18.06,18.06,0,0,0,6.65.46,1.51,1.51,0,0,0,1.14-2.34A15.7,15.7,0,0,0,182.9,126Z"/><path d="M215.34,100a1.21,1.21,0,0,1-.94-1.66,24.12,24.12,0,0,1,3.12-4.11,86.56,86.56,0,0,1-4.12-7.75c-1.73-3.55,3.69-6.49,6-3.35,1.48,2,2.88,4,4.15,6.07a23.27,23.27,0,0,1,7.85-3.77A1.41,1.41,0,0,1,232.93,87c-.46,3.6-3,7-6.22,9.41a17.68,17.68,0,0,1,.6,4.33c0,.88-.83,1.88-1.8,1.36a19.29,19.29,0,0,1-4-2.9A13.87,13.87,0,0,1,215.34,100Z"/><path d="M176.54,44.23a1.26,1.26,0,0,0,1.76-1.5A36.47,36.47,0,0,0,174,34.62a20.42,20.42,0,0,0,6.06-4.49c1.4-1.54.26-4.73-2.08-4.34a32.39,32.39,0,0,0-8.34,2.73c-2.39-3.34-4.51-7-8.31-8.82a.76.76,0,0,0-1.09.71c-.23,3.93,1.89,7.54,4.11,10.84-2.07,1.19-4.14,2.43-6.27,3.65-1.44.82-.55,3,1,2.93a49,49,0,0,0,9.28-1.16A28,28,0,0,0,176.54,44.23Z"/><path d="M76.09,107.17a14.83,14.83,0,0,0,1.93-5,1,1,0,0,0-1.33-1.11A14.85,14.85,0,0,0,72.13,104a52.43,52.43,0,0,0-11.3-5.24c-2.29-.77-4.3,1.89-2.35,3.68a103.37,103.37,0,0,0,8.87,7.54c-1.65,2.89-2.62,6-2.2,8.65.09.51.66,1,1.21.76,2.9-1.51,4.15-3.84,5.83-6.46a18.19,18.19,0,0,0,6.34,2.06,1.52,1.52,0,0,0,1.68-2A15.91,15.91,0,0,0,76.09,107.17Z"/><path d="M129.29,0H120.2A25.45,25.45,0,0,0,129.29,0Z"/><path d="M110.1,10a48.1,48.1,0,0,0,6.22-10h-6.89a42.64,42.64,0,0,0-2,8.69C107.29,10,109.19,11,110.1,10Z"/><path d="M132,247.8c-3.58-2.51-8.36-3.59-12.65-4.87a61.52,61.52,0,0,0,3.4-14.7.61.61,0,0,0-1-.48A63,63,0,0,0,113,241a40.33,40.33,0,0,0-10.39-2.06,1,1,0,0,0-.8,1.67,26.32,26.32,0,0,0,8.67,6.33c-.38,1-.75,2-1.09,3.07h6.89c.13-.25.25-.5.37-.76a33.86,33.86,0,0,0,3.51.76h9.09a16.15,16.15,0,0,0,2.65-.73A.86.86,0,0,0,132,247.8Z"/><path d="M21.08,29.45a.6.6,0,0,0-.18,1.09,61.18,61.18,0,0,0,14,5.65c-1.41,4.25-3.27,8.79-3.27,13.15,0,.59.68,1.17,1.25.79,3.86-2.61,6.85-7.31,8.72-12.5a50.08,50.08,0,0,0,12.56.75c1.41-.13,1.64-2.29.49-2.92a48.46,48.46,0,0,0-11.41-4.21A26.28,26.28,0,0,0,43,20.52a1,1,0,0,0-1.82-.31,39.65,39.65,0,0,0-4.27,9.69A63,63,0,0,0,21.08,29.45Z"/><path d="M11.12,75.4a20.61,20.61,0,0,1-.9-7.94,1.41,1.41,0,0,1,2.26-.91,20.17,20.17,0,0,1,3.93,5.19,20,20,0,0,1,9.07-3c.56,0,1.25.55.89,1.17a21.13,21.13,0,0,1-7.73,7.15,22.13,22.13,0,0,1,1,7,1.91,1.91,0,0,1-3.06,1.24,22.6,22.6,0,0,1-3.71-5.44c-1,.4-2,.82-2.9,1.15a1.86,1.86,0,0,1-1.8-3.2C9.08,77,10.09,76.22,11.12,75.4Z"/><path d="M177.74,228.93a.86.86,0,0,1-1.56.15,48.06,48.06,0,0,1-3-6.93,24.23,24.23,0,0,1-9.31,3.51,2.77,2.77,0,0,1-2.48-4.7,24.43,24.43,0,0,1,9.07-5.92c-.52-1.49-1-3-1.59-4.45-1.05-2.58,2.46-5.78,4.37-3.08a39.42,39.42,0,0,1,3.4,5.75c.92-.2,1.81-.42,2.75-.58a1.76,1.76,0,0,1,1.58,3c-.82.84-1.68,1.6-2.53,2.37A17.41,17.41,0,0,1,177.74,228.93Z"/><path d="M112.93,90.92a.86.86,0,0,1-1.43-.36c-1.16-3.88-.41-7.44.74-11.07A32.59,32.59,0,0,1,101,75a1.92,1.92,0,0,1,.89-3.57,49.5,49.5,0,0,1,12.69,1.12c1.11-3,2.52-5.77,5.09-7.66A.2.2,0,0,1,120,65c1.09,2.87.76,6,.1,9.05a56.89,56.89,0,0,1,7,2.73,1.56,1.56,0,0,1-.33,2.85,36,36,0,0,1-8.23.6C117.47,84.28,116.32,88,112.93,90.92Z"/><path d="M21.93,245.92a.86.86,0,0,1-1.43-.36c-1.16-3.88-.41-7.44.74-11.07A32.59,32.59,0,0,1,10,230a1.92,1.92,0,0,1,.89-3.57,49.5,49.5,0,0,1,12.69,1.12c1.11-2.95,2.52-5.77,5.09-7.66A.2.2,0,0,1,29,220c1.09,2.87.76,6,.1,9a56.89,56.89,0,0,1,7,2.73,1.56,1.56,0,0,1-.33,2.85,36,36,0,0,1-8.23.6C26.47,239.28,25.32,243,21.93,245.92Z"/><path d="M133.61,201.78a.86.86,0,0,0-1.15.92c.59,4,2.78,6.92,5.35,9.73a32.34,32.34,0,0,0-8.23,8.82,1.91,1.91,0,0,0,2.31,2.85,49.42,49.42,0,0,0,11-6.37c2.25,2.21,4.73,4.16,7.85,4.79a.21.21,0,0,0,.22-.24c-.23-3.05-1.85-5.76-3.73-8.24a56.58,56.58,0,0,0,5.19-5.44,1.56,1.56,0,0,0-1.5-2.44,36.08,36.08,0,0,0-7.72,2.93C140.53,205.87,137.91,203,133.61,201.78Z"/><path d="M213.25,174.79a20.73,20.73,0,0,1,5.7,5.61,1.41,1.41,0,0,1-1.18,2.13,20.6,20.6,0,0,1-6.33-1.56,20,20,0,0,1-5.18,8c-.42.36-1.32.35-1.43-.36a21.13,21.13,0,0,1,1.51-10.42,22.18,22.18,0,0,1-5.2-4.79,1.9,1.9,0,0,1,1.6-2.89,22.51,22.51,0,0,1,6.3,1.9c.51-.93,1-1.89,1.53-2.72a1.86,1.86,0,0,1,3.41,1.35C213.8,172.23,213.54,173.51,213.25,174.79Z"/><path d="M40,122a1.27,1.27,0,0,0-1.15,2,36.82,36.82,0,0,0,6.83,6.14,20.52,20.52,0,0,0-4.16,6.29c-.79,1.93,1.38,4.53,3.43,3.37a32.43,32.43,0,0,0,6.91-5.42c3.39,2.32,6.65,5.09,10.82,5.44a.76.76,0,0,0,.79-1c-1.12-3.76-4.35-6.43-7.57-8.78,1.54-1.83,3.06-3.69,4.64-5.57,1.07-1.26-.5-3-1.91-2.42a47.2,47.2,0,0,0-8.32,4.27A28.08,28.08,0,0,0,40,122Z"/><path d="M250,250v-.08a1.23,1.23,0,0,0-.37.08Z"/><path d="M231,250a1.12,1.12,0,0,0-.41,0H231Z"/><path d="M0,4.23,1.49,2.44A1.54,1.54,0,0,0,.69,0H0Z"/><path d="M4.42,16.79A14,14,0,0,0,0,10.51v6.37a12,12,0,0,0,3.63.95A.76.76,0,0,0,4.42,16.79Z"/><path d="M246.85,8c1.05-1.24,2.09-2.51,3.15-3.78V0h-.37l0,0a47.2,47.2,0,0,0-8.32,4.27A28.06,28.06,0,0,0,231,0h-.43a1.29,1.29,0,0,0-.74,2,36.82,36.82,0,0,0,6.83,6.14,20.52,20.52,0,0,0-4.16,6.29c-.79,1.93,1.38,4.53,3.43,3.37a32.43,32.43,0,0,0,6.91-5.42A43.72,43.72,0,0,0,250,16.88V10.51C249,9.63,247.93,8.8,246.85,8Z"/><path d="M76.52,74.35A.86.86,0,0,0,76,73c-4-.75-7.44.37-10.93,1.89a32.4,32.4,0,0,0-5.66-10.66A1.92,1.92,0,0,0,56,65.45,50,50,0,0,0,58.4,77.94c-2.81,1.42-5.46,3.12-7.08,5.87-.07.12,0,.25.15.28,3,.78,6.05.12,9-.85a57.61,57.61,0,0,0,3.45,6.68,1.56,1.56,0,0,0,2.8-.62,35.62,35.62,0,0,0-.26-8.25C70.4,79.55,74,78,76.52,74.35Z"/><path d="M156.71,59.39c-.31-.43.24-1,.7-.85a61.19,61.19,0,0,1,13.44,6.85c2.28-3.85,4.49-8.23,7.78-11.1.44-.38,1.33-.25,1.41.43.57,4.63-1,10-3.71,14.78a49.76,49.76,0,0,1,8.81,9c.83,1.15-.65,2.74-1.88,2.29a48.78,48.78,0,0,1-10.67-5.85,26,26,0,0,1-8.23,6.88,1,1,0,0,1-1.43-1.17,39.71,39.71,0,0,1,4.51-9.58A62.78,62.78,0,0,1,156.71,59.39Z"/><rect class="cls-3" width="250" height="250"/><path class="cls-4" d="M248.81,82.06c-.05,0,0,.12,0,.1a10.88,10.88,0,0,0,1.15-.54v-.31A10.38,10.38,0,0,0,248.81,82.06Z"/><path class="cls-4" d="M249.19,171.29c-.91-.13-1.83-.26-2.74-.37a12,12,0,0,0-2.67-.22.06.06,0,0,0,0,.11,11.53,11.53,0,0,0,2.61.54c.91.15,1.82.28,2.74.41l.88.13v-.48Z"/><path class="cls-4" d="M249.81,105.64c0,.07.11.1.14,0a1.17,1.17,0,0,0,.05-.11v-1.2A8.07,8.07,0,0,0,249.81,105.64Z"/><path class="cls-5" d="M250,105.74V98.67a27.23,27.23,0,0,0-4.69,3.62,22.26,22.26,0,0,0-6.45-2.92,1.91,1.91,0,0,0-2,2.6A22.4,22.4,0,0,0,241,107c-.65.83-1.34,1.67-1.9,2.48a1.85,1.85,0,0,0,2.57,2.6c1-.62,2.09-1.36,3.16-2.12a23.74,23.74,0,0,0,5.13,2.48v-6.39l-.16-.18Z"/><path class="cls-5" d="M245.66,52.42a1.21,1.21,0,0,0,.75,1.94,26.34,26.34,0,0,0,3.59.3V49.48A11.74,11.74,0,0,0,245.66,52.42Z"/><path class="cls-4" d="M250,250v-.08a1.23,1.23,0,0,0-.37.08Z"/><path class="cls-4" d="M231,250a1.12,1.12,0,0,0-.41,0H231Z"/><path class="cls-5" d="M88.67,185.29a19.08,19.08,0,0,1,2.45.52c1.4.44,1.2,2.6-.08,3.05-.49.17-1,.22-1.5.35a15.12,15.12,0,0,1-2,8.59c-1.06,1.8-3.9,1.71-4.2-.65s-.45-4.74-.53-7.17a26,26,0,0,1-9.15-2.16.3.3,0,0,1,0-.55,25.87,25.87,0,0,1,9.41-2.41,33.19,33.19,0,0,1,.33-4,1.2,1.2,0,0,1,1.93-.75A12.37,12.37,0,0,1,88.67,185.29Z"/><path class="cls-5" d="M184.7,229.63a21,21,0,0,1,.9-2.35c.66-1.31,2.75-.77,3,.56.09.51.06,1,.12,1.54a15.13,15.13,0,0,1,8.17,3.27c1.62,1.33,1.07,4.13-1.3,4s-4.75-.29-7.16-.6a26.08,26.08,0,0,1-3.57,8.7.3.3,0,0,1-.54-.1,25.87,25.87,0,0,1-.91-9.66,35.58,35.58,0,0,1-3.92-.95,1.21,1.21,0,0,1-.43-2A12.28,12.28,0,0,1,184.7,229.63Z"/><path class="cls-5" d="M142.12,13.61a20.62,20.62,0,0,1,7.15,3.57,1.41,1.41,0,0,1-.46,2.39,20.29,20.29,0,0,1-6.51.47,20,20,0,0,1-2.44,9.22c-.29.48-1.15.75-1.47.11A21.11,21.11,0,0,1,136.6,19a22.28,22.28,0,0,1-6.43-3,1.91,1.91,0,0,1,.63-3.24,22.54,22.54,0,0,1,6.58-.14c.2-1,.39-2.11.62-3.06a1.86,1.86,0,0,1,3.66.23C141.85,11,142,12.3,142.12,13.61Z"/><path class="cls-5" d="M47.12,54.61a20.62,20.62,0,0,1,7.15,3.57,1.41,1.41,0,0,1-.46,2.39A20.29,20.29,0,0,1,47.3,61a20,20,0,0,1-2.44,9.22c-.29.48-1.15.75-1.47.11A21.11,21.11,0,0,1,41.6,60a22.28,22.28,0,0,1-6.43-3,1.91,1.91,0,0,1,.63-3.24,22.54,22.54,0,0,1,6.58-.14c.2-1,.39-2.11.62-3.06a1.86,1.86,0,0,1,3.66.23C46.85,52,47,53.3,47.12,54.61Z"/><path class="cls-5" d="M119.12,212.61a20.62,20.62,0,0,1,7.15,3.57,1.41,1.41,0,0,1-.46,2.39,20.29,20.29,0,0,1-6.51.47,20,20,0,0,1-2.44,9.22c-.29.48-1.15.75-1.47.11A21.11,21.11,0,0,1,113.6,218a22.28,22.28,0,0,1-6.43-3,1.91,1.91,0,0,1,.63-3.24,22.54,22.54,0,0,1,6.58-.14c.2-1,.39-2.11.62-3.06a1.86,1.86,0,0,1,3.66.23C118.85,210,119,211.3,119.12,212.61Z"/><path class="cls-5" d="M56.44,238.56A23,23,0,0,1,58,240.5c.81,1.23-.71,2.78-2,2.33-.49-.18-.92-.46-1.39-.67a15.25,15.25,0,0,1-6.93,5.44c-2,.73-4.11-1.14-2.85-3.15s2.62-4,4.1-5.9a26.3,26.3,0,0,1-5.76-7.44.31.31,0,0,1,.36-.43,25.83,25.83,0,0,1,8.82,4,35.2,35.2,0,0,1,2.79-2.92,1.21,1.21,0,0,1,2,.64A12.51,12.51,0,0,1,56.44,238.56Z"/><path class="cls-5" d="M94.94,19.76a21.57,21.57,0,0,0-1.66,1.89c-.84,1.2.62,2.79,1.9,2.39.5-.16.94-.43,1.42-.62a15.28,15.28,0,0,0,6.73,5.68c1.93.8,4.15-1,3-3.05s-2.48-4.06-3.89-6a26,26,0,0,0,6-7.24.3.3,0,0,0-.34-.43,25.71,25.71,0,0,0-9,3.74,35.41,35.41,0,0,0-2.68-3,1.21,1.21,0,0,0-2,.57A12.34,12.34,0,0,0,94.94,19.76Z"/><path class="cls-5" d="M76.94,60.76a21.57,21.57,0,0,0-1.66,1.89c-.84,1.2.62,2.79,1.9,2.39.5-.16.94-.43,1.42-.62a15.28,15.28,0,0,0,6.73,5.68c1.93.8,4.15-1,3-3S85.81,63,84.4,61a26,26,0,0,0,6-7.24.3.3,0,0,0-.34-.43,25.71,25.71,0,0,0-9,3.74,35.41,35.41,0,0,0-2.68-3,1.21,1.21,0,0,0-2,.57A12.34,12.34,0,0,0,76.94,60.76Z"/><path class="cls-5" d="M57.94,50.76a21.57,21.57,0,0,0-1.66,1.89c-.84,1.2.62,2.79,1.9,2.39.5-.16.94-.43,1.42-.62a15.28,15.28,0,0,0,6.73,5.68c1.93.8,4.15-1,3-3.05S66.81,53,65.4,51a26,26,0,0,0,6-7.24.3.3,0,0,0-.34-.43,25.71,25.71,0,0,0-9,3.74,35.41,35.41,0,0,0-2.68-3,1.21,1.21,0,0,0-2,.57A12.34,12.34,0,0,0,57.94,50.76Z"/><path class="cls-5" d="M163,96.73a20.73,20.73,0,0,1,8,.49,1.41,1.41,0,0,1,.51,2.38,20.26,20.26,0,0,1-5.8,3,20,20,0,0,1,1.35,9.45c-.08.55-.76,1.13-1.31.67a21.13,21.13,0,0,1-5.7-8.85,22.19,22.19,0,0,1-7.07-.21,1.91,1.91,0,0,1-.69-3.23,22.75,22.75,0,0,1,6-2.7c-.22-1-.47-2.09-.62-3.06a1.86,1.86,0,0,1,3.46-1.21C161.77,94.43,162.41,95.58,163,96.73Z"/><path class="cls-5" d="M234,229.73a20.73,20.73,0,0,1,8,.49,1.41,1.41,0,0,1,.51,2.38,20.26,20.26,0,0,1-5.8,3,20,20,0,0,1,1.35,9.45c-.08.55-.76,1.13-1.31.67a21.13,21.13,0,0,1-5.7-8.85,22.19,22.19,0,0,1-7.07-.21,1.91,1.91,0,0,1-.69-3.23,22.75,22.75,0,0,1,6-2.7c-.22-1-.47-2.09-.62-3.06a1.86,1.86,0,0,1,3.46-1.21C232.77,227.43,233.41,228.58,234,229.73Z"/><path class="cls-5" d="M229.23,41.14a20.64,20.64,0,0,1-6.42-4.76,1.41,1.41,0,0,1,.87-2.27,20.23,20.23,0,0,1,6.49.67,19.92,19.92,0,0,1,4-8.66c.37-.42,1.25-.54,1.46.15a21.06,21.06,0,0,1,0,10.52,22.32,22.32,0,0,1,5.82,4,1.9,1.9,0,0,1-1.18,3.08,22.36,22.36,0,0,1-6.51-1c-.38,1-.74,2-1.14,2.91a1.86,1.86,0,0,1-3.56-.87C229,43.76,229.13,42.45,229.23,41.14Z"/><path class="cls-5" d="M196.23,82.14a20.64,20.64,0,0,1-6.42-4.76,1.41,1.41,0,0,1,.87-2.27,20.23,20.23,0,0,1,6.49.67,19.92,19.92,0,0,1,4-8.66c.37-.42,1.25-.54,1.46.15a21.06,21.06,0,0,1,0,10.52,22.32,22.32,0,0,1,5.82,4,1.9,1.9,0,0,1-1.18,3.08,22.36,22.36,0,0,1-6.51-1c-.38,1-.74,2-1.14,2.91a1.86,1.86,0,0,1-3.56-.87C196,84.76,196.13,83.45,196.23,82.14Z"/><path class="cls-5" d="M201.23,123.14a20.64,20.64,0,0,1-6.42-4.76,1.41,1.41,0,0,1,.87-2.27,20.23,20.23,0,0,1,6.49.67,19.92,19.92,0,0,1,4-8.66c.37-.42,1.25-.54,1.46.15a21.06,21.06,0,0,1,0,10.52,22.32,22.32,0,0,1,5.82,4,1.9,1.9,0,0,1-1.18,3.08,22.36,22.36,0,0,1-6.51-1c-.38,1-.74,2-1.14,2.91a1.86,1.86,0,0,1-3.56-.87C201,125.76,201.13,124.45,201.23,123.14Z"/><path class="cls-5" d="M95.23,159.14a20.64,20.64,0,0,1-6.42-4.76,1.41,1.41,0,0,1,.87-2.27,20.23,20.23,0,0,1,6.49.67,19.92,19.92,0,0,1,4-8.66c.37-.42,1.25-.54,1.46.15a21.06,21.06,0,0,1,0,10.52,22.32,22.32,0,0,1,5.82,4,1.9,1.9,0,0,1-1.18,3.08,22.36,22.36,0,0,1-6.51-1c-.38,1-.74,2-1.14,2.91a1.86,1.86,0,0,1-3.56-.87C95,161.76,95.13,160.45,95.23,159.14Z"/><path class="cls-5" d="M136.23,194.14a20.64,20.64,0,0,1-6.42-4.76,1.41,1.41,0,0,1,.87-2.27,20.23,20.23,0,0,1,6.49.67,19.92,19.92,0,0,1,4-8.66c.37-.42,1.25-.54,1.46.15a21.06,21.06,0,0,1,0,10.52,22.32,22.32,0,0,1,5.82,4,1.9,1.9,0,0,1-1.18,3.08,22.36,22.36,0,0,1-6.51-1c-.38,1-.74,2-1.14,2.91a1.86,1.86,0,0,1-3.56-.87C136,196.76,136.13,195.45,136.23,194.14Z"/><path class="cls-5" d="M159.23,162.14a20.64,20.64,0,0,1-6.42-4.76,1.41,1.41,0,0,1,.87-2.27,20.23,20.23,0,0,1,6.49.67,19.92,19.92,0,0,1,4-8.66c.37-.42,1.25-.54,1.46.15a21.06,21.06,0,0,1,0,10.52,22.32,22.32,0,0,1,5.82,4,1.9,1.9,0,0,1-1.18,3.08,22.36,22.36,0,0,1-6.51-1c-.38,1-.74,2-1.14,2.91a1.86,1.86,0,0,1-3.56-.87C159,164.76,159.13,163.45,159.23,162.14Z"/><path class="cls-5" d="M213.23,152.14a20.64,20.64,0,0,1-6.42-4.76,1.41,1.41,0,0,1,.87-2.27,20.23,20.23,0,0,1,6.49.67,19.92,19.92,0,0,1,4-8.66c.37-.42,1.25-.54,1.46.15a21.06,21.06,0,0,1,0,10.52,22.32,22.32,0,0,1,5.82,4,1.9,1.9,0,0,1-1.18,3.08,22.36,22.36,0,0,1-6.51-1c-.38,1-.74,2-1.14,2.91a1.86,1.86,0,0,1-3.56-.87C213,154.76,213.13,153.45,213.23,152.14Z"/><path class="cls-5" d="M207.23,240.14a20.64,20.64,0,0,1-6.42-4.76,1.41,1.41,0,0,1,.87-2.27,20.23,20.23,0,0,1,6.49.67,19.92,19.92,0,0,1,4-8.66c.37-.42,1.25-.54,1.46.15a21.06,21.06,0,0,1,0,10.52,22.32,22.32,0,0,1,5.82,4,1.9,1.9,0,0,1-1.18,3.08,22.36,22.36,0,0,1-6.51-1c-.38,1-.74,2-1.14,2.91a1.86,1.86,0,0,1-3.56-.87C207,242.76,207.13,241.45,207.23,240.14Z"/><path class="cls-5" d="M30.54,8.43a20.72,20.72,0,0,1,5.08,6.17,1.41,1.41,0,0,1-1.4,2,20.31,20.31,0,0,1-6.13-2.21,20,20,0,0,1-6,7.44c-.46.31-1.34.21-1.38-.5a21,21,0,0,1,2.59-10.21A22.4,22.4,0,0,1,18.63,5.8a1.92,1.92,0,0,1,1.9-2.71A22.71,22.71,0,0,1,26.6,5.64c.6-.87,1.2-1.77,1.8-2.55a1.86,1.86,0,0,1,3.25,1.7C31.35,5.94,31,7.19,30.54,8.43Z"/><path class="cls-5" d="M137.26,158.78a21,21,0,0,0-1.7-1.84c-1.11-1-2.85.31-2.58,1.63.1.52.33,1,.47,1.48a15.2,15.2,0,0,0-6.36,6.1c-1,1.84.56,4.23,2.73,3.26s4.29-2,6.41-3.23a26.41,26.41,0,0,0,6.57,6.73.31.31,0,0,0,.47-.3,26,26,0,0,0-2.78-9.3,35.77,35.77,0,0,0,3.27-2.35,1.21,1.21,0,0,0-.35-2.05A12.33,12.33,0,0,0,137.26,158.78Z"/><path class="cls-5" d="M87.62,137.35a21.36,21.36,0,0,1-1.25,2.17c-.86,1.2-2.85.34-2.88-1,0-.53.1-1,.12-1.54a15.28,15.28,0,0,1-7.56-4.52c-1.39-1.56-.41-4.24,1.92-3.79s4.65,1,7,1.71a26.23,26.23,0,0,1,4.88-8,.31.31,0,0,1,.53.19,25.93,25.93,0,0,1-.62,9.68,35.09,35.09,0,0,1,3.72,1.56,1.2,1.2,0,0,1,.11,2.07A12.34,12.34,0,0,1,87.62,137.35Z"/><path class="cls-5" d="M16.62,155.35a21.36,21.36,0,0,1-1.25,2.17c-.86,1.2-2.85.34-2.88-1,0-.53.1-1,.12-1.54a15.28,15.28,0,0,1-7.56-4.52c-1.39-1.56-.41-4.24,1.92-3.79s4.65,1,7,1.71a26.23,26.23,0,0,1,4.88-8,.31.31,0,0,1,.53.19,25.93,25.93,0,0,1-.62,9.68,35.09,35.09,0,0,1,3.72,1.56,1.2,1.2,0,0,1,.11,2.07A12.34,12.34,0,0,1,16.62,155.35Z"/><path class="cls-5" d="M40.62,87.35a21.36,21.36,0,0,1-1.25,2.17c-.86,1.2-2.85.34-2.88-1,0-.53.1-1,.12-1.54a15.28,15.28,0,0,1-7.56-4.52c-1.39-1.56-.41-4.24,1.92-3.79s4.65,1,7,1.71a26.23,26.23,0,0,1,4.88-8,.31.31,0,0,1,.53.19,25.93,25.93,0,0,1-.62,9.68,35.09,35.09,0,0,1,3.72,1.56,1.2,1.2,0,0,1,.11,2.07A12.34,12.34,0,0,1,40.62,87.35Z"/><path class="cls-5" d="M66.2,184.54c.7.05,1.51-.7,1.24-1.45a24.33,24.33,0,0,0-2.27-4.63,87.45,87.45,0,0,0,5.52-6.82c2.37-3.15-2.39-7.07-5.21-4.43-1.85,1.73-3.61,3.42-5.24,5.17a23.05,23.05,0,0,0-7-5.2,1.41,1.41,0,0,0-1.83,1.25c-.24,3.61,1.57,7.41,4.3,10.42A18.18,18.18,0,0,0,54.31,183c-.16.86.45,2,1.51,1.67a18.8,18.8,0,0,0,4.53-2.07A13.75,13.75,0,0,0,66.2,184.54Z"/><path class="cls-5" d="M3.75,111.12a19.85,19.85,0,0,0-3.75-5v6.39a15.46,15.46,0,0,0,2.25.57A1.41,1.41,0,0,0,3.75,111.12Z"/><path class="cls-5" d="M5.2,98c.17-.54-.19-1.35-.88-1.18A16,16,0,0,0,0,98.67v7.07A19.78,19.78,0,0,0,5.2,98Z"/><path class="cls-5" d="M147.11,77.25a21.36,21.36,0,0,1,2.42.69c1.36.54,1,2.68-.29,3-.51.14-1,.15-1.53.25a15.21,15.21,0,0,1-2.55,8.43c-1.18,1.72-4,1.43-4.14-.94s-.13-4.76,0-7.19a26.28,26.28,0,0,1-9-2.79.31.31,0,0,1,.05-.56,26,26,0,0,1,9.55-1.74,34.54,34.54,0,0,1,.61-4,1.2,1.2,0,0,1,2-.61A12.23,12.23,0,0,1,147.11,77.25Z"/><path class="cls-5" d="M125.11,22.25a21.36,21.36,0,0,1,2.42.69c1.36.54,1,2.68-.29,3-.51.14-1,.15-1.53.25a15.21,15.21,0,0,1-2.55,8.43c-1.18,1.72-4,1.43-4.14-.94s-.13-4.76,0-7.19a26.28,26.28,0,0,1-9-2.79.31.31,0,0,1,0-.56,26,26,0,0,1,9.55-1.74,34.54,34.54,0,0,1,.61-4,1.2,1.2,0,0,1,2-.61A12.23,12.23,0,0,1,125.11,22.25Z"/><path class="cls-5" d="M83.27,91.64A20.85,20.85,0,0,1,81.37,90c-1-1.07.22-2.85,1.55-2.63.52.09,1,.29,1.49.42a15.28,15.28,0,0,1,5.87-6.57c1.8-1.06,4.25.41,3.36,2.61s-1.9,4.37-3,6.52a26.35,26.35,0,0,1,7,6.33.3.3,0,0,1-.28.48,25.64,25.64,0,0,1-9.39-2.46,35,35,0,0,1-2.24,3.36,1.21,1.21,0,0,1-2.06-.28A12.34,12.34,0,0,1,83.27,91.64Z"/><path class="cls-5" d="M187.27,199.27a.86.86,0,0,0,.29,1.55,48.08,48.08,0,0,0,7.49,1,24.18,24.18,0,0,0-.8,9.92,2.77,2.77,0,0,0,5.2,1.08,24.57,24.57,0,0,0,3.19-10.35c1.57.09,3.12.14,4.72.31,2.76.29,4.88-4,1.75-5.06a39.94,39.94,0,0,0-6.46-1.68c-.07-.94-.1-1.86-.21-2.8a1.76,1.76,0,0,0-3.31-.7c-.57,1-1.07,2.06-1.58,3.08A17.48,17.48,0,0,0,187.27,199.27Z"/><path class="cls-5" d="M198.72,170a.86.86,0,0,1-1.57,0,47.47,47.47,0,0,1-2.41-7.16,24.34,24.34,0,0,1-9.59,2.68,2.77,2.77,0,0,1-2.06-4.9,24.54,24.54,0,0,1,9.56-5.11c-.39-1.53-.74-3-1.21-4.57-.81-2.66,3-5.55,4.63-2.69a39.89,39.89,0,0,1,2.89,6c.93-.11,1.84-.25,2.79-.33a1.76,1.76,0,0,1,1.31,3.12c-.9.76-1.81,1.44-2.72,2.14A17.45,17.45,0,0,1,198.72,170Z"/><path class="cls-5" d="M4.62,24.48A20.29,20.29,0,0,1,4.26,22c-.06-1.47,2-2,2.9-1,.33.4.55.86.84,1.29a15.24,15.24,0,0,1,8.75-1.1c2.05.38,2.93,3.09.82,4.17s-4.3,2.05-6.55,2.95a26.37,26.37,0,0,1,1.1,9.34.31.31,0,0,1-.53.18,26,26,0,0,1-5.48-8,35.2,35.2,0,0,1-3.89,1.07A1.21,1.21,0,0,1,.85,29.34,12.4,12.4,0,0,1,4.62,24.48Z"/><path class="cls-5" d="M179,98.3a1.21,1.21,0,0,0,.31,1.88,24.64,24.64,0,0,0,5,1.24A86.85,86.85,0,0,0,186,110c.89,3.84,6.95,2.72,6.74-1.15-.14-2.53-.3-5-.6-7.33a23,23,0,0,0,8.48-2,1.41,1.41,0,0,0,.23-2.21c-2.62-2.5-6.69-3.56-10.75-3.4a17.89,17.89,0,0,0-2.27-3.74c-.55-.68-1.82-.94-2.25.07a19,19,0,0,0-1.32,4.81A13.79,13.79,0,0,0,179,98.3Z"/><path class="cls-5" d="M127.85,51.46a.86.86,0,0,1-.18-1.46c3.2-2.48,6.8-3.06,10.6-3.28a32.45,32.45,0,0,1,.2-12.07,1.92,1.92,0,0,1,3.65-.45,49.67,49.67,0,0,1,3.5,12.24c3.15,0,6.29.3,9,2a.19.19,0,0,1,0,.31c-2.29,2-5.34,2.86-8.42,3.34a55.45,55.45,0,0,1,0,7.52,1.56,1.56,0,0,1-2.78.71,35.61,35.61,0,0,1-3.5-7.47C135.67,53.32,131.77,53.59,127.85,51.46Z"/><path class="cls-5" d="M89,207.66a14.89,14.89,0,0,1,3.84-3.73,1,1,0,0,1,1.55.78,14.92,14.92,0,0,1-.89,5.33,51.73,51.73,0,0,1,9.24,8.36c1.61,1.8,0,4.69-2.46,3.6a103.22,103.22,0,0,1-10.41-5.22c-2,2.65-4.5,4.75-7.1,5.4-.5.12-1.23-.19-1.18-.82.26-3.26,1.92-5.32,3.67-7.89a18,18,0,0,1-4.37-5A1.51,1.51,0,0,1,82,206.12,15.87,15.87,0,0,1,89,207.66Z"/><path class="cls-5" d="M108.86,105.4a21.52,21.52,0,0,1,2.26-1.11c1.37-.51,2.54,1.31,1.81,2.45-.28.45-.65.8-1,1.21a15.14,15.14,0,0,1,3.74,8c.28,2.08-2,3.75-3.71,2.08s-3.27-3.46-4.83-5.33a25.91,25.91,0,0,1-8.54,3.94.3.3,0,0,1-.33-.45,25.74,25.74,0,0,1,5.93-7.68,34.91,34.91,0,0,1-2.22-3.37,1.22,1.22,0,0,1,1.07-1.79A12.26,12.26,0,0,1,108.86,105.4Z"/><path class="cls-5" d="M90.86,227.4a21.52,21.52,0,0,1,2.26-1.11c1.37-.51,2.54,1.31,1.81,2.45-.28.45-.65.8-1,1.21a15.14,15.14,0,0,1,3.74,8c.28,2.08-2,3.75-3.71,2.08s-3.27-3.46-4.83-5.33a25.91,25.91,0,0,1-8.54,3.94.3.3,0,0,1-.33-.45,25.74,25.74,0,0,1,5.93-7.68A34.91,34.91,0,0,1,84,227.11a1.22,1.22,0,0,1,1.07-1.79A12.26,12.26,0,0,1,90.86,227.4Z"/><path class="cls-5" d="M69.3,10.08A24.29,24.29,0,0,0,76,2.73a48,48,0,0,0,5.84,4.8.86.86,0,0,0,1.32-.85,17.13,17.13,0,0,0-2-6.68H68.45A23.42,23.42,0,0,0,65,7,2.77,2.77,0,0,0,69.3,10.08Z"/><path class="cls-5" d="M80,243.42a1.76,1.76,0,0,0-2.76-1.95c-.76.57-1.46,1.18-2.19,1.76a39.5,39.5,0,0,0-5.64-3.58c-2.93-1.53-4.59,2.92-2.5,4.74,1.21,1.05,2.31,2.15,3.44,3.24-.67.76-1.3,1.55-1.9,2.37h12.7a18.65,18.65,0,0,0-2.32-3.32C79.24,245.61,79.65,244.54,80,243.42Z"/><path class="cls-5" d="M244.72,135.69a1.26,1.26,0,0,1-1.37,1.86,36.82,36.82,0,0,1-8.39-3.74,20.48,20.48,0,0,1-4.05,6.36c-1.45,1.5-4.7.59-4.48-1.77a32.79,32.79,0,0,1,2.14-8.51c-3.5-2.15-7.35-4-9.37-7.67a.76.76,0,0,1,.63-1.14c3.89-.51,7.64,1.36,11.1,3.34,1-2.15,2.13-4.3,3.2-6.51.72-1.49,2.94-.76,3,.76a49.48,49.48,0,0,1-.51,9.34A28,28,0,0,1,244.72,135.69Z"/><path class="cls-5" d="M158.72,243.69a1.26,1.26,0,0,1-1.37,1.86,36.82,36.82,0,0,1-8.39-3.74,20.48,20.48,0,0,1-4.05,6.36c-1.45,1.5-4.7.59-4.48-1.77a32.79,32.79,0,0,1,2.14-8.51c-3.5-2.15-7.35-4-9.37-7.67a.76.76,0,0,1,.63-1.14c3.89-.51,7.64,1.36,11.1,3.34,1-2.15,2.13-4.3,3.2-6.51.72-1.49,2.94-.76,3,.76a49.48,49.48,0,0,1-.51,9.34A28,28,0,0,1,158.72,243.69Z"/><path class="cls-5" d="M2.84,64.09a.3.3,0,0,0,.55,0A26.08,26.08,0,0,0,5.55,55c2.43-.07,4.87-.24,7.17-.53s2.45-3.14.65-4.2a15.28,15.28,0,0,0-8.59-2c-.13-.5-.18-1-.35-1.5-.45-1.27-2.61-1.47-3.06-.07a20.91,20.91,0,0,0-.51,2.45c-.29.1-.58.22-.86.34v5.18l.43,0A25.57,25.57,0,0,0,2.84,64.09Z"/><path class="cls-5" d="M2.43,178.73a.21.21,0,0,0,.2-.25A12.36,12.36,0,0,0,0,174.37v4.27A11,11,0,0,0,2.43,178.73Z"/><path class="cls-5" d="M1.24,159.59A1.84,1.84,0,0,0,0,157.34v6.51C.48,162.44.9,161,1.24,159.59Z"/><path class="cls-5" d="M246.67,171.47a51.43,51.43,0,0,0,3.33-7.62v-6.51a2,2,0,0,0-1.94.41,32.32,32.32,0,0,0-7.42,9.51c-3.18-2.1-6.4-3.81-10.44-3.76a.86.86,0,0,0-.74,1.28c1.85,4.06,5.12,6.19,8.73,8.35a35.66,35.66,0,0,0-1.69,8.08,1.56,1.56,0,0,0,2.65,1.1,57.38,57.38,0,0,0,4.55-6,19.82,19.82,0,0,0,6.3,2.31v-4.27A25.09,25.09,0,0,0,246.67,171.47Z"/><path class="cls-5" d="M93,50a1.26,1.26,0,0,0,.8,2.17,37.15,37.15,0,0,0,9.1-1.28A20.45,20.45,0,0,0,105,58.08c1,1.84,4.36,1.85,4.79-.47a32.86,32.86,0,0,0,.29-8.77c4-1.11,8.17-1.83,11.12-4.79a.76.76,0,0,0-.29-1.27c-3.6-1.57-7.72-.8-11.59.15-.41-2.36-.86-4.72-1.28-7.14-.28-1.63-2.62-1.54-3.09-.09a48.89,48.89,0,0,0-2.08,9.12A28,28,0,0,0,93,50Z"/><path class="cls-5" d="M187,52a1.26,1.26,0,0,0,.8,2.17,37.15,37.15,0,0,0,9.1-1.28A20.45,20.45,0,0,0,199,60.08c1,1.84,4.36,1.85,4.79-.47a32.86,32.86,0,0,0,.29-8.77c3.95-1.11,8.17-1.83,11.12-4.79a.76.76,0,0,0-.29-1.27c-3.6-1.57-7.72-.8-11.59.15-.41-2.36-.86-4.72-1.28-7.14-.28-1.63-2.62-1.54-3.09-.09a48.89,48.89,0,0,0-2.08,9.12A28,28,0,0,0,187,52Z"/><path class="cls-5" d="M18.38,91.8c-.47-.25-1,.35-.78.8a61.38,61.38,0,0,0,8.23,12.65c-3.6,2.66-7.73,5.32-10.23,8.89-.34.48-.11,1.35.57,1.36,4.66.08,9.81-2,14.32-5.23a49.8,49.8,0,0,0,9.86,7.82c1.22.7,2.65-.94,2.07-2.11a48,48,0,0,0-6.93-10,26.21,26.21,0,0,0,6-8.91,1,1,0,0,0-1.32-1.3,40.17,40.17,0,0,0-9.06,5.49A62.53,62.53,0,0,0,18.38,91.8Z"/><path class="cls-5" d="M146,100.42a.86.86,0,0,0-1.19-.87c-3.72,1.61-6,4.48-8,7.69a32.27,32.27,0,0,0-10.65-5.67,1.91,1.91,0,0,0-2.16,3,49.85,49.85,0,0,0,9,9c-1.55,2.74-2.8,5.64-2.59,8.82a.2.2,0,0,0,.28.15c2.89-1,5.08-3.28,7-5.74a56.54,56.54,0,0,0,6.6,3.6,1.56,1.56,0,0,0,2-2.08,35.88,35.88,0,0,0-4.83-6.69C143.85,108.16,146,104.88,146,100.42Z"/><path class="cls-5" d="M37.72,167.18a.86.86,0,0,1,.84,1.21c-1.66,3.68-4.57,5.88-7.82,7.87A32.41,32.41,0,0,1,36.23,187a1.91,1.91,0,0,1-3,2.1A49.24,49.24,0,0,1,24.38,180c-2.77,1.5-5.69,2.7-8.87,2.44-.14,0-.18-.18-.14-.29,1.06-2.87,3.37-5,5.86-6.89a55.7,55.7,0,0,1-3.49-6.66,1.57,1.57,0,0,1,2.12-1.94,36.83,36.83,0,0,1,6.6,4.95C29.94,169.21,33.26,167.14,37.72,167.18Z"/><path class="cls-5" d="M208.46,216.13a.86.86,0,0,0,1,1.23,46.9,46.9,0,0,0,7.09-2.63,24.17,24.17,0,0,0,3.95,9.13,2.77,2.77,0,0,0,5.1-1.48,24.48,24.48,0,0,0-2-10.64c1.43-.66,2.82-1.34,4.31-1.94,2.57-1,2.44-5.79-.83-5.29a39.53,39.53,0,0,0-6.5,1.55c-.49-.79-.95-1.59-1.49-2.38a1.76,1.76,0,0,0-3.25.94c0,1.18,0,2.32,0,3.47A17.38,17.38,0,0,0,208.46,216.13Z"/><path class="cls-5" d="M243.3,59.49a.86.86,0,0,0-1-1.07c-3.94.94-6.65,3.37-9.22,6.18a32.45,32.45,0,0,0-9.5-7.44,1.92,1.92,0,0,0-2.65,2.55,49.76,49.76,0,0,0,7.31,10.43c-2,2.44-3.73,5.07-4.08,8.24,0,.14.13.22.25.2,3-.5,5.57-2.35,7.89-4.44a55.58,55.58,0,0,0,5.87,4.69,1.56,1.56,0,0,0,2.3-1.7,35.64,35.64,0,0,0-3.6-7.43C239.83,66.73,242.49,63.87,243.3,59.49Z"/><path class="cls-5" d="M8.14,209.92A.86.86,0,0,1,8,208.36a47.14,47.14,0,0,1,6.87-3.15A24.12,24.12,0,0,1,11.16,196a2.77,2.77,0,0,1,4.66-2.56,24.66,24.66,0,0,1,6.08,9c1.47-.55,2.94-1.05,4.42-1.67,2.55-1.09,5.82,2.35,3.16,4.32a41.12,41.12,0,0,1-5.69,3.5c.21.91.45,1.8.62,2.74a1.76,1.76,0,0,1-3,1.63c-.86-.81-1.63-1.65-2.42-2.49A17.41,17.41,0,0,1,8.14,209.92Z"/><path class="cls-5" d="M81.6,40.11a.87.87,0,0,0,.94-1.27,48.55,48.55,0,0,0-4.38-6.16A24.13,24.13,0,0,0,86,26.5,2.77,2.77,0,0,0,83.21,22a24.53,24.53,0,0,0-9.75,4.73c-1-1.21-2-2.38-3-3.66-1.67-2.22-6.22-.87-4.9,2.16a40.77,40.77,0,0,0,3.18,5.88c-.64.68-1.29,1.33-1.91,2.06A1.76,1.76,0,0,0,68.59,36c1.14-.27,2.23-.61,3.33-.94A17.52,17.52,0,0,0,81.6,40.11Z"/><path class="cls-5" d="M220.73,9.21c.53-.05.77.71.41,1a61.58,61.58,0,0,1-12.52,8.43c2.28,3.86,5,7.92,5.94,12.18.12.57-.42,1.29-1.05,1-4.33-1.75-8.23-5.73-11.13-10.41a50.13,50.13,0,0,1-12.14,3.34c-1.4.17-2.07-1.9-1.08-2.75a48.2,48.2,0,0,1,10.28-6.49,26.36,26.36,0,0,1-2-10.55,1,1,0,0,1,1.73-.68,40.38,40.38,0,0,1,6.19,8.6A62.34,62.34,0,0,1,220.73,9.21Z"/><path class="cls-5" d="M109,128a1.26,1.26,0,0,1,1.88-1.35,37,37,0,0,1,6.83,6.15,20.33,20.33,0,0,1,5.81-4.8c1.84-1,4.65.9,3.71,3.06a32.31,32.31,0,0,1-4.67,7.44c2.67,3.13,5.76,6.08,6.55,10.19a.76.76,0,0,1-.95.89c-3.87-.72-6.85-3.65-9.53-6.6-1.65,1.72-3.35,3.42-5,5.19-1.15,1.2-3-.18-2.61-1.64a48.49,48.49,0,0,1,3.37-8.73A28,28,0,0,1,109,128Z"/><path class="cls-5" d="M55.88,18.08a20.55,20.55,0,0,0,2.5.27c1.47,0,1.94-2.1.87-2.92-.42-.32-.89-.52-1.32-.81a15.18,15.18,0,0,0,.79-8.77c-.45-2-3.19-2.83-4.2-.68s-1.9,4.37-2.71,6.65a26.13,26.13,0,0,0-9.38-.77.31.31,0,0,0-.16.53,25.82,25.82,0,0,0,8.2,5.19,38.48,38.48,0,0,0-.93,3.93A1.21,1.21,0,0,0,51.16,22,12.3,12.3,0,0,0,55.88,18.08Z"/><path class="cls-5" d="M0,199.16v2A1.22,1.22,0,0,0,0,199.16Z"/><path class="cls-5" d="M245.48,197a13.88,13.88,0,0,0-2.26-5.73,1.21,1.21,0,0,0-1.91,0,24,24,0,0,0-2.09,4.72,86.75,86.75,0,0,0-8.77.15c-3.94.21-3.89,6.38,0,6.84,2.52.3,4.94.56,7.33.69a23.13,23.13,0,0,0,.51,8.69,1.41,1.41,0,0,0,2.13.61c2.93-2.14,4.67-6,5.22-10a18.59,18.59,0,0,0,4.08-1.59,1.35,1.35,0,0,0,.33-.26v-2A19.46,19.46,0,0,0,245.48,197Z"/><path class="cls-5" d="M150.85,4.46c3.92,2.13,7.82,1.86,12,1.41a35.61,35.61,0,0,0,3.5,7.47,1.56,1.56,0,0,0,2.78-.71,55.45,55.45,0,0,0,0-7.52c3.08-.48,6.13-1.3,8.42-3.34a.19.19,0,0,0,0-.31A11.49,11.49,0,0,0,174.16,0H158.32a15.5,15.5,0,0,0-7.65,3A.86.86,0,0,0,150.85,4.46Z"/><path class="cls-5" d="M165.12,237.2a1.92,1.92,0,0,0-3.65.45,32.45,32.45,0,0,0-.2,12.07c-1,.06-2,.14-3,.28h15.84a22.18,22.18,0,0,0-5.54-.56A49.67,49.67,0,0,0,165.12,237.2Z"/><path class="cls-5" d="M12,134a14.9,14.9,0,0,0,2,5,1,1,0,0,0,1.73-.09,14.92,14.92,0,0,0,1.36-5.23,51.9,51.9,0,0,0,11.84-3.87c2.2-1,1.85-4.31-.78-4.29a102.32,102.32,0,0,0-11.64.52c-.77-3.23-2.17-6.16-4.29-7.81-.41-.32-1.2-.33-1.41.26-1.08,3.09-.41,5.65.15,8.7a18.08,18.08,0,0,0-6,2.82,1.51,1.51,0,0,0,.13,2.6A15.71,15.71,0,0,0,12,134Z"/><path class="cls-5" d="M166,168.86c-.36-.39-1.05,0-1,.5A61.31,61.31,0,0,0,168.62,184c-4.27,1.35-9,2.52-12.56,5.08a.85.85,0,0,0,.09,1.47c4.39,1.59,9.95,1.25,15.24-.29a50.42,50.42,0,0,0,6.78,10.61c.93,1.06,2.81,0,2.65-1.32a48.51,48.51,0,0,0-3.3-11.71,26.34,26.34,0,0,0,8.56-6.48,1,1,0,0,0-.82-1.66A40,40,0,0,0,174.91,182,62.61,62.61,0,0,0,166,168.86Z"/><path class="cls-5" d="M155.53,137.8a23.61,23.61,0,0,1,.91,2.34c.38,1.42-1.53,2.42-2.61,1.6-.41-.32-.73-.72-1.11-1.07a15.27,15.27,0,0,1-8.27,3c-2.09.09-3.56-2.35-1.75-3.88s3.73-3,5.73-4.35a26.06,26.06,0,0,1-3.18-8.85.31.31,0,0,1,.48-.29,25.67,25.67,0,0,1,7.13,6.58,35.19,35.19,0,0,1,3.56-1.92,1.21,1.21,0,0,1,1.68,1.22A12.39,12.39,0,0,1,155.53,137.8Z"/><path class="cls-5" d="M112.17,161.61a.6.6,0,0,0-1.1.11,61.44,61.44,0,0,0-1.84,15c-4.47-.27-9.33-.88-13.55.24a.86.86,0,0,0-.43,1.41c3.52,3.06,8.83,4.73,14.33,5.19a49.75,49.75,0,0,0,2.52,12.33c.49,1.33,2.64,1,3-.28a48.59,48.59,0,0,0,1.12-12.11,26.33,26.33,0,0,0,10.31-3,1,1,0,0,0-.18-1.84A39.89,39.89,0,0,0,115.84,177,62.6,62.6,0,0,0,112.17,161.61Z"/><path class="cls-5" d="M68.12,195.06c.45-.29,1,.27.83.73A61.06,61.06,0,0,1,61.63,209c3.78,2.41,8.07,4.77,10.82,8.16a.85.85,0,0,1-.47,1.39c-4.65.4-9.93-1.36-14.65-4.22A50.37,50.37,0,0,1,48,222.81c-1.17.78-2.71-.75-2.22-2A48.47,48.47,0,0,1,52,210.39a26.19,26.19,0,0,1-6.59-8.47,1,1,0,0,1,1.22-1.39,40.13,40.13,0,0,1,9.42,4.85A62.38,62.38,0,0,1,68.12,195.06Z"/><path class="cls-5" d="M75.89,158.2a20.58,20.58,0,0,1-7.43,2.93A1.41,1.41,0,0,1,67,159.19,20.05,20.05,0,0,1,71,154a20.08,20.08,0,0,1-5.22-8c-.16-.54.22-1.35.9-1.17a21.09,21.09,0,0,1,8.91,5.62,21.84,21.84,0,0,1,6.5-2.8,1.91,1.91,0,0,1,2,2.63,22.58,22.58,0,0,1-4.3,5c.64.84,1.31,1.69,1.86,2.5A1.86,1.86,0,0,1,79,160.39C78,159.75,77,159,75.89,158.2Z"/><path class="cls-5" d="M39.89,159.2a20.58,20.58,0,0,1-7.43,2.93A1.41,1.41,0,0,1,31,160.19,20.05,20.05,0,0,1,35,155a20.08,20.08,0,0,1-5.22-8c-.16-.54.22-1.35.9-1.17a21.09,21.09,0,0,1,8.91,5.62,21.84,21.84,0,0,1,6.5-2.8,1.91,1.91,0,0,1,2,2.63,22.58,22.58,0,0,1-4.3,5c.64.84,1.31,1.69,1.86,2.5A1.86,1.86,0,0,1,43,161.39C42,160.75,41,160,39.89,159.2Z"/><path class="cls-5" d="M182.9,126a14.77,14.77,0,0,0,.66-5.32,1,1,0,0,0-1.56-.77,15.11,15.11,0,0,0-3.72,3.92,51.67,51.67,0,0,0-12.23-2.35c-2.41-.2-3.71,2.87-1.4,4.13a103.46,103.46,0,0,0,10.43,5.18c-.89,3.2-1.08,6.45,0,8.92.2.47.89.86,1.36.45,2.45-2.17,3.09-4.74,4.09-7.68a18.06,18.06,0,0,0,6.65.46,1.51,1.51,0,0,0,1.14-2.34A15.7,15.7,0,0,0,182.9,126Z"/><path class="cls-5" d="M215.34,100a1.21,1.21,0,0,1-.94-1.66,24.12,24.12,0,0,1,3.12-4.11,86.56,86.56,0,0,1-4.12-7.75c-1.73-3.55,3.69-6.49,6-3.35,1.48,2,2.88,4,4.15,6.07a23.27,23.27,0,0,1,7.85-3.77A1.41,1.41,0,0,1,232.93,87c-.46,3.6-3,7-6.22,9.41a17.68,17.68,0,0,1,.6,4.33c0,.88-.83,1.88-1.8,1.36a19.29,19.29,0,0,1-4-2.9A13.87,13.87,0,0,1,215.34,100Z"/><path class="cls-5" d="M176.54,44.23a1.26,1.26,0,0,0,1.76-1.5A36.47,36.47,0,0,0,174,34.62a20.42,20.42,0,0,0,6.06-4.49c1.4-1.54.26-4.73-2.08-4.34a32.39,32.39,0,0,0-8.34,2.73c-2.39-3.34-4.51-7-8.31-8.82a.76.76,0,0,0-1.09.71c-.23,3.93,1.89,7.54,4.11,10.84-2.07,1.19-4.14,2.43-6.27,3.65-1.44.82-.55,3,1,2.93a49,49,0,0,0,9.28-1.16A28,28,0,0,0,176.54,44.23Z"/><path class="cls-5" d="M76.09,107.17a14.83,14.83,0,0,0,1.93-5,1,1,0,0,0-1.33-1.11A14.85,14.85,0,0,0,72.13,104a52.43,52.43,0,0,0-11.3-5.24c-2.29-.77-4.3,1.89-2.35,3.68a103.37,103.37,0,0,0,8.87,7.54c-1.65,2.89-2.62,6-2.2,8.65.09.51.66,1,1.21.76,2.9-1.51,4.15-3.84,5.83-6.46a18.19,18.19,0,0,0,6.34,2.06,1.52,1.52,0,0,0,1.68-2A15.91,15.91,0,0,0,76.09,107.17Z"/><path class="cls-5" d="M129.29,0H120.2A25.45,25.45,0,0,0,129.29,0Z"/><path class="cls-5" d="M110.1,10a48.1,48.1,0,0,0,6.22-10h-6.89a42.64,42.64,0,0,0-2,8.69C107.29,10,109.19,11,110.1,10Z"/><path class="cls-5" d="M132,247.8c-3.58-2.51-8.36-3.59-12.65-4.87a61.52,61.52,0,0,0,3.4-14.7.61.61,0,0,0-1-.48A63,63,0,0,0,113,241a40.33,40.33,0,0,0-10.39-2.06,1,1,0,0,0-.8,1.67,26.32,26.32,0,0,0,8.67,6.33c-.38,1-.75,2-1.09,3.07h6.89c.13-.25.25-.5.37-.76a33.86,33.86,0,0,0,3.51.76h9.09a16.15,16.15,0,0,0,2.65-.73A.86.86,0,0,0,132,247.8Z"/><path class="cls-5" d="M21.08,29.45a.6.6,0,0,0-.18,1.09,61.18,61.18,0,0,0,14,5.65c-1.41,4.25-3.27,8.79-3.27,13.15,0,.59.68,1.17,1.25.79,3.86-2.61,6.85-7.31,8.72-12.5a50.08,50.08,0,0,0,12.56.75c1.41-.13,1.64-2.29.49-2.92a48.46,48.46,0,0,0-11.41-4.21A26.28,26.28,0,0,0,43,20.52a1,1,0,0,0-1.82-.31,39.65,39.65,0,0,0-4.27,9.69A63,63,0,0,0,21.08,29.45Z"/><path class="cls-5" d="M11.12,75.4a20.61,20.61,0,0,1-.9-7.94,1.41,1.41,0,0,1,2.26-.91,20.17,20.17,0,0,1,3.93,5.19,20,20,0,0,1,9.07-3c.56,0,1.25.55.89,1.17a21.13,21.13,0,0,1-7.73,7.15,22.13,22.13,0,0,1,1,7,1.91,1.91,0,0,1-3.06,1.24,22.6,22.6,0,0,1-3.71-5.44c-1,.4-2,.82-2.9,1.15a1.86,1.86,0,0,1-1.8-3.2C9.08,77,10.09,76.22,11.12,75.4Z"/><path class="cls-5" d="M177.74,228.93a.86.86,0,0,1-1.56.15,48.06,48.06,0,0,1-3-6.93,24.23,24.23,0,0,1-9.31,3.51,2.77,2.77,0,0,1-2.48-4.7,24.43,24.43,0,0,1,9.07-5.92c-.52-1.49-1-3-1.59-4.45-1.05-2.58,2.46-5.78,4.37-3.08a39.42,39.42,0,0,1,3.4,5.75c.92-.2,1.81-.42,2.75-.58a1.76,1.76,0,0,1,1.58,3c-.82.84-1.68,1.6-2.53,2.37A17.41,17.41,0,0,1,177.74,228.93Z"/><path class="cls-5" d="M112.93,90.92a.86.86,0,0,1-1.43-.36c-1.16-3.88-.41-7.44.74-11.07A32.59,32.59,0,0,1,101,75a1.92,1.92,0,0,1,.89-3.57,49.5,49.5,0,0,1,12.69,1.12c1.11-3,2.52-5.77,5.09-7.66A.2.2,0,0,1,120,65c1.09,2.87.76,6,.1,9.05a56.89,56.89,0,0,1,7,2.73,1.56,1.56,0,0,1-.33,2.85,36,36,0,0,1-8.23.6C117.47,84.28,116.32,88,112.93,90.92Z"/><path class="cls-5" d="M21.93,245.92a.86.86,0,0,1-1.43-.36c-1.16-3.88-.41-7.44.74-11.07A32.59,32.59,0,0,1,10,230a1.92,1.92,0,0,1,.89-3.57,49.5,49.5,0,0,1,12.69,1.12c1.11-2.95,2.52-5.77,5.09-7.66A.2.2,0,0,1,29,220c1.09,2.87.76,6,.1,9a56.89,56.89,0,0,1,7,2.73,1.56,1.56,0,0,1-.33,2.85,36,36,0,0,1-8.23.6C26.47,239.28,25.32,243,21.93,245.92Z"/><path class="cls-5" d="M133.61,201.78a.86.86,0,0,0-1.15.92c.59,4,2.78,6.92,5.35,9.73a32.34,32.34,0,0,0-8.23,8.82,1.91,1.91,0,0,0,2.31,2.85,49.42,49.42,0,0,0,11-6.37c2.25,2.21,4.73,4.16,7.85,4.79a.21.21,0,0,0,.22-.24c-.23-3.05-1.85-5.76-3.73-8.24a56.58,56.58,0,0,0,5.19-5.44,1.56,1.56,0,0,0-1.5-2.44,36.08,36.08,0,0,0-7.72,2.93C140.53,205.87,137.91,203,133.61,201.78Z"/><path class="cls-5" d="M213.25,174.79a20.73,20.73,0,0,1,5.7,5.61,1.41,1.41,0,0,1-1.18,2.13,20.6,20.6,0,0,1-6.33-1.56,20,20,0,0,1-5.18,8c-.42.36-1.32.35-1.43-.36a21.13,21.13,0,0,1,1.51-10.42,22.18,22.18,0,0,1-5.2-4.79,1.9,1.9,0,0,1,1.6-2.89,22.51,22.51,0,0,1,6.3,1.9c.51-.93,1-1.89,1.53-2.72a1.86,1.86,0,0,1,3.41,1.35C213.8,172.23,213.54,173.51,213.25,174.79Z"/><path class="cls-5" d="M40,122a1.27,1.27,0,0,0-1.15,2,36.82,36.82,0,0,0,6.83,6.14,20.52,20.52,0,0,0-4.16,6.29c-.79,1.93,1.38,4.53,3.43,3.37a32.43,32.43,0,0,0,6.91-5.42c3.39,2.32,6.65,5.09,10.82,5.44a.76.76,0,0,0,.79-1c-1.12-3.76-4.35-6.43-7.57-8.78,1.54-1.83,3.06-3.69,4.64-5.57,1.07-1.26-.5-3-1.91-2.42a47.2,47.2,0,0,0-8.32,4.27A28.08,28.08,0,0,0,40,122Z"/><path class="cls-5" d="M0,4.23,1.49,2.44A1.54,1.54,0,0,0,.69,0H0Z"/><path class="cls-5" d="M4.42,16.79A14,14,0,0,0,0,10.51v6.37a12,12,0,0,0,3.63.95A.76.76,0,0,0,4.42,16.79Z"/><path class="cls-5" d="M246.85,8c1.05-1.24,2.09-2.51,3.15-3.78V0h-.37l0,0a47.2,47.2,0,0,0-8.32,4.27A28.06,28.06,0,0,0,231,0h-.43a1.29,1.29,0,0,0-.74,2,36.82,36.82,0,0,0,6.83,6.14,20.52,20.52,0,0,0-4.16,6.29c-.79,1.93,1.38,4.53,3.43,3.37a32.43,32.43,0,0,0,6.91-5.42A43.72,43.72,0,0,0,250,16.88V10.51C249,9.63,247.93,8.8,246.85,8Z"/><path class="cls-5" d="M76.52,74.35A.86.86,0,0,0,76,73c-4-.75-7.44.37-10.93,1.89a32.4,32.4,0,0,0-5.66-10.66A1.92,1.92,0,0,0,56,65.45,50,50,0,0,0,58.4,77.94c-2.81,1.42-5.46,3.12-7.08,5.87-.07.12,0,.25.15.28,3,.78,6.05.12,9-.85a57.61,57.61,0,0,0,3.45,6.68,1.56,1.56,0,0,0,2.8-.62,35.62,35.62,0,0,0-.26-8.25C70.4,79.55,74,78,76.52,74.35Z"/><path class="cls-5" d="M156.71,59.39c-.31-.43.24-1,.7-.85a61.19,61.19,0,0,1,13.44,6.85c2.28-3.85,4.49-8.23,7.78-11.1.44-.38,1.33-.25,1.41.43.57,4.63-1,10-3.71,14.78a49.76,49.76,0,0,1,8.81,9c.83,1.15-.65,2.74-1.88,2.29a48.78,48.78,0,0,1-10.67-5.85,26,26,0,0,1-8.23,6.88,1,1,0,0,1-1.43-1.17,39.71,39.71,0,0,1,4.51-9.58A62.78,62.78,0,0,1,156.71,59.39Z"/></svg>