<?xml version="1.0" encoding="utf-8"?>
<!-- Generator: Adobe Illustrator 23.0.4, SVG Export Plug-In . SVG Version: 6.00 Build 0)  -->
<svg version="1.1" id="Layer_1" xmlns="http://www.w3.org/2000/svg" xmlns:xlink="http://www.w3.org/1999/xlink" x="0px" y="0px"
	 viewBox="0 0 1920 1920" style="enable-background:new 0 0 1920 1920;" xml:space="preserve">
<style type="text/css">
	.st0{fill:#EBEBEB;}
	.st1{fill:#F59F36;}
	.st2{fill:#616161;}
	.st3{fill:#404040;}
</style>
<title>BontonAssociatesLogoFullColor</title>
<rect class="st0" width="1920" height="1920"/>
<g>
	<g id="Layer_2-2">
		<path class="st1" d="M786.4,908.3c-5.3-6.5-12.3-11.4-20.2-14.1c6.2-2.9,11.5-7.5,15.2-13.2c3.5-5.6,5.2-12,5.2-18.5
			c0-11.6-5-21-15-28c-10-7-24.9-10.5-44.5-10.5h-76.5c-1.2,0-2.2,1-2.2,2.2c0,0,0,0,0,0V969c0,1.2,0.9,2.2,2.1,2.2c0,0,0,0,0,0
			h80.7c20.2,0,35.6-3.5,46.3-10.6c10.3-6.4,16.4-17.9,16-30C793.8,922.6,791.2,914.7,786.4,908.3z M697.2,860.8
			c0-1.2,1-2.2,2.2-2.2c0,0,0,0,0,0h20.9c10.8,0,16.3,3.6,16.3,10.9c0,7.3-5.4,10.9-16.3,10.9h-20.9c-1.2,0-2.2-1-2.2-2.2
			c0,0,0,0,0,0V860.8z M727.1,936.5h-27.6c-1.2,0-2.2-1-2.2-2.2v-18.8c0-1.2,1-2.2,2.2-2.2h27.6c10.9,0,16.4,3.9,16.4,11.6
			C743.5,932.6,738,936.5,727.1,936.5z"/>
		<path class="st1" d="M960.5,857.9c-7.1-11.7-17.4-21.2-29.6-27.4c-26.9-13.2-58.5-13.2-85.4,0c-25.2,12.8-40.9,38.9-40.4,67.2
			c-0.5,28.3,15.2,54.3,40.4,67.1c26.9,13.2,58.5,13.2,85.4,0c25.2-12.8,40.9-38.8,40.4-67.1C971.5,883.7,967.8,869.9,960.5,857.9z
			 M916.8,917c-2.7,5.3-6.8,9.7-11.9,12.8c-10.3,6.1-23.1,6.1-33.5,0c-5.1-3.1-9.2-7.5-11.9-12.8c-3-6-4.6-12.7-4.4-19.4
			c-0.2-6.8,1.4-13.4,4.4-19.5c2.7-5.3,6.8-9.7,11.9-12.8c10.3-6,23.1-6,33.5,0c5.1,3.1,9.2,7.5,11.9,12.8c3,6,4.6,12.7,4.4,19.5
			C921.4,904.3,919.9,911,916.8,917L916.8,917z"/>
		<path class="st1" d="M1132.3,823.9h-44c-1.2,0-2.2,1-2.2,2.2c0,0,0,0,0,0v58.6c0,1.2-0.9,2.2-2.1,2.2c-0.7,0-1.3-0.3-1.7-0.8
			l-51.4-61.5c-0.4-0.5-1-0.8-1.7-0.8h-37.6c-1.2,0-2.2,1-2.2,2.2c0,0,0,0,0,0V969c0,1.2,0.9,2.2,2.1,2.2c0,0,0,0,0,0h44
			c1.2,0,2.2-0.9,2.2-2.1c0,0,0,0,0,0v-58.7c0-1.2,1-2.2,2.2-2.2c0.7,0,1.3,0.3,1.7,0.8l51.4,61.5c0.4,0.5,1,0.8,1.7,0.8h37.6
			c1.2,0,2.2-0.9,2.2-2.1c0,0,0,0,0,0V826.1C1134.5,824.9,1133.5,824,1132.3,823.9z"/>
		<path class="st1" d="M1281,823.9h-131.5c-1.2,0-2.2,1-2.2,2.2v34.1c0,1.2,1,2.2,2.2,2.2h38.7c1.2,0,2.2,1,2.2,2.2V969
			c0,1.2,0.9,2.2,2.1,2.2c0,0,0,0,0,0h45.3c1.2,0,2.2-1,2.2-2.2c0,0,0,0,0,0V864.6c0-1.2,1-2.2,2.2-2.2c0,0,0,0,0,0h38.7
			c1.2,0,2.2-1,2.2-2.2c0,0,0,0,0,0v-34.1C1283.2,824.9,1282.2,824,1281,823.9z"/>
		<path class="st1" d="M1443.5,857.9c-7.1-11.7-17.4-21.2-29.6-27.4c-27-13.2-58.5-13.2-85.5,0c-25.2,12.8-40.9,38.9-40.4,67.2
			c-0.5,28.3,15.2,54.3,40.4,67.1c27,13.2,58.5,13.2,85.5,0c25.2-12.8,40.9-38.8,40.4-67.1C1454.4,883.7,1450.7,869.9,1443.5,857.9z
			 M1399.7,917c-2.7,5.3-6.8,9.7-11.9,12.8c-15.1,9.2-34.9,4.5-44.1-10.7c-0.4-0.7-0.8-1.4-1.2-2.2c-3.1-6-4.6-12.7-4.4-19.4
			c-0.2-6.8,1.4-13.4,4.4-19.5c2.7-5.3,6.8-9.7,11.9-12.8c10.3-6,23.1-6,33.5,0c5.1,3.1,9.2,7.5,11.9,12.8c3,6,4.6,12.7,4.4,19.5
			C1404.3,904.3,1402.8,911,1399.7,917L1399.7,917z"/>
		<path class="st1" d="M1615.3,823.9h-44c-1.2,0-2.2,1-2.2,2.2c0,0,0,0,0,0v58.6c0,1.2-1,2.2-2.2,2.2c-0.7,0-1.3-0.3-1.7-0.8
			l-51.4-61.5c-0.4-0.5-1-0.8-1.7-0.8h-37.6c-1.2,0-2.2,1-2.2,2.2c0,0,0,0,0,0V969c0,1.2,0.9,2.2,2.1,2.2c0,0,0,0,0,0h44
			c1.2,0,2.2-1,2.2-2.2c0,0,0,0,0,0v-58.7c0-1.2,1-2.2,2.2-2.2c0.6,0,1.2,0.3,1.6,0.8l51.4,61.5c0.4,0.5,1,0.8,1.7,0.8h37.6
			c1.2,0,2.2-0.9,2.2-2.1c0,0,0,0,0,0V826.1C1617.5,824.9,1616.5,823.9,1615.3,823.9C1615.3,823.9,1615.3,823.9,1615.3,823.9z"/>
		<path class="st2" d="M701.6,998.5H690l-50.4,110.4h12.2l13.2-29.5h61.5l13.2,29.5H752L701.6,998.5z M669.3,1069.9l26.5-59.3
			l26.5,59.3H669.3z"/>
		<path class="st2" d="M836.6,1063.6c-3.4-3.9-7.8-7-12.7-8.8c-6.4-2.4-13-4.4-19.6-5.9c-6.8-1.7-12.2-3.3-16.3-4.7
			c-3.8-1.2-7.3-3.3-10.2-6.1c-2.8-2.8-4.2-6.7-4.1-10.6c-0.1-5.7,2.7-11.1,7.3-14.4c4.9-3.7,12.2-5.6,21.8-5.6
			c10.8,0.1,21.3,3.3,30.3,9.1l3.9-9.3c-4.8-3.2-10.1-5.7-15.7-7.2c-6-1.7-12.3-2.6-18.5-2.6c-7.8-0.2-15.5,1.1-22.7,4.1
			c-5.5,2.2-10.2,6.1-13.5,11c-2.9,4.5-4.5,9.8-4.4,15.2c-0.3,5.9,1.5,11.7,5.3,16.3c3.5,3.9,7.8,7,12.7,8.9
			c6.5,2.4,13.1,4.5,19.9,6.1c5.5,1.3,10.9,2.8,16.3,4.6c3.7,1.3,7,3.4,9.9,6.1c2.8,2.8,4.3,6.6,4.1,10.5c0.1,5.7-2.7,11-7.4,14.1
			c-5,3.6-12.4,5.4-22.2,5.4c-7,0-13.9-1.2-20.5-3.7c-5.9-2-11.4-5.4-15.9-9.7l-4.6,8.9c4.9,4.8,10.9,8.4,17.4,10.4
			c7.6,2.6,15.5,3.9,23.6,3.8c7.8,0.2,15.6-1.2,22.9-4.1c5.6-2.2,10.4-6,13.8-10.9c3-4.5,4.5-9.8,4.5-15.2
			C842.1,1073.8,840.2,1068.1,836.6,1063.6z"/>
		<path class="st2" d="M933.5,1063.6c-3.5-3.9-7.8-7-12.7-8.8c-6.4-2.4-13-4.4-19.6-5.9c-6.8-1.7-12.2-3.3-16.3-4.7
			c-3.8-1.2-7.2-3.3-10.1-6.1c-2.8-2.8-4.2-6.7-4.1-10.6c-0.1-5.7,2.7-11.1,7.3-14.4c4.9-3.7,12.2-5.6,21.8-5.6
			c10.8,0.1,21.2,3.3,30.3,9.1l3.9-9.3c-4.8-3.2-10.1-5.7-15.7-7.2c-6-1.7-12.2-2.6-18.5-2.6c-7.8-0.2-15.5,1.1-22.7,4.1
			c-5.5,2.2-10.2,6-13.6,11c-2.9,4.5-4.5,9.8-4.4,15.2c-0.3,5.9,1.6,11.7,5.3,16.3c3.5,3.9,7.8,7,12.7,8.9
			c6.5,2.4,13.1,4.5,19.9,6.1c5.5,1.3,10.9,2.8,16.3,4.6c3.7,1.3,7,3.4,9.9,6.1c2.8,2.8,4.2,6.6,4.1,10.5c0.1,5.7-2.7,11-7.4,14.1
			c-5,3.6-12.4,5.4-22.2,5.4c-7,0-13.9-1.2-20.5-3.7c-5.9-2-11.4-5.4-15.9-9.7l-4.7,8.9c4.9,4.8,10.9,8.4,17.4,10.4
			c7.6,2.6,15.6,3.9,23.6,3.8c7.8,0.2,15.6-1.2,22.8-4.1c5.6-2.2,10.4-6,13.8-10.9c3-4.5,4.5-9.8,4.5-15.2
			C939,1073.8,937.2,1068.1,933.5,1063.6z"/>
		<path class="st2" d="M1062.6,1024.9c-4.9-8.5-12.1-15.4-20.7-20.1c-18.6-9.7-40.7-9.7-59.3,0c-8.6,4.7-15.8,11.6-20.8,20.1
			c-10,17.8-10,39.5,0,57.4c4.9,8.5,12.1,15.5,20.7,20.2c18.6,9.7,40.7,9.7,59.3,0c8.6-4.7,15.8-11.6,20.7-20.1
			C1072.7,1064.5,1072.7,1042.7,1062.6,1024.9L1062.6,1024.9z M1052.5,1077.2c-3.9,6.9-9.6,12.6-16.6,16.4c-7.2,4-15.4,6-23.6,5.9
			c-8.3,0.1-16.4-2-23.7-6c-7-3.8-12.7-9.5-16.7-16.4c-8.1-14.6-8.1-32.3,0-46.8c4-6.9,9.7-12.5,16.7-16.3c7.2-4,15.4-6.1,23.7-6
			c8.3-0.1,16.4,1.9,23.6,5.9c6.9,3.8,12.6,9.4,16.6,16.3c8,14.6,8,32.2,0,46.8V1077.2z"/>
		<path class="st2" d="M1144.8,1099.4c-8.3,0.1-16.5-1.9-23.7-5.9c-7-3.8-12.8-9.5-16.8-16.4c-8.1-14.5-8.1-32.2,0-46.7
			c4-6.9,9.8-12.5,16.8-16.3c7.2-4.1,15.4-6.2,23.7-6.2c12.2-0.4,24,4.4,32.6,13.1l7.4-7.4c-4.9-5.3-10.9-9.4-17.7-12
			c-7.2-2.8-14.9-4.2-22.7-4.1c-10.3-0.1-20.4,2.4-29.5,7.2c-8.6,4.6-15.8,11.6-20.7,20.1c-10,17.9-10,39.7,0,57.5
			c4.9,8.5,12,15.4,20.6,20.1c16.2,8.4,35.2,9.6,52.3,3.1c6.8-2.6,12.8-6.7,17.7-12.1l-7.4-7.4
			C1168.9,1095,1157,1099.8,1144.8,1099.4z"/>
		<path class="st2" d="M1209.7,998.5v110.4h11.7V998.5H1209.7z"/>
		<path class="st2" d="M1301.6,998.5H1290l-50.5,110.4h12.2l13.2-29.5h61.5l13.3,29.5h12.2L1301.6,998.5z M1269.3,1069.9l26.5-59.3
			l26.5,59.3H1269.3z"/>
		<path class="st2" d="M1347.5,998.5v10.2h38.7v100.3h11.8v-100.3h38.7v-10.2L1347.5,998.5z"/>
		<path class="st2" d="M1436.6,1047.8v9.9h76.2v-9.9H1436.6z M1469.8,1098.7L1469.8,1098.7h-33.2v10.1h76.2v-10.2L1469.8,1098.7z
			 M1436.6,998.5v10.2h76.2v-10.2H1436.6z"/>
		<path class="st2" d="M1612.2,1063.6c-3.5-4-7.8-7-12.7-8.9c-6.4-2.4-13-4.4-19.6-5.9c-6.8-1.7-12.2-3.3-16.3-4.7
			c-3.8-1.2-7.3-3.3-10.2-6.1c-2.8-2.8-4.2-6.7-4.1-10.6c-0.1-5.7,2.7-11.1,7.3-14.4c4.9-3.7,12.2-5.6,21.8-5.6
			c10.8,0.1,21.3,3.3,30.3,9.1l3.9-9.3c-4.8-3.2-10.1-5.7-15.7-7.2c-6-1.7-12.3-2.6-18.5-2.6c-7.8-0.2-15.5,1.1-22.7,4.1
			c-5.5,2.2-10.2,6.1-13.5,11c-2.9,4.5-4.5,9.8-4.4,15.2c-0.3,5.9,1.5,11.7,5.3,16.3c3.5,3.9,7.8,7,12.7,8.9
			c6.5,2.4,13.1,4.5,19.9,6.1c5.5,1.3,10.9,2.8,16.3,4.6c3.7,1.3,7,3.4,9.9,6.1c2.8,2.8,4.3,6.6,4.1,10.5c0.1,5.7-2.7,11-7.4,14.1
			c-4.9,3.6-12.4,5.4-22.2,5.4c-7,0-13.9-1.2-20.5-3.7c-5.9-2-11.4-5.4-15.9-9.7l-4.5,9c4.9,4.8,10.9,8.4,17.4,10.4
			c7.6,2.6,15.5,3.9,23.6,3.8c7.8,0.2,15.6-1.2,22.9-4.1c5.6-2.2,10.4-6,13.8-10.9c3-4.5,4.5-9.8,4.5-15.2
			C1617.7,1073.8,1615.9,1068.1,1612.2,1063.6z"/>
		<path class="st2" d="M375.6,808.4v102c-4.4-3.3-8.9-6.8-13.2-10.2c-14.5-11.4-29.5-23.1-46.4-31.5c-4.3-2.2-8.8-4.1-13.4-5.7
			v-54.7H375.6z"/>
		<path class="st1" d="M375.6,920.6v132.9c-9.6,1.2-19.5,2.3-29.6,3.3c-14.4,1.7-29,2.2-43.5,1.3V871.8c3.3,1.3,6.6,2.7,9.8,4.3
			c16.2,8,30.8,19.5,45,30.5c4.5,3.5,9.2,7.2,13.8,10.7C372.6,918.4,374.1,919.5,375.6,920.6z"/>
		<path class="st3" d="M346.8,1065c9-0.9,18.6-1.9,28.8-3.1v49.8h-73.1v-45.4c4.3,0.3,8.6,0.5,12.9,0.5
			C326.1,1066.7,336.7,1065.9,346.8,1065z"/>
		<path class="st2" d="M485.2,808.4v174.9c-7.1-4.4-14.1-8.9-20.9-13.4L422,942.3l-9.9-6.5V808.4H485.2z"/>
		<path class="st1" d="M485.2,992.9v40.1c-24.1,6.3-48.5,11.4-73.1,15.3V945.6l5.5,3.6l42.2,27.6
			C468.1,982.1,476.5,987.7,485.2,992.9z"/>
		<path class="st3" d="M412.1,1056.6c23.1-3.7,47.8-8.6,73.1-15.2v70.1h-73.1V1056.6z"/>
		<path class="st2" d="M594.8,808.4v180.2c-0.7,0.7-1.5,1.4-2.2,2c-3.4,2.6-7.1,4.9-11.1,6.7c-10.5,5.2-21.3,10.1-32.6,14.6
			c-9.2-2.6-18.3-5.7-27.2-9.4V808.4H594.8z"/>
		<path class="st1" d="M536.5,1016.7c-4.9,1.8-9.8,3.6-14.8,5.3v-10.7C526.6,1013.3,531.5,1015.1,536.5,1016.7z"/>
		<path class="st3" d="M594.8,1028.3v83.3h-73.1v-81.1c9.2-3.1,18.4-6.4,27.6-10C564.2,1024.5,579.4,1027.1,594.8,1028.3z"/>
		<path class="st1" d="M594.8,999.2v21c-11-0.9-21.8-2.5-32.6-4.8c7.7-3.3,15.4-6.8,22.9-10.6
			C588.4,1003.1,591.7,1001.3,594.8,999.2z"/>
	</g>
</g>
</svg>
