<?xml version="1.0" encoding="utf-8"?>
<!-- Generator: Adobe Illustrator 24.1.0, SVG Export Plug-In . SVG Version: 6.00 Build 0)  -->
<svg version="1.1" id="Layer_1" xmlns="http://www.w3.org/2000/svg" xmlns:xlink="http://www.w3.org/1999/xlink" x="0px" y="0px"
	 viewBox="0 0 1920 1920" style="enable-background:new 0 0 1920 1920;" xml:space="preserve">
<style type="text/css">
	.st0{fill:#F1F2F2;}
	.st1{fill:#404041;}
	.st2{fill:#70BE56;}
	.st3{fill:#00B3B7;}
	.st4{fill:#6D2F7C;}
</style>
<g>
	<rect class="st0" width="1920" height="1920"/>
	<g>
		<g>
			<path class="st1" d="M420.1,1235.2l0,76.1h-15.9v-30.1h-29.3v30.1H359l0-76.1h15.9v30.1h29.3v-30.1H420.1z"/>
			<path class="st1" d="M517.3,1273.3c0,21.1-15.5,38.2-34.6,38.2c-19.1,0-34.6-17.1-34.6-38.2c0-21.1,15.5-38.2,34.6-38.2
				C501.8,1235.1,517.3,1252.3,517.3,1273.3z M501.4,1273.3c0-12.3-8.4-22.3-18.7-22.3s-18.7,10-18.7,22.3s8.4,22.3,18.7,22.3
				S501.4,1285.6,501.4,1273.3z"/>
			<path class="st1" d="M597.9,1302.6c-5.3,5.8-12.9,8.8-22.6,8.8c-0.1,0-0.3,0-0.4,0c-10-0.1-17.7-3.2-22.9-9.2
				c-7-8-6.7-18-6.5-20.7v-46.2h15.9l-0.1,47.5c0,0-0.5,5.4,2.7,8.9c2.2,2.4,5.9,3.6,11.1,3.7c5.2,0.1,8.9-1.1,11.1-3.5
				c3.3-3.6,2.9-9.3,2.9-9.3l0-47.3h15.9v46.3C605.1,1284.1,605.3,1294.5,597.9,1302.6z"/>
			<path class="st1" d="M695.9,1291.1c0,6.5-3.7,12.1-10.4,15.8c-5.4,2.9-12.6,4.4-19.8,4.4c-8.1,0-16.2-1.8-22.2-5.4
				c-6.7-4-10.4-10-10.5-16.9h15.9c8.7,12.5,31,8,30.8,1.1c-0.2-5.1-10.3-7.4-17.6-8.9c-17.4-3.3-25.7-16.4-24.7-27.1
				c0.8-8.7,8.2-18.8,26.1-18.8c27,0,30.9,17,31,17.8l-15.6,3.1c0,0-2.4-5.3-15.4-5.3c-4.7,0-10.1,2-10.2,6.7
				c-0.1,4.3,3.2,6.8,11.8,8.4C668.4,1266.6,695.9,1272.4,695.9,1291.1z"/>
			<path class="st1" d="M795.5,1294.8c-3.4,7.5-11.5,13.2-22.4,15.6c-3.8,0.8-7.6,1.2-11.3,1.2c-10,0-19.4-2.9-25.6-8.3
				c-11.5-9.9-15.6-28.6-9.7-44.5c5.5-14.9,18.2-23.7,34-23.7c10.5,0,19,3.3,25.2,9.8c10.4,11,9.8,26.6,9.7,28.3l-0.4,7.5h-54.5
				c1,4.3,3.1,8.1,6.1,10.6c4.7,4,14.4,5.5,23.1,3.6c5.6-1.3,10.1-3.9,11.3-6.6L795.5,1294.8z M741.3,1264.9h37.5
				c-0.7-3-2.1-6.5-4.6-9.1c-3.1-3.2-7.5-4.8-13.5-4.8c-12.3,0-17.3,8.4-19.1,13.4C741.5,1264.5,741.4,1264.7,741.3,1264.9z"/>
			<path class="st1" d="M893.9,1251.2v14.8h25.3v15.9h-25.3v29.5h-15.8v-76h57.7v15.8H893.9z"/>
			<path class="st1" d="M1034.7,1235.2v76.1h-15.9v-7.6c-5.7,4.5-12.7,7.1-20.3,7.1c-19.1,0-34.6-16.8-34.6-37.4
				s15.5-37.4,34.6-37.4c7.6,0,14.6,2.7,20.3,7.1v-7.9H1034.7z M1017.2,1273.4c0-11.9-8.4-21.6-18.7-21.6
				c-10.3,0-18.7,9.7-18.7,21.6c0,11.9,8.4,21.6,18.7,21.6C1008.8,1295,1017.2,1285.3,1017.2,1273.4z"/>
			<path class="st1" d="M1129.2,1293.1c-6.6,11.5-18,18.3-30.6,18.3c-19.8,0-35.8-17.1-35.8-38.2s16.1-38.2,35.8-38.2
				c11.8,0,22.8,6.2,29.5,16.5l-13.5,8.7c-3.7-5.7-9.7-9.2-16-9.2c-10.9,0-19.8,10-19.8,22.2c0,12.2,8.9,22.2,19.8,22.2
				c6.8,0,13-3.8,16.7-10.3L1129.2,1293.1z"/>
			<path class="st1" d="M1218.7,1235.2v15.8H1196v60.3H1180V1251h-22.8v-15.8H1218.7z"/>
			<path class="st1" d="M1246.8,1311.4v-76.1h15.9v76.1H1246.8z"/>
			<path class="st1" d="M1360,1273.3c0,21.1-15.5,38.2-34.6,38.2c-19.1,0-34.6-17.1-34.6-38.2c0-21.1,15.5-38.2,34.6-38.2
				C1344.5,1235.1,1360,1252.3,1360,1273.3z M1344.1,1273.3c0-12.3-8.4-22.3-18.7-22.3s-18.7,10-18.7,22.3s8.4,22.3,18.7,22.3
				S1344.1,1285.6,1344.1,1273.3z"/>
			<path class="st1" d="M1453.2,1235.5v76.2l-6.5-0.1l-42.8-54.3v54.4h-15.9V1235h18l31.3,37v-36.5H1453.2z"/>
			<path class="st1" d="M1544.1,1291.1c0,6.5-3.7,12.1-10.4,15.8c-5.4,2.9-12.6,4.4-19.8,4.4c-8.1,0-16.2-1.8-22.2-5.4
				c-6.7-4-10.4-10-10.5-16.9h15.9c8.7,12.5,31,8,30.8,1.1c-0.2-5.1-10.3-7.4-17.6-8.9c-17.4-3.3-25.7-16.4-24.7-27.1
				c0.8-8.7,8.2-18.8,26.1-18.8c27,0,30.9,17,31,17.8l-15.6,3.1c0,0-2.4-5.3-15.4-5.3c-4.7,0-10.1,2-10.2,6.7
				c-0.1,4.3,3.2,6.8,11.8,8.4C1516.6,1266.6,1544.1,1272.4,1544.1,1291.1z"/>
		</g>
		<g>
			<polygon class="st2" points="1345.1,671.4 1368.2,775 1264.4,798 1287.4,901.5 1183.6,924.5 1206.7,1028 1102.9,1051 
				1033.7,740.5 			"/>
			<polygon class="st3" points="1019,708.8 1024.2,1026.9 917.8,1028.6 916.1,922.6 809.8,924.3 811.5,1030.3 705.2,1032.1 700,714 
				806.3,712.2 808,818.3 914.4,816.5 912.6,710.5 			"/>
			<g>
				<g>
					<path class="st4" d="M558.2,901.9l106-423.8c0.9-3.7,4.6-5.9,8.3-5l30.4,7.6c3.7,0.9,5.9,4.6,5,8.3l-106,423.8
						c-0.9,3.7-4.6,5.9-8.3,5l-30.4-7.6C559.5,909.3,557.3,905.6,558.2,901.9z"/>
					<path class="st4" d="M559.7,990.2l34.9-52.6c0.4-0.6,0.1-1.4-0.6-1.5l-40.9-10.2c-0.7-0.2-1.3,0.4-1.2,1.1l6,62.8
						C557.9,990.7,559.2,991,559.7,990.2z"/>
					<path class="st4" d="M672.3,454.8c-1.2-0.3-2-1.5-1.7-2.8l2.2-8.9c2.5-9.8,14.2-15.4,26.3-12.4c12,3,19.8,13.4,17.4,23.2
						l-2.2,8.9c-0.3,1.2-1.5,2-2.8,1.7L672.3,454.8z"/>
				</g>
				<path class="st4" d="M966.2,659.1L734.9,492.5c-3.9-2.8-9.5-0.8-10.7,3.9l-35.7,142.4c-1.2,4.7,2.8,9.1,7.6,8.4l267,24.2
					C969.2,670.6,971.2,662.7,966.2,659.1z"/>
			</g>
		</g>
	</g>
</g>
</svg>
