<svg id="Layer_1" data-name="Layer 1" xmlns="http://www.w3.org/2000/svg" viewBox="0 0 250 250"><defs><style>.cls-1{fill:#58595b;}.cls-2{fill:#6d6e71;}</style></defs><title>Gray_Confetti_Pattern</title><g id="_3" data-name="3"><rect class="cls-1" width="250" height="250"/><path class="cls-2" d="M88.27,84.78c5.21-.09,10-.64,15.22-.72.33-4.65.25-10.55.58-15.2l-14.29-.29C89.45,73.82,88.6,79.52,88.27,84.78Z"/><path class="cls-2" d="M0,158.22v6.36c1.24-1.08,2.45-2.17,3.6-3.26C2.41,160.24,1.2,159.22,0,158.22Z"/><path class="cls-2" d="M231.19,162.19l10.26,10c2.67-2.53,5.68-5.05,8.55-7.57v-6.36c-2.67-2.23-5.35-4.34-8-6.75C238.57,154.65,234.61,159,231.19,162.19Z"/><path class="cls-2" d="M196.15,16.17c3.41,3.94,6.93,7.27,10.33,11.2,3.78-2.74,8.24-6.59,12-9.32l-9-11.14C205.3,10,200.39,13.05,196.15,16.17Z"/><path class="cls-2" d="M144,67.59c-.18-5.2-.81-10-1-15.2-4.65-.25-10.55-.07-15.2-.32q0,7.16,0,14.29C133,66.6,138.75,67.35,144,67.59Z"/><path class="cls-2" d="M48.39,244.11c5.2,0,10-.46,15.22-.46.42-4.64.43-10.54.85-15.18l-14.28-.55C49.75,233.17,48.81,238.86,48.39,244.11Z"/><path class="cls-2" d="M131.41,166.8c-3.06,4.2-5.52,8.38-8.58,12.58,3.51,3.07,8.27,6.55,11.79,9.61l8.83-11.23C139.46,174.33,135.41,170.22,131.41,166.8Z"/><path class="cls-2" d="M102.41,211.8c-3.06,4.2-5.52,8.38-8.58,12.58,3.51,3.07,8.27,6.55,11.79,9.61l8.83-11.23C110.46,219.33,106.41,215.22,102.41,211.8Z"/><path class="cls-2" d="M28.82,162.71c4.82,1.95,9.47,3.32,14.29,5.28,2.12-4.15,4.35-9.61,6.47-13.76l-13-5.86C34.18,153.08,31.18,158,28.82,162.71Z"/><path class="cls-2" d="M98,134c.1-5.2-.29-10-.19-15.23-4.64-.49-10.53-.61-15.17-1.11q-.39,7.14-.79,14.27C87.07,132.45,92.74,133.49,98,134Z"/><path class="cls-2" d="M59.33,83.26c5.09-1.08,9.9-1.63,15-2.72,1.37,4.46,2.61,10.22,4,14.68l-13.86,3.5C62.94,93.68,60.84,88.31,59.33,83.26Z"/><path class="cls-2" d="M40.43,26.67c2.45,4.59,4.3,9.06,6.74,13.65-3.9,2.55-9.1,5.34-13,7.88L27,35.85C31.41,33,36,29.51,40.43,26.67Z"/><path class="cls-2" d="M84.28,161.88c-1.53-5-2.49-9.72-4-14.7,4.32-1.75,10-3.49,14.28-5.25l4.69,13.5C94.34,157.37,89.17,159.94,84.28,161.88Z"/><path class="cls-2" d="M38.24,191.36c-.64,5.16-.77,10-1.41,15.17,4.56,1,10.41,1.71,15,2.69l2.28-14.11C48.93,194.05,43.39,192.42,38.24,191.36Z"/><path class="cls-2" d="M2,96.58c.45-5.18,1.33-9.94,1.78-15.12,4.66,0,10.54.48,15.2.47q-.36,7.14-.71,14.28C13,96.18,7.22,96.62,2,96.58Z"/><path class="cls-2" d="M0,197.92v5.6c.52-1.68,1-3.35,1.55-5Z"/><path class="cls-2" d="M232.89,207.4c4.37,1.6,10.07,3.14,14.44,4.75l2.67-8.63v-5.6c-4.49-1.69-9.17-3.76-13.61-5.35C235,197.6,234.24,202.37,232.89,207.4Z"/><path class="cls-2" d="M164.49,126.92c5-1.26,9.83-2,14.88-3.24,1.53,4.41,3,10.13,4.5,14.53l-13.73,4C168.46,137.2,166.17,131.91,164.49,126.92Z"/><path class="cls-2" d="M65.54,113.5c-4.79-2-9.41-3.49-14.19-5.53-2.2,4.11-4.52,9.53-6.72,13.64l12.94,6.08C60,123,63.1,118.16,65.54,113.5Z"/><path class="cls-2" d="M25.71,152.29c-3.61-3.74-7.29-6.88-10.9-10.63-3.63,2.93-7.89,7-11.51,9.94l9.53,10.65C16.9,158.91,21.64,155.63,25.71,152.29Z"/><path class="cls-2" d="M247.28,70.29c-9,1.63-18.95,4-28,5.61.51,3.66,1.59,7.27,2.1,10.92l27.3-5.93C248.3,77.05,247.68,74.13,247.28,70.29Z"/><path class="cls-2" d="M186.2,3.84c-.63,5.17-1.68,9.89-2.31,15.06-4.66-.15-10.52-.86-15.18-1q.6-7.12,1.21-14.24C175.17,3.87,180.94,3.62,186.2,3.84Z"/><path class="cls-2" d="M116.48,31.66c5.17.64,10,.76,15.17,1.4,1-4.56,1.71-10.41,2.69-15l-14.11-2.28C119.17,21,117.54,26.51,116.48,31.66Z"/><path class="cls-2" d="M63.48,41.66c5.17.64,10,.76,15.17,1.4,1-4.56,1.71-10.41,2.69-15L67.23,25.82C66.17,31,64.54,36.51,63.48,41.66Z"/><path class="cls-2" d="M162.18,158.49c-3.62,3.73-6.63,7.53-10.25,11.26,3,3.53,7.28,7.64,10.33,11.16L172.58,171C169.1,167.07,165.66,162.43,162.18,158.49Z"/><path class="cls-2" d="M218.18,208.49c-3.62,3.73-6.63,7.53-10.25,11.26,3,3.53,7.28,7.64,10.33,11.16L228.58,221C225.1,217.07,221.66,212.43,218.18,208.49Z"/><path class="cls-2" d="M150.18,80.49c-3.62,3.73-6.63,7.53-10.25,11.26,3,3.53,7.28,7.64,10.33,11.16L160.58,93C157.1,89.07,153.66,84.43,150.18,80.49Z"/><path class="cls-2" d="M197.65,192.48c-4.86,1.87-9.52,3.16-14.38,5-2.05-4.19-4.18-9.69-6.23-13.87L190.18,178C192.45,182.76,195.37,187.73,197.65,192.48Z"/><path class="cls-2" d="M200,114.32c3.49,3.86,6.36,7.76,9.85,11.62-3.17,3.42-7.54,7.37-10.72,10.79l-10-10.25C192.74,122.65,196.34,118.15,200,114.32Z"/><path class="cls-2" d="M168,222.32c3.49,3.86,6.36,7.76,9.85,11.62-3.17,3.42-7.54,7.37-10.72,10.79l-10-10.25C160.74,230.65,164.34,226.15,168,222.32Z"/><path class="cls-2" d="M141.58,0H134.1c.09.63.16,1.28.25,1.9C136.84,1.33,139.21.66,141.58,0Z"/><path class="cls-2" d="M146.49,233l-14,2.69c.68,4.59,1.05,9.58,1.65,14.27h7.48c2.46-.69,4.92-1.38,7.5-2C148.44,243.41,147.13,237.66,146.49,233Z"/><path class="cls-2" d="M14.61,39.4c3.62-3.74,6.63-7.53,10.25-11.26C21.81,24.61,17.58,20.5,14.52,17L4.21,26.87C7.69,30.82,11.13,35.45,14.61,39.4Z"/><path class="cls-2" d="M231.58,19.73c-3.66-6.34-7.44-12-11.11-18.39L247.53.27C242.53,6.08,236.57,13.92,231.58,19.73Z"/><path class="cls-2" d="M209.92,66.26c-.26,7.32-.08,14.16-.33,21.48L186.08,74.31C193.4,72,202.6,68.54,209.92,66.26Z"/><path class="cls-2" d="M87.57,0H78.36C80.18,1.73,82,3.47,84,5.17,85.18,3.53,86.38,1.77,87.57,0Z"/><path class="cls-2" d="M82.09,232.83c-2.73,3.77-6.59,8.23-9.32,12,2,1.7,3.78,3.43,5.59,5.16h9.21c1.88-2.78,3.75-5.62,5.66-8.21Z"/><path class="cls-2" d="M153,148.66c-4.36-2.84-8.66-5.07-13-7.91-2.88,3.66-6.1,8.6-9,12.27l11.68,8.23C145.9,157.08,149.79,152.83,153,148.66Z"/><path class="cls-2" d="M18.63,201.7c.13,9.18-.29,19.36-.17,28.54-3.68.2-7.44-.18-11.12,0q.31-14,.62-27.93C11.8,202,14.79,202,18.63,201.7Z"/><path class="cls-2" d="M112.85,78.7c7-2.27,13.33-4.78,20.3-7Q130.86,85,128.57,98.34C123.92,92.25,117.5,84.79,112.85,78.7Z"/><path class="cls-2" d="M102.69,13.78c-7.27.89-14.11,1.3-21.38,2.19L96.74,38.22C98.38,30.74,101.05,21.26,102.69,13.78Z"/><path class="cls-2" d="M181.69,216.72c4.86,1.87,9.53,3.16,14.38,5,2.05-4.19,4.18-9.69,6.24-13.87l-13.15-5.63C186.89,207,184,212,181.69,216.72Z"/><path class="cls-2" d="M225.69,104.72c4.86,1.87,9.53,3.16,14.38,5,2.05-4.19,4.18-9.69,6.24-13.87l-13.15-5.63C230.89,95,228,100,225.69,104.72Z"/><path class="cls-2" d="M133.91,223c-4.72-5.6-9.43-10.57-14.14-16.18L146.23,201C142.32,207.62,137.81,216.38,133.91,223Z"/><path class="cls-2" d="M96.17,57.7c1.52-5,3.37-9.45,4.89-14.42,4.56,1,10.21,2.67,14.77,3.62l-3.66,13.82C107,59.59,101.31,58.83,96.17,57.7Z"/><path class="cls-2" d="M166.27,91c7.31.51,14.15.57,21.46,1.08q-7.12,11.5-14.24,23C171.46,107.66,168.3,98.34,166.27,91Z"/><path class="cls-2" d="M215.27,130c7.31.51,14.15.57,21.46,1.08q-7.12,11.5-14.24,23C220.46,146.66,217.3,137.34,215.27,130Z"/><path class="cls-2" d="M231.63,225.51c-1.09,5.09-1.63,9.9-2.72,15,4.46,1.37,10.22,2.61,14.68,4q1.75-6.93,3.5-13.86C242.05,229.12,236.67,227,231.63,225.51Z"/><path class="cls-2" d="M198.73,32.11c-1.43,5-3.2,9.51-4.63,14.51-4.58-.88-10.25-2.48-14.83-3.36q1.71-6.94,3.41-13.88C187.84,30.41,193.57,31.08,198.73,32.11Z"/><path class="cls-2" d="M137.73,105.11c-1.43,5-3.2,9.51-4.63,14.51-4.58-.88-10.25-2.48-14.83-3.36q1.71-6.95,3.41-13.88C126.84,103.41,132.57,104.08,137.73,105.11Z"/><path class="cls-2" d="M166.55,58.31c.45,5.18.41,10,.87,15.21-4.59.82-10.46,1.35-15,2.17q-.9-7.09-1.79-14.18C155.77,60.63,161.36,59.19,166.55,58.31Z"/><path class="cls-2" d="M28.08,98.74c.26-7.32.08-14.16.33-21.48L51.92,90.69C44.6,93,35.4,96.46,28.08,98.74Z"/><path class="cls-2" d="M156.28,213.11c7.3-.64,14.14-.81,21.44-1.45q-7.32-11.39-14.65-22.77C161.18,196.31,158.18,205.69,156.28,213.11Z"/><path class="cls-2" d="M207.28,201.11c7.3-.64,14.14-.81,21.44-1.45q-7.32-11.39-14.65-22.77C212.18,184.31,209.18,193.69,207.28,201.11Z"/><path class="cls-2" d="M65.07,199.85c8.37,3.76,17.42,8.45,25.79,12.22-1.38,3.42-3.3,6.66-4.68,10.08l-25-12.36C62.45,206.16,63.75,203.48,65.07,199.85Z"/><path class="cls-2" d="M119.41,197.37C115.75,191,112.7,184.9,109,178.55l-14.45,22.9C102.12,200,111.88,198.79,119.41,197.37Z"/><path class="cls-2" d="M218.67,112.39c-8.61-3.17-18-7.22-26.58-10.39,1.14-3.51,2.83-6.88,4-10.39l25.85,10.59C220.85,105.91,219.74,108.68,218.67,112.39Z"/><path class="cls-2" d="M3.27,45c7.31.51,14.15.57,21.46,1.08q-7.12,11.51-14.24,23C8.46,61.66,5.3,52.34,3.27,45Z"/><path class="cls-2" d="M35.29,175.56c-4,6.15-7.36,12.11-11.35,18.25L10.71,170.19C18.16,172,27.84,173.75,35.29,175.56Z"/><path class="cls-2" d="M43.68,238.48c-7.31-.42-14.16-.39-21.47-.81l14-23.2C38.28,221.84,41.56,231.12,43.68,238.48Z"/><path class="cls-2" d="M105.21,100.93C101.48,97.31,97.68,94.3,94,90.68c-3.53,3-7.64,7.28-11.16,10.33l9.89,10.31C96.63,107.84,101.26,104.4,105.21,100.93Z"/><path class="cls-2" d="M170.21,42.93c-3.73-3.62-7.53-6.63-11.26-10.25-3.53,3-7.64,7.28-11.16,10.33l9.89,10.31C161.63,49.84,166.26,46.4,170.21,42.93Z"/><path class="cls-2" d="M188.2,228.26c.12,7.32-.18,14.16,0,21.48l23.73-13C204.61,234.31,195.47,230.67,188.2,228.26Z"/><path class="cls-2" d="M75.78,131.8c-2.72,8.77-6.27,18.33-9,27.09-3.56-.95-7-2.46-10.58-3.42l9.21-26.36C69.2,130,72,130.94,75.78,131.8Z"/><path class="cls-2" d="M109.37,121.83c.52,9.17,1.65,19.3,2.17,28.46,3.68-.06,7.4-.69,11.09-.76l-2.57-27.81C116.21,121.65,113.23,121.9,109.37,121.83Z"/><path class="cls-2" d="M106.16,158.66c-7.36,5.48-15.18,12-22.54,17.5,2.08,3,4.66,5.79,6.75,8.83l21.78-17.48C110.08,164.26,108.23,161.92,106.16,158.66Z"/><path class="cls-2" d="M61.87,59.58c6.14-4,11.64-8.07,17.78-12.06q1.25,13.48,2.48,27C76.07,69.8,67.93,64.26,61.87,59.58Z"/><path class="cls-2" d="M46.27,172.29C53.43,178,61.71,184,68.87,189.73c2.42-2.78,4.44-6,6.86-8.75L53.34,164.27C50.71,167.09,48.91,169.47,46.27,172.29Z"/><path class="cls-2" d="M30.27,61.29C37.43,67,45.71,73,52.87,78.73c2.42-2.78,4.44-6,6.86-8.75L37.34,53.27C34.71,56.09,32.91,58.47,30.27,61.29Z"/><path class="cls-2" d="M9,104.27l-9,5.55v12.92c3.5,1.09,7,2.14,10.05,3C9.54,118.42,9.48,111.58,9,104.27Z"/><path class="cls-2" d="M250,122.74V109.82L236,118.51C240.24,119.69,245.17,121.25,250,122.74Z"/><path class="cls-2" d="M61.73,8c-7.31.51-14.15.57-21.46,1.08q7.13,11.5,14.24,23C56.54,24.66,59.7,15.34,61.73,8Z"/><path class="cls-2" d="M229,169c-6.07-6.88-13.23-14.14-19.3-21-2.86,2.33-5.39,5.12-8.24,7.45q9.6,10.14,19.21,20.27C223.7,173.37,225.88,171.34,229,169Z"/><path class="cls-2" d="M244.57,53.16c-.48-9.16-1.56-19.3-2-28.47-3.68,0-7.41.67-11.09.71q1.22,13.92,2.44,27.83C237.74,53.31,240.71,53.07,244.57,53.16Z"/><path class="cls-2" d="M153.73,108.61c-6.23,6.74-12.73,14.59-19,21.33,2.61,2.6,5.65,4.84,8.25,7.45l18.23-21.17C158.61,113.4,156.36,111.44,153.73,108.61Z"/><path class="cls-2" d="M14.61,133.73c6.74-6.23,14.59-12.73,21.33-19,2.6,2.61,4.84,5.65,7.45,8.25L22.22,141.24C19.4,138.61,17.44,136.36,14.61,133.73Z"/><path class="cls-2" d="M221.73,34.78c2.34,8.87,4.4,18.86,6.74,27.73-3.53,1.08-7.26,1.63-10.78,2.71Q214.6,51.6,211.53,38C215.18,36.72,218.08,36,221.73,34.78Z"/><path class="cls-2" d="M206.77,65.05c-9.13,1-19.31,1.45-28.44,2.4-.52-3.65-.49-7.42-1-11.07l27.86-1.9C205.87,58.28,206.09,61.25,206.77,65.05Z"/><path class="cls-2" d="M164.5,24.28c-3.32-6.53-6.05-12.81-9.37-19.33L139.5,27.05C147.09,26,156.91,25.3,164.5,24.28Z"/><path class="cls-2" d="M178.28,171.11c7.3-.64,14.14-.81,21.44-1.45q-7.32-11.39-14.65-22.77C183.18,154.31,180.18,163.69,178.28,171.11Z"/><path class="cls-2" d="M121,0h-12.7c4.11,2.51,8.11,5.05,12.4,7.53Z"/><path class="cls-2" d="M102.27,246.42c2,1.18,4,2.38,6,3.58H121q.39-9.76.77-19.53C115.92,235.47,108.08,241.43,102.27,246.42Z"/><path class="cls-2" d="M10.09,13.81c4.83-2,9.47-3.33,14.29-5.28-1.4-2.8-3-5.67-4.62-8.53h-16l-.1.05C5.74,4.2,8,9.66,10.09,13.81Z"/></g></svg>