<svg id="Layer_1" data-name="Layer 1" xmlns="http://www.w3.org/2000/svg" viewBox="0 0 250 250"><defs><style>.cls-1{fill:#a63618;}.cls-2{fill:#db4926;}</style></defs><title>Orange_Shapes_Pattern</title><g id="_13" data-name="13"><rect class="cls-1" width="250" height="250"/><path class="cls-2" d="M250,41V39.15A5.8,5.8,0,0,0,250,41Z"/><path class="cls-2" d="M58.35,78.69a2.59,2.59,0,0,1,.25-1.35,14.83,14.83,0,0,1,1-2,8.31,8.31,0,0,1,1.09-1.66.43.43,0,0,0,0-.11,1.3,1.3,0,0,1,2.47-.1,15.5,15.5,0,0,1,2.09,3.44c.71,1.26,1.79,2.59,1.67,4.09a.2.2,0,0,1-.13.18.89.89,0,0,1-.33.63c-1.75,1.39-5.67,1.55-7.63.51C57.6,81.62,57.81,80.09,58.35,78.69Z"/><path class="cls-2" d="M156.41,93.49C153.33,92.42,150,91,146.9,90c.38-1.25,1-2.46,1.35-3.72l9.24,3.6C157.14,91.18,156.76,92.17,156.41,93.49Z"/><path class="cls-2" d="M95.1,187.44c-1.18-3-2.68-6.34-3.86-9.37-1.24.42-2.42,1-3.66,1.47q2,4.56,3.92,9.11C92.81,188.25,93.79,187.84,95.1,187.44Z"/><path class="cls-2" d="M220.74,145.14a5.42,5.42,0,0,0,2.8,6.05A5.29,5.29,0,0,0,230,149.5C234.46,142.94,222.78,137.12,220.74,145.14Z"/><path class="cls-2" d="M160.93,240.93a2.41,2.41,0,0,0-1.33.3,14.12,14.12,0,0,0-2,1.06,8.51,8.51,0,0,0-1.63,1.15l-.11,0a1.29,1.29,0,0,0,0,2.46,15.2,15.2,0,0,0,3.52,2c1.27.67,2.64,1.7,4.14,1.53a.22.22,0,0,0,.17-.14.84.84,0,0,0,.62-.35c1.32-1.79,1.36-5.71.24-7.64C163.84,240.07,162.32,240.34,160.93,240.93Z"/><path class="cls-2" d="M7.94,129.14a2.47,2.47,0,0,1-.67-1.2,13.62,13.62,0,0,1-.55-2.2,8.19,8.19,0,0,1-.23-2,.31.31,0,0,1,0-.1A1.29,1.29,0,0,1,8.25,122a15.26,15.26,0,0,1,3.82,1.3c1.35.5,3,.83,3.91,2a.2.2,0,0,1,0,.22.91.91,0,0,1,.16.7c-.45,2.18-3.34,4.83-5.52,5.29C9.25,131.87,8.43,130.56,7.94,129.14Z"/><path class="cls-2" d="M9.84,198.28a5.42,5.42,0,0,0,3.52,5.66,5.28,5.28,0,0,0,6.16-2.47C23.19,194.42,10.89,190.07,9.84,198.28Z"/><path class="cls-2" d="M21.24,66.5a2.55,2.55,0,0,0-1.34.32,15.88,15.88,0,0,0-2,1.1,8.23,8.23,0,0,0-1.6,1.18l-.11,0a1.29,1.29,0,0,0,0,2.46,15.46,15.46,0,0,0,3.56,1.91c1.29.64,2.67,1.66,4.17,1.46a.19.19,0,0,0,.16-.15.84.84,0,0,0,.62-.35c1.29-1.82,1.25-5.74.11-7.65C24.12,65.59,22.61,65.89,21.24,66.5Z"/><path class="cls-2" d="M135.58,111.72c-1.86,2.68-3.76,5.76-5.62,8.44,1,.79,2.22,1.42,3.27,2.21q2.69-4.17,5.36-8.35C137.53,113.16,136.64,112.58,135.58,111.72Z"/><path class="cls-2" d="M215.43,84.91c1.12,3.06,2.56,6.39,3.69,9.45,1.24-.41,2.44-1,3.69-1.41q-1.89-4.59-3.76-9.19C217.73,84.14,216.75,84.54,215.43,84.91Z"/><path class="cls-2" d="M236,87.38a5.43,5.43,0,0,1,3.84,5.46,5.29,5.29,0,0,1-4.68,4.7C227.18,98.17,228,85.14,236,87.38Z"/><path class="cls-2" d="M224.53,43.36a5.41,5.41,0,0,1-6.62.7,5.29,5.29,0,0,1-1.86-6.37C219.35,30.46,230.36,37.47,224.53,43.36Z"/><path class="cls-2" d="M13.2,86.06a5.42,5.42,0,0,1,5.1-4.29A5.28,5.28,0,0,1,23.4,86C24.71,93.86,11.66,94.2,13.2,86.06Z"/><path class="cls-2" d="M224.69,111.84c-2.49,2.1-5.12,4.59-7.61,6.7.8,1,1.78,1.95,2.58,3l7.35-6.67C226.2,113.74,225.49,113,224.69,111.84Z"/><path class="cls-2" d="M77.7,69.81a6.24,6.24,0,0,0-5.81,5,6.09,6.09,0,0,0,3.92,6.58C84.51,84.33,87.25,69.53,77.7,69.81Z"/><path class="cls-2" d="M132.64,65.33a5.42,5.42,0,0,1,6.05,2.8,5.28,5.28,0,0,1-1.7,6.42C130.44,79.05,124.62,67.37,132.64,65.33Z"/><path class="cls-2" d="M202.74,168.43c.27,3.24.38,6.87.65,10.11-1.3.16-2.64.13-3.94.29l-.47-9.92C200.33,168.7,201.39,168.64,202.74,168.43Z"/><path class="cls-2" d="M76.15,202.37a5.42,5.42,0,0,0,5.4-3.9,5.29,5.29,0,0,0-2.89-6C71.37,189.32,67.88,201.9,76.15,202.37Z"/><path class="cls-2" d="M40,154a2.86,2.86,0,0,1-1.32-.87,16.17,16.17,0,0,1-1.72-2,9.39,9.39,0,0,1-1.27-1.9l-.11-.08a1.49,1.49,0,0,1,1-2.66,18,18,0,0,1,4.61-.67c1.65-.19,3.55-.74,5.09.06a.26.26,0,0,1,.13.23,1,1,0,0,1,.53.63c.68,2.49-.91,6.72-2.91,8.34C42.72,156.16,41.19,155.24,40,154Z"/><path class="cls-2" d="M125.74,34.34c-2.87-1.54-6-3.43-8.83-5,.57-1.18,1.33-2.28,1.91-3.46l8.56,5C126.83,32.17,126.3,33.09,125.74,34.34Z"/><path class="cls-2" d="M179.72,157.89c-4.26.28-9,.33-13.25.61-.18-1.7-.1-3.45-.28-5.16l13-.39C179.41,154.73,179.47,156.11,179.72,157.89Z"/><path class="cls-2" d="M124.53,144.87a5.4,5.4,0,0,0,4.7,4.72,5.28,5.28,0,0,0,5.45-3.79C136.67,138.1,123.7,136.63,124.53,144.87Z"/><path class="cls-2" d="M120,124.16a2.43,2.43,0,0,0,1.37,0,13.89,13.89,0,0,0,2.19-.59,8.59,8.59,0,0,0,1.84-.75h.11a1.29,1.29,0,0,0,.57-2.4,15.35,15.35,0,0,0-3-2.71c-1.1-.94-2.2-2.25-3.69-2.43a.2.2,0,0,0-.2.11.92.92,0,0,0-.69.19c-1.69,1.46-2.6,5.27-2,7.4C117,124.34,118.53,124.42,120,124.16Z"/><path class="cls-2" d="M160.73,85.26a2.47,2.47,0,0,0,.39,1.31,14.68,14.68,0,0,0,1.2,1.92A8.11,8.11,0,0,0,163.58,90a.49.49,0,0,0,0,.11,1.28,1.28,0,0,0,2.45-.16,15.35,15.35,0,0,0,1.72-3.64c.58-1.32,1.52-2.76,1.24-4.24a.19.19,0,0,0-.15-.16.87.87,0,0,0-.39-.6c-1.89-1.19-5.8-1-7.65.29C159.67,82.42,160,83.91,160.73,85.26Z"/><path class="cls-2" d="M249.06,111.28s0,.07,0,.11a8.21,8.21,0,0,0,0,2,14.12,14.12,0,0,0,.28,2.25,2.56,2.56,0,0,0,.52,1.27c0,.15.07.3.11.44v-7.72A1.3,1.3,0,0,0,249.06,111.28Z"/><path class="cls-2" d="M2.26,119.63c2.22-.19,5.41-2.47,6.13-4.58a.88.88,0,0,0-.08-.71.2.2,0,0,0,0-.22C7.61,112.8,6,112.27,4.7,111.6a15.2,15.2,0,0,0-3.63-1.75A1.08,1.08,0,0,0,0,109.61v7.72C.35,118.63,1,119.74,2.26,119.63Z"/><path class="cls-2" d="M153.53,8.68a5.43,5.43,0,0,1,1.17,6.56,5.28,5.28,0,0,1-6.23,2.29C141,14.75,147.25,3.28,153.53,8.68Z"/><path class="cls-2" d="M184,58.94a3.6,3.6,0,0,1,1.13,1.65,20.68,20.68,0,0,1,1.08,3.13,12.51,12.51,0,0,1,.59,2.85l.09.14a1.89,1.89,0,0,1-2.44,2.65c-1.92,0-3.92-.9-5.73-1.4-2-.56-4.52-.82-5.95-2.49a.33.33,0,0,1,0-.33,1.3,1.3,0,0,1-.32-1c.38-3.24,4.25-7.46,7.37-8.42C181.79,55.13,183.14,56.93,184,58.94Z"/><path class="cls-2" d="M209.46,40a2.52,2.52,0,0,0,.37-1.32,15.64,15.64,0,0,0,0-2.27,9.32,9.32,0,0,0-.25-2,.52.52,0,0,1,0-.11,1.29,1.29,0,0,0-2.17-1.17A15.93,15.93,0,0,0,204,35.35c-1.18.82-2.74,1.54-3.29,2.94a.2.2,0,0,0,0,.22.84.84,0,0,0,0,.71c1,2,4.41,3.88,6.63,3.81C208.86,43,209.33,41.51,209.46,40Z"/><path class="cls-2" d="M173.15,25.59a6.25,6.25,0,0,0,3.36,6.92,6.1,6.1,0,0,0,7.37-2.09C188.94,22.77,175.35,16.29,173.15,25.59Z"/><path class="cls-2" d="M117.68,188.43c-2.57,2-5.55,4-8.13,6-.84-1-1.54-2.15-2.38-3.15l8-5.8C116.14,186.55,116.77,187.41,117.68,188.43Z"/><path class="cls-2" d="M111.79,27.26a5.41,5.41,0,0,0,2.62-6.13,5.27,5.27,0,0,0-5.55-3.63C101,18.53,104.46,31.11,111.79,27.26Z"/><path class="cls-2" d="M78.1,132.35a5.43,5.43,0,0,0-6.49-1.51,5.3,5.3,0,0,0-2.61,6.1C71.39,144.53,83.17,138.91,78.1,132.35Z"/><path class="cls-2" d="M103.4,141.24c3.26.19,6.86.59,10.11.77,0,1.31-.24,2.63-.27,3.94l-9.88-.91C103.34,143.67,103.43,142.61,103.4,141.24Z"/><path class="cls-2" d="M22,169.89c-.94-3.12-1.79-6.64-2.73-9.76,1.23-.43,2.55-.67,3.79-1.1l2.52,9.6C24.28,169.12,23.26,169.4,22,169.89Z"/><path class="cls-2" d="M18.94,173.28a5.42,5.42,0,0,1-2.27,6.26,5.27,5.27,0,0,1-6.54-1.13C5.07,172.28,16.2,165.46,18.94,173.28Z"/><path class="cls-2" d="M44.47,212.24c-3.26.21-6.88.25-10.13.47-.14-1.31-.08-2.64-.21-4l9.91-.3C44.24,209.82,44.28,210.88,44.47,212.24Z"/><path class="cls-2" d="M13.48,212.91c-2.9-2.41-6.25-4.9-9.14-7.31-1,1.12-1.86,2.42-2.87,3.54l9,7C11.62,215,12.38,214.05,13.48,212.91Z"/><path class="cls-2" d="M93.53,72.51a2.5,2.5,0,0,1-1.07.85,14.69,14.69,0,0,1-2.09.88,8.14,8.14,0,0,1-1.91.54l-.09.07a1.29,1.29,0,0,1-1.93-1.54,15.73,15.73,0,0,1,.68-4c.29-1.41.35-3.13,1.42-4.19a.22.22,0,0,1,.22,0,.84.84,0,0,1,.66-.26c2.23.1,5.3,2.54,6.1,4.62C96,70.79,94.86,71.8,93.53,72.51Z"/><path class="cls-2" d="M100.25,60.38A5.44,5.44,0,0,1,98.18,54,5.29,5.29,0,0,1,104,50.91C111.79,52.63,107.22,64.85,100.25,60.38Z"/><path class="cls-2" d="M102.25,78.38A5.44,5.44,0,0,1,100.18,72,5.29,5.29,0,0,1,106,68.91C113.79,70.63,109.22,82.85,102.25,78.38Z"/><path class="cls-2" d="M54,9.21A3.28,3.28,0,0,0,54.22,11a19.19,19.19,0,0,0,1.21,2.7,10.34,10.34,0,0,0,1.34,2.22l0,.15a1.69,1.69,0,0,0,3.22.25c1.25-1.17,2-3,2.89-4.41,1-1.61,2.46-3.3,2.37-5.27a.26.26,0,0,0-.17-.23,1.17,1.17,0,0,0-.39-.85c-2.23-1.89-7.34-2.29-10-1C53.1,5.35,53.31,7.35,54,9.21Z"/><path class="cls-2" d="M68.52.42c0-.14,0-.28-.07-.42h-4c0,.35.09.7.14,1.05C65.9.77,67.24.69,68.52.42Z"/><path class="cls-2" d="M63.28,241.21l1.2,8.79h4c-.52-3.11-.93-6.53-1.46-9.6C65.66,240.73,64.61,240.88,63.28,241.21Z"/><path class="cls-2" d="M125.83,91.59a5.41,5.41,0,0,1,6.21-2.4,5.28,5.28,0,0,1,3.44,5.68C134.17,102.71,121.72,98.79,125.83,91.59Z"/><path class="cls-2" d="M160.36,100a5.41,5.41,0,0,1,2.29,6.26,5.27,5.27,0,0,1-5.73,3.34C149.1,108.13,153.24,95.75,160.36,100Z"/><path class="cls-2" d="M117.62,160.36a3.29,3.29,0,0,1-1.09-1.42,19.76,19.76,0,0,1-1.11-2.75,10.87,10.87,0,0,1-.66-2.51.57.57,0,0,1-.08-.13,1.69,1.69,0,0,1,2-2.48c1.72-.09,3.54.62,5.18,1,1.84.4,4.08.52,5.44,1.94a.28.28,0,0,1,.05.29,1.14,1.14,0,0,1,.33.87c-.19,2.91-3.45,6.87-6.19,7.87C119.81,163.66,118.51,162.12,117.62,160.36Z"/><path class="cls-2" d="M40.72,232.49a5.43,5.43,0,0,0-6.56-1.17,5.29,5.29,0,0,0-2.29,6.23C34.65,245,46.12,238.77,40.72,232.49Z"/><path class="cls-2" d="M59.17,228.42A5.43,5.43,0,0,1,61.11,222a5.3,5.3,0,0,1,6.59.79C73.07,228.69,62.31,236.08,59.17,228.42Z"/><path class="cls-2" d="M54.13,49.29a2.59,2.59,0,0,1-1.37.13,14.09,14.09,0,0,1-2.23-.4,8,8,0,0,1-1.9-.59h-.11a1.29,1.29,0,0,1-.78-2.34,15.39,15.39,0,0,1,2.74-3c1-1,2-2.44,3.47-2.74a.22.22,0,0,1,.2.09.87.87,0,0,1,.7.13c1.82,1.31,3.06,5,2.59,7.2C57.15,49.21,55.63,49.42,54.13,49.29Z"/><path class="cls-2" d="M65.68,56.19A7.1,7.1,0,0,0,59.19,62a6.9,6.9,0,0,0,4.57,7.37C73.68,72.51,76.5,55.68,65.68,56.19Z"/><path class="cls-2" d="M83.86,46.65a2.9,2.9,0,0,1-.18,1.57,16,16,0,0,1-1,2.43,10.29,10.29,0,0,1-1.12,2s0,.08,0,.13a1.49,1.49,0,0,1-2.83.32,18.17,18.17,0,0,1-2.68-3.81c-.92-1.38-2.27-2.83-2.26-4.56a.23.23,0,0,1,.15-.22,1,1,0,0,1,.32-.75c1.9-1.74,6.4-2.25,8.75-1.2C84.5,43.22,84.37,45,83.86,46.65Z"/><path class="cls-2" d="M59,157.59a5.42,5.42,0,0,0-6.52-1.4A5.29,5.29,0,0,0,50,162.34C52.47,169.88,64.16,164.06,59,157.59Z"/><path class="cls-2" d="M64.29,185.84c-3.06,1.13-6.38,2.56-9.44,3.69.4,1.25,1,2.44,1.41,3.69l9.18-3.76C65.06,188.14,64.67,187.16,64.29,185.84Z"/><path class="cls-2" d="M72.35,184.71c3.26,0,6.87-.11,10.13-.07.07-1.3-.06-2.64,0-3.95l-9.92.22C72.45,182.28,72.47,183.34,72.35,184.71Z"/><path class="cls-2" d="M249.74,10.49a2.37,2.37,0,0,0-1.31-.39,13.23,13.23,0,0,0-2.27,0,8.59,8.59,0,0,0-2,.21l-.11,0a1.29,1.29,0,0,0-1.21,2.14A15.19,15.19,0,0,0,245,15.82c.79,1.2,1.49,2.77,2.88,3.35a.22.22,0,0,0,.22,0,.92.92,0,0,0,.71,0,4.76,4.76,0,0,0,1.2-.84V10.52A2.3,2.3,0,0,0,249.74,10.49Z"/><path class="cls-2" d="M2.72,12.55c0-1.33-1.32-1.84-2.72-2v7.77A8.88,8.88,0,0,0,2.72,12.55Z"/><path class="cls-2" d="M235.44,177.28c-3.1-1-6.47-2.34-9.57-3.36.36-1.26.92-2.48,1.28-3.74l9.31,3.44C236.13,175,235.77,176,235.44,177.28Z"/><path class="cls-2" d="M1.2,128.72a2.43,2.43,0,0,0,.57-1.24,15.59,15.59,0,0,0,.36-2.24,9.32,9.32,0,0,0,.06-2,.42.42,0,0,1,0-.1,1.29,1.29,0,0,0-2-1.5l-.27.06V131A4.26,4.26,0,0,0,1.2,128.72Z"/><path class="cls-2" d="M246.58,123.28c-1.3.61-3,1.09-3.72,2.38a.19.19,0,0,0,0,.22.84.84,0,0,0-.1.71c.64,2.14,3.75,4.52,6,4.8A1.64,1.64,0,0,0,250,131v-9.32A18.27,18.27,0,0,0,246.58,123.28Z"/><path class="cls-2" d="M27.31,189.35a5.42,5.42,0,0,0,1.28-6.54,5.27,5.27,0,0,0-6.18-2.4C14.91,183.06,20.94,194.64,27.31,189.35Z"/><path class="cls-2" d="M164.82,195.66c.89-3.13,1.68-6.67,2.56-9.81-1.24-.4-2.56-.62-3.81-1-.78,3.21-1.57,6.42-2.35,9.63C162.5,194.93,163.53,195.19,164.82,195.66Z"/><path class="cls-2" d="M160.33,229.56a7.92,7.92,0,0,0-1-9.69,7.71,7.71,0,0,0-9.67-.71C140.31,226.07,153.69,239.67,160.33,229.56Z"/><path class="cls-2" d="M90,245.8a2.54,2.54,0,0,0-.22-1.35,15.43,15.43,0,0,0-1-2.06,8.54,8.54,0,0,0-1.06-1.68l0-.11a1.29,1.29,0,0,0-2.46-.14,15.46,15.46,0,0,0-2.15,3.41c-.73,1.24-1.84,2.55-1.74,4a.2.2,0,0,0,.13.18.86.86,0,0,0,.31.64A7.7,7.7,0,0,0,86.55,250h.06a6.94,6.94,0,0,0,2.82-.62C90.69,248.74,90.5,247.22,90,245.8Z"/><path class="cls-2" d="M31.06,47.7c1.84-2.7,4-5.58,5.87-8.27,1.11.69,2.13,1.56,3.24,2.26q-2.94,4-5.87,8C33.11,49,32.25,48.38,31.06,47.7Z"/><path class="cls-2" d="M16.47,38.51c2.31,2.3,5,4.7,7.34,7,1-.89,1.79-1.95,2.74-2.84l-7.28-6.73C18.23,36.84,17.51,37.61,16.47,38.51Z"/><path class="cls-2" d="M223.75,63.09a2.59,2.59,0,0,0,1.37.13,14.09,14.09,0,0,0,2.23-.4,8,8,0,0,0,1.9-.59h.11a1.29,1.29,0,0,0,.78-2.34,15.39,15.39,0,0,0-2.74-3c-1-1-2-2.44-3.46-2.74a.23.23,0,0,0-.21.09.87.87,0,0,0-.7.13c-1.81,1.31-3.06,5-2.59,7.2C220.73,63,222.25,63.22,223.75,63.09Z"/><path class="cls-2" d="M240.42,38.32a7.06,7.06,0,0,0,6.49-5.82,6.9,6.9,0,0,0-4.57-7.37C232.42,22,229.61,38.83,240.42,38.32Z"/><path class="cls-2" d="M4.12,65.47c3.29-5.32.07-9.59-4.12-10.9v14.1A7.72,7.72,0,0,0,4.12,65.47Z"/><path class="cls-2" d="M240.19,60.19a7.72,7.72,0,0,0,4.73,8.47,7.63,7.63,0,0,0,5.08,0V54.57C246.08,53.34,241.31,54.69,240.19,60.19Z"/><path class="cls-2" d="M107,209.93a2.43,2.43,0,0,0-1.37.08,14.75,14.75,0,0,0-2.15.74,8.65,8.65,0,0,0-1.78.88h-.11a1.29,1.29,0,0,0-.4,2.43,15,15,0,0,0,3.16,2.5c1.16.85,2.35,2.09,3.86,2.16a.22.22,0,0,0,.19-.12.86.86,0,0,0,.67-.24c1.58-1.57,2.23-5.44,1.43-7.52C110,209.53,108.42,209.56,107,209.93Z"/><path class="cls-2" d="M203.89,118.22a2.45,2.45,0,0,1,1.14-.75,12.66,12.66,0,0,1,2.16-.7,7.94,7.94,0,0,1,1.95-.37l.1-.06A1.29,1.29,0,0,1,211,118a15.18,15.18,0,0,1-1,3.9c-.4,1.38-.61,3.08-1.77,4a.2.2,0,0,1-.22,0,.85.85,0,0,1-.68.21c-2.22-.3-5.06-3-5.67-5.14C201.26,119.71,202.5,118.81,203.89,118.22Z"/><path class="cls-2" d="M194.45,145.86c1.86,2.67,3.76,5.76,5.62,8.44-1,.78-2.23,1.42-3.27,2.21l-5.37-8.35C192.5,147.3,193.38,146.72,194.45,145.86Z"/><path class="cls-2" d="M180.06,186.33c3.21.58,6.73,1.42,9.94,2-.18,1.3-.56,2.58-.74,3.88l-9.7-2.11C179.7,188.74,179.92,187.7,180.06,186.33Z"/><path class="cls-2" d="M225,137a5.41,5.41,0,0,1-4.64-4.78,5.29,5.29,0,0,1,3.88-5.39C232,125,233.27,138,225,137Z"/><path class="cls-2" d="M213.43,11a5.42,5.42,0,0,1-4-5.32A5.3,5.3,0,0,1,213.92.77C221.82-.13,221.48,12.92,213.43,11Z"/><path class="cls-2" d="M206.13,241.3a4,4,0,0,0,2.21-.17,24.39,24.39,0,0,0,3.44-1.26,13.32,13.32,0,0,0,2.85-1.47l.18,0c2.2-.33,2.28-3.38.59-3.94-1.34-1.65-3.5-2.74-5.19-3.94-1.89-1.35-3.85-3.32-6.28-3.38a.33.33,0,0,0-.31.19,1.42,1.42,0,0,0-1.07.41c-2.52,2.58-3.45,8.84-2.11,12.18C201.3,242,203.78,241.93,206.13,241.3Z"/><path class="cls-2" d="M8,233.09a5.4,5.4,0,0,0-.82,6.61,5.28,5.28,0,0,0,6.34,2C20.83,238.49,14,227.37,8,233.09Z"/><path class="cls-2" d="M28.35,101.08a5.41,5.41,0,0,1,4-5.33,5.3,5.3,0,0,1,5.93,3C41.32,106.09,28.68,109.35,28.35,101.08Z"/><path class="cls-2" d="M51.86,103.12c-3,1.16-6.5,2.26-9.55,3.41-.51-1.2-.84-2.5-1.35-3.7l9.39-3.19C50.93,100.88,51.28,101.88,51.86,103.12Z"/><path class="cls-2" d="M135.5,182.71c-.55-3.21-1-6.81-1.52-10,1.28-.28,2.62-.36,3.9-.63.44,3.28.89,6.56,1.33,9.83C137.88,182.23,136.83,182.38,135.5,182.71Z"/><path class="cls-2" d="M153.18,199.68c-1.52,2.88-3,6.18-4.55,9.06,1.14.66,2.39,1.14,3.52,1.8l4.31-8.94C155.3,200.87,154.34,200.41,153.18,199.68Z"/><path class="cls-2" d="M136.42,209.84a2.52,2.52,0,0,0,1.36.16,14.31,14.31,0,0,0,2.24-.36,8.29,8.29,0,0,0,1.9-.55H142a1.29,1.29,0,0,0,.82-2.32,15.71,15.71,0,0,0-2.69-3c-1-1-1.95-2.47-3.42-2.8a.21.21,0,0,0-.21.08.88.88,0,0,0-.7.13c-1.83,1.27-3.14,5-2.72,7.15C133.39,209.71,134.91,210,136.42,209.84Z"/><path class="cls-2" d="M195.27,111.74a5.43,5.43,0,0,0,3.93-5.39,5.29,5.29,0,0,0-4.59-4.79C186.69,100.8,187.26,113.84,195.27,111.74Z"/><path class="cls-2" d="M175.16,82.61A6.25,6.25,0,0,1,179,75.94a6.11,6.11,0,0,1,7.21,2.59C190.72,86.52,176.71,92,175.16,82.61Z"/><path class="cls-2" d="M187.48,10.09a5.41,5.41,0,0,1-.1,6.66,5.28,5.28,0,0,1-6.55,1.06C174.05,13.66,182.35,3.59,187.48,10.09Z"/><path class="cls-2" d="M215.09,73.21a2.84,2.84,0,0,0-1-1.2,15.84,15.84,0,0,0-2.17-1.46,10.1,10.1,0,0,0-2-1l-.09-.09a1.49,1.49,0,0,0-2.52,1.32,18.09,18.09,0,0,0-.1,4.65c0,1.66-.3,3.62.69,5a.21.21,0,0,0,.23.09,1,1,0,0,0,.7.45c2.54.38,6.55-1.72,7.92-3.9C217.53,75.7,216.44,74.3,215.09,73.21Z"/><path class="cls-2" d="M190.53,44.37a2.55,2.55,0,0,0,.61-1.22,15.4,15.4,0,0,0,.43-2.23,8.49,8.49,0,0,0,.13-2,1,1,0,0,1,0-.1,1.29,1.29,0,0,0-1.9-1.57,15.56,15.56,0,0,0-3.75,1.5c-1.32.57-3,1-3.79,2.25a.2.2,0,0,0,0,.22.88.88,0,0,0-.12.71c.56,2.16,3.59,4.65,5.79,5C189.37,47.17,190.11,45.82,190.53,44.37Z"/><path class="cls-2" d="M195.34,236.79a5.42,5.42,0,0,0-.69-6.63,5.27,5.27,0,0,0-6.62-.48C181.64,234.4,190.79,243.71,195.34,236.79Z"/><path class="cls-2" d="M118.72,197.28c-.21,4.26-.18,9-.38,13.25,1.7.15,3.45,0,5.16.19q.07-6.48.16-13C121.88,197.53,120.5,197.5,118.72,197.28Z"/><path class="cls-2" d="M160.91,117.48c3.73.51,7.89.84,11.62,1.35.26-1.49.3-3,.56-4.52l-11.39-1.14C161.37,114.71,161.24,115.93,160.91,117.48Z"/><path class="cls-2" d="M244.33,89.28a7,7,0,0,0,5.67,7V81.74A7.74,7.74,0,0,0,244.33,89.28Z"/><path class="cls-2" d="M8.93,86.25a7.93,7.93,0,0,0-8.6-4.59L0,81.74V96.28C5.28,97.4,11.92,93.41,8.93,86.25Z"/><path class="cls-2" d="M207.14,153.83c2.13,2.46,4.35,5.33,6.48,7.8-1,.9-2.07,1.65-3,2.54l-6.21-7.74C205.35,155.46,206.18,154.8,207.14,153.83Z"/><path class="cls-2" d="M237.22,212.53a8.76,8.76,0,0,1,10.53,2.22,8.54,8.54,0,0,1-.34,10.72C238.74,234.94,225.33,218.67,237.22,212.53Z"/><path class="cls-2" d="M89.22,162.1a6.24,6.24,0,0,1,2.26,7.35,6.08,6.08,0,0,1-6.8,3.5C75.75,170.81,81.27,156.8,89.22,162.1Z"/><path class="cls-2" d="M25.85,2.36a.9.9,0,0,0,.71.1.21.21,0,0,0,.21.07C28.06,2.2,28.92,1,29.77,0H23.91A6.21,6.21,0,0,0,25.85,2.36Z"/><path class="cls-2" d="M32.67,246.52a1.3,1.3,0,0,0-.9-2.3h-.11a8.38,8.38,0,0,0-1.93-.48,14.12,14.12,0,0,0-2.25-.28,2.45,2.45,0,0,0-1.35.2c-1.51,0-3,.24-3.24,1.64a8.36,8.36,0,0,0,1,4.69h5.86c.1-.13.21-.26.32-.38A15.63,15.63,0,0,0,32.67,246.52Z"/><path class="cls-2" d="M131.76,165.23a2.49,2.49,0,0,1,.13-1.37,15.15,15.15,0,0,1,.81-2.12,8.7,8.7,0,0,1,.94-1.74s0-.08,0-.12a1.29,1.29,0,0,1,2.44-.32,15.63,15.63,0,0,1,2.39,3.26c.81,1.18,2,2.42,2,3.92a.21.21,0,0,1-.12.19.85.85,0,0,1-.27.66c-1.62,1.53-5.51,2-7.56,1.17C131.26,168.21,131.34,166.67,131.76,165.23Z"/><path class="cls-2" d="M100.07,174.72a2.88,2.88,0,0,0-.32,1.55,16.17,16.17,0,0,0,.19,2.6,9.32,9.32,0,0,0,.44,2.25.51.51,0,0,1,0,.13,1.49,1.49,0,0,0,2.59,1.18,17.8,17.8,0,0,0,3.73-2.79c1.3-1,3-2,3.56-3.64a.25.25,0,0,0-.07-.25,1,1,0,0,0-.08-.82c-1.27-2.24-5.39-4.11-7.94-3.85C100.52,171.25,100.1,173,100.07,174.72Z"/><path class="cls-2" d="M181,244.47c-2.11-4.27-4.7-8.89-6.81-13.16-1.75.78-3.4,1.83-5.15,2.61l6.87,12.77C177.75,245.94,179.12,245.22,181,244.47Z"/><path class="cls-2" d="M25.05,63.13c1.51-4,2.95-8.5,4.46-12.49-1.58-.67-3.28-1.1-4.85-1.77L20.49,61.16C22.12,61.92,23.43,62.37,25.05,63.13Z"/><path class="cls-2" d="M118,110a6.26,6.26,0,0,0,5.9-4.94,6.09,6.09,0,0,0-3.8-6.64C111.41,95.36,108.4,110.11,118,110Z"/><path class="cls-2" d="M18.57,122.42c3.12.94,6.64,1.8,9.76,2.74.43-1.24.67-2.56,1.1-3.8l-9.6-2.52C19.34,120.12,19.06,121.14,18.57,122.42Z"/><path class="cls-2" d="M10.65,36.42a6.24,6.24,0,0,0-7.49-1.74A6.09,6.09,0,0,0,0,39.15V41a4.15,4.15,0,0,0,.15.7C2.9,50.46,16.5,44,10.65,36.42Z"/><path class="cls-2" d="M49.36,131.17a3.24,3.24,0,0,1,.53,1.71,18.44,18.44,0,0,1,.11,3,11.08,11.08,0,0,1-.24,2.58.83.83,0,0,0,0,.15A1.69,1.69,0,0,1,47,140.21c-1.65-.5-3.12-1.8-4.53-2.7-1.59-1-3.66-1.89-4.45-3.69a.3.3,0,0,1,.05-.29,1.16,1.16,0,0,1,0-.93c1.17-2.67,5.59-5.27,8.5-5.27C48.43,127.33,49.12,129.22,49.36,131.17Z"/><path class="cls-2" d="M4.5,134.47a5.42,5.42,0,0,1,6.57,1.14,5.28,5.28,0,0,1,0,6.64C5.93,148.3-2.72,138.52,4.5,134.47Z"/><path class="cls-2" d="M122.21,67.17a2.48,2.48,0,0,0-.15-1.36,15.5,15.5,0,0,0-.85-2.11,9.1,9.1,0,0,0-1-1.73.43.43,0,0,1,0-.11,1.29,1.29,0,0,0-2.45-.28,15.87,15.87,0,0,0-2.33,3.3c-.79,1.2-2,2.45-2,4a.19.19,0,0,0,.12.18.88.88,0,0,0,.28.66c1.65,1.5,5.55,1.94,7.58,1C122.76,70.14,122.65,68.61,122.21,67.17Z"/><path class="cls-2" d="M100.21,108.17a2.48,2.48,0,0,0-.15-1.36,15.5,15.5,0,0,0-.85-2.11,9.1,9.1,0,0,0-1-1.73.43.43,0,0,1,0-.11,1.29,1.29,0,0,0-2.45-.28,15.87,15.87,0,0,0-2.33,3.3c-.79,1.2-2,2.45-2,4a.19.19,0,0,0,.12.18.88.88,0,0,0,.28.66c1.65,1.5,5.55,1.94,7.58,1C100.76,111.14,100.65,109.61,100.21,108.17Z"/><path class="cls-2" d="M58.34,33.42A3.65,3.65,0,0,0,60,32.31a20.69,20.69,0,0,0,2.17-2.5,12.19,12.19,0,0,0,1.61-2.41l.13-.1c1.6-1.23.32-3.68-1.26-3.37-1.78-.72-4-.63-5.83-.85-2.09-.24-4.51-.93-6.46.08a.32.32,0,0,0-.16.29,1.31,1.31,0,0,0-.67.8c-.86,3.14,1.15,8.51,3.68,10.56C54.83,36.11,56.75,35,58.34,33.42Z"/><path class="cls-2" d="M215.64,49.58c-3.49,1.43-7.26,3.22-10.75,4.64.52,1.42,1.26,2.78,1.78,4.2l10.44-4.71C216.62,52.21,216.12,51.09,215.64,49.58Z"/><path class="cls-2" d="M19.86,22.62a5.41,5.41,0,0,1-2.83-6,5.29,5.29,0,0,1,5.43-3.83C30.37,13.52,27.33,26.21,19.86,22.62Z"/><path class="cls-2" d="M63,95.32a6.26,6.26,0,0,0,7.67.55,6.09,6.09,0,0,0,1.88-7.42C68.44,80.23,56,88.76,63,95.32Z"/><path class="cls-2" d="M130,22.88c1.13-4.63,2.11-9.83,3.25-14.46-1.84-.52-3.79-.77-5.63-1.3q-1.47,7.1-3,14.2C126.62,21.94,128.13,22.26,130,22.88Z"/><path class="cls-2" d="M82.89,154.51a2.51,2.51,0,0,0,.77-1.13,14,14,0,0,0,.74-2.15,7.85,7.85,0,0,0,.4-1.94l.06-.1a1.29,1.29,0,0,0-1.66-1.81,15.09,15.09,0,0,0-3.92,1c-1.39.38-3.1.56-4.08,1.7a.22.22,0,0,0,0,.22.88.88,0,0,0-.22.68c.26,2.22,2.91,5.11,5,5.76C81.35,157.11,82.27,155.88,82.89,154.51Z"/><path class="cls-2" d="M182.87,216.8a5.43,5.43,0,0,1,1.85,6.41,5.29,5.29,0,0,1-5.95,2.93C171.07,224.15,176.06,212.09,182.87,216.8Z"/><path class="cls-2" d="M30.34,203.62a5.41,5.41,0,0,1-6.52-1.37,5.27,5.27,0,0,1,.21-6.63C29.4,189.75,37.7,199.82,30.34,203.62Z"/><path class="cls-2" d="M211.2,105.8a2.91,2.91,0,0,1-.78-1.37,17.14,17.14,0,0,1-.63-2.54,9.76,9.76,0,0,1-.27-2.28l-.06-.11a1.49,1.49,0,0,1,2.1-1.92A18.2,18.2,0,0,1,216,99.07c1.55.58,3.5,1,4.51,2.37a.25.25,0,0,1,0,.26,1,1,0,0,1,.18.8c-.52,2.52-3.86,5.58-6.37,6.11C212.7,109,211.76,107.45,211.2,105.8Z"/><path class="cls-2" d="M5.52,78.93c2.42-2.19,5-4.77,7.38-7-.84-1-1.85-1.89-2.69-2.9L3.1,76C4,77.08,4.68,77.85,5.52,78.93Z"/><path class="cls-2" d="M170.71,42.06a5.44,5.44,0,0,1,6.67-.12,5.29,5.29,0,0,1,1.29,6.51C174.75,55.37,164.4,47.42,170.71,42.06Z"/><path class="cls-2" d="M2.72,196.06c-.89.16-1.8.34-2.72.53v3.94l3.22-.7C3.08,198.46,2.86,197.43,2.72,196.06Z"/><path class="cls-2" d="M243.53,201.94l6.47-1.41v-3.94c-2.41.5-4.9,1-7.22,1.47C243,199.36,243.34,200.64,243.53,201.94Z"/><path class="cls-2" d="M146.76,125.86a3.72,3.72,0,0,0,1.89.67,22.92,22.92,0,0,0,3.31.23,12.6,12.6,0,0,0,2.9-.17l.15,0a1.89,1.89,0,0,0,1.94-3c-.5-1.86-1.89-3.55-2.84-5.17-1.07-1.81-2-4.16-4-5.1a.29.29,0,0,0-.32,0,1.29,1.29,0,0,0-1-.05c-3,1.2-6.11,6-6.22,9.29C142.5,124.68,144.59,125.52,146.76,125.86Z"/><path class="cls-2" d="M41.56,72.69a7.09,7.09,0,0,1-2.86-8.24,6.91,6.91,0,0,1,7.58-4.23C56.47,62.29,50.77,78.38,41.56,72.69Z"/><path class="cls-2" d="M156.16,175.32c4.67,1,9.9,1.77,14.57,2.74.46-1.86.64-3.81,1.11-5.67l-14.3-2.45C157,171.87,156.72,173.39,156.16,175.32Z"/><path class="cls-2" d="M74.46,113.79a6.25,6.25,0,0,1-.15-7.69,6.11,6.11,0,0,1,7.51-1.49C89.81,109.13,80.64,121.08,74.46,113.79Z"/><path class="cls-2" d="M228.7,84.32a8.75,8.75,0,0,0,9.24-5.53,8.53,8.53,0,0,0-3.81-10C222.85,62.64,215.46,82.39,228.7,84.32Z"/><path class="cls-2" d="M226.21,19.77c-5.27-.07-11.12.17-16.38.1-.11,2.11.1,4.26,0,6.38l16-.36C226,23.69,226,22,226.21,19.77Z"/><path class="cls-2" d="M18.69,149a6.24,6.24,0,0,0,7.61,1.09,6.1,6.1,0,0,0,2.39-7.28C25.18,134.34,12.21,142,18.69,149Z"/><path class="cls-2" d="M37.83,78.58c-1.48,4-3.36,8.34-4.83,12.35-1.63-.53-3.2-1.32-4.83-1.85l4.92-12C34.81,77.57,36.1,78.08,37.83,78.58Z"/><path class="cls-2" d="M242.15,104.75c-4.16,2.33-8.63,5.17-12.79,7.49.87,1.71,2,3.3,2.88,5l12.4-7.53C243.79,107.9,243,106.57,242.15,104.75Z"/><path class="cls-2" d="M119.3,3.16a4,4,0,0,0,2.12-.67,24.39,24.39,0,0,0,3.07-2l.66-.5h-13a9.78,9.78,0,0,0,1.33,3.08C114.75,5,117.15,4.3,119.3,3.16Z"/><path class="cls-2" d="M126.93,248.42l.17-.06c2.07-.82,1.46-3.81-.31-4-1.67-1.31-4-1.88-5.94-2.67-2.15-.89-4.5-2.37-6.88-1.88a.32.32,0,0,0-.26.25,1.38,1.38,0,0,0-.95.65c-1.36,2.23-1.47,6.14-.64,9.26h13A9.24,9.24,0,0,0,126.93,248.42Z"/><path class="cls-2" d="M186.25,145a2.53,2.53,0,0,0,.3-1.34,15.56,15.56,0,0,0-.12-2.26,8.72,8.72,0,0,0-.35-1.95s0-.08,0-.12a1.28,1.28,0,0,0-2.22-1.05,15.16,15.16,0,0,0-3.27,2.35c-1.15.88-2.67,1.68-3.14,3.11a.22.22,0,0,0,0,.22.89.89,0,0,0,.06.71c1.07,2,4.61,3.64,6.83,3.45C185.8,148,186.2,146.52,186.25,145Z"/><path class="cls-2" d="M143.64,57.27a2.47,2.47,0,0,0-.92-1,14.79,14.79,0,0,0-1.93-1.2,8.53,8.53,0,0,0-1.8-.84l-.08-.07a1.29,1.29,0,0,0-2.15,1.21,15.54,15.54,0,0,0,.06,4c.06,1.44-.15,3.15.74,4.36a.2.2,0,0,0,.21.07.88.88,0,0,0,.61.37c2.22.25,5.63-1.69,6.75-3.62C145.84,59.35,144.85,58.17,143.64,57.27Z"/><path class="cls-2" d="M32.94,17.14a6.26,6.26,0,0,1,.92-7.64,6.09,6.09,0,0,1,7.64-.43C48.79,14.66,38,25.21,32.94,17.14Z"/><path class="cls-2" d="M195.77,209.53c3.25-.33,6.86-.49,10.11-.82.18,1.3.17,2.64.35,3.93l-9.9.65C196.09,211.94,196,210.88,195.77,209.53Z"/><path class="cls-2" d="M223.45,223c-2.3-3.59-4.64-7.71-6.95-11.29,1.4-1,3-1.76,4.37-2.75l6.63,11.16C226.07,221.22,224.89,221.93,223.45,223Z"/><path class="cls-2" d="M194.71,58.18a2.47,2.47,0,0,1,1.27-.52,14.27,14.27,0,0,1,2.25-.28,8.29,8.29,0,0,1,2,0l.1,0a1.29,1.29,0,0,1,1.43,2A15.38,15.38,0,0,1,200,63c-.67,1.28-1.19,2.91-2.52,3.63a.2.2,0,0,1-.22,0,.88.88,0,0,1-.71.08c-2.11-.72-4.39-3.91-4.58-6.13C191.84,59.14,193.24,58.49,194.71,58.18Z"/><path class="cls-2" d="M178.93,120.92c3.7,2.12,7.93,4.24,11.63,6.36.91-1.46,1.6-3.07,2.51-4.52l-11.48-6C180.58,118.21,179.93,119.43,178.93,120.92Z"/><path class="cls-2" d="M88.84,97.34A8.75,8.75,0,0,0,98,91.65a8.53,8.53,0,0,0-4-10C82.6,75.76,75.57,95.64,88.84,97.34Z"/><path class="cls-2" d="M103.24,38.13a3.65,3.65,0,0,1-.16,2A21.83,21.83,0,0,1,102,43.24a13.19,13.19,0,0,1-1.33,2.58l0,.16a1.89,1.89,0,0,1-3.56.53c-1.49-1.21-2.48-3.17-3.56-4.69-1.23-1.72-3-3.49-3.06-5.69a.28.28,0,0,1,.17-.27,1.35,1.35,0,0,1,.37-1c2.34-2.28,8-3.12,11-1.9C103.89,33.75,103.81,36,103.24,38.13Z"/><path class="cls-2" d="M134,37.24a2.53,2.53,0,0,1-.48-1.29,15.41,15.41,0,0,1-.19-2.25,7.92,7.92,0,0,1,.08-2,.36.36,0,0,1,0-.11,1.29,1.29,0,0,1,2.06-1.35A15.06,15.06,0,0,1,139,32.13c1.25.7,2.87,1.29,3.54,2.63a.22.22,0,0,1,0,.23.88.88,0,0,1,0,.71c-.79,2.09-4.06,4.25-6.28,4.37C134.91,40.14,134.3,38.72,134,37.24Z"/><path class="cls-2" d="M173.76,93a6.25,6.25,0,0,1,6.07,4.73,6.1,6.1,0,0,1-3.57,6.77C167.72,107.86,164.21,93.22,173.76,93Z"/><path class="cls-2" d="M157.88,137.24a8.74,8.74,0,0,1,4.36-9.84A8.52,8.52,0,0,1,172.65,130C180.12,140.41,161.41,150.15,157.88,137.24Z"/><path class="cls-2" d="M137.15,88.13A6.26,6.26,0,0,1,134.38,81a6.09,6.09,0,0,1,6.55-4C150,78.5,145.45,92.86,137.15,88.13Z"/><path class="cls-2" d="M175.88,174.24a8.74,8.74,0,0,1,4.36-9.84A8.52,8.52,0,0,1,190.65,167C198.12,177.41,179.41,187.15,175.88,174.24Z"/><path class="cls-2" d="M77.29,222.25a8.76,8.76,0,0,0,9.52-5A8.52,8.52,0,0,0,83.53,207C72.58,200.29,64.17,219.63,77.29,222.25Z"/><path class="cls-2" d="M119.11,78.23c-5.34,2.18-11.13,4.92-16.47,7.11.79,2.17,1.93,4.25,2.72,6.43l16-7.21C120.61,82.25,119.86,80.53,119.11,78.23Z"/><path class="cls-2" d="M120.92,188c3.26.05,6.88-.1,10.14-.06.07-1.31-.06-2.64,0-3.95l-9.92.22C121,185.58,121,186.64,120.92,188Z"/><path class="cls-2" d="M48.94,89a6.24,6.24,0,0,1-5.81-5,6.09,6.09,0,0,1,3.92-6.58C55.75,74.47,58.49,89.28,48.94,89Z"/><path class="cls-2" d="M202.79,200.09a2.84,2.84,0,0,0,1.2-1,15.84,15.84,0,0,0,1.46-2.17,10.1,10.1,0,0,0,1-2l.09-.09a1.49,1.49,0,0,0-1.32-2.52,18.09,18.09,0,0,0-4.65-.1c-1.66,0-3.62-.3-5.05.69a.21.21,0,0,0-.09.23,1,1,0,0,0-.45.7c-.38,2.54,1.72,6.55,3.9,7.92C200.3,202.53,201.7,201.44,202.79,200.09Z"/><path class="cls-2" d="M37.93,158.79c.83,3.67,1.53,7.79,2.36,11.46-1.46.39-3,.56-4.45,1L33.71,160C35.22,159.49,36.42,159.26,37.93,158.79Z"/><path class="cls-2" d="M117.9,53.06a4.4,4.4,0,0,1-2-1.44,26.77,26.77,0,0,1-2.46-3.16,14.89,14.89,0,0,1-1.8-3l-.16-.13c-1.85-1.58-.15-4.46,1.75-4,2.2-.76,4.84-.51,7.1-.65,2.54-.15,5.51-.84,7.8.51a.36.36,0,0,1,.17.35,1.57,1.57,0,0,1,.76,1c.84,3.86-1.93,10.22-5.11,12.54C122,56.54,119.72,55,117.9,53.06Z"/><path class="cls-2" d="M157.53,153.14a3.58,3.58,0,0,1,1.48,1.35,21.57,21.57,0,0,1,1.75,2.81,12.57,12.57,0,0,1,1.22,2.64l.11.12a1.88,1.88,0,0,1-1.77,3.13c-1.87.43-4,0-5.9-.08-2.1-.09-4.59.22-6.36-1.09a.29.29,0,0,1-.11-.3,1.3,1.3,0,0,1-.53-.9c-.36-3.24,2.46-8.22,5.28-9.85C154.49,149.93,156.21,151.38,157.53,153.14Z"/><path class="cls-2" d="M56.24,113.07A9.6,9.6,0,0,0,54,124.64a9.34,9.34,0,0,0,11,4.24C78.18,124.19,67.52,103.71,56.24,113.07Z"/><path class="cls-2" d="M149.26,2.64a.36.36,0,0,0,.25-.31,1.54,1.54,0,0,0,1-.81A7,7,0,0,0,151,0h-14.4c1.62.6,3.41.91,5,1.38C144,2.1,146.72,3.44,149.26,2.64Z"/><path class="cls-2" d="M148.31,238.16c-1.64-1.89-4.18-.91-6.39.58a4.37,4.37,0,0,0-2.22,1,24.39,24.39,0,0,0-3.12,2.52,15.13,15.13,0,0,0-2.43,2.54l-.18.09c-2.16,1.13-1.15,4.31.8,4.28a9.41,9.41,0,0,0,1.81.86H151C151.82,246.26,150.56,240.75,148.31,238.16Z"/><path class="cls-2" d="M127.28,127a5.42,5.42,0,0,1,3.83,5.45,5.29,5.29,0,0,1-4.68,4.71C118.51,137.83,119.3,124.8,127.28,127Z"/><path class="cls-2" d="M160.77,30.82c-.46-3.23-1.18-6.78-1.64-10-1.3.14-2.6.48-3.9.61L157,31.19C158.36,31.09,159.41,30.91,160.77,30.82Z"/><path class="cls-2" d="M213.55,176.53a3.33,3.33,0,0,1,1.78.23,20.52,20.52,0,0,1,2.73,1.16,11.54,11.54,0,0,1,2.24,1.31l.14,0a1.69,1.69,0,0,1,.31,3.21c-1.15,1.28-2.95,2.06-4.36,3-1.59,1-3.26,2.51-5.22,2.46a.25.25,0,0,1-.24-.17,1.11,1.11,0,0,1-.85-.38c-1.93-2.19-2.42-7.29-1.19-9.93C209.67,175.74,211.68,175.92,213.55,176.53Z"/><path class="cls-2" d="M70.38,149.61a6.25,6.25,0,0,0-1.71-7.49,6.1,6.1,0,0,0-7.65.37C54.36,148.81,66.15,158.18,70.38,149.61Z"/><path class="cls-2" d="M136.8,139.46a7.1,7.1,0,0,0,7.69,4.11,6.91,6.91,0,0,0,5.37-6.82C149.41,126.36,132.63,129.47,136.8,139.46Z"/><path class="cls-2" d="M157.37,70.75c.39,3.23.62,6.85,1,10.09-1.29.2-2.63.21-3.92.41l-.82-9.88C155,71.1,156,71,157.37,70.75Z"/><path class="cls-2" d="M9.23,105.17A7.1,7.1,0,0,0,14,112.49a6.93,6.93,0,0,0,8-3.36C26.61,99.82,10.42,94.4,9.23,105.17Z"/><path class="cls-2" d="M105.6,109c-3.92,4.23-8,9.17-11.92,13.4,1.64,1.64,3.55,3,5.19,4.68l11.45-13.3C108.67,112,107.25,110.73,105.6,109Z"/><path class="cls-2" d="M3.34,182.64l-.11-.1A11.28,11.28,0,0,0,2.1,180.2a19.23,19.23,0,0,0-1.61-2.49,6.16,6.16,0,0,0-.49-.57v8.53a7.64,7.64,0,0,0,1.8-.2A1.69,1.69,0,0,0,3.34,182.64Z"/><path class="cls-2" d="M249.15,176.52c-1.22-1.55-2.78-2.82-4.36-1.86-2.5,1.5-4.95,6-4.57,8.9a1.13,1.13,0,0,0,.49.79.26.26,0,0,0,.1.27c1.6,1.14,3.83.82,5.71.87,1.1,0,2.31.19,3.48.18v-8.53A2.42,2.42,0,0,0,249.15,176.52Z"/><path class="cls-2" d="M58.76,214.77a8.76,8.76,0,0,0,5.4-9.32A8.53,8.53,0,0,0,56,198.53C43.13,198.64,46.25,219.5,58.76,214.77Z"/><path class="cls-2" d="M164,2.65a7.94,7.94,0,0,1,8.91,4A7.71,7.71,0,0,1,170.56,16C161.1,22.77,152.3,5.85,164,2.65Z"/><path class="cls-2" d="M168.28,67.86a5.41,5.41,0,0,0-.57-6.64,5.27,5.27,0,0,0-6.6-.6C154.63,65.24,163.62,74.71,168.28,67.86Z"/><path class="cls-2" d="M224.91,192.78a4,4,0,0,0-1.58,1.56,22.68,22.68,0,0,0-1.83,3.17,13.16,13.16,0,0,0-1.24,3,1.59,1.59,0,0,1-.13.13c-1.47,1.67.43,4.06,2.09,3.39,2.08.41,4.44-.15,6.51-.31,2.31-.18,5.08.06,7-1.45a.33.33,0,0,0,.11-.34,1.4,1.4,0,0,0,.56-1c.27-3.6-3-9-6.22-10.68C228.15,189.12,226.3,190.79,224.91,192.78Z"/><path class="cls-2" d="M78.92,18.43c.8,5.21,1.37,11,2.18,16.24-2.08.4-4.24.49-6.32.9q-.94-8-1.88-15.92C75.06,19.15,76.76,18.93,78.92,18.43Z"/><path class="cls-2" d="M77.75,234.63a2.43,2.43,0,0,0-.85-1.07,14.1,14.1,0,0,0-1.84-1.33,8.51,8.51,0,0,0-1.74-1l-.07-.08A1.29,1.29,0,0,0,71,232.25a15.55,15.55,0,0,0-.22,4c0,1.44-.37,3.12.44,4.39a.18.18,0,0,0,.2.09.85.85,0,0,0,.58.41c2.2.4,5.74-1.29,7-3.13C79.8,236.86,78.89,235.62,77.75,234.63Z"/><path class="cls-2" d="M193,33.51a7.09,7.09,0,0,0,8.09-3.26,6.9,6.9,0,0,0-1.78-8.49C191,15.43,182.63,30.28,193,33.51Z"/><path class="cls-2" d="M105.06,196.52a3.91,3.91,0,0,1,0,2.21,22.83,22.83,0,0,1-1,3.54,13.45,13.45,0,0,1-1.21,3c0,.06,0,.12,0,.18-.14,2.22-3.17,2.56-3.87.93-1.76-1.19-3-3.26-4.38-4.83-1.51-1.77-3.64-3.55-3.92-6a.34.34,0,0,1,.17-.32,1.41,1.41,0,0,1,.32-1.11c2.35-2.74,8.51-4.21,12-3.16C105.36,191.64,105.49,194.12,105.06,196.52Z"/><path class="cls-2" d="M232.92,18.4c-1.67-2.81-3.35-6-5-8.82,1.09-.71,2.32-1.26,3.41-2l4.77,8.7C235,17.09,234.05,17.61,232.92,18.4Z"/><path class="cls-2" d="M97.45,18.93C96.8,14.72,96.33,10,95.68,5.79c1.68-.32,3.43-.4,5.12-.72q.75,6.43,1.52,12.88C100.57,18.36,99.19,18.53,97.45,18.93Z"/><path class="cls-2" d="M88.28,127.22a7.09,7.09,0,0,1,7.23,4.87A6.89,6.89,0,0,1,92,140C82.63,144.5,77.5,128.23,88.28,127.22Z"/><path class="cls-2" d="M100.08,163.13c-1.59-4-3.1-8.45-4.68-12.4,1.56-.7,3.25-1.17,4.82-1.86l4.38,12.21C103,161.87,101.69,162.35,100.08,163.13Z"/><path class="cls-2" d="M247.89,161.84a8.07,8.07,0,0,0,2.11,3.95v-11.3A8.66,8.66,0,0,0,247.89,161.84Z"/><path class="cls-2" d="M6.31,168.47c12.83-.55,9-21.29-3.35-16.12a8.16,8.16,0,0,0-3,2.14v11.3A8.34,8.34,0,0,0,6.31,168.47Z"/><path class="cls-2" d="M19.38,219.91a4.07,4.07,0,0,0,1.32,1.79A25,25,0,0,0,23.58,224a14.27,14.27,0,0,0,2.76,1.64l.12.14c1.44,1.69,4.07.14,3.65-1.59.69-2,.46-4.42.59-6.49.14-2.32.77-5-.46-7.12a.35.35,0,0,0-.32-.16,1.47,1.47,0,0,0-.93-.69c-3.52-.77-9.32,1.76-11.44,4.67C16.21,216.2,17.6,218.26,19.38,219.91Z"/><path class="cls-2" d="M91.49,61.36a2.46,2.46,0,0,1-1.37,0,15,15,0,0,1-2.18-.62,8.23,8.23,0,0,1-1.83-.79H86a1.29,1.29,0,0,1-.53-2.41,15.68,15.68,0,0,1,3-2.66c1.11-.91,2.24-2.21,3.74-2.36a.2.2,0,0,1,.19.11.89.89,0,0,1,.69.21c1.66,1.48,2.51,5.31,1.82,7.43C94.51,61.59,93,61.64,91.49,61.36Z"/><path class="cls-2" d="M81.17,9.93a3.26,3.26,0,0,0,.63-1.68,18.37,18.37,0,0,0,.26-2.95A11.5,11.5,0,0,0,82,2.7c0-.05,0-.09,0-.14A1.69,1.69,0,0,0,79.31.78c-1.67.42-3.21,1.64-4.67,2.46C73,4.17,70.89,4.93,70,6.69a.27.27,0,0,0,0,.29,1.16,1.16,0,0,0-.06.93c1,2.73,5.3,5.56,8.21,5.71C80.05,13.72,80.83,11.87,81.17,9.93Z"/><path class="cls-2" d="M56.74,239.55c-4.09,1.19-8.56,2.76-12.65,4,.41,1.66,1.09,3.28,1.5,4.94l12.32-4.07C57.54,242.63,57.12,241.31,56.74,239.55Z"/><path class="cls-2" d="M148.15,106.3a7.1,7.1,0,0,0,.16-8.72,6.91,6.91,0,0,0-8.51-1.68C130.75,101,141.14,114.56,148.15,106.3Z"/><path class="cls-2" d="M117.44,167.72a6.22,6.22,0,0,0-3.14,7,6.1,6.1,0,0,0,6.33,4.3C129.74,178,126,163.42,117.44,167.72Z"/><path class="cls-2" d="M42.23,229.43c3.23-2.79,7-5.68,10.21-8.47,1.17,1.26,2.16,2.7,3.33,4Q50.7,229,45.65,233C44.38,231.77,43.5,230.69,42.23,229.43Z"/><path class="cls-2" d="M69.12,51.08a5.41,5.41,0,0,0-.23-6.66,5.26,5.26,0,0,0-6.56-1C55.62,47.74,64.1,57.67,69.12,51.08Z"/><path class="cls-2" d="M71.46,172.9a7.93,7.93,0,0,0-7.35-6.4,7.72,7.72,0,0,0-7.55,6.07C54.44,184,73.49,184.83,71.46,172.9Z"/><path class="cls-2" d="M7.18,30.22c-.9-3.65-1.67-7.76-2.56-11.41,1.45-.42,3-.62,4.44-1Q10.22,23.38,11.38,29C9.88,29.48,8.68,29.73,7.18,30.22Z"/><path class="cls-2" d="M227.21,158.5a7.07,7.07,0,0,0,5.11,7.06,6.9,6.9,0,0,0,7.81-3.77C244.28,152.25,227.83,147.69,227.21,158.5Z"/><path class="cls-2" d="M235.07,144.2a3.66,3.66,0,0,1-.63-1.9,20.4,20.4,0,0,1-.17-3.31,12.67,12.67,0,0,1,.21-2.9c0-.05,0-.1,0-.15a1.89,1.89,0,0,1,3.07-1.88c1.85.52,3.52,1.95,5.12,2.92,1.79,1.1,4.12,2,5,4a.29.29,0,0,1,0,.32,1.3,1.3,0,0,1,0,1c-1.26,3-6.15,6-9.4,6.06C236.18,148.48,235.38,146.38,235.07,144.2Z"/><path class="cls-2" d="M34.36,186.46a4.46,4.46,0,0,1,.11-2.43,25.67,25.67,0,0,1,1.24-3.81,15.23,15.23,0,0,1,1.5-3.18c0-.07,0-.13,0-.2.28-2.42,3.61-2.62,4.29-.79,1.86,1.4,3.13,3.73,4.51,5.53,1.55,2,3.78,4.09,3.94,6.75a.37.37,0,0,1-.2.34,1.5,1.5,0,0,1-.41,1.19c-2.73,2.86-9.54,4.12-13.25,2.77C33.76,191.78,33.76,189.05,34.36,186.46Z"/><path class="cls-2" d="M149.76,37.63C153.12,41,156.64,45,160,48.35c-1.3,1.4-2.84,2.62-4.14,4L146,41.72C147.32,40.2,148.45,39.14,149.76,37.63Z"/><path class="cls-2" d="M186.65,202.9c-5.36,2.14-11.43,4.18-16.79,6.32-.94-2.11-1.57-4.4-2.51-6.52l16.52-5.92C184.94,199,185.58,200.72,186.65,202.9Z"/><path class="cls-2" d="M132.33,223.33a3.32,3.32,0,0,1,1.09-1.42,18.56,18.56,0,0,1,2.37-1.78,10.74,10.74,0,0,1,2.26-1.29l.09-.12a1.69,1.69,0,0,1,2.93,1.34c.54,1.64.32,3.59.39,5.26.08,1.88.56,4.08-.47,5.76a.26.26,0,0,1-.27.12,1.15,1.15,0,0,1-.75.55c-2.86.57-7.53-1.56-9.2-3.94C129.71,226.3,130.87,224.65,132.33,223.33Z"/><path class="cls-2" d="M102.54,231.11a7.1,7.1,0,0,1,1.23,8.63,6.93,6.93,0,0,1-8.25,2.71C85.91,238.47,94.58,223.77,102.54,231.11Z"/><path class="cls-2" d="M35.09,33.36A3.27,3.27,0,0,0,36.26,32a19.29,19.29,0,0,0,1.25-2.69,10.83,10.83,0,0,0,.79-2.47l.09-.12a1.69,1.69,0,0,0-1.92-2.59c-1.71-.18-3.57.44-5.22.71-1.86.31-4.11.31-5.54,1.66a.28.28,0,0,0-.06.29,1.15,1.15,0,0,0-.38.85c0,2.92,3.09,7,5.77,8.18C32.74,36.54,34.11,35.07,35.09,33.36Z"/><path class="cls-2" d="M229.12,45.93c3.37,2.62,7.27,5.31,10.64,7.92,1.1-1.31,2-2.81,3.12-4.12l-10.54-7.58C231.14,43.48,230.33,44.6,229.12,45.93Z"/><path class="cls-2" d="M113.31,218.65a3.32,3.32,0,0,0-.21,1.78,19.23,19.23,0,0,0,.47,2.93,10.61,10.61,0,0,0,.73,2.49.76.76,0,0,0,0,.15,1.69,1.69,0,0,0,3,1.07c1.52-.8,2.71-2.36,3.93-3.51,1.37-1.3,3.23-2.55,3.66-4.47a.27.27,0,0,0-.11-.27,1.15,1.15,0,0,0-.16-.92c-1.66-2.4-6.49-4.11-9.35-3.56C113.48,214.7,113.17,216.68,113.31,218.65Z"/><path class="cls-2" d="M214.16,137.06a4.49,4.49,0,0,0-1.41-2,26,26,0,0,0-3.12-2.52,15,15,0,0,0-3-1.85l-.12-.16c-1.55-1.88-4.46-.23-4,1.67-.8,2.19-.59,4.84-.77,7.1-.2,2.54-.94,5.48.37,7.8a.34.34,0,0,0,.35.18,1.57,1.57,0,0,0,1,.78c3.85.91,10.25-1.75,12.63-4.9C217.56,141.2,216.08,138.91,214.16,137.06Z"/><path class="cls-2" d="M235.19,0H220.58C224,4.06,231.56,4.12,235.19,0Z"/><path class="cls-2" d="M237.15,242.91a9.34,9.34,0,0,0-8.62-8,9.58,9.58,0,0,0-9.4,7.11c-.85,3.46-.11,6.11,1.45,7.95h14.61A8.79,8.79,0,0,0,237.15,242.91Z"/><path class="cls-2" d="M12.38,2.94C11.54,2,10.69,1,9.83,0H4L8.94,5.94C10,4.89,11.29,4,12.38,2.94Z"/><path class="cls-2" d="M1.62,247.13,4,250H9.83c-1.69-2-3.41-4.07-5.08-5.94C3.66,245.2,2.72,246,1.62,247.13Z"/><path class="cls-2" d="M43.45,112.94c-3,1.21-6.46,2.37-9.48,3.58-.54-1.2-.89-2.49-1.42-3.69l9.34-3.35C42.49,110.71,42.85,111.71,43.45,112.94Z"/><path class="cls-2" d="M150.55,186a7.94,7.94,0,0,0-9.62-1.54,7.74,7.74,0,0,0-3.19,9.16C142,204.46,158.6,195.07,150.55,186Z"/><path class="cls-2" d="M202,96.65a8.74,8.74,0,0,1-10.76-.36,8.53,8.53,0,0,1-1.53-10.61C196.58,74.85,212.61,88.54,202,96.65Z"/><path class="cls-2" d="M197.79,244.68c-5-.58-7.82,2-8.75,5.32h15.64A8.83,8.83,0,0,0,197.79,244.68Z"/><path class="cls-2" d="M199,11.11a8.53,8.53,0,0,0,6.27-8.7,7.76,7.76,0,0,0-.6-2.41H189C187.5,5.5,191.21,13,199,11.11Z"/></g></svg>