<svg id="Layer_1" data-name="Layer 1" xmlns="http://www.w3.org/2000/svg" viewBox="0 0 250 250"><defs><style>.cls-1{fill:#9e0553;}.cls-2{fill:#d3196f;}</style></defs><title>Pink_Dots_Pattern</title><g id="_16" data-name="16"><rect class="cls-1" width="250" height="250"/><path class="cls-2" d="M66.47,227.7c2,1.58,4.45-1.55,2.44-3.12S64.45,226.13,66.47,227.7Z"/><path class="cls-2" d="M40,129.59c-1.75,1.86,1.15,4.57,2.9,2.7S41.73,127.72,40,129.59Z"/><path class="cls-2" d="M2.47,147.89c2.43-.79,3.66,3,1.23,3.77S0,148.68,2.47,147.89Z"/><path class="cls-2" d="M49.88,148.08c.22,2.55-3.73,2.9-4,.35S49.66,145.53,49.88,148.08Z"/><path class="cls-2" d="M209.8,34.07c-2.53.35-3.08-3.58-.55-3.93S212.34,33.71,209.8,34.07Z"/><path class="cls-2" d="M126.63,157.88c-2.39-.91-3.81,2.79-1.43,3.71S129,158.8,126.63,157.88Z"/><path class="cls-2" d="M131.17,179c-2.17-1.36-.07-4.72,2.1-3.37S133.34,180.35,131.17,179Z"/><path class="cls-2" d="M129.11,16.84c-.31,2.54,3.63,3,3.94.49S129.42,14.31,129.11,16.84Z"/><path class="cls-2" d="M134,143c-2.27-1.16-4.08,2.37-1.8,3.53S136.28,144.17,134,143Z"/><path class="cls-2" d="M58.69,79.28c2.51-.44,1.83-4.35-.69-3.91S56.17,79.73,58.69,79.28Z"/><path class="cls-2" d="M69.84,82.44c-2.55,0-2.56-4,0-4S72.4,82.44,69.84,82.44Z"/><path class="cls-2" d="M149.73,107.63c-1,2.37-4.64.88-3.68-1.49S150.68,105.26,149.73,107.63Z"/><path class="cls-2" d="M114.07,158c-2.46-.71-1.37-4.52,1.09-3.82S116.53,158.72,114.07,158Z"/><path class="cls-2" d="M26.6,250h1.14A1.93,1.93,0,0,0,26.6,250Z"/><path class="cls-2" d="M25.57.84C24.26,3,27.66,5.08,29,2.89A1.94,1.94,0,0,0,27.74,0H26.6A1.91,1.91,0,0,0,25.57.84Z"/><path class="cls-2" d="M83,89.1c1.71-1.9-1.24-4.56-2.95-2.66S81.28,91,83,89.1Z"/><path class="cls-2" d="M220.61,27.46c-1.86-1.74.84-4.64,2.71-2.9S222.49,29.21,220.61,27.46Z"/><path class="cls-2" d="M12.6,55.6c2.35-1,3.9,2.65,1.55,3.65S10.24,56.59,12.6,55.6Z"/><path class="cls-2" d="M146.39,133.59c.75,2.44,4.54,1.28,3.79-1.16S145.64,131.14,146.39,133.59Z"/><path class="cls-2" d="M162.88,131.39c2.16-1.35,4.27,2,2.1,3.37S160.71,132.75,162.88,131.39Z"/><path class="cls-2" d="M44.62,193.9c-2.54.27-2.13,4.21.41,3.95S47.16,193.63,44.62,193.9Z"/><path class="cls-2" d="M187.72,65c-2.45.74-1.29,4.54,1.16,3.79S190.16,64.2,187.72,65Z"/><path class="cls-2" d="M114.25,192.94c1.68-1.93,4.67.67,3,2.6S112.57,194.87,114.25,192.94Z"/><path class="cls-2" d="M113,202.18c1.32-2.19,4.72-.15,3.41,2S111.72,204.37,113,202.18Z"/><path class="cls-2" d="M155.37,89.44c-1.39-2.14,1.94-4.31,3.33-2.16S156.77,91.58,155.37,89.44Z"/><path class="cls-2" d="M154.3,77.37c-.79,2.43,3,3.66,3.77,1.23S155.09,74.94,154.3,77.37Z"/><path class="cls-2" d="M121.07,71.35c.49,2.51,4.38,1.76,3.89-.75S120.58,68.84,121.07,71.35Z"/><path class="cls-2" d="M138.24,61.2c2.51.49,3.27-3.4.76-3.89S135.73,60.72,138.24,61.2Z"/><path class="cls-2" d="M28.17,43c-2.47-.62-1.52-4.47,1-3.85S30.66,43.62,28.17,43Z"/><path class="cls-2" d="M240,220.7c-2,1.64-4.51-1.39-2.55-3S242,219.06,240,220.7Z"/><path class="cls-2" d="M61.25,74c-2.53.35-3.09-3.57-.55-3.93S63.78,73.67,61.25,74Z"/><path class="cls-2" d="M61.22,56.4c2.43.79,3.66-3,1.22-3.77S58.79,55.61,61.22,56.4Z"/><path class="cls-2" d="M45.31,85.49c2.39.91,3.81-2.79,1.42-3.71S42.92,84.57,45.31,85.49Z"/><path class="cls-2" d="M71.26,7.15c-2.46-.71-1.37-4.52,1.09-3.82S73.71,7.85,71.26,7.15Z"/><path class="cls-2" d="M177.45,104.67c-2.53.31-3-3.62-.48-3.94S180,104.36,177.45,104.67Z"/><path class="cls-2" d="M167,89.17c.22-2.54-3.73-2.89-4-.34S166.77,91.72,167,89.17Z"/><path class="cls-2" d="M147.93,3.78c-2.51-.44-3.2,3.46-.69,3.91S150.45,4.22,147.93,3.78Z"/><path class="cls-2" d="M139.24,25.64c2.54.18,2.83-3.78.27-3.95S136.69,25.47,139.24,25.64Z"/><path class="cls-2" d="M130,218.52c-2.54-.18-2.27-4.14.28-4S132.56,218.69,130,218.52Z"/><path class="cls-2" d="M83.12,119.31c0-2.55,3.93-2.62,4-.07S83.17,121.87,83.12,119.31Z"/><path class="cls-2" d="M123.93,66.54c3.3-2,.23-7.1-3.07-5.11S120.64,68.52,123.93,66.54Z"/><path class="cls-2" d="M100.62,56.4c2.24-1.23.32-4.71-1.92-3.47S98.39,57.64,100.62,56.4Z"/><path class="cls-2" d="M94.31,55.19c2.47-.67,1.45-4.5-1-3.84S91.84,55.85,94.31,55.19Z"/><path class="cls-2" d="M105.37,17.33c-.36,2.53-4.29,2-3.93-.55S105.72,14.8,105.37,17.33Z"/><path class="cls-2" d="M101.19,28.31c1,2.37,4.64.89,3.68-1.48S100.23,25.94,101.19,28.31Z"/><path class="cls-2" d="M109.26,10c-2.53.32-2.05,4.25.49,3.94S111.8,9.72,109.26,10Z"/><path class="cls-2" d="M127.23,13c1.42,2.12-1.86,4.34-3.29,2.22S125.8,10.85,127.23,13Z"/><path class="cls-2" d="M45.47,113.62c2.54-.31,2.06-4.25-.48-3.94S42.93,113.93,45.47,113.62Z"/><path class="cls-2" d="M220.05,19.08c1.61-2,4.69.51,3.08,2.5S218.44,21.07,220.05,19.08Z"/><path class="cls-2" d="M208.67,7.92c-2.41-.83-3.71,2.92-1.29,3.75S211.09,8.75,208.67,7.92Z"/><path class="cls-2" d="M85,205.82c-.58-2.49,3.29-3.38,3.87-.89S85.53,208.31,85,205.82Z"/><path class="cls-2" d="M73.73,190.32c2.26,1.2,4.12-2.3,1.86-3.5S71.47,189.12,73.73,190.32Z"/><path class="cls-2" d="M181.19,60.73c-.44-2.51,3.47-3.21,3.91-.69S181.64,63.25,181.19,60.73Z"/><path class="cls-2" d="M243.86,188.16c-2.17,1.36-4.27-2-2.1-3.36S246,186.81,243.86,188.16Z"/><path class="cls-2" d="M9.55,80.85c0-2.55-3.92-2.63-4-.07S9.5,83.41,9.55,80.85Z"/><path class="cls-2" d="M204.51,80.11c1.35,2.17,4.72.07,3.36-2.1S203.15,77.94,204.51,80.11Z"/><path class="cls-2" d="M195.15,195.26c-2.54-.27-2.13-4.22.42-3.95S197.7,195.52,195.15,195.26Z"/><path class="cls-2" d="M196.57,187.4c1-2.35-2.66-3.9-3.66-1.55S195.57,189.76,196.57,187.4Z"/><path class="cls-2" d="M232.38,201.17c1.23-2.23-2.23-4.16-3.47-1.92S231.14,203.41,232.38,201.17Z"/><path class="cls-2" d="M135.77,113.75c-2.54-.26-2.13-4.21.41-3.94S138.31,114,135.77,113.75Z"/><path class="cls-2" d="M188.05,116.46c-2.5.48-3.26-3.41-.75-3.9S190.57,116,188.05,116.46Z"/><path class="cls-2" d="M20.37,245.4c1.08,2.32-2.51,4-3.59,1.68S19.29,243.09,20.37,245.4Z"/><path class="cls-2" d="M32.43,57.11c-2.19,1.32-.15,4.72,2,3.4S34.62,55.8,32.43,57.11Z"/><path class="cls-2" d="M14.59,79c2.44-.75,3.6,3,1.16,3.8S12.14,79.76,14.59,79Z"/><path class="cls-2" d="M35.89,62.81c-2.09,1.46.18,4.71,2.27,3.25S38,61.34,35.89,62.81Z"/><path class="cls-2" d="M19.75,62.91c-2.35-1-3.91,2.65-1.55,3.65S22.1,63.9,19.75,62.91Z"/><path class="cls-2" d="M153.88,242.69c0-2.55-3.93-2.63-4-.07S153.83,245.25,153.88,242.69Z"/><path class="cls-2" d="M248.86,95.8c2.25,1.2.4,4.7-1.86,3.5S246.6,94.6,248.86,95.8Z"/><path class="cls-2" d="M79.05,24.34c2.49-.53,3.32,3.35.82,3.88S76.55,24.87,79.05,24.34Z"/><path class="cls-2" d="M73.88,41.09c2,1.61-.51,4.69-2.5,3.08S71.89,39.48,73.88,41.09Z"/><path class="cls-2" d="M144.29,33.93c-2.53-.36-2-4.29.55-3.93S146.82,34.28,144.29,33.93Z"/><path class="cls-2" d="M161.52,27.48c-2.46-.66-1.44-4.49,1-3.83S164,28.15,161.52,27.48Z"/><path class="cls-2" d="M121.51,97.6c2,1.6,4.48-1.48,2.49-3.09S119.52,96,121.51,97.6Z"/><path class="cls-2" d="M124.93,77.66c-.45,2.51,3.46,3.2,3.91.68S125.37,75.14,124.93,77.66Z"/><path class="cls-2" d="M107.19,86c2.55-.18,2.27-4.14-.28-4S104.64,86.2,107.19,86Z"/><path class="cls-2" d="M248.65,4.49a1.83,1.83,0,0,0,1.35.68V1.24A2,2,0,0,0,248.65,4.49Z"/><path class="cls-2" d="M1.65,1.89A1.8,1.8,0,0,0,0,1.24V5.17A2,2,0,0,0,1.65,1.89Z"/><path class="cls-2" d="M9.14,4.13c-1.36,2.17,2,4.28,3.36,2.11S10.49,2,9.14,4.13Z"/><path class="cls-2" d="M100.2,240.07c2.55.09,2.42,4.06-.14,4S97.64,240,100.2,240.07Z"/><path class="cls-2" d="M67.57,230.39c1.47,2.09-1.78,4.37-3.25,2.28S66.11,228.3,67.57,230.39Z"/><path class="cls-2" d="M137.56,160.68c-1,2.35,2.66,3.9,3.66,1.55S138.56,158.32,137.56,160.68Z"/><path class="cls-2" d="M135,170.22c2.33-1,4,2.58,1.61,3.62S132.61,171.26,135,170.22Z"/><path class="cls-2" d="M169.47,150.27c-2.5-.53-3.33,3.35-.82,3.88S172,150.81,169.47,150.27Z"/><path class="cls-2" d="M126.75,60.31c1.36,2.16,4.72.06,3.37-2.11S125.4,58.14,126.75,60.31Z"/><path class="cls-2" d="M138.15,34.08c2.54.31,3-3.63.49-3.94S135.62,33.77,138.15,34.08Z"/><path class="cls-2" d="M33.07,232.58c-1.9-1.71.75-4.66,2.65-3S35,234.29,33.07,232.58Z"/><path class="cls-2" d="M57.65,227.88c-2.67-2.76-7,1.38-4.29,4.15S60.32,230.65,57.65,227.88Z"/><path class="cls-2" d="M130.18,233.09c.79-2.42-3-3.65-3.78-1.22S129.39,235.53,130.18,233.09Z"/><path class="cls-2" d="M209.27,155c1.54-2,4.71.35,3.17,2.39S207.74,157,209.27,155Z"/><path class="cls-2" d="M248.05,181.43c-1.36,1.56.36,3.57,1.95,3.24v-3.83A1.78,1.78,0,0,0,248.05,181.43Z"/><path class="cls-2" d="M0,180.84v3.83A1.94,1.94,0,0,0,1.05,184,2,2,0,0,0,0,180.84Z"/><path class="cls-2" d="M26.92,174.2c2.09-1.46,4.37,1.79,2.28,3.26S24.83,175.67,26.92,174.2Z"/><path class="cls-2" d="M38.55,33.35c2.55-.23,2.9,3.73.35,3.95S36,33.57,38.55,33.35Z"/><path class="cls-2" d="M105.39,88.28c-2.55.22-2.21,4.17.34,4S107.93,88.05,105.39,88.28Z"/><path class="cls-2" d="M61.62,113.67c1.93-1.68-.67-4.68-2.6-3S59.69,115.34,61.62,113.67Z"/><path class="cls-2" d="M89.31,110.19a2,2,0,0,0-.69-3.91C86.11,106.72,86.79,110.63,89.31,110.19Z"/><path class="cls-2" d="M229.61,122.78c-2.51-.45-3.21,3.46-.69,3.91S232.13,123.22,229.61,122.78Z"/><path class="cls-2" d="M46.18,153.55c1.57-2,4.7.43,3.13,2.44S44.61,155.57,46.18,153.55Z"/><path class="cls-2" d="M54.19,9c-2.19,1.32-4.24-2.08-2-3.4S56.38,7.71,54.19,9Z"/><path class="cls-2" d="M57,14.35c1.35,2.16-2,4.27-3.37,2.1S55.61,12.18,57,14.35Z"/><path class="cls-2" d="M169.34,46.82c-4.57-2.33-1-9.43,3.62-7.1S173.92,49.15,169.34,46.82Z"/><path class="cls-2" d="M178.28,62.83c2.4.87,1.05,4.6-1.36,3.73S175.88,62,178.28,62.83Z"/><path class="cls-2" d="M214.05,204.25c-1.43,2.12,1.85,4.34,3.29,2.22S215.48,202.13,214.05,204.25Z"/><path class="cls-2" d="M220.15,240.71c2.46-.71,3.56,3.11,1.1,3.81S217.7,241.41,220.15,240.71Z"/><path class="cls-2" d="M49.14,20.09c-2.55.13-2.77-3.83-.21-4S51.69,20,49.14,20.09Z"/><path class="cls-2" d="M68.25,134.71c2.23-1.24.31-4.71-1.93-3.47S66,136,68.25,134.71Z"/><path class="cls-2" d="M123.82,155.67c2.72-2.72-1.5-6.94-4.22-4.22S121.1,158.39,123.82,155.67Z"/><path class="cls-2" d="M219.05,126.59c2.41-.83,1.13-4.59-1.29-3.75S216.63,127.42,219.05,126.59Z"/><path class="cls-2" d="M203.23,47.59c-1.57-2-4.7.43-3.13,2.44S204.8,49.61,203.23,47.59Z"/><path class="cls-2" d="M15.71,207c-.09-2.55,3.88-2.69,4-.13S15.8,209.52,15.71,207Z"/><path class="cls-2" d="M226,57c-.66-2.46,3.17-3.5,3.83-1S226.7,59.48,226,57Z"/><path class="cls-2" d="M86.29,158.52c3.83-.27,3.42-6.23-.41-6S82.45,158.78,86.29,158.52Z"/><path class="cls-2" d="M173.57,193.53c-.87,2.4,2.85,3.76,3.73,1.36S174.44,191.13,173.57,193.53Z"/><path class="cls-2" d="M194,156.92c1.16,2.28,4.7.48,3.54-1.8S192.81,154.64,194,156.92Z"/><path class="cls-2" d="M83.66,36.37c-2.12,1.42-4.34-1.86-2.22-3.29S85.78,34.94,83.66,36.37Z"/><path class="cls-2" d="M77.35,47.86c.18,2.54-3.78,2.83-3.95.27S77.18,45.31,77.35,47.86Z"/><path class="cls-2" d="M92.15,196.6c-2.11-1.43-4.34,1.86-2.22,3.29S94.27,198,92.15,196.6Z"/><path class="cls-2" d="M89.35,234.51c-1.78-1.83-4.63.92-2.86,2.76S91.12,236.35,89.35,234.51Z"/><path class="cls-2" d="M137.42,133.34c-2.55-.22-2.2-4.17.34-4S140,133.57,137.42,133.34Z"/><path class="cls-2" d="M240.36,240.4c2-1.57,4.46,1.55,2.44,3.13S238.34,242,240.36,240.4Z"/><path class="cls-2" d="M249.08,237.91a1.85,1.85,0,0,0,.92,2.42V236.9A1.84,1.84,0,0,0,249.08,237.91Z"/><path class="cls-2" d="M2.76,239.4A2,2,0,0,0,0,236.9v3.43A1.89,1.89,0,0,0,2.76,239.4Z"/><path class="cls-2" d="M122.66,43.28c-1.16,2.27-4.7.47-3.54-1.81S123.82,41,122.66,43.28Z"/><path class="cls-2" d="M111.14,40.41c2.53.35,3.09-3.58.56-3.93S108.61,40.05,111.14,40.41Z"/><path class="cls-2" d="M86.52,64.86c.4,2.53,4.32,1.91,3.92-.62S86.12,62.34,86.52,64.86Z"/><path class="cls-2" d="M235.39,111.06c-2.4.88-1,4.61,1.36,3.73S237.8,110.19,235.39,111.06Z"/><path class="cls-2" d="M138.68,229.82c-1.16,2.27,2.38,4.08,3.54,1.8S139.84,227.54,138.68,229.82Z"/><path class="cls-2" d="M132.65,233.34c.49-2.51,4.39-1.76,3.9.76S132.17,235.85,132.65,233.34Z"/><path class="cls-2" d="M40.28,153.36c.31,2.54,4.25,2.06,3.94-.48S40,150.82,40.28,153.36Z"/><path class="cls-2" d="M173.11,249.24c-.31-2.53-4.25-2.05-3.94.49a2.14,2.14,0,0,0,.06.27h3.83A2.09,2.09,0,0,0,173.11,249.24Z"/><path class="cls-2" d="M173.06,0h-3.83A2,2,0,0,0,173.06,0Z"/><path class="cls-2" d="M15.67,8c2.41.83,3.71-2.92,1.29-3.76S13.25,7.14,15.67,8Z"/><path class="cls-2" d="M13.7,10.9c-2.42.83-1.13,4.58,1.29,3.75S16.11,10.06,13.7,10.9Z"/><path class="cls-2" d="M84.64,27.17c-2.4-.88-1-4.61,1.36-3.73S87,28,84.64,27.17Z"/><path class="cls-2" d="M100.56,84.55c1.39,2.14-1.93,4.31-3.33,2.16S99.17,82.41,100.56,84.55Z"/><path class="cls-2" d="M157.52,134.27c-1.16,2.27-4.7.47-3.54-1.8S158.68,132,157.52,134.27Z"/><path class="cls-2" d="M92.89,213.07c2.4.88,3.76-2.85,1.36-3.72S90.49,212.2,92.89,213.07Z"/><path class="cls-2" d="M146.87,203.53c2.46-.7,3.56,3.11,1.1,3.82S144.42,204.24,146.87,203.53Z"/><path class="cls-2" d="M93.51,3.41C95,5.5,98.22,3.22,96.76,1.13S92,1.31,93.51,3.41Z"/><path class="cls-2" d="M71.52,228.73c.48-2.5,4.38-1.75,3.89.76S71,231.24,71.52,228.73Z"/><path class="cls-2" d="M116.65,128.44c-1.39,2.14-4.72,0-3.33-2.16S118,126.3,116.65,128.44Z"/><path class="cls-2" d="M16.59,43.1c2.47-.66,1.44-4.49-1-3.83S14.12,43.77,16.59,43.1Z"/><path class="cls-2" d="M83.5,12.24c1.71-1.9-1.23-4.56-2.94-2.66S81.79,14.14,83.5,12.24Z"/><path class="cls-2" d="M231.52,189.09c-.48-2.51-4.38-1.75-3.89.76S232,191.6,231.52,189.09Z"/><path class="cls-2" d="M95,136.48c1.32-2.19-2.08-4.23-3.4-2S93.66,138.67,95,136.48Z"/><path class="cls-2" d="M6.55,105.26c-2.55-.09-2.41-4.06.14-4S9.11,105.35,6.55,105.26Z"/><path class="cls-2" d="M189.61,94.58c-2.31,1.08-.64,4.68,1.68,3.6S191.93,93.5,189.61,94.58Z"/><path class="cls-2" d="M168.17,232.35c1.32-2.19-2.08-4.24-3.4-2S166.85,234.54,168.17,232.35Z"/><path class="cls-2" d="M175.18,237.61c2.24-1.24.32-4.71-1.92-3.47S173,238.85,175.18,237.61Z"/><path class="cls-2" d="M110.65,105.61c.09,2.55,4,2.42,4-.14S110.56,103.05,110.65,105.61Z"/><path class="cls-2" d="M173.21,118.24c3.3-2,6.37,3.13,3.08,5.11S169.92,120.22,173.21,118.24Z"/><path class="cls-2" d="M22.67,225c.31-2.53-3.63-3-3.94-.48S22.35,227.51,22.67,225Z"/><path class="cls-2" d="M18.55,76.6c-1.5,2.07-4.72-.26-3.21-2.33S20.05,74.54,18.55,76.6Z"/><path class="cls-2" d="M184.37,229.81c-.48-2.51,3.41-3.27,3.9-.76S184.86,232.32,184.37,229.81Z"/><path class="cls-2" d="M195.8,221.23c2.43-.79,1.21-4.56-1.23-3.77S193.37,222,195.8,221.23Z"/><path class="cls-2" d="M120.34,79.08c2.54-.26,3,3.68.41,4S117.79,79.35,120.34,79.08Z"/><path class="cls-2" d="M227.56,30.74c-2.19,1.32-.15,4.72,2,3.4S229.75,29.42,227.56,30.74Z"/><path class="cls-2" d="M119.4,234.39c1.24,2.24,4.71.32,3.47-1.92S118.16,232.16,119.4,234.39Z"/><path class="cls-2" d="M204.05,230c-1,2.37,2.72,3.86,3.68,1.49S205,227.66,204.05,230Z"/><path class="cls-2" d="M36.08,223.3c-3,2.36-6.71-2.34-3.67-4.71S39.11,220.93,36.08,223.3Z"/><path class="cls-2" d="M42.79,224.67c.18,2.54-3.78,2.82-4,.27S42.61,222.12,42.79,224.67Z"/><path class="cls-2" d="M60.64,226.73c1.58,2,4.71-.43,3.13-2.44S59.07,224.71,60.64,226.73Z"/><path class="cls-2" d="M241.73,18c-.17,2.55,3.78,2.83,4,.28S241.91,15.43,241.73,18Z"/><path class="cls-2" d="M147.35,143.62c-.83,2.41-4.59,1.12-3.75-1.29S148.18,141.2,147.35,143.62Z"/><path class="cls-2" d="M72.1,126c-2.39.92-1,4.63,1.42,3.71S74.49,125,72.1,126Z"/><path class="cls-2" d="M55.72,122.19c-1-2.33,2.59-4,3.63-1.62S56.76,124.52,55.72,122.19Z"/><path class="cls-2" d="M133.84,158.55c2.23,1.23.31,4.71-1.93,3.47S131.6,157.31,133.84,158.55Z"/><path class="cls-2" d="M136.41,153.08c2.54-.18,2.27-4.14-.28-4S133.86,153.26,136.41,153.08Z"/><path class="cls-2" d="M129,145.77c-2.15-1.39-4.31,1.93-2.17,3.32S131.09,147.16,129,145.77Z"/><path class="cls-2" d="M52.75,88.87c.4,2.52-3.52,3.15-3.92.62S52.35,86.34,52.75,88.87Z"/><path class="cls-2" d="M183.22,194.84c-2.24-1.23-4.16,2.23-1.93,3.47S185.45,196.08,183.22,194.84Z"/><path class="cls-2" d="M120.13,184.32c-2.56,0-2.63,3.93-.07,4S122.68,184.37,120.13,184.32Z"/><path class="cls-2" d="M118.31,200.1c-.36-2.53,3.57-3.09,3.93-.56S118.66,202.63,118.31,200.1Z"/><path class="cls-2" d="M107.25,221.32c2.43.79,3.66-3,1.23-3.78S104.82,220.53,107.25,221.32Z"/><path class="cls-2" d="M110.84,234.72c-2.34,1-4-2.58-1.62-3.63S113.17,233.68,110.84,234.72Z"/><path class="cls-2" d="M192.69,51.54c1.46,2.09-1.78,4.37-3.25,2.27S191.22,49.44,192.69,51.54Z"/><path class="cls-2" d="M192.5,38.86c-1.68,1.93,1.31,4.54,3,2.61S194.18,36.93,192.5,38.86Z"/><path class="cls-2" d="M222.26,83.3c1.64-2-1.39-4.51-3-2.55S220.62,85.26,222.26,83.3Z"/><path class="cls-2" d="M218.32,69.43c.88,2.4-2.85,3.76-3.73,1.36S217.45,67,218.32,69.43Z"/><path class="cls-2" d="M213.18,81.13c2.46.7,1.37,4.51-1.09,3.81S210.72,80.42,213.18,81.13Z"/><path class="cls-2" d="M30.71,214.56c.53,2.49,4.41,1.67,3.88-.83S30.18,212.05,30.71,214.56Z"/><path class="cls-2" d="M237.6,153.62c-1.47,2.09-4.72-.18-3.25-2.28S239.07,151.52,237.6,153.62Z"/><path class="cls-2" d="M44.45,144.08c-1.5,2.07-4.71-.26-3.21-2.33S46,142,44.45,144.08Z"/><path class="cls-2" d="M41.68,136.57c-.49,2.5-4.38,1.75-3.9-.76S42.17,134.06,41.68,136.57Z"/><path class="cls-2" d="M149,249.13c-1.06-1.83-3.58-.79-3.71.87h4A2,2,0,0,0,149,249.13Z"/><path class="cls-2" d="M145.53,1.11c1.11,1.92,3.82.69,3.71-1.11h-4A2,2,0,0,0,145.53,1.11Z"/><path class="cls-2" d="M68.15,164.13c-1.32,2.18,2.08,4.23,3.4,2S69.47,161.93,68.15,164.13Z"/><path class="cls-2" d="M95,48.16c-.58-2.48,3.29-3.38,3.87-.89S95.59,50.66,95,48.16Z"/><path class="cls-2" d="M90.7,37.41c-1.16-2.27,2.38-4.08,3.54-1.8S91.86,39.69,90.7,37.41Z"/><path class="cls-2" d="M160.63,81.81c2.41.83,1.13,4.58-1.29,3.75S158.21,81,160.63,81.81Z"/><path class="cls-2" d="M176.8,72.65c1.28-2.21-2.16-4.2-3.44-2S175.52,74.86,176.8,72.65Z"/><path class="cls-2" d="M197.86,118.91c2.47.66,3.5-3.17,1-3.83S195.39,118.25,197.86,118.91Z"/><path class="cls-2" d="M11.36,157.25c-2.53-.32-2-4.25.48-3.94S13.9,157.56,11.36,157.25Z"/><path class="cls-2" d="M8.92,149.89c-2.42.79-3.65-3-1.22-3.78S11.36,149.1,8.92,149.89Z"/><path class="cls-2" d="M30.77,203.9c-1.75-1.86-4.65.84-2.91,2.71S32.51,205.77,30.77,203.9Z"/><path class="cls-2" d="M34.68,196.2c-.74-2.44,3-3.61,3.8-1.16S35.43,198.64,34.68,196.2Z"/><path class="cls-2" d="M53.91,211.89c-2.64,4.39-9.48.3-6.83-4.11S56.55,207.49,53.91,211.89Z"/><path class="cls-2" d="M128.8,29.28c4.72-2,1.61-9.34-3.12-7.33S124.07,31.29,128.8,29.28Z"/><path class="cls-2" d="M184.79,22.51c-.78-2.43,3-3.66,3.78-1.23S185.59,24.94,184.79,22.51Z"/><path class="cls-2" d="M190.68,135.37c0,2.55,4,2.48,4-.07S190.64,132.81,190.68,135.37Z"/><path class="cls-2" d="M207.2,131.56c-2-1.64.59-4.68,2.55-3S209.15,133.21,207.2,131.56Z"/><path class="cls-2" d="M58.91,240.3c-3.77-.73-2.63-6.59,1.14-5.86S62.69,241,58.91,240.3Z"/><path class="cls-2" d="M46.22,241.94c-2-1.61-4.48,1.47-2.5,3.08S48.21,243.55,46.22,241.94Z"/><path class="cls-2" d="M3.88,82.77A2.84,2.84,0,0,0,0,81v5.45C2,87,4.68,85.39,3.88,82.77Z"/><path class="cls-2" d="M248.17,84.51a2.7,2.7,0,0,0,1.83,1.9V81A2.78,2.78,0,0,0,248.17,84.51Z"/><path class="cls-2" d="M107.39,146c2.37-.95.89-4.63-1.48-3.68S105,146.94,107.39,146Z"/><path class="cls-2" d="M94.57,154.83c1.36-2.17-2-4.28-3.36-2.11S93.22,157,94.57,154.83Z"/><path class="cls-2" d="M64,209.88c-1.63-3.48-7-1-5.41,2.52S65.66,213.36,64,209.88Z"/><path class="cls-2" d="M58.52,153c2.49-.57,3.39,3.3.9,3.87S56,153.55,58.52,153Z"/><path class="cls-2" d="M51.39,146.94c-2-1.57.43-4.7,2.44-3.13S53.4,148.52,51.39,146.94Z"/><path class="cls-2" d="M211.3,57c2.55.22,2.9-3.73.35-4S208.76,56.81,211.3,57Z"/><path class="cls-2" d="M153.46,153.92c2.3,1.12,4-2.44,1.74-3.56S151.16,152.8,153.46,153.92Z"/><path class="cls-2" d="M62.46,135c-2-1.6-4.49,1.48-2.5,3.09S64.44,136.57,62.46,135Z"/><path class="cls-2" d="M47.08,133.29c-3.83-.26-4.25,5.69-.42,6S50.92,133.56,47.08,133.29Z"/><path class="cls-2" d="M54,140.61c-1.71-1.9,1.24-4.55,3-2.65S55.71,142.51,54,140.61Z"/><path class="cls-2" d="M198.14,38.57c-2.37-1-.89-4.63,1.49-3.67S200.51,39.53,198.14,38.57Z"/><path class="cls-2" d="M204,31c-2.56,0-2.49,4,.07,4S206.59,30.9,204,31Z"/><path class="cls-2" d="M75.39,167.65c3.74-.87,5.09,4.95,1.34,5.81S71.64,168.51,75.39,167.65Z"/><path class="cls-2" d="M115.91,160.82c-2.21-1.28-4.2,2.16-2,3.44S118.12,162.1,115.91,160.82Z"/><path class="cls-2" d="M125.16,171.26c1.43,3.56,7,1.33,5.53-2.23S123.71,167.7,125.16,171.26Z"/><path class="cls-2" d="M121.59,162c-2.42.83-1.13,4.59,1.29,3.75S124,161.14,121.59,162Z"/><path class="cls-2" d="M126.5,178c-.17-2.54-4.13-2.27-4,.28S126.68,180.52,126.5,178Z"/><path class="cls-2" d="M226.61,207.45c-2.41-.83-1.13-4.58,1.29-3.75S229,208.29,226.61,207.45Z"/><path class="cls-2" d="M158,194.68c-2.48-.62-3.44,3.23-1,3.85S160.44,195.3,158,194.68Z"/><path class="cls-2" d="M169.48,184.43c2.28-1.16.48-4.7-1.8-3.54S167.21,185.59,169.48,184.43Z"/><path class="cls-2" d="M162,202.76c2.55-.09,2.42-4.06-.14-4S159.4,202.85,162,202.76Z"/><path class="cls-2" d="M189.46,156.26c1,2.35-2.65,3.9-3.65,1.55S188.46,153.9,189.46,156.26Z"/><path class="cls-2" d="M169.16,175.09c-1,2.35-4.65.8-3.65-1.55S170.16,172.74,169.16,175.09Z"/><path class="cls-2" d="M176.5,153.21c-3.83.26-3.42,6.22.42,5.95S180.34,152.94,176.5,153.21Z"/><path class="cls-2" d="M74,120.58c1.46-2.09,4.71.18,3.25,2.27S72.51,122.67,74,120.58Z"/><path class="cls-2" d="M151.34,97c-3.54-1.5-5.88,4-2.33,5.49S154.88,98.46,151.34,97Z"/><path class="cls-2" d="M160.84,94.93c-2.53.31-3-3.63-.48-3.94S163.38,94.62,160.84,94.93Z"/><path class="cls-2" d="M132.9,195.49c2.19-1.32,4.24,2.08,2,3.4S130.71,196.8,132.9,195.49Z"/><path class="cls-2" d="M139.61,178.06c-.36-2.53-4.29-2-3.93.55S140,180.59,139.61,178.06Z"/><path class="cls-2" d="M129.9,180.2c2.44.75,1.28,4.54-1.16,3.8S127.45,179.45,129.9,180.2Z"/><path class="cls-2" d="M92,41.24c1.31,2.19-2.09,4.24-3.41,2S90.65,39.05,92,41.24Z"/><path class="cls-2" d="M89.65,52c-.73,3.77-6.59,2.64-5.86-1.14S90.38,48.25,89.65,52Z"/><path class="cls-2" d="M135,12.85c3-2.37-.64-7.07-3.67-4.7S132,15.22,135,12.85Z"/><path class="cls-2" d="M114.68,7.41c-2.19-1.32-.15-4.72,2-3.4S116.87,8.73,114.68,7.41Z"/><path class="cls-2" d="M79.55,188.55c2.49.53,3.32-3.35.82-3.88S77,188,79.55,188.55Z"/><path class="cls-2" d="M139.23,154c2.26-1.19,4.13,2.31,1.87,3.51S137,155.19,139.23,154Z"/><path class="cls-2" d="M139.74,144.23c2,1.57-.42,4.7-2.44,3.13S137.73,142.66,139.74,144.23Z"/><path class="cls-2" d="M147.87,156.08c-1.93-1.67.67-4.67,2.6-3S149.8,157.76,147.87,156.08Z"/><path class="cls-2" d="M146.38,195.76c1.84-1.77,4.6,1.08,2.76,2.86S144.54,197.54,146.38,195.76Z"/><path class="cls-2" d="M22.34,169.59c2.53.36,2,4.29-.55,3.93S19.81,169.23,22.34,169.59Z"/><path class="cls-2" d="M23.74,161.26c-2.25,1.2-4.12-2.3-1.86-3.5S26,160.06,23.74,161.26Z"/><path class="cls-2" d="M94.55,240.68c3.22,2.1,0,7.1-3.25,5S91.32,238.59,94.55,240.68Z"/><path class="cls-2" d="M101.81,231.29c1.84,1.77,4.6-1.08,2.76-2.86S100,229.51,101.81,231.29Z"/><path class="cls-2" d="M101.84,236.53c-.35,2.53,3.58,3.09,3.93.55S102.2,234,101.84,236.53Z"/><path class="cls-2" d="M41.58,65.78c2.22,1.28,4.2-2.16,2-3.43S39.37,64.5,41.58,65.78Z"/><path class="cls-2" d="M54.29,80.45c1.8-3.39-3.47-6.2-5.27-2.81S52.48,83.84,54.29,80.45Z"/><path class="cls-2" d="M221.11,31.19c2.45-.74,3.61,3.05,1.16,3.8S218.67,31.94,221.11,31.19Z"/><path class="cls-2" d="M215.14,29.09c-1.35,2.17,2,4.27,3.37,2.1S216.5,26.92,215.14,29.09Z"/><path class="cls-2" d="M41.85,3.27A2.8,2.8,0,0,0,44.19,0H38.46A2.91,2.91,0,0,0,41.85,3.27Z"/><path class="cls-2" d="M40.81,247.39A2.74,2.74,0,0,0,38.46,250h5.73A2.84,2.84,0,0,0,40.81,247.39Z"/><path class="cls-2" d="M28.94,237.74c-2-1.64.59-4.68,2.55-3S30.9,239.39,28.94,237.74Z"/><path class="cls-2" d="M25.47,245c-1.15,2.28,2.38,4.08,3.54,1.81S26.64,242.77,25.47,245Z"/><path class="cls-2" d="M234.19,157.51c-3.15-2.2-6.57,2.69-3.42,4.89S237.34,159.72,234.19,157.51Z"/><path class="cls-2" d="M130,118.63c2.23,1.23.31,4.71-1.93,3.47S127.71,117.39,130,118.63Z"/><path class="cls-2" d="M137.39,124.77c-1,2.33-4.66.72-3.62-1.61S138.43,122.43,137.39,124.77Z"/><path class="cls-2" d="M130.2,141.2c2.46.7,3.55-3.11,1.1-3.82S127.74,140.49,130.2,141.2Z"/><path class="cls-2" d="M102.36,223.29c2-1.61-.51-4.69-2.5-3.08S100.37,224.9,102.36,223.29Z"/><path class="cls-2" d="M86.29,210c-3.84,0-3.85,6,0,6S90.13,210,86.29,210Z"/><path class="cls-2" d="M5.46,202.32c-2.43-.79-3.66,3-1.23,3.77S7.89,203.11,5.46,202.32Z"/><path class="cls-2" d="M19.58,202.92c2.77,2.66,6.92-1.62,4.15-4.3S16.82,200.25,19.58,202.92Z"/><path class="cls-2" d="M9.23,192.63c-1.12-2.29,2.44-4,3.56-1.74S10.35,194.93,9.23,192.63Z"/><path class="cls-2" d="M65.8,86.81c-3,4.14-9.47-.53-6.45-4.69S68.82,82.65,65.8,86.81Z"/><path class="cls-2" d="M178.7,167.45c-2.17,1.35-.07,4.72,2.1,3.36S180.86,166.09,178.7,167.45Z"/><path class="cls-2" d="M196.1,179.07c1.27,2.21-2.16,4.2-3.44,2S194.82,176.85,196.1,179.07Z"/><path class="cls-2" d="M183.73,166.29c-2.29,1.12-4-2.45-1.74-3.57S186,165.16,183.73,166.29Z"/><path class="cls-2" d="M207.75,71.66c-1.42-2.11-4.72.1-3.29,2.22S209.18,73.78,207.75,71.66Z"/><path class="cls-2" d="M211.2,70.08c-2.49.58-3.38-3.29-.89-3.87S213.69,69.51,211.2,70.08Z"/><path class="cls-2" d="M200.22,56.45c2.55,0,2.62-3.92.07-4S197.66,56.41,200.22,56.45Z"/><path class="cls-2" d="M191,64.23c1.83,1.77,4.59-1.08,2.75-2.85S189.17,62.45,191,64.23Z"/><path class="cls-2" d="M245.65,247.66a2.85,2.85,0,0,0,4.35.44v-4.45C247.64,241.61,243.61,244.75,245.65,247.66Z"/><path class="cls-2" d="M.54,244.24a3.45,3.45,0,0,0-.54-.59v4.45A2.77,2.77,0,0,0,.54,244.24Z"/><path class="cls-2" d="M120.51,54.51c2.25,1.2,4.12-2.3,1.86-3.5S118.25,53.31,120.51,54.51Z"/><path class="cls-2" d="M105.75,50.75c-.27-2.54-4.22-2.13-4,.41S106,53.29,105.75,50.75Z"/><path class="cls-2" d="M118.76,55.4c1.68,1.92-1.32,4.53-3,2.6S117.08,53.47,118.76,55.4Z"/><path class="cls-2" d="M231.23,76.43C229,77.67,227.07,74.2,229.3,73S233.46,75.19,231.23,76.43Z"/><path class="cls-2" d="M94.23,109.63c1.81,1.81,4.61-1,2.81-2.8S92.42,107.82,94.23,109.63Z"/><path class="cls-2" d="M189.35,191.72c2.54-.31,2.06-4.25-.48-3.94S186.81,192,189.35,191.72Z"/><path class="cls-2" d="M176.44,176.18c3.65-1.18,5.5,4.49,1.84,5.68S172.78,177.37,176.44,176.18Z"/><path class="cls-2" d="M185,180.08c1.93-1.67,4.54,1.32,2.61,3S183,181.76,185,180.08Z"/><path class="cls-2" d="M172.37,26.36c-.62-2.48-4.47-1.52-3.86,1S173,28.84,172.37,26.36Z"/><path class="cls-2" d="M179.64,24.63c2.55.09,2.69-3.88.14-4S177.08,24.54,179.64,24.63Z"/><path class="cls-2" d="M171,32c-2.24,1.24-.32,4.71,1.92,3.47S173.27,30.79,171,32Z"/><path class="cls-2" d="M15,137.3c1.65,1.95-1.39,4.51-3,2.55S13.37,135.34,15,137.3Z"/><path class="cls-2" d="M19.55,120.67c-2.54-.32-3,3.62-.49,3.93S22.08,121,19.55,120.67Z"/><path class="cls-2" d="M144.66,130.14c3.63-1.25,1.69-6.89-1.95-5.64S141,131.39,144.66,130.14Z"/><path class="cls-2" d="M156.08,128.76c-2.44-.75-1.29-4.54,1.16-3.79S158.53,129.51,156.08,128.76Z"/><path class="cls-2" d="M139.69,120.6c3.82.4,4.45-5.53.63-5.94S135.87,120.2,139.69,120.6Z"/><path class="cls-2" d="M143,110.82c-.87,2.4,2.85,3.76,3.73,1.36S143.87,108.42,143,110.82Z"/><path class="cls-2" d="M62.81,107.71c1.89-1.71-.76-4.66-2.66-2.95S60.91,109.42,62.81,107.71Z"/><path class="cls-2" d="M54.16,110.12c2.5.53,3.33-3.35.83-3.89S51.66,109.58,54.16,110.12Z"/><path class="cls-2" d="M47.57,94.44c2.35-1,3.9,2.65,1.55,3.65S45.21,95.44,47.57,94.44Z"/><path class="cls-2" d="M40.78,104.7c.58,2.49-3.29,3.39-3.86.89S40.21,102.21,40.78,104.7Z"/><path class="cls-2" d="M36.54,98c2.32-1.08.65-4.68-1.67-3.59S34.23,99,36.54,98Z"/><path class="cls-2" d="M47,106c2.54-.27,2.13-4.22-.42-4S44.41,106.26,47,106Z"/><path class="cls-2" d="M104.78,156.66c2.41-.84,1.13-4.59-1.29-3.76S102.36,157.49,104.78,156.66Z"/><path class="cls-2" d="M98.64,171.87c2.53-.31,2-4.25-.49-3.94S96.1,172.18,98.64,171.87Z"/><path class="cls-2" d="M110.58,156.08c2,1.65-.59,4.69-2.55,3S108.62,154.44,110.58,156.08Z"/><path class="cls-2" d="M91.79,163.29c3.11,2.26,6.62-2.57,3.51-4.83S88.68,161,91.79,163.29Z"/><path class="cls-2" d="M241.38,126.49c2.52-.36,3.08,3.57.55,3.93S238.84,126.84,241.38,126.49Z"/><path class="cls-2" d="M245.12,120.35c-2.33-1-.72-4.66,1.61-3.62S247.45,121.39,245.12,120.35Z"/><path class="cls-2" d="M241.41,180.79c-.62-2.47,3.23-3.44,3.85-1S242,183.28,241.41,180.79Z"/><path class="cls-2" d="M236,166.14c.62,2.48,4.47,1.52,3.85-1S235.37,163.66,236,166.14Z"/><path class="cls-2" d="M90.72,183.55c-.58-2.49,3.29-3.38,3.87-.89S91.29,186,90.72,183.55Z"/><path class="cls-2" d="M91,170.62c-2.23,1.24-.31,4.71,1.93,3.47S93.26,169.38,91,170.62Z"/><path class="cls-2" d="M79.3,177.47c1.08-2.32,4.68-.64,3.6,1.67S78.22,179.79,79.3,177.47Z"/><path class="cls-2" d="M78.56,57.54c-3.82.41-4.45-5.53-.62-5.93S82.39,57.14,78.56,57.54Z"/><path class="cls-2" d="M85.08,59.45c1.81,1.8-1,4.61-2.81,2.8S83.27,57.64,85.08,59.45Z"/><path class="cls-2" d="M69.28,68.33c-2,3.29-7.1.22-5.12-3.08S71.26,65,69.28,68.33Z"/><path class="cls-2" d="M72.75,73.58c-1.92,4.75,5.46,7.74,7.39,3S74.67,68.82,72.75,73.58Z"/><path class="cls-2" d="M72.75,56c-1.6-2-4.69.51-3.08,2.5S74.36,58,72.75,56Z"/><path class="cls-2" d="M181.84,231.89c2.27,1.16.47,4.7-1.81,3.54S179.56,230.73,181.84,231.89Z"/><path class="cls-2" d="M134.75,241.62c2.36,3-2.34,6.7-4.7,3.67S132.38,238.59,134.75,241.62Z"/><path class="cls-2" d="M3.88,76.79c-2.47.66-3.5-3.18-1-3.84S6.35,76.12,3.88,76.79Z"/><path class="cls-2" d="M12.75,65.39c2.34,1,3.95-2.58,1.62-3.62S10.42,64.35,12.75,65.39Z"/><path class="cls-2" d="M9.41,72.48c-2.53.31-2,4.25.48,3.94S12,72.17,9.41,72.48Z"/><path class="cls-2" d="M41.52,147.12c1.16,2.27-2.38,4.08-3.54,1.8S40.36,144.84,41.52,147.12Z"/><path class="cls-2" d="M219.75,88.54c-1.9,1.71-4.55-1.24-2.65-3S221.65,86.83,219.75,88.54Z"/><path class="cls-2" d="M210.41,88.4c-2.14-1.39-4.31,1.93-2.16,3.33S212.56,89.79,210.41,88.4Z"/><path class="cls-2" d="M199.51,148.09c2.55-.05,2.49-4-.07-4S197,148.13,199.51,148.09Z"/><path class="cls-2" d="M208,149.72c.61,2.48,4.47,1.52,3.85-1S207.37,147.24,208,149.72Z"/><path class="cls-2" d="M31.26,107.05c-1.83-1.78.92-4.63,2.76-2.86S33.1,108.82,31.26,107.05Z"/><path class="cls-2" d="M14.31,113.67c1.77-1.83,4.63.92,2.85,2.76S12.53,115.51,14.31,113.67Z"/><path class="cls-2" d="M29.32,5.6c0-2.55,4-2.49,4,.07S29.28,8.16,29.32,5.6Z"/><path class="cls-2" d="M21.24.66c-2.52.45-1.83,4.36.69,3.91S23.76.22,21.24.66Z"/><path class="cls-2" d="M89.21,27.91c2.4-.87,3.76,2.85,1.36,3.73S86.81,28.78,89.21,27.91Z"/><path class="cls-2" d="M98.54,28.63c1.93,1.68-.67,4.68-2.6,3S96.61,27,98.54,28.63Z"/><path class="cls-2" d="M207.41,165.7c-2.49.54-3.32-3.35-.82-3.88S209.92,165.17,207.41,165.7Z"/><path class="cls-2" d="M207.82,152.84c.57,2.49-3.29,3.39-3.87.89S207.24,150.35,207.82,152.84Z"/><path class="cls-2" d="M202,151.93c-.57-2.49-4.44-1.6-3.86.89S202.55,154.42,202,151.93Z"/><path class="cls-2" d="M196.86,160.39c-2.16-1.36-4.27,2-2.1,3.36S199,161.74,196.86,160.39Z"/><path class="cls-2" d="M66.52,186.67c2.3,1.12.56,4.69-1.74,3.56S64.22,185.55,66.52,186.67Z"/><path class="cls-2" d="M72.65,175.36c3.36,1.86.47,7.08-2.9,5.22S69.28,173.49,72.65,175.36Z"/><path class="cls-2" d="M86.89,92.42c-2.55.22-2.9-3.73-.35-4S89.43,92.2,86.89,92.42Z"/><path class="cls-2" d="M87.67,80.67c1.37,3.58-4.2,5.73-5.57,2.13S86.29,77.07,87.67,80.67Z"/><path class="cls-2" d="M113.34,183.14c.73,3.77-5.12,4.91-5.86,1.14S112.61,179.36,113.34,183.14Z"/><path class="cls-2" d="M100.77,177.86c-.18-2.54-4.14-2.27-4,.28S100.94,180.42,100.77,177.86Z"/><path class="cls-2" d="M100.18,192.26c2.53.31,2,4.25-.48,3.94S97.64,192,100.18,192.26Z"/><path class="cls-2" d="M120.43,203.85c2.44-.74,3.61,3.05,1.16,3.8S118,204.6,120.43,203.85Z"/><path class="cls-2" d="M226,26.73c-1.74-1.87,1.16-4.57,2.9-2.7S227.74,28.6,226,26.73Z"/><path class="cls-2" d="M237.64,98.14c-2.41.83-1.13,4.58,1.29,3.75S240.06,97.31,237.64,98.14Z"/><path class="cls-2" d="M5.45,111.21c-6.41-.11-6.59,9.86-.17,10S11.88,111.33,5.45,111.21Z"/><path class="cls-2" d="M208.66,51.78c.92-2.38-2.78-3.81-3.7-1.42S207.75,54.17,208.66,51.78Z"/><path class="cls-2" d="M7,53.52c-1.31,2.19,2.09,4.24,3.4,2S8.28,51.33,7,53.52Z"/><path class="cls-2" d="M150,138.84c1.7,1.9,4.66-.75,2.94-2.65S148.28,136.94,150,138.84Z"/><path class="cls-2" d="M153.91,144.76c-1.74-1.87-4.64.83-2.9,2.71S155.66,146.63,153.91,144.76Z"/><path class="cls-2" d="M168.19,126.57a2,2,0,0,1,0,4C165.64,130.53,165.64,126.57,168.19,126.57Z"/><path class="cls-2" d="M160.4,128.49c.88,2.4,4.61,1,3.73-1.36S159.53,126.09,160.4,128.49Z"/><path class="cls-2" d="M161.63,115.42c-2.39-.88-3.76,2.85-1.35,3.72S164,116.29,161.63,115.42Z"/><path class="cls-2" d="M220.43,249.77a2.18,2.18,0,0,0-.09.23H224A2,2,0,0,0,220.43,249.77Z"/><path class="cls-2" d="M223.9,1.7A1.79,1.79,0,0,0,224,0h-3.65C219.44,2.13,222.71,3.86,223.9,1.7Z"/><path class="cls-2" d="M217.59,16.25c2.11-1.43-.1-4.72-2.22-3.29S215.47,17.68,217.59,16.25Z"/><path class="cls-2" d="M235.3,14.08c.88,2.4-2.85,3.76-3.72,1.36S234.43,11.68,235.3,14.08Z"/><path class="cls-2" d="M217.16,8.34A2,2,0,0,0,213.54,10C214.58,12.28,218.2,10.67,217.16,8.34Z"/><path class="cls-2" d="M230.06,19.29c.13-2.55-3.83-2.76-4-.21S229.92,21.85,230.06,19.29Z"/><path class="cls-2" d="M187.27,205.66c-1.16-5,6.61-6.8,7.76-1.8S188.42,210.66,187.27,205.66Z"/><path class="cls-2" d="M48.14,192.68c-2.54-.31-2.06-4.25.48-3.93S50.68,193,48.14,192.68Z"/><path class="cls-2" d="M51.16,199.87c-1.12,2.29-4.69.55-3.57-1.74S52.28,197.57,51.16,199.87Z"/><path class="cls-2" d="M183.58,69.38c2.12-1.43,4.34,1.86,2.22,3.29S181.46,70.81,183.58,69.38Z"/><path class="cls-2" d="M104.36,198.76c1.41,4.93,9.07,2.74,7.66-2.2S102.94,193.82,104.36,198.76Z"/><path class="cls-2" d="M110.85,207.51c-1,2.33,2.59,4,3.63,1.61S111.89,205.17,110.85,207.51Z"/><path class="cls-2" d="M94.59,203c-1.32-2.19,2.08-4.24,3.4-2S95.9,205.23,94.59,203Z"/><path class="cls-2" d="M141.24,206.33c2.16-1.35,4.27,2,2.1,3.37S139.07,207.69,141.24,206.33Z"/><path class="cls-2" d="M138.87,214.07c-3.71-1-5.26,4.77-1.55,5.76S142.58,215.06,138.87,214.07Z"/><path class="cls-2" d="M235.54,68.73c-1.64-2,1.39-4.51,3-2.56S237.18,70.68,235.54,68.73Z"/><path class="cls-2" d="M179.79,14.38c.93-3.72,6.72-2.29,5.79,1.45S178.86,18.12,179.79,14.38Z"/><path class="cls-2" d="M197.18,6.67c2-1.61,4.49,1.47,2.5,3.08S195.2,8.28,197.18,6.67Z"/><path class="cls-2" d="M179.65,7.86c3.14-2.21-.27-7.1-3.42-4.89S176.5,10.06,179.65,7.86Z"/><path class="cls-2" d="M150.83,93.7c-2.26-1.2-.4-4.71,1.86-3.51S153.08,94.9,150.83,93.7Z"/><path class="cls-2" d="M153.86,86.23c.22,2.54-3.73,2.89-4,.34S153.63,83.68,153.86,86.23Z"/><path class="cls-2" d="M150.06,81.23c-3.71,1-5.26-4.76-1.54-5.76S153.78,80.24,150.06,81.23Z"/><path class="cls-2" d="M151.28,66.23c.27-2.54-3.68-3-3.94-.42S151,68.77,151.28,66.23Z"/><path class="cls-2" d="M129.71,68.12c-3.83.27-3.42,6.22.42,5.95S133.55,67.85,129.71,68.12Z"/><path class="cls-2" d="M134.91,79.74c0-2.55,4-2.49,4,.07S134.86,82.3,134.91,79.74Z"/><path class="cls-2" d="M136,63c1.31,2.19-2.09,4.24-3.4,2.05S134.67,60.8,136,63Z"/><path class="cls-2" d="M141.6,61.66c0,2.56,4,2.56,4,0S141.6,59.1,141.6,61.66Z"/><path class="cls-2" d="M105.75,10.35c.92-2.38-2.78-3.81-3.7-1.42S104.84,12.74,105.75,10.35Z"/><path class="cls-2" d="M110.56,5.28c.22-2.55-3.73-2.9-4-.35S110.33,7.83,110.56,5.28Z"/><path class="cls-2" d="M34.1,18.06c-2.29-1.11-4,2.45-1.74,3.57S36.4,19.19,34.1,18.06Z"/><path class="cls-2" d="M34.06,37.12c.45-2.52-3.46-3.21-3.9-.69S33.62,39.64,34.06,37.12Z"/><path class="cls-2" d="M22.8,34.54c2.48-.62,3.44,3.23,1,3.85S20.32,35.15,22.8,34.54Z"/><path class="cls-2" d="M242.7,227.67c-.13-2.55-4.1-2.35-4,.21S242.83,230.22,242.7,227.67Z"/><path class="cls-2" d="M223.47,239.69c-.83-2.41,2.92-3.71,3.76-1.29S224.31,242.11,223.47,239.69Z"/><path class="cls-2" d="M242.79,237.7c3.84-.07,3.74-6-.1-6S239,237.77,242.79,237.7Z"/><path class="cls-2" d="M236.4,222.55c-.09-2.55-4.05-2.42-4,.14S236.49,225.1,236.4,222.55Z"/><path class="cls-2" d="M75.59,219.17c2.51-.49,1.75-4.38-.76-3.89S73.08,219.66,75.59,219.17Z"/><path class="cls-2" d="M85.9,231.59c2.54.27,3-3.68.42-4S83.36,231.32,85.9,231.59Z"/><path class="cls-2" d="M73.76,222c.66,2.47-3.17,3.5-3.83,1S73.1,219.48,73.76,222Z"/><path class="cls-2" d="M36.58,132c-.53,2.5-4.41,1.68-3.88-.82S37.11,129.53,36.58,132Z"/><path class="cls-2" d="M27.62,143.83c-1.74,1.87,1.16,4.58,2.91,2.71S29.37,142,27.62,143.83Z"/><path class="cls-2" d="M118,144.18c-.62,2.48,3.23,3.44,3.85,1S118.63,141.7,118,144.18Z"/><path class="cls-2" d="M110,148.55c-.66-3.78,5.21-4.83,5.88-1S110.7,152.34,110,148.55Z"/><path class="cls-2" d="M124.77,140.8c1.84-1.77-.92-4.63-2.76-2.85S122.93,142.58,124.77,140.8Z"/><path class="cls-2" d="M56.16,72.23c-2.5.53-3.33-3.35-.82-3.88S58.66,71.7,56.16,72.23Z"/><path class="cls-2" d="M61,58.81c-1.5,2.06,1.71,4.4,3.21,2.33S62.53,56.74,61,58.81Z"/><path class="cls-2" d="M75.34,92c3.59-1.37,1.45-7-2.14-5.57S71.75,93.35,75.34,92Z"/><path class="cls-2" d="M15.28,22.26c-1.2,2.25,2.3,4.12,3.5,1.86S16.48,20,15.28,22.26Z"/><path class="cls-2" d="M249.34,33.66a5.83,5.83,0,0,0,.66.17V26C246.59,26.63,245.27,32.17,249.34,33.66Z"/><path class="cls-2" d="M2.07,26.17A3.87,3.87,0,0,0,0,26v7.84C4.4,34.71,6.67,27.84,2.07,26.17Z"/><path class="cls-2" d="M246,62.48c.87,2.4,4.6,1.05,3.73-1.35S245.07,60.08,246,62.48Z"/><path class="cls-2" d="M30.15,186.06c-5.06-.81-6.32,7.06-1.25,7.87S35.22,186.86,30.15,186.06Z"/><path class="cls-2" d="M37.64,189.66c-1.36-2.17,2-4.28,3.36-2.11S39,191.83,37.64,189.66Z"/><path class="cls-2" d="M205.76,242.86c-.71-2.45,3.11-3.55,3.81-1.09S206.46,245.32,205.76,242.86Z"/><path class="cls-2" d="M198.62.7c2.49-.58,3.39,3.29.9,3.86S196.13,1.27,198.62.7Z"/><path class="cls-2" d="M29.08,80.44c2.55,0,2.56,4,0,4S26.52,80.44,29.08,80.44Z"/><path class="cls-2" d="M43.32,80.33c-.44-2.52-4.35-1.83-3.91.69S43.77,82.85,43.32,80.33Z"/><path class="cls-2" d="M42.45,90c-1.46-2.09,1.79-4.37,3.25-2.28S43.92,92.13,42.45,90Z"/><path class="cls-2" d="M249.26,208.74c-1.81-1.8-4.62,1-2.81,2.81S251.07,210.55,249.26,208.74Z"/><path class="cls-2" d="M235.17,211.76c-3-2.41-6.74,2.22-3.75,4.64S238.16,214.18,235.17,211.76Z"/><path class="cls-2" d="M77.73,6.62c2,1.6-.51,4.69-2.49,3.08S75.75,5,77.73,6.62Z"/><path class="cls-2" d="M85,249.33a2,2,0,0,0,.17.67h3.63a2,2,0,0,0,.16-.95C88.76,246.5,84.8,246.78,85,249.33Z"/><path class="cls-2" d="M88.78,0H85.15A2,2,0,0,0,88.78,0Z"/><path class="cls-2" d="M89.68,5.62c-3.72-.93-5.17,4.86-1.44,5.79S93.42,6.55,89.68,5.62Z"/><path class="cls-2" d="M179.52,81.67c1-2.35-2.65-3.91-3.65-1.55S178.52,84,179.52,81.67Z"/><path class="cls-2" d="M181.66,100.12c-2.21,1.28-4.2-2.16-2-3.44S183.87,98.84,181.66,100.12Z"/><path class="cls-2" d="M170.21,86.56c3.15-2.21,6.57,2.68,3.42,4.88S167.06,88.76,170.21,86.56Z"/><path class="cls-2" d="M43.89,12.72c-2.81-2.62,1.26-7,4.07-4.36S46.7,15.35,43.89,12.72Z"/><path class="cls-2" d="M35.34,6.44c-.4-2.52,3.52-3.15,3.92-.62S35.74,9,35.34,6.44Z"/><path class="cls-2" d="M152.66,3.86c-.2,3.84,5.76,4.16,6,.32S152.86,0,152.66,3.86Z"/><path class="cls-2" d="M141,8.07c-3.18,2.14.15,7.1,3.34,4.94S144.15,5.92,141,8.07Z"/><path class="cls-2" d="M158.43,15.13c-2.09,3.22,2.91,6.48,5,3.25S160.52,11.91,158.43,15.13Z"/><path class="cls-2" d="M147.55,21.52c2.2-3.15-2.68-6.58-4.89-3.43S145.34,24.67,147.55,21.52Z"/><path class="cls-2" d="M76.62,12.84c2.42.83,1.13,4.59-1.29,3.75S74.21,12,76.62,12.84Z"/><path class="cls-2" d="M78,18.69c.91-2.38,4.62-1,3.7,1.42S77.11,21.08,78,18.69Z"/><path class="cls-2" d="M234.42,177.31c-.44,2.51,3.46,3.21,3.91.69S234.86,174.79,234.42,177.31Z"/><path class="cls-2" d="M124.45,215.54c2.54-.18,2.83,3.78.27,4S121.9,215.72,124.45,215.54Z"/><path class="cls-2" d="M132,228.59c-5.12-.09-5-8.06.14-8S137.14,228.68,132,228.59Z"/><path class="cls-2" d="M119.42,218.08c2.57-2.85-1.86-6.85-4.43-4S116.85,220.94,119.42,218.08Z"/><path class="cls-2" d="M89.18,119.47c2.09-1.46,4.37,1.79,2.27,3.25S87.08,120.94,89.18,119.47Z"/><path class="cls-2" d="M105.24,133.16c1.92,1.68-.68,4.67-2.61,3S103.31,131.48,105.24,133.16Z"/><path class="cls-2" d="M93.79,76.75c-.62,5.08,7.29,6.06,7.91,1S94.42,71.65,93.79,76.75Z"/><path class="cls-2" d="M103.9,56.35c2.47-3,7,.88,4.57,3.83S101.43,59.29,103.9,56.35Z"/><path class="cls-2" d="M95,68.57c1.93-1.67-.67-4.67-2.6-3S93.07,70.25,95,68.57Z"/><path class="cls-2" d="M115.24,63.27c4.3,2.79,0,9.48-4.34,6.68S110.93,60.47,115.24,63.27Z"/><path class="cls-2" d="M92.52,58.9c1.44-3.56,7-1.33,5.53,2.23S91.08,62.46,92.52,58.9Z"/><path class="cls-2" d="M107.75,35.59c-2.51-.44-1.82-4.35.69-3.9S110.27,36,107.75,35.59Z"/><path class="cls-2" d="M103.88,24.09c2.21,1.28,4.2-2.16,2-3.44S101.67,22.81,103.88,24.09Z"/><path class="cls-2" d="M114.84,22.86c-5.86-2.61-1.82-11.72,4-9.11S120.71,25.47,114.84,22.86Z"/><path class="cls-2" d="M182.16,45.07c-1.24,2.23-4.71.31-3.47-1.93S183.4,42.83,182.16,45.07Z"/><path class="cls-2" d="M183.39,36.1c1.64,1.95-1.39,4.51-3,2.55S181.75,34.14,183.39,36.1Z"/><path class="cls-2" d="M104.77,113.11c2.33-1,.72-4.67-1.61-3.62S102.43,114.15,104.77,113.11Z"/><path class="cls-2" d="M109.33,97.17c-1.87,1.74-4.58-1.16-2.71-2.9S111.2,95.42,109.33,97.17Z"/><path class="cls-2" d="M6.19,159.85c-1.16,2.27-4.7.47-3.54-1.8S7.35,157.57,6.19,159.85Z"/><path class="cls-2" d="M17.58,162.86c1.27-2.21,4.71-.23,3.43,2S16.3,165.08,17.58,162.86Z"/><path class="cls-2" d="M17.2,156.35c-2.55-.18-2.83,3.78-.28,4S19.75,156.53,17.2,156.35Z"/><path class="cls-2" d="M234.37,55.45c-3.23,4,3,9,6.19,5S237.6,51.46,234.37,55.45Z"/><path class="cls-2" d="M235,38.13c-1.12-2.29,2.45-4,3.57-1.74S236.15,40.43,235,38.13Z"/><path class="cls-2" d="M244.36,37.2c.83-2.41,4.58-1.12,3.75,1.29S243.53,39.62,244.36,37.2Z"/><path class="cls-2" d="M42.47,123.67c2.43-.79,3.66,3,1.23,3.78S40,124.46,42.47,123.67Z"/><path class="cls-2" d="M37.06,110.32c-.58,2.48,3.29,3.38,3.86.89S37.63,107.82,37.06,110.32Z"/><path class="cls-2" d="M52.8,120.43c1.84-4.79-5.6-7.65-7.44-2.86S51,125.22,52.8,120.43Z"/><path class="cls-2" d="M28.29,121.25c3.42-1.75,6.14,3.57,2.71,5.31S24.86,123,28.29,121.25Z"/><path class="cls-2" d="M213.15,20.32c2.95-2.47,6.79,2.1,3.84,4.57S210.21,22.79,213.15,20.32Z"/><path class="cls-2" d="M193,16.42c3.77-.74,4.92,5.12,1.14,5.85S189.2,17.15,193,16.42Z"/><path class="cls-2" d="M197.49,13.82c.87-2.4,4.6-1.05,3.73,1.36S196.62,16.22,197.49,13.82Z"/><path class="cls-2" d="M208.72,13.3c-2.29,1.12-.56,4.69,1.74,3.57S211,12.18,208.72,13.3Z"/><path class="cls-2" d="M82.6,200c-.45,2.52,3.46,3.21,3.91.69S83,197.52,82.6,200Z"/><path class="cls-2" d="M76.49,193.92c1.39,2.14,4.72,0,3.33-2.16S75.1,191.78,76.49,193.92Z"/><path class="cls-2" d="M70.88,191.28c-2.55-.09-2.69,3.88-.14,4S73.44,191.37,70.88,191.28Z"/><path class="cls-2" d="M76.45,210.94c-1-2.37-4.63-.89-3.68,1.48S77.41,213.31,76.45,210.94Z"/><path class="cls-2" d="M70,208c1.39,2.15-1.93,4.31-3.32,2.17S68.62,205.82,70,208Z"/><path class="cls-2" d="M174.76,50.27c.22,2.54,4.17,2.2,4-.34S174.53,47.72,174.76,50.27Z"/><path class="cls-2" d="M175.13,60.54c-3.58-1.37-1.45-6.95,2.14-5.57S178.72,61.92,175.13,60.54Z"/><path class="cls-2" d="M186,57.66c-.13,2.55,3.83,2.76,4,.21S186.15,55.11,186,57.66Z"/><path class="cls-2" d="M5.52,188.89c-1.24-2.67-4.69-1.81-5.52.3v1.9c0,.11.06.21.11.32C1.74,194.9,7.14,192.37,5.52,188.89Z"/><path class="cls-2" d="M250,191.09v-1.9A2.7,2.7,0,0,0,250,191.09Z"/><path class="cls-2" d="M236.58,187.34c3.79-.6,4.73,5.29.93,5.9S232.78,187.94,236.58,187.34Z"/><path class="cls-2" d="M235,201.85c-1.35,2.17,2,4.28,3.37,2.11S236.32,199.69,235,201.85Z"/><path class="cls-2" d="M8.34,87.92c-1.5-3.53,4-5.87,5.5-2.33S9.85,91.46,8.34,87.92Z"/><path class="cls-2" d="M81.76,148.23c2.16,1.36,4.27-2,2.1-3.36S79.59,146.88,81.76,148.23Z"/><path class="cls-2" d="M89.67,133.33c-.4-2.52-4.32-1.9-3.92.63S90.07,135.86,89.67,133.33Z"/><path class="cls-2" d="M195.25,91.32c-.4,2.53-4.32,1.91-3.92-.62S195.65,88.8,195.25,91.32Z"/><path class="cls-2" d="M204.86,86.74c1.5-4.9-6.12-7.24-7.62-2.33S203.36,91.65,204.86,86.74Z"/><path class="cls-2" d="M197.22,109.48c-2.2,3.15-7.1-.27-4.89-3.42S199.43,106.33,197.22,109.48Z"/><path class="cls-2" d="M19.25,56.6c-2,1.57.43,4.7,2.45,3.13S21.27,55,19.25,56.6Z"/><path class="cls-2" d="M22.93,44.17c2.56,0,2.63-3.92.07-4S20.38,44.13,22.93,44.17Z"/><path class="cls-2" d="M18.21,53.55c-2.29,1.12-4-2.44-1.74-3.56S20.51,52.43,18.21,53.55Z"/><path class="cls-2" d="M203.44,196.52c-.92-2.38-4.62-1-3.71,1.43S204.35,198.91,203.44,196.52Z"/><path class="cls-2" d="M207.76,202.59c2.55,0,2.56-4,0-4S205.2,202.59,207.76,202.59Z"/><path class="cls-2" d="M204,185c1.08-2.31-2.51-4-3.59-1.67S202.88,187.29,204,185Z"/><path class="cls-2" d="M201.32,190.13c-.75,2.44-4.54,1.28-3.8-1.16S202.07,187.68,201.32,190.13Z"/><path class="cls-2" d="M216.54,196.76c-.22,6.41,9.74,6.77,10,.35S216.77,190.34,216.54,196.76Z"/><path class="cls-2" d="M154.55,239.35c.4,2.52,4.32,1.91,3.92-.62S154.15,236.83,154.55,239.35Z"/><path class="cls-2" d="M158.31,245.82c-2.4.87-1.05,4.6,1.35,3.73S160.71,244.94,158.31,245.82Z"/><path class="cls-2" d="M181,239.42c-6.1-2-9.19,7.5-3.08,9.48S187.14,241.41,181,239.42Z"/><path class="cls-2" d="M241.31,147.36c2.48.58,3.38-3.29.89-3.86S238.81,146.79,241.31,147.36Z"/><path class="cls-2" d="M2.13,128A2.73,2.73,0,0,0,0,125.16v5.53A2.74,2.74,0,0,0,2.13,128Z"/><path class="cls-2" d="M246.16,127.87a2.92,2.92,0,0,0,3.84,2.82v-5.53A2.91,2.91,0,0,0,246.16,127.87Z"/><path class="cls-2" d="M239.76,138.85c2.53-.27,2.12-4.22-.42-3.95S237.21,139.11,239.76,138.85Z"/><path class="cls-2" d="M211.17,178.47c2,1.57,4.46-1.56,2.45-3.13S209.16,176.89,211.17,178.47Z"/><path class="cls-2" d="M215.78,163.72c2.21-1.28.23-4.71-2-3.44S213.56,165,215.78,163.72Z"/><path class="cls-2" d="M225.94,181.56c-.34-6.4-10.3-5.89-10,.52S226.27,188,225.94,181.56Z"/><path class="cls-2" d="M123.83,117.69c1.74,3.42-3.57,6.14-5.32,2.71S122.08,114.27,123.83,117.69Z"/><path class="cls-2" d="M129,111.31c-1.68,1.92,1.31,4.53,3,2.6S130.7,109.38,129,111.31Z"/><path class="cls-2" d="M127.59,99c2.3-1.12,4,2.44,1.74,3.56S125.29,100.12,127.59,99Z"/><path class="cls-2" d="M174.78,128.89c-1.12,2.29,2.44,4,3.56,1.74S175.9,126.59,174.78,128.89Z"/><path class="cls-2" d="M184,115.86c.09-2.56-3.88-2.7-4-.14S183.9,118.41,184,115.86Z"/><path class="cls-2" d="M190.7,116.51c-2.09,1.46.18,4.72,2.27,3.25S192.79,115,190.7,116.51Z"/><path class="cls-2" d="M21,239.26c2.55.09,2.41,4.06-.14,4S18.43,239.17,21,239.26Z"/><path class="cls-2" d="M29.36,228.92c2.85-2.57-1.14-7-4-4.44S26.5,231.49,29.36,228.92Z"/><path class="cls-2" d="M30.39,61.29C27.85,61,27.44,65,30,65.24S32.94,61.56,30.39,61.29Z"/><path class="cls-2" d="M35.51,78.14c0,2.55-4,2.49-4-.07S35.55,75.58,35.51,78.14Z"/><path class="cls-2" d="M22.55,85.22c3.76-.8,2.52-6.63-1.24-5.83S18.79,86,22.55,85.22Z"/><path class="cls-2" d="M36.34,68c2.26,1.19.4,4.7-1.86,3.5S34.09,66.75,36.34,68Z"/><path class="cls-2" d="M16.41,67.73c2.55-.22,2.9,3.73.35,4S13.87,68,16.41,67.73Z"/><path class="cls-2" d="M143.35,39.56c-.87,2.4,2.85,3.76,3.73,1.36S144.22,37.15,143.35,39.56Z"/><path class="cls-2" d="M148.16,35.62c-1.64,2,1.4,4.51,3,2.55S149.81,33.66,148.16,35.62Z"/><path class="cls-2" d="M150.05,55.36c1.16-2.27-2.38-4.08-3.54-1.8S148.89,57.64,150.05,55.36Z"/><path class="cls-2" d="M161,46.48c-1.28-2.21,2.15-4.2,3.43-2S162.24,48.69,161,46.48Z"/><path class="cls-2" d="M189.36,215.54a2,2,0,0,1-.14-4C191.77,211.49,191.91,215.45,189.36,215.54Z"/><path class="cls-2" d="M151,235.22c-2.56,0-2.49,4,.06,4S153.56,235.17,151,235.22Z"/><path class="cls-2" d="M153.45,230.73c-1.62-3.48,3.78-6,5.41-2.52S155.08,234.21,153.45,230.73Z"/><path class="cls-2" d="M144.33,223c2-1.54,4.43,1.63,2.38,3.17S142.28,224.51,144.33,223Z"/><path class="cls-2" d="M234.08,99.7c1.39-2.14-1.93-4.3-3.33-2.16S232.69,101.85,234.08,99.7Z"/><path class="cls-2" d="M230.89,80.57c-1.2,2.25,2.31,4.12,3.51,1.86S232.09,78.31,230.89,80.57Z"/><path class="cls-2" d="M225.28,78.69c2.33-1,3.95,2.59,1.61,3.63S222.94,79.73,225.28,78.69Z"/><path class="cls-2" d="M246.26,87.66c3,5.66-5.79,10.35-8.8,4.68S243.24,82,246.26,87.66Z"/><path class="cls-2" d="M63.34,140.28c2.14-1.39,4.3,1.94,2.16,3.33S61.19,141.68,63.34,140.28Z"/><path class="cls-2" d="M72.2,135.59c2.9-2.52,6.82,2,3.91,4.5S69.3,138.11,72.2,135.59Z"/><path class="cls-2" d="M78.76,152.59c-.45-2.52-4.36-1.83-3.91.69S79.2,155.11,78.76,152.59Z"/><path class="cls-2" d="M14,100.46c-3.83-.2-4.15,5.76-.31,6S17.8,100.66,14,100.46Z"/><path class="cls-2" d="M26.49,95.79c-1.12,2.3,2.44,4,3.56,1.74S27.61,93.49,26.49,95.79Z"/><path class="cls-2" d="M25.59,87.55c2.48.58,1.6,4.44-.9,3.87S23.09,87,25.59,87.55Z"/><path class="cls-2" d="M75,32.29c2.17,1.36,4.27-2,2.1-3.36S72.82,30.94,75,32.29Z"/><path class="cls-2" d="M59,36.65c-.31,2.54,3.63,3,3.94.48S59.26,34.11,59,36.65Z"/><path class="cls-2" d="M67,48.49c4.2-2.94-.36-9.47-4.57-6.52S62.83,51.44,67,48.49Z"/><path class="cls-2" d="M147.53,29.69c.22,2.54,4.17,2.2,3.95-.35S147.31,27.14,147.53,29.69Z"/><path class="cls-2" d="M157.57,35.53c.54,5.1,8.47,4.27,7.93-.83S157,30.42,157.57,35.53Z"/><path class="cls-2" d="M153.87,20.67c-3.15,2.21.27,7.1,3.42,4.89S157,18.47,153.87,20.67Z"/><path class="cls-2" d="M189.9,234.14c2.45.7,1.36,4.52-1.1,3.81S187.44,233.43,189.9,234.14Z"/><path class="cls-2" d="M189,224.11c2.55.22,2.9-3.73.35-4S186.44,223.89,189,224.11Z"/><path class="cls-2" d="M118.08,99.87c2.81-2.62-1.26-7-4.07-4.36S115.26,102.49,118.08,99.87Z"/><path class="cls-2" d="M131.46,83.58c5.12,3.86-.87,11.83-6,8S126.33,79.71,131.46,83.58Z"/><path class="cls-2" d="M113.85,81.51c3-2.42-.77-7.06-3.76-4.64S110.86,83.93,113.85,81.51Z"/><path class="cls-2" d="M1.17,6.59c2.3-1.12,4,2.45,1.74,3.57S-1.13,7.71,1.17,6.59Z"/><path class="cls-2" d="M249.84,18c-2.32-1.08-4,2.51-1.68,3.59a1.81,1.81,0,0,0,1.84-.11V18.06A1.29,1.29,0,0,0,249.84,18Z"/><path class="cls-2" d="M0,18.06v3.39A2,2,0,0,0,0,18.06Z"/><path class="cls-2" d="M10.75,11.71c1.61-2-1.47-4.48-3.08-2.5S9.14,13.7,10.75,11.71Z"/><path class="cls-2" d="M8.9,17.89c3.5-1.56,5.94,3.89,2.42,5.45S5.38,19.45,8.9,17.89Z"/><path class="cls-2" d="M228.52,52.12c-1.28-2.21,2.16-4.2,3.44-2S229.8,54.34,228.52,52.12Z"/><path class="cls-2" d="M102.87,245.78c.87,2.4,4.6,1,3.73-1.36S102,243.37,102.87,245.78Z"/><path class="cls-2" d="M114,241.9c-.92,2.38-4.62,1-3.71-1.43S114.89,239.51,114,241.9Z"/><path class="cls-2" d="M64.62,241.58c2.09,1.47-.18,4.72-2.28,3.26S62.52,240.12,64.62,241.58Z"/><path class="cls-2" d="M69.22,234.56c2.38.92,1,4.63-1.42,3.71S66.83,233.65,69.22,234.56Z"/><path class="cls-2" d="M80.68,243.85c-1-2.33,2.58-3.95,3.62-1.62S81.72,246.19,80.68,243.85Z"/><path class="cls-2" d="M76.74,232.55c3.39-1.8,6.2,3.46,2.8,5.27S73.34,234.36,76.74,232.55Z"/><path class="cls-2" d="M108,127.64c2.54-.31,2.06-4.25-.48-3.94S105.49,128,108,127.64Z"/><path class="cls-2" d="M109.14,114.46c-1.86-3.36,3.35-6.25,5.22-2.89S111,117.83,109.14,114.46Z"/><path class="cls-2" d="M114.16,119.51c-1.67-1.93-4.67.67-3,2.6S115.84,121.44,114.16,119.51Z"/><path class="cls-2" d="M146.81,170.26c-2.54.31-2.06,4.25.48,3.94S149.34,170,146.81,170.26Z"/><path class="cls-2" d="M148.61,163.42c-1-3.71-6.76-2.18-5.76,1.54S149.61,167.13,148.61,163.42Z"/><path class="cls-2" d="M139.49,166.8c0,2.55-4,2.55-4,0S139.49,164.24,139.49,166.8Z"/><path class="cls-2" d="M166.8,138.13c0,2.55,4,2.49,4-.07S166.76,135.57,166.8,138.13Z"/><path class="cls-2" d="M176,149.94c.22-2.55-3.73-2.9-3.95-.35S175.76,152.48,176,149.94Z"/><path class="cls-2" d="M165.08,148c-1.64-2-4.68.59-3,2.55S166.72,149.94,165.08,148Z"/><path class="cls-2" d="M135.15,40.22c.79,2.43,4.57,1.21,3.78-1.22S134.36,37.79,135.15,40.22Z"/><path class="cls-2" d="M130.21,51.19c-2.9,2.52,1,7,3.92,4.5S133.11,48.67,130.21,51.19Z"/><path class="cls-2" d="M140.63,43.77c5.12.27,4.72,8.23-.41,8S135.51,43.5,140.63,43.77Z"/><path class="cls-2" d="M130.52,31.87c3.39-1.8,6.19,3.46,2.8,5.27S127.12,33.67,130.52,31.87Z"/><path class="cls-2" d="M53.65,237.36c1.19-2.26-2.31-4.12-3.51-1.86S52.45,239.62,53.65,237.36Z"/><path class="cls-2" d="M36.39,236.08c-1.2-2.26,2.31-4.12,3.51-1.86S37.59,238.34,36.39,236.08Z"/><path class="cls-2" d="M47.58,231c3.83-.2,3.53-6.16-.31-6S43.74,231.25,47.58,231Z"/><path class="cls-2" d="M115.24,236c-2.52-.44-1.83-4.35.69-3.91S117.76,236.4,115.24,236Z"/><path class="cls-2" d="M126,235.27c-2.35-1-3.9,2.65-1.55,3.65S128.4,236.27,126,235.27Z"/><path class="cls-2" d="M66.81,174.44c1.77-1.84-1.08-4.6-2.86-2.76S65,176.28,66.81,174.44Z"/><path class="cls-2" d="M55.72,158.21c-.92,2.39-4.62,1-3.71-1.42S56.63,155.83,55.72,158.21Z"/><path class="cls-2" d="M66,157.74c1.71-1.89-1.24-4.55-2.95-2.65S64.26,159.65,66,157.74Z"/><path class="cls-2" d="M232.18,143.47c3-2.36,6.7,2.34,3.67,4.71S229.15,145.84,232.18,143.47Z"/><path class="cls-2" d="M223.92,155.05c3.84-.14,4.06,5.83.21,6S220.08,155.18,223.92,155.05Z"/><path class="cls-2" d="M217.23,153.07c-.31,2.54-4.25,2.06-3.94-.48S217.55,150.54,217.23,153.07Z"/><path class="cls-2" d="M5.63,174.13c2.44.75,3.61-3,1.16-3.79S3.19,173.39,5.63,174.13Z"/><path class="cls-2" d="M21.24,187.13c-1.32-3.61-6.93-1.57-5.61,2S22.55,190.75,21.24,187.13Z"/><path class="cls-2" d="M6.25,182.28C8,180.38,5,177.72,3.3,179.63S4.54,184.18,6.25,182.28Z"/><path class="cls-2" d="M10.61,187.94C8.71,189.64,6.05,186.7,8,185S12.51,186.22,10.61,187.94Z"/><path class="cls-2" d="M24.82,180.7c2-1.54-.35-4.71-2.39-3.17S22.78,182.24,24.82,180.7Z"/><path class="cls-2" d="M40.57,41.88c-.33-3.83-6.28-3.31-5.94.52S40.91,45.71,40.57,41.88Z"/><path class="cls-2" d="M43.61,39.83c-1.71-1.9,1.24-4.55,3-2.65S45.32,41.73,43.61,39.83Z"/><path class="cls-2" d="M51.94,39.14c-1.9,1.71.75,4.66,2.66,3S53.84,37.43,51.94,39.14Z"/><path class="cls-2" d="M37.71,54.8c2.36-3,7.07.64,4.7,3.67S35.34,57.83,37.71,54.8Z"/><path class="cls-2" d="M37.29,51.68c-2.54-.22-2.2-4.17.35-4S39.84,51.91,37.29,51.68Z"/><path class="cls-2" d="M57.14,53c2.19-1.32.15-4.72-2-3.4S55,54.3,57.14,53Z"/><path class="cls-2" d="M54.6,44.9c1-2.33,4.67-.72,3.63,1.61S53.56,47.24,54.6,44.9Z"/><path class="cls-2" d="M86.31,98.77c.14-2.55,4.1-2.34,4,.21S86.18,101.33,86.31,98.77Z"/><path class="cls-2" d="M101.9,91.73c2,3.29-3.13,6.37-5.11,3.07S99.92,88.43,101.9,91.73Z"/><path class="cls-2" d="M92.74,103.44c-2.48-.62-1.52-4.47,1-3.85S95.22,104.06,92.74,103.44Z"/><path class="cls-2" d="M159.33,218.79c2,1.54-.35,4.71-2.39,3.17S157.28,217.25,159.33,218.79Z"/><path class="cls-2" d="M166.63,204.36c.35,2.53,4.28,2,3.92-.55S166.27,201.83,166.63,204.36Z"/><path class="cls-2" d="M157.68,203.31c-1.44-3.56-7-1.33-5.54,2.24S159.12,206.88,157.68,203.31Z"/><path class="cls-2" d="M170.68,215.14c-1.2-2.25,2.3-4.12,3.5-1.86S171.88,217.4,170.68,215.14Z"/><path class="cls-2" d="M79.35,107.4c-2.17-1.35-.07-4.72,2.1-3.37S81.52,108.75,79.35,107.4Z"/><path class="cls-2" d="M68.72,105c-1.77-1.84,1.08-4.6,2.86-2.76S70.5,106.87,68.72,105Z"/><path class="cls-2" d="M64.08,113.39c1.2,2.26,4.7.4,3.5-1.86S62.88,111.13,64.08,113.39Z"/><path class="cls-2" d="M80.82,113.7c-1.5-3.53,4-5.87,5.49-2.33S82.32,117.24,80.82,113.7Z"/><path class="cls-2" d="M69.39,115.92c2.56,0,2.56,4,0,4S66.84,115.92,69.39,115.92Z"/><path class="cls-2" d="M224.71,103.74c.87-3.74-5-5.09-5.81-1.34S223.85,107.49,224.71,103.74Z"/><path class="cls-2" d="M222.13,122.77a2,2,0,0,0,4,0C226.09,120.22,222.13,120.22,222.13,122.77Z"/><path class="cls-2" d="M213.91,119.4c-3.07-2.31-6.66,2.45-3.59,4.76S217,121.71,213.91,119.4Z"/><path class="cls-2" d="M232.7,110.38c1.56-3.51-3.89-5.94-5.46-2.43S231.13,113.9,232.7,110.38Z"/><path class="cls-2" d="M229,118.32c-2.5-.48-1.75-4.38.76-3.89S231.52,118.81,229,118.32Z"/><path class="cls-2" d="M213.14,108.16c3.83.2,4.15-5.76.31-6S209.29,108,213.14,108.16Z"/><path class="cls-2" d="M39.19,162.72c2.52-.35,2-4.28-.56-3.93S36.65,163.08,39.19,162.72Z"/><path class="cls-2" d="M47.42,184.26c-4.82-1.76-2.1-9.25,2.73-7.49S52.25,186,47.42,184.26Z"/><path class="cls-2" d="M54.08,171.35c-2-1.57-4.45,1.55-2.44,3.13S56.1,172.93,54.08,171.35Z"/><path class="cls-2" d="M43.68,161.07c-2.23-1.24-.31-4.71,1.92-3.47S45.92,162.31,43.68,161.07Z"/><path class="cls-2" d="M58.29,8.55c-2.44-.75-3.6,3-1.16,3.79S60.74,9.3,58.29,8.55Z"/><path class="cls-2" d="M70.46,10.8c1.08-2.32-2.52-4-3.6-1.68S69.38,13.12,70.46,10.8Z"/><path class="cls-2" d="M181.37,150.91c-1.54-2,1.63-4.43,3.17-2.39S182.91,153,181.37,150.91Z"/><path class="cls-2" d="M177.13,146.78c2,1.57,4.46-1.55,2.44-3.13S175.11,145.21,177.13,146.78Z"/><path class="cls-2" d="M177.26,140.91c-3.84.07-3.95-5.9-.1-6S181.11,140.85,177.26,140.91Z"/><path class="cls-2" d="M196.27,141.87c-.27-2.54-4.21-2.13-4,.41S196.54,144.41,196.27,141.87Z"/><path class="cls-2" d="M174.76,113.13c-.87-2.4-4.6-1-3.73,1.35S175.64,115.53,174.76,113.13Z"/><path class="cls-2" d="M160.1,101.85c.79-2.43-3-3.66-3.77-1.23S159.31,104.28,160.1,101.85Z"/><path class="cls-2" d="M158.16,107.1c1.07,2.32-2.52,4-3.6,1.68S157.07,104.79,158.16,107.1Z"/><path class="cls-2" d="M170.07,100c3.1,2.25,6.62-2.57,3.5-4.83S167,97.73,170.07,100Z"/><path class="cls-2" d="M176.07,110.29c2.48-.62,1.52-4.47-1-3.85S173.59,110.91,176.07,110.29Z"/><path class="cls-2" d="M161.91,54.09c1.9-1.71-.75-4.66-2.66-3S160,55.8,161.91,54.09Z"/><path class="cls-2" d="M153.34,72.14c-2.25-3.11,2.57-6.62,4.83-3.51S155.61,75.25,153.34,72.14Z"/><path class="cls-2" d="M155.37,60.27c-1.46,2.09-4.72-.18-3.25-2.28S156.84,58.17,155.37,60.27Z"/><path class="cls-2" d="M171.6,54.31c2-3.25-3-6.42-5.06-3.16S169.56,57.57,171.6,54.31Z"/><path class="cls-2" d="M172.12,63.29c2.55,0,2.55,4,0,4S169.56,63.29,172.12,63.29Z"/><path class="cls-2" d="M199,218.2c-1.2,2.25,2.3,4.12,3.5,1.86S200.2,215.94,199,218.2Z"/><path class="cls-2" d="M209.17,212.47c1.8,3.39,7.08.59,5.27-2.8S207.36,209.07,209.17,212.47Z"/><path class="cls-2" d="M218.63,222.57c-2.08,4.69,5.2,7.94,7.28,3.25S220.72,217.88,218.63,222.57Z"/><path class="cls-2" d="M213.09,230.32c6.1-2,9.19,7.5,3.08,9.48S207,232.31,213.09,230.32Z"/><path class="cls-2" d="M60.87,17.4c1.86,3.36,7.08.48,5.22-2.89S59,14,60.87,17.4Z"/><path class="cls-2" d="M53.55,24c1.61-2-1.47-4.48-3.08-2.5S51.94,26,53.55,24Z"/><path class="cls-2" d="M50.6,29.89c2.31-3.07,7.08.52,4.77,3.59S48.29,33,50.6,29.89Z"/><path class="cls-2" d="M13,235.46c1.74-1.87-1.16-4.58-2.91-2.71S11.23,237.33,13,235.46Z"/><path class="cls-2" d="M11.35,224.57c2,3.26,7.1.1,5.06-3.16S9.31,221.31,11.35,224.57Z"/><path class="cls-2" d="M249.74,220.22c.86-3.74-5-5.09-5.81-1.34S248.88,224,249.74,220.22Z"/><path class="cls-2" d="M149.47,190.66c-1.24,2.23-4.71.31-3.47-1.92S150.71,188.42,149.47,190.66Z"/><path class="cls-2" d="M161.48,174.21c1.68,1.93-1.31,4.54-3,2.61S159.81,172.28,161.48,174.21Z"/><path class="cls-2" d="M143.14,175.18c2.55,0,2.49,4-.07,4S140.58,175.14,143.14,175.18Z"/><path class="cls-2" d="M161.89,179.46c-2.54-.27-3,3.67-.42,3.94S164.43,179.72,161.89,179.46Z"/><path class="cls-2" d="M154.68,190.58c1.24,2.24,4.71.32,3.47-1.92S153.44,188.35,154.68,190.58Z"/><path class="cls-2" d="M152.49,171.57c-1.5-3.53,4-5.87,5.49-2.33S154,175.11,152.49,171.57Z"/><path class="cls-2" d="M62.34,194.42c.71-2.46,4.52-1.37,3.82,1.09S61.64,196.87,62.34,194.42Z"/><path class="cls-2" d="M58.56,202.17c2.54.27,2.13,4.21-.41,4S56,201.9,58.56,202.17Z"/><path class="cls-2" d="M66.44,204.12c-1-2.37-4.64-.88-3.68,1.49S67.4,206.49,66.44,204.12Z"/><path class="cls-2" d="M204.46,178.77c6.13-1.88,3.23-11.41-2.92-9.54S198.31,180.64,204.46,178.77Z"/><path class="cls-2" d="M43.63,215.5c-3.23-2.09-6.48,2.91-3.26,5S46.85,217.59,43.63,215.5Z"/><path class="cls-2" d="M58.4,223.18c4.09-3.08-.7-9.45-4.8-6.36S54.3,226.27,58.4,223.18Z"/><path class="cls-2" d="M238.52,8.07c2.48-4.49,9.45-.63,7,3.86S236,12.56,238.52,8.07Z"/><path class="cls-2" d="M139.18,138c1.25,3.63,6.89,1.7,5.64-1.94S137.93,134.33,139.18,138Z"/><path class="cls-2" d="M68.81,123.84c1.5,4.9-6.12,7.24-7.62,2.32S67.31,118.92,68.81,123.84Z"/><path class="cls-2" d="M4.09,213.87c1.12,6.31,10.93,4.59,9.82-1.74S3,207.54,4.09,213.87Z"/><path class="cls-2" d="M132.79,155.07c1.37-3.59-4.2-5.73-5.58-2.14S131.41,158.66,132.79,155.07Z"/><path class="cls-2" d="M54.65,89.55c-1.87,1.74.83,4.65,2.7,2.9S56.52,87.8,54.65,89.55Z"/><path class="cls-2" d="M176.58,199c5.1-.54,5.94,7.39.84,7.92S171.48,199.57,176.58,199Z"/><path class="cls-2" d="M121.13,192c1.24-5,9-3.06,7.74,1.92S119.89,197,121.13,192Z"/><path class="cls-2" d="M221.55,134.81c2.33-4.57-4.77-8.19-7.1-3.62S219.22,139.38,221.55,134.81Z"/><path class="cls-2" d="M184.56,78.22c1.58-2-1.55-4.46-3.12-2.44S183,80.24,184.56,78.22Z"/><path class="cls-2" d="M108.69,228.68c3.45,1.69,6.08-3.68,2.62-5.36S105.23,227,108.69,228.68Z"/><path class="cls-2" d="M193,44.75c2.9-2.52,6.82,2,3.92,4.5S190.14,47.27,193,44.75Z"/><path class="cls-2" d="M214,74.75c2.9-2.52,6.82,2,3.92,4.5S211.14,77.27,214,74.75Z"/><path class="cls-2" d="M21.13,219.62c-5.94-2.4-2.22-11.65,3.74-9.24S27.09,222,21.13,219.62Z"/><path class="cls-2" d="M0,155.88v.45A3.38,3.38,0,0,0,0,155.88Z"/><path class="cls-2" d="M241,153c-3.87,5.13,4.1,11.12,8,6a4.8,4.8,0,0,0,1-2.67v-.45C249.79,151.9,244.1,148.91,241,153Z"/><path class="cls-2" d="M36.26,145c-3.83.34-4.35-5.61-.52-5.94S40.09,144.64,36.26,145Z"/><path class="cls-2" d="M135.74,248.71a4.16,4.16,0,0,0-.6,1.29h7.68C141.94,247.26,137.89,245.64,135.74,248.71Z"/><path class="cls-2" d="M142.26,3.29A3.61,3.61,0,0,0,142.82,0h-7.68C134.11,3.76,139.62,7.06,142.26,3.29Z"/><path class="cls-2" d="M165.65,226.88c-2.42.83-3.71-2.92-1.3-3.76S168.06,226,165.65,226.88Z"/><path class="cls-2" d="M73.26,162c3.83-.33,3.31-6.28-.52-5.94S69.43,162.31,73.26,162Z"/><path class="cls-2" d="M28.32,198c-1.36,2.16,2,4.27,3.36,2.1S29.67,195.78,28.32,198Z"/><path class="cls-2" d="M97.84,9.74c-1,2.37-4.64.89-3.68-1.48S98.8,7.37,97.84,9.74Z"/><path class="cls-2" d="M103.05,42.56c3.3-3.93-2.8-9.06-6.1-5.12S99.75,46.5,103.05,42.56Z"/><path class="cls-2" d="M163.93,73.07c5.06-3.95,11.2,3.9,6.14,7.86S158.87,77,163.93,73.07Z"/><path class="cls-2" d="M206.56,115.67c4.72-2,1.61-9.34-3.12-7.34S201.83,117.67,206.56,115.67Z"/><path class="cls-2" d="M14.6,144.35c4.69-4.37,11.5,2.91,6.8,7.3S9.9,148.74,14.6,144.35Z"/><path class="cls-2" d="M41.57,200.73c5.49,3.3.37,11.85-5.14,8.54S36.06,197.42,41.57,200.73Z"/><path class="cls-2" d="M172.93,13c5.13-.09,5.27,7.87.14,8S167.8,13.11,172.93,13Z"/><path class="cls-2" d="M116.59,32c-2.65,4.39,4.18,8.5,6.82,4.1S119.23,27.55,116.59,32Z"/><path class="cls-2" d="M191,35.88c6.27-1.34,4.21-11.09-2.08-9.76S184.75,37.21,191,35.88Z"/><path class="cls-2" d="M216.83,1.1A4.43,4.43,0,0,0,217,0h-8C208.93,4.12,215.52,5.65,216.83,1.1Z"/><path class="cls-2" d="M209.17,248.9A4.43,4.43,0,0,0,209,250h8C217.07,245.88,210.48,244.35,209.17,248.9Z"/><path class="cls-2" d="M201.18,123.52c-5.76-2.81-10.14,6.14-4.36,9S207,126.34,201.18,123.52Z"/><path class="cls-2" d="M134,101.48c-.67,6.38,9.25,7.43,9.92,1S134.71,95.09,134,101.48Z"/><path class="cls-2" d="M57.86,0H50C52,2.83,55.92,2.21,57.86,0Z"/><path class="cls-2" d="M58.48,244.82c-2.82-5.78-11.77-1.4-9,4.36A5.39,5.39,0,0,0,50,250h7.85A4.52,4.52,0,0,0,58.48,244.82Z"/><path class="cls-2" d="M245.42,71.64c5.61,3.11.78,11.83-4.84,8.72S239.8,68.53,245.42,71.64Z"/><path class="cls-2" d="M220.51,55.58c-3.33-1.92-.35-7.09,3-5.16S223.84,57.51,220.51,55.58Z"/><path class="cls-2" d="M98.12,140.14c6.25,1.45,4,11.16-2.24,9.72S91.86,138.7,98.12,140.14Z"/><path class="cls-2" d="M67.92,220.29c-2.94,2.46-6.78-2.1-3.84-4.58S70.86,217.81,67.92,220.29Z"/><path class="cls-2" d="M56.53,146.33c-2.15,3.18,2.79,6.53,4.94,3.34S58.68,143.14,56.53,146.33Z"/><path class="cls-2" d="M217.94,61.52c-.67,3.78-6.55,2.75-5.88-1S218.61,57.73,217.94,61.52Z"/><path class="cls-2" d="M234.64,131.38c-2.09-4.68-9.37-1.45-7.28,3.24S236.73,136.07,234.64,131.38Z"/><path class="cls-2" d="M156.09,161.72c-3.5-3.75,2.32-9.19,5.82-5.44S159.59,165.47,156.09,161.72Z"/><path class="cls-2" d="M58.69,129.51c-1.92-4.76-9.31-1.78-7.38,3S60.62,134.27,58.69,129.51Z"/><path class="cls-2" d="M206.55,45c-5.07.71-6.19-7.18-1.1-7.9S211.64,44.23,206.55,45Z"/><path class="cls-2" d="M87.48,166.93c2.49-4.48-4.47-8.35-7-3.86S85,171.42,87.48,166.93Z"/><path class="cls-2" d="M121.55,174c-2.61,5.86-11.72,1.81-9.1-4.06S124.17,168.16,121.55,174Z"/><path class="cls-2" d="M224.87,209.23c-3.57-3.69-9.3,1.84-5.74,5.54S228.43,212.93,224.87,209.23Z"/><path class="cls-2" d="M170.55,194c-2.61,5.86-11.72,1.81-9.1-4.06S173.17,188.16,170.55,194Z"/><path class="cls-2" d="M194,151.05c-.06,3.84-6,3.74-6-.1S194.05,147.21,194,151.05Z"/><path class="cls-2" d="M170.26,170c6.41-.34,5.9-10.29-.52-10S163.84,170.31,170.26,170Z"/><path class="cls-2" d="M86,126.45c.71,5.07-7.18,6.19-7.9,1.1S85.23,121.36,86,126.45Z"/><path class="cls-2" d="M157.61,97.17c1.5-2.07-1.71-4.41-3.22-2.34S156.1,99.24,157.61,97.17Z"/><path class="cls-2" d="M138.87,183.38c-6-2.4-9.69,6.83-3.74,9.24S144.82,185.79,138.87,183.38Z"/><path class="cls-2" d="M84.4,39.82c-4.1-3.09-8.9,3.27-4.8,6.36S88.5,42.91,84.4,39.82Z"/><path class="cls-2" d="M104.69,171c3.82-.4,4.45,5.54.62,5.94S100.86,171.43,104.69,171Z"/><path class="cls-2" d="M121,250h7.9C127,247.77,123,247.27,121,250Z"/><path class="cls-2" d="M129.68,4.7A4.51,4.51,0,0,0,128.9,0H121a5.14,5.14,0,0,0-.68,1.3C118.12,7.32,127.49,10.74,129.68,4.7Z"/><path class="cls-2" d="M85.7,194.77c-4.84-1.67-2.26-9.21,2.6-7.54S90.56,196.44,85.7,194.77Z"/><path class="cls-2" d="M143.58,147.05c3.81-.54,4.64,5.37.84,5.91S139.78,147.58,143.58,147.05Z"/><path class="cls-2" d="M143.45,198.39c3.36,1.86.47,7.08-2.9,5.22S140.08,196.53,143.45,198.39Z"/><path class="cls-2" d="M33.07,169.93c-5.06,3.95-11.2-3.9-6.14-7.86S38.13,166,33.07,169.93Z"/><path class="cls-2" d="M93.39,237c-3.87-3.37,1.35-9.39,5.22-6S97.26,240.38,93.39,237Z"/><path class="cls-2" d="M45.35,68c5.1.45,4.42,8.39-.7,7.94S40.23,67.58,45.35,68Z"/><path class="cls-2" d="M213.75,35c2.52-2.9,7,1,4.5,3.92S211.22,38,213.75,35Z"/><path class="cls-2" d="M33.64,239.26c-4.82,1.75-2.1,9.24,2.72,7.48S38.46,237.5,33.64,239.26Z"/><path class="cls-2" d="M225.17,170.1c-1.41-4.93,6.24-7.13,7.66-2.2S226.59,175,225.17,170.1Z"/><path class="cls-2" d="M133,130.17c-.22,6.41-10.19,6.08-10-.34S133.21,123.75,133,130.17Z"/><path class="cls-2" d="M91.51,223.69c-4.76-1.92-1.78-9.31,3-7.38S96.27,225.62,91.51,223.69Z"/><path class="cls-2" d="M8.07,199.38c.8-5.07,8.67-3.83,7.86,1.24S7.26,204.45,8.07,199.38Z"/><path class="cls-2" d="M237.52,1.52A5.1,5.1,0,0,0,238.59,0h-9C231,2.71,234.73,4.32,237.52,1.52Z"/><path class="cls-2" d="M230.48,244.48a4.53,4.53,0,0,0-.91,5.52h9C240.58,245.61,234.53,240.42,230.48,244.48Z"/><path class="cls-2" d="M63.49,91.9c4-3.22,9,3,5,6.2S59.5,95.14,63.49,91.9Z"/><path class="cls-2" d="M184.41,174c-2.5-5.91,6.67-9.81,9.18-3.9S186.92,179.86,184.41,174Z"/><path class="cls-2" d="M205.52,60.48c-4.53-4.54-11.59,2.5-7,7S210.07,65,205.52,60.48Z"/><path class="cls-2" d="M14,244.35c-.45,6.4-10.39,5.71-9.94-.7S14.42,237.94,14,244.35Z"/><path class="cls-2" d="M108.21,46.63c-1.77,6.16,7.81,8.92,9.58,2.74S110,40.45,108.21,46.63Z"/><path class="cls-2" d="M230.23,63.36c3.4,5.44-5,10.73-8.46,5.28S226.82,57.91,230.23,63.36Z"/><path class="cls-2" d="M97.87,117.85c3.67-1.12,1.94-6.83-1.74-5.7S94.19,119,97.87,117.85Z"/><path class="cls-2" d="M179.13,191.52c4.53,2.4,8.27-4.63,3.74-7S174.6,189.11,179.13,191.52Z"/><path class="cls-2" d="M174.18,30c1.25,3.63,6.89,1.7,5.64-1.94S172.93,26.33,174.18,30Z"/><path class="cls-2" d="M86.1,74c3.84-.13,3.64-6.1-.2-6S82.26,74.12,86.1,74Z"/><path class="cls-2" d="M11.65,124c-6.4.45-5.71,10.39.7,9.94S18.06,123.58,11.65,124Z"/><path class="cls-2" d="M150.83,124c-6.41-.22-6.08-10.19.34-10S157.25,124.21,150.83,124Z"/><path class="cls-2" d="M53.77,103.3c-4.25-2.86.2-9.47,4.46-6.6S58,106.17,53.77,103.3Z"/><path class="cls-2" d="M39.37,100.4c1.8,3.39,7.07.6,5.26-2.8S37.56,97,39.37,100.4Z"/><path class="cls-2" d="M105.77,165.87c-3.69,3.56-9.23-2.17-5.54-5.74S109.46,162.3,105.77,165.87Z"/><path class="cls-2" d="M237.45,125c5.07.71,6.19-7.18,1.1-7.9S232.36,124.23,237.45,125Z"/><path class="cls-2" d="M0,168.29V174A5.15,5.15,0,0,0,0,168.29Z"/><path class="cls-2" d="M244.21,166.35c-6,2.3-2.42,11.61,3.58,9.3A4.81,4.81,0,0,0,250,174v-5.73A4.6,4.6,0,0,0,244.21,166.35Z"/><path class="cls-2" d="M88.26,175c-3.83-.34-4.35,5.61-.52,5.94S92.09,175.36,88.26,175Z"/><path class="cls-2" d="M80,64.14c.18-5.12-7.78-5.41-8-.28S79.8,69.27,80,64.14Z"/><path class="cls-2" d="M177.42,221.64c-5.61-3.11-10.46,5.6-4.84,8.72S183,224.76,177.42,221.64Z"/><path class="cls-2" d="M137.21,237.77c-1.58,4.88,6,7.35,7.58,2.46S138.8,232.88,137.21,237.77Z"/><path class="cls-2" d="M37.41,28c2.51,5.9,11.69,2,9.18-3.9S34.9,22,37.41,28Z"/><path class="cls-2" d="M7.68,63.39c4.65,2.17,1.29,9.39-3.36,7.22S3,61.22,7.68,63.39Z"/><path class="cls-2" d="M30.78,156.34c-3-4.15,3.42-8.84,6.44-4.68S33.8,160.5,30.78,156.34Z"/><path class="cls-2" d="M217,98.85c-4.95,1.33-7-6.37-2.06-7.7S222,97.52,217,98.85Z"/><path class="cls-2" d="M209.93,136c-5.19-3.77-11.06,4.29-5.86,8.06S215.13,139.74,209.93,136Z"/><path class="cls-2" d="M167,2.15c-4.95-1.33-7,6.37-2.06,7.7S172,3.48,167,2.15Z"/><path class="cls-2" d="M22.79,114.84c6.23,1.55,8.65-8.12,2.42-9.68S16.56,113.28,22.79,114.84Z"/><path class="cls-2" d="M19.6,14.34c-3-5.66,5.78-10.35,8.8-4.68S22.62,20,19.6,14.34Z"/><path class="cls-2" d="M92.54,16.23c6.14-1.87,9.06,7.66,2.92,9.54S86.4,18.11,92.54,16.23Z"/><path class="cls-2" d="M200.74,161.7c3.48,1.63,6-3.78,2.52-5.4S197.25,160.08,200.74,161.7Z"/><path class="cls-2" d="M62.55,177.05c-5.07-.71-6.19,7.18-1.1,7.9S67.64,177.77,62.55,177.05Z"/><path class="cls-2" d="M93.45,83.39c3.36,1.86.47,7.08-2.9,5.22S90.08,81.53,93.45,83.39Z"/><path class="cls-2" d="M101.83,182.1c-5-1.06-6.68,6.73-1.66,7.8S106.85,183.17,101.83,182.1Z"/><path class="cls-2" d="M127.9,204.17c-4.93,1.41-2.74,9.08,2.2,7.66S132.84,202.75,127.9,204.17Z"/><path class="cls-2" d="M181.08,106.69c-.89-5,6.95-6.44,7.84-1.38S182,111.75,181.08,106.69Z"/><path class="cls-2" d="M235.3,22.32c-6,2.19-2.63,11.56,3.4,9.36S241.33,20.12,235.3,22.32Z"/><path class="cls-2" d="M0,106.68v0Z"/><path class="cls-2" d="M241.13,110.14c3.23,4,8.84.76,8.87-3.24v-.22a4.75,4.75,0,0,0-1.13-2.82C244.83,98.87,237.09,105.15,241.13,110.14Z"/><path class="cls-2" d="M210,48c-.07,3.84,5.9,3.95,6,.1S210.08,44.1,210,48Z"/><path class="cls-2" d="M2.77,47.64c3.4,5.44,11.86.17,8.46-5.28S-.63,42.19,2.77,47.64Z"/><path class="cls-2" d="M155.21,142.23c-1.58-4.88,6-7.35,7.58-2.46S156.8,147.12,155.21,142.23Z"/><path class="cls-2" d="M163.1,122.72c.93,3.73,6.73,2.29,5.8-1.44S162.17,119,163.1,122.72Z"/><path class="cls-2" d="M221.41,13.46c4.46,4.62,11.64-2.3,7.18-6.92S217,8.84,221.41,13.46Z"/><path class="cls-2" d="M203.36,203.26c4.82,1.75,2.1,9.24-2.72,7.48S198.54,201.5,203.36,203.26Z"/><path class="cls-2" d="M54.51,197.69c4.75,1.92,7.74-5.46,3-7.38S49.75,195.77,54.51,197.69Z"/><path class="cls-2" d="M194.29,80.81c-6.2,1.66-8.79-8-2.58-9.62S200.5,79.15,194.29,80.81Z"/><path class="cls-2" d="M104,204.12c6.27,1.34,4.21,11.09-2.08,9.76S97.75,202.79,104,204.12Z"/><path class="cls-2" d="M154,214.74c-.34-6.41-10.29-5.9-10,.52S154.31,221.16,154,214.74Z"/><path class="cls-2" d="M243.56,63.78c-1.57-2-4.7.43-3.12,2.44S245.14,65.79,243.56,63.78Z"/><path class="cls-2" d="M184.23,7.46c1.88,6.13,11.41,3.23,9.54-2.92S182.36,1.31,184.23,7.46Z"/><path class="cls-2" d="M141.77,92.3c-4.25-2.86.2-9.47,4.46-6.6S146,95.17,141.77,92.3Z"/><path class="cls-2" d="M136.23,72.46c1.88,6.13,11.41,3.23,9.54-2.92S134.36,66.31,136.23,72.46Z"/><path class="cls-2" d="M99.05,2.58c-.54,3.81,5.37,4.64,5.9.84S99.58-1.22,99.05,2.58Z"/><path class="cls-2" d="M24.35,31.4c4.38,4.69,11.68-2.1,7.3-6.8S20,26.7,24.35,31.4Z"/><path class="cls-2" d="M233.46,236.77c6.13-1.88,3.23-11.41-2.92-9.54S227.31,238.64,233.46,236.77Z"/><path class="cls-2" d="M76.1,224.83c-1.06-5,6.73-6.68,7.8-1.66S77.17,229.85,76.1,224.83Z"/><path class="cls-2" d="M25.39,141c-6.36-.78-5.16-10.68,1.22-9.9S31.77,141.73,25.39,141Z"/><path class="cls-2" d="M118.52,134.89c2.71,5.82-6.32,10-9,4.22S115.8,129.07,118.52,134.89Z"/><path class="cls-2" d="M51.13,65.62c-5.94-2.4-2.22-11.65,3.74-9.24S57.09,68,51.13,65.62Z"/><path class="cls-2" d="M78.38,100.64c4.68,2.09,7.93-5.19,3.24-7.28S73.69,98.55,78.38,100.64Z"/><path class="cls-2" d="M9.48,35.52c4.53,4.54,11.59-2.5,7-7S4.93,31,9.48,35.52Z"/><path class="cls-2" d="M1.87,55.82A2.78,2.78,0,0,0,0,52.31v5.46A2.69,2.69,0,0,0,1.87,55.82Z"/><path class="cls-2" d="M246.13,54.18c-.75,2.6,1.88,4.18,3.87,3.59V52.31A2.84,2.84,0,0,0,246.13,54.18Z"/><path class="cls-2" d="M38.4,177.82c4.09,3.08-.7,9.45-4.8,6.36S34.3,174.73,38.4,177.82Z"/><path class="cls-2" d="M193,242.91c-.12,6.42,9.85,6.6,10,.18S193.13,236.49,193,242.91Z"/><path class="cls-2" d="M39.38,89.11c-2.72,4.35-9.48.13-6.76-4.22S42.1,84.76,39.38,89.11Z"/><path class="cls-2" d="M238,211.21c.27,3.83,6.23,3.42,6-.42S237.75,207.37,238,211.21Z"/><path class="cls-2" d="M82.67,1.09c3.74.87,2.41,6.68-1.34,5.82S78.92.23,82.67,1.09Z"/><path class="cls-2" d="M187.92,88.22c1,6.34-8.84,7.91-9.84,1.56S186.92,81.87,187.92,88.22Z"/><path class="cls-2" d="M35.21,11.93c-1.37,3.59,4.2,5.73,5.58,2.14S36.59,8.34,35.21,11.93Z"/><path class="cls-2" d="M148.05,13.55c.72,5.08,8.61,4,7.9-1.1S147.34,8.47,148.05,13.55Z"/><path class="cls-2" d="M71.38,18.07c-5.07.8-3.83,8.67,1.24,7.87S76.45,17.26,71.38,18.07Z"/><path class="cls-2" d="M233.49,180.42c-3.32-1.92-6.31,3.24-3,5.16S236.82,182.34,233.49,180.42Z"/><path class="cls-2" d="M123.05,221.58c4.4,2.65.3,9.48-4.1,6.84S118.65,218.94,123.05,221.58Z"/><path class="cls-2" d="M99.87,122.38c5.94,2.4,2.22,11.65-3.74,9.24S93.91,120,99.87,122.38Z"/><path class="cls-2" d="M105.3,69.23c2.87-4.25-3.73-8.72-6.6-4.46S102.43,73.49,105.3,69.23Z"/><path class="cls-2" d="M107.2,28c-1.32-3.61,4.29-5.66,5.6-2S108.51,31.64,107.2,28Z"/><path class="cls-2" d="M185.08,39.71c2.94-2.46,6.78,2.1,3.84,4.58S182.14,42.19,185.08,39.71Z"/><path class="cls-2" d="M103.58,99c-5.1.53-4.27,8.46.84,7.92S108.69,98.5,103.58,99Z"/><path class="cls-2" d="M13.91,161.28c3.5,3.75-2.32,9.19-5.82,5.44S10.41,157.53,13.91,161.28Z"/><path class="cls-2" d="M236.08,46.78c1,6.33,10.85,4.79,9.84-1.56S235.07,40.43,236.08,46.78Z"/><path class="cls-2" d="M40.91,116.28c-3.49-3.75-9.33,1.68-5.82,5.44S44.42,120,40.91,116.28Z"/><path class="cls-2" d="M204,28c-6.41,0-6.42-10,0-10S210.42,28,204,28Z"/><path class="cls-2" d="M75.35,197c6.4.45,5.71,10.39-.7,9.94S68.94,196.58,75.35,197Z"/><path class="cls-2" d="M184.17,50.25c-3.54-1.5-5.88,4-2.34,5.5S187.71,51.76,184.17,50.25Z"/><path class="cls-2" d="M242.58,193.64c-5.61,3.11-.78,11.83,4.84,8.72S248.2,190.53,242.58,193.64Z"/><path class="cls-2" d="M8.91,97.72C5.42,101.47-.42,96,3.09,92.28S12.42,94,8.91,97.72Z"/><path class="cls-2" d="M87.77,141.12c-1.44,3.56-7,1.33-5.54-2.24S89.21,137.55,87.77,141.12Z"/><path class="cls-2" d="M201.62,93.29c6.07,2.09,2.83,11.51-3.24,9.42S195.55,91.2,201.62,93.29Z"/><path class="cls-2" d="M27.43,46c6.39.56,5.54,10.5-.86,9.94S21,45.48,27.43,46Z"/><path class="cls-2" d="M209.43,196c6.39-.56,5.54-10.49-.86-9.94S203,196.53,209.43,196Z"/><path class="cls-2" d="M165,245.88c6.28,1.33,8.36-8.42,2.08-9.76S158.68,244.54,165,245.88Z"/><path class="cls-2" d="M.79,134.35a5.06,5.06,0,0,0-.79-.24v9.8C4.14,143,5.77,136.26.79,134.35Z"/><path class="cls-2" d="M247.21,143.65a4.83,4.83,0,0,0,2.79.26v-9.8C244.49,132.87,241.49,141.46,247.21,143.65Z"/><path class="cls-2" d="M219.05,173.42c4.4-2.65.3-9.48-4.1-6.84S214.65,176.06,219.05,173.42Z"/><path class="cls-2" d="M126.18,110.71c3.49-5.37-4.86-10.81-8.36-5.42S122.68,116.1,126.18,110.71Z"/><path class="cls-2" d="M181.24,121.73c4.21-4.84,11.74,1.69,7.52,6.54S177,126.58,181.24,121.73Z"/><path class="cls-2" d="M16.17,231.9c1.41-4.93,9.08-2.74,7.66,2.2S14.75,236.84,16.17,231.9Z"/><path class="cls-2" d="M29.4,68.35c-4.69-4.37-11.5,2.91-6.8,7.3S34.1,72.74,29.4,68.35Z"/><path class="cls-2" d="M149.18,42.8c4.12-4.92,11.77,1.48,7.64,6.4S145.05,47.72,149.18,42.8Z"/><path class="cls-2" d="M181.21,218c5.12-.27,4.71-8.23-.42-8S176.08,218.25,181.21,218Z"/><path class="cls-2" d="M149.54,233.56c3.29-2,.22-7.1-3.08-5.12S146.24,235.54,149.54,233.56Z"/><path class="cls-2" d="M223.21,91.37c-1.77-6.16,7.81-8.92,9.58-2.74S225,97.55,223.21,91.37Z"/><path class="cls-2" d="M75,146.45c.71,5.07-7.18,6.19-7.9,1.1S74.23,141.36,75,146.45Z"/><path class="cls-2" d="M21.43,92.28c4.78,1.84,1.94,9.28-2.86,7.44S16.63,90.44,21.43,92.28Z"/><path class="cls-2" d="M65.48,33.13c2.41-4.53,9.45-.79,7,3.74S63.07,37.66,65.48,33.13Z"/><path class="cls-2" d="M153,30.28c-.36-2.53,3.57-3.09,3.92-.56S153.39,32.81,153,30.28Z"/><path class="cls-2" d="M197.12,224.14c-6.25-1.44-8.5,8.27-2.24,9.72S203.38,225.59,197.12,224.14Z"/><path class="cls-2" d="M118.29,84.74c4.2,2.94-.37,9.47-4.58,6.52S114.08,81.79,118.29,84.74Z"/><path class="cls-2" d="M6.53,13.42c2,3.26-3,6.42-5.06,3.16S4.49,10.16,6.53,13.42Z"/><path class="cls-2" d="M222.6,44.34c-3-5.66,5.78-10.35,8.8-4.68S225.62,50,222.6,44.34Z"/><path class="cls-2" d="M113.21,0h-4.27A2.84,2.84,0,0,0,113.21,0Z"/><path class="cls-2" d="M108.75,246a2.79,2.79,0,0,0,.19,4h4.27s0,0,0,0C115.77,247.06,111.27,243.14,108.75,246Z"/><path class="cls-2" d="M68.48,242.89c-2.71,5.82,6.32,10,9,4.22S71.2,237.07,68.48,242.89Z"/><path class="cls-2" d="M104.83,116.25c3.54-1.5,5.88,4,2.34,5.5S101.29,117.76,104.83,116.25Z"/><path class="cls-2" d="M143.05,171.68c-2.16,1.36-4.27-2-2.1-3.36S145.22,170.33,143.05,171.68Z"/><path class="cls-2" d="M170.45,142.39c-3.36-1.86-6.26,3.36-2.9,5.22S173.81,144.26,170.45,142.39Z"/><path class="cls-2" d="M131.36,40.26c-4.82-1.76-7.55,5.73-2.72,7.48S136.19,42,131.36,40.26Z"/><path class="cls-2" d="M42.1,235.28c.93-3.73,6.73-2.29,5.8,1.44S41.17,239,42.1,235.28Z"/><path class="cls-2" d="M116.68,238.12c-2.42,3,2.22,6.75,4.64,3.76S119.1,235.13,116.68,238.12Z"/><path class="cls-2" d="M62.34,160.6c-5.66-3-10.35,5.78-4.68,8.8S68,163.62,62.34,160.6Z"/><path class="cls-2" d="M218,146.65c.45-6.4,10.39-5.71,9.94.7S217.58,153.06,218,146.65Z"/><path class="cls-2" d="M17.59,181.46c4.45-4.61-2.71-11.54-7.18-6.92S13.12,186.08,17.59,181.46Z"/><path class="cls-2" d="M43,45c3.86-5.12,11.83.87,8,6S39.15,50.13,43,45Z"/><path class="cls-2" d="M91.6,97.4c-1.81-1.8,1-4.61,2.8-2.8S93.41,99.21,91.6,97.4Z"/><path class="cls-2" d="M158.64,209.58c3.11-5.61,11.83-.78,8.72,4.84S155.53,215.2,158.64,209.58Z"/><path class="cls-2" d="M78,111c0,5.13-8,5.14-8,0S78,105.86,78,111Z"/><path class="cls-2" d="M217.82,109.52c-5.77,2.81-1.41,11.78,4.36,9S223.59,106.7,217.82,109.52Z"/><path class="cls-2" d="M41.66,173.4c5.66,3,10.35-5.78,4.68-8.8S36,170.38,41.66,173.4Z"/><path class="cls-2" d="M60.42,7.49c-1.92-3.32,3.24-6.31,5.16-3S62.34,10.82,60.42,7.49Z"/><path class="cls-2" d="M189.34,144.17c-2.79,4.3-9.48,0-6.68-4.34S192.14,139.86,189.34,144.17Z"/><path class="cls-2" d="M165.65,102c6.4-.45,7.11,9.49.7,9.94S159.24,102.48,165.65,102Z"/><path class="cls-2" d="M158.38,63.87c2.4,5.94,11.65,2.22,9.24-3.74S156,57.91,158.38,63.87Z"/><path class="cls-2" d="M214.89,223c-1.22,6.3-11,4.41-9.78-1.9S216.12,216.64,214.89,223Z"/><path class="cls-2" d="M57.39,22c-3.87,3.37,1.35,9.39,5.22,6S61.26,18.62,57.39,22Z"/><path class="cls-2" d="M250,231v-5.76A5.28,5.28,0,0,0,250,231Z"/><path class="cls-2" d="M2.54,232.77c6.14,1.87,9.06-7.66,2.92-9.54a4.58,4.58,0,0,0-5.46,2V231A4.79,4.79,0,0,0,2.54,232.77Z"/><path class="cls-2" d="M147.52,183.18c-2.81-5.76,6.14-10.14,9-4.36S150.34,189,147.52,183.18Z"/><path class="cls-2" d="M63.9,200.58c.74-2.44-3-3.61-3.8-1.16S63.15,203,63.9,200.58Z"/></g></svg>