<svg id="Layer_1" data-name="Layer 1" xmlns="http://www.w3.org/2000/svg" viewBox="0 0 250 250"><defs><style>.cls-1{fill:#4a186e;}.cls-2{fill:#622d90;}</style></defs><title>Purple_Sprinkles_Pattern</title><rect class="cls-1" x="0.27" width="249.46" height="250"/><path class="cls-2" d="M34.3,54.71a1.5,1.5,0,0,1-1.44-1.09L30,43.44a1.5,1.5,0,1,1,2.88-.82L35.74,52.8a1.49,1.49,0,0,1-1,1.85A1.4,1.4,0,0,1,34.3,54.71Z"/><path class="cls-2" d="M16.38,8.76a1.53,1.53,0,0,1-.62.13A1.5,1.5,0,0,1,14.39,8L10.6-.27h3.3l3.22,7A1.51,1.51,0,0,1,16.38,8.76Z"/><path class="cls-2" d="M50.51-.27,48.88,13a1.5,1.5,0,0,1-1.48,1.33l-.19,0a1.5,1.5,0,0,1-1.31-1.67L47.49-.27Z"/><path class="cls-2" d="M85.14-.27l-1,7.85a1.49,1.49,0,0,1-1.48,1.31h-.19a1.51,1.51,0,0,1-1.3-1.68l.94-7.47Z"/><path class="cls-2" d="M71.58,3.82a1.51,1.51,0,0,1-1.28.7,1.46,1.46,0,0,1-.78-.22L62.12-.27h5.71l3.27,2A1.5,1.5,0,0,1,71.58,3.82Z"/><path class="cls-2" d="M30.31-.27,27.4,14.23a1.47,1.47,0,0,1-1.46,1.2l-.3,0a1.5,1.5,0,0,1-1.18-1.76L27.24-.27Z"/><path class="cls-2" d="M104.61-.27,95.07,5.4a1.42,1.42,0,0,1-.77.21,1.49,1.49,0,0,1-.76-2.78l5.2-3.1Z"/><path class="cls-2" d="M126.24-.27,123,9a1.5,1.5,0,0,1-2.82-1l2.9-8.25Z"/><path class="cls-2" d="M158.27,7.54a1.51,1.51,0,0,1-1.41,1,1.25,1.25,0,0,1-.51-.09L135.25.8a1.5,1.5,0,0,1-.95-1.07h6.81l16.25,5.88A1.52,1.52,0,0,1,158.27,7.54Z"/><path class="cls-2" d="M175.21,6.05a1.59,1.59,0,0,1-.9.3,1.49,1.49,0,0,1-1.2-.61l-4.51-6h3.75L175.51,4A1.49,1.49,0,0,1,175.21,6.05Z"/><path class="cls-2" d="M202.8-.27l-18,9a1.47,1.47,0,0,1-.67.16,1.5,1.5,0,0,1-.67-2.84L196.1-.27Z"/><path class="cls-2" d="M223.74-.27l-3.25,12A1.5,1.5,0,0,1,219,12.89a1.74,1.74,0,0,1-.39-.05A1.49,1.49,0,0,1,217.6,11l3-11.27Z"/><path class="cls-2" d="M242.33-.27l-4.81,11.51a1.51,1.51,0,0,1-1.39.93,1.72,1.72,0,0,1-.58-.12,1.51,1.51,0,0,1-.8-2L239.08-.27Z"/><path class="cls-2" d="M14.38,250.27h-3.3l-.69-1.51a1.5,1.5,0,0,1,2.73-1.25Z"/><path class="cls-2" d="M51.07,244.68l-.69,5.59h-3l.73-6A1.48,1.48,0,0,1,49.76,243,1.5,1.5,0,0,1,51.07,244.68Z"/><path class="cls-2" d="M86,242.5l-1,7.77H82l1-8.14a1.5,1.5,0,0,1,1.67-1.31A1.52,1.52,0,0,1,86,242.5Z"/><path class="cls-2" d="M69.56,250.27h-5.7l-2-1.23a1.5,1.5,0,1,1,1.58-2.55Z"/><path class="cls-2" d="M31.41,243.7l-1.31,6.57H27l1.42-7.16a1.5,1.5,0,1,1,2.95.59Z"/><path class="cls-2" d="M110.35,245.79l-7.54,4.48H97l11.86-7.06a1.5,1.5,0,1,1,1.54,2.58Z"/><path class="cls-2" d="M127.72,245l-1.85,5.28h-3.18l2.2-6.27a1.5,1.5,0,1,1,2.83,1Z"/><path class="cls-2" d="M144.07,250.27h-8.82a1.5,1.5,0,1,1,1-2.82Z"/><path class="cls-2" d="M173.15,250.27H169.4l-1.75-2.33a1.5,1.5,0,0,1,2.4-1.8Z"/><path class="cls-2" d="M205.17,248l-4.5,2.25H194l9.88-4.94a1.48,1.48,0,0,1,2,.68A1.5,1.5,0,0,1,205.17,248Z"/><path class="cls-2" d="M226.67,238.34l-3.22,11.93h-3.1l3.42-12.71a1.5,1.5,0,0,1,1.84-1.05A1.48,1.48,0,0,1,226.67,238.34Z"/><path class="cls-2" d="M244.06,245.07l-2.17,5.2h-3.25l2.66-6.35a1.5,1.5,0,1,1,2.76,1.15Z"/><path class="cls-2" d="M250,14.58v3.81L236,29.3a1.45,1.45,0,0,1-.91.32,1.5,1.5,0,0,1-.93-2.69Z"/><path class="cls-2" d="M250,32.47v3.21l-5.67-2.16a1.5,1.5,0,0,1,1.06-2.81Z"/><path class="cls-2" d="M250,49.21v5.27L238.45,71.15a1.45,1.45,0,0,1-1.23.65,1.57,1.57,0,0,1-.85-.26,1.51,1.51,0,0,1-.38-2.09Z"/><path class="cls-2" d="M250,84.45v3.08l-5.46-1.21a1.52,1.52,0,0,1-1.15-1.8,1.49,1.49,0,0,1,1.79-1.13Z"/><path class="cls-2" d="M250,103.49v3.15l-3.41-1.09a1.49,1.49,0,1,1,.9-2.85Z"/><path class="cls-2" d="M250,122.29v3.26l-4.19,1.77a1.52,1.52,0,0,1-.58.13,1.51,1.51,0,0,1-.59-2.89Z"/><path class="cls-2" d="M250,93.16v3.18l-10-3.53A1.5,1.5,0,0,1,241,90Z"/><path class="cls-2" d="M250,139v3.25l-3.46,1.46a1.56,1.56,0,0,1-.59.12,1.5,1.5,0,0,1-.58-2.89Z"/><path class="cls-2" d="M250,156v7.57l-1.58,3.67a1.51,1.51,0,0,1-1.38.9,1.56,1.56,0,0,1-.59-.12,1.49,1.49,0,0,1-.78-2Z"/><path class="cls-2" d="M250,179.68V185l-3.54,5.11a1.5,1.5,0,0,1-2.47-1.71Z"/><path class="cls-2" d="M250,197.32v3.27l-4.64-2a1.5,1.5,0,0,1,1.18-2.76Z"/><path class="cls-2" d="M250,214.62v3l-10.12.72h-.11a1.5,1.5,0,0,1-.11-3Z"/><path class="cls-2" d="M250,235.25v3.83l-5-4a1.5,1.5,0,0,1-.25-2.1,1.52,1.52,0,0,1,2.12-.25Z"/><path class="cls-2" d="M5.77,14,0,18.52V14.71l3.93-3.05A1.5,1.5,0,0,1,5.77,14Z"/><path class="cls-2" d="M11.7,38.47a1.5,1.5,0,0,1-1.4,1,1.61,1.61,0,0,1-.53-.1L0,35.62V32.4l10.84,4.14A1.5,1.5,0,0,1,11.7,38.47Z"/><path class="cls-2" d="M5,47.52l-5,7.2V49.45l2.52-3.64A1.5,1.5,0,0,1,5,47.52Z"/><path class="cls-2" d="M6.31,87.36a1.5,1.5,0,0,1-1.46,1.17,1.24,1.24,0,0,1-.33,0L0,87.49V84.42l5.17,1.15A1.49,1.49,0,0,1,6.31,87.36Z"/><path class="cls-2" d="M6.64,107.12a1.51,1.51,0,0,1-1.43,1,1.69,1.69,0,0,1-.45-.07L0,106.59v-3.15l5.67,1.8A1.5,1.5,0,0,1,6.64,107.12Z"/><path class="cls-2" d="M5.43,123.33,0,125.62v-3.26l4.26-1.8a1.5,1.5,0,1,1,1.17,2.77Z"/><path class="cls-2" d="M4.44,96.26a1.48,1.48,0,0,1-1.42,1,1.51,1.51,0,0,1-.5-.09L0,96.29V93.1l3.52,1.25A1.5,1.5,0,0,1,4.44,96.26Z"/><path class="cls-2" d="M3.61,140.78,0,142.3V139l2.45-1a1.5,1.5,0,0,1,1.16,2.77Z"/><path class="cls-2" d="M6.59,148.72,0,164v-7.58l3.83-8.88a1.5,1.5,0,0,1,2.76,1.19Z"/><path class="cls-2" d="M6.44,175.89,0,185.2v-5.28l4-5.74a1.5,1.5,0,1,1,2.46,1.71Z"/><path class="cls-2" d="M7.68,202.17a1.5,1.5,0,0,1-2,.79L0,200.52v-3.27l6.89,2.95A1.5,1.5,0,0,1,7.68,202.17Z"/><path class="cls-2" d="M6.71,215.66a1.51,1.51,0,0,1-1.39,1.6L0,217.64v-3l5.1-.36A1.5,1.5,0,0,1,6.71,215.66Z"/><path class="cls-2" d="M9.65,244.7a1.49,1.49,0,0,1-1.17.57,1.54,1.54,0,0,1-.93-.32L0,239v-3.83l9.42,7.48A1.48,1.48,0,0,1,9.65,244.7Z"/><path class="cls-2" d="M64.12,86.35a1.49,1.49,0,0,1-1.25-.67L55.6,74.77a1.5,1.5,0,0,1,2.5-1.66L65.37,84A1.5,1.5,0,0,1,65,86.1,1.47,1.47,0,0,1,64.12,86.35Z"/><path class="cls-2" d="M141.94,79.8a1.34,1.34,0,0,1-.48-.08,1.49,1.49,0,0,1-.93-1.9l4.36-12.73a1.5,1.5,0,0,1,2.84,1l-4.37,12.73A1.49,1.49,0,0,1,141.94,79.8Z"/><path class="cls-2" d="M117.58,131.44a1.46,1.46,0,0,1-1.2-.6l-6.55-8.72a1.51,1.51,0,0,1,.3-2.1,1.49,1.49,0,0,1,2.1.3l6.55,8.72a1.5,1.5,0,0,1-.3,2.1A1.45,1.45,0,0,1,117.58,131.44Z"/><path class="cls-2" d="M56.85,178a1.5,1.5,0,0,1-1.45-1.11l-4.73-17.45a1.5,1.5,0,0,1,2.9-.79L58.3,176.1a1.51,1.51,0,0,1-1.06,1.84A1.31,1.31,0,0,1,56.85,178Z"/><path class="cls-2" d="M32.85,144.54a1.5,1.5,0,0,1-.48-2.93L64.73,130.7a1.5,1.5,0,0,1,1,2.85L33.33,144.46A1.66,1.66,0,0,1,32.85,144.54Z"/><path class="cls-2" d="M142,179.08a1.5,1.5,0,0,1-1.16-.54L135.34,172a1.5,1.5,0,1,1,2.3-1.92l5.46,6.54a1.5,1.5,0,0,1-1.15,2.46Z"/><path class="cls-2" d="M144.13,202a1.49,1.49,0,0,1-1.09-2.53l12-12.72a1.5,1.5,0,1,1,2.18,2l-12,12.73A1.49,1.49,0,0,1,144.13,202Z"/><path class="cls-2" d="M179,182.36a1.51,1.51,0,0,1-1.29-.74l-5.82-9.82a1.5,1.5,0,0,1,2.58-1.53l5.82,9.82a1.51,1.51,0,0,1-1.29,2.27Z"/><path class="cls-2" d="M166,160.54a1.49,1.49,0,0,1-1.13-.51l-8.72-9.82a1.5,1.5,0,0,1,2.24-2l8.73,9.82a1.51,1.51,0,0,1-1.12,2.5Z"/><path class="cls-2" d="M119,171.81a1.53,1.53,0,0,1-1.06-.44,1.51,1.51,0,0,1,0-2.12l7.64-7.64a1.51,1.51,0,0,1,2.12,0,1.49,1.49,0,0,1,0,2.12l-7.64,7.64A1.49,1.49,0,0,1,119,171.81Z"/><path class="cls-2" d="M160.13,169.26a1.62,1.62,0,0,1-.61-.12L153,166.23a1.5,1.5,0,0,1,1.22-2.75l6.55,2.91a1.5,1.5,0,0,1-.61,2.87Z"/><path class="cls-2" d="M178,118a1.61,1.61,0,0,1-.64-.14,1.51,1.51,0,0,1-.72-2l5.09-10.91a1.5,1.5,0,0,1,2.72,1.27l-5.09,10.91A1.51,1.51,0,0,1,178,118Z"/><path class="cls-2" d="M146.31,138a1.5,1.5,0,0,1-.49-2.92l13.82-4.73a1.5,1.5,0,1,1,1,2.84l-13.82,4.73A1.61,1.61,0,0,1,146.31,138Z"/><path class="cls-2" d="M136.49,150a1.48,1.48,0,0,1-1.35-.85,1.5,1.5,0,0,1,.7-2l7.64-3.64a1.5,1.5,0,0,1,1.29,2.71l-7.64,3.63A1.43,1.43,0,0,1,136.49,150Z"/><path class="cls-2" d="M108.85,160.54a1.51,1.51,0,0,1-1.5-1.4l-.72-10.91a1.5,1.5,0,1,1,3-.2l.73,10.91a1.5,1.5,0,0,1-1.4,1.59Z"/><path class="cls-2" d="M93.94,187.81a1.5,1.5,0,0,1-.49-2.92l12.73-4.36a1.5,1.5,0,0,1,1,2.84l-12.73,4.36A1.4,1.4,0,0,1,93.94,187.81Z"/><path class="cls-2" d="M123,197.63a1.9,1.9,0,0,1-.4,0,1.5,1.5,0,0,1-1-1.85l3.64-13.09a1.5,1.5,0,1,1,2.89.8l-3.64,13.09A1.49,1.49,0,0,1,123,197.63Z"/><path class="cls-2" d="M84.12,214a1.5,1.5,0,0,1-.55-2.9l13.82-5.46a1.5,1.5,0,1,1,1.1,2.8l-13.82,5.45A1.5,1.5,0,0,1,84.12,214Z"/><path class="cls-2" d="M114.31,232.54h-.22a1.5,1.5,0,0,1-1.27-1.7L115,215.56a1.5,1.5,0,1,1,3,.42l-2.18,15.27A1.5,1.5,0,0,1,114.31,232.54Z"/><path class="cls-2" d="M67.76,214.36a1.52,1.52,0,0,1-.42-.06,1.49,1.49,0,0,1-1-1.86l3.27-11.27a1.5,1.5,0,1,1,2.88.83L69.2,213.28A1.51,1.51,0,0,1,67.76,214.36Z"/><path class="cls-2" d="M62.3,230.36h-.12l-9.09-.72a1.5,1.5,0,0,1,.24-3l9.09.72a1.5,1.5,0,0,1-.12,3Z"/><path class="cls-2" d="M69.58,242.72a1.51,1.51,0,0,1-1.19-.58,1.49,1.49,0,0,1,.27-2.1l9.81-7.64a1.5,1.5,0,0,1,1.85,2.37l-9.82,7.64A1.52,1.52,0,0,1,69.58,242.72Z"/><path class="cls-2" d="M97.94,240.54a1.5,1.5,0,0,1-1.5-1.5v-6.91a1.5,1.5,0,0,1,3,0V239A1.5,1.5,0,0,1,97.94,240.54Z"/><path class="cls-2" d="M120.85,237.27a1.5,1.5,0,0,1-.66-2.85l22.18-10.91a1.5,1.5,0,0,1,1.33,2.7l-22.19,10.9A1.4,1.4,0,0,1,120.85,237.27Z"/><path class="cls-2" d="M151.4,246.72a1.51,1.51,0,0,1-1.25-.66l-4.36-6.55a1.5,1.5,0,1,1,2.49-1.66l4.37,6.54a1.5,1.5,0,0,1-.42,2.08A1.47,1.47,0,0,1,151.4,246.72Z"/><path class="cls-2" d="M161.58,237.27a1.48,1.48,0,0,1-1.11-.5,1.49,1.49,0,0,1,.11-2.12l7.27-6.54a1.49,1.49,0,0,1,2.12.11,1.51,1.51,0,0,1-.11,2.12l-7.27,6.54A1.51,1.51,0,0,1,161.58,237.27Z"/><path class="cls-2" d="M184.49,242.72a1.46,1.46,0,0,1-.84-.26,1.5,1.5,0,0,1-.4-2.08l6.18-9.09a1.5,1.5,0,1,1,2.49,1.69l-6.19,9.09A1.51,1.51,0,0,1,184.49,242.72Z"/><path class="cls-2" d="M214,241.27a1.51,1.51,0,0,1-1-.39l-15.27-13.82a1.5,1.5,0,1,1,2-2.22L215,238.66a1.5,1.5,0,0,1-1,2.61Z"/><path class="cls-2" d="M235.77,236.91a1.5,1.5,0,0,1-1.3-.75l-2.54-4.36a1.5,1.5,0,0,1,2.59-1.51l2.54,4.36a1.49,1.49,0,0,1-.54,2A1.44,1.44,0,0,1,235.77,236.91Z"/><path class="cls-2" d="M220.13,230.36a1.52,1.52,0,0,1-.42-.06,1.51,1.51,0,0,1-1-1.86l4.37-14.91a1.5,1.5,0,1,1,2.88.84l-4.37,14.91A1.49,1.49,0,0,1,220.13,230.36Z"/><path class="cls-2" d="M189.58,219.81H176.49a1.5,1.5,0,0,1,0-3h13.09a1.5,1.5,0,0,1,0,3Z"/><path class="cls-2" d="M154.67,221.63a1.5,1.5,0,0,1-1.5-1.5V211.4a1.5,1.5,0,0,1,3,0v8.73A1.5,1.5,0,0,1,154.67,221.63Z"/><path class="cls-2" d="M173.22,205.27a1.5,1.5,0,0,1-1-2.63l5.82-5.09a1.5,1.5,0,1,1,2,2.25l-5.82,5.1A1.56,1.56,0,0,1,173.22,205.27Z"/><path class="cls-2" d="M203.77,210a1.5,1.5,0,0,1-1.5-1.5V197.58a1.5,1.5,0,0,1,3,0v10.91A1.5,1.5,0,0,1,203.77,210Z"/><path class="cls-2" d="M222.31,198H214a1.5,1.5,0,0,1,0-3h8.36a1.5,1.5,0,0,1,0,3Z"/><path class="cls-2" d="M216.86,187.08a1.37,1.37,0,0,1-.28,0L205,184.88a1.5,1.5,0,0,1,.55-2.95l11.64,2.18a1.5,1.5,0,0,1-.28,3Z"/><path class="cls-2" d="M194.31,193.63a1.5,1.5,0,0,1-1.5-1.5V179.77a1.5,1.5,0,0,1,3,0v12.36A1.5,1.5,0,0,1,194.31,193.63Z"/><path class="cls-2" d="M230.32,172.54h-.17L220,171.44a1.5,1.5,0,0,1,.32-3l10.18,1.1a1.5,1.5,0,0,1-.15,3Z"/><path class="cls-2" d="M217.22,167.08a1.49,1.49,0,0,1-1.3-2.24l4.36-7.64a1.5,1.5,0,0,1,2.61,1.49l-4.37,7.64A1.49,1.49,0,0,1,217.22,167.08Z"/><path class="cls-2" d="M201.59,171.45a1.5,1.5,0,0,1-1.25-.67l-2.18-3.27a1.5,1.5,0,1,1,2.49-1.67l2.18,3.27a1.5,1.5,0,0,1-.41,2.08A1.53,1.53,0,0,1,201.59,171.45Z"/><path class="cls-2" d="M206,155.08a1.51,1.51,0,0,1-.77-.21l-5.46-3.28a1.49,1.49,0,0,1-.51-2.05,1.51,1.51,0,0,1,2.06-.52l5.45,3.28a1.5,1.5,0,0,1,.52,2A1.51,1.51,0,0,1,206,155.08Z"/><path class="cls-2" d="M217.22,144.54h-.08l-6.55-.36a1.5,1.5,0,0,1,.17-3l6.55.37a1.5,1.5,0,0,1-.09,3Z"/><path class="cls-2" d="M217.22,125.62a1.5,1.5,0,0,1-1.5-1.43l-.36-8.73a1.5,1.5,0,0,1,3-.13l.36,8.73a1.49,1.49,0,0,1-1.44,1.56Z"/><path class="cls-2" d="M96.12,67.08a1.51,1.51,0,0,1-1.37-.9L92.2,60.36A1.5,1.5,0,1,1,95,59.16L97.5,65a1.51,1.51,0,0,1-.78,2A1.41,1.41,0,0,1,96.12,67.08Z"/><path class="cls-2" d="M90.67,99.81A1.48,1.48,0,0,1,89.36,99a1.5,1.5,0,0,1,.58-2l9.82-5.45a1.5,1.5,0,1,1,1.46,2.62L91.4,99.62A1.59,1.59,0,0,1,90.67,99.81Z"/><path class="cls-2" d="M130.67,111.81a1.5,1.5,0,0,1-1.5-1.5v-8.73a1.5,1.5,0,0,1,3,0v8.73A1.5,1.5,0,0,1,130.67,111.81Z"/><path class="cls-2" d="M97.21,137.63a1.46,1.46,0,0,1-.72-.19L86.67,132a1.5,1.5,0,1,1,1.45-2.62l9.82,5.45a1.5,1.5,0,0,1-.73,2.82Z"/><path class="cls-2" d="M61.94,117.26a1.5,1.5,0,0,1-1.5-1.5v-3.27a1.5,1.5,0,0,1,3,0v3.27A1.5,1.5,0,0,1,61.94,117.26Z"/><path class="cls-2" d="M32.48,178.36a1.46,1.46,0,0,1-.77-.22l-5.45-3.27a1.5,1.5,0,1,1,1.54-2.57l5.45,3.27a1.5,1.5,0,0,1-.77,2.79Z"/><path class="cls-2" d="M12.84,212.18a1.5,1.5,0,0,1-.24-3l6.54-1.09a1.5,1.5,0,1,1,.5,2.95l-6.55,1.1Z"/><path class="cls-2" d="M21.57,230.36a1.5,1.5,0,0,1-1.34-2.17l4.36-8.73a1.5,1.5,0,0,1,2.69,1.34l-4.37,8.73A1.49,1.49,0,0,1,21.57,230.36Z"/><path class="cls-2" d="M40.48,216.18A1.51,1.51,0,0,1,39,215l-1.45-7.27a1.5,1.5,0,1,1,2.94-.59L42,214.38a1.5,1.5,0,0,1-1.17,1.77Z"/><path class="cls-2" d="M41.57,233.63a1.41,1.41,0,0,1-.63-.14,1.49,1.49,0,0,1-.72-2l5.45-11.64a1.5,1.5,0,0,1,2.72,1.27l-5.46,11.64A1.49,1.49,0,0,1,41.57,233.63Z"/><path class="cls-2" d="M59,207.45a1.44,1.44,0,0,1-.67-.16l-8.73-4.36A1.5,1.5,0,0,1,51,200.24l8.73,4.37a1.5,1.5,0,0,1-.67,2.84Z"/><path class="cls-2" d="M19.39,196.54a1.52,1.52,0,0,1-1.25-.67,1.5,1.5,0,0,1,.42-2.08l7.64-5.09a1.5,1.5,0,1,1,1.66,2.5l-7.64,5.09A1.47,1.47,0,0,1,19.39,196.54Z"/><path class="cls-2" d="M19.75,163.81a1.5,1.5,0,0,1-1.49-1.39l-1.09-14.91a1.5,1.5,0,1,1,3-.22l1.09,14.91a1.5,1.5,0,0,1-1.39,1.61Z"/><path class="cls-2" d="M41.21,169.26a1.47,1.47,0,0,1-1-.36l-7.63-6.54a1.5,1.5,0,1,1,1.95-2.28l7.64,6.55a1.5,1.5,0,0,1-1,2.63Z"/><path class="cls-2" d="M71,190.36a1.51,1.51,0,0,1-1-2.61L79.47,179a1.5,1.5,0,1,1,2,2.2L72.05,190A1.5,1.5,0,0,1,71,190.36Z"/><path class="cls-2" d="M52.48,190.36h0L42.61,190a1.5,1.5,0,0,1,.11-3l9.82.37a1.5,1.5,0,0,1-.06,3Z"/><path class="cls-2" d="M74.3,170.72a1.5,1.5,0,0,1-.43-2.94l7.28-2.18a1.5,1.5,0,0,1,.86,2.87l-7.28,2.19A1.54,1.54,0,0,1,74.3,170.72Z"/><path class="cls-2" d="M71,160.9a1.49,1.49,0,0,1-1.22-2.36l8.72-12.37A1.5,1.5,0,1,1,81,147.9l-8.72,12.37A1.52,1.52,0,0,1,71,160.9Z"/><path class="cls-2" d="M40.12,128.9l-.22,0a1.49,1.49,0,0,1-1.26-1.7l1.09-7.28a1.5,1.5,0,1,1,3,.45l-1.09,7.27A1.5,1.5,0,0,1,40.12,128.9Z"/><path class="cls-2" d="M19.39,130.35a1.39,1.39,0,0,1-.35,0,1.51,1.51,0,0,1-1.11-1.81L21.21,115a1.5,1.5,0,0,1,2.91.71l-3.27,13.46A1.51,1.51,0,0,1,19.39,130.35Z"/><path class="cls-2" d="M42.3,104.9a1.49,1.49,0,0,1-.36-.05l-16-4a1.5,1.5,0,1,1,.72-2.91l16,4a1.5,1.5,0,0,1-.37,3Z"/><path class="cls-2" d="M96.85,163.08a1.49,1.49,0,0,1-1.25-.67l-6.54-9.81a1.5,1.5,0,0,1,2.49-1.67l6.55,9.82a1.5,1.5,0,0,1-.42,2.08A1.47,1.47,0,0,1,96.85,163.08Z"/><path class="cls-2" d="M90.3,119.44a1.5,1.5,0,0,1-.41-2.94l7.64-2.18a1.5,1.5,0,1,1,.82,2.88l-7.63,2.19A2,2,0,0,1,90.3,119.44Z"/><path class="cls-2" d="M78.3,140.9a1.5,1.5,0,0,1-1.5-1.5v-12a1.5,1.5,0,0,1,3,0v12A1.5,1.5,0,0,1,78.3,140.9Z"/><path class="cls-2" d="M75,102a1.5,1.5,0,0,1-1.35-2.15L78.41,90a1.5,1.5,0,0,1,2.7,1.3l-4.73,9.82A1.51,1.51,0,0,1,75,102Z"/><path class="cls-2" d="M41.21,75.8a1.59,1.59,0,0,1-.67-.15l-8.73-4.37a1.5,1.5,0,0,1,1.34-2.68L41.88,73a1.5,1.5,0,0,1-.67,2.84Z"/><path class="cls-2" d="M25.94,90.71a1.48,1.48,0,0,1-1.22-.62L16.35,78.45a1.5,1.5,0,0,1,2.44-1.75l8.36,11.64a1.49,1.49,0,0,1-1.21,2.37Z"/><path class="cls-2" d="M5.57,72.17A1.52,1.52,0,0,1,4.12,70.3L7,58.67a1.5,1.5,0,1,1,2.91.72L7,71A1.51,1.51,0,0,1,5.57,72.17Z"/><path class="cls-2" d="M66.67,52.89a1.5,1.5,0,0,1-1-.36L52.6,41.26A1.5,1.5,0,0,1,54.55,39l13.1,11.28a1.5,1.5,0,0,1,.15,2.11A1.45,1.45,0,0,1,66.67,52.89Z"/><path class="cls-2" d="M51,64.53a1.5,1.5,0,0,1-.77-2.79l3.63-2.18a1.51,1.51,0,0,1,2.06.52,1.49,1.49,0,0,1-.51,2.05L51.8,64.32A1.54,1.54,0,0,1,51,64.53Z"/><path class="cls-2" d="M39.39,36.53a1.47,1.47,0,0,1-.91-.31L30.85,30.4A1.5,1.5,0,1,1,32.66,28l7.64,5.81a1.51,1.51,0,0,1,.29,2.11A1.54,1.54,0,0,1,39.39,36.53Z"/><path class="cls-2" d="M13.21,27.44a1.55,1.55,0,0,1-.56-.11,1.5,1.5,0,0,1-.83-1.95L14,19.92A1.5,1.5,0,1,1,16.78,21L14.6,26.49A1.5,1.5,0,0,1,13.21,27.44Z"/><path class="cls-2" d="M42.3,16.89a1.52,1.52,0,0,1-1.2-.6l-4.36-5.82a1.5,1.5,0,1,1,2.4-1.8l4.36,5.82a1.5,1.5,0,0,1-1.2,2.4Z"/><path class="cls-2" d="M69.58,15.8a1.57,1.57,0,0,1-.6-.12L60.61,12a1.5,1.5,0,0,1,1.2-2.75l8.36,3.63a1.5,1.5,0,0,1-.59,2.88Z"/><path class="cls-2" d="M69.58,31.8a1.53,1.53,0,0,1-1.19-.57l-6.54-8.37A1.5,1.5,0,0,1,64.21,21l6.55,8.37a1.5,1.5,0,0,1-.26,2.1A1.45,1.45,0,0,1,69.58,31.8Z"/><path class="cls-2" d="M101.58,27.44a1.5,1.5,0,0,1-1.5-1.5v-12a1.5,1.5,0,1,1,3,0v12A1.5,1.5,0,0,1,101.58,27.44Z"/><path class="cls-2" d="M136.13,14.34a1.46,1.46,0,0,1-1.2-.6l-3.28-4.36a1.5,1.5,0,1,1,2.4-1.8l3.28,4.36A1.51,1.51,0,0,1,137,14,1.45,1.45,0,0,1,136.13,14.34Z"/><path class="cls-2" d="M116.85,28.53a1.49,1.49,0,0,1-1.43-1.07l-2.19-7.27a1.5,1.5,0,0,1,2.88-.87l2.18,7.28a1.49,1.49,0,0,1-1,1.86A1.29,1.29,0,0,1,116.85,28.53Z"/><path class="cls-2" d="M99.4,40.53a1.53,1.53,0,0,1-.47-.07L85.48,36.09a1.5,1.5,0,1,1,.92-2.85L99.86,37.6a1.5,1.5,0,0,1-.46,2.93Z"/><path class="cls-2" d="M79.4,61.62h-.09A1.5,1.5,0,0,1,77.9,60l.36-6.55a1.5,1.5,0,0,1,3,.17l-.37,6.54A1.49,1.49,0,0,1,79.4,61.62Z"/><path class="cls-2" d="M91.76,23.07a1.48,1.48,0,0,1-.7-.17l-7.63-4a1.5,1.5,0,1,1,1.39-2.66l7.64,4a1.5,1.5,0,0,1-.7,2.83Z"/><path class="cls-2" d="M164.49,17.62a1.5,1.5,0,0,1-1.5-1.5V6.3a1.5,1.5,0,0,1,3,0v9.82A1.5,1.5,0,0,1,164.49,17.62Z"/><path class="cls-2" d="M144.13,31.07a1.5,1.5,0,0,1-.39-2.95l9.45-2.54a1.5,1.5,0,0,1,.78,2.9L144.52,31A1.35,1.35,0,0,1,144.13,31.07Z"/><path class="cls-2" d="M143,24.53a1.5,1.5,0,0,1-1.28-2.27L145,16.8a1.5,1.5,0,0,1,2.57,1.54l-3.27,5.46A1.5,1.5,0,0,1,143,24.53Z"/><path class="cls-2" d="M129.94,62.71a1.51,1.51,0,0,1-1.47-1.2l-2.54-12.36a1.5,1.5,0,0,1,2.94-.61l2.54,12.37a1.49,1.49,0,0,1-1.16,1.77Z"/><path class="cls-2" d="M113.58,71.08a1.51,1.51,0,0,1-1.46-1.14l-3.27-13.09a1.5,1.5,0,0,1,2.91-.73L115,69.21a1.52,1.52,0,0,1-1.45,1.87Z"/><path class="cls-2" d="M119,88.53a1.46,1.46,0,0,1-.53-.1l-7.64-2.91a1.5,1.5,0,0,1,1.07-2.8l7.64,2.91a1.5,1.5,0,0,1-.54,2.9Z"/><path class="cls-2" d="M119,108.53a1.5,1.5,0,0,1-1.5-1.5V98.31a1.5,1.5,0,0,1,3,0V107A1.5,1.5,0,0,1,119,108.53Z"/><path class="cls-2" d="M134.31,130.35a1.5,1.5,0,0,1-.67-2.84l11.63-5.82a1.5,1.5,0,1,1,1.35,2.69L135,130.19A1.5,1.5,0,0,1,134.31,130.35Z"/><path class="cls-2" d="M124.13,148.9l-.25,0a1.5,1.5,0,0,1-1.23-1.73l1.45-8.72a1.5,1.5,0,1,1,3,.49l-1.46,8.73A1.49,1.49,0,0,1,124.13,148.9Z"/><path class="cls-2" d="M126.31,209.63a1.5,1.5,0,0,1-.34-3l8-1.82a1.5,1.5,0,0,1,.66,2.93l-8,1.81A1.24,1.24,0,0,1,126.31,209.63Z"/><path class="cls-2" d="M187.76,154a1.49,1.49,0,0,1-1.48-1.31L185.19,144a1.5,1.5,0,1,1,3-.37l1.09,8.72A1.49,1.49,0,0,1,188,154Z"/><path class="cls-2" d="M181.22,138H168.13a1.5,1.5,0,0,1,0-3h13.09a1.5,1.5,0,1,1,0,3Z"/><path class="cls-2" d="M200.86,123.44a1.5,1.5,0,0,1-1.5-1.5v-8.36a1.5,1.5,0,1,1,3,0v8.36A1.5,1.5,0,0,1,200.86,123.44Z"/><path class="cls-2" d="M230,145.26h0a1.5,1.5,0,0,1-1.45-1.55l.37-9.82a1.5,1.5,0,1,1,3,.11l-.36,9.82A1.5,1.5,0,0,1,230,145.26Z"/><path class="cls-2" d="M235.41,164.17a1.51,1.51,0,0,1-1.42-1l-3.27-9.09a1.5,1.5,0,1,1,2.82-1l3.28,9.1a1.5,1.5,0,0,1-.91,1.91A1.47,1.47,0,0,1,235.41,164.17Z"/><path class="cls-2" d="M232.13,199.81a1.58,1.58,0,0,1-.47-.07,1.51,1.51,0,0,1-.95-1.9l2.18-6.55a1.5,1.5,0,0,1,2.85,1l-2.18,6.55A1.51,1.51,0,0,1,232.13,199.81Z"/><path class="cls-2" d="M190.67,132.17A1.5,1.5,0,0,1,190,132l-8.37-4a1.5,1.5,0,0,1,1.3-2.7l8.36,4a1.5,1.5,0,0,1-.65,2.85Z"/><path class="cls-2" d="M151.76,102.71a1.49,1.49,0,0,1-1.49-1.42L149.9,94a1.5,1.5,0,1,1,3-.15l.36,7.27a1.49,1.49,0,0,1-1.42,1.57Z"/><path class="cls-2" d="M161.58,115.08a1.5,1.5,0,0,1-1.06-2.56l9.82-9.82a1.5,1.5,0,1,1,2.12,2.12l-9.82,9.82A1.49,1.49,0,0,1,161.58,115.08Z"/><path class="cls-2" d="M157.94,83.08a1.51,1.51,0,0,1-1.35-2.15l6.55-13.81a1.5,1.5,0,1,1,2.71,1.28L159.3,82.22A1.5,1.5,0,0,1,157.94,83.08Z"/><path class="cls-2" d="M156.13,52.53a1.43,1.43,0,0,1-.46-.07l-12.37-4a1.5,1.5,0,0,1,.92-2.86l12.37,4a1.5,1.5,0,0,1-.46,2.93Z"/><path class="cls-2" d="M175.77,50.71a1.49,1.49,0,0,1-1.36-.86L167.5,35.31A1.5,1.5,0,0,1,170.21,34l6.91,14.55a1.5,1.5,0,0,1-.71,2A1.64,1.64,0,0,1,175.77,50.71Z"/><path class="cls-2" d="M196.49,43.8a1.5,1.5,0,0,1-.71-.18l-8-4.37a1.5,1.5,0,0,1,1.44-2.63l8,4.36a1.5,1.5,0,0,1-.72,2.82Z"/><path class="cls-2" d="M179,69.26a1.5,1.5,0,0,1-.14-3l12-1.09a1.5,1.5,0,1,1,.27,3l-12,1.09Z"/><path class="cls-2" d="M191,94a1.51,1.51,0,0,1-.62-.14,1.49,1.49,0,0,1-.75-2l5.46-12a1.5,1.5,0,1,1,2.73,1.24l-5.46,12A1.5,1.5,0,0,1,191,94Z"/><path class="cls-2" d="M180.85,88.9a1.53,1.53,0,0,1-.83-.26l-3.27-2.18A1.5,1.5,0,1,1,178.42,84l3.27,2.18a1.5,1.5,0,0,1-.84,2.75Z"/><path class="cls-2" d="M218.31,105.26a1.49,1.49,0,0,1-1.49-1.39l-1.09-15.28a1.5,1.5,0,1,1,3-.21l1.09,15.27a1.5,1.5,0,0,1-1.39,1.61Z"/><path class="cls-2" d="M221.22,63.8a1.48,1.48,0,0,1-.64-.14L212.94,60a1.5,1.5,0,0,1,1.29-2.71L221.87,61a1.5,1.5,0,0,1-.65,2.85Z"/><path class="cls-2" d="M215.77,42.71l-.27,0a1.51,1.51,0,0,1-1.21-1.75l2.55-13.82a1.5,1.5,0,0,1,2.95.54l-2.55,13.82A1.49,1.49,0,0,1,215.77,42.71Z"/><path class="cls-2" d="M209.22,32.16a1.49,1.49,0,0,1-1-.37l-9.82-8.73a1.5,1.5,0,1,1,2-2.24l9.82,8.72a1.5,1.5,0,0,1,.12,2.12A1.48,1.48,0,0,1,209.22,32.16Z"/><path class="cls-2" d="M233.22,106h0a1.51,1.51,0,0,1-1.46-1.55l.37-12a1.5,1.5,0,0,1,3,.09l-.37,12A1.5,1.5,0,0,1,233.22,106Z"/><path class="cls-2" d="M235.41,119.44a1.5,1.5,0,0,1-.78-2.78l3.64-2.19a1.5,1.5,0,0,1,1.54,2.58l-3.63,2.18A1.54,1.54,0,0,1,235.41,119.44Z"/><path class="cls-2" d="M208.49,76.89h-8.72a1.5,1.5,0,0,1,0-3h8.72a1.5,1.5,0,0,1,0,3Z"/><path class="cls-2" d="M85.21,85.26a1.5,1.5,0,0,1-.57-2.89L95.19,78a1.5,1.5,0,1,1,1.14,2.77L85.79,85.14A1.47,1.47,0,0,1,85.21,85.26Z"/><path class="cls-2" d="M51,128.17a1.5,1.5,0,0,1-1.5-1.5V123a1.5,1.5,0,0,1,3,0v3.64A1.5,1.5,0,0,1,51,128.17Z"/><path class="cls-2" d="M53.58,88.53h-.15L45.8,87.8a1.5,1.5,0,1,1,.28-3l7.64.73a1.5,1.5,0,0,1-.14,3Z"/><path class="cls-2" d="M84.85,76.53a1.44,1.44,0,0,1-.67-.16L71.09,69.83a1.5,1.5,0,0,1,1.34-2.69l13.09,6.55a1.5,1.5,0,0,1-.67,2.84Z"/><path class="cls-2" d="M120.85,40.53a1.5,1.5,0,0,1-.73-2.81l9.09-5.09a1.5,1.5,0,0,1,1.47,2.62l-9.1,5.09A1.47,1.47,0,0,1,120.85,40.53Z"/><path class="cls-2" d="M113.22,203.09a1.5,1.5,0,0,1-1.23-.64l-5.09-7.28a1.5,1.5,0,1,1,2.45-1.72l5.09,7.27a1.51,1.51,0,0,1-1.22,2.37Z"/><path class="cls-2" d="M171,194.36a1.47,1.47,0,0,1-.91-.31l-18.55-14.18a1.5,1.5,0,0,1,1.82-2.39L172,191.67a1.5,1.5,0,0,1,.28,2.1A1.52,1.52,0,0,1,171,194.36Z"/><path class="cls-2" d="M33.58,205.27l-.25,0a1.51,1.51,0,0,1-1.24-1.73l1.1-6.55a1.5,1.5,0,1,1,3,.5L35.05,204A1.49,1.49,0,0,1,33.58,205.27Z"/><path class="cls-2" d="M60.85,154.35a1.5,1.5,0,0,1-1.48-1.25l-1.09-6.55a1.5,1.5,0,0,1,3-.49l1.09,6.55a1.5,1.5,0,0,1-1.24,1.72A1,1,0,0,1,60.85,154.35Z"/><path class="cls-2" d="M139.76,98.35a1.5,1.5,0,0,1-1.39-.94L131.82,81a1.5,1.5,0,0,1,2.79-1.11l6.55,16.36a1.5,1.5,0,0,1-.84,1.95A1.36,1.36,0,0,1,139.76,98.35Z"/><path class="cls-2" d="M194.31,55.07a1.5,1.5,0,0,1-.06-3l8.36-.37a1.5,1.5,0,0,1,.13,3l-8.36.36Z"/><path class="cls-2" d="M19.39,65.62a.86.86,0,0,1-.22,0,1.49,1.49,0,0,1-1.26-1.7l1.45-9.82a1.5,1.5,0,0,1,3,.44l-1.46,9.82A1.49,1.49,0,0,1,19.39,65.62Z"/><path class="cls-2" d="M12.85,110.35h-.16a1.5,1.5,0,0,1-1.34-1.64l1.09-10.55a1.5,1.5,0,0,1,3,.31L14.34,109A1.5,1.5,0,0,1,12.85,110.35Z"/><path class="cls-2" d="M53.57,108.53a1.4,1.4,0,0,1-.56-.11,1.49,1.49,0,0,1-.82-2l3.27-8a1.5,1.5,0,1,1,2.78,1.14l-3.28,8A1.48,1.48,0,0,1,53.57,108.53Z"/><path class="cls-2" d="M182.31,25.25a1.47,1.47,0,0,1-1.18-.57l-2.55-3.28A1.5,1.5,0,0,1,181,19.56l2.54,3.27a1.49,1.49,0,0,1-1.18,2.42Z"/><path class="cls-2" d="M238,48.17H231a1.5,1.5,0,0,1,0-3H238a1.5,1.5,0,0,1,0,3Z"/></svg>