<svg id="Layer_1" data-name="Layer 1" xmlns="http://www.w3.org/2000/svg" viewBox="0 0 250 250"><defs><style>.cls-1{fill:#622d90;}.cls-2{fill:#4a186e;}</style></defs><title>Purple_Terrazo_Pattern</title><g id="_12" data-name="12"><rect class="cls-1" width="250" height="250"/><path class="cls-2" d="M144.2,96.89a.31.31,0,0,0,.42.09l4.56-2.11a.23.23,0,0,0,.12-.33.24.24,0,0,0-.28-.22c-.4,0-2.14-3.69-2.44-4.25a32.78,32.78,0,0,0-2.33-4.28.32.32,0,0,0-.35-.13c-1.49.65-3,1.38-4.42,2.07a.32.32,0,0,0-.1.42Q141.8,92.52,144.2,96.89Z"/><path class="cls-2" d="M139.3,163.18a3.71,3.71,0,0,0-1.25-.31,21.76,21.76,0,0,1-5.16-1.85c-.22-.11-.38.12-.33.31a7.54,7.54,0,0,1-.45,4.93.38.38,0,0,0,0,.1.19.19,0,0,0,.14.23c1.4.4,2.73,1,4.11,1.47s3,1,4.31.51c1.6-.61.8-2.29.1-3.3C140.38,164.72,139.85,163.53,139.3,163.18Z"/><path class="cls-2" d="M130,120c.39-.47.78-.94,1.18-1.39a3.48,3.48,0,0,0,.94-1.22c.16-.68-.32-1.18-.78-1.6a.11.11,0,0,0-.07,0,.19.19,0,0,0-.29,0c-1.1,1.41-2.55,2.6-3.72,4-1,1.2-3,3.25-2.71,5a.26.26,0,0,0,.37.15C127,123.8,128.5,121.81,130,120Z"/><path class="cls-2" d="M241.93,219.29c-.32-.08-.59.31-.29.53,1.57,1.13-1.82,3.62.35,5,1.07.67,2.69.76,3.9,1l4.11,1v-5.63Z"/><path class="cls-2" d="M.79,226.68l1.71-4.44a.31.31,0,0,0-.44-.37.25.25,0,0,0-.19-.3L0,221.14v5.63l.4.09A.31.31,0,0,0,.79,226.68Z"/><path class="cls-2" d="M29.15,191.16c.43.43.86.87,1.3,1.28s.88.67,1,1.14c.23.66-.21,1.2-.64,1.66l-.06,0a.2.2,0,0,1-.29,0c-1.22-1.31-2.77-2.37-4.05-3.64-1.12-1.11-3.33-3-3.14-4.75a.25.25,0,0,1,.35-.19C25.84,187.65,27.51,189.5,29.15,191.16Z"/><path class="cls-2" d="M92.43,174.46c-.26,3.5-.53,7-.79,10.5a.3.3,0,0,1-.46.25,14.35,14.35,0,0,0-6.92-1.84.27.27,0,0,1-.12,0,.25.25,0,0,1-.17-.28c.16-2.19-.62-6.95,1.92-8.09a11.12,11.12,0,0,1,3.54-.68,7.3,7.3,0,0,1,2.79-.13A.31.31,0,0,1,92.43,174.46Z"/><path class="cls-2" d="M81.65,108.83c-1.25,3.82,5.12,10.59-.81,12.88A5.16,5.16,0,0,1,75,120c-2.19-2.62-2-6.21-1.68-9.37A.69.69,0,0,1,74,110c-.76,0-.75-1.2,0-1.28l7-.68A.65.65,0,0,1,81.65,108.83Z"/><path class="cls-2" d="M244.74,89.24c-.77-1.29-1.67-3.35-2.9-4.25,0,0,0,0,0,0l0,0h0l0,0h-.07c-1.48-.5-2.81.53-4.3.43a.34.34,0,0,0-.36.38,12.38,12.38,0,0,0,4.65,6.94c.87.6,3.52,2.11,4.4.74C246.77,92.23,245.29,90.17,244.74,89.24Z"/><path class="cls-2" d="M176.73,240.76a3.76,3.76,0,0,0-1.14-.6,22.23,22.23,0,0,1-4.56-3c-.18-.16-.39,0-.4.22A7.57,7.57,0,0,1,169,242a.36.36,0,0,0,0,.09.18.18,0,0,0,.08.25c1.26.74,2.4,1.68,3.64,2.43s2.66,1.7,4.05,1.53c1.7-.2,1.34-2,.9-3.17A8.78,8.78,0,0,0,176.73,240.76Z"/><path class="cls-2" d="M18.25,112.72a.3.3,0,0,0-.35.23q-.79,2.4-1.57,4.78a.24.24,0,0,0,.16.32.26.26,0,0,0,.36-.06c.25-.31,4.15,1,4.76,1.11a32.2,32.2,0,0,0,4.73,1.22.31.31,0,0,0,.32-.17c.55-1.53,1-3.09,1.51-4.65,0-.16-.1-.31-.24-.35Z"/><path class="cls-2" d="M86.09,84.74c-.13-1.65-2.25-1.64-3.15-.68a4.3,4.3,0,0,0-1,2.55c-.14,1.31-.23,2.61-.48,3.9-.19.95-1.35,3.56.31,3.94,1.13.26,2.26-1.23,2.48-2.17v0a0,0,0,0,0,0,0c.22-1.42-.24-2.94.23-4.32C84.87,86.81,86.19,86,86.09,84.74Z"/><path class="cls-2" d="M231.64,147.8c3.34,1.07,7.12,2,10.46,3.12.48-1.32.77-2.74,1.25-4.06L233.06,144C232.51,145.33,232.19,146.43,231.64,147.8Z"/><path class="cls-2" d="M161,239.23c-.33,2.09-1.68,5.35-.46,7.3a.37.37,0,0,1-.12.56.42.42,0,0,1-.61-.11c-2.41-3.18-5.07-6.17-7.06-9.64a.45.45,0,0,1,.06-.53c1.7-2,5.64-6.31,7.83-2.46C161.51,235.85,161.27,237.6,161,239.23Z"/><path class="cls-2" d="M152.41,219.41c-1.72.8-2.52,2.63-3.12,4.31a.39.39,0,0,0,0,.14.25.25,0,0,0,.18.25h0a.27.27,0,0,0,.23,0c-.12.1,0,0,.23.14s.43.21.65.32c.52.26,1,.55,1.55.83,1.24.68,2.47,1.38,3.71,2a7.74,7.74,0,0,0,2.19,1.09c1.16.21,2.44-.9,3-1.74,2.27-3.19-.6-6-3.6-7.14C155.9,219.08,154,218.66,152.41,219.41Z"/><path class="cls-2" d="M192,174.69a.19.19,0,0,0-.11.27q2.25,5.06,4.49,10.11c.1.22.42,0,.32-.19l0-.1h.09a5,5,0,0,0,3.39-6.83C198.84,175,195,174.05,192,174.69Z"/><path class="cls-2" d="M203.52,66.1a.37.37,0,0,1-.29.57,9.33,9.33,0,0,0-6.1,2.84h0l0,0h0a.14.14,0,0,1-.1.07l-.07,0h-.18l-.07,0-.08-.06h0a.15.15,0,0,1-.06-.09l0,0a.19.19,0,0,1,0-.07.49.49,0,0,1,0-.17c.37-1.7-.33-3.67-.07-5.42s1.32-4.63,3.1-5.3C202.7,57.24,202.57,64.52,203.52,66.1Z"/><path class="cls-2" d="M223.64,35.55a19.57,19.57,0,0,0-3.53.87,9.58,9.58,0,0,1-2.7.73.34.34,0,0,0-.34.42,5.61,5.61,0,0,1-1.38,5.24.34.34,0,0,0,.13.57,9.62,9.62,0,0,1,5.07,3.3v0a.2.2,0,0,0,.11.09h.1a.14.14,0,0,0,.11,0h0c3-1,11.49-2.07,7.9-7C228.08,38.27,225.71,35.42,223.64,35.55Z"/><path class="cls-2" d="M229.14,51.45c-.4-1.56-.34-3.37,1.54-3.77a6.75,6.75,0,0,1,5,1.6c1.25,1,3.19,3.3,2.41,5a4.91,4.91,0,0,1-1.84,1.75c-.66.48-2.4,1.35-2.49,2.31a.41.41,0,0,1-.81,0c-.15-2-1.57-3.23-2.65-4.72A5.56,5.56,0,0,1,229.14,51.45Z"/><path class="cls-2" d="M235.44,222.18a.25.25,0,0,0-.06-.16A.26.26,0,0,0,235,222l0,0-.06.08c-1.06,2-2.28,3.94-3.32,6-.39.75-2.2,3.39-1,4.08,1.62.89,3.19-2.09,3.74-3.11A8.44,8.44,0,0,0,235.44,222.18Z"/><path class="cls-2" d="M27.21,101.29A5.87,5.87,0,0,1,26,100.23l-1.67-1.55c-1.1-1-2.21-2-3.3-3-1.41-1.32-.73-2.15.92-2.67,1.73-.87,2-3.15,4.36-2.85a7.46,7.46,0,0,1,4.72,3.36c2,3.14-1.57,5.81-3.59,7.76A.27.27,0,0,1,27.21,101.29Z"/><path class="cls-2" d="M179,40.6c.45-1.79.89-3.59,1.34-5.39.31-1.28.44-3,1.38-4a2.78,2.78,0,0,1,2.76-.82c.45.11,1.79.79,1.77,1.42h0c0,1.58.16,3.17.1,4.76,0,1-.11,2.59-1,3.32s-2.11.64-3,.7l-1.85.06c-.16,0-1-.07-1.11.09S179,40.8,179,40.6Z"/><path class="cls-2" d="M167.3,62c-1.53.61-.9,2.63.28,3.22a4.32,4.32,0,0,0,2.73.19c1.29-.24,2.56-.54,3.87-.67,1-.1,3.8.24,3.68-1.46-.09-1.16-1.84-1.79-2.81-1.73h0c-1.42.2-2.74,1.09-4.2,1C169.64,62.51,168.49,61.49,167.3,62Z"/><path class="cls-2" d="M52.07,217.39c1.52-.51,3.34-.58,3.86,1.27.47,1.66-.32,3.74-1.24,5.09s-3.07,3.42-4.86,2.77A5.06,5.06,0,0,1,48,224.8c-.53-.63-1.51-2.31-2.48-2.32a.41.41,0,0,1,0-.81c1.94-.29,3.11-1.79,4.52-3C50.35,218.38,51.39,217.44,52.07,217.39Z"/><path class="cls-2" d="M68.18,217a.32.32,0,0,1-.36-.23L66.17,212a.23.23,0,0,1,.16-.32.25.25,0,0,1,.35.05c.26.31,4.14-1,4.75-1.19a32.1,32.1,0,0,1,4.7-1.3.32.32,0,0,1,.33.16c.57,1.52,1.06,3.08,1.59,4.62a.32.32,0,0,1-.24.36Z"/><path class="cls-2" d="M110.74,200.19q.66-2.7,1.33-5.39c.31-1.28.44-3,1.38-4a2.84,2.84,0,0,1,2.77-.82c.44.12,1.79.79,1.76,1.43h0c0,1.59.17,3.17.1,4.76,0,1-.11,2.59-1,3.33a5.38,5.38,0,0,1-3,.69c-.62,0-1.24,0-1.86.07-.16,0-1-.07-1.11.08S110.69,200.38,110.74,200.19Z"/><path class="cls-2" d="M143.79,212c2.7-.19,4.7-2.21,6.36-4.16a.4.4,0,0,0,0-.59,0,0,0,0,1,0,0l0,0a.35.35,0,0,0-.31-.1c.21-.09,0,0-.23-.32s-.48-.5-.71-.75c-.57-.62-1.11-1.26-1.64-1.9-1.31-1.54-2.59-3.11-3.9-4.64a11.39,11.39,0,0,0-2.36-2.58c-1.44-.86-3.71,0-4.94.77-4.67,3.1-2.29,8.36,1.15,11.37C139,210.64,141.27,212.18,143.79,212Z"/><path class="cls-2" d="M2,108.71c-.16-.38-.78-.84-1.08-1.15l-.91-1v4.5c.72-.72,1.37-1.5,2-2.13A.27.27,0,0,0,2,108.71Z"/><path class="cls-2" d="M249.34,105.91c-1-1.09-2.05-2.18-3.1-3.25-1.33-1.38-2.16-.69-2.64,1-.84,1.74-3.12,2.09-2.78,4.41a7.48,7.48,0,0,0,3.44,4.66c2.2,1.32,4.13,0,5.74-1.6v-4.5Z"/><path class="cls-2" d="M148.24,35.84c-.26,3.5-.76,7.37-1,10.87-1.41-.05-2.83-.32-4.24-.37l1.17-10.62C145.62,35.72,146.76,35.84,148.24,35.84Z"/><path class="cls-2" d="M161.91,53.86c0,1.64-.78,4.29.34,5.67a.29.29,0,0,1,0,.45.32.32,0,0,1-.48,0,72.58,72.58,0,0,1-6.36-6.77.35.35,0,0,1,0-.41c1.13-1.71,3.76-5.41,5.81-2.64A5.6,5.6,0,0,1,161.91,53.86Z"/><path class="cls-2" d="M31.63,227.71l9.52,4.51a.3.3,0,0,1,.07.52,14.33,14.33,0,0,0-4.19,5.8.39.39,0,0,1-.08.1.25.25,0,0,1-.32.06c-2-.94-6.71-1.91-6.87-4.69a11.4,11.4,0,0,1,.64-3.55,7.4,7.4,0,0,1,.88-2.65A.33.33,0,0,1,31.63,227.71Z"/><path class="cls-2" d="M2,245.25c-.15-1.54-.31-3.08-.48-4.61-.13-1.23-.57-2.8-.29-4,.57-2.49,4-.09,4.58-2a.31.31,0,0,1,.6.1c.36,3.38.71,6.76,1.07,10.15a.25.25,0,0,1-.22.28.3.3,0,0,1-.2.53l-4.76-.17A.32.32,0,0,1,2,245.25Z"/><path class="cls-2" d="M116.52,30.25a15.2,15.2,0,0,1,1.09-2.6,7.23,7.23,0,0,0,.89-2,.27.27,0,0,1,.37-.21,4.33,4.33,0,0,0,4.19-.42.26.26,0,0,1,.42.17,7.47,7.47,0,0,0,1.92,4.29h0a.31.31,0,0,1,0,.1s0,0,0,0a.13.13,0,0,1,0,.06.19.19,0,0,1,0,.08h0c-1.1,2.19-3,8.58-6.36,5.22C118.07,34,116.17,31.83,116.52,30.25Z"/><path class="cls-2" d="M146.71,1.24a5.26,5.26,0,0,0-1.45,1.14,30.74,30.74,0,0,1-6.63,4.18c-.3.15-.18.54.07.65a10.82,10.82,0,0,1,5.16,4.84.37.37,0,0,0,.48.14C146,11,147.91,10,149.61,8.86c1.55-1.07,3.76-2.48,4.35-4.4.73-2.34-1.86-2.92-3.61-3C149.4,1.39,147.59.94,146.71,1.24Z"/><path class="cls-2" d="M15.44,247.79c0-.7-.55-1.09-1.1-1.4l-.06,0a.2.2,0,0,0-.28.09A37.94,37.94,0,0,1,11.85,250h2.49l.44-.82A3.37,3.37,0,0,0,15.44,247.79Z"/><path class="cls-2" d="M9.58,6.59a.25.25,0,0,0,.39.07c1.8-1.55,2.86-3.8,3.94-5.87.14-.27.29-.53.43-.79H11.85c-.23.37-.46.75-.66,1.13C10.45,2.52,8.88,4.94,9.58,6.59Z"/><path class="cls-2" d="M47.43,10.15a.24.24,0,0,1,.13.11.27.27,0,0,1-.11.38l0,0-.09,0c-2.26.2-4.51.56-6.78.73-.85.06-4,.7-4.13-.71-.2-1.83,3.16-2.11,4.31-2.23A8.47,8.47,0,0,1,47.43,10.15Z"/><path class="cls-2" d="M223.65,161.5a.37.37,0,0,0,0-.63,9.4,9.4,0,0,1-4.33-5.15,0,0,0,0,1,0,0v0h0a.16.16,0,0,0-.07-.11l0,0,0,0a.26.26,0,0,0-.1,0h-.11l-.1,0h0a.31.31,0,0,0-.1.05l0,0-.06.06a.31.31,0,0,0-.06.16c-.39,1.7-1.85,3.19-2.36,4.88s-.76,4.75.57,6.11C219.15,169.18,222.12,162.53,223.65,161.5Z"/><path class="cls-2" d="M205.17,121.53c1.39,1,3.65,2.23,4.56,3.73a0,0,0,0,1,0,0l0,0v.05l0,0v.08c.42,1.74-.88,3.15-.92,4.86a.39.39,0,0,1-.47.37,14.14,14.14,0,0,1-7.43-6c-.6-1.06-2.06-4.23-.41-5.09C202,118.92,204.18,120.81,205.17,121.53Z"/><path class="cls-2" d="M84.81,244.89a.13.13,0,0,0-.09,0,.38.38,0,0,1,0-.1c.06-.23-.29-.38-.35-.14-.48,1.78-1,3.56-1.43,5.34h6.41A5,5,0,0,0,84.81,244.89Z"/><path class="cls-2" d="M81.7,5.6c3,.17,6.69-1.32,7.52-4.49A4.88,4.88,0,0,0,89.38,0H83c-.47,1.78-1,3.56-1.42,5.34A.19.19,0,0,0,81.7,5.6Z"/><path class="cls-2" d="M108.28,90.71c-.47-3.09-7.28-5.54-4-9.21a4,4,0,0,1,4.66-.87c2.44,1.05,3.54,3.62,4.47,5.91a.52.52,0,0,1-.25.66c.53-.27.94.57.42.9l-4.6,3A.52.52,0,0,1,108.28,90.71Z"/><path class="cls-2" d="M151.08,70.54a.47.47,0,0,1,.61.54,12.06,12.06,0,0,0,1.65,8.49v0l0,0h0a.44.44,0,0,1,.06.16v.09s0,0,0,0a.29.29,0,0,1,0,.13s0,0,0,0a.18.18,0,0,1,0,.07.28.28,0,0,1-.1.09h0a.21.21,0,0,1-.13,0h-.14a.43.43,0,0,1-.22-.06c-2-1-4.68-.73-6.78-1.6s-5.37-3.08-5.64-5.51C139.77,68.81,148.81,71.23,151.08,70.54Z"/><path class="cls-2" d="M192.77,229.88c-1.53-.64-.86-2.64.33-3.21a4.32,4.32,0,0,1,2.73-.15c1.29.27,2.55.59,3.86.75,1,.11,3.8-.18,3.65,1.51-.1,1.16-1.87,1.77-2.83,1.69h0c-1.42-.22-2.72-1.13-4.18-1.11C195.11,229.36,193.94,230.37,192.77,229.88Z"/><path class="cls-2" d="M52.76,174.43c2.91,1.16,3.76,8.34,8.08,5.95A4,4,0,0,0,62.73,176c-.46-2.62-2.72-4.27-4.74-5.69a.54.54,0,0,0-.71.09c.38-.45-.34-1-.78-.61l-3.9,3.82A.51.51,0,0,0,52.76,174.43Z"/><path class="cls-2" d="M50.91,208.76a.19.19,0,0,0,.28.07l9.49-5.68c.21-.13,0-.42-.23-.3l-.09.06a.15.15,0,0,0,0-.09,5,5,0,0,0-7.19-2.53C50.34,202,49.91,205.92,50.91,208.76Z"/><path class="cls-2" d="M183.54,177.55a3.41,3.41,0,0,1-1,.79,22.28,22.28,0,0,0-4,3.79c-.15.19-.39,0-.43-.15a7.5,7.5,0,0,0-2.41-4.32.41.41,0,0,1-.05-.09.18.18,0,0,1,0-.26c1.11-.94,2.06-2.06,3.15-3s2.33-2.13,3.73-2.21c1.71-.1,1.67,1.76,1.44,3A8.88,8.88,0,0,1,183.54,177.55Z"/><path class="cls-2" d="M150.15,188.58a14.2,14.2,0,0,1,1.62-2.32,7.76,7.76,0,0,0,1.28-1.76.26.26,0,0,1,.4-.13,4.36,4.36,0,0,0,4.19.46.27.27,0,0,1,.38.25,7.46,7.46,0,0,0,1,4.6v0a.23.23,0,0,1,0,.1v.08a.3.3,0,0,1,0,.08h0c-1.54,1.91-4.71,7.77-7.31,3.78C150.89,192.56,149.48,190,150.15,188.58Z"/><path class="cls-2" d="M124.16,60.35c1.39-.56,3.57-1.13,4.65-2.21h0l0,0,0,0,0,0a0,0,0,0,0,0,0l0,0c.73-1.39-.08-2.86.25-4.32a.34.34,0,0,0-.32-.41,12.36,12.36,0,0,0-7.58,3.5c-.73.77-2.64,3.15-1.43,4.24C120.88,61.88,123.16,60.75,124.16,60.35Z"/><path class="cls-2" d="M103.13,61.8c.21,2.11.43,4.21.64,6.32.16,1.5,0,3.42.94,4.71a3.2,3.2,0,0,0,3,1.37c.52-.06,2.15-.61,2.22-1.33h0c.21-1.81.69-3.57.87-5.37.12-1.19.29-3-.58-3.92s-2.28-1.06-3.32-1.27c-.7-.14-1.39-.25-2.09-.37-.19,0-1.16-.09-1.25-.27S103.1,61.58,103.13,61.8Z"/><path class="cls-2" d="M96.17,122.42c-1-1.27-1.64-3-.06-4.07a6.77,6.77,0,0,1,5.22-.48c1.55.44,4.23,1.79,4.2,3.69a5.11,5.11,0,0,1-1,2.34c-.43.7-1.69,2.17-1.39,3.1a.41.41,0,0,1-.76.29c-.91-1.74-2.71-2.36-4.28-3.31C97.67,123.72,96.44,123.05,96.17,122.42Z"/><path class="cls-2" d="M184.76,96.44l9.81-3.83a.3.3,0,0,0,.1-.51A14.32,14.32,0,0,1,190.89,86a.17.17,0,0,0-.06-.1.24.24,0,0,0-.32-.09c-2,.8-6.83,1.44-7.18,4.2a11.51,11.51,0,0,0,.39,3.59,7.38,7.38,0,0,0,.69,2.7A.32.32,0,0,0,184.76,96.44Z"/><path class="cls-2" d="M163.79,97.22a5.82,5.82,0,0,1-.54,1.49l-.8,2.13c-.53,1.4-1,2.81-1.58,4.2-.69,1.79-1.72,1.48-2.81.14-1.46-1.27-3.69-.71-4.28-3a7.45,7.45,0,0,1,1.34-5.62c2.18-3,6-.73,8.54.42A.23.23,0,0,1,163.79,97.22Z"/><path class="cls-2" d="M187,125.56c-.2,1.63.11,4.36-1.22,5.55a.29.29,0,0,0,0,.45.32.32,0,0,0,.48,0,71.19,71.19,0,0,0,7.34-5.69.34.34,0,0,0,.07-.41c-.84-1.86-2.86-5.93-5.33-3.51A5.64,5.64,0,0,0,187,125.56Z"/><path class="cls-2" d="M149,132.56c-.2,1.63.11,4.36-1.22,5.55a.29.29,0,0,0,0,.45.32.32,0,0,0,.48,0,71.19,71.19,0,0,0,7.34-5.69.34.34,0,0,0,.07-.41c-.84-1.86-2.86-5.93-5.33-3.51A5.64,5.64,0,0,0,149,132.56Z"/><path class="cls-2" d="M63.94,68.94a.3.3,0,0,1-.42,0L59.43,66a.24.24,0,0,1,0-.35.26.26,0,0,1,.33-.16c.38.1,2.8-3.22,3.19-3.71A32.93,32.93,0,0,1,66,58a.32.32,0,0,1,.36-.06c1.34.93,2.63,1.92,4,2.88a.32.32,0,0,1,0,.43Z"/><path class="cls-2" d="M52.14,65.24c.39-1.49.79-3,1.19-4.48.32-1.19,1-2.67.92-3.92-.17-2.54-4-.72-4.22-2.64a.3.3,0,0,0-.6,0q-1.34,4.94-2.65,9.86a.25.25,0,0,0,.17.31.3.3,0,0,0,.12.56l4.72.57A.33.33,0,0,0,52.14,65.24Z"/><path class="cls-2" d="M147,169.46c3.16-1.53,6.76-3,9.93-4.55.66,1.24,1.14,2.6,1.8,3.85l-9.78,4.3C148.18,171.78,147.71,170.74,147,169.46Z"/><path class="cls-2" d="M134.78,140c1.67.88,2.38,2.75,2.89,4.47a.34.34,0,0,1,0,.14.26.26,0,0,1-.19.24h-.05a.25.25,0,0,1-.22,0c.11.11,0,0-.24.13s-.45.19-.66.29c-.54.23-1.07.49-1.6.74-1.28.61-2.54,1.25-3.81,1.86a8.25,8.25,0,0,1-2.24,1c-1.17.14-2.39-1-3-1.9-2.1-3.32.92-6,4-6.95C131.31,139.44,133.23,139.12,134.78,140Z"/><path class="cls-2" d="M138.89,130.44c-.24.65-.47,1.31-.73,1.95a3.88,3.88,0,0,0-.52,1.68c.08.79.79,1.14,1.46,1.41h.08a.22.22,0,0,0,.3-.15c.63-2,1.72-3.79,2.44-5.73.61-1.69,2-4.68,1-6.43a.28.28,0,0,0-.45,0C140.62,125.2,139.79,127.92,138.89,130.44Z"/><path class="cls-2" d="M163.75,129.31a.26.26,0,0,1-.05-.21c0-.21.2-.32.39-.31h.06l.11,0c2.5,1.51,5.12,2.84,7.61,4.38.93.57,4.67,2.27,3.76,3.85-1.18,2.06-4.89-.19-6.17-.94C166.6,134.46,164.65,132.61,163.75,129.31Z"/><path class="cls-2" d="M24.47,139.74a.3.3,0,0,0,.19-.37c-.28-1.66-.57-3.31-.85-5a.23.23,0,0,0-.29-.2.25.25,0,0,0-.29.22c-.07.39-4.11,1.11-4.73,1.25a32.1,32.1,0,0,0-4.74,1.15.31.31,0,0,0-.21.3c.24,1.61.56,3.2.85,4.81,0,.17.24.23.38.2Z"/><path class="cls-2" d="M22.33,154.58c-.45.42-.9.83-1.33,1.26s-.69.84-1.17,1c-.67.21-1.2-.25-1.64-.69a.25.25,0,0,1,0-.07.2.2,0,0,1,0-.29c1.36-1.17,2.47-2.68,3.78-3.92,1.15-1.07,3.09-3.22,4.86-3a.25.25,0,0,1,.17.36C26,151.39,24,153,22.33,154.58Z"/><path class="cls-2" d="M101.55,145.56,112,146.91a.3.3,0,0,1,.23.47,14.36,14.36,0,0,0-2.2,6.81.29.29,0,0,1-.32.28c-2.18-.28-7,.25-8-2.34a11.65,11.65,0,0,1-.5-3.58,7.69,7.69,0,0,1,0-2.79A.34.34,0,0,1,101.55,145.56Z"/><path class="cls-2" d="M100.86,179.15a.27.27,0,0,0-.17.13.33.33,0,0,0,.08.49.05.05,0,0,1,0,0l.12,0c2.87.55,5.7,1.32,8.58,1.84,1.08.2,5,1.44,5.37-.34.5-2.33-3.76-3.13-5.22-3.43C106.43,177.24,103.74,177.3,100.86,179.15Z"/><path class="cls-2" d="M114.45,162.16q2-1.74,4-3.47c1.06-.93,2.24-2.37,3.57-2.91,2.7-1.1,2.72,3.7,4.82,3,.4-.14.59.38.3.62l-8.79,7.66a.3.3,0,0,1-.41,0,.35.35,0,0,1-.63.16l-3-4.57A.35.35,0,0,1,114.45,162.16Z"/><path class="cls-2" d="M117.18,226.85a.37.37,0,0,0-.49-.4,9.39,9.39,0,0,1-6.72-.23h0a.31.31,0,0,0-.13,0h-.11a.19.19,0,0,0-.09.05l0,0,0,0s0,.06-.06.08h0a.27.27,0,0,0,0,.12v.1a.48.48,0,0,0,.08.16c1,1.42,1.13,3.51,2,5s3,3.74,4.92,3.66C119.88,235.33,116.93,228.68,117.18,226.85Z"/><path class="cls-2" d="M83.09,221c-1.4.79-2.67,2.1-1.65,3.72a6.74,6.74,0,0,0,4.63,2.49c1.59.2,4.58,0,5.3-1.76a5,5,0,0,0,0-2.54c-.12-.82-.71-2.67-.07-3.4a.4.4,0,0,0-.58-.56c-1.52,1.24-3.42,1.11-5.24,1.37A5.37,5.37,0,0,0,83.09,221Z"/><path class="cls-2" d="M239.37,204a5.76,5.76,0,0,0-.7,1.43c-.32.69-.65,1.37-1,2.05-.63,1.36-1.29,2.7-1.92,4.06-.81,1.74.14,2.26,1.86,2.12,1.93.16,3.07,2.16,5.11,1a7.43,7.43,0,0,0,3.11-4.88c.65-3.65-3.62-4.8-6.23-5.85A.28.28,0,0,0,239.37,204Z"/><path class="cls-2" d="M212.35,192.1c-1.65-.16-2,1.93-1.22,3a4.33,4.33,0,0,0,2.35,1.41c1.26.37,2.53.68,3.76,1.16.9.35,3.26,1.94,3.93.37.45-1.07-.82-2.43-1.71-2.82h0c-1.36-.47-2.94-.28-4.21-1C214.18,193.66,213.62,192.22,212.35,192.1Z"/><path class="cls-2" d="M8.52,176.46a.25.25,0,0,0,0-.38l-8.51-8v10.09A10.56,10.56,0,0,0,8.52,176.46Z"/><path class="cls-2" d="M248.12,166.37c-.23-.21-.51.18-.29.39l.11.1a.22.22,0,0,0-.11,0A6.4,6.4,0,0,0,250,178.22V168.13Z"/><path class="cls-2" d="M38.26,43.25c.1-1.89,1.49-3.32,2.84-4.5a.21.21,0,0,1,.11-.08.25.25,0,0,1,.3.07h0s0,0,0,0a.24.24,0,0,1,.08.21c0-.15,0,0,.22.16s.36.32.54.48c.43.39.89.76,1.34,1.13L47,43.43a8.12,8.12,0,0,1,1.83,1.62c.62,1,.08,2.6-.47,3.47-2.12,3.31-5.82,1.71-8-.66C39.26,46.61,38.16,45,38.26,43.25Z"/><path class="cls-2" d="M15.49,56.66c-.31,1.47-.49,3.71-1.36,5v0l0,0,0,0s0,0,0,0l0,0a.05.05,0,0,1,0,0c-1.23,1-2.82.42-4.21,1a.33.33,0,0,1-.45-.25,12.29,12.29,0,0,1,2.13-8.07c.63-.85,2.64-3.14,3.92-2.14C16.43,53.17,15.71,55.61,15.49,56.66Z"/><path class="cls-2" d="M7.68,41.87A3.69,3.69,0,0,0,7,40.75a21.44,21.44,0,0,1-2.26-5c-.07-.22-.35-.18-.45,0A7.54,7.54,0,0,1,.47,38.84a.16.16,0,0,0-.08.06.18.18,0,0,0-.06.26c.67,1.28,1.14,2.68,1.79,4S3.48,46,4.75,46.58c1.55.74,2.2-1,2.44-2.21A8.59,8.59,0,0,0,7.68,41.87Z"/><path class="cls-2" d="M39.76,28.63c-2.64-2.41-10.45.32-10.16-5.32a4.58,4.58,0,0,1,3.51-4.12c2.92-.83,5.75.66,8.22,2a.6.6,0,0,1,.26.77c.27-.62,1.24-.17,1,.5-.66,2-1.31,3.94-2,5.92A.59.59,0,0,1,39.76,28.63Z"/><path class="cls-2" d="M214.72,243.51c-.49,2.16-1,4.33-1.46,6.49h4.26c.44-1.86.87-3.71,1.33-5.46C217.5,244.13,216.07,243.92,214.72,243.51Z"/><path class="cls-2" d="M216.27,5.15c.44-1.65.84-3.4,1.25-5.15h-4.26c-.3,1.31-.6,2.62-.89,3.93C213.76,4.41,214.88,4.67,216.27,5.15Z"/><path class="cls-2" d="M194.65,14.16a13.93,13.93,0,0,1,1.33,2.5,7.89,7.89,0,0,0,1,1.94.26.26,0,0,1-.07.41,4.37,4.37,0,0,0-2.3,3.53.26.26,0,0,1-.4.22,7.5,7.5,0,0,0-4.55-1.21h0a.17.17,0,0,1-.1,0l0,0s0,0,0,0a.12.12,0,0,1-.05-.07h0c-1-2.23-4.78-7.72,0-8.23C190.77,13,193.65,12.9,194.65,14.16Z"/><path class="cls-2" d="M234.94,16.62c-.23-1.63-1.23-4.19-.26-5.68a.28.28,0,0,0-.09-.44.31.31,0,0,0-.47.07A71.81,71.81,0,0,0,228.5,18a.35.35,0,0,0,0,.41c1.29,1.57,4.3,5,6.05,2A5.64,5.64,0,0,0,234.94,16.62Z"/><path class="cls-2" d="M48.27,77.59q1.56-2.3,3.1-4.61c.73-1.09,1.43-2.63,2.66-3.26a2.81,2.81,0,0,1,2.88.18c.38.26,1.41,1.35,1.17,1.94h0c-.58,1.48-.93,3-1.54,4.51-.39,1-1,2.4-2.06,2.79-.93.34-2.19-.12-3.09-.39-.59-.17-1.17-.38-1.76-.57-.16-.05-.93-.41-1.07-.3S48.16,77.76,48.27,77.59Z"/><path class="cls-2" d="M44.41,114.91l-7.79-9.17a.34.34,0,0,0-.59.07,16.44,16.44,0,0,1-5.16,6.35.2.2,0,0,0-.09.11.29.29,0,0,0,0,.37c1.63,1.91,4.1,6.84,7.21,6.19a12.9,12.9,0,0,0,3.74-1.75c.72-.42,2.17-1,2.66-1.75A.36.36,0,0,0,44.41,114.91Z"/><path class="cls-2" d="M63.42,78.05a5.45,5.45,0,0,0-.91,1.29l-1.29,1.88c-.84,1.24-1.7,2.46-2.53,3.71-1.07,1.59-.22,2.25,1.5,2.38,1.88.46,2.69,2.62,4.89,1.8a7.5,7.5,0,0,0,3.84-4.33c1.21-3.5-2.83-5.31-5.25-6.76A.25.25,0,0,0,63.42,78.05Z"/><path class="cls-2" d="M116,247c-1.22.56-3.39,1.62-4.05,3h6.9a30.91,30.91,0,0,0-2.45-2.91A.35.35,0,0,0,116,247Z"/><path class="cls-2" d="M112.52,2.35a5.61,5.61,0,0,0,3.57,1.32c1.63.2,4.36-.11,5.55,1.22a.29.29,0,0,0,.45,0,.33.33,0,0,0,0-.48C121,3,120,1.46,118.89,0H112A1.91,1.91,0,0,0,112.52,2.35Z"/><path class="cls-2" d="M123.21,214.21a.43.43,0,0,0,.7-.2,10.71,10.71,0,0,1,4.62-6.14v0h0a.18.18,0,0,0,.11-.1.16.16,0,0,0,0-.07l0,0a.25.25,0,0,0,0-.12s0,0,0,0a.22.22,0,0,0,0-.08s0-.08,0-.11h0a.28.28,0,0,0-.09-.1s0,0,0,0l-.08,0a.45.45,0,0,0-.2,0c-2,0-4-1.24-6-1.36s-5.48.37-6.65,2.2C113.5,211.18,121.66,212.77,123.21,214.21Z"/><path class="cls-2" d="M225.53,54.93,220,54.82c-1.32,0-3-.34-4.2.3a2.83,2.83,0,0,0-1.5,2.46c0,.46.3,1.94.92,2.08h0c1.54.37,3,1,4.57,1.33,1,.23,2.53.56,3.47-.09a5.44,5.44,0,0,0,1.45-2.75c.2-.59.37-1.18.55-1.77,0-.16.2-1,.37-1.06S225.73,54.93,225.53,54.93Z"/><path class="cls-2" d="M184.76,68.58c-1.26-1.33-3.06-2.38-4.58-.79-1.35,1.42-1.68,3.94-1.47,5.81S180,78.69,182.12,79a5.79,5.79,0,0,0,2.81-.72c.87-.35,2.76-1.52,3.75-1a.46.46,0,0,0,.46-.8c-1.8-1.33-2.18-3.48-3-5.43C186,70.5,185.42,69,184.76,68.58Z"/><path class="cls-2" d="M218.33,207a16.45,16.45,0,0,1,2.28-2.29c.49-.47,1.49-1.1,1.79-1.72a.3.3,0,0,1,.48-.07,5,5,0,0,0,4.62,1.34c.21,0,.45.13.38.36a8.47,8.47,0,0,0,.2,5.38,0,0,0,0,0,0,0,.45.45,0,0,1,0,.12,0,0,0,0,1,0,0,.1.1,0,0,1,0,.06.18.18,0,0,1,0,.07v0h0c-2.11,1.84-6.84,7.81-9,2.8C218.37,211.66,217.29,208.56,218.33,207Z"/><path class="cls-2" d="M134.4,110.93c1.82,1.5,3.91-.69,3.82-2.57a6.15,6.15,0,0,0-1.64-3.55c-1.2-1.45-2.45-2.82-3.53-4.37-.79-1.14-2.32-4.91-4.36-3.59-1.39.91-1,3.55-.23,4.71l0,0a0,0,0,0,0,0,0c1.23,1.64,3.25,2.67,4.21,4.52C133.48,107.62,133,109.77,134.4,110.93Z"/><path class="cls-2" d="M71.35,176.36c1.15,3.39,9.29,4.79,6.31,9.58a4.59,4.59,0,0,1-5.07,1.9c-3-.69-4.71-3.36-6.21-5.76a.61.61,0,0,1,.15-.8c-.53.41-1.17-.45-.65-.93l4.59-4.22A.59.59,0,0,1,71.35,176.36Z"/><path class="cls-2" d="M96.81,101.27c.17.77.34,1.53.47,2.3a4.52,4.52,0,0,0,.5,1.92A2.17,2.17,0,0,0,100,106a.18.18,0,0,0,.09,0,.25.25,0,0,0,.19-.32c-.56-2.23-.62-4.65-1.09-6.92-.42-2-.88-5.66-2.92-6.71a.33.33,0,0,0-.45.25C95.34,95.24,96.17,98.34,96.81,101.27Z"/><path class="cls-2" d="M249.77,118.3q-.11,8.4-.22,16.79l.45,0V118.32Z"/><path class="cls-2" d="M6.45,118.55c-2.13-.19-4.32-.07-6.45-.23v16.82c2.09.24,3.81.29,6,.56C6.22,130.19,6.18,124.06,6.45,118.55Z"/><path class="cls-2" d="M32.85,172.89a5.27,5.27,0,0,0-1.59-.94A31.63,31.63,0,0,1,25,167.26c-.24-.23-.56,0-.58.29a10.77,10.77,0,0,1-2.67,6.56.31.31,0,0,0-.06.13.26.26,0,0,0,.1.36c1.74,1.14,3.29,2.57,5,3.73,1.55,1.07,3.66,2.63,5.66,2.49,2.45-.16,2.06-2.79,1.52-4.46C33.67,175.46,33.45,173.61,32.85,172.89Z"/><path class="cls-2" d="M91.48,47.15l-3.34,3.22c-.89.86-1.85,2.17-3,2.7-2.3,1.09-2.54-3.1-4.35-2.4-.34.13-.53-.31-.29-.53L87.84,43a.25.25,0,0,1,.36,0,.31.31,0,0,1,.55-.17l2.79,3.86A.31.31,0,0,1,91.48,47.15Z"/><path class="cls-2" d="M91.16,237.62c.55-1.85,1-4.7,2.3-6.21v0l0,0,0,0,0,0,0,0,0,0c1.69-1.08,3.67-.21,5.51-.8a.44.44,0,0,1,.56.37,15.94,15.94,0,0,1-3.64,10.1c-.91,1-3.74,3.73-5.26,2.3C89.56,242,90.76,238.94,91.16,237.62Z"/><path class="cls-2" d="M124.08,46.33a.22.22,0,0,1,0-.34l9.53-8.3c.21-.18.45.18.24.36l-.09.08.09,0a5.72,5.72,0,0,1,.21,8.71C131.27,49.35,126.82,48.41,124.08,46.33Z"/><path class="cls-2" d="M57.33,245.35c-1.51.85-3.52,2.69-3.78,4.65h15C66.42,245.66,62.41,242.48,57.33,245.35Z"/><path class="cls-2" d="M55.11,4.87c1,2.42,2.07,4.83,3.08,7.25.42,1,.85,2,1.22,3,.16.42.3.86.46,1.26s0,.65.23.46a.46.46,0,0,0-.06.41s0,0,0,.07a0,0,0,0,1,0,0,.47.47,0,0,0,.42.37.5.5,0,0,0,.27,0c3.23-.77,6.76-1.9,8.57-4.91,1.7-2.81,1.29-6.39.52-9.42A16.81,16.81,0,0,0,68.56,0h-15a3.22,3.22,0,0,0,0,.62C53.62,2,54.57,3.61,55.11,4.87Z"/><path class="cls-2" d="M73.09,203.55a.3.3,0,0,0,.4-.16L76,199.05a.24.24,0,0,0-.1-.35.25.25,0,0,0-.36,0c-.31.25-3.86-1.8-4.43-2.08a32.31,32.31,0,0,0-4.37-2.17.3.3,0,0,0-.35.09c-.85,1.39-1.63,2.82-2.44,4.24a.31.31,0,0,0,.16.39Z"/><path class="cls-2" d="M188.9,195.75a.27.27,0,0,0,.18-.13.32.32,0,0,0-.08-.48.1.1,0,0,1-.05,0l-.11,0c-2.87-.55-5.7-1.32-8.58-1.84-1.08-.2-5-1.44-5.38.35-.49,2.32,3.77,3.12,5.22,3.43C183.34,197.66,186,197.6,188.9,195.75Z"/><path class="cls-2" d="M216.93,183.41a.22.22,0,0,1-.3-.15q-2.07-6-4.13-11.95c-.09-.26.33-.34.42-.09l0,.12a.29.29,0,0,1,.08-.07,5.71,5.71,0,0,1,8.15,3.07C222.43,177.88,219.89,181.65,216.93,183.41Z"/><path class="cls-2" d="M157.92,204.08a16.62,16.62,0,0,1,1.09-3,8.45,8.45,0,0,0,.9-2.32.3.3,0,0,1,.4-.27,5,5,0,0,0,4.76-.73.31.31,0,0,1,.5.17,8.51,8.51,0,0,0,2.44,4.78l0,0a.26.26,0,0,1,.07.1v0a.13.13,0,0,1,0,.06.16.16,0,0,1,0,.1h0c-1.13,2.56-2.9,10-7,6.34C159.91,208.26,157.61,205.9,157.92,204.08Z"/><path class="cls-2" d="M93.56,142.14c-.61.05-1.21.09-1.82.17a3.35,3.35,0,0,1-1.54.06c-.65-.25-.78-.93-.86-1.55,0,0,0-.06,0-.08a.2.2,0,0,1,.2-.21c1.79-.1,3.59-.6,5.39-.77,1.57-.14,4.41-.63,5.66.65a.26.26,0,0,1-.09.39C98.38,141.86,95.89,141.94,93.56,142.14Z"/><path class="cls-2" d="M147.88,120.28c.48,1.83,2.85,1.4,3.68.14a4.89,4.89,0,0,0,.6-3.07c-.09-1.5-.25-3-.22-4.49,0-1.11.8-4.27-1.14-4.37-1.33-.07-2.29,1.84-2.36,2.94v0s0,0,0,0c0,1.64.85,3.26.6,4.91C148.84,117.71,147.52,118.87,147.88,120.28Z"/><path class="cls-2" d="M221.86,100c.17-4.51.64-9.51.82-14,1.81,0,3.65.28,5.46.28l-1,13.7C225.22,100,223.76,99.94,221.86,100Z"/><path class="cls-2" d="M11.49,223.76c.48-3.54,8.21-6.47,4.36-10.61a4.58,4.58,0,0,0-5.34-.89c-2.76,1.24-4,4.2-5,6.83a.61.61,0,0,0,.3.76c-.6-.3-1.06.66-.46,1l5.31,3.26A.58.58,0,0,0,11.49,223.76Z"/><path class="cls-2" d="M84.59,152.44a.59.59,0,0,1,.74.28l4.84,8a.42.42,0,0,1-.17.63.46.46,0,0,1-.67,0c-.58-.46-7.11,3.47-8.15,4-2.59,1.39-5.25,3.19-8.05,4.17a.56.56,0,0,1-.65-.16c-1.63-2.55-3.12-5.18-4.67-7.79a.57.57,0,0,1,.28-.73Z"/><path class="cls-2" d="M5.44,204.9l7.88-.94c1.87-.23,4.28-.12,5.87-1.27a4,4,0,0,0,1.65-3.78c-.09-.65-.81-2.68-1.71-2.76h0c-2.26-.22-4.47-.78-6.73-1-1.49-.12-3.69-.29-4.89.82-1,1-1.27,2.87-1.51,4.18-.16.87-.28,1.74-.42,2.61,0,.24-.08,1.46-.31,1.57S5.16,204.94,5.44,204.9Z"/><path class="cls-2" d="M73.4,134.62a.37.37,0,0,1-.59-.23,9.38,9.38,0,0,0-3.46-5.77h0a.28.28,0,0,1-.09-.1.14.14,0,0,1,0-.06s0,0,0,0a.2.2,0,0,1,0-.11s0,0,0,0a.14.14,0,0,1,0-.07.26.26,0,0,1,0-.09h0a.34.34,0,0,1,.09-.08l0,0,.07,0a.55.55,0,0,1,.18,0c1.73.19,3.61-.71,5.38-.64s4.74.83,5.59,2.53C82.13,132.88,74.87,133.51,73.4,134.62Z"/><path class="cls-2" d="M97.75,197.57c-.75-2.24-1.47-5.7-3.07-7.5l0,0,0-.06-.06,0,0-.05,0,0s0,0-.06,0c-2.11-1.26-4.49-.11-6.76-.74a.53.53,0,0,0-.67.47,19.39,19.39,0,0,0,4.88,12.18c1.15,1.2,4.72,4.4,6.52,2.58C99.89,202.83,98.3,199.17,97.75,197.57Z"/><path class="cls-2" d="M184.71,149.4a6.67,6.67,0,0,0-2.18,1,40.92,40.92,0,0,1-9.61,3.36.46.46,0,0,0-.11.83,14.11,14.11,0,0,1,5.13,7.65.37.37,0,0,0,.09.16.34.34,0,0,0,.47.15c2.49-1,5.15-1.68,7.66-2.68,2.27-.9,5.49-2,6.8-4.29,1.6-2.76-1.51-4.25-3.7-4.88C188.07,150.37,185.91,149.27,184.71,149.4Z"/><path class="cls-2" d="M63.26,106.74l.21-5.95c.06-1.59-.23-3.66.35-5.17C65,92.55,69,96.22,70,94c.2-.44.76-.19.74.23l-.45,13.11a.32.32,0,0,1-.33.32.39.39,0,0,1-.35.64l-6-1.07A.4.4,0,0,1,63.26,106.74Z"/><path class="cls-2" d="M36.52,77.13c-2.41,1.75-5.53,1.46-8.3,1a.4.4,0,0,1-.22-.06.4.4,0,0,1-.2-.44s0,0,0,0,0,0,0-.06a.41.41,0,0,1,.19-.29c-.23.07,0,0,0-.43s.05-.76.06-1.14c.05-.92.05-1.84.05-2.76,0-2.23,0-4.45,0-6.67a12.59,12.59,0,0,1,.17-3.83c.6-1.75,3.09-2.67,4.7-2.86C39.09,58.89,40.8,65,40,70,39.63,72.58,38.77,75.5,36.52,77.13Z"/><path class="cls-2" d="M204.42,98.28c2.67.92,6.64,3.44,9.48,2.29a.5.5,0,0,1,.71.3.55.55,0,0,1-.29.77c-4.73,2.43-9.27,5.24-14.29,7a.61.61,0,0,1-.68-.2c-2.23-2.7-7-8.87-1.41-10.85C200.1,96.84,202.35,97.56,204.42,98.28Z"/><path class="cls-2" d="M235.56,82.62a5.75,5.75,0,0,1-1.06-1.18L233,79.73c-1-1.12-2-2.23-3-3.36-1.26-1.46-.5-2.22,1.2-2.56,1.81-.68,2.35-2.92,4.63-2.37a7.43,7.43,0,0,1,4.34,3.82c1.63,3.33-2.16,5.62-4.38,7.35A.27.27,0,0,1,235.56,82.62Z"/><path class="cls-2" d="M169.91,33.56l-9.14,7.84a.35.35,0,0,1-.57-.16,16.38,16.38,0,0,0-4.1-7.08A.29.29,0,0,1,156,34a.27.27,0,0,1,.08-.36c1.9-1.64,5.12-6.12,8.09-5A13.11,13.11,0,0,1,167.61,31c.66.53,2,1.33,2.36,2.15A.36.36,0,0,1,169.91,33.56Z"/><path class="cls-2" d="M180.83,218.33a.26.26,0,0,0-.14-.2.37.37,0,0,0-.54.09l0,.06a.43.43,0,0,0-.05.12c-.62,3.19-1.47,6.34-2,9.53-.22,1.2-1.59,5.56.39,6,2.58.55,3.47-4.19,3.81-5.8C183,224.51,182.89,221.53,180.83,218.33Z"/><path class="cls-2" d="M12.43,102.09c1.12-1.14,2.71-2,4-.62a6.75,6.75,0,0,1,1.2,5.11c-.22,1.58-1.18,4.43-3.07,4.66a5.06,5.06,0,0,1-2.45-.67c-.76-.33-2.39-1.38-3.27-.95a.41.41,0,0,1-.39-.71c1.6-1.14,2-3,2.68-4.7C11.35,103.76,11.85,102.44,12.43,102.09Z"/><path class="cls-2" d="M243.94,0h-8.07C238,.31,241.69,1.12,243.94,0Z"/><path class="cls-2" d="M244.66,248.83c-3.26-1.84-7.16-2.18-10.8-2.67-1-.13-1.9-.26-2.84-.42a5.35,5.35,0,0,0-2.41-.23c-1,.34-1.31,1.4-1.47,2.37a.24.24,0,0,0,0,.12.3.3,0,0,0,.29.35c2.8.3,5.59,1.24,8.4,1.64h8.11a3.31,3.31,0,0,0,.82-.56A.39.39,0,0,0,244.66,248.83Z"/><path class="cls-2" d="M82.81,62.76a6.91,6.91,0,0,1,2.27.79A41.11,41.11,0,0,0,95,65.89c.43,0,.45.57.19.82a14,14,0,0,0-4.29,8.13.67.67,0,0,1-.08.17.35.35,0,0,1-.45.21c-2.59-.78-5.3-1.14-7.9-1.87-2.35-.66-5.67-1.46-7.21-3.56-1.88-2.57,1.06-4.38,3.17-5.24C79.57,64.08,81.59,62.76,82.81,62.76Z"/><path class="cls-2" d="M119.53,108.07l-5.55.11c-1.32,0-3,.34-4.2-.3a2.83,2.83,0,0,1-1.5-2.46c0-.46.3-1.94.92-2.08h0c1.54-.37,3-1,4.57-1.33,1-.23,2.53-.56,3.47.09a5.44,5.44,0,0,1,1.45,2.75c.2.59.37,1.18.55,1.77.05.16.2,1,.37,1.06S119.73,108.07,119.53,108.07Z"/><path class="cls-2" d="M238.78,162.24c1,1.33-.63,2.71-1.94,2.58a4.25,4.25,0,0,1-2.42-1.28c-1-.89-1.88-1.82-2.93-2.62-.76-.6-3.34-1.81-2.34-3.18.68-.94,2.51-.55,3.3,0,0,0,0,0,0,0h0c1.1.92,1.75,2.37,3,3.11C236.5,161.48,238,161.22,238.78,162.24Z"/><path class="cls-2" d="M206.42,76.28a.53.53,0,0,0,0,.91A13.45,13.45,0,0,1,212.06,85a0,0,0,0,0,0,0v0h0a.38.38,0,0,0,.08.17l.07.06.05,0a.28.28,0,0,0,.14.06.06.06,0,0,0,.05,0h.25a.52.52,0,0,0,.15-.07l0,0,.08-.07a.51.51,0,0,0,.11-.22c.72-2.39,3-4.36,3.85-6.72s1.56-6.7-.2-8.77C213.59,65.78,208.71,75,206.42,76.28Z"/><path class="cls-2" d="M130.36,233.24c-1,2.57-1.3,5.67,1.82,6.73,2.8.94,6.43-.21,8.84-1.68s6.12-4.94,5.17-8.06c-.42-1.38-1.77-2.44-2.77-3.36s-3.82-2.8-3.76-4.46a.69.69,0,0,0-1.38-.11c-.67,3.29-3.35,5.16-5.49,7.47C132.22,230.39,130.5,232.09,130.36,233.24Z"/><path class="cls-2" d="M206.41,195.38a.31.31,0,0,0,.18-.38c-.34-1.64-.68-3.28-1-4.93a.23.23,0,0,0-.3-.19.25.25,0,0,0-.27.23c-.06.4-4.08,1.25-4.69,1.42a33.06,33.06,0,0,0-4.7,1.31.32.32,0,0,0-.2.31c.3,1.6.68,3.18,1,4.78,0,.16.24.22.38.18Z"/><path class="cls-2" d="M155.52,18.34l-9.18,5.16a.3.3,0,0,0,0,.52,14.36,14.36,0,0,1,4.59,5.49.19.19,0,0,0,.08.1.25.25,0,0,0,.32,0c1.91-1.07,6.56-2.38,6.52-5.16a11.26,11.26,0,0,0-.88-3.5,7.49,7.49,0,0,0-1.06-2.58A.31.31,0,0,0,155.52,18.34Z"/><path class="cls-2" d="M208.06,173.42a.21.21,0,0,0,.19-.28l-2.4-12.41c0-.27-.46-.14-.41.13l0,.12-.1,0a5.73,5.73,0,0,0-5.53,6.74C200.54,171.38,204.62,173.38,208.06,173.42Z"/><path class="cls-2" d="M194.63,248.68q-1.15-2-2.32-4c-.62-1.07-1.66-2.32-1.9-3.55-.49-2.5,3.64-1.72,3.39-3.64a.31.31,0,0,1,.59-.16l5.11,8.84a.25.25,0,0,1-.09.34.3.3,0,0,1,0,.57L195,248.84A.31.31,0,0,1,194.63,248.68Z"/><path class="cls-2" d="M163.58,90.67c-2.4-.42-4-2.42-5.31-4.32a.35.35,0,0,1-.08-.16.32.32,0,0,1,.14-.37h0l0,0a.33.33,0,0,1,.29-.06c-.18-.1,0,0,.23-.26s.47-.41.7-.61c.57-.5,1.12-1,1.66-1.54l3.92-3.8a10.33,10.33,0,0,1,2.35-2.08c1.37-.63,3.33.31,4.36,1.15,3.89,3.22,1.26,7.7-2.1,10.07C168,89.92,165.81,91.07,163.58,90.67Z"/><path class="cls-2" d="M208.24,53a9.12,9.12,0,0,1-2.48-.17l-3.57-.29c-2.35-.2-4.69-.36-7-.57-3-.27-3-2-1.43-4.19,1.29-2.75-.53-5.88,2.64-7.75,2.53-1.48,6.4-1.38,9.09-.41,5.47,2,3.69,8.71,3.06,13.09A.39.39,0,0,1,208.24,53Z"/><path class="cls-2" d="M232.76,33.32c4,.08,8.46.42,12.47.51,0,1.61-.19,3.24-.16,4.85L232.88,38C232.79,36.3,232.85,35,232.76,33.32Z"/><path class="cls-2" d="M.37,64A.33.33,0,0,0,0,63.71v.79l.11,0A.37.37,0,0,0,.37,64Z"/><path class="cls-2" d="M249.93,63.72c-2,.49-4.37-1.54-6.05-2.39a6.43,6.43,0,0,0-4.22-1c-3.86.79-1.29,5.31-.07,7.3a.42.42,0,0,0,.43.19,82,82,0,0,0,10-3.28v-.79Z"/><path class="cls-2" d="M222.74,225.74c-3.88,2.22-3.66,12.55-10.25,10A5.73,5.73,0,0,1,209,230c.15-3.79,3-6.58,5.59-9a.76.76,0,0,1,1,0c-.62-.56.28-1.54,1-1l6.28,4.63A.73.73,0,0,1,222.74,225.74Z"/><path class="cls-2" d="M56.24,32.18c.12-1.5,0-3.75.75-5.1v0l0,0,0,0s0,0,0,0l0,0,0,0c1.11-1.11,2.75-.76,4.06-1.5a.33.33,0,0,1,.48.18,12.38,12.38,0,0,1-1.13,8.27c-.53.93-2.24,3.45-3.63,2.6C55.73,35.75,56.15,33.25,56.24,32.18Z"/><path class="cls-2" d="M25.69,217.94a.31.31,0,0,0-.06.26.41.41,0,0,0,.47.38.09.09,0,0,1,.07,0l.14-.06c3.06-1.84,6.25-3.46,9.3-5.34,1.14-.7,5.71-2.78,4.6-4.71-1.45-2.52-6,.24-7.55,1.15C29.17,211.65,26.79,213.91,25.69,217.94Z"/><path class="cls-2" d="M41.72,1.2a.26.26,0,0,0,.42,0A5.39,5.39,0,0,1,43.58,0H40.1A4.53,4.53,0,0,1,41.72,1.2Z"/><path class="cls-2" d="M46,248c1-1.24.31-4-.13-5.4-1.48-4.52-6.06.32-8,1.76h0a.13.13,0,0,0-.06.07.08.08,0,0,0,0,.05v0a.2.2,0,0,0,0,.11s0,0,0,0a7.42,7.42,0,0,1-.24,4.7.27.27,0,0,0,.3.34,4.45,4.45,0,0,1,2.31.32h3.48l.26-.19A15,15,0,0,0,46,248Z"/><path class="cls-2" d="M11.85,93.55l-5.1-6.09C5.39,85.84,3.26,84,2.48,82,.9,78,8.1,78,7.12,74.87c-.19-.61.59-.87.94-.44q5.64,6.7,11.26,13.39a.44.44,0,0,1-.05.62.52.52,0,0,1,.23,1L12.57,93.7A.54.54,0,0,1,11.85,93.55Z"/><path class="cls-2" d="M168.38,24.06a.37.37,0,0,0,.55-.19q4.69-10,9.37-20c.21-.44-.51-.66-.71-.23l-.1.2a.31.31,0,0,0-.12-.14,10,10,0,0,0-14.75,3.85C159.83,13.44,163.55,20.47,168.38,24.06Z"/><path class="cls-2" d="M229.75,137.16c1.06-1.26,2.29-3.72,4.05-4a.28.28,0,0,0,.27-.36.33.33,0,0,0-.38-.3,71.69,71.69,0,0,0-9.26.78.35.35,0,0,0-.28.3c-.3,2-.83,6.53,2.56,5.85A5.68,5.68,0,0,0,229.75,137.16Z"/><path class="cls-2" d="M172.28,53.92c-1.95-.94-2.83-3.05-3.47-5a.23.23,0,0,1,0-.16.28.28,0,0,1,.2-.28H169a.28.28,0,0,1,.25,0c-.13-.12,0,0,.27-.16s.5-.23.75-.35c.6-.29,1.2-.6,1.79-.91,1.43-.76,2.85-1.53,4.28-2.28a9,9,0,0,1,2.52-1.2c1.33-.21,2.77,1.08,3.44,2,2.53,3.7-.81,6.88-4.26,8.09C176.26,54.37,174.09,54.81,172.28,53.92Z"/><path class="cls-2" d="M106.43,32.09c-3.07-4-6.24-8.55-9.31-12.52,1.54-1.29,3.3-2.36,4.85-3.66l8.91,12.39C109.31,29.71,108,30.68,106.43,32.09Z"/><path class="cls-2" d="M63.63,232.47c2.14.16,5.29.79,7.37.09h0l.06,0,0,0,0,0,0,0,0,0c1.8-1.32,1.68-3.72,3-5.39a.48.48,0,0,0-.15-.73A17.65,17.65,0,0,0,62.21,226c-1.42.54-5.36,2.4-4.48,4.55C58.47,232.39,62.1,232.36,63.63,232.47Z"/><path class="cls-2" d="M43.44,134.67a19.15,19.15,0,0,0-.44-3.61,9.76,9.76,0,0,1-.39-2.77.35.35,0,0,0-.38-.39,5.61,5.61,0,0,1-5-2,.34.34,0,0,0-.58.06,9.65,9.65,0,0,1-3.9,4.63h0a.28.28,0,0,0-.1.09,0,0,0,0,0,0,0l0,.07a.21.21,0,0,0,0,.11h0v0s0,0,0,0c.59,3.09.66,11.66,6,8.7C40.2,138.74,43.31,136.73,43.44,134.67Z"/><path class="cls-2" d="M139.38,191.42c-1.55-3.06-3.1-6.14-4.66-9.2-1.1-2.19-2-5.18-4.16-6.61a5.22,5.22,0,0,0-5.35-.33c-.75.4-2.91,2.18-2.6,3.31h0c.74,2.86,1,5.81,1.81,8.66.51,1.87,1.28,4.64,3.17,5.6,1.64.84,4.08.28,5.78,0,1.14-.19,2.25-.43,3.38-.65.3-.06,1.81-.55,2.05-.31S139.55,191.75,139.38,191.42Z"/><path class="cls-2" d="M247.49,9.14c-2.69,1.14,0,5.19.64,6.74.77,2,1.28,4,1.87,6V9.51A2.77,2.77,0,0,0,247.49,9.14Z"/><path class="cls-2" d="M2.54,26.34c1.81,1.35,5.39.74,5.12-2.08C7.45,22.08,5,21.12,4,19.36c-1.2-2.19-.87-4.9-1.67-7.22,0,0,0,0,0,0s0,0,0,0A6.14,6.14,0,0,0,0,9.51v12.4l.12.41A7.38,7.38,0,0,0,2.54,26.34Z"/><path class="cls-2" d="M234.91,107.84a.49.49,0,0,0-.45-.49l-7.81-1.26a.35.35,0,0,0-.44.33.39.39,0,0,0,.17.54c.55.31-.46,6.68-.56,7.66a51.57,51.57,0,0,0-.72,7.64.48.48,0,0,0,.34.46c2.51.47,5.05.8,7.59,1.2.26,0,.46-.23.49-.46Q234.21,115.65,234.91,107.84Z"/><path class="cls-2" d="M149.89,62.38q-2.58-6.26-5.15-12.52a.39.39,0,0,0-.65-.13,18.45,18.45,0,0,1-7.73,5,.42.42,0,0,0-.14.09.32.32,0,0,0-.1.4c1.07,2.62,2,8.75,5.56,9.14a14.39,14.39,0,0,0,4.6-.58c.93-.19,2.68-.32,3.46-1A.39.39,0,0,0,149.89,62.38Z"/><path class="cls-2" d="M17.8,240.57a4.67,4.67,0,0,0,1.65-.15,28.19,28.19,0,0,1,7.05.09c.3,0,.4-.31.27-.52a9.69,9.69,0,0,1-1.53-6.18.19.19,0,0,0,0-.13.24.24,0,0,0-.27-.21c-1.87.09-3.75-.13-5.62-.07-1.69,0-4,0-5.43,1.18-1.7,1.41,0,3.12,1.25,4C15.84,239.14,17,240.37,17.8,240.57Z"/><path class="cls-2" d="M48.22,163a.26.26,0,0,0,.16.09.29.29,0,0,0,.36-.26.06.06,0,0,1,0,0,.37.37,0,0,0,0-.11c-.68-2.51-1.17-5.07-1.87-7.57-.26-.94-.8-4.56-2.37-4.16-2,.5-1,4.22-.71,5.5C44.52,159.29,45.62,161.41,48.22,163Z"/><path class="cls-2" d="M136.62,24a7.46,7.46,0,0,1-2-.29l-2.9-.43c-1.9-.3-3.81-.56-5.7-.87-2.45-.39-2.32-1.77-.93-3.5,1.21-2.18-.1-4.83,2.6-6.18,2.14-1.06,5.3-.76,7.44.19,4.35,1.93,2.51,7.32,1.75,10.85A.33.33,0,0,1,136.62,24Z"/><path class="cls-2" d="M62.6,123.62c-.68,2.43-2.18,4.86-5.05,3.91-2.57-.85-4.59-3.7-5.54-6.1s-1.75-7,.66-8.75c1.06-.78,2.64-.82,3.88-.94s4.34.06,5.21-1.19a.64.64,0,0,1,1.08.68c-1.33,2.78-.4,5.63-.11,8.5C62.81,120.5,63.13,122.69,62.6,123.62Z"/><path class="cls-2" d="M77.52,26.76c.19.94.38,1.88.53,2.82a5.26,5.26,0,0,0,.57,2.35c.66.87,1.75.78,2.72.63l.11-.05a.3.3,0,0,0,.24-.39c-.63-2.74-.65-5.69-1.18-8.47-.47-2.43-1-6.95-3.43-8.27a.4.4,0,0,0-.55.3C75.86,19.36,76.8,23.16,77.52,26.76Z"/><path class="cls-2" d="M22.62,3.8c1.26,3.82-5.11,10.59.82,12.88A5.17,5.17,0,0,0,29.28,15c2.18-2.62,1.95-6.21,1.67-9.37A.67.67,0,0,0,30.28,5c.76,0,.74-1.2,0-1.28l-7-.68A.65.65,0,0,0,22.62,3.8Z"/><path class="cls-2" d="M214.59,142.8a.7.7,0,0,1,.32,1.14,17.39,17.39,0,0,0-4.69,11.58,0,0,0,0,0,0,0v0h0a.4.4,0,0,1,0,.24.44.44,0,0,1-.06.1L210,156a.53.53,0,0,1-.15.12l-.06,0-.13.05a.52.52,0,0,1-.18,0h0a.52.52,0,0,1-.21,0l0,0-.13-.06a.85.85,0,0,1-.21-.25c-1.65-2.78-5.1-4.57-7-7.27s-4.08-7.95-2.5-11.11C202.25,131.81,211.3,141.86,214.59,142.8Z"/><path class="cls-2" d="M101,6a15,15,0,0,0-2.16-1.82,7.36,7.36,0,0,1-1.7-1.37.26.26,0,0,0-.42,0,4.35,4.35,0,0,1-3.93,1.52.27.27,0,0,0-.3.34,7.42,7.42,0,0,1,.24,4.7s0,0,0,0a.2.2,0,0,0,0,.11v0a.08.08,0,0,0,0,.05.13.13,0,0,0,.06.07h0c2,1.44,6.56,6.28,8,1.76C101.31,10,102,7.25,101,6Z"/><path class="cls-2" d="M118,72.9a.54.54,0,0,0-.52.52L116.4,82a.41.41,0,0,0,.38.48.43.43,0,0,0,.58-.22c.32-.61,7.3.25,8.38.32,2.71.2,5.63.72,8.35.49a.52.52,0,0,0,.5-.38c.41-2.76.68-5.54,1-8.32,0-.29-.27-.49-.52-.51Z"/><path class="cls-2" d="M204.2,219.87l-5.22-6c-1.24-1.42-3.1-2.95-3.52-4.87a4,4,0,0,1,1.31-3.91c.5-.43,2.39-1.45,3.11-.9h0c1.82,1.35,3.84,2.41,5.65,3.78,1.18.9,2.94,2.26,3.08,3.88.13,1.41-1,3-1.67,4.12-.47.75-1,1.48-1.44,2.22-.13.2-.91,1.13-.81,1.37S204.38,220.08,204.2,219.87Z"/><path class="cls-2" d="M40.25,187.84a5.7,5.7,0,0,0,1,1.78,34.6,34.6,0,0,1,3.4,7.91.39.39,0,0,0,.71,0,11.89,11.89,0,0,1,6.15-4.77.43.43,0,0,0,.13-.09.3.3,0,0,0,.11-.41c-1-2-1.73-4.25-2.72-6.3-.89-1.87-2.05-4.52-4-5.49-2.42-1.19-3.49,1.53-3.9,3.41C40.87,185,40.07,186.83,40.25,187.84Z"/><path class="cls-2" d="M169.11,183.21a.42.42,0,0,1-.53.5,10.65,10.65,0,0,0-7.64.8h-.05a.23.23,0,0,1-.14,0h-.13a.22.22,0,0,1-.11-.05l0,0-.07,0a.47.47,0,0,1-.06-.09h0a.38.38,0,0,1,0-.13s0,0,0,0,0-.06,0-.08a.64.64,0,0,1,.08-.19c1-1.7,1-4.09,1.94-5.88s3.14-4.51,5.31-4.57C171.52,173.33,168.67,181.15,169.11,183.21Z"/><path class="cls-2" d="M109,42c-2.65-.57-5.14.83-7.27,2.24a.38.38,0,0,0-.15.13.36.36,0,0,0,0,.44h0l0,0a.42.42,0,0,0,.27.18c-.22,0,0,0,.14.36s.32.61.47.92c.37.75.72,1.52,1.06,2.28.83,1.84,1.63,3.7,2.46,5.54a11.4,11.4,0,0,0,1.56,3.12c1.15,1.23,3.56,1.07,5,.63,5.35-1.7,4.51-7.4,2-11.25C113.27,44.58,111.46,42.47,109,42Z"/><path class="cls-2" d="M108.32,125.4a8.55,8.55,0,0,0,0,2.48l0,3.59c0,2.35,0,4.7,0,7.05,0,3,1.69,3.13,4.05,1.79,2.85-1.05,5.81,1,7.95-2,1.69-2.39,1.92-6.26,1.2-9-1.5-5.62-8.36-4.43-12.77-4.19A.41.41,0,0,0,108.32,125.4Z"/><path class="cls-2" d="M188.55,101.92l-21-1.34a.6.6,0,0,0-.62.83,28.7,28.7,0,0,1,1.71,14.21.52.52,0,0,0,0,.25.51.51,0,0,0,.5.42c4.38.29,13.59,3.17,16.56-1.54,1.27-2,1.79-4.56,2.34-6.83.35-1.43,1.37-4,1-5.49A.6.6,0,0,0,188.55,101.92Z"/><path class="cls-2" d="M55,51.22a.26.26,0,0,0-.09.16.29.29,0,0,0,.26.36h.15c2.51-.68,5.07-1.17,7.57-1.87.94-.26,4.56-.8,4.16-2.37-.5-2-4.22-1-5.5-.71C58.71,47.52,56.59,48.62,55,51.22Z"/><path class="cls-2" d="M154.39,145.48c1.18-.29,2.37-.58,3.53-.91a6.78,6.78,0,0,1,3-.61c1.37.29,1.85,1.6,2.19,2.81a.66.66,0,0,1,0,.14.39.39,0,0,1-.32.49c-3.51.74-6.92,2.31-10.42,3.2-3.05.76-8.51,2.63-11.37.48a.5.5,0,0,1,0-.79C145,147.54,149.85,146.58,154.39,145.48Z"/><path class="cls-2" d="M248.86,149.3a4,4,0,0,0,1.14,3.22v-5.34A4.79,4.79,0,0,0,248.86,149.3Z"/><path class="cls-2" d="M4,155.44c2.14,1,5.26,1.55,7.48.49,2.47-1.19,1.92-3.73.83-5.75-.24-.94-1.83-2.16-2.37-2.62-2-1.69-4.41-3-5.3-5.63a.58.58,0,0,0-1.13.24c.22,1.37-1.9,3.17-2.65,4.07-.26.29-.54.61-.81.94v5.34A12.19,12.19,0,0,0,4,155.44Z"/><path class="cls-2" d="M106.66,161.08c-1.46.35-3.69.61-4.92,1.53h0l0,0,0,0,0,0s0,0,0,0a.05.05,0,0,1,0,0c-.91,1.27-.32,2.84-.84,4.24a.33.33,0,0,0,.26.45,12.41,12.41,0,0,0,8-2.41c.83-.67,3-2.76,2-4C110.11,160,107.7,160.82,106.66,161.08Z"/><path class="cls-2" d="M107,216.09c.53-2.06-2-2.93-3.55-2.14a5.54,5.54,0,0,0-2.27,2.69c-.72,1.53-1.37,3.07-2.23,4.54-.62,1.08-3.12,3.76-1.26,4.92,1.27.79,3.26-.55,3.92-1.61v0s0,0,0,0c.87-1.63.94-3.67,2.09-5.16C104.61,218.1,106.55,217.68,107,216.09Z"/><path class="cls-2" d="M64.85,145.6a.22.22,0,0,0,0-.34l-9.23-8.63c-.21-.19-.46.16-.26.35a.24.24,0,0,1,.09.08l-.09,0a5.72,5.72,0,0,0-.51,8.7C57.56,148.37,62,147.58,64.85,145.6Z"/><path class="cls-2" d="M226.27,187.12c5.77,2.42,7.22,16.82,15.95,12.19a8,8,0,0,0,3.93-8.62c-.84-5.24-5.29-8.63-9.29-11.54a1.06,1.06,0,0,0-1.41.16c.77-.88-.65-2.09-1.55-1.24L226,185.56A1,1,0,0,0,226.27,187.12Z"/><path class="cls-2" d="M15.58,33.76c6.16,2.15,12.85,4.91,19,7.05-.76,2.51-1.92,4.92-2.69,7.43L13.41,41C14.12,38.39,14.87,36.41,15.58,33.76Z"/><path class="cls-2" d="M207.25,18.59c1.2,2.8,4.22,6.91,3.19,10.07a.54.54,0,0,0,.38.74.6.6,0,0,0,.81-.37c2.26-5.3,5-10.42,6.53-16a.68.68,0,0,0-.27-.72c-3.08-2.2-10.11-6.87-11.84-.7C205.37,14,206.31,16.4,207.25,18.59Z"/><path class="cls-2" d="M46.6,82.59Q44,86,41.3,89.38c-1.41,1.8-3.65,3.84-4.41,6-1.55,4.47,6.24,4.1,5.29,7.57-.18.67.67.92,1,.44Q49.06,96,54.9,88.51a.47.47,0,0,0-.07-.66.57.57,0,0,0,.21-1L47.37,82.4A.57.57,0,0,0,46.6,82.59Z"/></g></svg>