<svg id="Layer_1" data-name="Layer 1" xmlns="http://www.w3.org/2000/svg" viewBox="0 0 250 250"><defs><style>.cls-1{fill:#4a186e;}.cls-2{fill:#622d90;}</style></defs><title>Purple_Squiggles_Pattern</title><g id="_5" data-name="5"><rect class="cls-1" width="250" height="250"/><path class="cls-2" d="M160.79,40c-2.13.91-1.89,3.79-.67,5.22,3.47,4.07,7.09,8,10.94,11.68,3,2.92,6.12,6.39,10.29,7.39,1.07.26,2.34-.74,1.91-1.91-1.48-4.05-4.94-6.72-7.88-9.8q-2.83-3-5.54-6.11c8,.79,16.23,2.54,23.65-1.56a1.47,1.47,0,0,0,0-2.52c-5-2.13-10.61-2.36-16-2.93C171.85,38.85,166.17,37.72,160.79,40Z"/><path class="cls-2" d="M133.79,114.86c-2-1.2-4.18.67-4.64,2.49-1.29,5.19-2.35,10.4-3.14,15.69-.61,4.15-1.64,8.7,0,12.68a1.56,1.56,0,0,0,2.66.44c2.44-3.56,2.6-7.94,3.4-12.11.51-2.71,1.1-5.39,1.74-8.07,4,7,7.37,14.69,15,18.35.91.43,2.29-.38,2.05-1.47-1.15-5.29-4.25-10-6.89-14.68C141.16,123.19,138.78,117.91,133.79,114.86Z"/><path class="cls-2" d="M231.05,160.92c-1.49-1.78-4.18-.71-5.19.88-2.88,4.5-5.55,9.1-8,13.86-1.9,3.74-4.33,7.72-4.07,12a1.57,1.57,0,0,0,2.39,1.27c3.44-2.6,5-6.7,7.08-10.4q2-3.58,4.23-7.09c1.58,7.93,2.3,16.27,8.38,22.18a1.47,1.47,0,0,0,2.41-.73c.59-5.38-.83-10.84-1.84-16.11C235.38,171.16,234.8,165.4,231.05,160.92Z"/><path class="cls-2" d="M204.79,113c-2.13.91-1.89,3.79-.67,5.22,3.47,4.07,7.09,8,10.94,11.68,3,2.92,6.12,6.39,10.29,7.39,1.07.26,2.34-.74,1.91-1.91-1.48-4-4.94-6.72-7.88-9.8q-2.83-3-5.54-6.11c8,.79,16.23,2.54,23.65-1.56a1.47,1.47,0,0,0,0-2.52c-5-2.13-10.61-2.36-16-2.93C215.85,111.85,210.17,110.72,204.79,113Z"/><path class="cls-2" d="M120.2,194.51c.27,2.3,3.1,2.89,4.82,2.12,4.88-2.18,9.64-4.56,14.29-7.2,3.65-2.08,7.86-4.07,10-7.8a1.56,1.56,0,0,0-1.29-2.37c-4.31.28-7.85,2.85-11.63,4.8-2.45,1.26-4.93,2.45-7.43,3.6,3-7.49,7-14.86,5.18-23.14a1.47,1.47,0,0,0-2.42-.71c-3.45,4.17-5.25,9.51-7.31,14.48C122.21,183.57,119.52,188.71,120.2,194.51Z"/><path class="cls-2" d="M48,111.2a133,133,0,0,0,13.19,7.12c-1.76,4.78-3.56,9.57-5.2,14.4-1.19,3.54-3,7.52-1.08,11a.53.53,0,0,0,.62.18c3.94-1.23,5.31-6,6.85-9.52,2.38-5.43,4.58-10.94,6.86-16.41a3.8,3.8,0,0,0-1.89-4.9c-5.13-2.74-10.17-5.7-15.41-8.22C48.18,103,44.32,108.89,48,111.2Z"/><path class="cls-2" d="M129.87,62.2a131.25,131.25,0,0,0-1.14,15c-5.1.33-10.2.62-15.27,1.09-3.73.35-8.12.27-10.46,3.46a.53.53,0,0,0,.08.64c2.73,3.1,7.65,2.42,11.49,2.4,5.92,0,11.85-.26,17.78-.39a3.8,3.8,0,0,0,3.71-3.72c.42-5.8,1.08-11.6,1.26-17.42C137.45,59.05,130.5,57.91,129.87,62.2Z"/><path class="cls-2" d="M181.79,178.31a133.43,133.43,0,0,0-.86-15c5-1,10-2,15-3.13,3.65-.84,8-1.35,9.9-4.82a.52.52,0,0,0-.17-.62c-3.12-2.71-7.9-1.38-11.7-.85-5.87.82-11.72,1.84-17.57,2.76a3.83,3.83,0,0,0-3.19,4.19c.37,5.8.49,11.64,1.08,17.43C174.7,182.45,181.74,182.65,181.79,178.31Z"/><path class="cls-2" d="M214.65,212.26a133.32,133.32,0,0,0,14.92-1.44c1.2,5,2.37,9.93,3.7,14.85,1,3.61,1.66,8,5.21,9.71a.52.52,0,0,0,.61-.19c2.59-3.23,1.07-7.95.39-11.73-1-5.83-2.3-11.63-3.44-17.45a3.8,3.8,0,0,0-4.3-3c-5.79.59-11.62.94-17.38,1.76C210.23,205.34,210.31,212.38,214.65,212.26Z"/><path class="cls-2" d="M112.77,124.86a130.74,130.74,0,0,0-11-10.19c2.91-4.19,5.85-8.37,8.64-12.64,2-3.13,4.84-6.52,3.79-10.34a.53.53,0,0,0-.55-.33c-4.12.21-6.65,4.48-9,7.5-3.66,4.66-7.17,9.45-10.75,14.17a3.81,3.81,0,0,0,.6,5.22c4.29,3.93,8.42,8.06,12.86,11.82C110.54,132.76,115.75,128,112.77,124.86Z"/><path class="cls-2" d="M30.43,37.29a130.82,130.82,0,0,0-14.44-4c.66-5.06,1.36-10.12,1.87-15.2.39-3.72,1.31-8-1.37-10.92a.53.53,0,0,0-.64,0c-3.57,2.08-3.85,7-4.57,10.81-1.12,5.82-2,11.68-3,17.52a3.81,3.81,0,0,0,2.93,4.37C16.77,41.33,22.34,43.1,28,44.4,32.07,45.33,34.53,38.73,30.43,37.29Z"/><path class="cls-2" d="M192.15,248.59c-3.45-2.55-8.11-2.69-12.28-3.13-5.32-.56-10.63-.83-16-.88-1.88,0-4.24,1.66-3.57,3.87.17.54.36,1.05.57,1.55H192.8A1.74,1.74,0,0,0,192.15,248.59Z"/><path class="cls-2" d="M170.68,11.64c3.87,3.72,7.67,7.9,12.5,10.33,1,.51,2.12-.63,1.93-1.62-1.64-8.32-8.24-13.47-14-19.12,2.75.05,5.5.15,8.24.32,4.25.27,8.53,1.21,12.58-.26A1.36,1.36,0,0,0,192.8,0H160.89C162.9,4.73,166.94,8.05,170.68,11.64Z"/><path class="cls-2" d="M249.51,59.22c-2.58,3-1.52,7.26-1,11,.44,3.29,1,6.58,1.5,9.86V59.1A.49.49,0,0,0,249.51,59.22Z"/><path class="cls-2" d="M236.56,89.8c-4,1.57-1.37,8.09,2.66,7,3.63-1,7.2-2.11,10.78-3.27v-8A127,127,0,0,0,236.56,89.8Z"/><path class="cls-2" d="M8.69,87.22c-1.2-5.8-2.31-11.63-3.61-17.41C4.23,66.07,3.79,61.12.15,59.16L0,59.1V80.05c.29,1.76.58,3.51.86,5.27L0,85.55v8q3-1,5.91-1.88A3.79,3.79,0,0,0,8.69,87.22Z"/><path class="cls-2" d="M208.16,53.56a129.34,129.34,0,0,0,4,14.44c-4.68,2-9.37,4.07-14,6.25-3.38,1.6-7.53,3-8.64,6.82a.52.52,0,0,0,.29.57c3.63,2,8-.34,11.62-1.67,5.55-2,11.05-4.3,16.57-6.45a3.8,3.8,0,0,0,2.22-4.76c-1.59-5.59-3-11.27-4.77-16.8C214.19,48,207.27,49.31,208.16,53.56Z"/><path class="cls-2" d="M247.16,219.47a.52.52,0,0,0,.3.57,6.37,6.37,0,0,0,2.54.31v-5.73A7.68,7.68,0,0,0,247.16,219.47Z"/><path class="cls-2" d="M21.14,209a132.08,132.08,0,0,0,9.51,11.58c3,3.16,8-1.75,5.52-5.09-3.48-4.66-7.35-9-11-13.55A3.8,3.8,0,0,0,20,201c-4.93,3.29-9.92,6.5-14.79,9.87A52.85,52.85,0,0,0,0,214.62v5.73c2.81-.19,5.5-2,8-3.48C12.43,214.35,16.78,211.66,21.14,209Z"/><path class="cls-2" d="M17,191.23c-2.12-.94-1.83-3.82-.58-5.23,3.54-4,7.23-7.84,11.14-11.49,3.07-2.86,6.23-6.28,10.42-7.21,1.07-.23,2.33.79,1.88,1.95-1.55,4-5.07,6.63-8,9.66-1.93,2-3.81,4-5.66,6,8.06-.65,16.28-2.26,23.63,2a1.47,1.47,0,0,1,0,2.52c-5,2.05-10.65,2.18-16,2.66C28.08,192.58,22.37,193.61,17,191.23Z"/><path class="cls-2" d="M28.62,87.66c5-12.14,8-23.59,15.86-34.52a3.91,3.91,0,0,1,6.65.7c2.94,6.7,3.85,13.91,5.61,20.9,2.22-3.85,4.48-7.68,6.88-11.44,1.39-2.18,4.55-1.43,5.6.6a92.53,92.53,0,0,1,4.61,10.56c1.82-2.91,3.7-5.77,5.78-8.54a2.22,2.22,0,0,1,3.78.41C85.64,72.2,87.77,77.6,87.9,83.9c0,1-1.47,1.1-1.83.29-1.73-3.88-3-7.85-4.65-11.72-1.73,3.6-3.63,7.09-5.55,10.62-1.11,2-4.9,3.06-5.82.14-1.15-3.63-2.43-7.12-3.9-10.54q-3.32,6.51-6.8,13c-1.51,2.79-5.66,3.48-7.14.17-2.67-6-3.62-12.34-5-18.62-3.86,8.08-8.82,15.13-13.47,23.28C32.05,93.39,27.38,90.68,28.62,87.66Z"/><path class="cls-2" d="M79.63,242.9A2.23,2.23,0,0,0,81,239.35c-4.22-4.68-8-9-13.6-12-.88-.48-1.65.81-1.1,1.5,2.67,3.3,5.62,6.25,8.32,9.47-4-.1-8,0-12,.11-2.33.06-4.94,3-2.77,5.12S64,247.78,65.94,250h8.45q-2.39-3-5-5.84C72.82,243.86,76.22,243.49,79.63,242.9Z"/><path class="cls-2" d="M52.86,2c-3.17.07-5.68,3.46-3.41,6.28,4.09,5.08,9.36,8.84,14.3,13-9-.24-17.48,1-26.86,1.4-3.35.16-3.06,5.54.19,5.81C50.16,29.51,61.72,32,75,30a3.9,3.9,0,0,0,2.39-6.24C72.81,18.09,66.8,14,61.37,9.25c4.45-.23,8.88-.5,13.32-.92,2.58-.25,3.35-3.4,2-5.26C76,2,75.18,1,74.39,0H65.94c.52.6,1,1.2,1.55,1.81Q60.17,1.8,52.86,2Z"/><path class="cls-2" d="M155.18,190.18c-.41,13.12-2.32,24.8.4,38a3.9,3.9,0,0,0,6.36,2.06c5.42-4.91,9.19-11.12,13.64-16.79.46,4.42,1,8.84,1.63,13.25.38,2.56,3.57,3.17,5.35,1.74a91.45,91.45,0,0,0,8.52-7.77c.47,3.4,1,6.78,1.79,10.15a2.22,2.22,0,0,0,3.62,1.18c4.45-4.45,8.59-8.51,11.28-14.2.43-.9-.89-1.61-1.55-1-3.16,2.84-6,5.94-9,8.8-.11-4-.42-7.95-.73-12-.19-2.32-3.23-4.78-5.26-2.5-2.53,2.85-5.12,5.51-7.86,8q-.37-7.31-.93-14.6c-.24-3.16-3.75-5.48-6.45-3.07-4.86,4.35-8.34,9.8-12.18,15-.23-8.94-1.89-17.4-2.81-26.75C160.64,186.35,155.28,186.92,155.18,190.18Z"/><path class="cls-2" d="M118.07,247c.16,2.31,3,3,4.72,2.33,5-2,9.83-4.11,14.6-6.54,3.74-1.9,8-3.7,10.34-7.33a1.57,1.57,0,0,0-1.19-2.43c-4.31.09-8,2.49-11.83,4.26-2.5,1.15-5,2.23-7.58,3.26,3.37-7.34,7.69-14.52,6.23-22.88a1.47,1.47,0,0,0-2.39-.82c-3.63,4-5.68,9.27-8,14.13C120.58,236.13,117.66,241.14,118.07,247Z"/><path class="cls-2" d="M92.46,199.57a130.26,130.26,0,0,1-1.72,14.89c4.94,1.3,9.89,2.56,14.78,4,3.59,1.05,7.92,1.81,9.61,5.39a.54.54,0,0,1-.21.61c-3.27,2.52-8,.92-11.73.17-5.81-1.17-11.59-2.52-17.38-3.78a3.81,3.81,0,0,1-2.94-4.36c.7-5.77,1.16-11.6,2.09-17.34C85.63,195,92.67,195.24,92.46,199.57Z"/><path class="cls-2" d="M22.91,230.39A132.86,132.86,0,0,1,35.85,238c3.17-4,6.32-8,9.59-11.93,2.41-2.87,4.84-6.52,8.8-6.63a.54.54,0,0,1,.48.43c1,4-2.37,7.66-4.57,10.81-3.4,4.85-7,9.6-10.44,14.39a3.82,3.82,0,0,1-5.18.94c-5-3-10.15-5.72-15-8.88C16,234.82,19,228.46,22.91,230.39Z"/><path class="cls-2" d="M239.21,244.52c1.94-2.73-2.47-5.82-4.69-3.42-2.88,3.11-5.78,6-8.61,8.9h9.56C236.67,248.19,237.91,246.36,239.21,244.52Z"/><path class="cls-2" d="M.3,35.87A3.86,3.86,0,0,0,0,31.1v5.17Z"/><path class="cls-2" d="M5.59,44.65c-1.88,0-3.74.15-5.59.29v3.45a32,32,0,0,0,6.1-2C7,46,6.48,44.64,5.59,44.65Z"/><path class="cls-2" d="M243,45.38c2.42-3,4.7-6,7-9.11V31.1a2.45,2.45,0,0,0-2-.57c-3.78.49-7.48.8-11.21.91q4.52-5.76,8.88-11.63c1.9-2.54.77-6.6-2.85-6.55-6.52.1-12.72,1.93-19,3.3A198.32,198.32,0,0,0,235.47,0h-9.56c-5.93,6.06-11.54,12.09-16,20a3.9,3.9,0,0,0,3.44,5.73c7.32-.15,14.24-2.36,21.32-3.72-2.56,3.64-5.07,7.3-7.47,11.06-1.39,2.19.62,4.74,2.9,4.83a91.92,91.92,0,0,0,11.52-.27c-1.87,2.87-3.67,5.78-5.3,8.84a2.21,2.21,0,0,0,1.95,3.26A81.79,81.79,0,0,0,250,48.39V44.94C247.67,45.1,245.35,45.29,243,45.38Z"/><path class="cls-2" d="M151.8,24C140,18.33,130.09,11.83,116.93,9a3.91,3.91,0,0,0-4.47,5c2.28,7,6.43,12.92,9.79,19.3-4.23-1.38-8.47-2.72-12.76-3.91-2.5-.69-4.35,2-3.77,4.18a91,91,0,0,0,3.63,10.94c-3.3-1-6.61-1.82-10-2.49a2.23,2.23,0,0,0-2.55,2.83c2.26,5.87,4.28,11.31,8.39,16.09.65.75,1.83-.17,1.56-1-1.31-4-3-7.86-4.37-11.83,3.69,1.52,7.43,2.85,11.22,4.19,2.2.78,5.68-1,4.42-3.78A112.26,112.26,0,0,1,113.88,38q6.83,2.63,13.71,5.09c3,1.07,6.54-1.2,5.43-4.65-2-6.21-5.56-11.6-8.7-17.21,8.26,3.44,16.66,5.36,25.58,8.32C153.08,30.58,154.74,25.46,151.8,24Z"/><path class="cls-2" d="M240.85,132.33a3.91,3.91,0,0,0-2.5,6.2A75.76,75.76,0,0,0,250,150.16V132A53,53,0,0,0,240.85,132.33Z"/><path class="cls-2" d="M21.29,159.13c-6.56-6.71-12-13.42-18.68-19.34,6.42.36,12.83,1.21,19.28.28,3.59-.52,4.06-4.71,1.8-6.92Q18.44,128,13.1,123.06a111.73,111.73,0,0,1,11.21-.86c3.05-.09,3.12-4,1.46-5.63-2.86-2.82-5.7-5.6-8.68-8.25,4.16-.51,8.33-.66,12.54-1.26.88-.12,1.18-1.59.22-1.84-6.09-1.6-11.87-1-18.13-.49a2.23,2.23,0,0,0-1.43,3.53c2.09,2.76,4.33,5.35,6.62,7.9a91.71,91.71,0,0,0-11.42,1.53c-2.24.45-3.82,3.28-2.11,5.22,3,3.34,6,6.56,9.11,9.76-4.16-.13-8.32-.55-12.49-.69v18.18c5.48,4.51,11.31,8.47,17.19,13.09C19.76,165.27,23.64,161.53,21.29,159.13Z"/><path class="cls-2" d="M146.8,91.62c13.11-.63,24.76-2.75,38-.26A3.91,3.91,0,0,1,187,97.69c-4.82,5.5-11,9.38-16.55,13.93,4.43.39,8.85.81,13.27,1.39,2.57.34,3.23,3.52,1.84,5.32a91.77,91.77,0,0,1-7.62,8.66c3.41.41,6.8.9,10.18,1.61a2.22,2.22,0,0,1,1.24,3.6c-4.37,4.52-8.35,8.74-14,11.53-.9.44-1.63-.87-1.05-1.54,2.79-3.21,5.84-6.05,8.65-9.17-4-.05-8-.29-12-.53-2.33-.14-4.84-3.14-2.59-5.21,2.8-2.58,5.41-5.22,7.9-8-4.88-.17-9.74-.4-14.62-.68-3.16-.18-5.55-3.65-3.18-6.39,4.26-4.94,9.65-8.51,14.74-12.44-9-.07-17.44-1.58-26.8-2.35C143.07,97.15,143.55,91.78,146.8,91.62Z"/><path class="cls-2" d="M87.28,135.59c7.32,10.89,15.15,19.77,19.87,32.39a3.91,3.91,0,0,1-4.29,5.13c-7.2-1.28-13.7-4.54-20.49-7,2,4,3.89,8,5.68,12.09,1,2.37-1.34,4.58-3.61,4.32A89.93,89.93,0,0,1,73.1,180.5c1.4,3.13,2.74,6.29,3.88,9.55A2.23,2.23,0,0,1,74.54,193c-6.14-1.4-11.81-2.63-17.11-6-.84-.54-.1-1.84.77-1.69,4.19.72,8.2,1.86,12.33,2.65-2-3.43-3.88-6.95-5.74-10.51-1.08-2.07.19-5.77,3.12-4.92,3.66,1.07,7.27,1.94,10.93,2.63q-3.57-6.39-7-12.86c-1.48-2.8.26-6.64,3.83-6,6.43,1.1,12.27,3.86,18.27,6.18-4.57-7.69-7.66-15.74-11.85-24.14C80.62,135.26,85.46,132.89,87.28,135.59Z"/></g></svg>