<?xml version="1.0" encoding="utf-8"?>
<!-- Generator: Adobe Illustrator 23.0.4, SVG Export Plug-In . SVG Version: 6.00 Build 0)  -->
<svg version="1.1" id="Layer_1" xmlns="http://www.w3.org/2000/svg" xmlns:xlink="http://www.w3.org/1999/xlink" x="0px" y="0px"
	 viewBox="0 0 1920 1920" style="enable-background:new 0 0 1920 1920;" xml:space="preserve">
<style type="text/css">
	.st0{fill:#FFFFFF;}
	.st1{fill:#9CCC4E;}
	.st2{fill:#B1742A;}
	.st3{fill:#636566;stroke:#636566;stroke-width:6;stroke-miterlimit:10;}
	.st4{fill:#405E2C;}
	.st5{fill:#636566;}
	.st6{font-family:'OpenSans';}
	.st7{font-size:97.5072px;}
</style>
<rect class="st0" width="1920" height="1920"/>
<g>
	<g>
		<g>
			<path class="st1" d="M684.4,891.9c-8.9,31.6-24.6,61.8-42.7,81.1c-43.2,46.3-115.9,48.8-162.2,5.5s-48.8-115.9-5.5-162.2
				c18.1-19.5,47.1-37.2,78-48.1c18.8-6.7,37-14.5,54.6-23.7c32.3-16.9,73.9-24.2,95.4-4.1c21.5,20.1,17.1,62.1,2.4,95.4
				C696.3,854.2,689.7,872.8,684.4,891.9z M593.7,934.9c20.3-21.7,35.2-72.9,13.5-93c-21.7-20.3-71.7-1.9-92,19.8
				c-20.3,21.7-19.1,55.6,2.6,76C539.5,957.8,573.4,956.6,593.7,934.9z"/>
			<path class="st2" d="M607.2,841.9c21.7,20.3,6.8,71.4-13.5,93c-20.3,21.7-54.3,22.9-76,2.6c-21.7-20.3-22.9-54.3-2.6-76
				C535.5,840,585.5,821.8,607.2,841.9z"/>
			<path class="st0" d="M564.6,934.6c-0.5-0.5-1-1.2-1.4-2c-1.4-3.1,0-6.8,3.1-8.2c3.6-1.5,6.7-3.8,9.2-6.7
				c7-7.5,13.7-21.7,16.2-34.8c0.7-3.8,1.2-7.5,1.2-10.8c0-3.4,2.9-6.1,6.3-6.1s6.1,2.9,6.1,6.3c0,4.1-0.5,8.4-1.4,13
				c-3.1,15.5-10.6,31.6-19.3,40.8c-3.8,4.1-8.2,7.2-13.3,9.4C568.8,936.8,566.3,936.3,564.6,934.6z"/>
			<circle class="st0" cx="594.3" cy="855.9" r="6.1"/>
		</g>
		<path class="st3" d="M681.1,1191.7c-24.8,0-44.9-20.1-44.9-44.9c0-8,2-15.9,6.1-22.5c1.4-2.4,1.4-5.3,0-7.7
			c-1.4-2.4-3.9-3.9-6.7-3.9H518.6c-2.7,0-5.3,1.5-6.7,3.9c-1.4,2.4-1.4,5.5,0.2,7.9c4.1,6.7,6.1,14.5,6.1,22.5
			c0,24.8-20.1,44.9-44.9,44.9s-44.9-20.1-44.9-44.9c0-8,2.2-16,6.5-23c1.4-2.2,1.5-5,0.3-7.3c-1.2-2.4-3.4-3.9-6-4.3
			c-22.5-2.9-39.6-22.4-39.6-45.1V781.8c0-3.1-1.9-6-4.8-7.2L322,748c-1.4-0.5-2.4-1.5-2.9-2.9c-0.5-1.4-0.5-2.7,0-4.1
			c0.9-2,2.7-3.2,5-3.2c0.7,0,1.4,0.2,2,0.5l70.8,29.9c0.2,0.2,0.5,0.2,0.7,0.3l0.2,0.2c0,0,0,0,0.2,0c0.3,0.2,0.5,0.5,0.7,0.7
			l0.5,0.5l0,0c0.2,0.2,0.2,0.3,0.3,0.5c0.2,0.2,0.2,0.3,0.3,0.5l0.2,0.2l0.2,0.3c0,0,0,0,0,0.2c0,0.2,0,0.3,0.2,0.5l0,0v0.2
			c0,0.3,0.2,0.7,0.2,1V819c0,3.9,2.9,7.2,6.7,7.7l327.2,45.1c0.3,0.2,0.9,0.2,1.2,0.2h0.2l0,0l0.5,0.3c0.3,0.2,0.7,0.3,0.9,0.5
			l0.2,0.2l0.2,0.2l0,0c0.2,0.2,0.3,0.5,0.5,0.7c0,0,0,0.2,0.2,0.2l0.2,0.2c0,0,0,0.2,0.2,0.2l0.2,0.3c0,0.2,0.2,0.3,0.2,0.5l0,0
			c0,0.2,0,0.2,0.2,0.3c0,0,0,0.2,0,0.3c0,0,0,0,0,0.2c0,0.2,0,0.3,0,0.5v0.2V986c0,25.1-20.5,45.6-45.6,45.6H435.3
			c-8.2,0-16.2-2.2-23.2-6.3c-1.2-0.7-2.6-1-3.9-1s-2.7,0.3-3.8,1c-2.4,1.4-3.9,3.9-3.9,6.7v35.3c0,19.3,15.7,34.8,34.8,34.8h246
			c24.8,0,44.9,20.1,44.9,44.9C726.2,1171.7,705.9,1191.7,681.1,1191.7z M681.3,1112.5c-18.9,0-34.3,15.4-34.3,34.3
			s15.4,34.3,34.3,34.3c18.9,0,34.3-15.4,34.3-34.3S700.1,1112.5,681.3,1112.5z M473.6,1112.5c-18.9,0-34.3,15.4-34.3,34.3
			s15.4,34.3,34.3,34.3s34.3-15.4,34.3-34.3S492.5,1112.5,473.6,1112.5z M408,837.5c-1.9,0-3.6,0.7-5.1,1.9
			c-1.7,1.5-2.6,3.6-2.6,5.8v140.7c0,19.3,15.7,34.8,34.8,34.8h258.6c19.3,0,34.8-15.7,34.8-35v-97.3c0-3.9-2.9-7.2-6.7-7.7
			l-312.7-43.2C408.9,837.5,408.5,837.5,408,837.5z"/>
	</g>
	<g>
		<g>
			<g>
				<path class="st4" d="M853.4,966.7v-5.5c12.6-1.5,14.2-3.4,11.4-10.8c-2.6-7.5-6.3-17.2-10.4-29.4h-41.7
					c-3.1,8.7-6,16.2-8.7,24.1c-4.3,12.6-1.5,14.2,14.3,16v5.5h-44.6v-5.5c12.1-1.5,15.2-2.9,22-20.3l39.9-101.4l6.1-1.2
					c12.1,32.9,25.4,69.5,37.7,102.9c6.1,16.7,7.9,18.3,21.7,20v5.5H853.4z M834.1,863.7c-6.1,16.6-12.8,34.1-18.6,49.5h36.2
					L834.1,863.7z"/>
				<path class="st4" d="M997.6,961.9c-4.1,0.9-18.6,3.1-29.9,7.2c0-4.1,0-8.5,0-12.6c-3.4,2-8.5,4.8-11.9,7
					c-7.7,4.4-13,5.6-15.2,5.6c-15.4,0-35.8-15.4-35.8-42.5c0-26.8,23.6-46.9,50-46.9c2.7,0,9,0.3,13.1,2v-28.3
					c0-12.3-1.4-12.8-15-13.8v-5c9.7-1.4,23.2-4.1,30.4-6.5c0,7.2,0,15.7,0,23.6v92.9c0,10.1,1.4,11.4,8.5,11.8l6.1,0.3v5.3H997.6z
					 M967.8,897c-4.4-6.8-12.8-9.9-20.3-9.9c-9.2,0-25.6,6.1-25.6,34c0,23.4,14.5,35.7,26.8,35.8c7,0,14.5-3.4,19.1-7L967.8,897
					L967.8,897z"/>
				<path class="st4" d="M1091.7,887.1c-10.4,1.4-11.8,2.9-16.7,14.5c-6.3,15.4-17.4,41.1-27.5,67.3h-5.6
					c-8.2-22.2-17.6-45.2-26.6-67.8c-4.4-11.3-6-12.3-16-13.8V882h39.4v5.1c-10.6,1.4-10.9,2.7-7.9,10.9c4.8,13.3,13,33.8,18.3,47.3
					c7-17.2,13.3-32.9,17.6-45.4c3.2-9.4,2.7-11.6-10.1-13v-5.3h35.2L1091.7,887.1L1091.7,887.1z"/>
				<path class="st4" d="M1137.9,879.6c24.1,0,42.2,18.3,42.2,43.2c0,31.2-23.2,46.1-42.2,46.1c-26.6,0-42.8-21.5-42.8-43
					C1095.1,894.5,1119.7,879.6,1137.9,879.6z M1135.7,886.1c-11.8,0-22.4,11.4-22.4,33.8c0,24.6,10.8,42.3,26.6,42.3
					c11.9,0,22-8.7,22-35.2C1162,904.5,1152.6,886.1,1135.7,886.1z"/>
				<path class="st4" d="M1266.8,949.3c-8.5,11.3-21.5,19.6-32.9,19.6c-24.6,0-38.9-20-38.9-40.6c0-15.2,6.5-28,19.5-37.9
					c10.2-7.9,21.9-10.9,29.4-10.9c8.7,0,15,2.7,17.9,5.3c2.7,2,3.1,3.4,3.1,5.6c0,4.6-4.8,8.7-7,8.7c-1,0-1.7-0.3-3.6-1.9
					c-6-5.5-12.6-8.2-19.5-8.2c-12.8,0-23.9,10.8-23.9,30.9c-0.2,26.8,18.1,35.7,29.4,35.7c8.2,0,14.7-2,23.6-10.6L1266.8,949.3z"/>
				<path class="st4" d="M1338.5,968.9c-2.9,0-7.2-1.5-9-3.6c-2.6-2.6-3.6-5.3-4.6-8.7c-7.7,5.3-17.2,12.3-23.2,12.3
					c-13.7,0-23.6-11.4-23.6-23.7c0-9.4,5.3-15.7,15.9-19.3c11.8-4.1,26.3-9,30.6-12.6v-3.9c0-13.7-7-21.7-17.1-21.7
					c-4.4,0-7.2,2-9,4.4c-2,2.7-3.4,7-5.3,12.6c-1,3.1-2.7,4.4-5.6,4.4c-3.6,0-8.5-3.9-8.5-8.5c0-2.7,2.6-5,6.3-7.7
					c5.6-4.1,16.7-11.3,27.8-13.5c5.8,0,11.8,1.7,16.2,5.3c6.8,5.8,9.9,12.3,9.9,22.4v37.2c0,8.9,3.2,11.6,6.8,11.6c2.4,0,4.8-1,7-2
					l1.9,5.5L1338.5,968.9z M1324.4,920.1c-4.3,2-13.5,6.1-17.9,8.2c-7.3,3.2-11.8,7-11.8,14.2c0,10.2,7.7,14.9,13.8,14.9
					c5,0,11.9-3.1,15.9-7C1324.4,941.2,1324.4,929.1,1324.4,920.1z"/>
				<path class="st4" d="M1457,961.9c-4.1,0.9-18.6,3.1-29.9,7.2c0-4.1,0-8.5,0-12.6c-3.4,2-8.5,4.8-11.9,7
					c-7.7,4.4-13,5.6-15.2,5.6c-15.4,0-35.8-15.4-35.8-42.5c0-26.8,23.6-46.9,50-46.9c2.7,0,9,0.3,13.1,2v-28.3
					c0-12.3-1.4-12.8-15-13.8v-5c9.7-1.4,23.2-4.1,30.4-6.5c0,7.2,0,15.7,0,23.6v92.9c0,10.1,1.4,11.4,8.5,11.8l6.1,0.3v5.3H1457z
					 M1427.1,897c-4.4-6.8-12.8-9.9-20.3-9.9c-9.2,0-25.6,6.1-25.6,34c0,23.4,14.5,35.7,26.8,35.8c7,0,14.5-3.4,19.1-7V897z"/>
				<path class="st4" d="M1510.1,879.6c24.1,0,42.2,18.3,42.2,43.2c0,31.2-23.2,46.1-42.2,46.1c-26.6,0-42.8-21.5-42.8-43
					C1467.2,894.5,1491.8,879.6,1510.1,879.6z M1507.9,886.1c-11.8,0-22.4,11.4-22.4,33.8c0,24.6,10.8,42.3,26.6,42.3
					c11.9,0,22-8.7,22-35.2C1534,904.5,1524.8,886.1,1507.9,886.1z"/>
			</g>
		</g>
		<text transform="matrix(1 0 0 1 779.6181 1086.2354)" class="st5 st6 st7">Shop. Scan. Save.</text>
	</g>
</g>
</svg>
