<?xml version="1.0" encoding="utf-8"?>
<!-- Generator: Adobe Illustrator 23.0.4, SVG Export Plug-In . SVG Version: 6.00 Build 0)  -->
<svg version="1.1" id="Layer_1" xmlns="http://www.w3.org/2000/svg" xmlns:xlink="http://www.w3.org/1999/xlink" x="0px" y="0px"
	 viewBox="0 0 1920 1920" style="enable-background:new 0 0 1920 1920;" xml:space="preserve">
<style type="text/css">
	.st0{fill:#F3F8EE;}
	.st1{fill:#507A4B;}
	.st2{fill:#D2752C;}
	.st3{fill:#284928;}
	.st4{fill:#5F8E58;}
	.st5{fill:#002101;}
	.st6{fill:#3D3D3E;}
</style>
<rect class="st0" width="1920" height="1920"/>
<g>
	<g>
		<path class="st1" d="M1292.9,780.4v0.4c0,1-0.1,1.8-0.2,2.7c-0.1,1.8-0.1,3.5-0.4,5.2c-0.1,0.1-0.1,0.3-0.1,0.4
			c-0.2,1.3-0.6,2.4-0.9,3.7c-0.3,1.2-0.5,2.4-1,3.6c0,0.1,0,0.2-0.1,0.4c-0.4,1.2-1,2.4-1.5,3.5c-0.5,1.2-1,2.4-1.6,3.6
			c-0.1,0.1-0.1,0.2-0.1,0.3c-0.4,0.8-1,1.6-1.4,2.3c-1,1.6-1.9,3.3-3.1,4.9c-0.1,0.2-0.2,0.4-0.4,0.6c-1.3,1.8-2.8,3.6-4.4,5.4
			c-0.4,0.4-0.8,0.8-1.2,1.3c-0.7,0.8-1.5,1.6-2.2,2.4c-0.6,0.5-1.3,1-1.8,1.6c-1.6,1.4-3.2,2.9-5,4.3c-1.1,1-2.3,1.8-3.5,2.8
			c-1.9,1.4-4,2.8-6.1,4.2c-1,0.7-1.7,1.3-2.7,1.8c-0.8,0.5-1.7,1-2.5,1.6c-4.8,2.9-9.7,5.5-14.8,7.8c-1.6,0.8-3.5,1.5-5.2,2.2
			c-2.9,1.2-5.7,2.5-8.6,3.6c-0.7,0.3-1.5,0.4-2.2,0.7c-1.4,0.4-2.8,0.9-4.3,1.3c-3.9,1.3-8,2.5-12,3.5c-1.6,0.4-3.2,0.8-4.8,1.2
			c-1,0.2-2,0.5-3,0.7c-4.6,1-9.2,1.8-14,2.4c-1.3,0.2-2.6,0.4-3.9,0.5c-0.7,0.1-1.3,0.1-1.8,0.2c-3.8,0.4-7.7,0.8-11.6,1
			c-0.4,0-0.9,0.1-1.3,0.1h-0.4c-4.2,0.2-8.4,0.4-12.6,0.4h-1.2c-0.7,0-1.4-0.1-2.1-0.1c-3.5,0-6.9-0.1-10.4-0.3
			c-0.7,0-1.4,0-2.1-0.1c-0.4,0-0.7-0.1-1.1-0.1c-4.7-0.3-9.4-0.7-14.2-1.3c-0.3,0-0.6,0-0.9-0.1c-0.6-0.1-1.1-0.1-1.6-0.2
			c-5.7-0.7-11.4-1.6-17.3-2.7h-0.2c-0.1,0-0.1-0.1-0.2-0.1l-0.4-36.3c9.1-9.5,14.8-19.6,17.1-30.3c3.9-18.8-2.1-38.4-18.2-58.7
			c0.1,0,0.3,0.1,0.4,0.1c5.8,1,11.6,1.9,17.3,2.6c0.8,0.1,1.7,0.3,2.5,0.4c2.4,0.3,4.7,0.6,7.1,0.7c2.4,0.1,4.7,0.4,7.1,0.5
			c1.5,0,2.9,0.1,4.3,0.1c2.4,0.1,4.7,0.2,7.1,0.3c1.8,0.1,3.8,0.1,5.6,0.1c2.1,0,4.2,0,6.4-0.1c2.1-0.1,4.1-0.1,6.3-0.3
			c0.7,0,1.3-0.1,1.9-0.1c3.8-0.3,7.7-0.7,11.4-1.1c1.9-0.2,3.8-0.4,5.8-0.7c2.9-0.4,5.8-0.9,8.6-1.4c2.8-0.6,5.6-1.2,8.3-1.8
			c0.2-0.1,0.4-0.1,0.6-0.1c1.4-0.4,2.8-0.7,4.2-1c1.8-0.4,3.7-1,5.5-1.5c0.2-0.1,0.4-0.1,0.6-0.1c2-0.6,3.9-1.2,5.9-1.8
			c1-0.3,1.9-0.6,2.9-1c0.4-0.1,1-0.3,1.4-0.4c0.2-0.1,0.4-0.1,0.7-0.2c1.7-0.7,3.5-1.3,5.2-2c1.7-0.7,3.4-1.4,5-2.1
			c1.8-0.7,3.5-1.4,5.2-2.1c2.5-1.2,5-2.5,7.5-3.8c2.4-1.3,4.9-2.7,7.3-4.1c1.8-1.1,3.4-2.3,5.2-3.4c2.1-1.4,4.1-2.8,6.1-4.3
			c1.3-0.9,2.4-1.8,3.5-2.8c1.8-1.4,3.4-2.8,5-4.3c1.1-1,2.1-2,3.1-3l0.9-0.9c0.4-0.4,0.8-0.8,1.2-1.3c1.8-1.9,3.3-3.9,4.8-5.9
			c0.6-0.8,1.2-1.6,1.6-2.5c0.5-0.8,1-1.6,1.5-2.5c0.3-0.4,0.5-0.9,0.8-1.3c0.3-0.4,0.5-0.8,0.7-1.3v-0.1c0.3-0.6,0.5-1.2,0.8-1.8
			c0.7-1.2,1.2-2.4,1.6-3.7c0.3-0.6,0.5-1.2,0.7-1.8c0.2-0.6,0.4-1.3,0.5-1.9c0.1-0.6,0.3-1.3,0.4-1.8c0.1-0.7,0.3-1.3,0.5-2
			c0.2-0.7,0.4-1.3,0.4-2.1c0.2-1.8,0.3-3.5,0.4-5.3c0.1-0.8,0.1-1.6,0.2-2.5L1292.9,780.4z"/>
		<path class="st2" d="M1291.1,658.2c-0.1,1.8-0.1,3.5-0.4,5.3c0.4-2.6,0.6-5.2,0.6-7.8C1291.2,656.6,1291.2,657.4,1291.1,658.2z
			 M1289.3,669.4c0.4-1.3,0.7-2.5,1-3.8c-0.2,0.7-0.4,1.3-0.5,2C1289.6,668.2,1289.5,668.8,1289.3,669.4z M1282.7,683.8
			c0.9-1.2,1.6-2.5,2.3-3.8c-0.3,0.4-0.5,0.8-0.8,1.3C1283.7,682.2,1283.2,683,1282.7,683.8z M1262.5,704.5c-1.9,1.5-4,2.9-6.1,4.3
			c-1.8,1.1-3.3,2.3-5.2,3.4c7.8-4.7,14.3-9.6,19.8-14.8c-1.6,1.5-3.2,2.9-5,4.3C1264.9,702.7,1263.8,703.6,1262.5,704.5z
			 M1226.2,724.3c3.5-1.3,6.9-2.7,10.2-4.3c-1.6,0.7-3.4,1.4-5.2,2.1C1229.6,722.9,1227.9,723.6,1226.2,724.3z M1147.3,738h3.3
			c-1.8,0-3.8,0-5.6-0.1C1145.7,738,1146.5,738,1147.3,738z M1136.9,737.7h1c-1.4-0.1-2.8-0.1-4.3-0.1
			C1134.7,737.6,1135.8,737.7,1136.9,737.7z M1099.6,733.3c6.7,1.3,13.3,2.2,19.8,3c-0.8-0.1-1.7-0.2-2.5-0.4
			C1111.2,735.2,1105.5,734.4,1099.6,733.3z"/>
		<path class="st3" d="M1119.4,914.7c0.1-0.7,0.2-1.3,0.3-2c0-0.1,0-0.2,0-0.2c0.1-0.6,0.1-1.2,0.2-1.8c0-0.2,0-0.3,0-0.5
			c0.1-0.7,0.1-1.3,0.1-2c0-0.1,0-0.2,0-0.3c0-0.6,0-1.2,0-1.8c0-0.1,0-0.2,0-0.3c0-0.2,0-0.3,0-0.5l-1.5-125.3c0,0.3,0,0.5,0,0.8
			c0,0.6,0,1.2,0,1.8c0,0.1,0,0.2,0,0.3c0,0.7-0.1,1.3-0.1,2c0,0.2,0,0.3,0,0.5c-0.1,0.6-0.1,1.2-0.2,1.8c0,0.1,0,0.2,0,0.2
			c-0.1,0.7-0.2,1.3-0.3,2c0,0.2-0.1,0.3-0.1,0.5c-0.1,0.7-0.2,1.4-0.4,2.1l0,0c-0.5,2.1-1.1,4.2-1.8,6.3c-0.9,2.5-1.9,5-3.2,7.5
			c0,0,0,0,0,0.1c-1.4,2.6-3,5.1-4.8,7.7c-1.1,1.5-2.2,2.9-3.4,4.4c-0.3,0.4-0.6,0.8-1,1.2c-1.7,1.9-3.5,3.9-5.5,5.7
			c-0.4,0.4-0.8,0.8-1.3,1.2c-1.6,1.5-3.3,3-5.1,4.4c-0.6,0.5-1.2,1-1.8,1.4c-2.2,1.8-4.6,3.5-7.1,5.3c-0.2,0.2-0.5,0.3-0.7,0.5
			c-2.7,1.8-5.4,3.6-8.4,5.4c-4.8,2.9-9.7,5.5-14.8,8c-1.7,0.8-3.4,1.5-5.1,2.2c-3.4,1.5-6.8,3.1-10.3,4.4
			c-4.7,1.8-9.5,3.3-14.4,4.7c-1.1,0.3-2.3,0.6-3.5,0.9c-3.8,1-7.5,1.9-11.4,2.7c-2.8,0.6-5.7,1-8.6,1.4c-2.9,0.5-5.7,0.9-8.7,1.3
			c-2,0.2-4.1,0.4-6.1,0.6c-3.5,0.3-7.1,0.6-10.7,0.7c-2,0.1-4,0.1-6,0.2c-3.7,0.1-7.4,0-11.2-0.1c-2.1-0.1-4.2-0.1-6.3-0.2
			c-5.5-0.3-11.1-0.7-16.8-1.3c-3.8-0.4-7.6-1-11.4-1.6c-3.3-0.5-6.7-0.9-10-1.5c-5.6-1-11.1-2.1-16.8-3.5c-1.2-0.3-2.4-0.6-3.6-0.9
			c-4.3-1-8.6-2.2-12.9-3.5c-2.8-0.8-5.5-1.6-8.3-2.4c-3.9-1.2-7.8-2.5-11.7-3.8c-2.7-0.9-5.4-1.8-8.1-2.8c-3.9-1.4-7.8-3-11.7-4.5
			c-2.9-1.2-5.8-2.3-8.7-3.5c-4.1-1.7-8.3-3.6-12.4-5.5c-2.8-1.2-5.5-2.4-8.3-3.7c-4.6-2.2-9.3-4.6-14-7c-2.4-1.2-4.7-2.3-7-3.6
			c-7.1-3.7-14.2-7.6-21.4-11.8L676,752.6l-135.3-78.1l1.5,125.3l135.3,78.1l97.3,56.2c7.2,4.1,14.3,8.1,21.4,11.8
			c2.4,1.2,4.7,2.4,7,3.5c4.7,2.4,9.4,4.8,14,7c2.8,1.3,5.5,2.5,8.3,3.7c4.2,1.9,8.3,3.8,12.5,5.5c2.9,1.2,5.8,2.3,8.7,3.5
			c3.1,1.2,6.2,2.5,9.2,3.7c0.9,0.3,1.7,0.6,2.6,0.9c2.7,1,5.4,1.9,8.1,2.8c3.9,1.3,7.8,2.7,11.7,3.9c2.8,0.9,5.5,1.6,8.3,2.4
			c2.2,0.6,4.5,1.4,6.7,1.9c2.1,0.5,4.2,1,6.2,1.5c1.2,0.3,2.4,0.6,3.6,0.9c5,1.2,10.1,2.3,15.1,3.2c0.6,0.1,1.1,0.2,1.7,0.3
			c3.3,0.6,6.7,1,10,1.5c2.7,0.4,5.4,0.9,8,1.2c1.1,0.1,2.2,0.3,3.4,0.4c4.7,0.5,9.4,0.9,14.1,1.2c0.9,0.1,1.8,0,2.8,0.1
			c2.1,0.1,4.2,0.1,6.3,0.2c2.2,0.1,4.4,0.2,6.6,0.2c1.5,0,3-0.1,4.6-0.1c2,0,4.1-0.1,6.1-0.2c1.4-0.1,2.8,0,4.2-0.1
			c2.2-0.1,4.3-0.4,6.5-0.6c2-0.2,4.1-0.3,6.1-0.6c0.8-0.1,1.6-0.1,2.4-0.2c2.1-0.3,4.2-0.7,6.3-1.1c2.9-0.5,5.7-0.9,8.6-1.4
			c0.7-0.1,1.4-0.2,2.2-0.4c3.1-0.7,6.2-1.5,9.3-2.3c1.1-0.3,2.3-0.5,3.5-0.9c4.6-1.3,9.2-2.8,13.7-4.4c0.2-0.1,0.5-0.2,0.7-0.3
			c3.5-1.3,6.9-2.9,10.4-4.4c1.7-0.7,3.4-1.4,5.1-2.2c5-2.4,10-5.1,14.8-8c1.1-0.6,2.1-1.3,3.1-1.9c1.8-1.1,3.5-2.3,5.2-3.5
			c0.2-0.2,0.5-0.3,0.7-0.5c2.5-1.7,4.8-3.5,7.1-5.3c0.6-0.5,1.2-1,1.8-1.4c1.8-1.5,3.5-3,5.1-4.5c0.4-0.4,0.8-0.8,1.2-1.1
			c0.2-0.2,0.4-0.3,0.5-0.5c1.8-1.7,3.4-3.5,4.9-5.3c0.3-0.4,0.6-0.8,1-1.2c1-1.2,2-2.4,2.9-3.6c0.2-0.3,0.3-0.5,0.5-0.8
			c1.8-2.5,3.4-5.1,4.8-7.7c0,0,0,0,0,0v0c1.3-2.5,2.3-4.9,3.2-7.5c0.1-0.2,0.2-0.3,0.2-0.5c0.6-1.9,1.2-3.9,1.6-5.8l-0.8-63.5
			l0.8,63.5c0.1-0.7,0.3-1.4,0.4-2.1c0-0.1,0-0.2,0-0.3C1119.4,914.9,1119.4,914.8,1119.4,914.7z"/>
		<path class="st4" d="M1084,640.1c-21.2,12.8-47.6,10-79.2-8.3l-65.3-37.7l63.6-38.3l65.3,37.7
			C1099.9,611.8,1105.2,627.3,1084,640.1z"/>
		<path class="st4" d="M943.5,748.5c-22.4,13.4-49.6,10.9-81.6-7.5l-85-49l67.3-40.5l85,49.1C961.2,719.1,966,735,943.5,748.5z"/>
	</g>
	<g>
		<path class="st5" d="M657.8,1215.8c0,23.4-19.7,37-56.7,37h-75.5v-134.2h71.7c37,0,54.3,14.8,54.3,35.1c0,12.5-6.3,22.8-18.6,28.9
			C648.6,1188.3,657.8,1199.8,657.8,1215.8z M570,1150.2v19.9h21.1c10.2,0,14.8-3.5,14.8-10c0-6.5-4.6-10-14.8-10H570z
			 M612.1,1210.6c0-6.9-5-10.5-15-10.5H570v21.1h27.2C607.2,1221.1,612.1,1217.5,612.1,1210.6z"/>
		<path class="st5" d="M668.3,1185.7c0-40.6,32-70.2,75.7-70.2c43.7,0,75.7,29.5,75.7,70.2c0,40.6-32,70.2-75.7,70.2
			C700.3,1255.8,668.3,1226.3,668.3,1185.7z M774.1,1185.7c0-20.9-13.4-33.6-30.1-33.6c-16.7,0-30.1,12.7-30.1,33.6
			c0,20.9,13.4,33.6,30.1,33.6C760.7,1219.2,774.1,1206.6,774.1,1185.7z"/>
		<path class="st5" d="M836.3,1118.6h45.2v99.1h60.6v35.1H836.3V1118.6z"/>
		<path class="st5" d="M971.2,1153.6h-39.3v-35.1h123.8v35.1h-39.3v99.1h-45.2V1153.6z"/>
		<path class="st5" d="M1060.2,1185.7c0-40.6,32-70.2,75.7-70.2c43.7,0,75.7,29.5,75.7,70.2c0,40.6-32,70.2-75.7,70.2
			C1092.2,1255.8,1060.2,1226.3,1060.2,1185.7z M1166,1185.7c0-20.9-13.4-33.6-30.1-33.6c-16.7,0-30.1,12.7-30.1,33.6
			c0,20.9,13.4,33.6,30.1,33.6C1152.6,1219.2,1166,1206.6,1166,1185.7z"/>
		<path class="st5" d="M1360.4,1118.6v134.2h-37.2l-51-61v61h-44.1v-134.2h37.2l51,61v-61H1360.4z"/>
	</g>
	<g>
		<path class="st6" d="M526,1306v22.8h32.8v8H526v26.4h-9.3v-65.3h46.1v8.1H526z"/>
		<path class="st6" d="M572.1,1298.5c0-3.3,2.6-5.9,6.1-5.9s6.1,2.5,6.1,5.7c0,3.4-2.5,6-6.1,6
			C574.8,1304.2,572.1,1301.7,572.1,1298.5z M573.7,1313.8h9v49.5h-9V1313.8z"/>
		<path class="st6" d="M646.7,1334.8v28.5h-9v-27.4c0-9.7-4.9-14.5-13.3-14.5c-9.5,0-15.7,5.7-15.7,16.4v25.5h-9v-49.5h8.6v7.5
			c3.6-5,10-7.9,17.8-7.9C638.2,1313.3,646.7,1320.2,646.7,1334.8z"/>
		<path class="st6" d="M702.5,1333.4v29.9H694v-6.5c-3,4.5-8.5,7.1-16.2,7.1c-11.2,0-18.3-6-18.3-14.6c0-7.9,5.1-14.5,19.9-14.5
			h14.2v-1.8c0-7.6-4.4-11.9-13.3-11.9c-5.9,0-11.9,2.1-15.7,5.3l-3.7-6.7c5.1-4.1,12.5-6.3,20.4-6.3
			C694.9,1313.3,702.5,1319.8,702.5,1333.4z M693.5,1348.1v-6.9h-13.8c-8.9,0-11.4,3.5-11.4,7.7c0,4.9,4.1,8,10.9,8
			C686,1356.9,691.3,1353.8,693.5,1348.1z"/>
		<path class="st6" d="M766.1,1334.8v28.5h-9v-27.4c0-9.7-4.9-14.5-13.3-14.5c-9.5,0-15.7,5.7-15.7,16.4v25.5h-9v-49.5h8.6v7.5
			c3.6-5,10-7.9,17.8-7.9C757.6,1313.3,766.1,1320.2,766.1,1334.8z"/>
		<path class="st6" d="M778.4,1338.5c0-14.7,10.9-25.2,26.1-25.2c8.9,0,16.2,3.6,20.2,10.5l-6.8,4.4c-3.2-4.9-8-7.1-13.4-7.1
			c-9.7,0-17,6.8-17,17.4c0,10.7,7.3,17.5,17,17.5c5.4,0,10.3-2.2,13.4-7.1l6.8,4.3c-3.9,6.9-11.3,10.6-20.2,10.6
			C789.3,1363.8,778.4,1353.2,778.4,1338.5z"/>
		<path class="st6" d="M880,1341.5h-40.1c1.1,8.7,8.1,14.5,17.9,14.5c5.8,0,10.6-2,14.3-6l4.9,5.8c-4.5,5.2-11.3,8-19.5,8
			c-16,0-26.6-10.5-26.6-25.3c0-14.7,10.5-25.2,24.8-25.2s24.4,10.3,24.4,25.5C880.2,1339.5,880.1,1340.6,880,1341.5z M839.9,1335
			h31.7c-0.9-8.3-7.2-14.2-15.9-14.2C847.2,1320.8,840.8,1326.6,839.9,1335z"/>
		<path class="st6" d="M913,1355.7l3.5-7.3c4.9,4.4,13.2,7.6,21.6,7.6c11.3,0,16.1-4.4,16.1-10.1c0-16-39.6-5.9-39.6-30.1
			c0-10.1,7.8-18.7,25-18.7c7.7,0,15.6,2.1,21,5.8l-3.1,7.5c-5.7-3.6-12.1-5.3-17.9-5.3c-11.1,0-15.9,4.7-15.9,10.4
			c0,16,39.6,6,39.6,30c0,10-8,18.6-25.3,18.6C928.1,1364,918.3,1360.6,913,1355.7z"/>
		<path class="st6" d="M971.1,1338.5c0-14.7,10.9-25.2,25.8-25.2c14.8,0,25.7,10.5,25.7,25.2c0,14.7-10.8,25.3-25.7,25.3
			C982,1363.8,971.1,1353.2,971.1,1338.5z M1013.5,1338.5c0-10.5-7.1-17.4-16.6-17.4c-9.5,0-16.7,6.8-16.7,17.4
			c0,10.5,7.2,17.5,16.7,17.5C1006.4,1355.9,1013.5,1349,1013.5,1338.5z"/>
		<path class="st6" d="M1034.9,1294h9v69.2h-9V1294z"/>
		<path class="st6" d="M1107.1,1313.8v49.5h-8.5v-7.5c-3.6,5.1-9.8,8-16.8,8c-12.8,0-21.3-7-21.3-21.6v-28.5h9v27.4
			c0,9.7,4.9,14.6,13.3,14.6c9.3,0,15.3-5.8,15.3-16.4v-25.6H1107.1z"/>
		<path class="st6" d="M1151.9,1360.3c-2.7,2.3-6.8,3.5-10.8,3.5c-10,0-15.7-5.5-15.7-15.5v-27.2h-8.4v-7.4h8.4v-10.8h9v10.8h14.2
			v7.4h-14.2v26.8c0,5.3,2.8,8.3,7.7,8.3c2.6,0,5.1-0.8,7-2.3L1151.9,1360.3z"/>
		<path class="st6" d="M1161.2,1298.5c0-3.3,2.6-5.9,6.1-5.9c3.5,0,6.1,2.5,6.1,5.7c0,3.4-2.5,6-6.1,6
			C1163.8,1304.2,1161.2,1301.7,1161.2,1298.5z M1162.8,1313.8h9v49.5h-9V1313.8z"/>
		<path class="st6" d="M1184.2,1338.5c0-14.7,10.9-25.2,25.8-25.2c14.8,0,25.7,10.5,25.7,25.2c0,14.7-10.8,25.3-25.7,25.3
			C1195.1,1363.8,1184.2,1353.2,1184.2,1338.5z M1226.6,1338.5c0-10.5-7.1-17.4-16.6-17.4c-9.5,0-16.7,6.8-16.7,17.4
			c0,10.5,7.2,17.5,16.7,17.5C1219.5,1355.9,1226.6,1349,1226.6,1338.5z"/>
		<path class="st6" d="M1295,1334.8v28.5h-9v-27.4c0-9.7-4.9-14.5-13.3-14.5c-9.5,0-15.7,5.7-15.7,16.4v25.5h-9v-49.5h8.6v7.5
			c3.6-5,10-7.9,17.8-7.9C1286.5,1313.3,1295,1320.2,1295,1334.8z"/>
		<path class="st6" d="M1305.4,1358l3.7-7.1c4.2,3,10.9,5.1,17.4,5.1c8.3,0,11.8-2.5,11.8-6.7c0-11.1-31.3-1.5-31.3-21.2
			c0-8.9,7.9-14.8,20.6-14.8c6.4,0,13.7,1.7,18,4.5l-3.8,7.1c-4.5-2.9-9.4-3.9-14.3-3.9c-7.8,0-11.7,2.9-11.7,6.8
			c0,11.7,31.4,2.1,31.4,21.4c0,9-8.2,14.7-21.4,14.7C1317.6,1363.8,1309.5,1361.3,1305.4,1358z"/>
	</g>
</g>
</svg>
