<?xml version="1.0" encoding="utf-8"?>
<!-- Generator: Adobe Illustrator 23.0.4, SVG Export Plug-In . SVG Version: 6.00 Build 0)  -->
<svg version="1.1" id="Layer_1" xmlns="http://www.w3.org/2000/svg" xmlns:xlink="http://www.w3.org/1999/xlink" x="0px" y="0px"
	 viewBox="0 0 1920 1920" style="enable-background:new 0 0 1920 1920;" xml:space="preserve">
<style type="text/css">
	.st0{fill:#DEDEFF;}
	.st1{fill:#3C3B7D;stroke:#3C3B7D;stroke-width:11.1682;stroke-miterlimit:10;}
	.st2{fill:#C0E941;stroke:#3C3B7D;stroke-width:1.2235;stroke-miterlimit:10;}
	.st3{fill:none;stroke:#3C3B7D;stroke-width:11.1682;stroke-miterlimit:10;}
	.st4{fill:none;stroke:#3C3B7D;stroke-width:11.1547;stroke-miterlimit:10;stroke-dasharray:66.1377,33.0689;}
</style>
<title>BontonAssociatesLogoFullColor</title>
<rect class="st0" width="1920" height="1920"/>
<g>
	<g>
		<path class="st1" d="M516.4,1018.5l19.5-43.2c20.9,15.2,52.1,25.8,81.8,25.8c34,0,47.8-11.3,47.8-26.6
			c0-46.4-144.1-14.5-144.1-106.6c0-42.1,34-77.2,104.5-77.2c31.2,0,63,7.4,86,22l-17.7,43.6c-23-13.1-46.7-19.5-68.7-19.5
			c-34,0-47.1,12.7-47.1,28.3c0,45.7,144.1,14.2,144.1,105.2c0,41.4-34.3,76.8-105.2,76.8C578,1047.2,538.4,1035.5,516.4,1018.5z"/>
		<path class="st1" d="M852.1,945.6l-33.3,34.7v62.7h-57V795.1h57v115.8l109.8-115.8h63.7L889.6,905.6l108.7,137.4h-66.9
			L852.1,945.6z"/>
		<path class="st1" d="M1023.8,795.1h57.4v247.9h-57.4V795.1z"/>
		<path class="st1" d="M1354.9,885c0,55.2-41.4,89.6-107.6,89.6h-49.9v68.3H1140V795.1h107.3C1313.5,795.1,1354.9,829.4,1354.9,885z
			 M1296.8,885c0-27.3-17.7-43.2-52.8-43.2h-46.7v86h46.7C1279.1,927.9,1296.8,911.9,1296.8,885z"/>
	</g>
	<g>
		<path class="st1" d="M743.7,438v247.9h-57.4V584.3H573.8v101.6h-57.4V438h57.4v97.7h112.6V438H743.7z"/>
		<path class="st1" d="M1210.5,528c0,55.2-41.4,89.6-107.6,89.6H1053v68.3h-57.4V438h107.3C1169.1,438,1210.5,472.4,1210.5,528z
			 M1152.5,528c0-27.3-17.7-43.2-52.8-43.2H1053v86h46.7C1134.8,570.8,1152.5,554.9,1152.5,528z"/>
		<g>
			<path class="st2" d="M866.5,431c0,0-174.6,2.7-2.3,260.6c1.1,1.7,3.5,1.7,4.6,0C1041.3,433.7,866.5,431,866.5,431z M866.5,546.6
				c-22.8,0-41.2-18.5-41.2-41.2c0-22.9,18.5-41.4,41.2-41.4c22.8,0,41.2,18.5,41.2,41.4C907.9,528.2,889.4,546.6,866.5,546.6z"/>
			<g>
				<path class="st3" d="M866.5,431c0,0-174.6,2.7-2.3,260.6c1.1,1.7,3.5,1.7,4.6,0C1041.3,433.7,866.5,431,866.5,431z"/>
				<path class="st3" d="M866.5,546.6c-22.8,0-41.2-18.5-41.2-41.2c0-22.9,18.5-41.4,41.2-41.4c22.8,0,41.2,18.5,41.2,41.4
					C907.9,528.2,889.4,546.6,866.5,546.6z"/>
			</g>
		</g>
	</g>
	<g>
		<path class="st1" d="M516.4,1403l31.9-38.2c13.5,18.1,28.3,27.3,46,27.3c23,0,35.1-13.8,35.1-41.1V1233h-87.1v-46h144.1v160.8
			c0,61.3-30.8,91.4-89.2,91.4C563.9,1439.1,534.5,1426.4,516.4,1403z"/>
		<path class="st1" d="M1139.6,1434.9l-0.4-148.7l-72.9,122.5h-25.8l-72.6-119.3v145.5h-53.8V1187h47.4l92.8,154l91.4-154h47.1
			l0.7,247.9H1139.6z"/>
		<path class="st1" d="M1466,1276.9c0,55.2-41.4,89.6-107.6,89.6h-49.9v68.3H1251V1187h107.3C1424.5,1187,1466,1221.3,1466,1276.9z
			 M1407.9,1276.9c0-27.3-17.7-43.2-52.8-43.2h-46.7v86h46.7C1390.2,1319.8,1407.9,1303.8,1407.9,1276.9z"/>
		<g>
			<path class="st2" d="M800.5,1182.1c0,0-174.6,2.7-2.3,260.6c1.1,1.7,3.5,1.7,4.6,0C975.2,1184.8,800.5,1182.1,800.5,1182.1z
				 M800.5,1297.7c-22.8,0-41.2-18.5-41.2-41.2c0-22.9,18.5-41.4,41.2-41.4c22.8,0,41.2,18.5,41.2,41.4
				C841.8,1279.2,823.3,1297.7,800.5,1297.7z"/>
			<g>
				<path class="st3" d="M800.5,1182.1c0,0-174.6,2.7-2.3,260.6c1.1,1.7,3.5,1.7,4.6,0C975.2,1184.8,800.5,1182.1,800.5,1182.1z"/>
				<path class="st3" d="M800.5,1297.7c-22.8,0-41.2-18.5-41.2-41.2c0-22.9,18.5-41.4,41.2-41.4c22.8,0,41.2,18.5,41.2,41.4
					C841.8,1279.2,823.3,1297.7,800.5,1297.7z"/>
			</g>
		</g>
	</g>
	<g>
		<g>
			<path class="st4" d="M804.9,1489H580.8c-112.4,0-203.5-86-203.5-192.1s91.1-192.2,203.5-192.2h183.4l-1.6,0h576.7
				c112.3,0,203.5-86,203.5-192.1c0-106.2-91.2-192.2-203.5-192.2H867.7"/>
		</g>
	</g>
</g>
</svg>
