<?xml version="1.0" encoding="utf-8"?>
<!-- Generator: Adobe Illustrator 23.0.4, SVG Export Plug-In . SVG Version: 6.00 Build 0)  -->
<svg version="1.1" id="Layer_2" xmlns="http://www.w3.org/2000/svg" xmlns:xlink="http://www.w3.org/1999/xlink" x="0px" y="0px"
	 viewBox="0 0 500 500" style="enable-background:new 0 0 500 500;" xml:space="preserve">
<style type="text/css">
	.st0{fill:#FFFFFF;}
	.st1{fill:#DF4337;}
	.st2{font-family:'Cache-Regular';}
	.st3{font-size:113.7876px;}
</style>
<rect class="st0" width="497" height="497"/>
<g>
	<g>
		<polygon class="st1" points="205.2,346.6 224.6,164.8 229.7,159.9 209,353 90.7,295.5 93.8,292.5 		"/>
		<g>
			<path class="st1" d="M161.8,205.7v61.7c0,6.7-5.3,11.6-12.6,11.6h-3.2c-7.3,0-12.6-4.9-12.6-11.6v-8.9c0-1.3,1.1-2.3,2.5-2.3h6.2
				c1.4,0,2.5,1,2.5,2.3v8c0,1.3,1.1,2.3,2.5,2.3h1.2c1.4,0,2.5-1,2.5-2.3v-49.9L96,269.8l107.2,52.1L222,147L161.8,205.7z
				 M200.1,267.5c0,6.7-5.3,11.6-12.6,11.6h-3.2c-7.3,0-12.6-4.9-12.6-11.6v-8.9c0-1.3,1.1-2.3,2.5-2.3h6.2c1.4,0,2.5,1,2.5,2.3v8
				c0,1.3,1.1,2.3,2.5,2.3h1.2c1.4,0,2.5-1,2.5-2.3v-64.9c0-1.3,1.1-2.3,2.5-2.3h6.2c1.4,0,2.5,1,2.5,2.3V267.5z"/>
			<polygon class="st1" points="203,324.1 201.3,340.1 82.9,282.6 94.4,271.4 			"/>
		</g>
	</g>
	<text transform="matrix(1.0874 0 0 1 226.5288 279.0586)" class="st1 st2 st3">Pizza</text>
</g>
</svg>
