<?xml version="1.0" encoding="utf-8"?>
<!-- Generator: Adobe Illustrator 23.0.4, SVG Export Plug-In . SVG Version: 6.00 Build 0)  -->
<svg version="1.1" id="Layer_1" xmlns="http://www.w3.org/2000/svg" xmlns:xlink="http://www.w3.org/1999/xlink" x="0px" y="0px"
	 viewBox="0 0 1920 1920" style="enable-background:new 0 0 1920 1920;" xml:space="preserve">
<style type="text/css">
	.st0{fill:#E6E7E8;}
	.st1{fill:#EE3729;}
	.st2{fill:none;stroke:#0E1131;stroke-width:9.32;stroke-miterlimit:10;}
	.st3{fill:#31ABB1;}
	.st4{fill:#EEAB20;}
	.st5{enable-background:new    ;}
	.st6{fill:#0E1131;}
</style>
<title>KTI_Logo</title>
<rect class="st0" width="1920" height="1920"/>
<polygon class="st1" points="601.7,932.7 556.3,976.8 556.3,1074.6 435.9,1074.6 435.9,683.5 556.3,683.5 556.3,846.1 722.7,683.5 
	856.5,683.5 680.9,856.7 865.7,1074.6 724.5,1074.6 "/>
<polygon class="st2" points="587.2,916.7 541.7,960.9 541.7,1058.6 421.4,1058.6 421.4,667.5 541.7,667.5 541.7,830.1 708.1,667.5 
	842,667.5 666.4,840.7 851.2,1058.6 710,1058.6 "/>
<path class="st3" d="M1027.4,771.2h-132v-87.7h385v87.7H1149v303.4h-121.6V771.2z"/>
<path class="st2" d="M1012.8,755.2h-132v-87.7h385v87.7h-131.4v303.4h-121.6V755.2z"/>
<path class="st4" d="M1335,683.5h121.6v391.1H1335V683.5z"/>
<path class="st2" d="M1320.4,667.5H1442v391.1h-121.6V667.5z"/>
<g class="st5">
	<path class="st6" d="M456.7,1196l-9.8,10.2v18.5h-16.8v-73.1h16.8v34.2l32.4-34.2h18.8l-30.3,32.6l32.1,40.5h-19.7L456.7,1196z"/>
</g>
<g class="st5">
	<path class="st6" d="M504.7,1151.6c0-5.1,4.1-9.1,10.1-9.1c6.1,0,10.1,3.8,10.1,8.8c0,5.4-4.1,9.4-10.1,9.4
		C508.8,1160.7,504.7,1156.7,504.7,1151.6z M506.7,1168.5H523v56.2h-16.3V1168.5z"/>
	<path class="st6" d="M597.5,1147.2v77.5H582v-6.5c-4.1,4.9-10,7.3-17.6,7.3c-15.9,0-28.1-11.3-28.1-28.9
		c0-17.7,12.2-28.9,28.1-28.9c6.9,0,12.7,2.2,16.8,6.8v-27.3H597.5z M581.5,1196.6c0-9.7-6.3-15.6-14.3-15.6
		c-8.1,0-14.4,5.9-14.4,15.6c0,9.7,6.3,15.6,14.4,15.6C575.3,1212.2,581.5,1206.3,581.5,1196.6z"/>
	<path class="st6" d="M609.2,1219.5l5.4-11.7c5,3.2,12.6,5.4,19.5,5.4c7.5,0,10.3-2,10.3-5.1c0-9.2-34,0.2-34-22.3
		c0-10.7,9.6-18.2,26-18.2c7.7,0,16.3,1.8,21.6,4.9l-5.4,11.6c-5.5-3.1-11.1-4.2-16.2-4.2c-7.3,0-10.4,2.3-10.4,5.2
		c0,9.6,34,0.3,34,22.5c0,10.4-9.7,17.9-26.5,17.9C624.1,1225.5,614.4,1222.9,609.2,1219.5z"/>
	<path class="st6" d="M688.5,1156.4c0,2.7-0.4,4.7-2.7,10.4l-6.1,15h-10.3l4.5-16.5c-3.3-1.5-5.5-4.6-5.5-9c0-6.1,4.4-10,10.1-10
		C684.3,1146.3,688.5,1150.4,688.5,1156.4z"/>
</g>
<g class="st5">
	<path class="st6" d="M747,1165.4h-23.4v-13.8h63.7v13.8h-23.4v59.3H747V1165.4z"/>
</g>
<g class="st5">
	<path class="st6" d="M845.9,1201.2h-42.5c1.6,7,7.5,11.3,16.1,11.3c6,0,10.2-1.8,14.1-5.4l8.7,9.4c-5.2,6-13.1,9.1-23.2,9.1
		c-19.4,0-32.1-12.2-32.1-28.9c0-16.8,12.9-28.9,30-28.9c16.5,0,29.3,11.1,29.3,29.1C846.2,1198.1,846,1199.8,845.9,1201.2z
		 M803.1,1191.7h27.7c-1.1-7.1-6.5-11.7-13.8-11.7C809.6,1180,804.3,1184.5,803.1,1191.7z"/>
</g>
<g class="st5">
	<path class="st6" d="M854.4,1196.6c0-16.9,13.1-28.9,31.3-28.9c11.8,0,21.1,5.1,25.2,14.3l-12.6,6.8c-3-5.3-7.5-7.7-12.6-7.7
		c-8.3,0-14.7,5.7-14.7,15.6c0,9.8,6.5,15.6,14.7,15.6c5.1,0,9.6-2.3,12.6-7.7l12.6,6.9c-4.1,9-13.4,14.2-25.2,14.2
		C867.5,1225.5,854.4,1213.5,854.4,1196.6z"/>
</g>
<g class="st5">
	<path class="st6" d="M979,1192.5v32.2h-16.3V1195c0-9.1-4.2-13.3-11.4-13.3c-7.8,0-13.5,4.8-13.5,15.1v27.8h-16.3v-77.5h16.3v27.2
		c4.4-4.4,10.7-6.7,17.9-6.7C968.9,1167.7,979,1175.4,979,1192.5z"/>
	<path class="st6" d="M1028.6,1151.6h16.9v73.1h-16.9V1151.6z"/>
	<path class="st6" d="M1121.3,1192.5v32.2H1105V1195c0-9.1-4.2-13.3-11.4-13.3c-7.8,0-13.5,4.8-13.5,15.1v27.8h-16.3v-56.2h15.6v6.6
		c4.4-4.8,11-7.4,18.6-7.4C1111.2,1167.7,1121.3,1175.4,1121.3,1192.5z"/>
	<path class="st6" d="M1132.6,1219.5l5.4-11.7c5,3.2,12.6,5.4,19.5,5.4c7.5,0,10.3-2,10.3-5.1c0-9.2-34,0.2-34-22.3
		c0-10.7,9.6-18.2,26-18.2c7.7,0,16.3,1.8,21.6,4.9l-5.4,11.6c-5.5-3.1-11.1-4.2-16.2-4.2c-7.3,0-10.4,2.3-10.4,5.2
		c0,9.6,34,0.3,34,22.5c0,10.4-9.7,17.9-26.5,17.9C1147.5,1225.5,1137.9,1222.9,1132.6,1219.5z"/>
	<path class="st6" d="M1231.9,1222c-3.3,2.4-8.3,3.6-13.3,3.6c-13.3,0-21-6.8-21-20.2v-23.1h-8.7v-12.5h8.7v-13.7h16.3v13.7h14v12.5
		h-14v22.9c0,4.8,2.6,7.4,7,7.4c2.4,0,4.8-0.7,6.6-2.1L1231.9,1222z"/>
	<path class="st6" d="M1241.2,1151.6c0-5.1,4.1-9.1,10.1-9.1s10.1,3.8,10.1,8.8c0,5.4-4.1,9.4-10.1,9.4S1241.2,1156.7,1241.2,1151.6
		z M1243.2,1168.5h16.3v56.2h-16.3V1168.5z"/>
	<path class="st6" d="M1313,1222c-3.3,2.4-8.3,3.6-13.3,3.6c-13.3,0-21-6.8-21-20.2v-23.1h-8.7v-12.5h8.7v-13.7h16.3v13.7h14v12.5
		h-14v22.9c0,4.8,2.6,7.4,7,7.4c2.4,0,4.8-0.7,6.6-2.1L1313,1222z"/>
	<path class="st6" d="M1380.9,1168.5v56.2h-15.5v-6.7c-4.3,4.9-10.6,7.5-17.4,7.5c-14.1,0-24-7.9-24-25.3v-31.8h16.3v29.4
		c0,9.4,4.2,13.6,11.4,13.6c7.5,0,13-4.8,13-15.1v-27.8H1380.9z"/>
</g>
<g class="st5">
	<path class="st6" d="M1429.7,1222c-3.3,2.4-8.3,3.6-13.3,3.6c-13.3,0-21-6.8-21-20.2v-23.1h-8.7v-12.5h8.7v-13.7h16.3v13.7h14v12.5
		h-14v22.9c0,4.8,2.6,7.4,7,7.4c2.4,0,4.8-0.7,6.6-2.1L1429.7,1222z"/>
</g>
<g class="st5">
	<path class="st6" d="M1493.4,1201.2h-42.5c1.6,7,7.5,11.3,16.1,11.3c6,0,10.2-1.8,14.1-5.4l8.7,9.4c-5.2,6-13.1,9.1-23.2,9.1
		c-19.4,0-32.1-12.2-32.1-28.9c0-16.8,12.9-28.9,30-28.9c16.5,0,29.3,11.1,29.3,29.1C1493.7,1198.1,1493.5,1199.8,1493.4,1201.2z
		 M1450.7,1191.7h27.7c-1.1-7.1-6.5-11.7-13.8-11.7C1457.1,1180,1451.8,1184.5,1450.7,1191.7z"/>
</g>
</svg>
