<svg id="Layer_1" data-name="Layer 1" xmlns="http://www.w3.org/2000/svg" viewBox="0 0 1920 1920"><defs><style>.cls-1{fill:#e6e7e8;}.cls-2{fill:#ee3729;}.cls-3{fill:none;stroke:#0e1131;stroke-miterlimit:10;stroke-width:9.32px;}.cls-4{fill:#31abb1;}.cls-5{fill:#eeab20;}.cls-6{font-size:104.48px;fill:#0e1131;font-family:Montserrat-Bold, Montserrat;font-weight:700;letter-spacing:0.01em;}.cls-7{letter-spacing:0.02em;}.cls-8{letter-spacing:-0.04em;}.cls-9{letter-spacing:0.01em;}.cls-10{letter-spacing:0em;}.cls-11{letter-spacing:0.01em;}</style></defs><title>KTI_Logo</title><rect class="cls-1" width="1920" height="1920"/><polygon class="cls-2" points="601.71 932.7 556.28 976.84 556.28 1074.62 435.94 1074.62 435.94 683.49 556.28 683.49 556.28 846.09 722.66 683.49 856.5 683.49 680.91 856.71 865.71 1074.62 724.5 1074.62 601.71 932.7"/><polygon class="cls-3" points="587.16 916.72 541.72 960.86 541.72 1058.64 421.38 1058.64 421.38 667.51 541.72 667.51 541.72 830.11 708.11 667.51 841.95 667.51 666.36 840.73 851.16 1058.64 709.95 1058.64 587.16 916.72"/><path class="cls-4" d="M1027.39,771.22h-132V683.49h384.95v87.73H1149v303.4H1027.39Z" transform="translate(0)"/><path class="cls-3" d="M1012.84,755.24h-132V667.51h385v87.73H1134.4v303.4H1012.84Z" transform="translate(0)"/><path class="cls-5" d="M1335,683.49h121.56v391.13H1335Z" transform="translate(0)"/><path class="cls-3" d="M1320.41,667.51H1442v391.13H1320.41Z" transform="translate(0)"/><text class="cls-6" transform="translate(421.38 1224.7)">K<tspan class="cls-7" x="77.83" y="0">ids’ </tspan><tspan class="cls-8" x="301.82" y="0">T</tspan><tspan class="cls-7" x="362.21" y="0">e</tspan><tspan class="cls-9" x="429.7" y="0">c</tspan><tspan class="cls-7" x="492.59" y="0">h Institu</tspan><tspan class="cls-10" x="964.5" y="0">t</tspan><tspan class="cls-11" x="1009.74" y="0">e</tspan></text></svg>