<?xml version="1.0" encoding="utf-8"?>
<!-- Generator: Adobe Illustrator 23.0.4, SVG Export Plug-In . SVG Version: 6.00 Build 0)  -->
<svg version="1.1" id="Layer_1" xmlns="http://www.w3.org/2000/svg" xmlns:xlink="http://www.w3.org/1999/xlink" x="0px" y="0px"
	 viewBox="0 0 1920 1920" style="enable-background:new 0 0 1920 1920;" xml:space="preserve">
<style type="text/css">
	.st0{fill:#EBEBEB;}
	.st1{fill:#333333;stroke:#333333;stroke-width:9.1279;stroke-miterlimit:10;}
	.st2{fill:#F6921E;}
	.st3{fill:none;stroke:#333333;stroke-width:9.1279;stroke-miterlimit:10;}
	.st4{fill:none;stroke:#333333;stroke-width:9.1279;stroke-miterlimit:10;stroke-dasharray:55.3975,27.6987;}
	.st5{fill:none;stroke:#333333;stroke-width:9.1279;stroke-miterlimit:10;stroke-dasharray:54.1207,27.0604;}
</style>
<title>BontonAssociatesLogoFullColor</title>
<rect x="0" y="0" class="st0" width="1920" height="1920"/>
<g>
	<g>
		<g>
			<path class="st1" d="M444.8,849.8h79.9c41.9,0,59.5,21.5,59.5,46.3c0,21-11.9,34.3-25.1,39.4c13.4,4.5,31,17.4,31,42.5
				c0,33-25.7,54.1-63.6,54.1h-81.6V849.8z M519.4,923.1c21.9,0,30.6-9,30.6-23.6c0-14.9-11.1-23-28.8-23h-42.9v46.6H519.4z
				 M478.4,1005.4h42.1c21.3,0,34.3-8.8,34.3-28.2c0-16.8-11.2-27.4-36-27.4h-40.5V1005.4z"/>
			<path class="st1" d="M750,951.1h-91.8v52.8h101.3l-4.1,28.2H624.8V849.8h129.6V878h-96.2v44.9H750V951.1z"/>
			<path class="st1" d="M832,1032.1v-65.7c0-2-0.4-3.7-1.5-5.4l-65.9-111.2h39.2c15.9,28.6,38.3,68.8,47.1,86.7
				c8.2-17.5,31.6-58.7,47.6-86.7h36.3l-67.1,111.3c-0.8,1.3-1.3,2.2-1.3,5.2v65.8H832z"/>
			<path class="st1" d="M1122.7,940.2c0,50.6-30.5,94.8-90.1,94.8c-56.8,0-87.9-41.7-87.9-94.1c0-52.2,33.2-93.9,90.1-93.9
				C1089.1,846.9,1122.7,886.1,1122.7,940.2z M980.2,940.1c0,36.9,17.9,66.9,53.8,66.9c38.3,0,53.2-31.7,53.2-66.4
				c0-36-16.6-65.8-53.8-65.8C996.7,874.9,980.2,903.9,980.2,940.1z"/>
			<path class="st1" d="M1158.8,1032.1V849.8h42.6c28.8,47.4,74.1,120.9,83.6,140.9h0.5c-1.9-20.8-1.8-51.6-1.8-81.5v-59.4h31.3
				v182.3h-40.2c-21.3-35.9-75.3-126.5-85.7-147.3h-0.5c1.3,18.9,1.6,51.9,1.6,84.5v62.8H1158.8z"/>
			<path class="st1" d="M1361,849.8h71.5c54,0,88.5,35.8,88.5,88.8c0,54.5-35.4,93.4-89.7,93.4H1361V849.8z M1395.2,1004.3h33.6
				c38.6,0,56.7-27.1,56.7-65.3c0-33.2-17.2-61.5-56.3-61.5h-34V1004.3z"/>
		</g>
	</g>
	<g>
		<g>
			<g>
				<path class="st1" d="M444.8,536h34.1v154h95l-4.3,28.2H444.8V536z"/>
				<path class="st1" d="M779.1,718.3L711.7,536h36.9l30.4,87.6c9.6,27.6,16.7,50,20.7,66.5h0.5c3.6-14.9,11.2-37,21.5-66l31.5-88.1
					h35.3l-69.2,182.3H779.1z"/>
				<path class="st1" d="M1038,637.3h-91.8v52.8h101.3l-4.1,28.2H912.8V536h129.6v28.2h-96.2v44.9h91.8V637.3z"/>
			</g>
		</g>
		<g>
			<path class="st2" d="M634.6,515.8c0,0-142.7,2.2-1.9,213c0.9,1.4,2.9,1.4,3.8,0C777.4,518,634.6,515.8,634.6,515.8z M634.6,610.3
				c-18.6,0-33.7-15.1-33.7-33.7c0-18.7,15.1-33.8,33.7-33.8c18.6,0,33.7,15.1,33.7,33.8C668.4,595.2,653.3,610.3,634.6,610.3z"/>
			<g>
				<path class="st3" d="M634.6,515.8c0,0-142.7,2.2-1.9,213c0.9,1.4,2.9,1.4,3.8,0C777.4,518,634.6,515.8,634.6,515.8z"/>
				<path class="st3" d="M634.6,610.3c-18.6,0-33.7-15.1-33.7-33.7c0-18.7,15.1-33.8,33.7-33.8c18.6,0,33.7,15.1,33.7,33.8
					C668.4,595.2,653.3,610.3,634.6,610.3z"/>
			</g>
		</g>
	</g>
	<g>
		<g>
			<g>
				<path class="st1" d="M444.8,1174h79.9c41.9,0,59.5,21.5,59.5,46.3c0,21-11.9,34.3-25.1,39.4c13.4,4.5,31,17.4,31,42.5
					c0,33-25.7,54.1-63.6,54.1h-81.6V1174z M519.4,1247.3c21.9,0,30.6-9,30.6-23.6c0-14.9-11.1-23-28.8-23h-42.9v46.6H519.4z
					 M478.4,1329.5h42.1c21.3,0,34.3-8.8,34.3-28.2c0-16.8-11.2-27.4-36-27.4h-40.5V1329.5z"/>
				<path class="st1" d="M791.6,1280.9v75.4H758V1174h80.2c39.1,0,60.7,20.9,60.7,49.8c0,23.9-13.3,37.8-29.1,43.1
					c10.9,3.5,25.3,13.1,25.3,45.4v8.6c0,12.5-0.2,27.2,2.5,35.4h-33.1c-3.2-7.9-3.4-21.4-3.4-39.7v-3.7c0-22.2-6.4-31.9-36.7-31.9
					H791.6z M791.6,1253.6H830c24.1,0,34.2-9,34.2-26.4c0-16.6-10.9-25.9-32.8-25.9h-39.8V1253.6z"/>
				<path class="st1" d="M935.6,1174h71.5c54,0,88.5,35.8,88.5,88.8c0,54.5-35.4,93.4-89.7,93.4h-70.3V1174z M969.7,1328.5h33.6
					c38.6,0,56.7-27.1,56.7-65.3c0-33.2-17.2-61.5-56.3-61.5h-34V1328.5z"/>
				<path class="st1" d="M1257,1275.3h-91.8v52.8h101.3l-4.1,28.2h-130.5V1174h129.6v28.2h-96.2v44.9h91.8V1275.3z"/>
				<path class="st1" d="M1331.4,1280.9v75.4h-33.6V1174h80.2c39.1,0,60.7,20.9,60.7,49.8c0,23.9-13.3,37.8-29.1,43.1
					c10.9,3.5,25.3,13.1,25.3,45.4v8.6c0,12.5-0.2,27.2,2.5,35.4h-33.1c-3.2-7.9-3.4-21.4-3.4-39.7v-3.7c0-22.2-6.4-31.9-36.7-31.9
					H1331.4z M1331.4,1253.6h38.4c24.1,0,34.2-9,34.2-26.4c0-16.6-10.9-25.9-32.8-25.9h-39.8V1253.6z"/>
				<path class="st1" d="M1496,1303.5c4.7,19.3,18.6,29.4,43.6,29.4c25.4,0,35.4-10.4,35.4-25c0-15.9-8.9-24-43.9-31.7
					c-49.6-11-62.7-28.2-62.7-53.1c0-30.9,24.5-52,66.6-52c49.4,0,67.6,26.9,70,51.4h-34.4c-2.6-12.6-10.1-25.5-36.6-25.5
					c-19.4,0-30.6,7.9-30.6,22.5c0,14,8.5,20,40.3,27c55.7,12.4,66.4,32.5,66.4,57.5c0,31.5-23.9,54.9-73.1,54.9
					c-47.9,0-71-23.9-75.5-55.4H1496z"/>
			</g>
		</g>
		<g>
			<path class="st2" d="M668.7,1153.7c0,0-142.7,2.2-1.9,213c0.9,1.4,2.9,1.4,3.8,0C811.4,1155.9,668.7,1153.7,668.7,1153.7z
				 M668.7,1248.2c-18.6,0-33.7-15.1-33.7-33.7c0-18.7,15.1-33.8,33.7-33.8c18.6,0,33.7,15.1,33.7,33.8
				C702.4,1233.1,687.3,1248.2,668.7,1248.2z"/>
			<g>
				<path class="st3" d="M668.7,1153.7c0,0-142.7,2.2-1.9,213c0.9,1.4,2.9,1.4,3.8,0C811.4,1155.9,668.7,1153.7,668.7,1153.7z"/>
				<path class="st3" d="M668.7,1248.2c-18.6,0-33.7-15.1-33.7-33.7c0-18.7,15.1-33.8,33.7-33.8c18.6,0,33.7,15.1,33.7,33.8
					C702.4,1233.1,687.3,1248.2,668.7,1248.2z"/>
			</g>
		</g>
	</g>
	<g>
		<g>
			<line class="st3" x1="668.7" y1="1407.3" x2="641.3" y2="1407.3"/>
			<path class="st4" d="M613.6,1407.3H402.2c-92.1,0-166.7-70.3-166.7-157s74.6-157.1,166.7-157.1h844.9"/>
			<polyline class="st3" points="1261,1093.2 1288.4,1093.2 1286.5,1093.2 1313.8,1093.2 			"/>
			<path class="st5" d="M1340.9,1093.2h176.9c92,0,166.7-70.3,166.7-157c0-86.8-74.7-157.1-166.7-157.1H674.4"/>
			<line class="st3" x1="660.8" y1="779.1" x2="633.4" y2="779.1"/>
		</g>
	</g>
</g>
</svg>
