<?xml version="1.0" encoding="utf-8"?>
<!-- Generator: Adobe Illustrator 23.0.4, SVG Export Plug-In . SVG Version: 6.00 Build 0)  -->
<svg version="1.1" id="Layer_1" xmlns="http://www.w3.org/2000/svg" xmlns:xlink="http://www.w3.org/1999/xlink" x="0px" y="0px"
	 viewBox="0 0 1920 1920" style="enable-background:new 0 0 1920 1920;" xml:space="preserve">
<style type="text/css">
	.st0{fill:#F3FFFE;}
	.st1{fill:#00A79D;}
	.st2{fill:#FFFFFF;}
</style>
<rect class="st0" width="1920" height="1920"/>
<title>teal</title>
<g>
	<g id="Layer_1-2">
		<circle class="st1" cx="960" cy="960" r="466.7"/>
		<path class="st2" d="M711.7,790.6c-24.3,8.8-51.1-3.7-59.9-28c-3.2-8.8-3.7-18.3-1.4-27.4c4.7-17.5,17.5-31.7,34.4-38.1
			c7.9-2.9,16.4-3.5,24.7-1.9c17,3.6,30.8,16.1,36.1,32.6c2.4,8,2.6,16.6,0.5,24.7c-2.2,8.6-6.6,16.5-12.6,22.9
			C727.6,782.2,720.1,787.4,711.7,790.6z M727.2,750.1c1.1-4.9,0.8-9.9-0.8-14.6c-1.8-4.9-4.8-9.3-8.8-12.8
			c-3.9-3.6-8.6-6.2-13.8-7.5c-4.8-1.1-9.9-0.9-14.6,0.6c-4.7,1.7-9,4.5-12.3,8.3c-3.5,3.8-5.9,8.4-7.1,13.4
			c-1.1,4.9-0.8,9.9,0.8,14.6c3.7,10.1,12.2,17.7,22.6,20.4c4.8,1.1,9.9,0.9,14.6-0.6c9.8-3.5,17.2-11.7,19.7-21.8L727.2,750.1z"/>
		<path class="st2" d="M776.4,630.2c6.1-0.9,12.2,0.1,17.8,2.7c11.1,6,18.1,17.6,18.3,30.2c-0.1,6.2-2.1,12.2-5.7,17.2
			c-4.3,5.9-9.8,10.8-16.1,14.4l-15.8,9.6l13.1,21.6l-18.3,10.8l-47.5-78.5l33.9-20.5C762.3,633.8,769.2,631.2,776.4,630.2z
			 M791,669.3c1.4-4.3,0.7-8.9-1.8-12.6c-2.1-4-5.9-6.8-10.4-7.6c-5.2-0.4-10.3,1-14.6,4l-14.9,9l16.5,27.2l14.8-9
			C785.2,678,788.9,674.1,791,669.3z"/>
		<path class="st2" d="M905,658.8l4.8,16.3l-68.1,20l-25.9-88l66.5-19.6l4.8,16.3l-46.3,13.6l5.7,19.2l40.9-12l4.6,15.9l-40.8,12
			l5.7,20.4L905,658.8z"/>
		<path class="st2" d="M997.3,581.1l1.5,91.7l-17.2,0.3l-46.7-55l0.9,55.7l-20.9,0.3l-1.5-91.7h17.5l46.5,54.9l-0.9-55.7
			L997.3,581.1z"/>
		<path class="st2" d="M1114.5,713.2l22.4-50.3l-43.2,30.3l-8.7-4l-6.4-51.3l-22.1,49.1l-18.3-8.1l37.6-83.7l16.2,6.9l8,66.1
			l54.2-38.2l15.9,7.3l-37.3,83.8L1114.5,713.2z"/>
		<path class="st2" d="M1195.9,658.8l16.7,13.1l-56.3,72.4l-16.8-13L1195.9,658.8z"/>
		<path class="st2" d="M1183.1,762.4c-1.9-8.1-1.5-16.6,1.1-24.5c2.8-8.2,7.8-15.4,14.5-20.9c6.5-5.8,14.4-9.6,22.9-11.1
			c8.2-1.4,16.7-0.6,24.4,2.4c8.3,3.2,15.6,8.5,21.3,15.3c4.9,5.5,8.7,12,11,19c2.1,6.5,2.6,13.4,1.5,20.2l-18.5-2.1
			c1.5-8.8-1-17.8-6.9-24.5c-3.4-4.1-7.8-7.2-12.8-9.1c-4.7-1.7-9.8-2.1-14.7-1c-10.5,2.4-19,9.9-22.9,19.9
			c-1.8,4.7-2.1,9.8-1.1,14.7c1.2,5.2,3.6,10,7.2,13.9c5.7,6.7,14.2,10.5,23.1,10.2l-0.6,18.6c-6.9,0.2-13.7-1.3-19.9-4.3
			c-6.6-3.3-12.4-8-17.2-13.6C1189.4,779,1185.2,771,1183.1,762.4z"/>
		<path class="st2" d="M821.1,1273.2l-26.9-11.5l6.9-15.8l73.3,31.9l-6.9,15.9l-26.9-11.5l-29.7,67.8l-19.3-8.5L821.1,1273.2z"/>
		<path class="st2" d="M932.7,1362.6l-2.9,16.8l-70-11.9l15.4-90.5l68.4,11.5l-2.9,16.8l-47.5-8.1l-3.4,19.7l42,7.2l-2.7,16.5
			l-42-7.2l-3.9,20.9L932.7,1362.6z"/>
		<path class="st2" d="M976.7,1374.3c-7.6-3.2-14.3-8.4-19.2-15.1c-10-14.3-11.6-32.8-4.4-48.7c3.6-7.6,9.2-14,16.2-18.6
			c7.4-4.8,16-7.7,24.8-8.4c7.4-0.8,14.8,0,21.8,2.3c6.5,2.1,12.4,5.7,17.2,10.6l-12.3,13.8c-6.3-6.4-15.1-9.6-24-8.7
			c-5.3,0.4-10.4,2.1-14.8,5c-4.2,2.8-7.5,6.8-9.5,11.5c-2.1,4.9-2.9,10.2-2.4,15.5c0.3,5.3,2.1,10.4,5,14.8
			c2.8,4.2,6.8,7.5,11.5,9.5c4.9,2.2,10.2,3,15.5,2.4c8.9-0.7,17-5.5,22-12.9l14.7,11.5c-3.9,5.7-9.1,10.3-15.1,13.6
			c-6.6,3.5-13.8,5.5-21.2,6.1C993.8,1379.3,984.9,1377.9,976.7,1374.3z"/>
		<path class="st2" d="M1111.8,1250.3l33.7,85.3l-19.7,7.9l-13.8-35l-38.8,15.3l13.8,35l-19.7,7.8l-33.7-85.3l19.7-8l13.3,33.6
			l38.8-15.3l-13.3-33.6L1111.8,1250.3z"/>
		<path class="st2" d="M884.9,883.3c23.5-23.5,23.5-61.6,0-85.1c-23.5-23.5-61.6-23.5-85.1,0c-23.5,23.5-23.5,61.6,0,85.1
			c11.3,11.3,26.6,17.6,42.5,17.6C858.3,900.9,873.6,894.6,884.9,883.3z"/>
		<path class="st2" d="M1074.3,859v49.3h9.6V859c-1.1-35.3-30.6-63.1-65.9-62.1c-33.8,1-61,28.2-62.1,62.1v261.6
			c0,30.1-24.4,54.5-54.5,54.5c-30.1,0-54.5-24.4-54.5-54.5l0,0v-30.9h10.2c7.2-0.1,13.2-5.7,13.7-12.9l9.9-170.6
			c-23.8,14.1-53.4,14.1-77.1,0l9.9,170.3c0.3,7.3,6.3,13.1,13.6,13.2h10.1v31.2c1.1,35.3,30.6,63.1,65.9,62.1
			c33.8-1,61-28.2,62.1-62.1V859c0-30.1,24.4-54.5,54.5-54.5C1049.9,804.5,1074.3,828.9,1074.3,859L1074.3,859z M832,1002v-38.5
			c0.4-5.7,5.4-10.1,11.2-9.6c5.2,0.4,9.3,4.5,9.6,9.6v38.4c-0.4,5.7-5.4,10.1-11.2,9.6c-5.2-0.4-9.3-4.5-9.6-9.6V1002z"/>
		<path class="st2" d="M1135.6,957.1c-0.4-2.8-1-5.5-1.8-8.2c-6.8-22.4-26.5-38.5-49.8-40.5v29.2c3.7,1.7,6.1,5.4,6.1,9.4v20.2
			c-0.1,3.9-2.3,7.5-5.7,9.4v12c-0.8,3.1-4,4.9-7,4c-2-0.5-3.5-2.1-4-4v-12c-3.3-2-5.4-5.5-5.3-9.4v-20.2c0-2.9,1.1-5.7,3.2-7.7
			c0.8-0.9,1.9-1.4,3-1.7v-29.2c-23.6,1.9-43.6,18.1-50.3,40.8c-0.8,2.7-1.4,5.4-1.8,8.2c-0.4,2.6-0.6,5.2-0.6,7.8v79.6
			c0,31.7,25.7,57.3,57.3,57.3c31.7,0,57.3-25.7,57.3-57.3v-79.9C1136.2,962.2,1135.9,959.6,1135.6,957.1z"/>
		<path class="st2" d="M1073.5,950.3v13.5c0.8,3.1,3.9,4.9,7,4.1c1.9-0.5,3.4-1.9,4-3.8c0-0.1,0-0.2,0-0.3v-13.5c0-0.1,0-0.3,0-0.4
			c-1-3-4.2-4.6-7.2-3.7C1075.4,946.9,1074,948.4,1073.5,950.3z"/>
	</g>
</g>
</svg>
