<?xml version="1.0" encoding="utf-8"?>
<!-- Generator: Adobe Illustrator 23.0.4, SVG Export Plug-In . SVG Version: 6.00 Build 0)  -->
<svg version="1.1" id="Layer_1" xmlns="http://www.w3.org/2000/svg" xmlns:xlink="http://www.w3.org/1999/xlink" x="0px" y="0px"
	 viewBox="0 0 1920 1920" style="enable-background:new 0 0 1920 1920;" xml:space="preserve">
<style type="text/css">
	.st0{fill:#F5F5F5;}
	.st1{fill:#3F74BA;}
	.st2{fill:#135945;}
	.st3{fill:#EF3F3E;}
	.st4{fill:#333333;}
</style>
<rect class="st0" width="1920" height="1920"/>
<g>
	<g>
		<path class="st1" d="M621,824c1.7-1.4,3.9,0.8,2.6,2.5c-0.8,1-1.6,2-2.5,3.1c-8.3,10.1-21.2,22.7-40.8,36
			c-48.8,33.1-139.5,70.4-305.9,83.8V820.7c0-7.5,6.1-13.6,13.6-13.6h278.7c7.5,0,13.6,6.1,13.6,13.6v28.6
			C597,841.1,610.9,832.7,621,824z"/>
		<path class="st2" d="M617.4,919.3c1.7-1.4,4,0.7,2.6,2.5c-5.4,7-13.2,15.5-24.2,24.7c-4.6,3.9-9.7,7.8-15.5,11.9
			c-47.6,33.4-137.7,71.9-305.9,85.9v-90.8c135.3,13,261.1-34.3,305.9-53.7v43C595.3,935.2,608,927.3,617.4,919.3z"/>
		<path class="st3" d="M580.3,996.9v102.4c0,7.5-6.1,13.6-13.6,13.6H288c-7.5,0-13.6-6.1-13.6-13.6v-48.7
			C409.7,1063.6,535.6,1016.3,580.3,996.9z"/>
	</g>
	<g>
		<g>
			<path class="st4" d="M652,985.4l49.4-118.1H657v-36.9h95.4v31.9l-45.7,115.9H754l-5.3,36.9H652V985.4z"/>
			<path class="st4" d="M854.7,936h-38.2v42.7h46l-5.6,36.3h-90.1V830.4h89.8v36.3h-40.1v33h38.2V936z"/>
			<path class="st4" d="M925.5,937.1v77.9H876V830.4h61.6c40.7,0,53.5,18.3,53.5,47.4v6.7c0,20.8-7.8,31.3-20,36.9
				c15,6.1,19.1,16.4,19.1,43.2c0,22.2-0.3,43.2,0.6,50.4h-48.2c-2.2-3.3-2.8-16.1-2.8-58.2c0-18.3-1.9-19.7-11.9-19.7H925.5z
				 M925.8,904.4h3.8c8.1,0,11.6-2.5,11.6-14.1v-14.7c0-10.3-2.8-12.5-12.5-12.5h-2.8V904.4z"/>
			<path class="st4" d="M1122.9,878.6v88.1c0,37.4-23.2,51-59.5,51c-35,0-55.7-14.7-55.7-51v-90.4c0-34.1,23.8-48.8,57-48.8
				C1097.9,827.6,1122.9,842.6,1122.9,878.6z M1057.5,873.4v98.7c0,6.9,2.2,11.1,7.5,11.1c4.7,0,7.5-3.6,7.5-11.1v-98.9
				c0-8.3-2.2-10.8-7.8-10.8C1060,862.3,1057.5,865.1,1057.5,873.4z"/>
			<path class="st4" d="M1259.4,963.8c-0.9,11.5-6.8,53.8-55.6,53.8c-55.2,0-58.5-55.2-58.5-98.6c0-52.5,14.9-95.1,61.3-95.1
				c49.4,0,51.7,42.5,52.1,52.7h-18.3c-0.4-6.4-2-38-34.1-38c-37.1,0-42,46-42,80.3c0,41.4,5.3,84.1,40.3,84.1
				c30.5,0,35.7-28.8,36.6-39.2H1259.4z"/>
			<path class="st4" d="M1388.1,943.5c0,48.5-17.8,74.1-52.1,74.1c-35.8,0-52.5-24.7-52.5-73.7c0-48,20.5-70.6,53.1-70.6
				C1369.7,873.3,1388.1,896.6,1388.1,943.5z M1301.6,944c0,41,12.6,59.7,34.3,59.7c22,0,34.1-19.1,34.1-60
				c0-37.5-11.6-56.4-34.1-56.4C1314.6,887.2,1301.6,903.3,1301.6,944z"/>
			<path class="st4" d="M1436.7,999.4l-0.3,78.7h-17.6l0.3-161.7c0-19.2,0-32.2-0.3-40.9h17c0.4,2.4,0.7,12.5,0.7,20.1
				c5.8-13.2,17.5-22.3,38.4-22.3c30,0,46,23.9,46,70.2c0,48.5-19.4,74.1-50.5,74.1C1450.5,1017.6,1441.2,1008.8,1436.7,999.4z
				 M1502.8,944.2c0-35.7-9.7-56.7-32.3-56.7c-26.7,0-34.6,22.6-34.6,57.6c0,33.6,4.2,58.2,32.7,58.2
				C1491.2,1003.4,1502.8,979.7,1502.8,944.2z"/>
			<path class="st4" d="M1556.5,873.3c19,76.7,33.2,104.4,35.4,118.6h0.3c3-14.6,18.2-49.6,34.8-118.6h18.6l-46,144.5
				c-12.5,39.9-23,62-45.6,62c-3.1,0-7.5-0.3-10.1-0.9v-14.4c2.2,0.5,6.6,0.8,10.1,0.8c17.4,0,22.3-26.9,29.4-51.5l-46-140.5H1556.5
				z"/>
		</g>
		<g>
			<g>
				<path class="st1" d="M653.1,1032.1h9.2c8.3,0,12.1,3.4,12.1,10.3v2.9c0,6.4-2.1,11.6-12.5,11.6h-4.5v21.2h-4.3V1032.1z
					 M657.5,1053.9h4.2c7.4,0,8.4-3.6,8.4-8.6v-2.6c0-4-1.2-7.6-8-7.6h-4.6V1053.9z"/>
				<path class="st1" d="M699.4,1072.9c0,2.5,0.1,4.4,0.2,5.2h-4.1c-0.3-1-0.4-2.4-0.4-3c-1.4,2.9-4.3,3.6-7.2,3.6
					c-6.2,0-8.7-4.2-8.7-9.6v-0.6c0-7.3,5.4-10.5,13.3-10.5c0.8,0,1.5,0,2.6,0v-6.2c0-3.4-0.9-5.7-4.9-5.7c-4,0-5.2,2.4-5.2,5.5v1.2
					h-4.3v-1.2c0-4.7,2.4-8.6,9.7-8.6c7.2,0,9.2,3.8,9.2,8.6V1072.9z M695.1,1060.8c-0.6,0-1.9,0-2.7,0c-5.7,0-9,2-9,7.4v0.6
					c0,3.6,1.3,6.6,5.3,6.6c4.9,0,6.4-3.2,6.4-8.8V1060.8z"/>
				<path class="st1" d="M712.6,1075v14.8h-4.3v-36.3c0-4.8,0-7.8-0.1-10h4.1c0.1,0.8,0.2,2,0.2,3.9c1-2.4,3.3-4.5,8-4.5
					c6,0,8.9,3.1,8.9,9.9v15c0,7.5-4.1,10.7-9.4,10.7C715.1,1078.6,713.3,1076.6,712.6,1075z M724.9,1068v-15.3
					c0-4.9-2.4-6.7-5.5-6.7c-5.9,0-7,4.2-7,9.1v10.9c0,4.4,0.7,9.4,6.6,9.4C723.1,1075.4,724.9,1072.8,724.9,1068z"/>
				<path class="st1" d="M739.8,1061.2v6.1c0,4,0.9,8.4,6,8.4c4.7,0,5.7-2.8,5.7-6.7v-0.4h4.3v0.3c0,4.3-1.3,9.8-10.1,9.8
					c-7.8,0-10.2-4.2-10.2-11.3v-14c0-5.6,2.7-10.4,10.4-10.4c7.9,0,10,4.9,10,10.5c0,1.8,0,5.8,0,7.8H739.8z M751.7,1058.2v-4.9
					c0-3.2-0.5-7.5-5.8-7.5c-5.2,0-6.1,3.5-6.1,7.5v4.8H751.7z"/>
				<path class="st1" d="M762.9,1055.3c0-5.5,0-9.1-0.1-11.8h4.2c0.1,1.1,0.2,2.6,0.2,5.3c1.6-4,5.3-5.6,9.1-5.7v4.2
					c-5.8,0.1-9,3.6-9,9.2v21.6h-4.3V1055.3z"/>
				<path class="st1" d="M794.9,1068.2v1.5c0,4.2,2.4,6,5.8,6c4.1,0,5.6-2,5.6-5.8c0-4.1-1.6-5.8-6.4-8.3c-5.8-3-8.5-5.4-8.5-10.1
					c0-4.6,2.6-8.5,9.5-8.5c7.5,0,9.3,4.1,9.3,8.5v1.7h-4.3v-1.8c0-3.3-1.1-5.5-5.1-5.5c-3.5,0-5,1.9-5,5.1c0,3.2,1.2,4.6,6,7.2
					c5.6,3,9,5.3,9,11.1c0,6-3.2,9.4-10.3,9.4c-7.8,0-9.9-4.2-9.9-8.9v-1.6H794.9z"/>
				<path class="st1" d="M837,1052.7v15.3c0,7.6-4.4,10.6-10.7,10.6c-6.2,0-10.4-2.9-10.4-10.3v-15.6c0-6.1,3.8-9.8,10.7-9.8
					C833.7,1042.9,837,1046.7,837,1052.7z M820.3,1052.7v15.7c0,4.5,2,7.2,6.1,7.2c3.8,0,6.2-2,6.2-7.2v-15.7c0-3.9-1.8-6.8-6.1-6.8
					C822.1,1046,820.3,1048.5,820.3,1052.7z"/>
				<path class="st1" d="M844.5,1078.1v-48h4.3v48H844.5z"/>
				<path class="st1" d="M878,1069.3c0,4,0,7.3,0.1,8.8H874c-0.1-0.6-0.2-2.4-0.2-3.8c-1.2,3.2-3.8,4.4-7.8,4.4
					c-3.3,0-8.5-0.8-8.5-8.7v-26.5h4.3v25.6c0,4.8,1.6,6.5,5.3,6.5c3.3,0,6.5-1.5,6.5-9.6v-22.4h4.3V1069.3z"/>
				<path class="st1" d="M882.1,1043.4h5.4v-8.6h4.3v8.6h6.7v3h-6.7v25.2c0,1.9,0.5,3.9,3.4,3.9c0.9,0,2.3-0.1,3-0.2v2.7
					c-1.2,0.3-3,0.4-4.4,0.4c-3.4,0-6.3-1.4-6.3-6.2v-25.8h-5.4V1043.4z"/>
				<path class="st1" d="M903,1043.4h4.3v34.6H903V1043.4z M903,1030.1h4.3v6.8H903V1030.1z"/>
				<path class="st1" d="M935.9,1052.7v15.3c0,7.6-4.4,10.6-10.7,10.6c-6.2,0-10.4-2.9-10.4-10.3v-15.6c0-6.1,3.8-9.8,10.7-9.8
					C932.5,1042.9,935.9,1046.7,935.9,1052.7z M919.2,1052.7v15.7c0,4.5,2,7.2,6.1,7.2c3.8,0,6.2-2,6.2-7.2v-15.7
					c0-3.9-1.8-6.8-6.1-6.8C921,1046,919.2,1048.5,919.2,1052.7z"/>
				<path class="st1" d="M943.3,1053.9c0-6.9,0-8.6-0.1-10.4h4.1c0.1,0.8,0.2,1.9,0.2,3.7c1.3-2.9,4.2-4.2,8.1-4.2
					c4.5,0,8.5,1.9,8.5,8.1v27.1h-4.3v-26.4c0-3.5-1.5-5.6-5.3-5.6c-4.1,0-6.9,1.5-6.9,9.4v22.6h-4.3V1053.9z"/>
				<path class="st1" d="M974.6,1068.2v1.5c0,4.2,2.4,6,5.8,6c4.1,0,5.6-2,5.6-5.8c0-4.1-1.6-5.8-6.4-8.3c-5.8-3-8.5-5.4-8.5-10.1
					c0-4.6,2.6-8.5,9.5-8.5c7.5,0,9.3,4.1,9.3,8.5v1.7h-4.3v-1.8c0-3.3-1.1-5.5-5.1-5.5c-3.5,0-5,1.9-5,5.1c0,3.2,1.2,4.6,6,7.2
					c5.6,3,9,5.3,9,11.1c0,6-3.2,9.4-10.3,9.4c-7.8,0-10-4.2-10-8.9v-1.6H974.6z"/>
				<path class="st1" d="M1009.5,1078.1v-31.6h-4.9v-3h4.9v-5.9c0-3.8,1.7-7.8,8-7.8c0.9,0,2.1,0.1,2.7,0.2v3.2
					c-0.8-0.1-1.4-0.2-2.3-0.2c-3.4,0-4.1,2-4.1,4.8v5.6h5.9v3h-5.9v31.6H1009.5z"/>
				<path class="st1" d="M1043.2,1052.7v15.3c0,7.6-4.4,10.6-10.7,10.6c-6.2,0-10.4-2.9-10.4-10.3v-15.6c0-6.1,3.8-9.8,10.7-9.8
					C1039.8,1042.9,1043.2,1046.7,1043.2,1052.7z M1026.5,1052.7v15.7c0,4.5,2,7.2,6.1,7.2c3.8,0,6.2-2,6.2-7.2v-15.7
					c0-3.9-1.8-6.8-6.1-6.8C1028.3,1046,1026.5,1048.5,1026.5,1052.7z"/>
				<path class="st1" d="M1050.6,1055.3c0-5.5,0-9.1-0.1-11.8h4.2c0.1,1.1,0.2,2.6,0.2,5.3c1.6-4,5.3-5.6,9.1-5.7v4.2
					c-5.8,0.1-9,3.6-9,9.2v21.6h-4.3V1055.3z"/>
				<path class="st1" d="M1076.2,1043.4h5.4v-8.6h4.3v8.6h6.7v3h-6.7v25.2c0,1.9,0.5,3.9,3.4,3.9c0.9,0,2.3-0.1,3-0.2v2.7
					c-1.2,0.3-3,0.4-4.4,0.4c-3.4,0-6.3-1.4-6.3-6.2v-25.8h-5.4V1043.4z"/>
				<path class="st1" d="M1101.5,1030.1v16.7c1-2,3.6-3.8,8-3.8c6.5,0,8.5,3.8,8.5,8.9v26.3h-4.3v-25.5c0-3.1-0.4-6.5-5.3-6.5
					c-5.7,0-6.9,3.6-6.9,9.4v22.6h-4.3v-48H1101.5z"/>
				<path class="st1" d="M1129.7,1061.2v6.1c0,4,0.9,8.4,6,8.4c4.7,0,5.7-2.8,5.7-6.7v-0.4h4.3v0.3c0,4.3-1.3,9.8-10.1,9.8
					c-7.8,0-10.2-4.2-10.2-11.3v-14c0-5.6,2.7-10.4,10.4-10.4c7.9,0,10,4.9,10,10.5c0,1.8,0,5.8,0,7.8H1129.7z M1141.6,1058.2v-4.9
					c0-3.2-0.5-7.5-5.8-7.5c-5.2,0-6.1,3.5-6.1,7.5v4.8H1141.6z"/>
				<path class="st1" d="M1165.3,1032.1h9.4c12.9,0,13.5,6.9,13.5,13.3v18.5c0,7.1-1.3,14.1-14.2,14.1h-8.7V1032.1z M1169.6,1075.1
					h4c7.9,0,10.1-3.2,10.1-10.1v-20.1c0-6.1-1.4-9.7-10-9.7h-4.1V1075.1z"/>
				<path class="st1" d="M1195.8,1043.4h4.3v34.6h-4.3V1043.4z M1195.8,1030.1h4.3v6.8h-4.3V1030.1z"/>
				<path class="st1" d="M1228.6,1078.2c0,6.6-1,12.1-11.1,12.1c-8.3,0-10-4.6-10-8.3v-0.2h4.4v0.3c0,2.3,1.1,5.3,5.9,5.3
					c5.2,0,6.5-3,6.5-8.4v-4.9c-1.2,2.7-3.6,3.9-7.7,3.9c-5.8,0-9.1-3.1-9.1-10.4V1053c0-7.1,4.2-10.1,10-10.1
					c4.5,0,6.6,1.9,7.2,3.5c0-0.9,0.2-2.2,0.3-3h3.7c-0.1,1.8-0.2,5-0.2,9.4V1078.2z M1212,1053.2v14c0,5.1,1.8,7.6,5.5,7.6
					c6,0,6.9-5.1,6.9-10.1v-10.3c0-4.7-0.6-8.3-6.2-8.3C1213.6,1046.1,1212,1048.8,1212,1053.2z"/>
				<path class="st1" d="M1237.4,1043.4h4.3v34.6h-4.3V1043.4z M1237.4,1030.1h4.3v6.8h-4.3V1030.1z"/>
				<path class="st1" d="M1245.7,1043.4h5.4v-8.6h4.3v8.6h6.7v3h-6.7v25.2c0,1.9,0.5,3.9,3.4,3.9c0.9,0,2.3-0.1,3-0.2v2.7
					c-1.2,0.3-3,0.4-4.4,0.4c-3.4,0-6.3-1.4-6.3-6.2v-25.8h-5.4V1043.4z"/>
				<path class="st1" d="M1285.2,1072.9c0,2.5,0.1,4.4,0.2,5.2h-4.1c-0.2-1-0.4-2.4-0.4-3c-1.4,2.9-4.3,3.6-7.2,3.6
					c-6.2,0-8.7-4.2-8.7-9.6v-0.6c0-7.3,5.4-10.5,13.3-10.5c0.8,0,1.5,0,2.6,0v-6.2c0-3.4-0.9-5.7-4.9-5.7c-4,0-5.2,2.4-5.2,5.5v1.2
					h-4.3v-1.2c0-4.7,2.4-8.6,9.7-8.6c7.2,0,9.2,3.8,9.2,8.6V1072.9z M1280.9,1060.8c-0.6,0-1.9,0-2.7,0c-5.7,0-9,2-9,7.4v0.6
					c0,3.6,1.3,6.6,5.3,6.6c4.9,0,6.4-3.2,6.4-8.8V1060.8z"/>
				<path class="st1" d="M1294,1078.1v-48h4.3v48H1294z"/>
				<path class="st1" d="M1323.6,1061.8l-3.3,16.3h-4.4l9.8-46h6.2l10.2,46h-4.5l-3.5-16.3H1323.6z M1333.5,1058.7
					c-2.6-11.7-4.2-19.8-4.6-23.6h-0.2c-0.2,3.4-2.5,14.1-4.4,23.6H1333.5z"/>
				<path class="st1" d="M1367.5,1078.2c0,6.6-1,12.1-11.1,12.1c-8.3,0-10-4.6-10-8.3v-0.2h4.4v0.3c0,2.3,1.1,5.3,5.9,5.3
					c5.2,0,6.5-3,6.5-8.4v-4.9c-1.2,2.7-3.6,3.9-7.7,3.9c-5.8,0-9.1-3.1-9.1-10.4V1053c0-7.1,4.2-10.1,10-10.1
					c4.5,0,6.6,1.9,7.2,3.5c0-0.9,0.2-2.2,0.3-3h3.7c-0.1,1.8-0.2,5-0.2,9.4V1078.2z M1350.9,1053.2v14c0,5.1,1.8,7.6,5.5,7.6
					c6,0,6.9-5.1,6.9-10.1v-10.3c0-4.7-0.6-8.3-6.2-8.3C1352.5,1046.1,1350.9,1048.8,1350.9,1053.2z"/>
				<path class="st1" d="M1379.3,1061.2v6.1c0,4,0.9,8.4,6,8.4c4.7,0,5.7-2.8,5.7-6.7v-0.4h4.3v0.3c0,4.3-1.3,9.8-10.1,9.8
					c-7.8,0-10.2-4.2-10.2-11.3v-14c0-5.6,2.7-10.4,10.4-10.4c7.9,0,10,4.9,10,10.5c0,1.8,0,5.8,0,7.8H1379.3z M1391.2,1058.2v-4.9
					c0-3.2-0.5-7.5-5.8-7.5c-5.2,0-6.1,3.5-6.1,7.5v4.8H1391.2z"/>
			</g>
		</g>
	</g>
</g>
</svg>
