<?xml version="1.0" encoding="utf-8"?>
<!-- Generator: Adobe Illustrator 23.0.6, SVG Export Plug-In . SVG Version: 6.00 Build 0)  -->
<svg version="1.1" id="Layer_1" xmlns="http://www.w3.org/2000/svg" xmlns:xlink="http://www.w3.org/1999/xlink" x="0px" y="0px"
	 viewBox="0 0 1920 1920" style="enable-background:new 0 0 1920 1920;" xml:space="preserve">
<style type="text/css">
	.st0{fill:none;}
	.st1{clip-path:url(#SVGID_2_);fill:#060000;}
	.st2{clip-path:url(#SVGID_2_);fill:#231F20;}
	.st3{clip-path:url(#SVGID_4_);fill:#832115;}
	.st4{clip-path:url(#SVGID_4_);}
	.st5{fill:#2B0000;}
	.st6{fill:#5D0D02;}
	.st7{clip-path:url(#SVGID_4_);fill:#060000;}
	.st8{clip-path:url(#SVGID_4_);fill:#231F20;}
	.st9{clip-path:url(#SVGID_4_);fill:#5D0D02;}
	.st10{clip-path:url(#SVGID_4_);fill:#F2EE79;}
	.st11{fill:#9A2A23;}
	.st12{clip-path:url(#SVGID_4_);fill:none;}
	.st13{clip-path:url(#SVGID_4_);fill:#BA352F;}
	.st14{fill:#BA352F;}
	.st15{clip-path:url(#SVGID_6_);fill:#832115;}
	.st16{clip-path:url(#SVGID_6_);fill:#5D0D02;}
	.st17{clip-path:url(#SVGID_6_);fill:#BA352F;}
	.st18{fill:#FFFFFF;}
	.st19{display:none;}
	.st20{fill:#DF4337;}
	.st21{enable-background:new    ;}
	.st22{fill:#7B1E15;}
	.st23{fill:#BB372E;}
	.st24{fill:#9D2C23;}
	.st25{fill:#7A1E15;}
	.st26{fill:url(#SVGID_7_);}
</style>
<pattern  y="1920" width="1500" height="934" patternUnits="userSpaceOnUse" id="New_Pattern_2" viewBox="0.1 -1869 1500 934" style="overflow:visible;">
	<g>
		<rect x="0.1" y="-1869" class="st0" width="1500" height="934"/>
		<g>
			<defs>
				<rect id="SVGID_1_" x="0.1" y="-936" width="1500" height="936"/>
			</defs>
			<clipPath id="SVGID_2_">
				<use xlink:href="#SVGID_1_"  style="overflow:visible;"/>
			</clipPath>
			<path class="st1" d="M1398.5-932.9l-1.4-3.1L1398.5-932.9z"/>
			<path class="st2" d="M1078.3-932.9l-0.8-3.1L1078.3-932.9z"/>
		</g>
		<g>
			<defs>
				<rect id="SVGID_3_" x="0.1" y="-1870" width="1500" height="936"/>
			</defs>
			<clipPath id="SVGID_4_">
				<use xlink:href="#SVGID_3_"  style="overflow:visible;"/>
			</clipPath>
			<rect x="0.1" y="-1866.9" class="st3" width="1500" height="932.9"/>
			<g class="st4">
				<path class="st5" d="M530.6-1213c-0.8,3.7-3.5,6.8-7,8.2c-4.4,1.7-8.3,4.6-11.4,8.2l25.4,0.1c4.6,0,8.9,2.1,11.8,5.6
					c2.9,3.5,4.1,8.2,3.2,12.7l-1.9,10c-0.9,4.5-3.7,8.4-7.7,10.6c-4,2.2-8.8,2.5-13.1,0.8l-23.6-9.4c1.6,4.5,4.2,8.6,7.5,11.8
					c2.8,2.6,4,6.4,3.4,10.2s-3,7-6.4,8.6c-6.7,3.2-14,4.1-21.3,2.7c-11.6-2.3-22.3-9.9-29.3-21.1c-7.1-11.4-9.7-25-7.1-38.2
					s10-24.9,20.9-32.8c10.6-7.7,23.4-10.9,35-8.6l0,0c7.3,1.4,13.7,5,18.7,10.4c0.4,0.4,0.8,0.9,1.1,1.4
					C530.6-1219.4,531.3-1216.2,530.6-1213z M460.3-1191c-4.5,23,9.9,46.7,30.6,50.8c5.7,1.1,11.5,0.4,16.8-2.1
					c1.3-0.6,2.1-1.8,2.4-3.2c0.2-1.4-0.2-2.8-1.3-3.8c-6.2-5.9-10.1-13.9-11.2-22.6c-0.2-1.3,0.4-2.5,1.4-3.3s2.4-1,3.6-0.5
					l30.1,12c2.2,0.9,4.7,0.7,6.9-0.4c2.1-1.2,3.6-3.2,4.1-5.5l1.9-10c0.5-2.4-0.2-4.8-1.7-6.7c-1.5-1.9-3.8-2.9-6.2-2.9l-32.4-0.1
					c-1.3,0-2.5-0.7-3.1-1.8c-0.7-1.1-0.7-2.5-0.1-3.6c4.2-7.7,10.9-13.6,18.8-16.8c1.3-0.5,2.3-1.6,2.6-3c0.3-1.4-0.1-2.8-1-3.8
					c-3.9-4.3-9-7.1-14.8-8.2C486.9-1230.7,464.8-1214,460.3-1191z"/>
				<path class="st5" d="M647.2-1134.5c-1.9,12.3-8.4,23-17.7,29.3l0,0c-5.8,3.9-12.6,5.9-19.6,5.6c-3.7-0.1-7-2.1-8.9-5.2
					c-2-3.1-2.3-7-0.8-10.3c1.7-3.9,2.4-8.2,2.2-12.5l-17,16.6c-3.1,3.1-7.4,4.6-11.8,4.2c-4.4-0.4-8.3-2.8-10.8-6.4l-5.4-8
					c-2.5-3.6-3.2-8.2-1.9-12.4c1.2-4.2,4.3-7.6,8.3-9.4l21.7-9.3c-3.9-1.8-8.2-2.8-12.4-2.7c-3.7,0.1-7.1-1.6-9.3-4.6
					s-2.7-6.8-1.5-10.2c2.4-6.6,6.7-12.2,12.5-16.1c9.3-6.3,21.7-8.3,33.9-5.5c12.5,2.9,23.3,10.3,30.5,20.9
					C646.3-1159.9,649.1-1147.1,647.2-1134.5z M569.7-1163.8c0.8,1,1.9,1.6,3.2,1.6c8.1-0.2,16.2,2.5,22.7,7.7
					c1,0.8,1.5,2.1,1.4,3.3c-0.2,1.3-1,2.4-2.2,2.9l-28.1,12.1c-2,0.9-3.6,2.6-4.2,4.7c-0.6,2.1-0.3,4.4,1,6.3l5.4,8
					c1.2,1.8,3.2,3,5.4,3.2s4.4-0.6,6-2.1l21.7-21.6c0.9-0.9,2.2-1.3,3.5-0.9c1.2,0.3,2.2,1.3,2.6,2.5c2.3,8,1.8,16.5-1.4,24
					c-0.5,1.2-0.4,2.5,0.3,3.6s1.8,1.7,3.1,1.8c5.5,0.2,10.7-1.3,15.3-4.3c16.5-11.2,20.1-37,7.8-55.3
					c-12.3-18.3-37.7-24.6-54.2-13.4c-4.5,3.1-7.9,7.4-9.7,12.5C568.9-1166,569-1164.8,569.7-1163.8
					C569.6-1163.9,569.6-1163.9,569.7-1163.8z"/>
				<path class="st5" d="M496.6-1150.3c-0.4,2-2.3,3.3-4.3,2.9c-11.3-2.2-21.4-12.9-24.5-26.1c-0.5-2,0.7-3.9,2.7-4.4
					s3.9,0.7,4.4,2.7c2.5,10.5,10.2,19,18.8,20.6c1,0.2,1.8,0.8,2.3,1.5C496.6-1152.2,496.8-1151.3,496.6-1150.3z"/>
				<path class="st5" d="M474.6-1188.2c-0.2,0.9-0.7,1.8-1.5,2.3s-1.8,0.7-2.7,0.6c-0.9-0.2-1.8-0.7-2.3-1.5s-0.7-1.8-0.6-2.7
					c0.2-0.9,0.7-1.8,1.5-2.3s1.8-0.7,2.7-0.6c0.9,0.2,1.8,0.7,2.3,1.5C474.6-1190.2,474.8-1189.2,474.6-1188.2z"/>
			</g>
			<g class="st4">
				<path class="st6" d="M1250.9-1301.3c-0.3-1.9-0.6-3.7-1-5.5c0-0.1,0-0.2,0-0.2l-0.3-1.5l0,0c-3.1-13.3-8.2-24.1-8.6-25
					c-48.6-113.8-142.8-121.2-193.4-125.1c-8.1-0.6-15.2-1.2-20.9-2c-0.4-0.1-0.7-0.1-1-0.1c-2.7,0-5,1.6-5.9,4.3
					c-1.3,3.9,0.7,8.8,4.5,10.9c67.5,37.4,124.6,73.9,140.2,142.7c0.6,2.6,1.8,8.2,1.8,8.2l1.1,4.8c1.3,6.3,3.3,11.8,5.8,16.5
					c0,0.1,0.1,0.2,0.1,0.3c0.7,1.3,1.4,2.4,2.2,3.6c0.2,0.3,0.3,0.5,0.5,0.8c0.7,1,1.5,2,2.3,3c0.3,0.3,0.5,0.6,0.8,0.9
					c0.8,0.9,1.6,1.7,2.5,2.5c0.3,0.3,0.6,0.6,1,0.9c0.9,0.7,1.7,1.4,2.7,2c0.4,0.3,0.7,0.5,1.1,0.7c0.6,0.4,1.2,0.8,1.9,1.2
					c0.4,0.2,0.9,0.4,1.3,0.6l0,0c0,0,0,0,0.1,0c10.2,5,21.3,4.2,29.5,2.5c4.4,4.8,6.8,10.1,6,13.6c-0.5,2.3-2.7,4.2-6.3,5.5
					c-2.4,0.9-3.6,3.5-2.7,5.9s3.5,3.6,5.9,2.7c8.4-3.1,11.2-8.3,12.1-12.1c1.3-5.6-0.7-12.3-5.4-18.6c0.9-0.3,1.5-0.6,1.9-0.8
					c1.7-0.5,3.6-1.2,5.4-2.1c0.3-0.2,0.7-0.3,1-0.5c1.3-0.7,2.6-1.5,3.8-2.5c0.6-0.5,1.2-0.9,1.7-1.5c0.8-0.8,1.7-1.6,2.4-2.5
					c0.5-0.6,1-1.3,1.5-1.9c0.7-1,1.3-2,1.9-3.1c0.2-0.4,0.4-0.6,0.6-1c0.4-0.9,0.7-1.8,1-2.7c0.1-0.3,0.2-0.6,0.3-0.9
					c0.2-0.8,0.4-1.6,0.6-2.5c0.2-0.6,0.3-1.3,0.4-1.9c0.1-0.7,0.2-1.5,0.3-2.2c0.1-0.8,0.2-1.7,0.3-2.5c0.1-0.7,0.1-1.3,0.1-2
					c0-1,0.1-2,0-3c0-0.7,0-1.3-0.1-2c-0.1-1-0.1-2-0.2-3.1c-0.1-0.8-0.2-1.7-0.3-2.5C1251.1-1299.5,1251-1300.4,1250.9-1301.3z
					 M1241.1-1303.6c0.5,2.6,0.9,5,1.2,7.3c0,0.1,0,0.2,0,0.2c0.2,2.1,0.3,4,0.3,5.9c0,0.3,0,0.5,0,0.8c0,1.9-0.2,3.6-0.4,5.3
					c-0.1,0.3-0.1,0.6-0.2,1c-0.2,1.3-0.6,2.6-1,3.8c-0.1,0.3-0.2,0.6-0.3,1c-0.5,1.2-1,2.3-1.7,3.3c-0.1,0.2-0.2,0.4-0.4,0.6
					c-0.8,1.1-1.7,2.2-2.7,3.1c-0.1,0.1-0.1,0.1-0.2,0.2c-1,0.9-2.2,1.7-3.5,2.4c-0.1,0-0.2,0.1-0.3,0.2c-1.4,0.7-2.9,1.3-4.5,1.7
					l-0.8,0.3c0,0-0.2,0.1-0.4,0.2h-0.1c-0.2,0.1-0.6,0.2-1,0.4c-0.1,0-0.2,0.1-0.3,0.1c-0.5,0.2-1,0.4-1.6,0.6
					c-0.2,0.1-0.5,0.2-0.7,0.2c-0.4,0.1-0.9,0.3-1.4,0.4c-0.3,0.1-0.7,0.2-1.1,0.3c-0.5,0.1-1.1,0.3-1.6,0.4c-0.6,0.2-1.3,0.3-2,0.5
					c-0.5,0.1-1,0.2-1.6,0.3c-0.5,0.1-1.1,0.2-1.6,0.3c-0.5,0.1-1,0.1-1.5,0.2c-0.9,0.1-1.8,0.2-2.8,0.2c-0.6,0-1.2,0.1-1.8,0.1
					c-0.7,0-1.4,0-2.2,0c-0.3,0-0.6,0-0.9,0c-0.7,0-1.5-0.1-2.3-0.2c-0.3,0-0.5-0.1-0.8-0.1c-2.6-0.4-5.1-1.1-7.6-2.3
					c-0.2-0.1-0.4-0.2-0.5-0.2c-0.7-0.4-1.4-0.7-2.1-1.2c-0.2-0.1-0.5-0.3-0.7-0.4c-2.2-1.5-4.2-3.3-5.9-5.5
					c-0.1-0.1-0.2-0.2-0.2-0.3c-0.6-0.7-1.1-1.5-1.7-2.3c-0.1-0.1-0.1-0.2-0.2-0.3c-1.6-2.5-2.9-5.4-4.1-8.6
					c-0.1-0.2-0.1-0.3-0.2-0.5c11.8,1.5,17.6,4,19.1,6.1l3.2,4.5l3.9-3.9c0.4-0.4,8-8.2,7.3-20c4.1,1.7,8.6,5.1,7.9,11.6l-1.2,11.6
					l8.8-7.6c0.5-0.4,10.4-9.1,11.3-23.5C1239.3-1305,1240.2-1304.3,1241.1-1303.6z M1232.4-1329.7c0.1,0.2,2.7,5.7,5.2,13.3
					c-1.7-0.7-2.8-1.1-2.9-1.1l-7.3-2.2l1.4,7.5c1.2,6.5-0.2,11.9-2.2,15.8c-4.4-7.9-14.3-11.3-20.4-12l-7.4-0.8l2.5,7
					c2.3,6.3,0.7,11.5-1.1,14.7c-3.9-2.3-11-4.9-24.5-6.2c-0.2-1.2-0.5-2.4-0.6-3.6l-0.1-0.7c-0.6-2.1-1.2-4.3-1.8-6.8
					c-16-70.5-72.1-108.1-139-145.5c3.8,0.4,7.9,0.7,12.4,1C1098.8-1445.4,1186-1438.6,1232.4-1329.7z"/>
				<path class="st6" d="M1209.5-1329.6c-0.4-3-12-74.7-117.3-108.7c-0.5-0.1-0.9-0.2-1.4-0.2c-2,0-3.8,1.2-4.4,3.2
					c-0.8,2.4,0.6,5,3,5.8c99.9,32.2,110.9,100.5,111,101.2c0.4,2.5,2.7,4.3,5.2,3.9C1208.2-1324.7,1209.9-1327.1,1209.5-1329.6z"/>
			</g>
			<path class="st7" d="M1398.5-1866.9l-1.4-3.1L1398.5-1866.9z"/>
			<path class="st8" d="M1078.3-1866.9l-0.8-3.1L1078.3-1866.9z"/>
			<path class="st8" d="M1064.6-1866.9L1064.6-1866.9L1064.6-1866.9L1064.6-1866.9z"/>
			<path class="st9" d="M1384-934l-43.4-95.5c-8.8-25.1-27-48.5-54.1-48.4c-5.6,0-11.6,1-17.9,3.2c-1.3,0.5-2.6,1-3.9,1.5
				c-0.6,0.3-1.3,0.6-1.9,0.8c-7,3.2-13.3,7.6-18.7,13c-1,1-1.9,2-2.9,3c12.2,5.4,23,13.8,31.2,24.6c1.6,2.2,3.2,4.4,4.6,6.8
				c1.4,2.3,2.8,4.8,4,7.3s2.3,5.1,3.2,7.9l26.5,75.8h-14.1l-6.7-19.2l-18.2-52.2c-0.8-2.4-1.8-4.7-2.9-6.9
				c-0.1-0.2-0.2-0.5-0.4-0.7c-0.1-0.1-0.1-0.2-0.2-0.3c-0.6-1.2-1.3-2.4-2-3.6c-0.4-0.7-0.8-1.4-1.3-2.1c-0.1-0.2-0.2-0.3-0.3-0.5
				c-3.7-5.6-8.2-10.6-13.4-14.9c-0.7-0.6-1.5-1.2-2.3-1.8c-6.1-4.6-13.1-8.2-20.6-10.6l-3.4-1c-4.6-1.1-9.2-1.8-14-2
				c-0.8,0-1.6,0-2.4,0c-7.2,0-14.4,1.2-21.5,3.7c-1.6,0.6-3.1,1.2-4.6,1.8c-1.5,0.7-3,1.4-4.4,2.1c-3.6,1.9-7,4.1-10.1,6.6
				c-1.9,1.5-3.7,3.1-5.3,4.7c-2.2,2.2-4.3,4.6-6.2,7l-2,2.9c-0.6,0.8-1.1,1.6-1.6,2.5c-2.1,3.3-3.8,6.8-5.3,10.4
				c-1.1,2.7-2,5.4-2.7,8.2c-1.9,7.4-2.5,15.2-1.8,22.8c0,0.1,0,0.2,0,0.3s0,0.2,0,0.3c0.1,0.5,0.1,1.1,0.2,1.6
				c0.1,0.8,0.2,1.6,0.4,2.5c0.1,0.8,0.3,1.6,0.4,2.5c0.1,0.3,0.1,0.5,0.1,0.8c0,0.1,0,0.3,0.1,0.4c0.1,0.6,0.3,1.2,0.5,1.8
				c0.5,1.8,1,3.6,1.6,5.4l9.7,27.7h-14.1l-8.1-23.3c-4.7-13.5-5.5-27.4-3.1-40.6c0.1-0.7,0.3-1.3,0.4-2c0.3-1.3,0.6-2.6,0.9-3.9
				c0.2-0.6,0.4-1.3,0.5-1.9c1.5-5.1,3.5-10.1,6-14.8c-3.5-0.6-6.9-0.9-10.4-1c-2.8,0-5.5,0.1-8.3,0.4c-0.7,0.1-1.4,0.2-2.1,0.3
				c-4.1,0.6-8.2,1.6-12.2,3c-18.5,6.4-28.2,18.9-31.9,33.6c-0.5,1.8-0.8,3.7-1.1,5.6c-0.7,4.8-0.9,9.7-0.6,14.7c0.1,2,0.3,4,0.6,6
				c0.4,3,0.9,6,1.6,9s1.5,6,2.4,8.9c0.3,1,0.6,1.9,1,2.9l0.8,3.1h-13.7l0,0c-6.8-19.8-7.9-38.2-3.8-53.7l0,0
				c0.3-1.1,0.6-2.2,0.9-3.2v-0.1c0.3-1,0.7-2.1,1.1-3.1c0-0.1,0-0.1,0.1-0.2c0.4-1,0.8-2,1.2-2.9c0-0.1,0.1-0.2,0.1-0.2
				c0.4-0.9,0.9-1.9,1.3-2.8c0.1-0.1,0.1-0.2,0.2-0.3c0.5-0.9,0.9-1.7,1.4-2.6c0.1-0.1,0.2-0.3,0.2-0.4c0.5-0.8,1-1.6,1.5-2.4
				c0.1-0.2,0.2-0.3,0.3-0.4c0.5-0.8,1-1.5,1.6-2.2c0.1-0.2,0.3-0.3,0.4-0.5c0.5-0.7,1.1-1.4,1.6-2.1c0.2-0.2,0.3-0.4,0.5-0.6
				c0.5-0.6,1.1-1.3,1.7-1.9c0.2-0.2,0.4-0.4,0.6-0.6c0.6-0.6,1.1-1.2,1.7-1.7c0.2-0.2,0.5-0.5,0.8-0.7c0.6-0.5,1.1-1,1.7-1.5
				c0.3-0.2,0.6-0.5,0.9-0.7c0.6-0.5,1.1-0.9,1.7-1.4c0.3-0.3,0.7-0.5,1-0.8c0.6-0.4,1.1-0.8,1.7-1.2c0.4-0.3,0.8-0.5,1.2-0.8
				c0.6-0.4,1.1-0.7,1.7-1.1c0.5-0.3,0.9-0.5,1.4-0.8c0.6-0.3,1.1-0.6,1.7-0.9c0.5-0.3,1.1-0.5,1.6-0.8c0.5-0.3,1.1-0.5,1.6-0.8
				c0.6-0.3,1.3-0.6,1.9-0.8c0.5-0.2,0.9-0.4,1.4-0.6c1-0.4,2-0.8,3-1.1c0.2-0.1,0.3-0.1,0.5-0.2c8.2-2.8,16.6-4.3,25.1-4.4
				c3.8,0,7.6,0.2,11.3,0.7c2.8,0.4,5.7,0.9,8.5,1.6l0,0l0,0c1.1-1.5,2.3-2.9,3.6-4.3c3.1-3.5,6.5-6.7,10.2-9.6
				c6.7-5.3,14.3-9.5,22.8-12.5c6.6-2.3,13.3-3.7,19.9-4.2c0.9-0.1,1.9-0.1,2.8-0.2c0.9,0,1.9-0.1,2.8-0.1c6.6,0,13.1,0.8,19.5,2.3
				l0,0l0,0c8.8-11.4,20.4-20.1,33.7-25.3c0.9-0.3,1.8-0.7,2.7-1c7.1-2.5,14.2-3.8,21-3.9c13.6-0.3,26.4,3.9,37.4,12.2
				c1.8,1.4,3.6,2.9,5.4,4.5c5.2,4.8,10,10.6,14.2,17.3s7.8,14.3,10.8,22.8l44.2,97.4l1.4,3.1H1384V-934z"/>
			<path class="st7" d="M1294.7-1685c0.8-0.3,1.6-0.5,2.3-0.8c0.8-0.3,1.5-0.5,2.3-0.8c1.5-0.5,3-1,4.4-1.5c2.6,2.8,5.4,5.3,8.4,7.5
				c1.8,1.3,3.6,2.5,5.6,3.6c1.9,1.1,3.9,2,5.9,2.9c1.4,0.6,2.7,1.1,4.1,1.6s2.9,0.9,4.3,1.3c2.9,0.8,6,1.3,9.2,1.7
				c0.8,0.1,1.6,0.2,2.4,0.2c2.4,0.2,4.9,0.3,7.4,0.3c0.8,0,1.7,0,2.6-0.1c0.3,0.9,0.7,1.9,1,2.9c0.7,1.9,1.4,3.8,2,5.8
				c-1,0.1-2.1,0.1-3.1,0.2c-1,0-2,0.1-3,0.1s-2,0-3,0c-8.9-0.2-17.1-1.7-24.6-4.5c-3.3-1.2-6.5-2.7-9.6-4.4c-1.8-1-3.5-2.1-5.1-3.2
				C1303.2-1675.9,1298.7-1680.1,1294.7-1685z"/>
			<path class="st7" d="M1332-1671.1c-1.5-0.4-2.9-0.8-4.3-1.3C1329.1-1671.9,1330.5-1671.5,1332-1671.1z"/>
			<path class="st7" d="M1294.7-1685c4,4.9,8.5,9.1,13.5,12.5C1303.2-1675.9,1298.7-1680.1,1294.7-1685c0.8-0.3,1.6-0.5,2.3-0.8
				C1296.2-1685.5,1295.5-1685.2,1294.7-1685z"/>
			<path class="st10" d="M1351-1669c0.8,0,1.7,0,2.6-0.1l0,0C1352.7-1669,1351.9-1669,1351-1669z"/>
			<path class="st10" d="M1350.5-1660.2c1,0,2,0,3-0.1C1352.5-1660.2,1351.5-1660.2,1350.5-1660.2z"/>
			<path class="st7" d="M1341.2-1669.5c-3.2-0.4-6.2-0.9-9.2-1.7C1335-1670.4,1338-1669.8,1341.2-1669.5z"/>
			<path class="st7" d="M1303.7-1688L1303.7-1688c2.6,2.8,5.4,5.3,8.4,7.5C1309.1-1682.7,1306.3-1685.2,1303.7-1688z"/>
			<path class="st10" d="M1356.6-1660.4c-0.6-1.9-1.3-3.8-2-5.8C1355.3-1664.3,1355.9-1662.4,1356.6-1660.4z"/>
			<path class="st7" d="M1327.7-1672.4c-1.4-0.5-2.8-1-4.1-1.6C1324.9-1673.4,1326.3-1672.9,1327.7-1672.4z"/>
			<path class="st7" d="M1321.8-1793.2c0.1,0.4,0.1,0.8,0.2,1.1c0.2,1.1,0.4,2.2,0.6,3.3c-0.2-1.1-0.4-2.2-0.6-3.3
				C1322-1792.5,1321.9-1792.9,1321.8-1793.2z"/>
			<path class="st7" d="M1321.8-1793.2c-0.4-1.8-0.9-3.6-1.5-5.4C1320.9-1796.9,1321.4-1795.1,1321.8-1793.2z"/>
			<path class="st7" d="M1320.5-1759.5c-2,6.4-4.9,12.6-8.8,18.3l-1.5,2.2l1.5-2.2C1315.6-1746.8,1318.5-1753,1320.5-1759.5z"/>
			<path class="st7" d="M1257.4-1712.2c-5.6,0-11.1-0.7-16.4-2l-1.7-0.5l1.7,0.5C1246.4-1712.9,1251.9-1712.2,1257.4-1712.2z"/>
			<polygon class="st7" points="1194.4,-1756.7 1156,-1866.9 1156,-1866.9 			"/>
			<path class="st7" d="M1194.4-1756.7c0.8,2.4,1.8,4.7,2.9,6.9C1196.2-1752.1,1195.3-1754.4,1194.4-1756.7z"/>
			<polygon class="st7" points="1296.6,-1866.9 1296.6,-1866.9 1302.9,-1849 			"/>
			<path class="st7" d="M1208.5-1733.5c-2.6-2.8-5-5.8-7.1-9c-0.1-0.1-0.1-0.2-0.2-0.3c0.1,0.1,0.1,0.2,0.2,0.3
				C1203.5-1739.4,1205.9-1736.3,1208.5-1733.5z"/>
			<path class="st7" d="M1199.4-1745.9c-0.5-1-1.1-1.9-1.6-2.9c-0.2-0.3-0.4-0.7-0.5-1c0.2,0.3,0.4,0.7,0.5,1
				C1198.4-1747.8,1198.9-1746.8,1199.4-1745.9z"/>
			<path class="st7" d="M1332.3-1804.8c2.8,8.1,4.3,16.4,4.4,24.5C1336.6-1788.5,1335.2-1796.7,1332.3-1804.8l-21.7-62.1l0,0
				L1332.3-1804.8z"/>
			<path class="st7" d="M1364.8-1731.8c-1.8,0.6-3.6,1.2-5.5,1.7C1361.2-1730.6,1363-1731.2,1364.8-1731.8
				c41.5-14.5,63.4-60,49-101.4l-15.3-33.6l0,0l15.3,33.6C1428.3-1791.8,1406.3-1746.3,1364.8-1731.8z"/>
			<path class="st7" d="M1306.1-1715.9c-6.7,5.3-14.3,9.5-22.8,12.5c-5.6,2-11.4,3.3-17.1,3.9c5.7-0.7,11.4-1.9,17.1-3.9
				C1291.8-1706.3,1299.5-1710.6,1306.1-1715.9z"/>
			<path class="st7" d="M1336.9-1727.5c0.9,0,1.9,0,2.8,0C1338.8-1727.4,1337.9-1727.5,1336.9-1727.5z"/>
			<path class="st7" d="M1212.3-1679.5c-3.4,1.8-6.9,3.3-10.5,4.5c-9.1,3.2-18.3,4.6-27.4,4.4c9.1,0.2,18.4-1.3,27.4-4.4
				C1205.5-1676.2,1209-1677.7,1212.3-1679.5z"/>
			<path class="st7" d="M1320-1729.8c-1.1,1.5-2.3,2.9-3.6,4.3C1317.6-1726.9,1318.8-1728.3,1320-1729.8L1320-1729.8z"/>
			<path class="st7" d="M1238.3-1701.3L1238.3-1701.3c-5.9,7.6-13,14-21,19C1225.3-1687.3,1232.4-1693.7,1238.3-1701.3z"/>
			<path class="st7" d="M1331.2-1727.8c1.9,0.2,3.8,0.3,5.7,0.4C1335-1727.5,1333.1-1727.6,1331.2-1727.8z"/>
			<path class="st7" d="M1249.3-1699.4c1.9,0.2,3.7,0.3,5.6,0.4C1253-1699.1,1251.2-1699.2,1249.3-1699.4z"/>
			<path class="st7" d="M1312.5-1721.4c1.3-1.3,2.6-2.7,3.9-4C1315.1-1724.1,1313.8-1722.7,1312.5-1721.4z"/>
			<path class="st7" d="M1363.4-1680.7l0.9,2.4c0.3,0.9,0.7,1.8,1,2.7c-0.3-0.9-0.7-1.8-1-2.7L1363.4-1680.7z"/>
			<polygon class="st7" points="1308.1,-1703.6 1308.1,-1703.6 1303.7,-1702.1 			"/>
			<polygon class="st7" points="1362.5,-1683.1 1362.5,-1683.1 1360.8,-1682.9 			"/>
			<path class="st10" d="M1345.7-1647c1.3,0.1,2.6,0.1,4,0.1C1348.3-1646.9,1347-1647,1345.7-1647z"/>
			<path class="st7" d="M1345.7-1682.4c1.5,0.1,3,0.1,4.6,0.1C1348.7-1682.2,1347.2-1682.3,1345.7-1682.4z"/>
			<path class="st7" d="M1224.9-1705.9c-2.4-1.1-4.8-2.3-7.1-3.6C1220.1-1708.2,1222.5-1707,1224.9-1705.9c-1.2,1.3-2.4,2.6-3.6,3.8
				C1222.5-1703.3,1223.7-1704.6,1224.9-1705.9z"/>
			<path class="st7" d="M1193.7-1730.4c-4.9-6.5-9-13.8-11.8-21.9l-40-114.6l0,0l40,114.6
				C1184.7-1744.3,1188.7-1736.9,1193.7-1730.4z"/>
			<path class="st7" d="M1168.2-1684.2c2.1,0.2,4.3,0.4,6.5,0.4C1172.5-1683.8,1170.3-1684,1168.2-1684.2z"/>
			<path class="st7" d="M1338-1740.7c-3.5-0.1-6.9-0.4-10.4-1c5.9-11.2,9.1-23.7,9.2-36.6c-0.1,12.9-3.3,25.4-9.2,36.6
				C1331-1741.1,1334.5-1740.8,1338-1740.7z"/>
			<path class="st7" d="M1323.1-1785c0-0.2,0-0.4,0-0.5c-0.1-1.1-0.3-2.2-0.4-3.3c0.2,1.1,0.3,2.2,0.4,3.3
				C1323.1-1785.4,1323.1-1785.2,1323.1-1785c0.4,4.8,0.4,9.6-0.2,14.3C1323.5-1775.4,1323.6-1780.2,1323.1-1785z"/>
			<path class="st7" d="M1309.7-1738.2l0.5-0.7L1309.7-1738.2c-7.6,9.9-18.1,17.9-30.7,22.3c-7.1,2.5-14.4,3.7-21.5,3.7
				c7.1,0,14.4-1.2,21.5-3.7C1291.6-1720.4,1302.1-1728.3,1309.7-1738.2z"/>
			<path class="st7" d="M1302.9-1849l16.9,48.6c0.2,0.6,0.4,1.2,0.6,1.8c-0.2-0.6-0.4-1.2-0.6-1.8L1302.9-1849z"/>
			<path class="st7" d="M1130.9-1701.1c-1.6-1.4-3.1-3-4.6-4.6C1127.8-1704.1,1129.3-1702.5,1130.9-1701.1z"/>
			<path class="st7" d="M1199.5-1688.2c-0.7,0.3-1.3,0.5-2,0.7c-3.2,1.1-6.5,2-9.8,2.6c3.3-0.6,6.5-1.5,9.8-2.6
				C1198.2-1687.7,1198.8-1688,1199.5-1688.2z"/>
			<path class="st8" d="M1112.9-1728.3c0.8,2.2,1.6,4.3,2.6,6.3C1114.5-1724.1,1113.7-1726.2,1112.9-1728.3l-34.6-138.6l0,0
				L1112.9-1728.3z"/>
			<path class="st7" d="M1239.4-1714.8l-1.7-0.5c-10.3-3.2-19.6-8.8-27.1-16.2c7.5,7.4,16.8,13,27.1,16.2L1239.4-1714.8z"/>
			<path class="st7" d="M1360.5-1744.4c-7.3,2.5-14.9,3.8-22.5,3.6C1345.6-1740.6,1353.2-1741.8,1360.5-1744.4
				c34.6-12.1,52.9-50,41-84L1384-1867l0,0l17.5,38.6C1413.3-1794.3,1395-1756.4,1360.5-1744.4z"/>
			<path class="st7" d="M1064.8-1866.2l35.4,141.7c11.4,32.8,41.7,53.4,74.2,54c-32.5-0.5-62.8-21.1-74.2-54L1064.8-1866.2
				c-0.1-0.2-0.2-0.5-0.2-0.7l0,0C1064.7-1866.7,1064.7-1866.4,1064.8-1866.2z"/>
			<path class="st7" d="M1201.2-1742.9c0-0.1-0.1-0.1-0.1-0.2c-0.6-0.9-1.2-1.9-1.7-2.8c0.5,1,1.1,1.9,1.7,2.8
				C1201.2-1743,1201.2-1742.9,1201.2-1742.9z"/>
			<path class="st7" d="M1328.4-1728.2c-2.8-0.4-5.7-0.9-8.5-1.6l0,0C1322.8-1729.1,1325.6-1728.6,1328.4-1728.2z"/>
			<path class="st7" d="M1243.7-1700.1c1.8,0.3,3.7,0.6,5.6,0.8C1247.4-1699.6,1245.6-1699.8,1243.7-1700.1z"/>
			<path class="st7" d="M1351-1728.4c1.9-0.3,3.7-0.6,5.6-1.1C1354.7-1729,1352.9-1728.7,1351-1728.4z"/>
			<path class="st7" d="M1217.4-1698.6c1.3-1.1,2.6-2.3,3.9-3.5C1220-1700.9,1218.7-1699.7,1217.4-1698.6z"/>
			<path class="st7" d="M1243.7-1700.1c-1.8-0.3-3.7-0.7-5.5-1.1l0,0C1240.1-1700.8,1241.9-1700.5,1243.7-1700.1z"/>
			<path class="st7" d="M1339.7-1727.5c3.8,0,7.5-0.3,11.3-0.9C1347.3-1727.8,1343.5-1727.5,1339.7-1727.5z"/>
			<path class="st7" d="M1174.6-1683.8c1.1,0,2.2,0,3.3,0C1176.8-1683.8,1175.7-1683.8,1174.6-1683.8z"/>
			<path class="st7" d="M1207-1691.7c1.2-0.7,2.4-1.4,3.6-2.1C1209.5-1693.1,1208.3-1692.4,1207-1691.7z"/>
			<path class="st7" d="M1122.3-1710.7c1.3,1.7,2.7,3.4,4.1,5C1124.9-1707.3,1123.6-1708.9,1122.3-1710.7z"/>
			<path class="st8" d="M1117-1719c1,2,2.2,3.9,3.4,5.7C1119.2-1715.2,1118-1717.1,1117-1719z"/>
			<path class="st9" d="M1364.8-1731.8c-1.8,0.6-3.6,1.2-5.5,1.7c-0.9,0.2-1.8,0.5-2.8,0.7c-1.8,0.4-3.7,0.8-5.6,1.1
				c-3.7,0.6-7.5,0.9-11.3,0.9c-0.9,0-1.9,0-2.8,0c-1.9-0.1-3.8-0.2-5.7-0.4c-0.9-0.1-1.9-0.2-2.8-0.3c-2.8-0.4-5.7-0.9-8.5-1.6l0,0
				l0,0c-1.1,1.5-2.3,2.9-3.6,4.3c-1.2,1.4-2.5,2.7-3.9,4c-2,2-4.1,3.8-6.4,5.6c-6.7,5.3-14.3,9.5-22.8,12.5
				c-5.6,2-11.4,3.3-17.1,3.9c-3.8,0.4-7.6,0.6-11.4,0.5c-1.9-0.1-3.8-0.2-5.6-0.4c-1.9-0.2-3.7-0.4-5.6-0.8
				c-1.8-0.3-3.7-0.7-5.5-1.1l0,0l0,0c-5.9,7.6-13,14-21,19c-1.6,1-3.2,1.9-4.9,2.8c-3.4,1.8-6.9,3.3-10.5,4.5
				c-9.1,3.2-18.3,4.6-27.4,4.4c-32.5-0.5-62.8-21.1-74.2-54l-35.1-141.7c-0.1-0.2-0.2-0.5-0.2-0.7h13.7l34.6,138.6
				c0.8,2.2,1.6,4.3,2.6,6.3c0.5,1,1,2,1.5,3c1,2,2.2,3.9,3.4,5.7c0.6,0.9,1.2,1.8,1.9,2.7c1.3,1.7,2.7,3.4,4.1,5s3,3.1,4.6,4.6
				c10.3,9.4,23.4,15.3,37.2,16.9c2.1,0.2,4.3,0.4,6.5,0.4c1.1,0,2.2,0,3.3,0c3.3-0.1,6.5-0.5,9.8-1.1c3.3-0.6,6.5-1.5,9.8-2.6
				c0.7-0.2,1.3-0.5,2-0.7c2.6-1,5.1-2.2,7.6-3.5c1.2-0.7,2.4-1.4,3.6-2.1c2.3-1.5,4.6-3.1,6.7-4.8c1.3-1.1,2.6-2.3,3.9-3.5
				s2.5-2.5,3.6-3.8c-2.4-1.1-4.8-2.3-7.1-3.6c-9.3-5.2-17.5-12.3-24.1-21c-4.9-6.5-9-13.8-11.8-21.9l-40-114.6h14.1l38.4,110.2
				c0.8,2.4,1.8,4.7,2.9,6.9c0.2,0.3,0.4,0.7,0.5,1c0.5,1,1,2,1.6,2.9s1.1,1.9,1.7,2.8c0,0.1,0.1,0.1,0.1,0.2
				c0.1,0.1,0.1,0.2,0.2,0.3c2.1,3.2,4.5,6.2,7.1,9c0.7,0.7,1.3,1.4,2,2.1c7.5,7.4,16.8,13,27.1,16.2l1.7,0.5l1.7,0.5
				c5.3,1.3,10.8,2,16.4,2c7.1,0,14.4-1.2,21.5-3.7c12.7-4.4,23.1-12.3,30.7-22.3l0.5-0.7l1.5-2.2c3.9-5.7,6.8-11.9,8.8-18.3
				c1.1-3.7,1.9-7.4,2.4-11.2c0.6-4.7,0.7-9.6,0.2-14.3c0-0.2,0-0.4,0-0.5c-0.1-1.1-0.3-2.2-0.4-3.3c-0.2-1.1-0.4-2.2-0.6-3.3
				c-0.1-0.4-0.1-0.8-0.2-1.1c-0.4-1.8-0.9-3.6-1.5-5.4c-0.2-0.6-0.4-1.2-0.6-1.8l-16.9-48.6l-6.2-17.9h14.1l21.7,62.1
				c2.8,8.1,4.3,16.4,4.4,24.5c0,0.7,0,1.4,0,2c-0.1,12.9-3.3,25.4-9.2,36.6c3.5,0.6,6.9,0.9,10.4,1c7.6,0.1,15.2-1.1,22.5-3.6
				c34.6-12.1,52.9-50,41-84l-17.5-38.6h14.6l15.3,33.6C1428.3-1791.8,1406.3-1746.3,1364.8-1731.8z"/>
			<path class="st10" d="M1353.6-1669c0.3,0.9,0.7,1.9,1,2.9C1354.2-1667.1,1353.9-1668.1,1353.6-1669L1353.6-1669z"/>
			<path class="st7" d="M1312.1-1680.5c1.8,1.3,3.6,2.5,5.6,3.6c1.9,1.1,3.9,2,5.9,2.9c-2-0.9-4-1.8-5.9-2.9
				C1315.7-1678,1313.9-1679.2,1312.1-1680.5z"/>
			<path class="st7" d="M1303.7-1688L1303.7-1688c-1.4,0.5-2.9,1-4.4,1.5C1300.8-1687,1302.3-1687.5,1303.7-1688z"/>
			<path class="st10" d="M1343.6-1669.2c2.4,0.2,4.9,0.3,7.4,0.3C1348.5-1669,1346-1669,1343.6-1669.2z"/>
			<path class="st7" d="M1322.9-1664.8c-3.3-1.2-6.5-2.7-9.6-4.4c-1.8-1-3.5-2.1-5.1-3.2c1.7,1.2,3.4,2.2,5.1,3.2
				C1316.3-1667.5,1319.5-1666,1322.9-1664.8z"/>
			<path class="st10" d="M1347.5-1660.3c1,0,2,0,3,0C1349.5-1660.2,1348.5-1660.2,1347.5-1660.3z"/>
			<path class="st7" d="M1303.7-1702.1c-6.5,2.3-14.1,4.9-21.7,7.2l-8.4,2.5l4.7,7.4c1.9,2.9,3.9,5.7,6,8.3c-2.1-2.6-4.1-5.4-6-8.3
				l-4.7-7.4l8.4-2.5C1289.5-1697.2,1297.2-1699.8,1303.7-1702.1z"/>
			<path class="st7" d="M1311.1-1699.9l-2.9-3.7l0,0L1311.1-1699.9c3.8,4.8,8.2,8.7,13.1,11.5c6.1,3.5,13.3,5.5,21.5,6
				c-8.2-0.5-15.4-2.5-21.5-6C1319.3-1691.2,1314.9-1695.1,1311.1-1699.9z"/>
			<path class="st7" d="M1362.5-1683.1l0.9,2.4L1362.5-1683.1z"/>
			<path class="st10" d="M1353.7-1647c2.7-0.1,5.5-0.3,8.3-0.6C1359.2-1647.3,1356.4-1647.1,1353.7-1647z"/>
			<path class="st10" d="M1349.6-1646.9c1.3,0,2.7,0,4-0.1C1352.3-1647,1351-1646.9,1349.6-1646.9z"/>
			<path class="st10" d="M1373.8-1649.1l-7.6,1c-1.4,0.2-2.8,0.4-4.2,0.5c1.4-0.1,2.8-0.3,4.2-0.5L1373.8-1649.1z"/>
			<path class="st7" d="M1306.7-1657.7c4.2,2.4,8.5,4.3,13.1,5.9C1315.3-1653.3,1310.9-1655.3,1306.7-1657.7
				c-8.5-4.9-16.1-11.2-22.4-19C1290.7-1668.9,1298.2-1662.5,1306.7-1657.7z"/>
			<path class="st7" d="M1350.3-1682.3c2.3,0,4.7-0.1,7.2-0.3l3.4-0.3l-3.4,0.3C1355-1682.4,1352.6-1682.3,1350.3-1682.3z"/>
			<path class="st7" d="M1365.3-1675.7c2.3,6.2,4.6,12.7,6.5,19.2l2.1,7.4l-2.1-7.4C1369.9-1663,1367.6-1669.5,1365.3-1675.7z"/>
			<path class="st9" d="M1278.3-1685c1.9,2.9,3.9,5.7,6,8.3c6.4,7.8,13.9,14.2,22.4,19c4.2,2.4,8.5,4.3,13.1,5.9
				c8,2.8,16.6,4.3,25.8,4.7c1.3,0.1,2.6,0.1,4,0.1s2.7,0,4-0.1c2.7-0.1,5.5-0.3,8.3-0.6c1.4-0.1,2.8-0.3,4.2-0.5l7.6-1l-2.1-7.4
				c-1.8-6.5-4.2-13-6.5-19.2c-0.3-0.9-0.7-1.8-1-2.7l-0.9-2.4l-0.9-2.4l-1.7,0.2l-3.4,0.3c-2.5,0.2-4.9,0.3-7.2,0.3
				c-1.5,0-3.1,0-4.6-0.1c-8.2-0.5-15.4-2.5-21.5-6c-4.9-2.8-9.3-6.7-13.1-11.5l-2.9-3.7l-4.5,1.6c-6.5,2.3-14.1,4.9-21.7,7.2
				l-8.4,2.5L1278.3-1685z"/>
			<path class="st4" d="M85.3-1280.7c-0.5,0.6-1.2,1.2-1.9,1.8C84.1-1279.4,84.8-1280,85.3-1280.7z"/>
			<path class="st4" d="M51.1-1286.7c1-5.5,9-10,18.1-10C60.1-1296.7,52-1292.1,51.1-1286.7z"/>
			<path class="st4" d="M69.2-1274.4c-10.7,0-18.2-5.9-18.2-11.1C51-1280.3,58.4-1274.4,69.2-1274.4z"/>
			<path class="st4" d="M71.1-1274.5c1.3-0.1,2.5-0.3,3.7-0.5C73.7-1274.8,72.4-1274.6,71.1-1274.5z"/>
			<path class="st4" d="M78.1-1276c1.6-0.6,2.9-1.3,4.1-2.1C81.1-1277.2,79.7-1276.5,78.1-1276z"/>
			<path class="st4" d="M69.2-1296.7c9.1,0,17.1,4.6,18.1,10C86.3-1292.1,78.3-1296.7,69.2-1296.7z"/>
			<path class="st4" d="M38.3-1285.6c0-13.4,13.6-23.8,30.9-23.8C51.8-1309.4,38.3-1298.9,38.3-1285.6z"/>
			<g class="st4">
				<path class="st11" d="M1498.5-1426.2c-12.1,0-21.9,9.3-21.9,20.8s9.8,20.8,21.9,20.8c0.5,0,1.1,0,1.6-0.1v12.8
					c-0.5,0-1.1,0-1.6,0c-19.1,0-34.6-15-34.6-33.5s15.5-33.5,34.6-33.5c0.5,0,1.1,0,1.6,0v12.8
					C1499.6-1426.1,1499-1426.2,1498.5-1426.2z"/>
				<path class="st11" d="M33.1-1405.4c0,18-14.7,32.7-33,33.5v-12.8c11.3-0.8,20.3-9.8,20.3-20.7c0-11-9-19.9-20.3-20.7v-12.8
					C18.4-1438,33.1-1423.3,33.1-1405.4z"/>
				<path class="st11" d="M1394.6-1505.8v40.9c12.8,0.1,23.2,11,23.2,24.2c0,13.3-10.4,24.1-23.2,24.2v32.7c0,4.5,1.2,5.1,4.6,6.2
					l100.9,17v13.1l-91-15.1c7.2,6.2,18.8,15.8,23.5,19.6c2.2,1.8,3.8,3.1,4.4,3.6c0.3,0.3,1.5,0.3,1.7,0.2
					c4.4-1.5,9.4-2.2,14.3-2.2c5.8,0,11.5,1,16.5,3c10,4,15.9,11.2,15.9,19.4c0,5-2.3,9.7-6.5,13.5c-0.4,0.3-1.1,1.1-0.1,1.9
					c5,4.3,12.6,10.7,21.2,18v16.6c-15.2-12.9-28.6-24.3-34.2-29c-2.2-1.8-3.6-3.8-4.4-5.8c-1.2-3.2,0.4-6.7,3.5-8
					c4.6-1.9,7.1-5.1,7.1-7.6c0-2.7-2.5-5.3-7.3-7.2c-3.5-1.4-7.6-2.1-11.8-2.1c-3.6,0-7.2,0.6-10.3,1.6c-0.1,0-2.9,1.1-5.1,1.1
					c-3.1,0-6.1-1.2-8.9-3.7c-0.5-0.5-2.1-1.7-4.2-3.5c-16.3-13.3-27.8-22.9-30.7-26.3c-3.6-4.2-5.7-7.5-6.4-8.7
					c-1.4-1.9-5.6-8.4-5.6-19v-32.8c0-6.6,4.4-9.6,8.8-9.6c0.9,0,1.6,0.1,2.1,0.2h0.2c0.4,0.1,0.9,0.1,1.3,0.1
					c5.9,0,10.7-5.2,10.7-11.5c0-6.3-4.8-11.5-10.7-11.5c-0.4,0-0.8,0-1.2,0.1c-0.4,0.1-0.8,0.1-1.3,0.1c-4.9,0-10-3.6-10-9.7v-45.6
					c0-6.5,4.9-11.4,11.3-11.4c0.8,0,1.5,0.1,2.3,0.2c2.5,0.4,47.1,8,104.7,17.7v12.9C1445.5-1497.2,1402.7-1504.4,1394.6-1505.8z"
					/>
				<path class="st11" d="M171.8-1471.9c-52.4-8.9-117.7-19.9-171.7-29v12.9c52.4,8.8,115.7,19.5,169.6,28.6
					c48,8.1,86.9,14.7,100.6,17c0,1.5,0,4.6,0.1,8.9c0.2,23.9,0.8,87.5,0.8,112.8c0,1.7-0.3,3.5-0.7,5.1l-9.6-1.5l-103.6-17.2
					c0-0.1,2.4-4.3,2.4-10.8c-0.1-17.7-14.7-32-32.8-32s-32.8,14.4-32.8,32c0,0.1,0,0.2,0,0.3l-94-15.8v13.1l96.9,16.1
					c5.3,10.3,16.6,13,25,14c1.6,0.2,3.2,0.3,4.8,0.3c7.4,0,14.7-2.2,20.4-6l111.5,18.5l5.8,1c-0.1,0.1-0.2,0.3-0.4,0.4
					c-65.9,69.7-145.4,80.1-187,80.1c-2.2,0-4.2-0.5-5.2-1.4c-1.3-1.1-42.9-36.4-71.9-61v16.5c28.3,24,62.6,53.2,63.6,54
					c3.4,2.9,8.2,4.5,13.5,4.5c26.4,0,52.8-3.9,78.5-11.6c45.4-13.6,85-37.9,117.7-72.5c4.6-4.8,6.9-10.3,7.4-11.6s3-7.9,3-14.7
					c0-25.4-0.6-89-0.8-113c-0.1-5.8-0.1-9.4-0.1-9.7c0-8.2-5.2-10.7-9.6-11.4C260.8-1456.9,221-1463.6,171.8-1471.9z M146.9-1345.1
					c0,5-2.9,8.4-5.2,10.4l0,0l0,0c-3.8,3.1-9.2,4.9-14.8,4.9c-1.1,0-2.2-0.1-3.2-0.2c-12.1-1.5-14.8-5.2-16-9
					c-0.5-1.9-0.8-2.5-0.8-6.1c0-10.7,9-19.3,20.1-19.3C137.9-1364.4,146.9-1355.8,146.9-1345.1z"/>
				<path class="st11" d="M38.3-1285.6c0,13.4,13.6,23.8,30.9,23.8s30.9-10.5,30.9-23.8c0-13.4-13.6-23.8-30.9-23.8
					C51.8-1309.4,38.3-1298.9,38.3-1285.6z M51-1285.6c0-0.4,0-0.7,0.1-1.1c1-5.5,9-10,18.1-10s17.1,4.6,18.1,10
					c0.1,0.4,0.1,0.7,0.1,1.1c0,1.6-0.7,3.3-2.1,4.9c-0.5,0.6-1.2,1.2-1.9,1.8c-0.4,0.3-0.7,0.6-1.1,0.8c-1.2,0.8-2.6,1.5-4.1,2.1
					c-1,0.4-2.1,0.7-3.3,0.9s-2.4,0.4-3.7,0.5c-0.6,0-1.3,0.1-2,0.1C58.4-1274.4,51-1280.3,51-1285.6z"/>
			</g>
			<path class="st12" d="M229.8-1839.3L263-1791c14.5,21,22.1,45.6,22.1,71.1h16.6c0-28.9-8.7-56.7-25-80.5l-33.2-48.3
				c-4-5.8-7.5-11.9-10.5-18.2h99.9c-3,5.2-6.4,10.2-10.1,15l-27.6,35.5l13.1,10.2l27.6-35.5c6.1-7.9,11.4-16.3,15.9-25.2h30.3
				c-2.9,5-6.2,9.8-9.8,14.3l-68.7,85.9l13,10.4l68.8-85.9c6.2-7.7,11.4-16,15.7-24.7h62.2c-7.2,13.3-17.2,25.1-29.6,34.8
				l-63.3,49.3c-27.8,21.7-45.7,52.8-50.4,87.8l-7.2,53.7l-12.7-17c-1.4-1.9-3.7-3.1-6.1-3.3c-2.4-0.1-4.8,0.7-6.5,2.4l-19.1,19.1
				v-52.8c0-35.7-13.9-69.2-39.1-94.5l-61.5-61.5c-5.5-5.5-10.4-11.6-14.6-18h61.6C218.8-1857.3,223.8-1848,229.8-1839.3z"/>
			<path class="st13" d="M167.8-1848.9l61.5,61.5c25.2,25.2,39.1,58.8,39.1,94.5v52.8l19.1-19.1c1.7-1.7,4-2.6,6.5-2.4
				c2.4,0.2,4.6,1.4,6.1,3.3l12.7,17l7.2-53.7c4.7-35,22.6-66.1,50.4-87.8l63.3-49.3c12.4-9.7,22.4-21.5,29.5-34.8h18.6
				c-8.4,18.5-21.2,35-37.9,47.9l-63.3,49.3c-24.4,19-40,46.2-44.1,76.9l-9.9,73.9c-0.5,3.3-2.9,6.1-6.1,6.9
				c-3.3,0.8-6.7-0.4-8.8-3.1l-19.2-25.6l-26.5,26.5c-2.4,2.4-6,3.1-9.1,1.8c-3.1-1.3-5.1-4.3-5.1-7.7v-72.8
				c0-31.2-12.2-60.6-34.3-82.7l-61.5-61.5c-8.9-8.9-16.4-18.9-22.2-29.7h19.3C157.4-1860.5,162.2-1854.5,167.8-1848.9z"/>
			<path class="st13" d="M476.4-986.5c0-25-8.6-49.5-24.2-69.1l-10.7-13.4c-17.9-22.3-43.3-36.7-71.7-40.5l-25.7-3.4l-37.2-21.7
				c0.7,0.1,1.4,0.1,2,0.2l63.1,8.4c32.6,4.3,61.9,20.9,82.5,46.6l10.7,13.4c18,22.5,27.8,50.7,27.8,79.4c0,18.4-3.9,36.2-11.2,52.5
				h-18.6C471.8-949.9,476.4-967.8,476.4-986.5z"/>
			<path class="st13" d="M118.8-999.2c0-46.5,25.4-89.3,66.3-111.6l9-4.9c14.6-8,30.4-12.9,46.9-14.7l37.2-4.2
				c4.7-0.5,9.4-0.8,14.1-0.8c1.9,0,3.8,0.1,5.7,0.1c-0.2,0.1-0.5,0.3-0.7,0.4l-26.9,17.9l0,0l-27.6,3.1
				c-14.4,1.6-28.1,5.9-40.8,12.8l-9,4.9c-35.5,19.4-57.6,56.5-57.6,97v5c0,21.7,6.2,42.4,17.8,60.2h-19.3
				c-9.9-18.3-15.1-38.8-15.1-60.2C118.8-994.2,118.8-999.2,118.8-999.2z"/>
			<path class="st13" d="M385.3-1842.2l-68.8,85.9l-13-10.4l68.7-85.9c3.6-4.6,6.9-9.3,9.8-14.3h18.9
				C396.7-1858.2,391.5-1849.9,385.3-1842.2z"/>
			<path class="st13" d="M276.7-1800.4c16.4,23.8,25,51.7,25,80.5h-16.6c0-25.5-7.6-50.1-22.1-71.1l-33.2-48.3c-6-8.7-11-18-15-27.6
				H233c3,6.3,6.5,12.4,10.5,18.2L276.7-1800.4z"/>
			<path class="st13" d="M414.6-1003.4c1.7,24.2-3,48.1-13.6,69.4h-18.9c12-20.5,17.6-44.2,15.9-68.3c-2.8-39.1-24.7-74.3-58.6-94
				l-4.7-2.7l-13-16.8l22.5,3l3.7,2.1C386.5-1088.1,411.4-1048,414.6-1003.4z"/>
			<path class="st13" d="M298.5-1118.6l1.4,1.9l-20.3,13.5c-29.2,19.5-49.3,49.1-56.7,83.4c-6.2,29-2.5,59.3,10.1,85.8h-18.2
				c-11.6-28-14.6-59.3-8.2-89.3c8.3-38.6,30.9-71.9,63.7-93.7l9.6-1.1C286.1-1118.8,292.3-1118.9,298.5-1118.6z"/>
			<path class="st13" d="M321.7-1115.8l-13.4-17.2l-13.1,10.2l3.3,4.3c-6.2-0.4-12.4-0.2-18.5,0.5l-9.6,1.1l0,0l26.8-17.8
				c0.2-0.2,0.5-0.3,0.7-0.4c3,0.1,6.1,0.4,9.1,0.7l37.2,21.7L321.7-1115.8z"/>
			<path class="st13" d="M335.9-1841.7l-27.6,35.5l-13.1-10.2l27.6-35.5c3.7-4.8,7.1-9.8,10.1-15h18.9
				C347.3-1858,342-1849.6,335.9-1841.7z"/>
			<path class="st13" d="M334.7-1099l1.1,1.5c20.9,26.8,32.4,60.4,32.4,94.4c0,24-5.7,47.8-16.5,69.2h-18.9
				c12.2-20.9,18.8-44.9,18.8-69.2c0-30.3-10.3-60.2-28.9-84.2l-22.8-29.4l2.1-1.4L334.7-1099z"/>
			<path class="st13" d="M302-1118.1l-2.1,1.4l-1.4-1.9c2.8,0.2,5.5,0.4,8.3,0.8l14.9,2l13,16.8L302-1118.1z"/>
			<path class="st13" d="M298.5-1118.6l-3.3-4.3l13.1-10.2l13.4,17.2l-14.9-2C304-1118.1,301.2-1118.4,298.5-1118.6z"/>
			<g class="st4">
				<path class="st14" d="M911.3-1764.9c26.3,5.9,46.2,27.4,50.6,54.6c3,18.3-1.3,36.7-12.1,51.9l-1.6,2.3l61.9,616.7
					c0.2,2.5-0.9,5-3,6.3c-1,0.6-2.1,1-3.2,1c-1.1,0-2.2-0.3-3.1-0.9l-504.7-325.3l-3.4,1.2c-7.1,2.5-14.5,3.8-22,3.8
					c-13.6,0-26.6-4.2-37.6-12.1c-29.9-21.5-36.8-64.2-15.4-95.1c55.3-80,124.2-147.2,204.9-199.7c80.7-52.6,169.1-87.9,262.9-105
					c3.9-0.7,7.8-1.1,11.7-1.1C901.9-1766.5,906.7-1766,911.3-1764.9z M480.8-1367c14.3-2.6,26.8-10.7,35.2-22.9
					c46-66.6,103.4-122.5,170.6-166.3c67.1-43.7,140.8-73.2,218.9-87.4c29.4-5.4,49.4-34.2,44.5-64.2c-4.3-26.5-26.6-45.8-53-45.8
					c-3.2,0-6.4,0.3-9.6,0.9c-186.6,34.1-349.9,140.5-459.8,299.5c-8.4,12.1-11.7,26.8-9.3,41.3c2.4,14.6,10.2,27.3,22,35.8
					c9.1,6.6,19.8,10,30.9,10C474.3-1366.1,477.6-1366.4,480.8-1367z M557.6-1333.9l3.1-8.9c3.3-9.4,9-17.8,16.6-24.3
					c10-8.5,22-13.1,34.8-13.1c1.5,0,3.1,0.1,4.7,0.2c2.4,0.2,4.8,0.6,7.1,1.1c11.6,2.6,21.7,8.9,29.3,18.3
					c9.2,11.3,13.5,25.7,12.1,40.5c-1.2,13-6.9,25.3-16.1,34.6l-6.4,6.5l163.8,105.6l13.7-19.9c1.2-1.7,3.1-2.7,5.1-2.7
					c0.4,0,0.8,0,1.3,0.1c0.7,0.2,1.5,0.5,2.1,1c2.8,2,3.4,6.1,1.4,9l-13.2,19.1L996.7-1051l-13.4-134l-8.6,2.6
					c-4.9,1.5-10,2.2-15.1,2.2c-1.5,0-3-0.1-4.5-0.2c-14-1.2-26.8-7.9-35.9-18.9c-9.5-11.4-14-26-12.6-41.1
					c1.4-14.8,8.3-28.3,19.5-37.9c10-8.5,22-13,34.8-13c1,0,2.1,0,3.1,0.1l8.7,0.5l-10.4-103.6l-45,21.5c-0.8,0.4-1.7,0.6-2.5,0.6
					c-2.3,0-4.4-1.4-5.4-3.6c-1.5-3.3-0.1-7.2,3.1-8.7l48.4-23.2l-23.7-236.1l-9.9,5.5c-6.3,3.5-13.1,6-20.2,7.3
					c-154.8,28.3-290.2,116.5-381.4,248.4c-2.7,4-5.9,7.7-9.5,11l-6.9,6.5L557.6-1333.9z M630.9-1286.7l4.1-2.8
					c10.4-7.2,17-18.7,18.2-31.5c1.1-11.3-2.2-22.4-9.3-31.1c-7.1-8.8-17.2-14.1-28.4-15.1c-1.2-0.1-2.4-0.2-3.6-0.2
					c-9.8,0-19.4,3.6-27.1,10.1c-7.8,6.7-13,16-14.6,26.3l-0.7,4.8L630.9-1286.7z M977-1196.8l4.8-2.2l-7.8-77.6l-5.4-1.1
					c-1.6-0.3-3.1-0.5-4.4-0.7c-1.2-0.1-2.4-0.2-3.6-0.2c-9.8,0-19.5,3.6-27.1,10.1c-8.6,7.3-13.9,17.6-14.9,28.9
					c-1.1,11.5,2.4,22.7,9.7,31.5c7.1,8.5,17.1,13.8,28,14.7c1.2,0.1,2.3,0.2,3.5,0.2C965.7-1193.1,971.5-1194.3,977-1196.8z"/>
				<path class="st14" d="M554.8-1520.7c-1.6,0-3.1,0.6-4.3,1.8c-2.6,2.6-2.7,6.7-0.3,9.2c1.1,1.2,2.6,1.9,4.2,1.9
					c1.6,0,3.1-0.6,4.2-1.8l0.2-0.2c2.5-2.5,2.6-6.7,0.1-9.2c-0.8-0.8-1.8-1.4-2.9-1.7C555.7-1520.7,555.3-1520.7,554.8-1520.7
					L554.8-1520.7z"/>
				<path class="st14" d="M526.8-1491.1c-1.7,0-3.3,0.7-4.5,2.1c-18.6,20.8-36.1,43.1-52,66.1c-2,3-1.4,7,1.4,9
					c1,0.7,2.1,1.1,3.3,1.1c2,0,3.9-1,5.1-2.7c15.6-22.6,32.8-44.4,51-64.9c2.4-2.7,2.3-6.8-0.3-9.2c-0.8-0.7-1.7-1.2-2.7-1.4
					C527.6-1491,527.2-1491.1,526.8-1491.1L526.8-1491.1z"/>
				<path class="st14" d="M802.3-1372.2c2.4,0.2,4.7,0.6,7,1.1c26.3,5.9,44.1,31.2,41.5,58.9c-2.7,28.5-26.6,50.9-54.4,50.9
					c-1.5,0-3.1-0.1-4.6-0.2c-2.3-0.2-4.7-0.6-7-1.1c-26.3-5.9-44.1-31.2-41.5-58.9c2.7-28.5,26.6-50.9,54.4-50.9
					C799.2-1372.4,800.8-1372.3,802.3-1372.2z M838.7-1313.2c2-21.3-11.8-40.8-32.2-45.4c-1.8-0.4-3.6-0.7-5.5-0.9
					c-1.2-0.1-2.4-0.2-3.6-0.2c-21.5,0-40,17.1-42,39c-2,21.3,11.8,40.8,32.2,45.4c1.8,0.4,3.7,0.7,5.5,0.9c1.2,0.1,2.4,0.2,3.6,0.2
					C818.2-1274.2,836.6-1291.3,838.7-1313.2z"/>
				<path class="st14" d="M832.1-1541.3c1.5,0,3.1,0.1,4.7,0.2c2.3,0.2,4.7,0.6,7,1.1c26.3,5.9,44.1,31.2,41.5,58.9
					c-2.7,28.5-26.6,50.9-54.4,50.9c-1.5,0-3.1-0.1-4.6-0.2c-2.4-0.2-4.7-0.6-7-1.1c-26.3-5.9-44.1-31.2-41.5-58.9
					c1.4-14.8,8.3-28.3,19.5-37.9C807.2-1536.8,819.3-1541.3,832.1-1541.3L832.1-1541.3z M873.1-1482.1c2-21.3-11.8-40.8-32.2-45.4
					c-1.8-0.4-3.6-0.7-5.5-0.9c-1.2-0.1-2.4-0.2-3.6-0.2c-9.8,0-19.5,3.6-27.1,10.1c-8.6,7.3-13.9,17.6-14.9,28.9
					c-2,21.3,11.8,40.8,32.2,45.4c1.8,0.4,3.6,0.7,5.5,0.9c1.2,0.1,2.4,0.2,3.6,0.2C852.6-1443.1,871.1-1460.2,873.1-1482.1z"/>
				<path class="st14" d="M685.9-1410.4c-3.2,0-5.9,2.6-6.2,5.9c-0.2,1.8,0.3,3.5,1.4,4.8c1,1.2,2.4,2,3.9,2.1l41.7,3.6
					c0.2,0,0.3,0,0.5,0c3.2,0,5.9-2.6,6.2-5.9c0.3-3.2-1.7-6.1-4.6-6.8c-0.3-0.1-0.5-0.1-0.8-0.1l-41.7-3.6
					C686.2-1410.4,686.1-1410.4,685.9-1410.4L685.9-1410.4z"/>
				<path class="st14" d="M715.6-1502.1c-2.6,0-4.9,1.7-5.8,4.3l-9.9,27.1c-1.2,3.4,0.4,7,3.5,8.2c0.6,0.2,1.3,0.4,2,0.4
					c2.6,0,4.9-1.7,5.8-4.3l9.8-27.1c1.2-3.4-0.4-7-3.5-8.2c-0.3-0.1-0.5-0.2-0.8-0.2C716.4-1502,716-1502.1,715.6-1502.1
					L715.6-1502.1z"/>
			</g>
		</g>
		<g>
			<defs>
				<rect id="SVGID_5_" x="0.1" y="-2804" width="1500" height="936"/>
			</defs>
			<clipPath id="SVGID_6_">
				<use xlink:href="#SVGID_5_"  style="overflow:visible;"/>
			</clipPath>
			<rect x="0.1" y="-2800.9" class="st15" width="1500" height="932.9"/>
			<path class="st16" d="M1384-1868l-43.4-95.5c-8.8-25.1-27-48.5-54.1-48.4c-5.6,0-11.6,1-17.9,3.2c-1.3,0.5-2.6,1-3.9,1.5
				c-0.6,0.3-1.3,0.6-1.9,0.8c-7,3.2-13.3,7.6-18.7,13c-1,1-1.9,2-2.9,3c12.2,5.4,23,13.8,31.2,24.6c1.6,2.2,3.2,4.4,4.6,6.8
				c1.4,2.3,2.8,4.8,4,7.3s2.3,5.1,3.2,7.9l26.5,75.8h-14.1l-6.7-19.2l-18.2-52.2c-0.8-2.4-1.8-4.7-2.9-6.9
				c-0.1-0.2-0.2-0.5-0.4-0.7c-0.1-0.1-0.1-0.2-0.2-0.3c-0.6-1.2-1.3-2.4-2-3.6c-0.4-0.7-0.8-1.4-1.3-2.1c-0.1-0.2-0.2-0.3-0.3-0.5
				c-3.7-5.6-8.2-10.6-13.4-14.9c-0.7-0.6-1.5-1.2-2.3-1.8c-6.1-4.6-13.1-8.2-20.6-10.6l-3.4-1c-4.6-1.1-9.2-1.8-14-2
				c-0.8,0-1.6,0-2.4,0c-7.2,0-14.4,1.2-21.5,3.7c-1.6,0.6-3.1,1.2-4.6,1.8c-1.5,0.7-3,1.4-4.4,2.1c-3.6,1.9-7,4.1-10.1,6.6
				c-1.9,1.5-3.7,3.1-5.3,4.7c-2.2,2.2-4.3,4.6-6.2,7l-2,2.9c-0.6,0.8-1.1,1.6-1.6,2.5c-2.1,3.3-3.8,6.8-5.3,10.4
				c-1.1,2.7-2,5.4-2.7,8.2c-1.9,7.4-2.5,15.2-1.8,22.8c0,0.1,0,0.2,0,0.3s0,0.2,0,0.3c0.1,0.5,0.1,1.1,0.2,1.6
				c0.1,0.8,0.2,1.6,0.4,2.5c0.1,0.8,0.3,1.6,0.4,2.5c0.1,0.3,0.1,0.5,0.1,0.8c0,0.1,0,0.3,0.1,0.4c0.1,0.6,0.3,1.2,0.5,1.8
				c0.5,1.8,1,3.6,1.6,5.4l9.7,27.7h-14.1l-8.1-23.3c-4.7-13.5-5.5-27.4-3.1-40.6c0.1-0.7,0.3-1.3,0.4-2c0.3-1.3,0.6-2.6,0.9-3.9
				c0.2-0.6,0.4-1.3,0.5-1.9c1.5-5.1,3.5-10.1,6-14.8c-3.5-0.6-6.9-0.9-10.4-1c-2.8,0-5.5,0.1-8.3,0.4c-0.7,0.1-1.4,0.2-2.1,0.3
				c-4.1,0.6-8.2,1.6-12.2,3c-18.5,6.4-28.2,18.9-31.9,33.6c-0.5,1.8-0.8,3.7-1.1,5.6c-0.7,4.8-0.9,9.7-0.6,14.7c0.1,2,0.3,4,0.6,6
				c0.4,3,0.9,6,1.6,9s1.5,6,2.4,8.9c0.3,1,0.6,1.9,1,2.9l0.8,3.1h-13.7l0,0c-6.8-19.8-7.9-38.2-3.8-53.7l0,0
				c0.3-1.1,0.6-2.2,0.9-3.2v-0.1c0.3-1,0.7-2.1,1.1-3.1c0-0.1,0-0.1,0.1-0.2c0.4-1,0.8-2,1.2-2.9c0-0.1,0.1-0.2,0.1-0.2
				c0.4-0.9,0.9-1.9,1.3-2.8c0.1-0.1,0.1-0.2,0.2-0.3c0.5-0.9,0.9-1.7,1.4-2.6c0.1-0.1,0.2-0.3,0.2-0.4c0.5-0.8,1-1.6,1.5-2.4
				c0.1-0.2,0.2-0.3,0.3-0.4c0.5-0.8,1-1.5,1.6-2.2c0.1-0.2,0.3-0.3,0.4-0.5c0.5-0.7,1.1-1.4,1.6-2.1c0.2-0.2,0.3-0.4,0.5-0.6
				c0.5-0.6,1.1-1.3,1.7-1.9c0.2-0.2,0.4-0.4,0.6-0.6c0.6-0.6,1.1-1.2,1.7-1.7c0.2-0.2,0.5-0.5,0.8-0.7c0.6-0.5,1.1-1,1.7-1.5
				c0.3-0.2,0.6-0.5,0.9-0.7c0.6-0.5,1.1-0.9,1.7-1.4c0.3-0.3,0.7-0.5,1-0.8c0.6-0.4,1.1-0.8,1.7-1.2c0.4-0.3,0.8-0.5,1.2-0.8
				c0.6-0.4,1.1-0.7,1.7-1.1c0.5-0.3,0.9-0.5,1.4-0.8c0.6-0.3,1.1-0.6,1.7-0.9c0.5-0.3,1.1-0.5,1.6-0.8c0.5-0.3,1.1-0.5,1.6-0.8
				c0.6-0.3,1.3-0.6,1.9-0.8c0.5-0.2,0.9-0.4,1.4-0.6c1-0.4,2-0.8,3-1.1c0.2-0.1,0.3-0.1,0.5-0.2c8.2-2.8,16.6-4.3,25.1-4.4
				c3.8,0,7.6,0.2,11.3,0.7c2.8,0.4,5.7,0.9,8.5,1.6l0,0l0,0c1.1-1.5,2.3-2.9,3.6-4.3c3.1-3.5,6.5-6.7,10.2-9.6
				c6.7-5.3,14.3-9.5,22.8-12.5c6.6-2.3,13.3-3.7,19.9-4.2c0.9-0.1,1.9-0.1,2.8-0.2c0.9,0,1.9-0.1,2.8-0.1c6.6,0,13.1,0.8,19.5,2.3
				l0,0l0,0c8.8-11.4,20.4-20.1,33.7-25.3c0.9-0.3,1.8-0.7,2.7-1c7.1-2.5,14.2-3.8,21-3.9c13.6-0.3,26.4,3.9,37.4,12.2
				c1.8,1.4,3.6,2.9,5.4,4.5c5.2,4.8,10,10.6,14.2,17.3s7.8,14.3,10.8,22.8l44.2,97.4l1.4,3.1H1384V-1868z"/>
			<path class="st17" d="M476.4-1920.5c0-25-8.6-49.5-24.2-69.1l-10.7-13.4c-17.9-22.3-43.3-36.7-71.7-40.5l-25.7-3.4l-37.2-21.7
				c0.7,0.1,1.4,0.1,2,0.2l63.1,8.4c32.6,4.3,61.9,20.9,82.5,46.6l10.7,13.4c18,22.5,27.8,50.7,27.8,79.4c0,18.4-3.9,36.2-11.2,52.5
				h-18.6C471.8-1883.9,476.4-1901.8,476.4-1920.5z"/>
			<path class="st17" d="M118.8-1933.2c0-46.5,25.4-89.3,66.3-111.6l9-4.9c14.6-8,30.4-12.9,46.9-14.7l37.2-4.2
				c4.7-0.5,9.4-0.8,14.1-0.8c1.9,0,3.8,0.1,5.7,0.1c-0.2,0.1-0.5,0.3-0.7,0.4l-26.9,17.9l0,0l-27.6,3.1
				c-14.4,1.6-28.1,5.9-40.8,12.8l-9,4.9c-35.5,19.4-57.6,56.5-57.6,97v5c0,21.7,6.2,42.4,17.8,60.2h-19.3
				c-9.9-18.3-15.1-38.8-15.1-60.2C118.8-1928.2,118.8-1933.2,118.8-1933.2z"/>
			<path class="st17" d="M414.6-1937.4c1.7,24.2-3,48.1-13.6,69.4h-18.9c12-20.5,17.6-44.2,15.9-68.3c-2.8-39.1-24.7-74.3-58.6-94
				l-4.7-2.7l-13-16.8l22.5,3l3.7,2.1C386.5-2022.1,411.4-1982,414.6-1937.4z"/>
			<path class="st17" d="M298.5-2052.6l1.4,1.9l-20.3,13.5c-29.2,19.5-49.3,49.1-56.7,83.4c-6.2,29-2.5,59.3,10.1,85.8h-18.2
				c-11.6-28-14.6-59.3-8.2-89.3c8.3-38.6,30.9-71.9,63.7-93.7l9.6-1.1C286.1-2052.8,292.3-2052.9,298.5-2052.6z"/>
			<path class="st17" d="M334.7-2033l1.1,1.5c20.9,26.8,32.4,60.4,32.4,94.4c0,24-5.7,47.8-16.5,69.2h-18.9
				c12.2-20.9,18.8-44.9,18.8-69.2c0-30.3-10.3-60.2-28.9-84.2l-22.8-29.4l2.1-1.4L334.7-2033z"/>
		</g>
	</g>
</pattern>
<rect y="0" class="st18" width="1920" height="1220"/>
<g id="rgNm5W.tif" class="st19">
	
		<image style="display:inline;overflow:visible;enable-background:new    ;" width="810" height="811" id="Layer_0_1_" xlink:href="321E6BD5A10A8D39.png"  transform="matrix(2.1185 0 0 2.8284 107.2893 -174.1783)">
	</image>
</g>
<g>
	<g>
		<g>
			<polygon class="st20" points="440.8,899.9 497.2,354.2 512.1,339.5 451.8,919.2 107.6,746.6 116.6,737.6 			"/>
			<g>
				<path class="st20" d="M314.5,477v185.2c0,20.1-15.4,34.8-36.6,34.8h-9.3c-21.2,0-36.6-14.7-36.6-34.8v-26.7
					c0-3.9,3.2-6.9,7.3-6.9h18.1c4.1,0,7.3,3,7.3,6.9v24c0,3.9,3.2,6.9,7.3,6.9h3.5c4.1,0,7.3-3,7.3-6.9V509.7L123,669.4
					l311.9,156.3l54.7-525L314.5,477z M425.9,662.5c0,20.1-15.4,34.8-36.6,34.8H380c-21.2,0-36.6-14.7-36.6-34.8v-26.7
					c0-3.9,3.2-6.9,7.3-6.9h18.1c4.1,0,7.3,3,7.3,6.9v24c0,3.9,3.2,6.9,7.3,6.9h3.5c4.1,0,7.3-3,7.3-6.9V465c0-3.9,3.2-6.9,7.3-6.9
					h18.1c4.1,0,7.3,3,7.3,6.9v197.5H425.9z"/>
				<polygon class="st20" points="434.4,832.4 429.4,880.5 84.8,707.8 118.4,674.3 				"/>
			</g>
		</g>
		<g class="st21">
			<path class="st20" d="M517.3,690.4V464.9c0-3.7,3.2-6.9,7.2-6.9h49.7c21.2,0,36.7,14.7,36.7,34.8v51.3c0,28-22,48.8-51.5,48.8
				h-6.1c-2.2,0-3.6,1.4-3.6,3.4v93.9c0,4.4-2.5,6.9-7.2,6.9h-18C519.8,697.2,517.3,694.8,517.3,690.4z M556.9,562.3h14.4
				c3.9,0,7.2-3,7.2-6.9v-59.8c0-3.7-3.2-6.9-7.2-6.9h-14.4c-3.9,0-7.2,3-7.2,6.9v59.8C549.7,559.2,552.9,562.3,556.9,562.3z"/>
			<path class="st20" d="M654.1,458.2h18c3.9,0,7.2,3,7.2,6.9v225.4c0,3.7-3.2,6.9-7.2,6.9h-18c-3.9,0-7.2-3-7.2-6.9V464.9
				C646.9,461.2,650.1,458.2,654.1,458.2z"/>
			<path class="st20" d="M715.3,690.4v-21.9c0-1.4,0.4-2.4,1.1-4.1l53.3-171.5c0.8-2.4,0-4.1-2.5-4.1h-44.6c-4.7,0-7.2-2.4-7.2-6.9
				v-17.1c0-4.4,2.5-6.9,7.2-6.9h75.6c4.7,0,7.2,2.4,7.2,6.9v21.9c0,1.4-0.4,2.4-1.1,4.1L751,662.3c-0.8,2.4,0,4.1,2.5,4.1h44.6
				c4.7,0,7.2,2.4,7.2,6.9v17.1c0,4.4-2.5,6.9-7.2,6.9h-75.5C717.9,697.2,715.3,694.8,715.3,690.4z"/>
			<path class="st20" d="M834.1,690.4v-21.9c0-1.4,0.4-2.4,1.1-4.1l53.3-171.5c0.8-2.4,0-4.1-2.5-4.1h-44.6c-4.7,0-7.2-2.4-7.2-6.9
				v-17.1c0-4.4,2.5-6.9,7.2-6.9H917c4.7,0,7.2,2.4,7.2,6.9v21.9c0,1.4-0.4,2.4-1.1,4.1l-53.3,171.5c-0.8,2.4,0,4.1,2.5,4.1h44.6
				c4.7,0,7.2,2.4,7.2,6.9v17.1c0,4.4-2.5,6.9-7.2,6.9h-75.6C836.7,697.2,834.1,694.8,834.1,690.4z"/>
			<path class="st20" d="M953,629.2v-137c0-22.2,12.6-34.1,36-34.1h18c23.4,0,36,11.9,36,34.1v137c0,4.4-2.5,6.9-7.2,6.9h-18
				c-4.7,0-7.2-2.4-7.2-6.9v-47.4c0-4.4-2.5-6.9-7.2-6.9h-10.8c-4.7,0-7.2,2.4-7.2,6.9v47.4c0,4.4-2.5,6.9-7.2,6.9h-18
				C955.5,636.1,953,633.7,953,629.2z M960.2,666.8h75.6c4.7,0,7.2,2.4,7.2,6.9v17.1c0,4.4-2.5,6.9-7.2,6.9h-75.6
				c-4.7,0-7.2-2.4-7.2-6.9v-17.1C953,669.2,955.5,666.8,960.2,666.8z M992.6,544.3h10.8c4.7,0,7.2-2.4,7.2-6.9v-41.7
				c0-4.4-2.5-6.9-7.2-6.9h-10.8c-4.7,0-7.2,2.4-7.2,6.9v41.7C985.4,541.8,987.9,544.3,992.6,544.3z"/>
		</g>
	</g>
	<g>
		<path class="st22" d="M524.8,810.9c-3.2,0-6.2-0.7-9.1-2.1c-2.9-1.4-5.4-3.5-7.6-6.3c-2.5-3.2-4.4-7-5.8-11.6s-2.1-9.6-2.1-15.1
			c0-5.1,0.6-9.8,1.8-14c1.2-4.2,2.9-8,5.3-11.4c2.2-3.1,4.7-5.5,7.7-7.1s6.2-2.5,9.7-2.5c3.4,0,6.6,0.8,9.5,2.3s5.5,3.8,7.7,6.8
			c2.5,3.3,4.3,7.2,5.6,11.6c1.2,4.4,1.9,9.2,1.9,14.3s-0.8,10.1-2.3,15c-1.6,4.9-3.8,9-6.8,12.5c-2.3,2.7-4.7,4.6-7.3,5.8
			C530.2,810.3,527.5,810.9,524.8,810.9z M537.4,776.6c0-3.3-0.4-6.6-1.2-10s-2-6.1-3.6-8.3c-1-1.4-2.2-2.5-3.5-3.3
			s-2.8-1.2-4.4-1.2c-1.6,0-3.1,0.4-4.4,1.2c-1.3,0.8-2.6,2-3.7,3.6c-1.4,2-2.6,4.6-3.4,7.8c-0.8,3.2-1.2,6.4-1.2,9.6
			c0,3.6,0.4,6.9,1.2,10s2,5.6,3.5,7.7c1,1.4,2.2,2.5,3.6,3.3c1.4,0.8,2.8,1.2,4.4,1.2c1.2,0,2.4-0.3,3.9-0.9c1.4-0.6,2.7-1.7,4-3.3
			c1.5-2,2.7-4.6,3.5-7.8S537.4,779.9,537.4,776.6z M524.4,786.6l5.8-7.1c1.2,1.9,3.7,6,7.5,12.1c3.8,6.2,8.1,12.8,12.8,20l-6.3,7.8
			c-4.9-8-9.1-15-12.6-20.9C528,792.6,525.6,788.7,524.4,786.6z"/>
		<path class="st22" d="M591.6,809h-10.4v-4.8l0,0c-1.7,1.3-3.7,2.7-6.2,4.1c-2.5,1.4-4.8,2.1-7.1,2.1c-3.4,0-6-1.4-7.9-4.3
			c-1.9-2.8-2.8-6.7-2.8-11.7c0-3.1,0-6.5,0.1-10.2c0-3.6,0.1-6.3,0.1-8c0-3.1,0-6.6-0.1-10.6c0-4-0.1-6.4-0.1-7.2h10.7
			c0,0.8,0,3.1-0.1,6.9c0,3.8-0.1,6.9-0.1,9.5c0,2,0,4.6,0,7.6c0,3.1,0,5.3,0,6.7c0,2.9,0.3,5.1,1,6.7c0.6,1.6,1.7,2.3,3.4,2.3
			c1.5,0,3.1-0.5,4.9-1.6c1.8-1.1,3.1-2,3.9-2.8c0-0.2,0-1.9,0-5s0-6.6,0-10.5c0-3.4,0-7.3-0.1-11.7c0-4.5-0.1-7.2-0.1-8.1h10.7
			c0,0.9,0,3.3-0.1,7.4c0,4.1-0.1,9.3-0.1,15.6c0,4.4,0,8.3,0,11.7S591.6,801.9,591.6,809z"/>
		<path class="st22" d="M631.4,782.7c0,8.1,0,14.3,0,18.7s0,6.9,0,7.6c-0.4,0.1-1.9,0.2-4.5,0.5c-2.6,0.2-5.4,0.4-8.4,0.4
			c-1.9,0-4.2-0.2-6.7-0.7s-4.6-1.2-6.2-2.2c-2.1-1.3-3.8-3.1-5-5.2c-1.2-2.2-1.8-4.7-1.8-7.6c0-3.2,0.6-5.9,1.9-8.1
			c1.3-2.2,3.3-4.1,6-5.5c1.8-1,4.1-1.8,6.8-2.3c2.7-0.6,5.1-1,7.3-1.2c-0.1-1.8-0.4-3.2-1-4.4c-0.6-1.1-1.6-2-3-2.6
			c-0.9-0.4-2-0.7-3.1-0.9s-2.5-0.3-4-0.3c-1.4,0-2.6,0-3.6,0.1s-2.1,0.1-3.2,0.2l0.9-11c0.5,0,1.2-0.1,2.2-0.1s2.5-0.1,4.3-0.1
			c3.9,0,7.2,0.5,9.8,1.4c2.6,1,4.8,2.5,6.6,4.7c1.6,2,2.8,4.5,3.6,7.3C631,774.2,631.4,778,631.4,782.7z M621.3,791.8
			c0-1.1,0-2.3,0-3.7s0-2.9,0-4.4c-0.7,0-1.9,0.2-3.6,0.6c-1.7,0.3-3.2,0.9-4.6,1.8c-0.9,0.5-1.8,1.4-2.6,2.5s-1.2,2.5-1.2,4.2
			c0,1.8,0.3,3.3,1,4.4c0.7,1.1,1.6,1.9,2.7,2.5c0.8,0.4,1.7,0.7,2.7,0.9s2.1,0.3,3.2,0.3c0.3,0,0.6,0,1,0s0.8,0,1.3,0
			c0-0.4,0-1.4,0-3C621.3,796.1,621.3,794.1,621.3,791.8z"/>
		<path class="st22" d="M651.8,809h-10.7c0-2.3,0-7.2,0.1-14.6c0-7.4,0.1-15.1,0.1-23.1c0-4.6,0-9.8,0-15.8s0-12.3-0.1-19.1h10.7
			c0,5.5,0,11.3-0.1,17.3c0,6,0,11.7,0,17c0,8.6,0,16.1,0.1,22.7C651.8,799.9,651.8,805.1,651.8,809z"/>
		<path class="st22" d="M673.1,750.6h-11v-11.7h11V750.6z M672.9,809h-10.7c0-1.6,0-4.9,0.1-10.1c0-5.1,0.1-10,0.1-14.4
			c0-3.8,0-7.8,0-11.9c0-4.2,0-8.8-0.1-14H673c0,4.7-0.1,8.9-0.1,12.6c0,3.7-0.1,7.9-0.1,12.6c0,7.5,0,13.2,0.1,17.1
			C672.9,804.8,672.9,807.5,672.9,809z"/>
		<path class="st22" d="M707.3,798.5l-1,10.8c-0.3,0-0.9,0.1-1.6,0.1c-0.8,0-1.8,0-3,0c-5.6,0-9.9-1.5-12.7-4.6
			c-2.9-3.1-4.3-7.6-4.3-13.6c0-3.9,0-7.4,0-10.7s0-7,0-11.3h-5.8v-10.8h6v-13.2h10.3v13.2h11.9v10.8h-11.9c0,0.7,0,2.2,0,4.3
			c0,2.2,0,3.9,0,5.3c0,1.1,0,2.4,0,4s0,3.2,0,4.9c0,3.6,0.7,6.3,2.1,8c1.4,1.8,4,2.6,7.8,2.6c0.4,0,0.9,0,1.3,0
			C706.9,798.5,707.1,798.5,707.3,798.5z"/>
		<path class="st22" d="M747.9,761.4c-4.5,14.6-9.1,29.4-13.6,44.4c-4.6,15.1-7.1,23.6-7.8,25.7l-9.9-3.6l6.4-20.1
			c-0.3-1.2-1.9-6.4-4.6-15.7c-2.8-9.3-5.9-19.5-9.3-30.6l10.7-4.2c1.9,7.5,3.8,14.6,5.7,21.1s3,10.5,3.3,11.8h0.2
			c0.4-1.6,1.5-5.4,3.1-11.3c1.7-5.9,3.6-13.1,5.8-21.5L747.9,761.4z"/>
		<path class="st22" d="M799.3,782.7c0,8.1,0,14.3,0,18.7s0,6.9,0,7.6c-0.4,0.1-1.9,0.2-4.5,0.5c-2.6,0.2-5.4,0.4-8.4,0.4
			c-1.9,0-4.2-0.2-6.7-0.7s-4.6-1.2-6.2-2.2c-2.1-1.3-3.8-3.1-5-5.2c-1.2-2.2-1.8-4.7-1.8-7.6c0-3.2,0.6-5.9,1.9-8.1s3.3-4.1,6-5.5
			c1.8-1,4.1-1.8,6.8-2.3c2.7-0.6,5.1-1,7.3-1.2c-0.1-1.8-0.4-3.2-1-4.4c-0.6-1.1-1.6-2-3-2.6c-0.9-0.4-2-0.7-3.1-0.9
			s-2.5-0.3-4-0.3c-1.4,0-2.6,0-3.6,0.1s-2.1,0.1-3.2,0.2l0.9-11c0.5,0,1.2-0.1,2.2-0.1s2.5-0.1,4.3-0.1c3.9,0,7.2,0.5,9.8,1.4
			c2.6,1,4.8,2.5,6.6,4.7c1.6,2,2.8,4.5,3.6,7.3C798.9,774.2,799.3,778,799.3,782.7z M789.2,791.8c0-1.1,0-2.3,0-3.7s0-2.9,0-4.4
			c-0.7,0-1.9,0.2-3.6,0.6c-1.7,0.3-3.2,0.9-4.6,1.8c-0.9,0.5-1.8,1.4-2.6,2.5s-1.2,2.5-1.2,4.2c0,1.8,0.3,3.3,1,4.4
			c0.7,1.1,1.6,1.9,2.7,2.5c0.8,0.4,1.7,0.7,2.7,0.9s2.1,0.3,3.2,0.3c0.3,0,0.6,0,1,0s0.8,0,1.3,0c0-0.4,0-1.4,0-3
			C789.2,796.1,789.2,794.1,789.2,791.8z"/>
		<path class="st22" d="M843.2,809h-10.7c0-1,0-3.5,0.1-7.5c0-4,0.1-7.2,0.1-9.5c0-1.6,0-4,0-7s0-5.3-0.1-6.9c0-3-0.4-5.2-1.1-6.6
			c-0.7-1.4-1.9-2.1-3.6-2.1c-1.2,0-2.5,0.4-4.1,1.3c-1.6,0.8-3,1.8-4.4,3c0,0.2,0,2,0,5.5s0,6.4,0,8.8c0,3.6,0,7.8,0.1,12.8
			c0,5,0.1,7.7,0.1,8.2h-10.7c0-0.8,0-3.1,0.1-6.9c0-3.9,0.1-9.5,0.1-16.9c0-4.3,0-8.6,0-13s0-9-0.1-13.7h10.5v4.7v0.1
			c2.2-1.7,4.5-3.2,7-4.4s4.6-1.7,6.5-1.7c3.2,0,5.7,1.4,7.6,4.2c1.9,2.8,2.8,6.6,2.8,11.4c0,4,0,7.3-0.1,10c0,2.7-0.1,4.9-0.1,6.7
			c0,3.1,0,6.8,0.1,11.3C843.2,805.3,843.2,808,843.2,809z"/>
		<path class="st22" d="M884.9,809.4c-0.6,0-1.3,0-2.4,0c-1,0-2,0-2.8,0c-4.9,0-8.9-0.3-11.9-1c-3-0.6-5.6-1.8-7.9-3.4
			c-3.2-2.2-5.7-5.1-7.3-8.7s-2.5-7.7-2.5-12.2c0-4.7,0.9-9,2.7-12.9c1.8-3.8,4.5-6.8,8.2-9c1.9-1.2,4-2.1,6.4-2.7
			c2.3-0.6,4.6-1,6.9-1.1l-0.1-22.2h10.7c0,1,0,5.2-0.1,12.6c0,7.5-0.1,15.9-0.1,25.4c0,8.1,0,15.1,0.1,20.8
			C884.9,800.9,884.9,805.7,884.9,809.4z M874.8,778.3c0-1.2,0-2.5,0-3.9s0-2.8,0-4.3c-1.6,0-3.1,0.2-4.6,0.5s-2.8,0.9-4,1.8
			c-1.7,1.1-3,2.8-3.9,4.9c-0.9,2.2-1.4,4.7-1.4,7.5c0,2.6,0.4,4.8,1.3,6.8c0.8,1.9,2,3.5,3.4,4.7c1.2,1,2.5,1.7,4,2.1
			s3,0.7,4.6,0.7c0.1,0,0.2,0,0.3,0s0.2,0,0.3,0c0-0.3,0-2.3,0-5.9S874.8,784.7,874.8,778.3z"/>
		<path class="st22" d="M933.9,810.9c-3.2,0-6.2-0.7-9.1-2.1c-2.9-1.4-5.4-3.5-7.6-6.3c-2.5-3.2-4.4-7-5.8-11.6
			c-1.4-4.6-2.1-9.6-2.1-15.1c0-5.1,0.6-9.8,1.8-14s2.9-8,5.3-11.4c2.2-3.1,4.7-5.5,7.7-7.1s6.2-2.5,9.7-2.5c3.4,0,6.6,0.8,9.5,2.3
			s5.5,3.8,7.7,6.8c2.5,3.3,4.3,7.2,5.6,11.6c1.2,4.4,1.9,9.2,1.9,14.3s-0.8,10.1-2.3,15c-1.6,4.9-3.8,9-6.8,12.5
			c-2.3,2.7-4.7,4.6-7.3,5.8C939.3,810.3,936.7,810.9,933.9,810.9z M946.5,776.6c0-3.3-0.4-6.6-1.2-10s-2-6.1-3.6-8.3
			c-1-1.4-2.2-2.5-3.5-3.3s-2.8-1.2-4.4-1.2c-1.6,0-3.1,0.4-4.4,1.2c-1.3,0.8-2.6,2-3.7,3.6c-1.4,2-2.6,4.6-3.4,7.8
			c-0.8,3.2-1.2,6.4-1.2,9.6c0,3.6,0.4,6.9,1.2,10s2,5.6,3.5,7.7c1,1.4,2.2,2.5,3.6,3.3c1.4,0.8,2.8,1.2,4.4,1.2
			c1.2,0,2.4-0.3,3.9-0.9c1.4-0.6,2.7-1.7,4-3.3c1.5-2,2.7-4.6,3.5-7.8C946.1,783.2,946.5,779.9,946.5,776.6z M933.5,786.6l5.8-7.1
			c1.2,1.9,3.7,6,7.5,12.1c3.8,6.2,8.1,12.8,12.8,20l-6.3,7.8c-4.9-8-9.1-15-12.6-20.9C937.1,792.6,934.8,788.7,933.5,786.6z"/>
		<path class="st22" d="M1000.7,809h-10.4v-4.8l0,0c-1.7,1.3-3.7,2.7-6.2,4.1c-2.5,1.4-4.8,2.1-7.1,2.1c-3.4,0-6-1.4-7.9-4.3
			c-1.9-2.8-2.8-6.7-2.8-11.7c0-3.1,0-6.5,0.1-10.2c0-3.6,0.1-6.3,0.1-8c0-3.1,0-6.6-0.1-10.6c0-4-0.1-6.4-0.1-7.2H977
			c0,0.8,0,3.1-0.1,6.9c0,3.8-0.1,6.9-0.1,9.5c0,2,0,4.6,0,7.6c0,3.1,0,5.3,0,6.7c0,2.9,0.3,5.1,1,6.7s1.7,2.3,3.4,2.3
			c1.5,0,3.1-0.5,4.9-1.6c1.8-1.1,3.1-2,3.9-2.8c0-0.2,0-1.9,0-5s0-6.6,0-10.5c0-3.4,0-7.3-0.1-11.7c0-4.5-0.1-7.2-0.1-8.1h10.7
			c0,0.9,0,3.3-0.1,7.4c0,4.1-0.1,9.3-0.1,15.6c0,4.4,0,8.3,0,11.7S1000.7,801.9,1000.7,809z"/>
		<path class="st22" d="M1040.5,782.7c0,8.1,0,14.3,0,18.7s0,6.9,0,7.6c-0.4,0.1-1.9,0.2-4.5,0.5c-2.6,0.2-5.4,0.4-8.4,0.4
			c-1.9,0-4.2-0.2-6.7-0.7s-4.6-1.2-6.2-2.2c-2.1-1.3-3.8-3.1-5-5.2c-1.2-2.2-1.8-4.7-1.8-7.6c0-3.2,0.6-5.9,1.9-8.1s3.3-4.1,6-5.5
			c1.8-1,4.1-1.8,6.8-2.3c2.7-0.6,5.1-1,7.3-1.2c-0.1-1.8-0.4-3.2-1-4.4c-0.6-1.1-1.6-2-3-2.6c-0.9-0.4-2-0.7-3.1-0.9
			s-2.5-0.3-4-0.3c-1.4,0-2.6,0-3.6,0.1s-2.1,0.1-3.2,0.2l0.9-11c0.5,0,1.2-0.1,2.2-0.1s2.5-0.1,4.3-0.1c3.9,0,7.2,0.5,9.8,1.4
			c2.6,1,4.8,2.5,6.6,4.7c1.6,2,2.8,4.5,3.6,7.3C1040.1,774.2,1040.5,778,1040.5,782.7z M1030.4,791.8c0-1.1,0-2.3,0-3.7
			s0-2.9,0-4.4c-0.7,0-1.9,0.2-3.6,0.6c-1.7,0.3-3.2,0.9-4.6,1.8c-0.9,0.5-1.8,1.4-2.6,2.5s-1.2,2.5-1.2,4.2c0,1.8,0.3,3.3,1,4.4
			c0.7,1.1,1.6,1.9,2.7,2.5c0.8,0.4,1.7,0.7,2.7,0.9c1,0.2,2.1,0.3,3.2,0.3c0.3,0,0.6,0,1,0s0.8,0,1.3,0c0-0.4,0-1.4,0-3
			C1030.4,796.1,1030.4,794.1,1030.4,791.8z"/>
		<path class="st22" d="M1084.5,809h-10.7c0-1,0-3.5,0.1-7.5c0-4,0.1-7.2,0.1-9.5c0-1.6,0-4,0-7s0-5.3-0.1-6.9c0-3-0.4-5.2-1.1-6.6
			c-0.7-1.4-1.9-2.1-3.6-2.1c-1.2,0-2.5,0.4-4.1,1.3c-1.6,0.8-3,1.8-4.4,3c0,0.2,0,2,0,5.5s0,6.4,0,8.8c0,3.6,0,7.8,0.1,12.8
			c0,5,0.1,7.7,0.1,8.2H1050c0-0.8,0-3.1,0.1-6.9c0-3.9,0.1-9.5,0.1-16.9c0-4.3,0-8.6,0-13s0-9-0.1-13.7h10.5v4.7v0.1
			c2.2-1.7,4.5-3.2,7-4.4s4.6-1.7,6.5-1.7c3.2,0,5.7,1.4,7.6,4.2s2.8,6.6,2.8,11.4c0,4,0,7.3-0.1,10c0,2.7-0.1,4.9-0.1,6.7
			c0,3.1,0,6.8,0.1,11.3C1084.5,805.3,1084.5,808,1084.5,809z"/>
		<path class="st22" d="M1118.4,798.5l-1,10.8c-0.3,0-0.9,0.1-1.6,0.1c-0.8,0-1.8,0-3,0c-5.6,0-9.9-1.5-12.7-4.6
			c-2.9-3.1-4.3-7.6-4.3-13.6c0-3.9,0-7.4,0-10.7s0-7,0-11.3h-5.8v-10.8h6v-13.2h10.3v13.2h11.9v10.8h-11.9c0,0.7,0,2.2,0,4.3
			c0,2.2,0,3.9,0,5.3c0,1.1,0,2.4,0,4s0,3.2,0,4.9c0,3.6,0.7,6.3,2.1,8c1.4,1.8,4,2.6,7.8,2.6c0.4,0,0.9,0,1.3,0
			S1118.2,798.5,1118.4,798.5z"/>
		<path class="st22" d="M1135.7,750.6h-11v-11.7h11V750.6z M1135.5,809h-10.7c0-1.6,0-4.9,0.1-10.1c0-5.1,0.1-10,0.1-14.4
			c0-3.8,0-7.8,0-11.9c0-4.2,0-8.8-0.1-14h10.7c0,4.7-0.1,8.9-0.1,12.6c0,3.7-0.1,7.9-0.1,12.6c0,7.5,0,13.2,0.1,17.1
			C1135.5,804.8,1135.5,807.5,1135.5,809z"/>
		<path class="st22" d="M1169.9,798.5l-1,10.8c-0.3,0-0.9,0.1-1.6,0.1c-0.8,0-1.8,0-3,0c-5.6,0-9.9-1.5-12.7-4.6
			c-2.9-3.1-4.3-7.6-4.3-13.6c0-3.9,0-7.4,0-10.7s0-7,0-11.3h-5.8v-10.8h6v-13.2h10.3v13.2h11.9v10.8h-11.9c0,0.7,0,2.2,0,4.3
			c0,2.2,0,3.9,0,5.3c0,1.1,0,2.4,0,4s0,3.2,0,4.9c0,3.6,0.7,6.3,2.1,8c1.4,1.8,4,2.6,7.8,2.6c0.4,0,0.9,0,1.3,0
			S1169.7,798.5,1169.9,798.5z"/>
		<path class="st22" d="M1210.5,761.4c-4.5,14.6-9.1,29.4-13.6,44.4c-4.6,15.1-7.1,23.6-7.8,25.7l-9.9-3.6l6.4-20.1
			c-0.3-1.2-1.9-6.4-4.6-15.7c-2.8-9.3-5.9-19.5-9.3-30.6l10.7-4.2c1.9,7.5,3.8,14.6,5.7,21.1c1.9,6.6,3,10.5,3.3,11.8h0.2
			c0.4-1.6,1.5-5.4,3.1-11.3c1.7-5.9,3.6-13.1,5.8-21.5L1210.5,761.4z"/>
	</g>
</g>
<path class="st23" d="M1790,360.2V209.6c0-14.5,11.7-26.2,26.2-26.2l0,0c14.5,0,26.2,11.7,26.2,26.2v150.6H1790z"/>
<rect x="1790" y="358" class="st24" width="52.4" height="176.7"/>
<rect x="1790" y="532.6" class="st25" width="52.4" height="176.7"/>
<rect x="1790" y="707.1" class="st6" width="52.4" height="176.7"/>
<path class="st5" d="M1790,1032.2V881.6h52.4v150.6c0,14.5-11.7,26.2-26.2,26.2l0,0C1801.8,1058.4,1790,1046.7,1790,1032.2z"/>
<pattern  id="SVGID_7_" xlink:href="#New_Pattern_2" patternTransform="matrix(0.4 0 0 0.4 -4223.9399 -6561.8003)">
</pattern>
<polygon class="st26" points="0,1920 0,1220 1920,1220 1920,1920 "/>
<rect x="1360.1" y="234.6" class="st0" width="451.4" height="74.4"/>
<g class="st21">
	<path d="M1369,252.6v10.1h-5.6v-26.4h7.7c3.6,0,6.2,0.7,8,2c1.7,1.3,2.6,3.3,2.6,6c0,1.6-0.4,2.9-1.3,4.1c-0.9,1.2-2.1,2.2-3.6,2.8
		c4,5.9,6.6,9.8,7.8,11.5h-6.2l-6.3-10.1H1369z M1369,248h1.8c1.8,0,3.1-0.3,3.9-0.9s1.3-1.5,1.3-2.8c0-1.3-0.4-2.1-1.3-2.7
		c-0.9-0.5-2.2-0.8-4-0.8h-1.7V248z"/>
	<path d="M1397.9,247.9h10.5v13.7c-1.7,0.6-3.3,0.9-4.8,1.2c-1.5,0.2-3,0.3-4.6,0.3c-4,0-7-1.2-9.1-3.5c-2.1-2.3-3.2-5.7-3.2-10.1
		c0-4.3,1.2-7.6,3.7-10c2.4-2.4,5.8-3.6,10.1-3.6c2.7,0,5.3,0.5,7.8,1.6l-1.9,4.5c-1.9-1-3.9-1.4-6-1.4c-2.4,0-4.4,0.8-5.8,2.4
		s-2.2,3.8-2.2,6.6c0,2.9,0.6,5.1,1.8,6.6c1.2,1.5,2.9,2.3,5.1,2.3c1.2,0,2.4-0.1,3.6-0.4v-5.5h-5V247.9z"/>
	<path d="M1414.6,236.3h8.2c3.7,0,6.5,0.5,8.2,1.6c1.7,1.1,2.5,2.8,2.5,5.1c0,1.6-0.4,2.9-1.1,3.9c-0.7,1-1.7,1.6-3,1.8v0.2
		c1.7,0.4,2.9,1.1,3.6,2.1c0.7,1,1.1,2.4,1.1,4.1c0,2.4-0.9,4.3-2.6,5.6s-4.1,2-7.1,2h-9.9V236.3z M1420.2,246.7h3.3
		c1.5,0,2.6-0.2,3.3-0.7c0.7-0.5,1-1.2,1-2.3c0-1-0.4-1.7-1.1-2.2c-0.7-0.4-1.9-0.7-3.5-0.7h-2.9V246.7z M1420.2,251.2v6.9h3.6
		c1.5,0,2.7-0.3,3.4-0.9c0.7-0.6,1.1-1.5,1.1-2.7c0-2.2-1.6-3.3-4.7-3.3H1420.2z"/>
</g>
<g class="st21">
	<path d="M1468.3,262.7h-2.9v-18.8c0-1.6,0-3,0.1-4.4c-0.3,0.3-0.5,0.5-0.8,0.8c-0.3,0.3-1.7,1.5-4.3,3.5l-1.6-2.1l7-5.4h2.5V262.7z
		"/>
</g>
<g class="st21">
	<path d="M1482,235.9c2.4,0,4.3,0.6,5.7,1.7c1.4,1.1,2.1,2.7,2.1,4.6c0,1.3-0.4,2.5-1.2,3.6s-2.1,2-3.9,2.9c2.1,1,3.7,2.1,4.6,3.2
		c0.9,1.1,1.4,2.4,1.4,3.9c0,2.2-0.8,3.9-2.3,5.2s-3.6,2-6.3,2c-2.8,0-5-0.6-6.5-1.9s-2.3-3-2.3-5.2c0-3,1.8-5.4,5.5-7.1
		c-1.7-0.9-2.9-2-3.6-3s-1.1-2.3-1.1-3.7c0-1.9,0.7-3.4,2.1-4.6C1477.7,236.5,1479.6,235.9,1482,235.9z M1476.2,256
		c0,1.4,0.5,2.6,1.5,3.4s2.4,1.2,4.2,1.2c1.8,0,3.2-0.4,4.2-1.3c1-0.8,1.5-2,1.5-3.5c0-1.2-0.5-2.2-1.4-3.1
		c-0.9-0.9-2.6-1.8-4.9-2.6c-1.8,0.8-3.1,1.6-3.9,2.6S1476.2,254.7,1476.2,256z M1481.9,238.3c-1.5,0-2.7,0.4-3.5,1.1
		s-1.3,1.7-1.3,2.9c0,1.1,0.4,2.1,1.1,2.9s2,1.6,3.9,2.4c1.7-0.7,2.9-1.5,3.7-2.3c0.7-0.8,1.1-1.8,1.1-2.9c0-1.2-0.4-2.2-1.3-2.9
		C1484.6,238.7,1483.4,238.3,1481.9,238.3z"/>
	<path d="M1497.7,262.7l10.9-23.6h-14.4v-2.8h17.6v2.4l-10.8,24H1497.7z"/>
	<path d="M1533.4,246.6c2.8,0,5,0.7,6.6,2.1c1.6,1.4,2.4,3.3,2.4,5.7c0,2.7-0.9,4.9-2.6,6.4c-1.7,1.6-4.1,2.3-7.2,2.3
		c-3,0-5.2-0.5-6.8-1.4v-2.9c0.8,0.5,1.9,1,3.1,1.3c1.3,0.3,2.5,0.5,3.7,0.5c2.1,0,3.8-0.5,4.9-1.5c1.2-1,1.8-2.4,1.8-4.3
		c0-3.7-2.3-5.5-6.8-5.5c-1.1,0-2.7,0.2-4.6,0.5l-1.6-1l1-12.4h13.1v2.8h-10.6l-0.7,7.9C1530.6,246.7,1532,246.6,1533.4,246.6z"/>
	<path d="M1554.5,246.6c2.8,0,5,0.7,6.6,2.1c1.6,1.4,2.4,3.3,2.4,5.7c0,2.7-0.9,4.9-2.6,6.4c-1.7,1.6-4.1,2.3-7.2,2.3
		c-3,0-5.2-0.5-6.8-1.4v-2.9c0.8,0.5,1.9,1,3.1,1.3c1.3,0.3,2.5,0.5,3.7,0.5c2.1,0,3.8-0.5,4.9-1.5c1.2-1,1.8-2.4,1.8-4.3
		c0-3.7-2.3-5.5-6.8-5.5c-1.1,0-2.7,0.2-4.6,0.5l-1.6-1l1-12.4h13.1v2.8h-10.6l-0.7,7.9C1551.8,246.7,1553.2,246.6,1554.5,246.6z"/>
	<path d="M1595.7,256.6h-3.9v6.1h-2.9v-6.1H1576V254l12.5-17.9h3.2v17.8h3.9V256.6z M1588.9,253.9v-8.8c0-1.7,0.1-3.7,0.2-5.8h-0.1
		c-0.6,1.2-1.1,2.1-1.6,2.9l-8.3,11.7H1588.9z"/>
	<path d="M1598.5,251.4c0-5.2,1-9.1,3-11.6c2-2.6,5-3.9,9-3.9c1.4,0,2.4,0.1,3.2,0.3v2.6c-0.9-0.3-2-0.5-3.2-0.5
		c-2.8,0-5,0.9-6.5,2.6c-1.5,1.8-2.3,4.5-2.5,8.3h0.2c1.3-2.1,3.4-3.1,6.3-3.1c2.4,0,4.2,0.7,5.6,2.2s2.1,3.4,2.1,5.8
		c0,2.7-0.8,4.9-2.2,6.5c-1.5,1.6-3.5,2.4-6.1,2.4c-2.7,0-4.9-1-6.5-3.1C1599.3,257.9,1598.5,255.1,1598.5,251.4z M1607.4,260.5
		c1.7,0,3-0.5,4-1.6s1.4-2.6,1.4-4.7c0-1.7-0.4-3.1-1.3-4.1c-0.9-1-2.2-1.5-3.9-1.5c-1.1,0-2.1,0.2-3,0.7c-0.9,0.4-1.6,1.1-2.2,1.8
		c-0.5,0.8-0.8,1.6-0.8,2.4c0,1.2,0.2,2.4,0.7,3.5c0.5,1.1,1.2,1.9,2.1,2.5C1605.2,260.2,1606.3,260.5,1607.4,260.5z"/>
</g>
<g class="st21">
	<path d="M1374.6,285c-2.1,0-3.7,0.8-4.9,2.4c-1.2,1.6-1.7,3.8-1.7,6.6c0,5.9,2.2,8.8,6.6,8.8c1.9,0,4.1-0.5,6.7-1.4v4.7
		c-2.2,0.9-4.6,1.4-7.3,1.4c-3.8,0-6.8-1.2-8.8-3.5c-2-2.3-3.1-5.7-3.1-10c0-2.7,0.5-5.2,1.5-7.2c1-2.1,2.4-3.6,4.3-4.8
		c1.9-1.1,4.1-1.7,6.6-1.7c2.6,0,5.1,0.6,7.7,1.9l-1.8,4.6c-1-0.5-2-0.9-3-1.2C1376.6,285.1,1375.6,285,1374.6,285z"/>
	<path d="M1398.2,307.1l-6.4-20.7h-0.2c0.2,4.2,0.3,7,0.3,8.4v12.3h-5v-26.4h7.6l6.3,20.2h0.1l6.6-20.2h7.6v26.4h-5.2v-12.5
		c0-0.6,0-1.3,0-2c0-0.8,0.1-2.8,0.2-6.1h-0.2l-6.8,20.7H1398.2z"/>
	<path d="M1430.1,291.6l5.5-10.9h6l-8.8,16.1v10.3h-5.6V297l-8.8-16.3h6.1L1430.1,291.6z"/>
	<path d="M1466.2,307.1h-6.4l-6.9-11.1l-2.4,1.7v9.4h-5.6v-26.4h5.6v12.1l2.2-3.1l7.2-9h6.2l-9.2,11.7L1466.2,307.1z"/>
</g>
<g class="st21">
	<path d="M1508,307.1h-2.9v-18.8c0-1.6,0-3,0.1-4.4c-0.3,0.3-0.5,0.5-0.8,0.8c-0.3,0.3-1.7,1.5-4.3,3.5l-1.6-2.1l7-5.4h2.5V307.1z"
		/>
	<path d="M1535.4,291.9c0,10.3-4,15.5-12,15.5c-1.4,0-2.5-0.1-3.3-0.4v-2.6c1,0.3,2.1,0.5,3.3,0.5c2.9,0,5.1-0.9,6.5-2.7
		c1.5-1.8,2.3-4.5,2.4-8.2h-0.2c-0.7,1-1.5,1.8-2.6,2.3c-1.1,0.5-2.3,0.8-3.7,0.8c-2.3,0-4.2-0.7-5.6-2.1c-1.4-1.4-2.1-3.3-2.1-5.9
		c0-2.7,0.8-4.9,2.3-6.5c1.5-1.6,3.6-2.4,6.1-2.4c1.8,0,3.4,0.5,4.7,1.4c1.3,0.9,2.4,2.3,3.1,4
		C1535.1,287.5,1535.4,289.6,1535.4,291.9z M1526.5,282.9c-1.7,0-3.1,0.6-4,1.7c-0.9,1.1-1.4,2.6-1.4,4.6c0,1.7,0.4,3.1,1.3,4.1
		c0.9,1,2.2,1.5,4,1.5c1.1,0,2.1-0.2,3-0.7c0.9-0.4,1.6-1.1,2.2-1.8c0.5-0.8,0.8-1.6,0.8-2.4c0-1.3-0.2-2.4-0.7-3.5
		s-1.2-1.9-2.1-2.5C1528.7,283.2,1527.7,282.9,1526.5,282.9z"/>
	<path d="M1566.2,291.9c0,10.3-4,15.5-12,15.5c-1.4,0-2.5-0.1-3.3-0.4v-2.6c1,0.3,2.1,0.5,3.3,0.5c2.9,0,5.1-0.9,6.5-2.7
		c1.5-1.8,2.3-4.5,2.4-8.2h-0.2c-0.7,1-1.5,1.8-2.6,2.3c-1.1,0.5-2.3,0.8-3.7,0.8c-2.3,0-4.2-0.7-5.6-2.1c-1.4-1.4-2.1-3.3-2.1-5.9
		c0-2.7,0.8-4.9,2.3-6.5c1.5-1.6,3.6-2.4,6.1-2.4c1.8,0,3.4,0.5,4.7,1.4c1.3,0.9,2.4,2.3,3.1,4
		C1565.8,287.5,1566.2,289.6,1566.2,291.9z M1557.3,282.9c-1.7,0-3.1,0.6-4,1.7c-0.9,1.1-1.4,2.6-1.4,4.6c0,1.7,0.4,3.1,1.3,4.1
		c0.9,1,2.2,1.5,4,1.5c1.1,0,2.1-0.2,3-0.7c0.9-0.4,1.6-1.1,2.2-1.8s0.8-1.6,0.8-2.4c0-1.3-0.2-2.4-0.7-3.5
		c-0.5-1.1-1.2-1.9-2.1-2.5C1559.5,283.2,1558.4,282.9,1557.3,282.9z"/>
	<path d="M1587.3,307.1H1570v-2.6l7-7c2.1-2.1,3.5-3.7,4.2-4.6c0.7-0.9,1.2-1.8,1.5-2.7c0.3-0.9,0.5-1.8,0.5-2.8
		c0-1.4-0.4-2.5-1.3-3.4s-2-1.2-3.6-1.2c-1.1,0-2.1,0.2-3.1,0.5c-1,0.4-2.1,1-3.3,2l-1.6-2c2.4-2,5.1-3,7.9-3c2.5,0,4.4,0.6,5.8,1.9
		c1.4,1.3,2.1,3,2.1,5.1c0,1.7-0.5,3.3-1.4,5c-0.9,1.6-2.7,3.7-5.3,6.2l-5.8,5.7v0.1h13.6V307.1z"/>
	<path d="M1618.1,291.9c0,10.3-4,15.5-12,15.5c-1.4,0-2.5-0.1-3.3-0.4v-2.6c1,0.3,2.1,0.5,3.3,0.5c2.9,0,5.1-0.9,6.5-2.7
		c1.5-1.8,2.3-4.5,2.4-8.2h-0.2c-0.7,1-1.5,1.8-2.6,2.3c-1.1,0.5-2.3,0.8-3.7,0.8c-2.3,0-4.2-0.7-5.6-2.1c-1.4-1.4-2.1-3.3-2.1-5.9
		c0-2.7,0.8-4.9,2.3-6.5c1.5-1.6,3.6-2.4,6.1-2.4c1.8,0,3.4,0.5,4.7,1.4c1.3,0.9,2.4,2.3,3.1,4
		C1617.8,287.5,1618.1,289.6,1618.1,291.9z M1609.2,282.9c-1.7,0-3.1,0.6-4,1.7c-0.9,1.1-1.4,2.6-1.4,4.6c0,1.7,0.4,3.1,1.3,4.1
		c0.9,1,2.2,1.5,4,1.5c1.1,0,2.1-0.2,3-0.7c0.9-0.4,1.6-1.1,2.2-1.8s0.8-1.6,0.8-2.4c0-1.3-0.2-2.4-0.7-3.5
		c-0.5-1.1-1.2-1.9-2.1-2.5C1611.4,283.2,1610.4,282.9,1609.2,282.9z"/>
	<path d="M1633,307.1h-2.9v-18.8c0-1.6,0-3,0.1-4.4c-0.3,0.3-0.5,0.5-0.8,0.8s-1.7,1.5-4.3,3.5l-1.6-2.1l7-5.4h2.5V307.1z"/>
	<path d="M1670,291.9c0,10.3-4,15.5-12,15.5c-1.4,0-2.5-0.1-3.3-0.4v-2.6c1,0.3,2.1,0.5,3.3,0.5c2.9,0,5.1-0.9,6.5-2.7
		c1.5-1.8,2.3-4.5,2.4-8.2h-0.2c-0.7,1-1.5,1.8-2.6,2.3c-1.1,0.5-2.3,0.8-3.7,0.8c-2.3,0-4.2-0.7-5.6-2.1c-1.4-1.4-2.1-3.3-2.1-5.9
		c0-2.7,0.8-4.9,2.3-6.5c1.5-1.6,3.6-2.4,6.1-2.4c1.8,0,3.4,0.5,4.7,1.4c1.3,0.9,2.4,2.3,3.1,4C1669.7,287.5,1670,289.6,1670,291.9z
		 M1661.1,282.9c-1.7,0-3.1,0.6-4,1.7c-0.9,1.1-1.4,2.6-1.4,4.6c0,1.7,0.4,3.1,1.3,4.1c0.9,1,2.2,1.5,4,1.5c1.1,0,2.1-0.2,3-0.7
		c0.9-0.4,1.6-1.1,2.2-1.8s0.8-1.6,0.8-2.4c0-1.3-0.2-2.4-0.7-3.5c-0.5-1.1-1.2-1.9-2.1-2.5C1663.3,283.2,1662.3,282.9,1661.1,282.9
		z"/>
</g>
<rect x="1360.1" y="409.1" class="st0" width="451.4" height="74.4"/>
<g class="st21">
	<path d="M1369,427.1v10.1h-5.6v-26.4h7.7c3.6,0,6.2,0.7,8,2c1.7,1.3,2.6,3.3,2.6,6c0,1.6-0.4,2.9-1.3,4.1c-0.9,1.2-2.1,2.2-3.6,2.8
		c4,5.9,6.6,9.8,7.8,11.5h-6.2l-6.3-10.1H1369z M1369,422.6h1.8c1.8,0,3.1-0.3,3.9-0.9s1.3-1.5,1.3-2.8c0-1.3-0.4-2.1-1.3-2.7
		c-0.9-0.5-2.2-0.8-4-0.8h-1.7V422.6z"/>
	<path d="M1397.9,422.4h10.5v13.7c-1.7,0.6-3.3,0.9-4.8,1.2c-1.5,0.2-3,0.3-4.6,0.3c-4,0-7-1.2-9.1-3.5c-2.1-2.3-3.2-5.7-3.2-10.1
		c0-4.3,1.2-7.6,3.7-10c2.4-2.4,5.8-3.6,10.1-3.6c2.7,0,5.3,0.5,7.8,1.6l-1.9,4.5c-1.9-1-3.9-1.4-6-1.4c-2.4,0-4.4,0.8-5.8,2.4
		s-2.2,3.8-2.2,6.6c0,2.9,0.6,5.1,1.8,6.6c1.2,1.5,2.9,2.3,5.1,2.3c1.2,0,2.4-0.1,3.6-0.4v-5.5h-5V422.4z"/>
	<path d="M1414.6,410.8h8.2c3.7,0,6.5,0.5,8.2,1.6c1.7,1.1,2.5,2.8,2.5,5.1c0,1.6-0.4,2.9-1.1,3.9c-0.7,1-1.7,1.6-3,1.8v0.2
		c1.7,0.4,2.9,1.1,3.6,2.1c0.7,1,1.1,2.4,1.1,4.1c0,2.4-0.9,4.3-2.6,5.6s-4.1,2-7.1,2h-9.9V410.8z M1420.2,421.3h3.3
		c1.5,0,2.6-0.2,3.3-0.7c0.7-0.5,1-1.2,1-2.3c0-1-0.4-1.7-1.1-2.2c-0.7-0.4-1.9-0.7-3.5-0.7h-2.9V421.3z M1420.2,425.7v6.9h3.6
		c1.5,0,2.7-0.3,3.4-0.9c0.7-0.6,1.1-1.5,1.1-2.7c0-2.2-1.6-3.3-4.7-3.3H1420.2z"/>
</g>
<g class="st21">
	<path d="M1468.3,437.2h-2.9v-18.8c0-1.6,0-3,0.1-4.4c-0.3,0.3-0.5,0.5-0.8,0.8c-0.3,0.3-1.7,1.5-4.3,3.5l-1.6-2.1l7-5.4h2.5V437.2z
		"/>
</g>
<g class="st21">
	<path d="M1481.5,421.1c2.8,0,5,0.7,6.6,2.1s2.4,3.3,2.4,5.7c0,2.7-0.9,4.9-2.6,6.4c-1.7,1.6-4.1,2.3-7.2,2.3c-3,0-5.2-0.5-6.8-1.4
		v-2.9c0.8,0.5,1.9,1,3.1,1.3c1.3,0.3,2.5,0.5,3.7,0.5c2.1,0,3.8-0.5,4.9-1.5c1.2-1,1.8-2.4,1.8-4.3c0-3.7-2.3-5.5-6.8-5.5
		c-1.1,0-2.7,0.2-4.6,0.5l-1.6-1l1-12.4h13.1v2.8H1478l-0.7,7.9C1478.7,421.2,1480.1,421.1,1481.5,421.1z"/>
	<path d="M1497.7,437.2l10.9-23.6h-14.4v-2.8h17.6v2.4l-10.8,24H1497.7z"/>
	<path d="M1543.7,431.2h-3.9v6.1h-2.9v-6.1h-12.8v-2.6l12.5-17.9h3.2v17.8h3.9V431.2z M1536.9,428.4v-8.8c0-1.7,0.1-3.7,0.2-5.8
		h-0.1c-0.6,1.2-1.1,2.1-1.6,2.9l-8.3,11.7H1536.9z"/>
	<path d="M1564.9,431.2h-3.9v6.1h-2.9v-6.1h-12.8v-2.6l12.5-17.9h3.2v17.8h3.9V431.2z M1558.1,428.4v-8.8c0-1.7,0.1-3.7,0.2-5.8
		h-0.1c-0.6,1.2-1.1,2.1-1.6,2.9l-8.3,11.7H1558.1z"/>
	<path d="M1593.4,417c0,1.7-0.5,3.1-1.4,4.1c-0.9,1.1-2.3,1.8-4,2.1v0.1c2.1,0.3,3.7,0.9,4.7,2s1.5,2.5,1.5,4.3
		c0,2.5-0.9,4.5-2.6,5.8c-1.7,1.4-4.2,2-7.4,2c-1.4,0-2.7-0.1-3.8-0.3c-1.2-0.2-2.3-0.6-3.4-1.1v-2.9c1.1,0.6,2.4,1,3.7,1.3
		c1.3,0.3,2.5,0.4,3.7,0.4c4.6,0,6.8-1.8,6.8-5.4c0-3.2-2.5-4.8-7.6-4.8h-2.6v-2.6h2.6c2.1,0,3.7-0.5,4.9-1.4
		c1.2-0.9,1.8-2.2,1.8-3.8c0-1.3-0.4-2.3-1.3-3c-0.9-0.7-2.1-1.1-3.6-1.1c-1.2,0-2.2,0.2-3.3,0.5c-1,0.3-2.2,0.9-3.5,1.7l-1.5-2
		c1.1-0.9,2.3-1.5,3.7-2c1.4-0.5,2.9-0.7,4.5-0.7c2.6,0,4.6,0.6,6,1.8C1592.7,413.4,1593.4,415,1593.4,417z"/>
	<path d="M1606.5,421.1c2.8,0,5,0.7,6.6,2.1s2.4,3.3,2.4,5.7c0,2.7-0.9,4.9-2.6,6.4c-1.7,1.6-4.1,2.3-7.2,2.3c-3,0-5.2-0.5-6.8-1.4
		v-2.9c0.8,0.5,1.9,1,3.1,1.3c1.3,0.3,2.5,0.5,3.7,0.5c2.1,0,3.8-0.5,4.9-1.5s1.8-2.4,1.8-4.3c0-3.7-2.3-5.5-6.8-5.5
		c-1.1,0-2.7,0.2-4.6,0.5l-1.6-1l1-12.4h13.1v2.8H1603l-0.7,7.9C1603.7,421.2,1605.1,421.1,1606.5,421.1z"/>
</g>
<g class="st21">
	<path d="M1374.6,459.5c-2.1,0-3.7,0.8-4.9,2.4c-1.2,1.6-1.7,3.8-1.7,6.6c0,5.9,2.2,8.8,6.6,8.8c1.9,0,4.1-0.5,6.7-1.4v4.7
		c-2.2,0.9-4.6,1.4-7.3,1.4c-3.8,0-6.8-1.2-8.8-3.5c-2-2.3-3.1-5.7-3.1-10c0-2.7,0.5-5.2,1.5-7.2c1-2.1,2.4-3.6,4.3-4.8
		c1.9-1.1,4.1-1.7,6.6-1.7c2.6,0,5.1,0.6,7.7,1.9l-1.8,4.6c-1-0.5-2-0.9-3-1.2C1376.6,459.7,1375.6,459.5,1374.6,459.5z"/>
	<path d="M1398.2,481.6l-6.4-20.7h-0.2c0.2,4.2,0.3,7,0.3,8.4v12.3h-5v-26.4h7.6l6.3,20.2h0.1l6.6-20.2h7.6v26.4h-5.2v-12.5
		c0-0.6,0-1.3,0-2c0-0.8,0.1-2.8,0.2-6.1h-0.2l-6.8,20.7H1398.2z"/>
	<path d="M1430.1,466.1l5.5-10.9h6l-8.8,16.1v10.3h-5.6v-10.1l-8.8-16.3h6.1L1430.1,466.1z"/>
	<path d="M1466.2,481.6h-6.4l-6.9-11.1l-2.4,1.7v9.4h-5.6v-26.4h5.6v12.1l2.2-3.1l7.2-9h6.2l-9.2,11.7L1466.2,481.6z"/>
</g>
<g class="st21">
	<path d="M1514.3,481.6h-17.4v-2.6l7-7c2.1-2.1,3.5-3.7,4.2-4.6s1.2-1.8,1.5-2.7s0.5-1.8,0.5-2.8c0-1.4-0.4-2.5-1.3-3.4
		c-0.9-0.8-2-1.2-3.6-1.2c-1.1,0-2.1,0.2-3.1,0.5s-2.1,1-3.3,2l-1.6-2c2.4-2,5.1-3,7.9-3c2.5,0,4.4,0.6,5.8,1.9
		c1.4,1.3,2.1,3,2.1,5.1c0,1.7-0.5,3.3-1.4,5c-0.9,1.6-2.7,3.7-5.3,6.2l-5.8,5.7v0.1h13.6V481.6z"/>
	<path d="M1526.3,465.5c2.8,0,5,0.7,6.6,2.1c1.6,1.4,2.4,3.3,2.4,5.7c0,2.7-0.9,4.9-2.6,6.4c-1.7,1.6-4.1,2.3-7.2,2.3
		c-3,0-5.2-0.5-6.8-1.4v-2.9c0.8,0.5,1.9,1,3.1,1.3c1.3,0.3,2.5,0.5,3.7,0.5c2.1,0,3.8-0.5,4.9-1.5c1.2-1,1.8-2.4,1.8-4.3
		c0-3.7-2.3-5.5-6.8-5.5c-1.1,0-2.7,0.2-4.6,0.5l-1.6-1l1-12.4h13.1v2.8h-10.6l-0.7,7.9C1523.6,465.7,1524.9,465.5,1526.3,465.5z"/>
	<path d="M1566.2,466.5c0,10.3-4,15.5-12,15.5c-1.4,0-2.5-0.1-3.3-0.4v-2.6c1,0.3,2.1,0.5,3.3,0.5c2.9,0,5.1-0.9,6.5-2.7
		c1.5-1.8,2.3-4.5,2.4-8.2h-0.2c-0.7,1-1.5,1.8-2.6,2.3c-1.1,0.5-2.3,0.8-3.7,0.8c-2.3,0-4.2-0.7-5.6-2.1c-1.4-1.4-2.1-3.3-2.1-5.9
		c0-2.7,0.8-4.9,2.3-6.5c1.5-1.6,3.6-2.4,6.1-2.4c1.8,0,3.4,0.5,4.7,1.4c1.3,0.9,2.4,2.3,3.1,4
		C1565.8,462,1566.2,464.1,1566.2,466.5z M1557.3,457.4c-1.7,0-3.1,0.6-4,1.7c-0.9,1.1-1.4,2.6-1.4,4.6c0,1.7,0.4,3.1,1.3,4.1
		c0.9,1,2.2,1.5,4,1.5c1.1,0,2.1-0.2,3-0.7c0.9-0.4,1.6-1.1,2.2-1.8s0.8-1.6,0.8-2.4c0-1.3-0.2-2.4-0.7-3.5
		c-0.5-1.1-1.2-1.9-2.1-2.5C1559.5,457.7,1558.4,457.4,1557.3,457.4z"/>
	<path d="M1588.6,475.6h-3.9v6.1h-2.9v-6.1H1569V473l12.5-17.9h3.2v17.8h3.9V475.6z M1581.8,472.8v-8.8c0-1.7,0.1-3.7,0.2-5.8h-0.1
		c-0.6,1.2-1.1,2.1-1.6,2.9l-8.3,11.7H1581.8z"/>
	<path d="M1618.1,466.5c0,10.3-4,15.5-12,15.5c-1.4,0-2.5-0.1-3.3-0.4v-2.6c1,0.3,2.1,0.5,3.3,0.5c2.9,0,5.1-0.9,6.5-2.7
		c1.5-1.8,2.3-4.5,2.4-8.2h-0.2c-0.7,1-1.5,1.8-2.6,2.3c-1.1,0.5-2.3,0.8-3.7,0.8c-2.3,0-4.2-0.7-5.6-2.1c-1.4-1.4-2.1-3.3-2.1-5.9
		c0-2.7,0.8-4.9,2.3-6.5c1.5-1.6,3.6-2.4,6.1-2.4c1.8,0,3.4,0.5,4.7,1.4c1.3,0.9,2.4,2.3,3.1,4
		C1617.8,462,1618.1,464.1,1618.1,466.5z M1609.2,457.4c-1.7,0-3.1,0.6-4,1.7c-0.9,1.1-1.4,2.6-1.4,4.6c0,1.7,0.4,3.1,1.3,4.1
		c0.9,1,2.2,1.5,4,1.5c1.1,0,2.1-0.2,3-0.7c0.9-0.4,1.6-1.1,2.2-1.8s0.8-1.6,0.8-2.4c0-1.3-0.2-2.4-0.7-3.5
		c-0.5-1.1-1.2-1.9-2.1-2.5C1611.4,457.7,1610.4,457.4,1609.2,457.4z"/>
	<path d="M1625.2,481.6l10.9-23.6h-14.4v-2.8h17.6v2.4l-10.8,24H1625.2z"/>
	<path d="M1670,481.6h-17.4v-2.6l7-7c2.1-2.1,3.5-3.7,4.2-4.6s1.2-1.8,1.5-2.7s0.5-1.8,0.5-2.8c0-1.4-0.4-2.5-1.3-3.4
		c-0.9-0.8-2-1.2-3.6-1.2c-1.1,0-2.1,0.2-3.1,0.5s-2.1,1-3.3,2l-1.6-2c2.4-2,5.1-3,7.9-3c2.5,0,4.4,0.6,5.8,1.9
		c1.4,1.3,2.1,3,2.1,5.1c0,1.7-0.5,3.3-1.4,5c-0.9,1.6-2.7,3.7-5.3,6.2l-5.8,5.7v0.1h13.6V481.6z"/>
	<path d="M1691.2,481.6h-17.4v-2.6l7-7c2.1-2.1,3.5-3.7,4.2-4.6c0.7-0.9,1.2-1.8,1.5-2.7c0.3-0.9,0.5-1.8,0.5-2.8
		c0-1.4-0.4-2.5-1.3-3.4s-2-1.2-3.6-1.2c-1.1,0-2.1,0.2-3.1,0.5c-1,0.4-2.1,1-3.3,2l-1.6-2c2.4-2,5.1-3,7.9-3c2.5,0,4.4,0.6,5.8,1.9
		c1.4,1.3,2.1,3,2.1,5.1c0,1.7-0.5,3.3-1.4,5c-0.9,1.6-2.7,3.7-5.3,6.2l-5.8,5.7v0.1h13.6V481.6z"/>
</g>
<rect x="1360.1" y="583.7" class="st0" width="451.4" height="74.4"/>
<g class="st21">
	<path d="M1369,601.7v10.1h-5.6v-26.4h7.7c3.6,0,6.2,0.7,8,2c1.7,1.3,2.6,3.3,2.6,6c0,1.6-0.4,2.9-1.3,4.1c-0.9,1.2-2.1,2.2-3.6,2.8
		c4,5.9,6.6,9.8,7.8,11.5h-6.2l-6.3-10.1H1369z M1369,597.1h1.8c1.8,0,3.1-0.3,3.9-0.9s1.3-1.5,1.3-2.8c0-1.3-0.4-2.1-1.3-2.7
		c-0.9-0.5-2.2-0.8-4-0.8h-1.7V597.1z"/>
	<path d="M1397.9,597h10.5v13.7c-1.7,0.6-3.3,0.9-4.8,1.2c-1.5,0.2-3,0.3-4.6,0.3c-4,0-7-1.2-9.1-3.5c-2.1-2.3-3.2-5.7-3.2-10.1
		c0-4.3,1.2-7.6,3.7-10c2.4-2.4,5.8-3.6,10.1-3.6c2.7,0,5.3,0.5,7.8,1.6l-1.9,4.5c-1.9-1-3.9-1.4-6-1.4c-2.4,0-4.4,0.8-5.8,2.4
		s-2.2,3.8-2.2,6.6c0,2.9,0.6,5.1,1.8,6.6c1.2,1.5,2.9,2.3,5.1,2.3c1.2,0,2.4-0.1,3.6-0.4v-5.5h-5V597z"/>
	<path d="M1414.6,585.4h8.2c3.7,0,6.5,0.5,8.2,1.6c1.7,1.1,2.5,2.8,2.5,5.1c0,1.6-0.4,2.9-1.1,3.9c-0.7,1-1.7,1.6-3,1.8v0.2
		c1.7,0.4,2.9,1.1,3.6,2.1c0.7,1,1.1,2.4,1.1,4.1c0,2.4-0.9,4.3-2.6,5.6s-4.1,2-7.1,2h-9.9V585.4z M1420.2,595.8h3.3
		c1.5,0,2.6-0.2,3.3-0.7c0.7-0.5,1-1.2,1-2.3c0-1-0.4-1.7-1.1-2.2c-0.7-0.4-1.9-0.7-3.5-0.7h-2.9V595.8z M1420.2,600.3v6.9h3.6
		c1.5,0,2.7-0.3,3.4-0.9c0.7-0.6,1.1-1.5,1.1-2.7c0-2.2-1.6-3.3-4.7-3.3H1420.2z"/>
</g>
<g class="st21">
	<path d="M1468.3,611.8h-2.9V593c0-1.6,0-3,0.1-4.4c-0.3,0.3-0.5,0.5-0.8,0.8c-0.3,0.3-1.7,1.5-4.3,3.5l-1.6-2.1l7-5.4h2.5V611.8z"
		/>
</g>
<g class="st21">
	<path d="M1490.6,611.8h-17.4v-2.6l7-7c2.1-2.1,3.5-3.7,4.2-4.6c0.7-0.9,1.2-1.8,1.5-2.7c0.3-0.9,0.5-1.8,0.5-2.8
		c0-1.4-0.4-2.5-1.3-3.4s-2-1.2-3.6-1.2c-1.1,0-2.1,0.2-3.1,0.5c-1,0.4-2.1,1-3.3,2l-1.6-2c2.4-2,5.1-3,7.9-3c2.5,0,4.4,0.6,5.8,1.9
		c1.4,1.3,2.1,3,2.1,5.1c0,1.7-0.5,3.3-1.4,5c-0.9,1.6-2.7,3.7-5.3,6.2l-5.8,5.7v0.1h13.6V611.8z"/>
	<path d="M1511.7,611.8h-17.4v-2.6l7-7c2.1-2.1,3.5-3.7,4.2-4.6s1.2-1.8,1.5-2.7s0.5-1.8,0.5-2.8c0-1.4-0.4-2.5-1.3-3.4
		c-0.9-0.8-2-1.2-3.6-1.2c-1.1,0-2.1,0.2-3.1,0.5c-1,0.4-2.1,1-3.3,2l-1.6-2c2.4-2,5.1-3,7.9-3c2.5,0,4.4,0.6,5.8,1.9
		c1.4,1.3,2.1,3,2.1,5.1c0,1.7-0.5,3.3-1.4,5c-0.9,1.6-2.7,3.7-5.3,6.2l-5.8,5.7v0.1h13.6V611.8z"/>
	<path d="M1541.5,591.6c0,1.7-0.5,3.1-1.4,4.1c-0.9,1.1-2.3,1.8-4,2.1v0.1c2.1,0.3,3.7,0.9,4.7,2c1,1.1,1.5,2.5,1.5,4.3
		c0,2.5-0.9,4.5-2.6,5.8c-1.7,1.4-4.2,2-7.4,2c-1.4,0-2.7-0.1-3.8-0.3c-1.2-0.2-2.3-0.6-3.4-1.1v-2.9c1.1,0.6,2.4,1,3.7,1.3
		c1.3,0.3,2.5,0.4,3.7,0.4c4.6,0,6.8-1.8,6.8-5.4c0-3.2-2.5-4.8-7.6-4.8h-2.6v-2.6h2.6c2.1,0,3.7-0.5,4.9-1.4s1.8-2.2,1.8-3.8
		c0-1.3-0.4-2.3-1.3-3c-0.9-0.7-2.1-1.1-3.6-1.1c-1.2,0-2.2,0.2-3.3,0.5c-1,0.3-2.2,0.9-3.5,1.7l-1.5-2c1.1-0.9,2.3-1.5,3.7-2
		c1.4-0.5,2.9-0.7,4.5-0.7c2.6,0,4.6,0.6,6,1.8C1540.8,587.9,1541.5,589.6,1541.5,591.6z"/>
	<path d="M1563.8,598.6c0,4.6-0.7,8-2.2,10.2c-1.4,2.3-3.6,3.4-6.6,3.4c-2.8,0-5-1.2-6.5-3.5c-1.5-2.3-2.2-5.7-2.2-10.1
		c0-4.6,0.7-8,2.2-10.2s3.6-3.3,6.6-3.3c2.9,0,5,1.2,6.5,3.5C1563,590.8,1563.8,594.2,1563.8,598.6z M1549.4,598.6
		c0,3.8,0.5,6.6,1.4,8.4c0.9,1.8,2.3,2.6,4.3,2.6c2,0,3.4-0.9,4.3-2.7c0.9-1.8,1.3-4.6,1.3-8.4c0-3.8-0.4-6.6-1.3-8.3
		c-0.9-1.8-2.3-2.6-4.3-2.6c-2,0-3.4,0.9-4.3,2.6S1549.4,594.7,1549.4,598.6z"/>
</g>
<g class="st21">
	<path d="M1594.4,611.8H1577v-2.6l7-7c2.1-2.1,3.5-3.7,4.2-4.6c0.7-0.9,1.2-1.8,1.5-2.7c0.3-0.9,0.5-1.8,0.5-2.8
		c0-1.4-0.4-2.5-1.3-3.4s-2-1.2-3.6-1.2c-1.1,0-2.1,0.2-3.1,0.5c-1,0.4-2.1,1-3.3,2l-1.6-2c2.4-2,5.1-3,7.9-3c2.5,0,4.4,0.6,5.8,1.9
		c1.4,1.3,2.1,3,2.1,5.1c0,1.7-0.5,3.3-1.4,5c-0.9,1.6-2.7,3.7-5.3,6.2l-5.8,5.7v0.1h13.6V611.8z"/>
</g>
<g class="st21">
	<path d="M1607.1,611.8h-2.9V593c0-1.6,0-3,0.1-4.4c-0.3,0.3-0.5,0.5-0.8,0.8s-1.7,1.5-4.3,3.5l-1.6-2.1l7-5.4h2.5V611.8z"/>
</g>
<g class="st21">
	<path d="M1374.6,634.1c-2.1,0-3.7,0.8-4.9,2.4c-1.2,1.6-1.7,3.8-1.7,6.6c0,5.9,2.2,8.8,6.6,8.8c1.9,0,4.1-0.5,6.7-1.4v4.7
		c-2.2,0.9-4.6,1.4-7.3,1.4c-3.8,0-6.8-1.2-8.8-3.5c-2-2.3-3.1-5.7-3.1-10c0-2.7,0.5-5.2,1.5-7.2c1-2.1,2.4-3.6,4.3-4.8
		c1.9-1.1,4.1-1.7,6.6-1.7c2.6,0,5.1,0.6,7.7,1.9l-1.8,4.6c-1-0.5-2-0.9-3-1.2C1376.6,634.2,1375.6,634.1,1374.6,634.1z"/>
	<path d="M1398.2,656.2l-6.4-20.7h-0.2c0.2,4.2,0.3,7,0.3,8.4v12.3h-5v-26.4h7.6l6.3,20.2h0.1l6.6-20.2h7.6v26.4h-5.2v-12.5
		c0-0.6,0-1.3,0-2c0-0.8,0.1-2.8,0.2-6.1h-0.2l-6.8,20.7H1398.2z"/>
	<path d="M1430.1,640.7l5.5-10.9h6l-8.8,16.1v10.3h-5.6v-10.1l-8.8-16.3h6.1L1430.1,640.7z"/>
	<path d="M1466.2,656.2h-6.4l-6.9-11.1l-2.4,1.7v9.4h-5.6v-26.4h5.6v12.1l2.2-3.1l7.2-9h6.2l-9.2,11.7L1466.2,656.2z"/>
</g>
<g class="st21">
	<path d="M1513.3,636c0,1.7-0.5,3.1-1.4,4.1c-0.9,1.1-2.3,1.8-4,2.1v0.1c2.1,0.3,3.7,0.9,4.7,2c1,1.1,1.5,2.5,1.5,4.3
		c0,2.5-0.9,4.5-2.6,5.8c-1.7,1.4-4.2,2-7.4,2c-1.4,0-2.7-0.1-3.8-0.3c-1.2-0.2-2.3-0.6-3.4-1.1v-2.9c1.1,0.6,2.4,1,3.7,1.3
		c1.3,0.3,2.5,0.4,3.7,0.4c4.6,0,6.8-1.8,6.8-5.4c0-3.2-2.5-4.8-7.6-4.8h-2.6v-2.6h2.6c2.1,0,3.7-0.5,4.9-1.4
		c1.2-0.9,1.8-2.2,1.8-3.8c0-1.3-0.4-2.3-1.3-3c-0.9-0.7-2.1-1.1-3.6-1.1c-1.2,0-2.2,0.2-3.3,0.5c-1,0.3-2.2,0.9-3.5,1.7l-1.5-2
		c1.1-0.9,2.3-1.5,3.7-2c1.4-0.5,2.9-0.7,4.5-0.7c2.6,0,4.6,0.6,6,1.8C1512.6,632.3,1513.3,634,1513.3,636z"/>
	<path d="M1535.6,643c0,4.6-0.7,8-2.2,10.2c-1.4,2.3-3.6,3.4-6.6,3.4c-2.8,0-5-1.2-6.5-3.5c-1.5-2.3-2.2-5.7-2.2-10.1
		c0-4.6,0.7-8,2.2-10.2c1.4-2.2,3.6-3.3,6.6-3.3c2.9,0,5,1.2,6.5,3.5S1535.6,638.6,1535.6,643z M1521.1,643c0,3.8,0.5,6.6,1.4,8.4
		c0.9,1.8,2.3,2.6,4.3,2.6c2,0,3.4-0.9,4.3-2.7c0.9-1.8,1.3-4.6,1.3-8.4c0-3.8-0.4-6.6-1.3-8.3c-0.9-1.8-2.3-2.6-4.3-2.6
		c-2,0-3.4,0.9-4.3,2.6S1521.1,639.1,1521.1,643z"/>
	<path d="M1566.2,641.1c0,10.3-4,15.5-12,15.5c-1.4,0-2.5-0.1-3.3-0.4v-2.6c1,0.3,2.1,0.5,3.3,0.5c2.9,0,5.1-0.9,6.5-2.7
		c1.5-1.8,2.3-4.5,2.4-8.2h-0.2c-0.7,1-1.5,1.8-2.6,2.3c-1.1,0.5-2.3,0.8-3.7,0.8c-2.3,0-4.2-0.7-5.6-2.1c-1.4-1.4-2.1-3.3-2.1-5.9
		c0-2.7,0.8-4.9,2.3-6.5c1.5-1.6,3.6-2.4,6.1-2.4c1.8,0,3.4,0.5,4.7,1.4c1.3,0.9,2.4,2.3,3.1,4
		C1565.8,636.6,1566.2,638.7,1566.2,641.1z M1557.3,632c-1.7,0-3.1,0.6-4,1.7c-0.9,1.1-1.4,2.6-1.4,4.6c0,1.7,0.4,3.1,1.3,4.1
		c0.9,1,2.2,1.5,4,1.5c1.1,0,2.1-0.2,3-0.7c0.9-0.4,1.6-1.1,2.2-1.8s0.8-1.6,0.8-2.4c0-1.3-0.2-2.4-0.7-3.5
		c-0.5-1.1-1.2-1.9-2.1-2.5C1559.5,632.3,1558.4,632,1557.3,632z"/>
	<path d="M1578.2,640.1c2.8,0,5,0.7,6.6,2.1c1.6,1.4,2.4,3.3,2.4,5.7c0,2.7-0.9,4.9-2.6,6.4c-1.7,1.6-4.1,2.3-7.2,2.3
		c-3,0-5.2-0.5-6.8-1.4v-2.9c0.8,0.5,1.9,1,3.1,1.3c1.3,0.3,2.5,0.5,3.7,0.5c2.1,0,3.8-0.5,4.9-1.5c1.2-1,1.8-2.4,1.8-4.3
		c0-3.7-2.3-5.5-6.8-5.5c-1.1,0-2.7,0.2-4.6,0.5l-1.6-1l1-12.4h13.1v2.8h-10.6l-0.7,7.9C1575.5,640.2,1576.9,640.1,1578.2,640.1z"/>
</g>
<g class="st21">
	<path d="M1611.8,656.2h-2.9v-18.8c0-1.6,0-3,0.1-4.4c-0.3,0.3-0.5,0.5-0.8,0.8c-0.3,0.3-1.7,1.5-4.3,3.5l-1.6-2.1l7-5.4h2.5V656.2z
		"/>
</g>
<g class="st21">
	<path d="M1634.2,643c0,4.6-0.7,8-2.2,10.2c-1.4,2.3-3.6,3.4-6.6,3.4c-2.8,0-5-1.2-6.5-3.5c-1.5-2.3-2.2-5.7-2.2-10.1
		c0-4.6,0.7-8,2.2-10.2c1.4-2.2,3.6-3.3,6.6-3.3c2.9,0,5,1.2,6.5,3.5S1634.2,638.6,1634.2,643z M1619.8,643c0,3.8,0.5,6.6,1.4,8.4
		c0.9,1.8,2.3,2.6,4.3,2.6c2,0,3.4-0.9,4.3-2.7c0.9-1.8,1.3-4.6,1.3-8.4c0-3.8-0.4-6.6-1.3-8.3c-0.9-1.8-2.3-2.6-4.3-2.6
		c-2,0-3.4,0.9-4.3,2.6C1620.2,636.3,1619.8,639.1,1619.8,643z"/>
	<path d="M1655.4,643c0,4.6-0.7,8-2.2,10.2c-1.4,2.3-3.6,3.4-6.6,3.4c-2.8,0-5-1.2-6.5-3.5c-1.5-2.3-2.2-5.7-2.2-10.1
		c0-4.6,0.7-8,2.1-10.2c1.4-2.2,3.6-3.3,6.6-3.3c2.9,0,5,1.2,6.5,3.5C1654.6,635.2,1655.4,638.6,1655.4,643z M1640.9,643
		c0,3.8,0.5,6.6,1.4,8.4c0.9,1.8,2.3,2.6,4.3,2.6c2,0,3.4-0.9,4.3-2.7c0.9-1.8,1.3-4.6,1.3-8.4c0-3.8-0.4-6.6-1.3-8.3
		c-0.9-1.8-2.3-2.6-4.3-2.6c-2,0-3.4,0.9-4.3,2.6S1640.9,639.1,1640.9,643z"/>
	<path d="M1687.2,650.1h-3.9v6.1h-2.9v-6.1h-12.8v-2.6l12.5-17.9h3.2v17.8h3.9V650.1z M1680.4,647.4v-8.8c0-1.7,0.1-3.7,0.2-5.8
		h-0.1c-0.6,1.2-1.1,2.1-1.6,2.9l-8.3,11.7H1680.4z"/>
	<path d="M1707.3,643c0,4.6-0.7,8-2.2,10.2c-1.4,2.3-3.6,3.4-6.6,3.4c-2.8,0-5-1.2-6.5-3.5c-1.5-2.3-2.2-5.7-2.2-10.1
		c0-4.6,0.7-8,2.2-10.2s3.6-3.3,6.6-3.3c2.9,0,5,1.2,6.5,3.5C1706.5,635.2,1707.3,638.6,1707.3,643z M1692.9,643
		c0,3.8,0.5,6.6,1.4,8.4c0.9,1.8,2.3,2.6,4.3,2.6c2,0,3.4-0.9,4.3-2.7c0.9-1.8,1.3-4.6,1.3-8.4c0-3.8-0.4-6.6-1.3-8.3
		c-0.9-1.8-2.3-2.6-4.3-2.6c-2,0-3.4,0.9-4.3,2.6S1692.9,639.1,1692.9,643z"/>
</g>
<rect x="1360.1" y="758.2" class="st0" width="451.4" height="74.4"/>
<g class="st21">
	<path d="M1369,776.2v10.1h-5.6v-26.4h7.7c3.6,0,6.2,0.7,8,2c1.7,1.3,2.6,3.3,2.6,6c0,1.6-0.4,2.9-1.3,4.1c-0.9,1.2-2.1,2.2-3.6,2.8
		c4,5.9,6.6,9.8,7.8,11.5h-6.2l-6.3-10.1H1369z M1369,771.7h1.8c1.8,0,3.1-0.3,3.9-0.9s1.3-1.5,1.3-2.8c0-1.3-0.4-2.1-1.3-2.7
		c-0.9-0.5-2.2-0.8-4-0.8h-1.7V771.7z"/>
	<path d="M1397.9,771.5h10.5v13.7c-1.7,0.6-3.3,0.9-4.8,1.2c-1.5,0.2-3,0.3-4.6,0.3c-4,0-7-1.2-9.1-3.5c-2.1-2.3-3.2-5.7-3.2-10.1
		c0-4.3,1.2-7.6,3.7-10c2.4-2.4,5.8-3.6,10.1-3.6c2.7,0,5.3,0.5,7.8,1.6l-1.9,4.5c-1.9-1-3.9-1.4-6-1.4c-2.4,0-4.4,0.8-5.8,2.4
		s-2.2,3.8-2.2,6.6c0,2.9,0.6,5.1,1.8,6.6c1.2,1.5,2.9,2.3,5.1,2.3c1.2,0,2.4-0.1,3.6-0.4v-5.5h-5V771.5z"/>
	<path d="M1414.6,759.9h8.2c3.7,0,6.5,0.5,8.2,1.6c1.7,1.1,2.5,2.8,2.5,5.1c0,1.6-0.4,2.9-1.1,3.9c-0.7,1-1.7,1.6-3,1.8v0.2
		c1.7,0.4,2.9,1.1,3.6,2.1c0.7,1,1.1,2.4,1.1,4.1c0,2.4-0.9,4.3-2.6,5.6s-4.1,2-7.1,2h-9.9V759.9z M1420.2,770.4h3.3
		c1.5,0,2.6-0.2,3.3-0.7c0.7-0.5,1-1.2,1-2.3c0-1-0.4-1.7-1.1-2.2c-0.7-0.4-1.9-0.7-3.5-0.7h-2.9V770.4z M1420.2,774.9v6.9h3.6
		c1.5,0,2.7-0.3,3.4-0.9c0.7-0.6,1.1-1.5,1.1-2.7c0-2.2-1.6-3.3-4.7-3.3H1420.2z"/>
</g>
<g class="st21">
	<path d="M1474.6,771.2c0,10.3-4,15.5-12,15.5c-1.4,0-2.5-0.1-3.3-0.4v-2.6c1,0.3,2.1,0.5,3.3,0.5c2.9,0,5.1-0.9,6.5-2.7
		c1.5-1.8,2.3-4.5,2.4-8.2h-0.2c-0.7,1-1.5,1.8-2.6,2.3c-1.1,0.5-2.3,0.8-3.7,0.8c-2.3,0-4.2-0.7-5.6-2.1c-1.4-1.4-2.1-3.3-2.1-5.9
		c0-2.7,0.8-4.9,2.3-6.5s3.6-2.4,6.1-2.4c1.8,0,3.4,0.5,4.7,1.4c1.3,0.9,2.4,2.3,3.1,4C1474.2,766.7,1474.6,768.8,1474.6,771.2z
		 M1465.7,762.1c-1.7,0-3.1,0.6-4,1.7c-0.9,1.1-1.4,2.6-1.4,4.6c0,1.7,0.4,3.1,1.3,4.1c0.9,1,2.2,1.5,4,1.5c1.1,0,2.1-0.2,3-0.7
		c0.9-0.4,1.6-1.1,2.2-1.8s0.8-1.6,0.8-2.4c0-1.3-0.2-2.4-0.7-3.5s-1.2-1.9-2.1-2.5S1466.8,762.1,1465.7,762.1z"/>
	<path d="M1494.7,766.2c0,1.7-0.5,3.1-1.4,4.1c-0.9,1.1-2.3,1.8-4,2.1v0.1c2.1,0.3,3.7,0.9,4.7,2c1,1.1,1.5,2.5,1.5,4.3
		c0,2.5-0.9,4.5-2.6,5.8c-1.7,1.4-4.2,2-7.4,2c-1.4,0-2.7-0.1-3.8-0.3c-1.2-0.2-2.3-0.6-3.4-1.1v-2.9c1.1,0.6,2.4,1,3.7,1.3
		c1.3,0.3,2.5,0.4,3.7,0.4c4.6,0,6.8-1.8,6.8-5.4c0-3.2-2.5-4.8-7.6-4.8h-2.6v-2.6h2.6c2.1,0,3.7-0.5,4.9-1.4s1.8-2.2,1.8-3.8
		c0-1.3-0.4-2.3-1.3-3c-0.9-0.7-2.1-1.1-3.6-1.1c-1.2,0-2.2,0.2-3.3,0.5c-1,0.3-2.2,0.9-3.5,1.7l-1.5-2c1.1-0.9,2.3-1.5,3.7-2
		c1.4-0.5,2.9-0.7,4.5-0.7c2.6,0,4.6,0.6,6,1.8C1494,762.5,1494.7,764.1,1494.7,766.2z"/>
</g>
<g class="st21">
	<path d="M1520.2,786.4h-2.9v-18.8c0-1.6,0-3,0.1-4.4c-0.3,0.3-0.5,0.5-0.8,0.8c-0.3,0.3-1.7,1.5-4.3,3.5l-1.6-2.1l7-5.4h2.5V786.4z
		"/>
</g>
<g class="st21">
	<path d="M1541.5,766.2c0,1.7-0.5,3.1-1.4,4.1c-0.9,1.1-2.3,1.8-4,2.1v0.1c2.1,0.3,3.7,0.9,4.7,2c1,1.1,1.5,2.5,1.5,4.3
		c0,2.5-0.9,4.5-2.6,5.8c-1.7,1.4-4.2,2-7.4,2c-1.4,0-2.7-0.1-3.8-0.3c-1.2-0.2-2.3-0.6-3.4-1.1v-2.9c1.1,0.6,2.4,1,3.7,1.3
		c1.3,0.3,2.5,0.4,3.7,0.4c4.6,0,6.8-1.8,6.8-5.4c0-3.2-2.5-4.8-7.6-4.8h-2.6v-2.6h2.6c2.1,0,3.7-0.5,4.9-1.4
		c1.2-0.9,1.8-2.2,1.8-3.8c0-1.3-0.4-2.3-1.3-3s-2.1-1.1-3.6-1.1c-1.2,0-2.2,0.2-3.3,0.5c-1,0.3-2.2,0.9-3.5,1.7l-1.5-2
		c1.1-0.9,2.3-1.5,3.7-2c1.4-0.5,2.9-0.7,4.5-0.7c2.6,0,4.6,0.6,6,1.8C1540.8,762.5,1541.5,764.1,1541.5,766.2z"/>
	<path d="M1573.2,786.4h-17.4v-2.6l7-7c2.1-2.1,3.5-3.7,4.2-4.6c0.7-0.9,1.2-1.8,1.5-2.7c0.3-0.9,0.5-1.8,0.5-2.8
		c0-1.4-0.4-2.5-1.3-3.4c-0.9-0.8-2-1.2-3.6-1.2c-1.1,0-2.1,0.2-3.1,0.5s-2.1,1-3.3,2l-1.6-2c2.4-2,5.1-3,7.9-3
		c2.5,0,4.4,0.6,5.8,1.9c1.4,1.3,2.1,3,2.1,5.1c0,1.7-0.5,3.3-1.4,5c-0.9,1.6-2.7,3.7-5.3,6.2l-5.8,5.7v0.1h13.6V786.4z"/>
</g>
<g class="st21">
	<path d="M1374.6,808.6c-2.1,0-3.7,0.8-4.9,2.4c-1.2,1.6-1.7,3.8-1.7,6.6c0,5.9,2.2,8.8,6.6,8.8c1.9,0,4.1-0.5,6.7-1.4v4.7
		c-2.2,0.9-4.6,1.4-7.3,1.4c-3.8,0-6.8-1.2-8.8-3.5c-2-2.3-3.1-5.7-3.1-10c0-2.7,0.5-5.2,1.5-7.2c1-2.1,2.4-3.6,4.3-4.8
		c1.9-1.1,4.1-1.7,6.6-1.7c2.6,0,5.1,0.6,7.7,1.9l-1.8,4.6c-1-0.5-2-0.9-3-1.2C1376.6,808.8,1375.6,808.6,1374.6,808.6z"/>
	<path d="M1398.2,830.8l-6.4-20.7h-0.2c0.2,4.2,0.3,7,0.3,8.4v12.3h-5v-26.4h7.6l6.3,20.2h0.1l6.6-20.2h7.6v26.4h-5.2v-12.5
		c0-0.6,0-1.3,0-2c0-0.8,0.1-2.8,0.2-6.1h-0.2l-6.8,20.7H1398.2z"/>
	<path d="M1430.1,815.2l5.5-10.9h6l-8.8,16.1v10.3h-5.6v-10.1l-8.8-16.3h6.1L1430.1,815.2z"/>
	<path d="M1466.2,830.8h-6.4l-6.9-11.1l-2.4,1.7v9.4h-5.6v-26.4h5.6v12.1l2.2-3.1l7.2-9h6.2l-9.2,11.7L1466.2,830.8z"/>
</g>
<g class="st21">
	<path d="M1513.3,810.6c0,1.7-0.5,3.1-1.4,4.1c-0.9,1.1-2.3,1.8-4,2.1v0.1c2.1,0.3,3.7,0.9,4.7,2c1,1.1,1.5,2.5,1.5,4.3
		c0,2.5-0.9,4.5-2.6,5.8c-1.7,1.4-4.2,2-7.4,2c-1.4,0-2.7-0.1-3.8-0.3c-1.2-0.2-2.3-0.6-3.4-1.1v-2.9c1.1,0.6,2.4,1,3.7,1.3
		c1.3,0.3,2.5,0.4,3.7,0.4c4.6,0,6.8-1.8,6.8-5.4c0-3.2-2.5-4.8-7.6-4.8h-2.6v-2.6h2.6c2.1,0,3.7-0.5,4.9-1.4
		c1.2-0.9,1.8-2.2,1.8-3.8c0-1.3-0.4-2.3-1.3-3c-0.9-0.7-2.1-1.1-3.6-1.1c-1.2,0-2.2,0.2-3.3,0.5c-1,0.3-2.2,0.9-3.5,1.7l-1.5-2
		c1.1-0.9,2.3-1.5,3.7-2c1.4-0.5,2.9-0.7,4.5-0.7c2.6,0,4.6,0.6,6,1.8C1512.6,806.9,1513.3,808.5,1513.3,810.6z"/>
	<path d="M1518.4,819.5c0-5.2,1-9.1,3-11.6c2-2.6,5-3.9,9-3.9c1.4,0,2.4,0.1,3.2,0.3v2.6c-0.9-0.3-2-0.5-3.2-0.5
		c-2.8,0-5,0.9-6.5,2.6c-1.5,1.8-2.3,4.5-2.5,8.3h0.2c1.3-2.1,3.4-3.1,6.3-3.1c2.4,0,4.2,0.7,5.6,2.2s2.1,3.4,2.1,5.8
		c0,2.7-0.8,4.9-2.2,6.5c-1.5,1.6-3.5,2.4-6.1,2.4c-2.7,0-4.9-1-6.5-3.1S1518.4,823.1,1518.4,819.5z M1527.2,828.6
		c1.7,0,3-0.5,4-1.6c0.9-1.1,1.4-2.6,1.4-4.7c0-1.7-0.4-3.1-1.3-4.1c-0.9-1-2.2-1.5-3.9-1.5c-1.1,0-2.1,0.2-3,0.7
		c-0.9,0.4-1.6,1.1-2.2,1.8c-0.5,0.8-0.8,1.6-0.8,2.4c0,1.2,0.2,2.4,0.7,3.5c0.5,1.1,1.2,1.9,2,2.5
		C1525.1,828.3,1526.1,828.6,1527.2,828.6z"/>
	<path d="M1566.2,815.6c0,10.3-4,15.5-12,15.5c-1.4,0-2.5-0.1-3.3-0.4v-2.6c1,0.3,2.1,0.5,3.3,0.5c2.9,0,5.1-0.9,6.5-2.7
		c1.5-1.8,2.3-4.5,2.4-8.2h-0.2c-0.7,1-1.5,1.8-2.6,2.3c-1.1,0.5-2.3,0.8-3.7,0.8c-2.3,0-4.2-0.7-5.6-2.1c-1.4-1.4-2.1-3.3-2.1-5.9
		c0-2.7,0.8-4.9,2.3-6.5c1.5-1.6,3.6-2.4,6.1-2.4c1.8,0,3.4,0.5,4.7,1.4c1.3,0.9,2.4,2.3,3.1,4
		C1565.8,811.1,1566.2,813.2,1566.2,815.6z M1557.3,806.5c-1.7,0-3.1,0.6-4,1.7c-0.9,1.1-1.4,2.6-1.4,4.6c0,1.7,0.4,3.1,1.3,4.1
		c0.9,1,2.2,1.5,4,1.5c1.1,0,2.1-0.2,3-0.7c0.9-0.4,1.6-1.1,2.2-1.8s0.8-1.6,0.8-2.4c0-1.3-0.2-2.4-0.7-3.5
		c-0.5-1.1-1.2-1.9-2.1-2.5C1559.5,806.8,1558.4,806.5,1557.3,806.5z"/>
	<path d="M1578.2,814.6c2.8,0,5,0.7,6.6,2.1c1.6,1.4,2.4,3.3,2.4,5.7c0,2.7-0.9,4.9-2.6,6.4c-1.7,1.6-4.1,2.3-7.2,2.3
		c-3,0-5.2-0.5-6.8-1.4v-2.9c0.8,0.5,1.9,1,3.1,1.3c1.3,0.3,2.5,0.5,3.7,0.5c2.1,0,3.8-0.5,4.9-1.5c1.2-1,1.8-2.4,1.8-4.3
		c0-3.7-2.3-5.5-6.8-5.5c-1.1,0-2.7,0.2-4.6,0.5l-1.6-1l1-12.4h13.1v2.8h-10.6l-0.7,7.9C1575.5,814.8,1576.9,814.6,1578.2,814.6z"/>
	<path d="M1618.1,815.6c0,10.3-4,15.5-12,15.5c-1.4,0-2.5-0.1-3.3-0.4v-2.6c1,0.3,2.1,0.5,3.3,0.5c2.9,0,5.1-0.9,6.5-2.7
		c1.5-1.8,2.3-4.5,2.4-8.2h-0.2c-0.7,1-1.5,1.8-2.6,2.3c-1.1,0.5-2.3,0.8-3.7,0.8c-2.3,0-4.2-0.7-5.6-2.1c-1.4-1.4-2.1-3.3-2.1-5.9
		c0-2.7,0.8-4.9,2.3-6.5c1.5-1.6,3.6-2.4,6.1-2.4c1.8,0,3.4,0.5,4.7,1.4c1.3,0.9,2.4,2.3,3.1,4
		C1617.8,811.1,1618.1,813.2,1618.1,815.6z M1609.2,806.5c-1.7,0-3.1,0.6-4,1.7c-0.9,1.1-1.4,2.6-1.4,4.6c0,1.7,0.4,3.1,1.3,4.1
		c0.9,1,2.2,1.5,4,1.5c1.1,0,2.1-0.2,3-0.7c0.9-0.4,1.6-1.1,2.2-1.8s0.8-1.6,0.8-2.4c0-1.3-0.2-2.4-0.7-3.5
		c-0.5-1.1-1.2-1.9-2.1-2.5C1611.4,806.8,1610.4,806.5,1609.2,806.5z"/>
	<path d="M1630.2,814.6c2.8,0,5,0.7,6.6,2.1c1.6,1.4,2.4,3.3,2.4,5.7c0,2.7-0.9,4.9-2.6,6.4c-1.7,1.6-4.1,2.3-7.2,2.3
		c-3,0-5.2-0.5-6.8-1.4v-2.9c0.8,0.5,1.9,1,3.1,1.3c1.3,0.3,2.5,0.5,3.7,0.5c2.1,0,3.8-0.5,4.9-1.5c1.2-1,1.8-2.4,1.8-4.3
		c0-3.7-2.3-5.5-6.8-5.5c-1.1,0-2.7,0.2-4.6,0.5l-1.6-1l1-12.4h13.1v2.8h-10.6l-0.7,7.9C1627.4,814.8,1628.8,814.6,1630.2,814.6z"/>
	<path d="M1660.9,814.6c2.8,0,5,0.7,6.6,2.1s2.4,3.3,2.4,5.7c0,2.7-0.9,4.9-2.6,6.4c-1.7,1.6-4.1,2.3-7.2,2.3c-3,0-5.2-0.5-6.8-1.4
		v-2.9c0.8,0.5,1.9,1,3.1,1.3c1.3,0.3,2.5,0.5,3.7,0.5c2.1,0,3.8-0.5,4.9-1.5c1.2-1,1.8-2.4,1.8-4.3c0-3.7-2.3-5.5-6.8-5.5
		c-1.1,0-2.7,0.2-4.6,0.5l-1.6-1l1-12.4h13.1v2.8h-10.6l-0.7,7.9C1658.2,814.8,1659.6,814.6,1660.9,814.6z"/>
	<path d="M1677.2,830.8l10.9-23.6h-14.4v-2.8h17.6v2.4l-10.8,24H1677.2z"/>
</g>
<rect x="1360.1" y="932.8" class="st0" width="451.4" height="74.4"/>
<g class="st21">
	<path d="M1369,950.8v10.1h-5.6v-26.4h7.7c3.6,0,6.2,0.7,8,2c1.7,1.3,2.6,3.3,2.6,6c0,1.6-0.4,2.9-1.3,4.1c-0.9,1.2-2.1,2.2-3.6,2.8
		c4,5.9,6.6,9.8,7.8,11.5h-6.2l-6.3-10.1H1369z M1369,946.2h1.8c1.8,0,3.1-0.3,3.9-0.9s1.3-1.5,1.3-2.8c0-1.3-0.4-2.1-1.3-2.7
		c-0.9-0.5-2.2-0.8-4-0.8h-1.7V946.2z"/>
	<path d="M1397.9,946.1h10.5v13.7c-1.7,0.6-3.3,0.9-4.8,1.2c-1.5,0.2-3,0.3-4.6,0.3c-4,0-7-1.2-9.1-3.5c-2.1-2.3-3.2-5.7-3.2-10.1
		c0-4.3,1.2-7.6,3.7-10c2.4-2.4,5.8-3.6,10.1-3.6c2.7,0,5.3,0.5,7.8,1.6l-1.9,4.5c-1.9-1-3.9-1.4-6-1.4c-2.4,0-4.4,0.8-5.8,2.4
		s-2.2,3.8-2.2,6.6c0,2.9,0.6,5.1,1.8,6.6c1.2,1.5,2.9,2.3,5.1,2.3c1.2,0,2.4-0.1,3.6-0.4v-5.5h-5V946.1z"/>
	<path d="M1414.6,934.5h8.2c3.7,0,6.5,0.5,8.2,1.6c1.7,1.1,2.5,2.8,2.5,5.1c0,1.6-0.4,2.9-1.1,3.9c-0.7,1-1.7,1.6-3,1.8v0.2
		c1.7,0.4,2.9,1.1,3.6,2.1c0.7,1,1.1,2.4,1.1,4.1c0,2.4-0.9,4.3-2.6,5.6c-1.7,1.3-4.1,2-7.1,2h-9.9V934.5z M1420.2,945h3.3
		c1.5,0,2.6-0.2,3.3-0.7c0.7-0.5,1-1.2,1-2.3c0-1-0.4-1.7-1.1-2.2c-0.7-0.4-1.9-0.7-3.5-0.7h-2.9V945z M1420.2,949.4v6.9h3.6
		c1.5,0,2.7-0.3,3.4-0.9c0.7-0.6,1.1-1.5,1.1-2.7c0-2.2-1.6-3.3-4.7-3.3H1420.2z"/>
</g>
<g class="st21">
	<path d="M1475.8,954.8h-3.9v6.1h-2.9v-6.1h-12.8v-2.6l12.5-17.9h3.2v17.8h3.9V954.8z M1469,952.1v-8.8c0-1.7,0.1-3.7,0.2-5.8h-0.1
		c-0.6,1.2-1.1,2.1-1.6,2.9l-8.3,11.7H1469z"/>
	<path d="M1494.7,940.7c0,1.7-0.5,3.1-1.4,4.1c-0.9,1.1-2.3,1.8-4,2.1v0.1c2.1,0.3,3.7,0.9,4.7,2c1,1.1,1.5,2.5,1.5,4.3
		c0,2.5-0.9,4.5-2.6,5.8c-1.7,1.4-4.2,2-7.4,2c-1.4,0-2.7-0.1-3.8-0.3s-2.3-0.6-3.4-1.1V957c1.1,0.6,2.4,1,3.7,1.3
		c1.3,0.3,2.5,0.4,3.7,0.4c4.6,0,6.8-1.8,6.8-5.4c0-3.2-2.5-4.8-7.6-4.8h-2.6V946h2.6c2.1,0,3.7-0.5,4.9-1.4s1.8-2.2,1.8-3.8
		c0-1.3-0.4-2.3-1.3-3c-0.9-0.7-2.1-1.1-3.6-1.1c-1.2,0-2.2,0.2-3.3,0.5c-1,0.3-2.2,0.9-3.5,1.7l-1.5-2c1.1-0.9,2.3-1.5,3.7-2
		c1.4-0.5,2.9-0.7,4.5-0.7c2.6,0,4.6,0.6,6,1.8C1494,937.1,1494.7,938.7,1494.7,940.7z"/>
	<path d="M1526.6,947.7c0,4.6-0.7,8-2.2,10.2c-1.4,2.3-3.6,3.4-6.6,3.4c-2.8,0-5-1.2-6.5-3.5c-1.5-2.3-2.2-5.7-2.2-10.1
		c0-4.6,0.7-8,2.2-10.2s3.6-3.3,6.6-3.3c2.9,0,5,1.2,6.5,3.5C1525.9,939.9,1526.6,943.3,1526.6,947.7z M1512.2,947.7
		c0,3.8,0.5,6.6,1.4,8.4c0.9,1.8,2.3,2.6,4.3,2.6c2,0,3.4-0.9,4.3-2.7c0.9-1.8,1.3-4.6,1.3-8.4c0-3.8-0.4-6.6-1.3-8.3
		c-0.9-1.8-2.3-2.6-4.3-2.6c-2,0-3.4,0.9-4.3,2.6S1512.2,943.8,1512.2,947.7z"/>
	<path d="M1557.4,947.7c0,4.6-0.7,8-2.2,10.2c-1.4,2.3-3.6,3.4-6.6,3.4c-2.8,0-5-1.2-6.5-3.5c-1.5-2.3-2.2-5.7-2.2-10.1
		c0-4.6,0.7-8,2.2-10.2c1.4-2.2,3.6-3.3,6.6-3.3c2.9,0,5,1.2,6.5,3.5S1557.4,943.3,1557.4,947.7z M1543,947.7c0,3.8,0.5,6.6,1.4,8.4
		c0.9,1.8,2.3,2.6,4.3,2.6c2,0,3.4-0.9,4.3-2.7c0.9-1.8,1.3-4.6,1.3-8.4c0-3.8-0.4-6.6-1.3-8.3c-0.9-1.8-2.3-2.6-4.3-2.6
		c-2,0-3.4,0.9-4.3,2.6C1543.4,941,1543,943.8,1543,947.7z"/>
</g>
<g class="st21">
	<path d="M1374.6,983.2c-2.1,0-3.7,0.8-4.9,2.4c-1.2,1.6-1.7,3.8-1.7,6.6c0,5.9,2.2,8.8,6.6,8.8c1.9,0,4.1-0.5,6.7-1.4v4.7
		c-2.2,0.9-4.6,1.4-7.3,1.4c-3.8,0-6.8-1.2-8.8-3.5c-2-2.3-3.1-5.7-3.1-10c0-2.7,0.5-5.2,1.5-7.2c1-2.1,2.4-3.6,4.3-4.8
		c1.9-1.1,4.1-1.7,6.6-1.7c2.6,0,5.1,0.6,7.7,1.9l-1.8,4.6c-1-0.5-2-0.9-3-1.2C1376.6,983.4,1375.6,983.2,1374.6,983.2z"/>
	<path d="M1398.2,1005.3l-6.4-20.7h-0.2c0.2,4.2,0.3,7,0.3,8.4v12.3h-5v-26.4h7.6l6.3,20.2h0.1l6.6-20.2h7.6v26.4h-5.2v-12.5
		c0-0.6,0-1.3,0-2c0-0.8,0.1-2.8,0.2-6.1h-0.2l-6.8,20.7H1398.2z"/>
	<path d="M1430.1,989.8l5.5-10.9h6l-8.8,16.1v10.3h-5.6v-10.1l-8.8-16.3h6.1L1430.1,989.8z"/>
	<path d="M1466.2,1005.3h-6.4l-6.9-11.1l-2.4,1.7v9.4h-5.6v-26.4h5.6V991l2.2-3.1l7.2-9h6.2l-9.2,11.7L1466.2,1005.3z"/>
</g>
<g class="st21">
	<path d="M1505.2,989.2c2.8,0,5,0.7,6.6,2.1s2.4,3.3,2.4,5.7c0,2.7-0.9,4.9-2.6,6.4c-1.7,1.6-4.1,2.3-7.2,2.3c-3,0-5.2-0.5-6.8-1.4
		v-2.9c0.8,0.5,1.9,1,3.1,1.3c1.3,0.3,2.5,0.5,3.7,0.5c2.1,0,3.8-0.5,4.9-1.5c1.2-1,1.8-2.4,1.8-4.3c0-3.7-2.3-5.5-6.8-5.5
		c-1.1,0-2.7,0.2-4.6,0.5l-1.6-1l1-12.4h13.1v2.8h-10.6l-0.7,7.9C1502.4,989.3,1503.8,989.2,1505.2,989.2z"/>
	<path d="M1526.3,989.2c2.8,0,5,0.7,6.6,2.1c1.6,1.4,2.4,3.3,2.4,5.7c0,2.7-0.9,4.9-2.6,6.4c-1.7,1.6-4.1,2.3-7.2,2.3
		c-3,0-5.2-0.5-6.8-1.4v-2.9c0.8,0.5,1.9,1,3.1,1.3c1.3,0.3,2.5,0.5,3.7,0.5c2.1,0,3.8-0.5,4.9-1.5c1.2-1,1.8-2.4,1.8-4.3
		c0-3.7-2.3-5.5-6.8-5.5c-1.1,0-2.7,0.2-4.6,0.5l-1.6-1l1-12.4h13.1v2.8h-10.6l-0.7,7.9C1523.6,989.3,1524.9,989.2,1526.3,989.2z"/>
	<path d="M1552.2,1005.3l10.9-23.6h-14.4v-2.8h17.6v2.4l-10.8,24H1552.2z"/>
	<path d="M1573.3,1005.3l10.9-23.6h-14.4v-2.8h17.6v2.4l-10.8,24H1573.3z"/>
	<path d="M1601.1,994c0-5.2,1-9.1,3-11.6c2-2.6,5-3.9,9-3.9c1.4,0,2.4,0.1,3.2,0.3v2.6c-0.9-0.3-2-0.5-3.2-0.5c-2.8,0-5,0.9-6.5,2.6
		c-1.5,1.8-2.3,4.5-2.5,8.3h0.2c1.3-2.1,3.4-3.1,6.3-3.1c2.4,0,4.2,0.7,5.6,2.2c1.4,1.4,2,3.4,2,5.8c0,2.7-0.7,4.9-2.2,6.5
		c-1.5,1.6-3.5,2.4-6.1,2.4c-2.7,0-4.9-1-6.5-3.1C1601.9,1000.5,1601.1,997.7,1601.1,994z M1609.9,1003.1c1.7,0,3-0.5,4-1.6
		s1.4-2.6,1.4-4.7c0-1.7-0.4-3.1-1.3-4.1c-0.9-1-2.2-1.5-3.9-1.5c-1.1,0-2.1,0.2-3,0.7c-0.9,0.4-1.6,1.1-2.2,1.8
		c-0.5,0.8-0.8,1.6-0.8,2.4c0,1.2,0.2,2.4,0.7,3.5s1.2,1.9,2.1,2.5C1607.8,1002.8,1608.8,1003.1,1609.9,1003.1z"/>
	<path d="M1639.3,990.2c0,10.3-4,15.5-12,15.5c-1.4,0-2.5-0.1-3.3-0.4v-2.6c1,0.3,2.1,0.5,3.3,0.5c2.9,0,5.1-0.9,6.5-2.7
		c1.5-1.8,2.3-4.5,2.4-8.2h-0.2c-0.7,1-1.5,1.8-2.6,2.3c-1.1,0.5-2.3,0.8-3.7,0.8c-2.3,0-4.2-0.7-5.6-2.1c-1.4-1.4-2.1-3.3-2.1-5.9
		c0-2.7,0.8-4.9,2.3-6.5c1.5-1.6,3.6-2.4,6.1-2.4c1.8,0,3.4,0.5,4.7,1.4c1.3,0.9,2.4,2.3,3.1,4
		C1638.9,985.7,1639.3,987.8,1639.3,990.2z M1630.4,981.1c-1.7,0-3.1,0.6-4,1.7c-0.9,1.1-1.4,2.6-1.4,4.6c0,1.7,0.4,3.1,1.3,4.1
		c0.9,1,2.2,1.5,4,1.5c1.1,0,2.1-0.2,3-0.7c0.9-0.4,1.6-1.1,2.2-1.8c0.5-0.8,0.8-1.6,0.8-2.4c0-1.3-0.2-2.4-0.7-3.5
		s-1.2-1.9-2.1-2.5C1632.5,981.4,1631.5,981.1,1630.4,981.1z"/>
	<path d="M1661.4,978.5c2.4,0,4.3,0.6,5.7,1.7s2.1,2.7,2.1,4.6c0,1.3-0.4,2.5-1.2,3.6s-2.1,2-3.9,2.9c2.1,1,3.7,2.1,4.6,3.2
		c0.9,1.1,1.4,2.4,1.4,3.9c0,2.2-0.8,3.9-2.3,5.2c-1.5,1.3-3.6,2-6.3,2c-2.8,0-5-0.6-6.5-1.9s-2.3-3-2.3-5.2c0-3,1.8-5.4,5.5-7.1
		c-1.7-0.9-2.9-2-3.6-3s-1.1-2.3-1.1-3.7c0-1.9,0.7-3.4,2.1-4.6C1657.2,979.1,1659,978.5,1661.4,978.5z M1655.7,998.7
		c0,1.4,0.5,2.6,1.5,3.4c1,0.8,2.4,1.2,4.2,1.2c1.8,0,3.2-0.4,4.2-1.3c1-0.8,1.5-2,1.5-3.5c0-1.2-0.5-2.2-1.4-3.1
		c-0.9-0.9-2.6-1.8-4.9-2.6c-1.8,0.8-3.1,1.6-3.9,2.6S1655.7,997.4,1655.7,998.7z M1661.4,981c-1.5,0-2.7,0.4-3.5,1.1
		c-0.9,0.7-1.3,1.7-1.3,2.9c0,1.1,0.4,2.1,1.1,2.9c0.7,0.8,2,1.6,3.9,2.4c1.7-0.7,2.9-1.5,3.7-2.3c0.7-0.8,1.1-1.8,1.1-2.9
		c0-1.2-0.4-2.2-1.3-2.9C1664.1,981.3,1662.9,981,1661.4,981z"/>
	<path d="M1691.3,992.1c0,4.6-0.7,8-2.2,10.2c-1.4,2.3-3.6,3.4-6.6,3.4c-2.8,0-5-1.2-6.5-3.5c-1.5-2.3-2.2-5.7-2.2-10.1
		c0-4.6,0.7-8,2.2-10.2c1.4-2.2,3.6-3.3,6.6-3.3c2.9,0,5,1.2,6.5,3.5S1691.3,987.7,1691.3,992.1z M1676.9,992.1
		c0,3.8,0.5,6.6,1.4,8.4c0.9,1.8,2.3,2.6,4.3,2.6c2,0,3.4-0.9,4.3-2.7c0.9-1.8,1.3-4.6,1.3-8.4c0-3.8-0.4-6.6-1.3-8.3
		c-0.9-1.8-2.3-2.6-4.3-2.6c-2,0-3.4,0.9-4.3,2.6S1676.9,988.2,1676.9,992.1z"/>
</g>
</svg>
