<?xml version="1.0" encoding="utf-8"?>
<!-- Generator: Adobe Illustrator 23.0.6, SVG Export Plug-In . SVG Version: 6.00 Build 0)  -->
<svg version="1.1" id="Layer_1" xmlns="http://www.w3.org/2000/svg" xmlns:xlink="http://www.w3.org/1999/xlink" x="0px" y="0px"
	 viewBox="0 0 1000 1290.9" style="enable-background:new 0 0 1000 1290.9;" xml:space="preserve">
<style type="text/css">
	.st0{fill:none;stroke:#414042;stroke-miterlimit:10;}
	.st1{fill:#06A79D;}
	.st2{fill:#333333;}
	.st3{fill:#DE4535;}
	.st4{fill:#F79325;}
	.st5{fill:#DCDDDE;}
	.st6{font-family:'ArialMT';}
	.st7{font-size:20px;}
	.st8{fill:#555555;}
	.st9{clip-path:url(#SVGID_2_);}
	.st10{clip-path:url(#SVGID_4_);fill:#00A79D;}
	.st11{clip-path:url(#SVGID_4_);fill:#FFFFFF;}
</style>
<line class="st0" x1="124.5" y1="524.2" x2="875.5" y2="524.2"/>
<line class="st0" x1="124.5" y1="847.7" x2="875.5" y2="847.7"/>
<line class="st0" x1="499.5" y1="1197.3" x2="499.5" y2="968"/>
<g>
	<g>
		<path d="M546.1,1066.5l5.2-14.2l2.3-0.1l5.1,14.3l1.9,0.4v1.4H554v-1.4l2.1-0.4l-0.9-2.6h-6l-0.9,2.6l2.2,0.4v1.4h-6.3v-1.4
			L546.1,1066.5z M554.6,1062.1l-2.3-6.9l-2.4,6.9H554.6z"/>
		<path d="M563.7,1066.4V1054l-2-0.5v-1.3l4.3-0.1h2.6c2.9,0,4.9,1.3,4.9,4c0,2.1-1.1,3.2-3,3.7c2.4,0.6,3.6,1.9,3.6,3.7
			c0,3.2-2.1,4.6-5.9,4.6h-6.6v-1.4L563.7,1066.4z M567.8,1059.1c2.1,0,3.4-0.8,3.4-2.6c0-1.6-1.1-2.4-2.6-2.4H566v5.1H567.8z
			 M568.5,1066.4c2.2,0,3.3-0.9,3.3-2.6c0-2.3-1.5-3-4-3H566v5.6H568.5z"/>
		<path d="M584.7,1053.9c-3.1,0-4.8,2.3-4.8,6.6c0,4.1,2.1,6,4.9,6c2.4,0,4.6-1.8,4.6-1.8l0.9,1.5c0,0-2.3,2.4-5.7,2.4
			c-4.6,0-7.4-2.8-7.4-7.9c0-5.3,3-8.6,7.7-8.6c2.5,0,5.2,1.1,5.2,1.1l-0.1,3.9h-1.7l-0.6-2.6
			C587.6,1054.4,586.4,1053.9,584.7,1053.9z"/>
		<path d="M594.6,1066.4V1054l-2-0.5v-1.3l4.4-0.1h2.9c4.5,0,7.2,2.8,7.2,7.8s-3,8.3-7.6,8.3h-6.9v-1.4L594.6,1066.4z M604.5,1060.1
			c0-4.3-1.8-6.1-4.7-6.1H597v12.4h2.6C602.5,1066.4,604.5,1064.5,604.5,1060.1z"/>
		<path d="M614.3,1059h5.3v1.8h-5.3v5.6h5.3l0.5-2.3h1.5v4.1H610v-1.4l2-0.5V1054l-2-0.5v-1.3l4.4-0.1h7v3.9h-1.5l-0.6-2.1h-4.9
			V1059z"/>
		<path d="M628.7,1059.2h5.3v1.8h-5.3v5.4l2.3,0.5v1.4h-6.7v-1.4l2-0.5V1054l-2-0.5v-1.3l4.4-0.1h7v3.8h-1.5l-0.6-2h-4.9V1059.2z"/>
		<path d="M645.7,1068.5c-4.6,0-7.4-2.8-7.4-7.9c0-5.3,3-8.6,7.7-8.6c2.5,0,5.2,1.1,5.2,1.1l-0.1,3.8h-1.5l-0.7-2.5
			c0,0-1.4-0.5-3.1-0.5c-3.1,0-4.8,2.3-4.8,6.6c0,4.1,2.1,6.1,5.1,6.1c1.6,0,3.2-0.6,3.2-0.6v-3.8l-2-0.5v-1.3l6-0.1v1.4l-1.7,0.5
			v4.9C651.6,1067.1,649.2,1068.5,645.7,1068.5z"/>
		<path d="M655.6,1068.3v-1.4l2-0.5V1054l-2-0.5v-1.3l6.6-0.1v1.4l-2.2,0.5v5.1h7.7v-5.1l-2.2-0.5v-1.3l6.6-0.1v1.4l-2,0.5v12.4
			l2,0.5v1.4h-6.6v-1.4l2.2-0.5v-5.5H660v5.5l2.2,0.5v1.4H655.6z"/>
		<path d="M674.5,1068.3v-1.4l2-0.5V1054l-2-0.5v-1.3l6.3-0.1v1.4l-2,0.5v12.4l2,0.5v1.4H674.5z"/>
		<path d="M689.6,1053.6l-2,0.5v13.2c0,2.8-1.6,4.5-4.4,4.5c-0.6,0-1.5-0.1-1.5-0.1l0.2-1.7h1.1c1.5,0,2.1-0.8,2.1-2.2V1054l-2-0.5
			v-1.3l6.3-0.1V1053.6z"/>
		<path d="M707.2,1066.9v1.4h-6.6v-1.4l2-0.5l-3.9-5.5h-2.3v5.5l2,0.5v1.4h-6.3v-1.4l2-0.5V1054l-2-0.5v-1.3l6.3-0.1v1.4l-2,0.5v5.1
			h2.1l3.2-5.1l-1.7-0.4v-1.3l6.3-0.1v1.4l-2.1,0.5l-3.7,5.8l4.7,6.6L707.2,1066.9z"/>
		<path d="M717.4,1066.4l0.5-2.6h1.6v4.5h-11.2v-1.4l2-0.5V1054l-2-0.5v-1.3l6.3-0.1v1.4l-2,0.5v12.4H717.4z"/>
		<path d="M735.3,1066.4v-11.5l-0.7,1.7l-3.6,7.2l-1.8,0.1l-3.6-7.5l-0.6-1.6v11.5l2.2,0.5v1.4H721v-1.4l2-0.5V1054l-2-0.5v-1.3
			l5.2-0.1l4.2,9.2l4.3-9.1l4.8-0.1v1.4l-2,0.5v12.4l2,0.5v1.4h-6.4v-1.4L735.3,1066.4z"/>
		<path d="M745.9,1066.4l2.2,0.5v1.4h-6.2v-1.4l2-0.5V1054l-2-0.5v-1.3l4.8-0.1l7.6,12.9v-11l-2-0.5v-1.3l6-0.1v1.4l-2,0.5v14.3
			h-2.9l-7.6-12.7V1066.4z"/>
		<path d="M775.5,1060c0,5.1-3.1,8.5-7.6,8.5c-4.5,0-7-2.9-7-8.2c0-5.1,2.9-8.4,7.5-8.4C772.9,1052,775.5,1055.1,775.5,1060z
			 M763.6,1060.2c0,4.1,1.5,6.3,4.5,6.3s4.8-2.1,4.8-6.4c0-4.1-1.6-6.2-4.6-6.2S763.6,1055.9,763.6,1060.2z"/>
		<path d="M780.3,1066.4V1054l-2-0.5v-1.3l4.4-0.1h2.4c3.4,0,5.3,1.8,5.3,4.7c0,3.6-2.3,5.4-6.2,5.4h-1.5v4.1l2,0.5v1.4h-6.3v-1.4
			L780.3,1066.4z M784.2,1060.5c2.5,0,3.8-1.1,3.8-3.2c0-1.8-1-3.2-3-3.2h-2.3v6.4H784.2z"/>
		<path d="M806.8,1072.5c-0.9,0-2.1-0.7-3-1.3l-4.6-2.8c-4.1-0.3-6.5-3.1-6.5-8.1c0-5.1,3.1-8.4,7.7-8.4s7.1,3.1,7.1,8
			c0,4.1-2,7.2-5.2,8.2l2.5,1.5c0.7,0.4,1.6,0.9,2.4,0.9s2.2-0.8,2.2-0.8l0.9,1.4C810.4,1071.2,808.1,1072.5,806.8,1072.5z
			 M795.3,1060.2c0,4,1.6,6.3,4.8,6.3c3.2,0,4.9-2.2,4.9-6.4c0-4-1.5-6.2-4.7-6.2C797.2,1053.9,795.3,1056,795.3,1060.2z"/>
		<path d="M811.8,1066.4V1054l-2-0.5v-1.3l4.4-0.1h2.5c3.2,0,5.2,1.6,5.2,4.1c0,2.2-1,3.7-3,4.5c0.4,0.3,0.8,0.9,1.4,2.1l1.8,3.7
			l1.6,0.4v1.4h-3.4l-2-4.3c-1.1-2.3-1.6-2.8-3.1-2.8h-1v5.2l2,0.5v1.4h-6.3v-1.4L811.8,1066.4z M815.9,1059.5
			c2.3,0,3.6-1.1,3.6-2.9c0-1.5-1.2-2.6-2.9-2.6h-2.4v5.5H815.9z"/>
		<path d="M830.7,1066.6c1.7,0,3.5-0.8,3.5-2.5c0-3.5-8.3-2.1-8.3-7.6c0-3.2,2.6-4.6,5.5-4.6c2.2,0,4.9,0.9,4.9,0.9l-0.1,3.9h-1.5
			l-0.8-2.5c0,0-1.2-0.4-2.4-0.4c-2.1,0-3.1,1.1-3.1,2.2c0,3.5,8.3,2.2,8.3,7.3c0,3.4-2.8,5-6,5c-2.4,0-4.7-0.9-4.7-0.9v-4h1.8
			l0.5,2.4C828.2,1066,829.3,1066.6,830.7,1066.6z"/>
		<path d="M841.5,1068.3v-1.4l2.3-0.5V1054h-3l-0.6,2.3h-1.5v-4.1h12.5v4.1h-1.5l-0.6-2.3h-3v12.4l2.3,0.5v1.4H841.5z"/>
		<path d="M860.9,1068.5c-4.5,0-6.1-2.2-6.1-6.4v-8l-2-0.5v-1.3l6.6-0.1v1.4l-2.2,0.5v8c0,3.4,1.1,4.5,3.8,4.5
			c2.9,0,3.8-1.3,3.8-4.8v-7.7l-2.2-0.5v-1.3l6.6-0.1v1.4l-2,0.5v7.7C867.2,1066,865.8,1068.5,860.9,1068.5z"/>
		<path d="M870,1053.6v-1.3l6.4-0.1v1.4l-2.1,0.4l3.6,11.2l3.8-11.2l-2.1-0.5v-1.3l6.2-0.1v1.4l-1.8,0.5l-5.1,14.3h-2.3l-4.9-14.3
			L870,1053.6z"/>
		<path d="M886.6,1053.6v-1.3l6.4-0.1v1.4l-2,0.5l2.5,10.4l3.8-12.1l2.2-0.1l3.7,12.5l2.9-10.7l-2.1-0.5v-1.3l6.2-0.1v1.4l-1.8,0.5
			l-4,14.3h-2.5l-2.8-10.6l-0.7-2.5l-0.7,2.6l-3.1,10.5h-2.3l-3.8-14.3L886.6,1053.6z"/>
		<path d="M912.4,1066.6l4.8-6.4l-4.3-6.1l-1.7-0.5v-1.3l6.1-0.1v1.4l-1.5,0.5l3,4.4l3-4.4l-1.6-0.5v-1.3l6.1-0.1v1.4l-2.1,0.5
			l-4.1,6l4.5,6.4l2,0.5v1.4h-6.2v-1.4l1.4-0.3l-3.2-4.7l-3.4,4.6l2,0.5v1.4h-6.1v-1.4L912.4,1066.6z"/>
		<path d="M933.5,1066.4v-4.1l-4.4-8.3l-1.5-0.4v-1.3l5.7-0.1v1.4l-1.6,0.5l3.1,6.4l3.4-6.4l-1.8-0.5v-1.3l5.5-0.1v1.4l-1.4,0.4
			l-4.6,8.3v4.2l2,0.5v1.4h-6.3v-1.4L933.5,1066.4z"/>
		<path d="M955.8,1053.8l-9.2,12.6h7.1l0.5-2.3h1.5v4.1h-12.2v-1.6l9.2-12.6h-6.4l-0.6,2.3h-1.5v-4.1h11.6V1053.8z"/>
		<path d="M585.2,1085.9c2.7,0,4.3,0.9,4.3,3.6v7l1.8,0.5v1.3l-3.6,0.1l-0.5-1.6c-0.8,0.8-2.2,1.8-3.8,1.8c-2.2,0-3.4-1.3-3.4-3.4
			c0-2.6,2.1-3.6,5.3-3.6h1.8v-1.8c0-1.4-0.8-2.1-2.2-2.1s-2.3,0.3-2.3,0.3l-0.3,1.7h-1.5l-0.1-2.9
			C580.7,1086.8,583.2,1085.9,585.2,1085.9z M582.4,1095c0,1,0.6,1.7,1.7,1.7c1.7,0,3.1-1.8,3.1-1.8v-1.8h-1.6
			C583.2,1093,582.4,1093.6,582.4,1095z"/>
		<path d="M600.4,1085.9c3.3,0,4.8,2.4,4.8,6c0,3.9-2.2,6.7-6.3,6.7c-2.5,0-4.3-0.6-4.3-0.6v-15.5l-1.8-0.5v-1.3l4.1-0.1v6.6
			C597.7,1086.6,598.9,1085.9,600.4,1085.9z M599.2,1096.7c2.7,0,3.6-2.1,3.6-4.6s-0.8-4.4-2.9-4.4s-3,1.5-3,1.5v7.2
			C596.9,1096.4,597.5,1096.7,599.2,1096.7z"/>
		<path d="M615.5,1087.9c0,0-0.9-0.2-2.1-0.2c-2.2,0-3.4,1.4-3.4,4.3c0,3.1,1.4,4.7,3.6,4.7s3.6-1.4,3.6-1.4l0.8,1.4
			c0,0-2.1,1.8-4.6,1.8c-3.8,0-5.7-2.4-5.7-6.3c0-3.7,2.3-6.3,6-6.3c2.1,0,3.9,0.9,3.9,0.9l-0.1,3.1h-1.5L615.5,1087.9z"/>
		<path d="M632.4,1096.9v1.3l-3.9,0.1l-0.2-1.3c-0.7,0.7-1.9,1.5-3.6,1.5c-3.3,0-4.8-2.4-4.8-6c0-3.9,2-6.7,6.1-6.7
			c0.9,0,1.6,0.2,2.2,0.4v-3.8l-2-0.5v-1.3l4.3-0.1v15.9L632.4,1096.9z M625.8,1087.7c-2.7,0-3.4,2.1-3.4,4.6s0.8,4.4,2.9,4.4
			c2,0,3-1.7,3-1.7v-6.8C628.2,1088.2,627.4,1087.7,625.8,1087.7z"/>
		<path d="M640.1,1096.7c2.3,0,3.9-1.3,3.9-1.3l0.8,1.2c0,0-2.1,1.9-4.9,1.9c-3.7,0-5.5-2.4-5.5-6.2c0-3.7,2.3-6.4,5.6-6.4
			s4.8,2,4.8,5.4c0,0.6-0.1,1.2-0.1,1.2l-7.9,0C636.8,1095.1,638.2,1096.7,640.1,1096.7z M639.9,1087.7c-1.8,0-2.9,1.4-3,3.2h5.5
			C642.4,1089.1,641.8,1087.7,639.9,1087.7z"/>
		<path d="M649.5,1084.8c0-2.8,1.5-4.5,4.3-4.5c2.2,0,3.4,0.8,3.4,0.8v2.9h-1.6l-0.3-1.8c0,0-0.6-0.1-1.4-0.1
			c-1.6,0-2.1,0.9-2.1,2.3v1.8h3l-0.1,1.7h-3v8.5l2.3,0.6v1.3h-6.6v-1.3l2-0.6v-8.5h-2.1v-1.5l2.1-0.2V1084.8z"/>
		<path d="M667,1087.8c0,0,0.6,0.8,0.6,2.3c0,3.1-2.1,4.5-5.1,4.5c-1,0-1.7-0.2-1.7-0.2l-0.1,2.2h3.6c3,0,4.6,1.1,4.6,3.3
			c0,2.5-2,4.1-6,4.1c-3.2,0-5.5-0.8-5.5-3.3c0-2.1,2.4-2.9,2.4-2.9s-1.4-0.1-1.4-1.3c0-0.8,1.2-2.6,1.2-2.6s-1.8-0.8-1.8-3.6
			c0-3,2.1-4.5,5.1-4.5c1.5,0,2.3,0.4,2.3,0.4l4-0.1v1.3L667,1087.8z M659.7,1100.4c0,1.6,1.4,2,3.6,2c2.3,0,3.4-0.7,3.4-2.2
			c0-1.5-1.1-1.8-3-1.8h-2.5C661.2,1098.3,659.7,1099,659.7,1100.4z M660.2,1090.2c0,1.6,0.8,2.8,2.5,2.8c1.8,0,2.6-0.8,2.6-2.8
			c0-1.7-0.8-2.8-2.5-2.8C661,1087.5,660.2,1088.4,660.2,1090.2z"/>
		<path d="M679.2,1085.9c2.5,0,3.7,1.6,3.7,4.1v6.4l1.7,0.6v1.3h-5.5v-1.3l1.5-0.6v-6.2c0-1.8-0.8-2.4-2-2.4c-1.2,0-2.7,0.8-3.4,1.9
			v6.8l1.5,0.6v1.3H671v-1.3l2-0.6v-14l-2-0.5v-1.3l4.3-0.1v6.9C675.9,1086.9,677.5,1085.9,679.2,1085.9z"/>
		<path d="M692.7,1097v1.3h-6v-1.3l2-0.6v-8.5l-2-0.5v-1.3l4.3-0.1v10.3L692.7,1097z M689.7,1080.7c0.9,0,1.5,0.5,1.5,1.6
			c0,1-0.8,1.6-1.5,1.6c-0.9,0-1.5-0.6-1.5-1.6S688.9,1080.7,689.7,1080.7z"/>
		<path d="M694.5,1103.8c-0.6,0-1.5-0.1-1.5-0.1l0.2-1.6h1.1c1.6,0,2.1-0.9,2.1-2.3v-11.8l-2-0.5v-1.3l4.3-0.1v13.2
			C698.8,1102.1,697.3,1103.8,694.5,1103.8z M697.4,1080.7c0.9,0,1.5,0.5,1.5,1.6c0,1-0.8,1.6-1.5,1.6c-0.9,0-1.5-0.6-1.5-1.6
			S696.6,1080.7,697.4,1080.7z"/>
		<path d="M708.2,1090.7l1.7-2.9l-1-0.3v-1.3l5.1-0.1v1.4l-1.6,0.3l-2.4,3.5l3,5.2h0l1.7,0.6v1.3h-3.1l-3.3-5.9H706v4l1.5,0.6v1.3
			h-5.7v-1.3l2-0.6v-14l-2-0.5v-1.3l4.3-0.1v10.1H708.2z"/>
		<path d="M722.2,1097v1.3h-6.4v-1.3l2-0.6v-14l-2-0.5v-1.3l4.3-0.1v15.9L722.2,1097z"/>
		<path d="M731.8,1085.9c1.7,0,2.7,0.8,3.2,2c0.3-0.3,2.2-2,4.3-2c2.5,0,3.6,1.6,3.6,4.1v6.4l1.7,0.6v1.3h-5.5v-1.3l1.5-0.6v-6.2
			c0-1.8-0.6-2.4-2-2.4c-1.1,0-2.5,0.7-3.2,1.8v6.8l1.5,0.6v1.3h-5.3v-1.3l1.5-0.6v-6.2c0-1.8-0.6-2.4-1.9-2.4
			c-1.2,0-2.6,0.9-3.3,1.9v6.8l1.5,0.6v1.3h-5.7v-1.3l2-0.6v-8.5l-2-0.5v-1.3l3.8-0.1l0.2,1.6C728.2,1087.2,730,1085.9,731.8,1085.9
			z"/>
		<path d="M755,1085.9c2.5,0,3.7,1.6,3.7,4.1v6.4l1.7,0.6v1.3h-5.5v-1.3l1.5-0.6v-6.2c0-1.6-0.6-2.4-2.1-2.4c-2,0-3.3,1.8-3.3,1.8
			v6.8l1.5,0.6v1.3h-5.7v-1.3l2-0.6v-8.5l-2-0.5v-1.3l3.8-0.1l0.2,1.6C751.2,1087.2,753.1,1085.9,755,1085.9z"/>
		<path d="M773.7,1092c0,3.9-2.3,6.6-5.7,6.6s-5.5-2.1-5.5-6.2c0-3.9,2.4-6.4,5.9-6.4S773.7,1088.3,773.7,1092z M764.9,1092.2
			c0,2.8,0.9,4.5,3.2,4.5s3.2-1.6,3.2-4.6c0-2.5-0.8-4.4-3.1-4.4C765.9,1087.7,764.9,1089.2,764.9,1092.2z"/>
		<path d="M783.4,1085.9c3.3,0,4.9,2.4,4.9,6c0,3.9-2,6.7-6.2,6.7c-0.8,0-1.4-0.1-2.1-0.3v3.7l2.4,0.5v1.3h-6.6v-1.3l1.8-0.5v-13.9
			l-2-0.5v-1.3l3.9-0.1l0.2,1.3C780.6,1086.7,781.8,1085.9,783.4,1085.9z M782.4,1096.7c2.7,0,3.4-2.1,3.4-4.6s-0.9-4.4-3-4.4
			s-2.9,1.6-2.9,1.6v6.9C780,1096.2,780.7,1096.7,782.4,1096.7z"/>
		<path d="M799.1,1101.8v-4.7c-0.8,0.6-2,1.3-3.4,1.3c-3.4,0-4.8-2.3-4.8-6c0-3.9,2.2-6.7,6.3-6.7c2.5,0,4.3,0.5,4.3,0.5v15.5
			l1.8,0.5v1.3h-6.4v-1.3L799.1,1101.8z M796.8,1087.7c-2.7,0-3.6,2.1-3.6,4.6s0.8,4.4,2.9,4.4c2.1,0,3-1.5,3-1.5v-7.2
			C799.1,1087.9,798.4,1087.7,796.8,1087.7z"/>
		<path d="M812,1085.9c1.1,0,2.1,0.3,2.1,0.3l-0.1,3.3h-1.5l-0.3-1.7c-1.7,0-2.8,1.1-3.3,1.8v6.8l2.3,0.6v1.3h-6.6v-1.3l2-0.6v-8.5
			l-2-0.5v-1.3l3.8-0.1l0.2,1.7C809.1,1087.1,810.4,1085.9,812,1085.9z"/>
		<path d="M817.7,1096.6c0,0,0.7,0.2,1.9,0.2c1.4,0,2.6-0.4,2.6-1.8c0-2.5-6.4-1.3-6.4-5.5c0-2.4,1.8-3.6,4.2-3.6
			c1.8,0,3.9,0.7,3.9,0.7l-0.1,3.1h-1.5l-0.4-1.8c0,0-0.7-0.3-1.9-0.3c-1.2,0-2,0.4-2,1.5c0,2.5,6.4,1.5,6.4,5.5
			c0,2.6-2.3,3.9-5.1,3.9c-2.1,0-3.6-0.5-3.6-0.5v-3.4h1.6L817.7,1096.6z"/>
		<path d="M834.4,1086.2v1.7h-3.3v7.4c0,1.1,0.5,1.4,1.2,1.4c0.6,0,1.2-0.3,1.8-0.6l0.6,1.2c-1,0.8-2.1,1.1-3.2,1.1
			c-1.4,0-2.6-0.8-2.6-3.3v-7.2h-2.3v-1.5l2.3-0.2v-2.9l2.3-0.5v3.4H834.4z"/>
		<path d="M849.9,1096.9v1.3l-3.8,0.1l-0.2-1.6c-0.6,0.5-2.4,1.8-4.3,1.8c-2.5,0-3.7-1.6-3.7-4.1v-6.5l-2-0.5v-1.3l4.3-0.1v8.1
			c0,1.6,0.6,2.4,2.1,2.4c2,0,3.3-1.8,3.3-1.8v-6.8l-2-0.5v-1.3l4.3-0.1v10.3L849.9,1096.9z"/>
		<path d="M854.3,1087.7l2.7,8.5l2.8-8.4l-1.6-0.3v-1.3l5.2-0.1v1.4l-1.3,0.2l-3.9,10.6h-2.5l-3.8-10.5l-1.1-0.3v-1.3l5.2-0.1v1.4
			L854.3,1087.7z"/>
		<path d="M867.5,1087.7l2,8.5l3-10l2.2-0.3l2.9,10.3l1.8-8.4l-1.6-0.3v-1.3l5.2-0.1v1.4l-1.3,0.2l-2.8,10.6h-2.6l-2.2-7.1l-0.6-2.2
			l-0.5,2.2l-2.2,7.1h-2.6l-2.9-10.5l-1.1-0.3v-1.3l5.2-0.1v1.4L867.5,1087.7z"/>
		<path d="M888.3,1087.6l1.8,3l2.8-4.4l3.3-0.1v1.4l-2,0.3l-2.9,4.3l2.9,4.4l2.1,0.5v1.3h-5.6v-1.3l0.9-0.3l-1.9-3l-2.9,4.6h-3.3
			v-1.3l2-0.5l2.9-4.3l-2.9-4.4l-1.8-0.3v-1.3l5.2-0.1v1.4L888.3,1087.6z"/>
		<path d="M901,1087.7l2.8,8l2.5-7.9l-1.6-0.3v-1.3l5.5-0.1v1.4l-1.5,0.2l-3.3,9.1c-1.2,3.2-2.4,7-6.2,7c-0.6,0-1.5-0.1-1.5-0.1
			l0.2-1.7c0.3,0,0.5,0,0.8,0c2,0,2.7-0.7,4-3.6l-4.1-10.5l-1.4-0.3v-1.3l5.4-0.1v1.4L901,1087.7z"/>
		<path d="M914.3,1096.6h4.7l0.3-1.8h1.6v3.6h-9.2v-1.7l6.7-8.7h-4.3l-0.3,1.7h-1.6v-3.4h8.9v1.7L914.3,1096.6z"/>
		<path d="M684.5,1128.3v-2h3.5v-11.5l-3.9,2.5l-1-1.7l5.4-3.5h1.9v14.1h3.4v2H684.5z"/>
		<path d="M703.9,1116.6c0-1.6-1.1-2.6-3.1-2.6c-1.3,0-2.4,0.5-2.4,0.5l-0.2,2.2h-1.8l-0.1-3.7c0,0,2.5-0.9,4.7-0.9
			c3.4,0,5.5,1.1,5.5,4.4c0,3-2.3,5.6-7.2,10h7.7v2h-10.9v-2C701.4,1121.5,703.9,1119.1,703.9,1116.6z"/>
		<path d="M719.7,1123.5c0,3.7-3.1,5.1-6.2,5.1c-1.7,0-3.5-0.4-4.6-1.1l0.7-1.9c1.1,0.6,2.6,1,4.1,1c1.9,0,3.5-0.8,3.5-2.9
			c0-1.7-1.5-2.8-3.8-2.8h-1.7v-1.8h1.8c2.1,0,3.4-0.9,3.4-2.8c0-1.7-1.5-2.3-3-2.3c-0.9,0-1.9,0.2-2.4,0.5l-0.2,2.1h-1.8l-0.1-3.6
			c1.5-0.5,3.3-0.9,5-0.9c2.7,0,5,1,5,4c0,1.8-0.8,3.3-2.9,3.8C718.6,1120.3,719.7,1121.9,719.7,1123.5z"/>
		<path d="M732.1,1112.2v10.3h2.6v2h-2.6v3.8h-2.4v-3.8h-7.4l-0.2-1.7l7.4-10.9L732.1,1112.2z M729.7,1122.5v-7.6l-5.1,7.6H729.7z"
			/>
		<path d="M739.9,1114.1l-0.2,4.4h1c4.6,0,6.4,2.2,6.4,4.9c0,2.5-2.1,5.1-5.7,5.1c-3,0-4.8-1.1-4.8-1.1l0.7-1.8c0,0,1.8,1,4,1
			c2,0,3.3-1.3,3.3-3.1c0-1.8-1.3-3.1-4.5-3.1h-2.6l0.3-8.2h8.7l-0.1,2H739.9z"/>
		<path d="M758.4,1113.9c-5.4,0-5.7,5.6-5.7,5.6s1.6-1.1,3.9-1.1c2.6,0,4.9,1.7,4.9,4.8c0,3.2-2.5,5.3-5.5,5.3c-4,0-5.9-3-5.9-7
			c0-5.5,2.8-9.5,8.4-9.5c1.2,0,1.7,0.2,1.7,0.2l-0.1,1.8C760.1,1114,759.4,1113.9,758.4,1113.9z M756,1126.6c1.8,0,3.1-1.1,3.1-3.1
			c0-2.1-1.1-3.1-3.2-3.1c-1.8,0-3.3,1-3.3,1v0.7C752.5,1125.3,754.1,1126.6,756,1126.6z"/>
		<path d="M774.1,1113.9l-6.1,14.4h-2.6l6.1-14h-6.2l-0.5,2.2h-1.7v-4.3h11V1113.9z"/>
		<path d="M784.2,1119.8c1.7,0.7,3.2,1.7,3.2,3.9c0,2.8-2.2,4.8-5.9,4.8c-3.6,0-5.4-2-5.4-4.6c0-2.6,2.6-3.8,3.2-4.1
			c-1.5-0.7-2.7-1.7-2.7-3.6c0-2.9,2.2-4.3,5.5-4.3c3.3,0,5.1,1.7,5.1,4.1C787.2,1118.4,785.1,1119.4,784.2,1119.8z M781.3,1120.7
			c-0.6,0.3-2.6,1.2-2.6,3.1c0,1.7,1.2,2.7,3.1,2.7c2,0,3.1-1,3.1-2.7S783.2,1121.4,781.3,1120.7z M782.3,1119.1
			c0.8-0.3,2.5-1.1,2.5-2.9c0-1.4-1-2.3-2.9-2.3s-2.9,0.9-2.9,2.3C779,1117.9,780.6,1118.5,782.3,1119.1z"/>
		<path d="M793.3,1126.6c5.5,0,5.6-5.7,5.6-5.7s-1.6,1.2-3.9,1.2c-2.6,0-4.9-1.6-4.9-4.7c0-3.3,2.5-5.3,5.5-5.3c4,0,5.9,3,5.9,7
			c0,5.5-2.6,9.5-8.3,9.5c-1.1,0-1.8-0.2-1.8-0.2l0.1-1.8C791.4,1126.4,792.2,1126.6,793.3,1126.6z M795.6,1113.9
			c-1.8,0-3.1,1.2-3.1,3.1c0,2.1,1.1,3,3.2,3c1.8,0,3.3-1,3.3-1v-0.7C799,1115.2,797.4,1113.9,795.6,1113.9z"/>
		<path d="M816.7,1120c0,5.4-1.8,8.5-6,8.5c-4.1,0-5.9-3-5.9-8.2s1.7-8.4,6.1-8.4S816.7,1114.8,816.7,1120z M807.4,1120.2
			c0,4.1,1,6.3,3.4,6.3c2.4,0,3.3-2.2,3.3-6.4c0-4.1-0.8-6.2-3.3-6.2C808.3,1113.9,807.4,1116,807.4,1120.2z"/>
	</g>
	<g>
		<path d="M651.8,1037.6v-16.2l-2.5-0.6v-1.7l5.6-0.1h3.4c3.8,0,6.5,1.6,6.5,5.2c0,2.7-1.4,4.2-3.9,4.9c3.2,0.7,4.7,2.5,4.7,4.9
			c0,4.2-2.7,6-7.6,6h-8.6v-1.8L651.8,1037.6z M657.1,1028c2.7,0,4.5-1.1,4.5-3.5c0-2.1-1.5-3.2-3.4-3.2h-3.3v6.6H657.1z
			 M658,1037.6c2.8,0,4.3-1.2,4.3-3.5c0-3-1.9-3.9-5.2-3.9h-2.2v7.4H658z"/>
		<path d="M676,1038.3v1.7h-7.8v-1.7l2.5-0.7v-11.1l-2.5-0.6v-1.6l5.5-0.2v13.5L676,1038.3z M672.1,1017.1c1.2,0,2,0.6,2,2.1
			c0,1.4-1,2.1-2,2.1c-1.2,0-2-0.8-2-2.1C670.2,1017.8,671.1,1017.1,672.1,1017.1z"/>
		<path d="M688,1024.3v2.2h-4.3v9.6c0,1.4,0.7,1.8,1.5,1.8c0.7,0,1.6-0.3,2.3-0.8l0.8,1.6c-1.4,1-2.7,1.5-4.2,1.5
			c-1.8,0-3.5-1-3.5-4.3v-9.4h-3v-2l3-0.3v-3.8l3-0.6v4.4H688z"/>
		<path d="M699.9,1024.3v2.2h-4.3v9.6c0,1.4,0.7,1.8,1.5,1.8c0.7,0,1.6-0.3,2.3-0.8l0.8,1.6c-1.4,1-2.7,1.5-4.2,1.5
			c-1.8,0-3.5-1-3.5-4.3v-9.4h-3v-2l3-0.3v-3.8l3-0.6v4.4H699.9z"/>
		<path d="M709.5,1037.9c3,0,5-1.7,5-1.7l1,1.6c0,0-2.8,2.5-6.4,2.5c-4.8,0-7.2-3.1-7.2-8.1c0-4.8,3-8.4,7.3-8.4s6.3,2.5,6.3,7
			c0,0.8-0.2,1.6-0.2,1.6l-10.3,0.1C705.1,1035.8,706.9,1037.9,709.5,1037.9z M709.2,1026.1c-2.4,0-3.8,1.9-3.9,4.1h7.2
			C712.4,1028,711.6,1026.1,709.2,1026.1z"/>
		<path d="M727.9,1023.8c1.5,0,2.7,0.5,2.7,0.5l-0.2,4.3h-1.9l-0.5-2.2c-2.2,0-3.7,1.5-4.3,2.3v8.9l3,0.7v1.7h-8.5v-1.7l2.5-0.7
			v-11.1l-2.5-0.6v-1.6l4.9-0.2l0.3,2.2C724.1,1025.5,725.9,1023.8,727.9,1023.8z"/>
		<path d="M741.6,1037.6v-16.2l-2.5-0.6v-1.7l5.7-0.1h3.3c4.2,0,6.8,2,6.8,5.4c0,2.9-1.3,4.9-3.9,5.8c0.5,0.4,1,1.2,1.8,2.7l2.4,4.8
			l2.1,0.5v1.8h-4.5l-2.5-5.5c-1.4-3-2.1-3.6-4-3.6h-1.4v6.8l2.5,0.6v1.8H739v-1.8L741.6,1037.6z M747,1028.6c2.9,0,4.7-1.4,4.7-3.8
			c0-2-1.6-3.5-3.8-3.5h-3.2v7.2H747z"/>
		<path d="M766,1037.9c3,0,5-1.7,5-1.7l1,1.6c0,0-2.8,2.5-6.4,2.5c-4.8,0-7.2-3.1-7.2-8.1c0-4.8,3-8.4,7.3-8.4s6.3,2.5,6.3,7
			c0,0.8-0.2,1.6-0.2,1.6l-10.3,0.1C761.7,1035.8,763.4,1037.9,766,1037.9z M765.7,1026.1c-2.4,0-3.8,1.9-3.9,4.1h7.2
			C769,1028,768.1,1026.1,765.7,1026.1z"/>
		<path d="M787.4,1026.3c0,0,0.8,1.1,0.8,3c0,4-2.7,5.8-6.6,5.8c-1.3,0-2.2-0.3-2.2-0.3l-0.1,2.8h4.6c3.9,0,6,1.5,6,4.3
			c0,3.3-2.5,5.4-7.8,5.4c-4.2,0-7.2-1-7.2-4.4c0-2.7,3.2-3.7,3.2-3.7s-1.8-0.2-1.8-1.7c0-1,1.6-3.4,1.6-3.4s-2.3-1-2.3-4.6
			c0-3.9,2.7-5.8,6.6-5.8c2,0,3,0.6,3,0.6l5.2-0.1v1.6L787.4,1026.3z M777.9,1042.7c0,2.1,1.8,2.5,4.7,2.5c3,0,4.5-0.9,4.5-2.9
			c0-1.9-1.5-2.4-3.9-2.4h-3.3C779.8,1040,777.9,1040.9,777.9,1042.7z M778.5,1029.5c0,2.1,1,3.6,3.3,3.6c2.4,0,3.4-1,3.4-3.6
			c0-2.2-1-3.6-3.3-3.6C779.5,1025.9,778.5,1027.1,778.5,1029.5z"/>
		<path d="M809.8,1038.2v1.6l-4.9,0.2l-0.3-2.1c-0.7,0.6-3.1,2.4-5.5,2.4c-3.3,0-4.8-2.1-4.8-5.4v-8.4l-2.5-0.6v-1.6l5.5-0.2v10.5
			c0,2.1,0.8,3.1,2.7,3.1c2.5,0,4.3-2.4,4.3-2.4v-8.9l-2.5-0.6v-1.6l5.5-0.2v13.5L809.8,1038.2z"/>
		<path d="M819.8,1038.3v1.7h-8.3v-1.7l2.5-0.7v-18.3l-2.5-0.6v-1.7l5.6-0.1v20.7L819.8,1038.3z"/>
		<path d="M828,1023.8c3.5,0,5.5,1.2,5.5,4.6v9.2l2.4,0.6v1.6l-4.7,0.2l-0.6-2.1c-1,1-2.8,2.4-4.9,2.4c-2.8,0-4.5-1.6-4.5-4.5
			c0-3.4,2.7-4.6,6.9-4.6h2.4v-2.4c0-1.8-1-2.7-2.8-2.7s-3,0.5-3,0.5l-0.4,2.2h-1.9l-0.2-3.7C822.2,1025,825.5,1023.8,828,1023.8z
			 M824.3,1035.7c0,1.3,0.8,2.2,2.2,2.2c2.2,0,4-2.4,4-2.4v-2.4h-2.1C825.5,1033.1,824.3,1033.9,824.3,1035.7z"/>
		<path d="M847.8,1023.8c1.5,0,2.7,0.5,2.7,0.5l-0.2,4.3h-1.9l-0.5-2.2c-2.2,0-3.7,1.5-4.3,2.3v8.9l3,0.7v1.7h-8.5v-1.7l2.5-0.7
			v-11.1l-2.5-0.6v-1.6l4.9-0.2l0.3,2.2C844,1025.5,845.8,1023.8,847.8,1023.8z"/>
	</g>
</g>
<g>
	<g>
		<path d="M40.4,1063.9h-8l-1.6,3.7h-3.1l7.2-16.1h2.9l7.3,16.1H42L40.4,1063.9z M39.4,1061.6l-3-7l-3,7H39.4z"/>
		<path d="M61.2,1060.7c0.5,0.7,0.8,1.5,0.8,2.5c0,1.4-0.5,2.5-1.6,3.2c-1.1,0.8-2.6,1.1-4.7,1.1h-8v-16.1h7.5
			c1.9,0,3.4,0.4,4.4,1.1s1.5,1.8,1.5,3.1c0,0.8-0.2,1.5-0.6,2.1s-0.9,1.1-1.5,1.4C60,1059.6,60.7,1060,61.2,1060.7z M50.6,1053.9
			v4.4h4.2c1,0,1.8-0.2,2.4-0.6c0.6-0.4,0.8-0.9,0.8-1.6c0-0.7-0.3-1.3-0.8-1.7s-1.4-0.6-2.4-0.6H50.6z M58.9,1063
			c0-1.5-1.2-2.3-3.5-2.3h-4.8v4.6h4.8C57.8,1065.3,58.9,1064.5,58.9,1063z"/>
		<path d="M68.7,1066.8c-1.3-0.7-2.3-1.7-3.1-3c-0.7-1.3-1.1-2.7-1.1-4.3s0.4-3,1.1-4.3c0.8-1.3,1.8-2.2,3.1-3
			c1.3-0.7,2.8-1.1,4.4-1.1c1.3,0,2.5,0.2,3.6,0.7s2,1.1,2.8,2l-1.9,1.8c-1.2-1.3-2.6-1.9-4.3-1.9c-1.1,0-2.1,0.2-3,0.7
			c-0.9,0.5-1.6,1.2-2,2c-0.5,0.9-0.7,1.8-0.7,2.9s0.2,2.1,0.7,2.9c0.5,0.9,1.2,1.5,2,2c0.9,0.5,1.9,0.7,3,0.7
			c1.7,0,3.1-0.6,4.3-1.9l1.9,1.8c-0.8,0.9-1.7,1.5-2.8,2s-2.3,0.7-3.6,0.7C71.4,1067.9,70,1067.5,68.7,1066.8z"/>
		<path d="M82.8,1051.5h7c1.7,0,3.2,0.3,4.6,1s2.4,1.6,3.1,2.8c0.7,1.2,1.1,2.6,1.1,4.2s-0.4,3-1.1,4.2c-0.7,1.2-1.8,2.2-3.1,2.8
			s-2.9,1-4.6,1h-7V1051.5z M89.7,1065.1c1.2,0,2.2-0.2,3.1-0.7c0.9-0.5,1.6-1.1,2.1-1.9c0.5-0.8,0.7-1.8,0.7-2.9
			c0-1.1-0.2-2.1-0.7-2.9c-0.5-0.8-1.2-1.5-2.1-1.9c-0.9-0.5-1.9-0.7-3.1-0.7h-3.9v11H89.7z"/>
		<path d="M114.3,1065.1v2.5h-12.1v-16.1H114v2.5h-8.8v4.2h7.8v2.5h-7.8v4.4H114.3z"/>
		<path d="M121.1,1054v4.9h7.8v2.5h-7.8v6.2h-3v-16.1h11.8v2.5H121.1z"/>
		<path d="M144,1059.4h2.8v6.4c-0.8,0.7-1.8,1.2-2.9,1.5c-1.1,0.4-2.2,0.5-3.4,0.5c-1.6,0-3.1-0.4-4.4-1.1c-1.3-0.7-2.4-1.7-3.1-3
			c-0.8-1.3-1.1-2.7-1.1-4.3s0.4-3,1.1-4.3c0.8-1.3,1.8-2.2,3.1-3c1.3-0.7,2.8-1.1,4.5-1.1c1.3,0,2.6,0.2,3.7,0.7
			c1.1,0.4,2,1.1,2.8,2l-1.9,1.8c-1.2-1.2-2.7-1.8-4.4-1.8c-1.1,0-2.1,0.2-3,0.7c-0.9,0.5-1.6,1.1-2.1,2c-0.5,0.9-0.7,1.8-0.7,2.9
			c0,1.1,0.2,2,0.7,2.9c0.5,0.9,1.2,1.5,2.1,2c0.9,0.5,1.9,0.7,3,0.7c1.3,0,2.4-0.3,3.3-0.8V1059.4z"/>
		<path d="M165.6,1051.5v16.1h-3v-6.9h-8.3v6.9h-3v-16.1h3v6.6h8.3v-6.6H165.6z"/>
		<path d="M170.4,1051.5h3v16.1h-3V1051.5z"/>
		<path d="M177.8,1067.3c-0.9-0.4-1.6-1-2.1-1.7l1.7-2c0.9,1.2,2,1.8,3.2,1.8c1.7,0,2.5-1,2.5-3v-8.3h-5.7v-2.5h8.7v10.7
			c0,1.9-0.5,3.3-1.4,4.2s-2.3,1.4-4,1.4C179.6,1067.9,178.7,1067.7,177.8,1067.3z"/>
		<path d="M196.3,1060.9l-2.6,2.6v4.1h-3v-16.1h3v8.3l8-8.3h3.4l-6.8,7.2l7.2,8.9H202L196.3,1060.9z"/>
		<path d="M208,1051.5h3v13.6h8.4v2.5H208V1051.5z"/>
		<path d="M237,1067.6l0-10.7l-5.3,8.8h-1.3l-5.3-8.7v10.5h-2.9v-16.1h2.5l6.4,10.7l6.3-10.7h2.5l0,16.1H237z"/>
		<path d="M258.9,1051.5v16.1h-2.5l-8.9-10.9v10.9h-3v-16.1h2.5l8.9,10.9v-10.9H258.9z"/>
		<path d="M266.8,1066.8c-1.3-0.7-2.4-1.7-3.1-3c-0.8-1.3-1.1-2.7-1.1-4.2c0-1.6,0.4-3,1.1-4.2c0.8-1.3,1.8-2.3,3.1-3
			c1.3-0.7,2.8-1.1,4.4-1.1s3.1,0.4,4.4,1.1c1.3,0.7,2.4,1.7,3.1,3c0.8,1.3,1.1,2.7,1.1,4.3s-0.4,3-1.1,4.3c-0.8,1.3-1.8,2.2-3.1,3
			c-1.3,0.7-2.8,1.1-4.4,1.1S268.1,1067.5,266.8,1066.8z M274.1,1064.5c0.9-0.5,1.5-1.2,2-2c0.5-0.9,0.7-1.8,0.7-2.9s-0.2-2-0.7-2.9
			c-0.5-0.9-1.2-1.5-2-2c-0.9-0.5-1.8-0.7-2.9-0.7s-2,0.2-2.9,0.7c-0.9,0.5-1.5,1.2-2,2c-0.5,0.9-0.7,1.8-0.7,2.9s0.2,2,0.7,2.9
			c0.5,0.9,1.2,1.5,2,2c0.9,0.5,1.8,0.7,2.9,0.7S273.3,1065,274.1,1064.5z"/>
		<path d="M293.8,1052.2c1,0.5,1.8,1.1,2.4,2c0.6,0.9,0.8,1.9,0.8,3.1c0,1.2-0.3,2.2-0.8,3c-0.6,0.9-1.3,1.5-2.4,2s-2.3,0.7-3.6,0.7
			h-3.6v4.6h-3v-16.1h6.6C291.6,1051.5,292.8,1051.8,293.8,1052.2z M293,1059.6c0.7-0.6,1-1.3,1-2.4s-0.3-1.8-1-2.4
			c-0.7-0.6-1.7-0.8-3-0.8h-3.5v6.4h3.5C291.3,1060.5,292.3,1060.2,293,1059.6z"/>
		<path d="M317.7,1069.2c-0.5,0.6-1.2,1.1-1.9,1.4s-1.5,0.5-2.3,0.5c-1.1,0-2.1-0.2-3-0.7s-2-1.4-3.2-2.6c-1.5-0.1-2.8-0.6-4-1.3
			c-1.2-0.7-2.1-1.7-2.8-2.9c-0.7-1.2-1-2.5-1-4c0-1.6,0.4-3,1.1-4.2c0.8-1.3,1.8-2.3,3.1-3c1.3-0.7,2.8-1.1,4.4-1.1
			s3.1,0.4,4.4,1.1c1.3,0.7,2.4,1.7,3.1,3c0.8,1.3,1.1,2.7,1.1,4.3c0,1.3-0.3,2.4-0.8,3.5s-1.2,2-2.1,2.8c-0.9,0.8-2,1.3-3.2,1.6
			c0.4,0.5,0.9,0.8,1.3,1c0.4,0.2,0.9,0.3,1.4,0.3c1.1,0,2-0.4,2.8-1.3L317.7,1069.2z M303.3,1062.5c0.5,0.9,1.2,1.5,2,2
			c0.9,0.5,1.8,0.7,2.9,0.7s2-0.2,2.9-0.7c0.9-0.5,1.5-1.2,2-2c0.5-0.9,0.7-1.8,0.7-2.9s-0.2-2-0.7-2.9c-0.5-0.9-1.2-1.5-2-2
			c-0.9-0.5-1.8-0.7-2.9-0.7s-2,0.2-2.9,0.7c-0.9,0.5-1.5,1.2-2,2c-0.5,0.9-0.7,1.8-0.7,2.9S302.8,1061.6,303.3,1062.5z"/>
		<path d="M331.1,1067.6l-3.3-4.7c-0.1,0-0.3,0-0.6,0h-3.6v4.7h-3v-16.1h6.6c1.4,0,2.6,0.2,3.6,0.7s1.8,1.1,2.4,2
			c0.6,0.9,0.8,1.9,0.8,3.1c0,1.2-0.3,2.3-0.9,3.1c-0.6,0.9-1.4,1.5-2.5,2l3.7,5.3H331.1z M330,1054.9c-0.7-0.6-1.7-0.8-3-0.8h-3.5
			v6.4h3.5c1.3,0,2.3-0.3,3-0.8c0.7-0.6,1-1.4,1-2.4S330.7,1055.4,330,1054.9z"/>
		<path d="M339.2,1067.3c-1.2-0.4-2.1-0.8-2.7-1.4l1-2.3c0.7,0.5,1.5,0.9,2.4,1.3c1,0.3,1.9,0.5,2.9,0.5c1.2,0,2.1-0.2,2.7-0.6
			c0.6-0.4,0.9-0.9,0.9-1.5c0-0.5-0.2-0.8-0.5-1.1c-0.3-0.3-0.7-0.5-1.3-0.7c-0.5-0.2-1.2-0.4-2.1-0.6c-1.2-0.3-2.2-0.6-3-0.9
			c-0.8-0.3-1.4-0.7-2-1.4c-0.5-0.6-0.8-1.5-0.8-2.5c0-0.9,0.2-1.7,0.7-2.4c0.5-0.7,1.2-1.3,2.2-1.7c1-0.4,2.2-0.6,3.6-0.6
			c1,0,1.9,0.1,2.9,0.4c1,0.2,1.8,0.6,2.5,1.1l-0.9,2.3c-0.7-0.4-1.4-0.7-2.2-0.9c-0.8-0.2-1.5-0.3-2.2-0.3c-1.2,0-2.1,0.2-2.6,0.6
			c-0.6,0.4-0.9,0.9-0.9,1.6c0,0.5,0.2,0.8,0.5,1.1c0.3,0.3,0.7,0.5,1.3,0.7s1.2,0.4,2.1,0.6c1.2,0.3,2.2,0.6,2.9,0.9s1.4,0.8,2,1.4
			c0.5,0.6,0.8,1.4,0.8,2.5c0,0.9-0.2,1.7-0.7,2.4s-1.2,1.3-2.2,1.7c-1,0.4-2.2,0.6-3.6,0.6C341.5,1067.9,340.3,1067.7,339.2,1067.3
			z"/>
		<path d="M355.8,1054.1h-5.3v-2.5h13.7v2.5h-5.3v13.6h-3V1054.1z"/>
		<path d="M368.2,1066c-1.2-1.2-1.9-3-1.9-5.4v-9.1h3v9c0,3.2,1.4,4.7,4.1,4.7c2.7,0,4.1-1.6,4.1-4.7v-9h2.9v9.1
			c0,2.3-0.6,4.1-1.9,5.4s-3,1.9-5.2,1.9C371.2,1067.9,369.5,1067.2,368.2,1066z"/>
		<path d="M399.8,1051.5l-7,16.1h-2.9l-7-16.1h3.2l5.4,12.4l5.4-12.4H399.8z"/>
		<path d="M425.9,1051.5l-5.3,16.1h-3.2l-4-11.9l-4,11.9h-3.2l-5.3-16.1h3.1l4,12.2l4.2-12.2h2.8l4.1,12.3l4.1-12.3H425.9z"/>
		<path d="M438.7,1067.6l-4.4-6.1l-4.3,6.1h-3.4l6-8.2l-5.7-7.9h3.4l4.1,5.7l4.1-5.7h3.2l-5.6,7.8l6,8.3H438.7z"/>
		<path d="M451.2,1062v5.7h-3v-5.6l-6.3-10.5h3.2l4.7,7.8l4.8-7.8h2.9L451.2,1062z"/>
		<path d="M472.4,1065.1v2.5h-13.7v-2l9.5-11.6h-9.3v-2.5h13.3v2l-9.5,11.6H472.4z"/>
		<path d="M79.2,1086.5c1,0.9,1.4,2.2,1.4,3.9v7.2h-2.7v-1.5c-0.4,0.5-0.9,0.9-1.5,1.2c-0.7,0.3-1.4,0.4-2.4,0.4s-1.7-0.2-2.4-0.5
			c-0.7-0.3-1.2-0.8-1.6-1.3s-0.6-1.2-0.6-1.9c0-1.1,0.4-2,1.2-2.7s2.1-1,3.9-1h3.2v-0.2c0-0.9-0.3-1.5-0.8-2s-1.3-0.7-2.3-0.7
			c-0.7,0-1.4,0.1-2,0.3s-1.2,0.5-1.7,0.9l-1.1-2.1c0.6-0.5,1.4-0.9,2.3-1.1c0.9-0.3,1.9-0.4,2.9-0.4
			C76.8,1085.2,78.2,1085.7,79.2,1086.5z M76.6,1095.2c0.6-0.3,1-0.8,1.2-1.4v-1.4h-3c-1.7,0-2.5,0.5-2.5,1.6c0,0.5,0.2,0.9,0.6,1.2
			s1,0.5,1.7,0.5C75.4,1095.7,76,1095.5,76.6,1095.2z"/>
		<path d="M94.8,1086c0.9,0.5,1.7,1.3,2.2,2.2c0.5,1,0.8,2,0.8,3.3c0,1.2-0.3,2.3-0.8,3.3c-0.5,1-1.3,1.7-2.2,2.2
			c-0.9,0.5-2,0.8-3.2,0.8c-0.8,0-1.6-0.1-2.3-0.4c-0.7-0.3-1.3-0.7-1.8-1.3v1.6h-2.7v-17.1h2.9v6.3c0.5-0.5,1.1-0.9,1.7-1.2
			c0.7-0.3,1.4-0.4,2.2-0.4C92.8,1085.2,93.8,1085.5,94.8,1086z M93.9,1094.3c0.7-0.7,1-1.6,1-2.8c0-1.2-0.3-2.1-1-2.8
			s-1.6-1.1-2.6-1.1c-0.7,0-1.3,0.2-1.9,0.5c-0.6,0.3-1,0.8-1.3,1.3c-0.3,0.6-0.5,1.3-0.5,2s0.2,1.4,0.5,2c0.3,0.6,0.8,1,1.3,1.3
			s1.2,0.5,1.9,0.5C92.3,1095.3,93.2,1095,93.9,1094.3z"/>
		<path d="M103.2,1097c-1-0.5-1.8-1.3-2.4-2.2c-0.6-1-0.9-2-0.9-3.3c0-1.2,0.3-2.3,0.9-3.2s1.4-1.7,2.4-2.2c1-0.5,2.2-0.8,3.4-0.8
			c1.2,0,2.3,0.2,3.2,0.7c0.9,0.5,1.6,1.2,2.1,2.1l-2.2,1.3c-0.4-0.6-0.8-1-1.3-1.3c-0.5-0.3-1.1-0.4-1.7-0.4c-1.1,0-2,0.3-2.7,1
			c-0.7,0.7-1.1,1.6-1.1,2.8s0.3,2.1,1,2.8c0.7,0.7,1.6,1,2.7,1c0.6,0,1.2-0.1,1.7-0.4c0.5-0.3,1-0.7,1.3-1.3l2.2,1.3
			c-0.5,0.9-1.2,1.6-2.1,2.1c-0.9,0.5-2,0.7-3.2,0.7C105.4,1097.8,104.2,1097.5,103.2,1097z"/>
		<path d="M126.7,1080.6v17.1h-2.8v-1.6c-0.5,0.6-1.1,1-1.8,1.3c-0.7,0.3-1.5,0.4-2.3,0.4c-1.2,0-2.2-0.3-3.2-0.8s-1.7-1.3-2.2-2.2
			c-0.5-1-0.8-2.1-0.8-3.3c0-1.2,0.3-2.3,0.8-3.3c0.5-1,1.3-1.7,2.2-2.2s2-0.8,3.2-0.8c0.8,0,1.6,0.1,2.2,0.4
			c0.7,0.3,1.2,0.7,1.7,1.2v-6.3H126.7z M122,1094.9c0.6-0.3,1-0.8,1.3-1.3c0.3-0.6,0.5-1.3,0.5-2s-0.2-1.4-0.5-2
			c-0.3-0.6-0.8-1-1.3-1.3c-0.6-0.3-1.2-0.5-1.9-0.5c-0.7,0-1.3,0.2-1.9,0.5c-0.6,0.3-1,0.8-1.3,1.3c-0.3,0.6-0.5,1.3-0.5,2
			s0.2,1.4,0.5,2c0.3,0.6,0.8,1,1.3,1.3c0.6,0.3,1.2,0.5,1.9,0.5C120.9,1095.3,121.5,1095.2,122,1094.9z"/>
		<path d="M142.4,1092.4h-9.6c0.2,0.9,0.6,1.6,1.3,2.2s1.6,0.8,2.7,0.8c1.3,0,2.5-0.4,3.3-1.3l1.5,1.8c-0.6,0.7-1.2,1.2-2.1,1.5
			c-0.8,0.3-1.8,0.5-2.9,0.5c-1.3,0-2.5-0.3-3.6-0.8c-1-0.5-1.8-1.3-2.4-2.2c-0.6-1-0.8-2-0.8-3.3c0-1.2,0.3-2.3,0.8-3.2
			c0.5-1,1.3-1.7,2.3-2.2c1-0.5,2.1-0.8,3.3-0.8c1.2,0,2.3,0.3,3.2,0.8c0.9,0.5,1.7,1.3,2.2,2.2s0.8,2.1,0.8,3.3
			C142.5,1091.8,142.4,1092.1,142.4,1092.4z M133.9,1088.3c-0.6,0.5-1,1.3-1.2,2.2h7c-0.1-0.9-0.5-1.6-1.1-2.2
			c-0.6-0.6-1.4-0.8-2.3-0.8C135.3,1087.5,134.5,1087.8,133.9,1088.3z"/>
		<path d="M148.8,1084.7v0.7h3.4v2.3h-3.3v9.9h-2.9v-9.9h-2v-2.3h2v-0.8c0-1.3,0.4-2.4,1.1-3.1c0.8-0.8,1.8-1.1,3.2-1.1
			c1.1,0,2,0.2,2.6,0.7l-0.8,2.2c-0.5-0.3-1-0.5-1.6-0.5C149.5,1082.7,148.8,1083.4,148.8,1084.7z"/>
		<path d="M166.6,1085.4v10.4c0,4.3-2.2,6.5-6.6,6.5c-1.2,0-2.3-0.1-3.4-0.4c-1.1-0.3-1.9-0.7-2.6-1.3l1.3-2.2
			c0.5,0.4,1.2,0.8,2,1.1c0.8,0.3,1.7,0.4,2.5,0.4c1.3,0,2.3-0.3,3-0.9s0.9-1.5,0.9-2.8v-0.6c-0.5,0.5-1.1,0.9-1.8,1.2
			c-0.7,0.3-1.5,0.4-2.3,0.4c-1.2,0-2.2-0.2-3.2-0.7c-0.9-0.5-1.7-1.2-2.2-2.1c-0.5-0.9-0.8-1.9-0.8-3.1s0.3-2.2,0.8-3.1
			c0.5-0.9,1.3-1.6,2.2-2.1c0.9-0.5,2-0.7,3.2-0.7c0.9,0,1.7,0.1,2.4,0.4c0.7,0.3,1.3,0.7,1.8,1.3v-1.6H166.6z M162.7,1093.7
			c0.7-0.7,1-1.5,1-2.5c0-1-0.3-1.9-1-2.5c-0.7-0.6-1.6-1-2.7-1c-1.1,0-2,0.3-2.7,1c-0.7,0.6-1,1.5-1,2.5c0,1,0.3,1.9,1,2.5
			c0.7,0.7,1.6,1,2.7,1C161.2,1094.6,162,1094.3,162.7,1093.7z"/>
		<path d="M181.5,1086.6c0.9,0.9,1.4,2.2,1.4,4v7h-2.9v-6.7c0-1.1-0.3-1.9-0.8-2.4c-0.5-0.5-1.2-0.8-2.2-0.8c-1.1,0-1.9,0.3-2.5,1
			c-0.6,0.6-0.9,1.6-0.9,2.7v6.2h-2.9v-17.1h2.9v6.2c0.5-0.5,1.1-0.9,1.8-1.2c0.7-0.3,1.5-0.4,2.3-0.4
			C179.4,1085.2,180.6,1085.7,181.5,1086.6z"/>
		<path d="M187.2,1082.8c-0.4-0.3-0.5-0.7-0.5-1.2c0-0.5,0.2-0.9,0.5-1.2c0.4-0.3,0.8-0.5,1.3-0.5s1,0.2,1.3,0.5
			c0.4,0.3,0.5,0.7,0.5,1.2c0,0.5-0.2,0.9-0.5,1.3c-0.3,0.3-0.8,0.5-1.3,0.5C188,1083.3,187.6,1083.2,187.2,1082.8z M187.1,1085.4
			h2.9v12.3h-2.9V1085.4z"/>
		<path d="M190.2,1101.5l0.8-2.1c0.4,0.3,1,0.5,1.7,0.5c0.5,0,0.9-0.2,1.2-0.5c0.3-0.3,0.4-0.8,0.4-1.5v-12.6h2.9v12.5
			c0,1.4-0.4,2.4-1.1,3.2c-0.8,0.8-1.8,1.2-3.2,1.2C191.7,1102.3,190.8,1102,190.2,1101.5z M194.4,1082.8c-0.4-0.3-0.5-0.7-0.5-1.2
			c0-0.5,0.2-0.9,0.5-1.2c0.4-0.3,0.8-0.5,1.3-0.5c0.5,0,1,0.2,1.3,0.5s0.5,0.7,0.5,1.2c0,0.5-0.2,0.9-0.5,1.3
			c-0.3,0.3-0.8,0.5-1.3,0.5C195.2,1083.3,194.8,1083.2,194.4,1082.8z"/>
		<path d="M206.4,1092.4l-2.1,2v3.2h-2.9v-17.1h2.9v10.3l6-5.5h3.5l-5.1,5.2l5.6,7.1h-3.5L206.4,1092.4z"/>
		<path d="M216.5,1080.6h2.9v17.1h-2.9V1080.6z"/>
		<path d="M242.8,1086.6c0.9,0.9,1.4,2.2,1.4,4v7h-2.9v-6.7c0-1.1-0.2-1.9-0.7-2.4c-0.5-0.5-1.2-0.8-2-0.8c-1,0-1.7,0.3-2.3,1
			c-0.6,0.6-0.9,1.5-0.9,2.7v6.2h-2.9v-6.7c0-1.1-0.2-1.9-0.7-2.4c-0.5-0.5-1.2-0.8-2-0.8c-1,0-1.8,0.3-2.3,0.9
			c-0.6,0.6-0.9,1.5-0.9,2.7v6.2h-2.9v-12.3h2.7v1.6c0.5-0.6,1-1,1.7-1.3c0.7-0.3,1.5-0.4,2.3-0.4c0.9,0,1.7,0.2,2.4,0.5
			s1.3,0.9,1.7,1.5c0.5-0.6,1.2-1.1,2-1.5c0.8-0.4,1.7-0.5,2.6-0.5C240.7,1085.2,241.9,1085.7,242.8,1086.6z"/>
		<path d="M259,1086.6c0.9,0.9,1.4,2.2,1.4,4v7h-2.9v-6.7c0-1.1-0.3-1.9-0.8-2.4c-0.5-0.5-1.2-0.8-2.2-0.8c-1.1,0-1.9,0.3-2.5,1
			c-0.6,0.6-0.9,1.6-0.9,2.7v6.2h-2.9v-12.3h2.7v1.6c0.5-0.6,1.1-1,1.8-1.3c0.7-0.3,1.5-0.4,2.4-0.4
			C256.8,1085.2,258.1,1085.7,259,1086.6z"/>
		<path d="M266.8,1097c-1-0.5-1.8-1.3-2.3-2.2c-0.6-1-0.8-2-0.8-3.3c0-1.2,0.3-2.3,0.8-3.2c0.6-1,1.3-1.7,2.3-2.2
			c1-0.5,2.1-0.8,3.4-0.8c1.3,0,2.4,0.3,3.4,0.8c1,0.5,1.8,1.3,2.3,2.2s0.8,2,0.8,3.2c0,1.2-0.3,2.3-0.8,3.3c-0.6,1-1.3,1.7-2.3,2.2
			c-1,0.5-2.1,0.8-3.4,0.8C268.9,1097.8,267.8,1097.5,266.8,1097z M272.8,1094.3c0.7-0.7,1-1.6,1-2.8c0-1.2-0.3-2.1-1-2.8
			c-0.7-0.7-1.6-1.1-2.6-1.1c-1.1,0-1.9,0.4-2.6,1.1c-0.7,0.7-1,1.6-1,2.8c0,1.1,0.3,2.1,1,2.8c0.7,0.7,1.6,1.1,2.6,1.1
			C271.2,1095.3,272.1,1095,272.8,1094.3z"/>
		<path d="M289.9,1086c0.9,0.5,1.7,1.3,2.2,2.2c0.5,1,0.8,2,0.8,3.3c0,1.2-0.3,2.3-0.8,3.3c-0.5,1-1.3,1.7-2.2,2.2
			c-0.9,0.5-2,0.8-3.2,0.8c-1.7,0-3-0.6-3.9-1.7v6h-2.9v-16.7h2.7v1.6c0.5-0.6,1.1-1,1.8-1.3c0.7-0.3,1.5-0.4,2.3-0.4
			C287.9,1085.2,289,1085.5,289.9,1086z M289,1094.3c0.7-0.7,1-1.6,1-2.8c0-1.2-0.3-2.1-1-2.8s-1.6-1.1-2.6-1.1
			c-0.7,0-1.3,0.2-1.9,0.5c-0.6,0.3-1,0.8-1.3,1.3c-0.3,0.6-0.5,1.3-0.5,2s0.2,1.4,0.5,2c0.3,0.6,0.8,1,1.3,1.3s1.2,0.5,1.9,0.5
			C287.5,1095.3,288.3,1095,289,1094.3z"/>
		<path d="M308.2,1085.4v16.7h-2.9v-6c-1,1.1-2.3,1.7-3.9,1.7c-1.2,0-2.3-0.3-3.2-0.8c-0.9-0.5-1.7-1.3-2.2-2.2
			c-0.5-1-0.8-2.1-0.8-3.3c0-1.2,0.3-2.3,0.8-3.3c0.5-1,1.3-1.7,2.2-2.2s2-0.8,3.2-0.8c0.8,0,1.6,0.1,2.3,0.4
			c0.7,0.3,1.3,0.7,1.8,1.3v-1.6H308.2z M304.3,1094.3c0.7-0.7,1-1.6,1-2.8c0-1.2-0.3-2.1-1-2.8c-0.7-0.7-1.6-1.1-2.6-1.1
			c-1.1,0-1.9,0.4-2.6,1.1c-0.7,0.7-1,1.6-1,2.8c0,1.1,0.3,2.1,1,2.8c0.7,0.7,1.6,1.1,2.6,1.1C302.7,1095.3,303.6,1095,304.3,1094.3
			z"/>
		<path d="M319.5,1085.2v2.7c-0.2,0-0.5-0.1-0.7-0.1c-1.1,0-2,0.3-2.6,1s-0.9,1.6-0.9,2.8v6h-2.9v-12.3h2.7v1.8
			C316,1085.9,317.4,1085.2,319.5,1085.2z"/>
		<path d="M323.3,1097.4c-1-0.3-1.7-0.6-2.3-1l1.1-2.2c0.6,0.4,1.2,0.7,2,0.9c0.8,0.2,1.5,0.3,2.3,0.3c1.7,0,2.6-0.5,2.6-1.4
			c0-0.4-0.2-0.7-0.7-0.9c-0.4-0.2-1.1-0.3-2.1-0.5c-1-0.2-1.8-0.3-2.5-0.5c-0.6-0.2-1.2-0.5-1.7-1s-0.7-1.2-0.7-2.1
			c0-1.2,0.5-2.1,1.5-2.8c1-0.7,2.3-1,3.9-1c0.8,0,1.7,0.1,2.5,0.3c0.8,0.2,1.5,0.4,2.1,0.8l-1.1,2.2c-1-0.6-2.2-0.9-3.5-0.9
			c-0.8,0-1.5,0.1-1.9,0.4s-0.7,0.6-0.7,1c0,0.5,0.2,0.8,0.7,1s1.2,0.4,2.2,0.5c1,0.2,1.8,0.3,2.4,0.5c0.6,0.2,1.2,0.5,1.6,1
			c0.5,0.5,0.7,1.2,0.7,2c0,1.1-0.5,2.1-1.5,2.8s-2.4,1-4.1,1C325.2,1097.8,324.3,1097.7,323.3,1097.4z"/>
		<path d="M342.1,1097c-0.3,0.3-0.7,0.5-1.2,0.6c-0.5,0.1-1,0.2-1.5,0.2c-1.3,0-2.4-0.4-3.1-1.1c-0.7-0.7-1.1-1.7-1.1-3.1v-5.9h-2
			v-2.3h2v-2.8h2.9v2.8h3.3v2.3H338v5.8c0,0.6,0.1,1.1,0.4,1.4c0.3,0.3,0.7,0.5,1.3,0.5c0.6,0,1.2-0.2,1.6-0.5L342.1,1097z"/>
		<path d="M356.9,1085.4v12.3h-2.7v-1.6c-0.5,0.6-1,1-1.7,1.3c-0.7,0.3-1.4,0.4-2.2,0.4c-1.6,0-2.9-0.5-3.9-1.4
			c-0.9-0.9-1.4-2.3-1.4-4.1v-7h2.9v6.6c0,1.1,0.2,1.9,0.7,2.5c0.5,0.5,1.2,0.8,2.1,0.8c1,0,1.8-0.3,2.4-1c0.6-0.6,0.9-1.6,0.9-2.7
			v-6.2H356.9z"/>
		<path d="M372.6,1085.4l-5.3,12.3h-3l-5.3-12.3h3l3.8,9.1l3.9-9.1H372.6z"/>
		<path d="M393.8,1085.4l-4.5,12.3h-2.8l-3.2-8.5l-3.2,8.5h-2.8l-4.5-12.3h2.7l3.2,9.1l3.4-9.1h2.4l3.3,9.1l3.3-9.1H393.8z"/>
		<path d="M403.3,1097.6l-3.2-4.3l-3.2,4.3h-3.2l4.8-6.2l-4.6-6h3.2l3,4l3-4h3.1l-4.6,6l4.8,6.3H403.3z"/>
		<path d="M420,1085.4l-5.8,13.3c-0.5,1.3-1.2,2.3-2,2.8c-0.8,0.5-1.7,0.8-2.8,0.8c-0.6,0-1.2-0.1-1.8-0.3s-1.1-0.5-1.5-0.8l1.1-2.1
			c0.3,0.3,0.6,0.5,1,0.6s0.8,0.2,1.1,0.2c0.5,0,0.9-0.1,1.3-0.4c0.3-0.3,0.6-0.7,0.9-1.3l0.2-0.5l-5.4-12.3h3l3.9,9.1l3.9-9.1H420z
			"/>
		<path d="M431.6,1095.3v2.3H421v-1.8l6.7-8.2h-6.6v-2.3h10.3v1.8l-6.8,8.2H431.6z"/>
		<path d="M186.3,1111.5v16.1h-3V1114h-3.4v-2.5H186.3z"/>
		<path d="M201.6,1125.1v2.5h-11.9v-2l6.4-6.1c0.7-0.7,1.2-1.3,1.5-1.8c0.3-0.5,0.4-1,0.4-1.5c0-0.8-0.3-1.3-0.8-1.7
			s-1.2-0.6-2.2-0.6c-1.6,0-2.9,0.6-3.8,1.7l-2.1-1.6c0.6-0.8,1.5-1.5,2.5-2c1.1-0.5,2.3-0.7,3.6-0.7c1.7,0,3.1,0.4,4.2,1.2
			c1,0.8,1.6,2,1.6,3.4c0,0.9-0.2,1.7-0.6,2.5s-1.1,1.6-2.1,2.6l-4.3,4.1H201.6z"/>
		<path d="M214,1119.7c0.8,0.8,1.2,1.9,1.2,3.1c0,0.9-0.2,1.8-0.7,2.6c-0.5,0.8-1.2,1.4-2.2,1.8s-2.1,0.7-3.5,0.7
			c-1.2,0-2.3-0.2-3.3-0.5c-1.1-0.3-2-0.8-2.7-1.4l1.3-2.3c0.6,0.5,1.3,0.9,2.1,1.2c0.8,0.3,1.7,0.4,2.6,0.4c1.1,0,1.9-0.2,2.5-0.7
			c0.6-0.4,0.9-1,0.9-1.8s-0.3-1.3-0.9-1.8s-1.5-0.6-2.6-0.6h-1.5v-2l3.7-4.3h-7.3v-2.5h11v2l-3.9,4.6
			C212.1,1118.4,213.2,1118.9,214,1119.7z"/>
		<path d="M232,1124h-2.9v3.7h-2.9v-3.7h-8.8v-2.1l7.9-10.4h3.2l-7.5,9.9h5.3v-3.2h2.8v3.2h2.9V1124z"/>
		<path d="M243.7,1119.1c1.1,0.9,1.6,2.1,1.6,3.6c0,1-0.2,1.8-0.7,2.6s-1.2,1.4-2.1,1.9c-1,0.5-2.1,0.7-3.5,0.7
			c-1.1,0-2.3-0.2-3.3-0.5c-1.1-0.3-2-0.8-2.7-1.4l1.3-2.3c0.6,0.5,1.3,0.9,2.2,1.2c0.8,0.3,1.7,0.4,2.6,0.4c1.1,0,1.9-0.2,2.5-0.7
			c0.6-0.4,0.9-1,0.9-1.8c0-0.8-0.3-1.5-1-1.9c-0.7-0.4-1.8-0.6-3.3-0.6h-3.9l0.8-8.8h9.5v2.5h-6.9l-0.3,3.7h1.5
			C240.9,1117.8,242.6,1118.2,243.7,1119.1z"/>
		<path d="M257.7,1118.3c0.8,0.4,1.5,1,2,1.7c0.5,0.8,0.7,1.6,0.7,2.6c0,1-0.3,2-0.8,2.7s-1.2,1.4-2.1,1.8c-0.9,0.4-1.9,0.6-3,0.6
			c-2.2,0-3.9-0.7-5.1-2.1c-1.2-1.4-1.8-3.4-1.8-5.9c0-1.8,0.3-3.4,1-4.6s1.6-2.3,2.8-2.9s2.6-1,4.1-1c0.8,0,1.6,0.1,2.3,0.3
			c0.7,0.2,1.4,0.4,1.9,0.8l-1.1,2.3c-0.8-0.5-1.8-0.8-3.1-0.8c-1.5,0-2.8,0.5-3.6,1.4c-0.9,1-1.3,2.3-1.3,4.1v0
			c0.5-0.6,1.1-1,1.8-1.3c0.7-0.3,1.6-0.4,2.5-0.4C255.9,1117.7,256.8,1117.9,257.7,1118.3z M256.6,1124.8c0.6-0.5,0.9-1.2,0.9-2
			c0-0.8-0.3-1.5-0.9-2c-0.6-0.5-1.4-0.7-2.3-0.7c-1,0-1.8,0.3-2.4,0.8c-0.6,0.5-0.9,1.2-0.9,2c0,0.8,0.3,1.4,0.9,1.9
			c0.6,0.5,1.4,0.8,2.5,0.8C255.3,1125.5,256,1125.3,256.6,1124.8z"/>
		<path d="M274.4,1111.5v2l-6.3,14.1H265l6-13.6h-6.3v2.7h-2.8v-5.3H274.4z"/>
		<path d="M288.7,1120.7c0.5,0.7,0.7,1.4,0.7,2.3c0,1-0.3,1.8-0.8,2.6c-0.5,0.7-1.3,1.3-2.3,1.7c-1,0.4-2.2,0.6-3.5,0.6
			c-1.3,0-2.5-0.2-3.5-0.6s-1.8-1-2.3-1.7c-0.5-0.7-0.8-1.6-0.8-2.6c0-0.9,0.2-1.6,0.7-2.3c0.4-0.7,1.1-1.2,1.9-1.6
			c-0.6-0.4-1.1-0.8-1.5-1.4s-0.5-1.2-0.5-2c0-0.9,0.2-1.7,0.7-2.4s1.2-1.2,2.1-1.6c0.9-0.4,1.9-0.6,3.1-0.6c1.2,0,2.2,0.2,3.2,0.6
			c0.9,0.4,1.6,0.9,2.1,1.6s0.8,1.5,0.8,2.4c0,0.8-0.2,1.4-0.5,2s-0.9,1-1.5,1.4C287.6,1119.6,288.2,1120.1,288.7,1120.7z
			 M285.4,1124.8c0.6-0.5,1-1.1,1-1.9c0-0.8-0.3-1.4-1-1.9c-0.6-0.5-1.5-0.7-2.6-0.7c-1.1,0-2,0.2-2.6,0.7s-0.9,1.1-0.9,1.9
			c0,0.8,0.3,1.4,0.9,1.9s1.5,0.7,2.6,0.7C283.9,1125.5,284.7,1125.3,285.4,1124.8z M280.6,1114.3c-0.5,0.4-0.8,1-0.8,1.7
			c0,0.7,0.3,1.2,0.8,1.6c0.5,0.4,1.3,0.6,2.2,0.6c1,0,1.7-0.2,2.3-0.6c0.6-0.4,0.8-1,0.8-1.6c0-0.7-0.3-1.3-0.8-1.7
			c-0.6-0.4-1.3-0.6-2.2-0.6S281.1,1113.9,280.6,1114.3z"/>
		<path d="M302.3,1113.4c1.2,1.4,1.8,3.4,1.8,5.9c0,1.8-0.3,3.4-1,4.6s-1.6,2.3-2.8,2.9s-2.6,1-4.1,1c-0.8,0-1.6-0.1-2.3-0.3
			c-0.7-0.2-1.4-0.4-1.9-0.8l1.1-2.3c0.8,0.5,1.8,0.8,3.1,0.8c1.5,0,2.8-0.5,3.6-1.4c0.9-1,1.3-2.3,1.3-4.1v0
			c-0.5,0.6-1.1,1-1.8,1.3c-0.7,0.3-1.6,0.4-2.5,0.4c-1.1,0-2-0.2-2.9-0.6c-0.8-0.4-1.5-1-2-1.7s-0.7-1.6-0.7-2.6c0-1,0.3-2,0.8-2.7
			s1.2-1.4,2.1-1.8c0.9-0.4,1.9-0.6,3-0.6C299.4,1111.3,301.1,1112,302.3,1113.4z M299.8,1118.3c0.6-0.5,0.9-1.2,0.9-2
			c0-0.8-0.3-1.4-0.9-1.9c-0.6-0.5-1.4-0.8-2.5-0.8c-0.9,0-1.7,0.2-2.3,0.7c-0.6,0.5-0.9,1.2-0.9,2c0,0.8,0.3,1.5,0.9,2
			c0.6,0.5,1.4,0.7,2.3,0.7C298.4,1119.1,299.2,1118.9,299.8,1118.3z"/>
		<path d="M309.9,1126.9c-1-0.7-1.8-1.6-2.4-2.9c-0.6-1.2-0.9-2.7-0.9-4.5c0-1.7,0.3-3.2,0.9-4.5c0.6-1.2,1.4-2.2,2.4-2.9
			c1-0.7,2.2-1,3.4-1c1.3,0,2.4,0.3,3.5,1c1,0.7,1.8,1.6,2.4,2.9c0.6,1.2,0.9,2.7,0.9,4.5c0,1.7-0.3,3.2-0.9,4.5
			c-0.6,1.2-1.4,2.2-2.4,2.9c-1,0.7-2.2,1-3.5,1C312.1,1127.9,310.9,1127.5,309.9,1126.9z M316.1,1123.8c0.7-1,1-2.4,1-4.3
			s-0.3-3.3-1-4.3c-0.7-1-1.6-1.4-2.7-1.4c-1.1,0-2,0.5-2.7,1.4c-0.7,1-1,2.4-1,4.3s0.3,3.3,1,4.3c0.7,1,1.6,1.4,2.7,1.4
			C314.5,1125.3,315.4,1124.8,316.1,1123.8z"/>
	</g>
	<g>
		<path d="M107.3,1039.2l0-13.9l-6.9,11.5h-1.7l-6.9-11.3v13.7H88v-21h3.2l8.3,13.9l8.2-13.9h3.2l0,21H107.3z"/>
		<path d="M119.1,1038.3c-1.3-0.7-2.3-1.7-3-2.9c-0.7-1.2-1.1-2.7-1.1-4.2s0.4-3,1.1-4.2c0.7-1.2,1.7-2.2,3-2.9c1.3-0.7,2.8-1,4.4-1
			c1.6,0,3.1,0.4,4.4,1c1.3,0.7,2.3,1.7,3,2.9c0.7,1.2,1.1,2.7,1.1,4.2s-0.4,3-1.1,4.2c-0.7,1.2-1.7,2.2-3,2.9c-1.3,0.7-2.8,1-4.4,1
			C121.8,1039.4,120.4,1039,119.1,1038.3z M126.9,1034.8c0.9-0.9,1.3-2.1,1.3-3.6s-0.4-2.7-1.3-3.6s-2-1.4-3.4-1.4s-2.5,0.5-3.4,1.4
			s-1.3,2.1-1.3,3.6s0.4,2.7,1.3,3.6s2,1.4,3.4,1.4S126,1035.7,126.9,1034.8z"/>
		<path d="M149.6,1024.7c1.2,1.2,1.8,2.9,1.8,5.2v9.2h-3.8v-8.7c0-1.4-0.3-2.5-1-3.2c-0.7-0.7-1.6-1.1-2.8-1.1
			c-1.4,0-2.5,0.4-3.3,1.2c-0.8,0.8-1.2,2-1.2,3.6v8.1h-3.8v-16h3.6v2.1c0.6-0.7,1.4-1.3,2.3-1.7c0.9-0.4,2-0.6,3.2-0.6
			C146.7,1023,148.3,1023.6,149.6,1024.7z"/>
		<path d="M165.8,1038.3c-0.4,0.4-1,0.6-1.6,0.8c-0.6,0.2-1.3,0.3-2,0.3c-1.8,0-3.1-0.5-4.1-1.4s-1.4-2.3-1.4-4v-7.7H154v-3h2.6
			v-3.7h3.8v3.7h4.3v3h-4.3v7.6c0,0.8,0.2,1.4,0.6,1.8c0.4,0.4,0.9,0.6,1.7,0.6c0.8,0,1.5-0.2,2.1-0.7L165.8,1038.3z"/>
		<path d="M170,1038.9c-1.2-0.3-2.2-0.8-3-1.3l1.4-2.9c0.7,0.5,1.6,0.9,2.6,1.2c1,0.3,2,0.4,3,0.4c2.2,0,3.4-0.6,3.4-1.8
			c0-0.6-0.3-0.9-0.9-1.2c-0.6-0.2-1.5-0.4-2.7-0.6c-1.3-0.2-2.4-0.4-3.2-0.7c-0.8-0.3-1.5-0.7-2.2-1.4c-0.6-0.7-0.9-1.6-0.9-2.7
			c0-1.5,0.6-2.7,1.9-3.6c1.3-0.9,3-1.4,5.1-1.4c1.1,0,2.2,0.1,3.3,0.4c1.1,0.3,2,0.6,2.7,1l-1.4,2.9c-1.4-0.8-2.9-1.2-4.6-1.2
			c-1.1,0-1.9,0.2-2.5,0.5s-0.9,0.8-0.9,1.3c0,0.6,0.3,1,0.9,1.3s1.6,0.5,2.8,0.7c1.3,0.2,2.3,0.4,3.2,0.7c0.8,0.3,1.5,0.7,2.1,1.3
			s0.9,1.5,0.9,2.6c0,1.5-0.7,2.7-2,3.6c-1.3,0.9-3.1,1.3-5.3,1.3C172.5,1039.4,171.3,1039.2,170,1038.9z"/>
		<path d="M199.3,1032.4h-12.6c0.2,1.2,0.8,2.1,1.7,2.8c0.9,0.7,2.1,1,3.5,1c1.8,0,3.2-0.6,4.3-1.7l2,2.3c-0.7,0.9-1.6,1.5-2.7,2
			c-1.1,0.4-2.3,0.7-3.7,0.7c-1.8,0-3.3-0.3-4.7-1s-2.4-1.7-3.1-2.9c-0.7-1.2-1.1-2.7-1.1-4.2c0-1.6,0.4-3,1.1-4.2s1.7-2.2,3-2.9
			c1.3-0.7,2.7-1,4.3-1c1.6,0,3,0.3,4.2,1c1.2,0.7,2.2,1.7,2.9,2.9c0.7,1.2,1,2.7,1,4.3C199.4,1031.5,199.4,1031.9,199.3,1032.4z
			 M188.2,1027c-0.8,0.7-1.3,1.7-1.5,2.8h9.1c-0.2-1.2-0.7-2.1-1.5-2.8c-0.8-0.7-1.8-1.1-3.1-1.1
			C190.1,1026,189.1,1026.3,188.2,1027z"/>
		<path d="M212.3,1023v3.6c-0.3-0.1-0.6-0.1-0.9-0.1c-1.5,0-2.6,0.4-3.4,1.3c-0.8,0.9-1.2,2.1-1.2,3.7v7.8H203v-16h3.6v2.3
			C207.6,1023.8,209.5,1023,212.3,1023z"/>
		<path d="M224.7,1023v3.6c-0.3-0.1-0.6-0.1-0.9-0.1c-1.5,0-2.6,0.4-3.4,1.3c-0.8,0.9-1.2,2.1-1.2,3.7v7.8h-3.8v-16h3.6v2.3
			C220.1,1023.8,222,1023,224.7,1023z"/>
		<path d="M239.3,1024.7c1.2,1.1,1.9,2.8,1.9,5.1v9.4h-3.5v-2c-0.5,0.7-1.1,1.2-2,1.6c-0.9,0.4-1.9,0.6-3.1,0.6s-2.2-0.2-3.2-0.6
			c-0.9-0.4-1.6-1-2.1-1.7c-0.5-0.7-0.7-1.6-0.7-2.5c0-1.4,0.5-2.6,1.6-3.5s2.8-1.3,5.1-1.3h4.1v-0.2c0-1.1-0.3-2-1-2.6
			c-0.7-0.6-1.7-0.9-3-0.9c-0.9,0-1.8,0.1-2.7,0.4c-0.9,0.3-1.6,0.7-2.2,1.2l-1.5-2.7c0.8-0.6,1.8-1.1,3-1.5
			c1.2-0.3,2.4-0.5,3.8-0.5C236.3,1023,238.1,1023.5,239.3,1024.7z M235.9,1036c0.7-0.4,1.2-1,1.5-1.8v-1.9h-3.9
			c-2.2,0-3.2,0.7-3.2,2.1c0,0.7,0.3,1.2,0.8,1.6c0.5,0.4,1.3,0.6,2.2,0.6C234.3,1036.6,235.2,1036.4,235.9,1036z"/>
		<path d="M255.6,1038.3c-0.4,0.4-1,0.6-1.6,0.8c-0.6,0.2-1.3,0.3-2,0.3c-1.8,0-3.1-0.5-4.1-1.4s-1.4-2.3-1.4-4v-7.7h-2.6v-3h2.6
			v-3.7h3.8v3.7h4.3v3h-4.3v7.6c0,0.8,0.2,1.4,0.6,1.8c0.4,0.4,0.9,0.6,1.7,0.6c0.8,0,1.5-0.2,2.1-0.7L255.6,1038.3z"/>
		<path d="M269.2,1038.8c-1.5-0.5-2.7-1.1-3.6-1.8l1.4-3c0.9,0.7,1.9,1.2,3.2,1.7c1.2,0.4,2.5,0.6,3.8,0.6c1.6,0,2.7-0.2,3.5-0.8
			c0.8-0.5,1.2-1.2,1.2-2c0-0.6-0.2-1.1-0.6-1.5c-0.4-0.4-1-0.7-1.6-0.9c-0.7-0.2-1.6-0.5-2.7-0.8c-1.6-0.4-2.9-0.8-3.9-1.1
			s-1.8-1-2.5-1.8c-0.7-0.8-1.1-1.9-1.1-3.3c0-1.2,0.3-2.2,0.9-3.2c0.6-0.9,1.6-1.7,2.8-2.3c1.3-0.6,2.8-0.8,4.7-0.8
			c1.3,0,2.5,0.2,3.8,0.5c1.2,0.3,2.3,0.8,3.2,1.4l-1.2,3c-0.9-0.5-1.9-0.9-2.9-1.2s-2-0.4-2.9-0.4c-1.5,0-2.7,0.3-3.4,0.8
			c-0.8,0.5-1.1,1.2-1.1,2.1c0,0.6,0.2,1.1,0.6,1.5c0.4,0.4,1,0.7,1.6,0.9c0.7,0.2,1.6,0.5,2.7,0.8c1.6,0.4,2.8,0.7,3.8,1.1
			c1,0.4,1.9,1,2.6,1.8s1.1,1.9,1.1,3.2c0,1.2-0.3,2.2-0.9,3.2c-0.6,0.9-1.6,1.7-2.9,2.2s-2.8,0.8-4.7,0.8
			C272.3,1039.5,270.7,1039.2,269.2,1038.8z"/>
		<path d="M300.9,1032.4h-12.6c0.2,1.2,0.8,2.1,1.7,2.8c0.9,0.7,2.1,1,3.5,1c1.8,0,3.2-0.6,4.3-1.7l2,2.3c-0.7,0.9-1.6,1.5-2.7,2
			c-1.1,0.4-2.3,0.7-3.7,0.7c-1.8,0-3.3-0.3-4.7-1s-2.4-1.7-3.1-2.9c-0.7-1.2-1.1-2.7-1.1-4.2c0-1.6,0.4-3,1.1-4.2s1.7-2.2,3-2.9
			c1.3-0.7,2.7-1,4.3-1c1.6,0,3,0.3,4.2,1c1.2,0.7,2.2,1.7,2.9,2.9c0.7,1.2,1,2.7,1,4.3C300.9,1031.5,300.9,1031.9,300.9,1032.4z
			 M289.8,1027c-0.8,0.7-1.3,1.7-1.5,2.8h9.1c-0.2-1.2-0.7-2.1-1.5-2.8c-0.8-0.7-1.8-1.1-3.1-1.1
			C291.6,1026,290.6,1026.3,289.8,1027z"/>
		<path d="M329.6,1024.7c1.2,1.2,1.8,2.9,1.8,5.3v9.2h-3.8v-8.7c0-1.4-0.3-2.5-0.9-3.2c-0.6-0.7-1.5-1.1-2.7-1.1
			c-1.3,0-2.3,0.4-3,1.2c-0.8,0.8-1.1,2-1.1,3.6v8.1h-3.8v-8.7c0-1.4-0.3-2.5-0.9-3.2c-0.6-0.7-1.5-1.1-2.7-1.1
			c-1.3,0-2.3,0.4-3,1.2c-0.8,0.8-1.1,2-1.1,3.6v8.1h-3.8v-16h3.6v2c0.6-0.7,1.3-1.3,2.2-1.6c0.9-0.4,1.9-0.6,3-0.6
			c1.2,0,2.3,0.2,3.2,0.7c0.9,0.5,1.7,1.1,2.2,2c0.7-0.8,1.5-1.5,2.6-2c1-0.5,2.2-0.7,3.4-0.7C326.8,1023,328.4,1023.5,329.6,1024.7
			z"/>
		<path d="M336.3,1019.9c-0.5-0.4-0.7-1-0.7-1.6c0-0.6,0.2-1.2,0.7-1.6c0.5-0.4,1-0.6,1.7-0.6s1.2,0.2,1.7,0.6s0.7,0.9,0.7,1.5
			c0,0.7-0.2,1.2-0.7,1.7s-1,0.7-1.7,0.7C337.3,1020.5,336.8,1020.3,336.3,1019.9z M336.1,1023.1h3.8v16h-3.8V1023.1z"/>
		<path d="M362.8,1030.1c0.7,0.9,1,2,1,3.3c0,1.8-0.7,3.2-2.1,4.2c-1.4,1-3.4,1.5-6.1,1.5h-10.4v-21h9.8c2.5,0,4.4,0.5,5.7,1.5
			c1.3,1,2,2.3,2,4c0,1-0.2,2-0.7,2.8c-0.5,0.8-1.1,1.4-2,1.9C361.2,1028.6,362.1,1029.3,362.8,1030.1z M349.1,1021.2v5.8h5.5
			c1.4,0,2.4-0.2,3.1-0.7c0.7-0.5,1.1-1.2,1.1-2.1c0-1-0.4-1.7-1.1-2.2c-0.7-0.5-1.8-0.7-3.1-0.7H349.1z M359.9,1033.1
			c0-2-1.5-3-4.5-3h-6.3v6.1h6.3C358.4,1036.1,359.9,1035.1,359.9,1033.1z"/>
		<path d="M370.4,1038.3c-1.3-0.7-2.3-1.7-3-2.9c-0.7-1.2-1.1-2.7-1.1-4.2s0.4-3,1.1-4.2c0.7-1.2,1.7-2.2,3-2.9c1.3-0.7,2.8-1,4.4-1
			c1.6,0,3.1,0.4,4.4,1c1.3,0.7,2.3,1.7,3,2.9c0.7,1.2,1.1,2.7,1.1,4.2s-0.4,3-1.1,4.2c-0.7,1.2-1.7,2.2-3,2.9c-1.3,0.7-2.8,1-4.4,1
			C373.2,1039.4,371.7,1039,370.4,1038.3z M378.2,1034.8c0.9-0.9,1.3-2.1,1.3-3.6s-0.4-2.7-1.3-3.6s-2-1.4-3.4-1.4s-2.5,0.5-3.4,1.4
			s-1.3,2.1-1.3,3.6s0.4,2.7,1.3,3.6s2,1.4,3.4,1.4S377.3,1035.7,378.2,1034.8z"/>
		<path d="M387,1016.9h3.8v22.3H387V1016.9z"/>
		<path d="M411.3,1016.9v22.3h-3.6v-2.1c-0.6,0.8-1.4,1.3-2.3,1.7c-0.9,0.4-1.9,0.6-3,0.6c-1.5,0-2.9-0.3-4.2-1
			c-1.2-0.7-2.2-1.6-2.9-2.9c-0.7-1.2-1.1-2.7-1.1-4.3s0.3-3,1.1-4.3c0.7-1.2,1.7-2.2,2.9-2.9c1.2-0.7,2.6-1,4.2-1
			c1.1,0,2,0.2,2.9,0.5c0.9,0.4,1.6,0.9,2.2,1.6v-8.2H411.3z M405.3,1035.5c0.7-0.4,1.3-1,1.7-1.8c0.4-0.8,0.6-1.6,0.6-2.6
			s-0.2-1.9-0.6-2.6c-0.4-0.8-1-1.3-1.7-1.8c-0.7-0.4-1.5-0.6-2.4-0.6c-0.9,0-1.7,0.2-2.4,0.6c-0.7,0.4-1.3,1-1.7,1.8
			c-0.4,0.8-0.6,1.6-0.6,2.6s0.2,1.9,0.6,2.6c0.4,0.8,1,1.3,1.7,1.8c0.7,0.4,1.5,0.6,2.4,0.6C403.8,1036.2,404.6,1036,405.3,1035.5z
			"/>
	</g>
</g>
<circle class="st1" cx="118.2" cy="701.8" r="60"/>
<circle class="st2" cx="690.9" cy="701.8" r="60"/>
<circle class="st3" cx="500" cy="701.8" r="60"/>
<circle class="st4" cx="309.1" cy="701.8" r="60"/>
<circle class="st5" cx="881.8" cy="701.8" r="60"/>
<text transform="matrix(1 0 0 1 649.6738 796.209)" class="st6 st7">#231f20</text>
<text transform="matrix(1 0 0 1 831.7335 796.209)" class="st6 st7">#dcddde</text>
<text transform="matrix(1 0 0 1 458.7517 796.209)" class="st6 st7">#231f20</text>
<text transform="matrix(1 0 0 1 267.8298 796.209)" class="st6 st7">#231f20</text>
<text transform="matrix(1 0 0 1 74.6859 796.209)" class="st6 st7">#06a79d</text>
<g>
	<title>KSPD_Logo_White_NegativeSpace</title>
	<g>
		<g id="Layer_1-2">
			<path class="st8" d="M422.9,1237.7v17.2h17.2v-17.2H422.9z M436.4,1252.9c-0.1,0.1-0.1,0.1-0.2,0.1c-0.1,0-0.3,0.1-0.4,0.1
				c-0.2,0-0.5,0-0.7,0c-0.3,0-0.7,0-1-0.1c-0.1,0-0.3-0.1-0.4-0.2c-0.1-0.1-0.2-0.2-0.2-0.3l-4.1-6.4v6.4c0,0.1,0,0.1-0.1,0.2
				c-0.1,0.1-0.1,0.1-0.2,0.1c-0.1,0-0.3,0.1-0.4,0.1c-0.2,0-0.4,0-0.7,0c-0.2,0-0.4,0-0.7,0c-0.1,0-0.3,0-0.4-0.1
				c-0.1,0-0.2-0.1-0.2-0.1c0-0.1-0.1-0.1-0.1-0.2V1240c0-0.1,0-0.1,0.1-0.2c0.1-0.1,0.1-0.1,0.2-0.1c0.1,0,0.3-0.1,0.4-0.1
				c0.2,0,0.4,0,0.7,0c0.2,0,0.4,0,0.7,0c0.1,0,0.3,0,0.4,0.1c0.1,0,0.2,0.1,0.2,0.1c0,0.1,0.1,0.1,0.1,0.2v5.7l4-5.7
				c0-0.1,0.1-0.2,0.2-0.2c0.1-0.1,0.2-0.1,0.3-0.1c0.1,0,0.3-0.1,0.4-0.1c0.2,0,0.4,0,0.7,0c0.2,0,0.5,0,0.7,0c0.1,0,0.3,0,0.4,0.1
				c0.1,0,0.2,0.1,0.2,0.1c0,0.1,0.1,0.1,0.1,0.2c0,0.1,0,0.3-0.1,0.4c-0.1,0.1-0.2,0.3-0.4,0.6l-3.7,4.9l4,6.1
				c0.1,0.2,0.2,0.4,0.3,0.6c0,0.1,0,0.1,0,0.2C436.4,1252.7,436.4,1252.8,436.4,1252.9z"/>
			<path class="st8" d="M428.9,1263.5C428.9,1263.5,428.9,1263.6,428.9,1263.5c-0.1,0.1-0.1,0.1-0.1,0.2c-0.1,0-0.1,0-0.2,0
				c-0.1,0-0.2,0-0.3,0c-0.1,0-0.3,0-0.4,0c-0.1,0-0.1,0-0.2-0.1c0,0-0.1-0.1-0.1-0.1l-1.9-2.9v2.9c0,0,0,0.1,0,0.1
				c0,0-0.1,0.1-0.1,0.1c-0.1,0-0.1,0-0.2,0c-0.1,0-0.2,0-0.3,0c-0.1,0-0.2,0-0.3,0c-0.1,0-0.1,0-0.2,0c0,0-0.1,0-0.1-0.1
				c0,0,0-0.1,0-0.1v-5.8c0,0,0-0.1,0-0.1c0,0,0.1-0.1,0.1-0.1c0.1,0,0.1,0,0.2,0c0.1,0,0.2,0,0.3,0s0.2,0,0.3,0c0.1,0,0.1,0,0.2,0
				c0,0,0.1,0,0.1,0.1c0,0,0,0.1,0,0.1v2.6l1.8-2.6c0,0,0-0.1,0.1-0.1c0,0,0.1-0.1,0.1-0.1c0.1,0,0.1,0,0.2,0c0.1,0,0.2,0,0.3,0
				c0.1,0,0.2,0,0.3,0c0.1,0,0.1,0,0.2,0c0,0,0.1,0,0.1,0.1c0,0,0,0.1,0,0.1c0,0.1,0,0.1,0,0.2c0,0.1-0.1,0.1-0.2,0.3l-1.7,2.2
				l1.8,2.8c0,0.1,0.1,0.2,0.1,0.3C428.9,1263.4,428.9,1263.5,428.9,1263.5z"/>
			<path class="st8" d="M434.8,1263.2c0,0.1,0.1,0.2,0.1,0.3c0,0.1,0,0.1,0,0.1c-0.1,0-0.1,0.1-0.2,0.1c-0.1,0-0.2,0-0.4,0h-0.4
				c-0.1,0-0.1,0-0.2,0c0,0-0.1,0-0.1-0.1c0,0,0-0.1,0-0.1l-0.4-1.2h-2.3l-0.4,1.2c0,0,0,0.1-0.1,0.1c0,0-0.1,0.1-0.1,0.1
				c-0.1,0-0.1,0-0.2,0c-0.1,0-0.2,0-0.3,0s-0.3,0-0.3,0c-0.1,0-0.1,0-0.2-0.1c0,0,0-0.1,0-0.2c0-0.1,0-0.2,0.1-0.3l1.9-5.5
				c0,0,0-0.1,0.1-0.1c0,0,0.1-0.1,0.1-0.1c0.1,0,0.2,0,0.2,0h0.8c0.1,0,0.2,0,0.3,0c0.1,0,0.1,0,0.1,0.1c0,0,0.1,0.1,0.1,0.1
				L434.8,1263.2z M432,1258.7L432,1258.7l-0.9,2.6h1.7L432,1258.7z"/>
			<path class="st8" d="M437.3,1261.4v2.2c0,0,0,0.1,0,0.1c0,0-0.1,0.1-0.1,0.1c-0.1,0-0.1,0-0.2,0c-0.1,0-0.2,0-0.3,0
				c-0.1,0-0.2,0-0.3,0c-0.1,0-0.1,0-0.2,0c0,0-0.1,0-0.1-0.1c0,0,0-0.1,0-0.1v-2.2l-1.7-3.3c0-0.1-0.1-0.2-0.1-0.3
				c0-0.1,0-0.1,0-0.1c0.1,0,0.1-0.1,0.2-0.1c0.1,0,0.2,0,0.4,0s0.3,0,0.4,0c0.1,0,0.1,0,0.2,0c0,0,0.1,0,0.1,0.1c0,0,0,0.1,0.1,0.1
				l0.7,1.5c0.1,0.1,0.1,0.3,0.2,0.5c0.1,0.2,0.1,0.3,0.2,0.5l0,0c0.1-0.2,0.1-0.3,0.2-0.5s0.1-0.3,0.2-0.5l0.7-1.5
				c0,0,0-0.1,0.1-0.1c0,0,0.1-0.1,0.1-0.1c0.1,0,0.1,0,0.2,0c0.1,0,0.2,0,0.3,0c0.1,0,0.3,0,0.4,0c0.1,0,0.1,0,0.2,0.1
				c0,0,0,0.1,0,0.1c0,0.1-0.1,0.2-0.1,0.3L437.3,1261.4z"/>
			<path class="st8" d="M442,1237.7v17.2h17.2v-17.2H442z M454.6,1250.8c-0.3,0.5-0.6,1-1.1,1.3c-0.5,0.4-1,0.6-1.6,0.8
				c-0.6,0.2-1.3,0.3-1.9,0.3c-0.4,0-0.9,0-1.3-0.1c-0.4-0.1-0.7-0.2-1.1-0.3c-0.3-0.1-0.5-0.2-0.8-0.3c-0.2-0.1-0.3-0.2-0.4-0.3
				c-0.1-0.1-0.2-0.3-0.2-0.4c0-0.2-0.1-0.5-0.1-0.7c0-0.2,0-0.4,0-0.5c0-0.1,0-0.2,0.1-0.4c0-0.1,0.1-0.1,0.1-0.2
				c0.1,0,0.1-0.1,0.2-0.1c0.1,0,0.3,0.1,0.4,0.2c0.2,0.1,0.5,0.3,0.7,0.4c0.3,0.1,0.7,0.3,1,0.4c0.4,0.1,0.9,0.2,1.3,0.2
				c0.3,0,0.6,0,0.9-0.1c0.2-0.1,0.5-0.2,0.7-0.3c0.2-0.1,0.3-0.3,0.4-0.5c0.1-0.2,0.1-0.5,0.1-0.7c0-0.3-0.1-0.6-0.2-0.8
				c-0.2-0.2-0.4-0.4-0.7-0.6c-0.3-0.2-0.6-0.3-0.9-0.5l-1.1-0.5c-0.4-0.2-0.7-0.4-1.1-0.6c-0.3-0.2-0.6-0.5-0.9-0.8
				c-0.3-0.3-0.5-0.7-0.7-1.1c-0.2-0.5-0.3-1-0.3-1.5c0-0.6,0.1-1.2,0.4-1.7c0.2-0.5,0.6-0.9,1-1.2c0.4-0.3,0.9-0.6,1.5-0.7
				c0.6-0.2,1.2-0.2,1.8-0.2c0.3,0,0.6,0,1,0.1c0.3,0,0.6,0.1,0.9,0.2c0.2,0.1,0.5,0.2,0.7,0.3c0.2,0.1,0.3,0.2,0.4,0.3
				c0.1,0.1,0.1,0.1,0.1,0.2c0,0.1,0,0.1,0.1,0.2c0,0.1,0,0.2,0,0.3c0,0.1,0,0.3,0,0.5c0,0.2,0,0.4,0,0.5c0,0.1,0,0.2-0.1,0.3
				c0,0.1-0.1,0.1-0.1,0.2c0,0-0.1,0.1-0.2,0.1c-0.1,0-0.3-0.1-0.4-0.1c-0.2-0.1-0.4-0.2-0.6-0.3c-0.3-0.1-0.6-0.2-0.8-0.3
				c-0.3-0.1-0.7-0.1-1.1-0.1c-0.3,0-0.5,0-0.8,0.1c-0.2,0.1-0.4,0.2-0.6,0.3c-0.1,0.1-0.3,0.3-0.3,0.5c-0.1,0.2-0.1,0.4-0.1,0.6
				c0,0.3,0.1,0.6,0.3,0.8c0.2,0.2,0.4,0.4,0.7,0.6c0.3,0.2,0.6,0.3,0.9,0.5c0.4,0.1,0.7,0.3,1.1,0.5c0.4,0.2,0.7,0.4,1.1,0.6
				c0.3,0.2,0.7,0.5,0.9,0.8c0.3,0.3,0.5,0.7,0.7,1c0.2,0.5,0.3,0.9,0.3,1.4C455,1249.6,454.9,1250.3,454.6,1250.8z"/>
			<path class="st8" d="M448,1263.2c0,0.1,0,0.2,0,0.2c0,0.1,0,0.1,0,0.1c0,0,0,0.1-0.1,0.1c0,0-0.1,0-0.1,0h-3.1
				c-0.1,0-0.2,0-0.3-0.1c-0.1-0.1-0.1-0.2-0.1-0.3v-5.4c0-0.1,0-0.2,0.1-0.3c0.1-0.1,0.2-0.1,0.3-0.1h3.1c0,0,0.1,0,0.1,0
				c0,0,0,0.1,0.1,0.1c0,0,0,0.1,0,0.1c0,0.1,0,0.2,0,0.2c0,0.1,0,0.2,0,0.2c0,0.1,0,0.1,0,0.1c0,0,0,0.1-0.1,0.1c0,0,0,0-0.1,0
				h-2.2v1.5h1.9c0,0,0.1,0,0.1,0c0,0,0,0.1,0.1,0.1c0,0,0,0.1,0,0.1c0,0.1,0,0.2,0,0.2c0,0.1,0,0.2,0,0.2c0,0.1,0,0.1,0,0.1
				c0,0,0,0.1-0.1,0.1c0,0-0.1,0-0.1,0h-1.9v1.7h2.2c0,0,0.1,0,0.1,0c0,0,0,0.1,0.1,0.1c0,0,0,0.1,0,0.1
				C448,1263,448,1263.1,448,1263.2z"/>
			<path class="st8" d="M452.6,1261.8c0,0.3-0.1,0.6-0.2,0.9c-0.1,0.2-0.3,0.4-0.5,0.6c-0.2,0.2-0.5,0.3-0.7,0.4
				c-0.3,0.1-0.6,0.1-0.9,0.1c-0.2,0-0.4,0-0.6-0.1c-0.2,0-0.3-0.1-0.5-0.1c-0.1,0-0.2-0.1-0.4-0.2c-0.1,0-0.1-0.1-0.2-0.1
				c0,0-0.1-0.1-0.1-0.2c0-0.1,0-0.2,0-0.3c0-0.1,0-0.2,0-0.2c0-0.1,0-0.1,0.1-0.2c0,0,0-0.1,0.1-0.1c0,0,0.1,0,0.1,0
				c0.1,0,0.1,0,0.2,0.1c0.1,0.1,0.2,0.1,0.3,0.2c0.1,0.1,0.3,0.1,0.5,0.2c0.2,0.1,0.4,0.1,0.6,0.1c0.1,0,0.3,0,0.4,0
				c0.1,0,0.2-0.1,0.3-0.2c0.1-0.1,0.1-0.2,0.2-0.2c0-0.1,0.1-0.2,0.1-0.3c0-0.1,0-0.3-0.1-0.4c-0.1-0.1-0.2-0.2-0.3-0.3
				c-0.1-0.1-0.3-0.2-0.4-0.2l-0.5-0.2c-0.2-0.1-0.3-0.2-0.5-0.3c-0.2-0.1-0.3-0.2-0.4-0.4c-0.1-0.1-0.2-0.3-0.3-0.5
				c-0.1-0.2-0.1-0.4-0.1-0.6c0-0.3,0.1-0.5,0.2-0.8c0.1-0.2,0.3-0.4,0.4-0.6c0.2-0.2,0.4-0.3,0.7-0.3c0.3-0.1,0.5-0.1,0.8-0.1
				c0.1,0,0.3,0,0.4,0c0.1,0,0.3,0.1,0.4,0.1c0.1,0,0.2,0.1,0.3,0.1c0.1,0,0.1,0.1,0.2,0.1c0,0,0,0.1,0.1,0.1c0,0,0,0.1,0,0.1
				c0,0,0,0.1,0,0.1c0,0.1,0,0.1,0,0.2c0,0.1,0,0.2,0,0.2c0,0.1,0,0.1,0,0.2c0,0,0,0.1,0,0.1c0,0-0.1,0-0.1,0c-0.1,0-0.1,0-0.2-0.1
				c-0.1-0.1-0.2-0.1-0.3-0.1c-0.1-0.1-0.3-0.1-0.4-0.1c-0.2,0-0.3-0.1-0.5-0.1c-0.1,0-0.2,0-0.4,0.1c-0.1,0-0.2,0.1-0.3,0.1
				c-0.1,0.1-0.1,0.1-0.1,0.2c0,0.1-0.1,0.2-0.1,0.3c0,0.1,0,0.3,0.1,0.4c0.1,0.1,0.2,0.2,0.3,0.3c0.1,0.1,0.3,0.2,0.4,0.2l0.5,0.2
				c0.2,0.1,0.3,0.2,0.5,0.3c0.2,0.1,0.3,0.2,0.4,0.4c0.1,0.1,0.2,0.3,0.3,0.5C452.6,1261.4,452.6,1261.6,452.6,1261.8z"/>
			<path class="st8" d="M457.2,1261.8c0,0.3-0.1,0.6-0.2,0.9c-0.1,0.2-0.3,0.4-0.5,0.6c-0.2,0.2-0.5,0.3-0.7,0.4
				c-0.3,0.1-0.6,0.1-0.9,0.1c-0.2,0-0.4,0-0.6-0.1c-0.2,0-0.3-0.1-0.5-0.1c-0.1,0-0.2-0.1-0.4-0.2c-0.1,0-0.1-0.1-0.2-0.1
				c0-0.1-0.1-0.1-0.1-0.2c0-0.1,0-0.2,0-0.3c0-0.1,0-0.2,0-0.2c0-0.1,0-0.1,0-0.2c0,0,0-0.1,0.1-0.1c0,0,0.1,0,0.1,0
				c0.1,0,0.1,0,0.2,0.1c0.1,0.1,0.2,0.1,0.3,0.2c0.1,0.1,0.3,0.1,0.5,0.2c0.2,0.1,0.4,0.1,0.6,0.1c0.1,0,0.3,0,0.4,0
				c0.1,0,0.2-0.1,0.3-0.2c0.1-0.1,0.1-0.2,0.2-0.2c0-0.1,0.1-0.2,0.1-0.3c0-0.1,0-0.3-0.1-0.4c-0.1-0.1-0.2-0.2-0.3-0.3
				c-0.1-0.1-0.3-0.2-0.4-0.2c-0.2-0.1-0.3-0.1-0.5-0.2c-0.2-0.1-0.3-0.2-0.5-0.3c-0.2-0.1-0.3-0.2-0.4-0.4
				c-0.1-0.1-0.2-0.3-0.3-0.5c-0.1-0.2-0.1-0.4-0.1-0.7c0-0.3,0.1-0.5,0.2-0.8c0.1-0.2,0.3-0.4,0.4-0.6c0.2-0.2,0.4-0.3,0.7-0.3
				c0.3-0.1,0.5-0.1,0.8-0.1c0.1,0,0.3,0,0.4,0c0.1,0,0.3,0.1,0.4,0.1c0.1,0,0.2,0.1,0.3,0.1c0.1,0,0.1,0.1,0.2,0.1
				c0,0,0,0.1,0.1,0.1c0,0,0,0.1,0,0.1c0,0,0,0.1,0,0.1c0,0.1,0,0.1,0,0.2c0,0.1,0,0.2,0,0.2c0,0.1,0,0.1,0,0.2c0,0,0,0.1,0,0.1
				c0,0-0.1,0-0.1,0c-0.1,0-0.1,0-0.1-0.1c-0.1-0.1-0.2-0.1-0.3-0.1c-0.1-0.1-0.2-0.1-0.4-0.1c-0.2,0-0.3-0.1-0.5-0.1
				c-0.1,0-0.2,0-0.4,0.1c-0.1,0-0.2,0.1-0.3,0.1c-0.1,0.1-0.1,0.1-0.2,0.2c0,0.1-0.1,0.2-0.1,0.3c0,0.1,0,0.3,0.1,0.4
				c0.1,0.1,0.2,0.2,0.3,0.3c0.1,0.1,0.3,0.2,0.4,0.2l0.5,0.2c0.2,0.1,0.3,0.2,0.5,0.3c0.2,0.1,0.3,0.2,0.4,0.4
				c0.1,0.1,0.2,0.3,0.3,0.5C457.2,1261.4,457.2,1261.6,457.2,1261.8z"/>
			<path class="st8" d="M461,1237.7v17.2h17.2v-3.3c-1.4-1.1-2.7-2.6-2.8-4.7c-0.2-2.9,1.2-5,2.8-6.3v-2.9L461,1237.7z
				 M473.9,1245.6c-0.2,0.6-0.6,1.1-1,1.5c-0.5,0.4-1.1,0.7-1.7,0.9c-0.8,0.2-1.5,0.3-2.3,0.3h-1.1v4.3c0,0.1,0,0.1-0.1,0.2
				c-0.1,0.1-0.1,0.1-0.2,0.1c-0.1,0-0.3,0.1-0.4,0.1c-0.2,0-0.4,0-0.7,0c-0.2,0-0.4,0-0.7,0c-0.1,0-0.3,0-0.4-0.1
				c-0.1,0-0.2-0.1-0.2-0.1c0-0.1-0.1-0.1-0.1-0.2v-12.2c0-0.3,0.1-0.5,0.3-0.7c0.2-0.2,0.4-0.3,0.7-0.2h3.2c0.3,0,0.6,0,0.9,0
				c0.3,0,0.7,0.1,1,0.2c0.4,0.1,0.8,0.2,1.2,0.4c0.4,0.2,0.8,0.5,1.1,0.8c0.3,0.3,0.5,0.7,0.7,1.2c0.2,0.5,0.2,1,0.2,1.5
				C474.3,1244.3,474.2,1245,473.9,1245.6z M476.4,1246.7c0.1,1.4,0.8,2.7,1.8,3.6v-8.4C477,1243.2,476.3,1244.9,476.4,1246.7
				L476.4,1246.7z"/>
			<path class="st8" d="M471.4,1243.8c0,0.3,0,0.7-0.1,1c-0.1,0.3-0.2,0.5-0.4,0.8c-0.2,0.2-0.4,0.4-0.7,0.5
				c-0.3,0.1-0.7,0.2-1.1,0.2h-1.2v-4.6h1.2c0.3,0,0.6,0,0.8,0.1c0.3,0,0.5,0.1,0.8,0.3c0.3,0.2,0.5,0.4,0.6,0.7
				C471.3,1243,471.4,1243.4,471.4,1243.8z"/>
			<path class="st8" d="M466.6,1259.4c0,0.3,0,0.6-0.2,0.9c-0.1,0.3-0.3,0.5-0.5,0.7c-0.2,0.2-0.5,0.3-0.8,0.4
				c-0.3,0.1-0.7,0.1-1.1,0.1h-0.5v2c0,0,0,0.1,0,0.1c0,0-0.1,0.1-0.1,0.1c-0.1,0-0.1,0-0.2,0c-0.1,0-0.2,0-0.3,0
				c-0.1,0-0.2,0-0.3,0c-0.1,0-0.1,0-0.2,0c0,0-0.1,0-0.1-0.1c0,0,0-0.1,0-0.1v-5.5c0-0.1,0-0.2,0.1-0.3c0.1-0.1,0.2-0.1,0.3-0.1
				h1.5c0.1,0,0.3,0,0.4,0c0.2,0,0.3,0,0.5,0.1c0.2,0,0.4,0.1,0.6,0.2c0.2,0.1,0.3,0.2,0.5,0.4c0.1,0.2,0.2,0.3,0.3,0.5
				C466.6,1258.9,466.6,1259.2,466.6,1259.4z M465.3,1259.5c0-0.2,0-0.4-0.1-0.5c-0.1-0.1-0.2-0.2-0.3-0.3c-0.1-0.1-0.2-0.1-0.4-0.1
				c-0.1,0-0.2,0-0.4,0h-0.5v2.1h0.6c0.2,0,0.3,0,0.5-0.1c0.1,0,0.2-0.1,0.3-0.2c0.1-0.1,0.2-0.2,0.2-0.4
				C465.3,1259.8,465.3,1259.7,465.3,1259.5z"/>
			<path class="st8" d="M471.2,1263.2c0,0.1,0,0.2,0,0.2c0,0.1,0,0.1,0,0.1c0,0,0,0.1-0.1,0.1c0,0-0.1,0-0.1,0H468
				c-0.1,0-0.2,0-0.3-0.1c-0.1-0.1-0.1-0.2-0.1-0.3v-5.4c0-0.1,0-0.2,0.1-0.3c0.1-0.1,0.2-0.1,0.3-0.1h3.1c0,0,0.1,0,0.1,0
				c0,0,0,0.1,0.1,0.1c0,0,0,0.1,0,0.2c0,0.1,0,0.2,0,0.2c0,0.1,0,0.2,0,0.2c0,0.1,0,0.1,0,0.1c0,0,0,0.1-0.1,0.1c0,0,0,0-0.1,0
				h-2.2v1.5h1.9c0,0,0.1,0,0.1,0c0,0,0,0.1,0.1,0.1c0,0,0,0.1,0,0.1c0,0.1,0,0.2,0,0.2c0,0.1,0,0.2,0,0.2c0,0,0,0.1,0,0.1
				c0,0,0,0.1-0.1,0.1c0,0-0.1,0-0.1,0h-1.9v1.7h2.2c0,0,0.1,0,0.1,0c0,0,0,0.1,0.1,0.1c0,0,0,0.1,0,0.1
				C471.2,1263.1,471.2,1263.1,471.2,1263.2z"/>
			<path class="st8" d="M477.2,1263.2c0,0.1,0.1,0.2,0.1,0.3c0,0.1,0,0.1,0,0.1c-0.1,0-0.1,0.1-0.2,0.1c-0.1,0-0.2,0-0.4,0h-0.4
				c-0.1,0-0.1,0-0.2,0c0,0-0.1,0-0.1-0.1c0,0,0-0.1,0-0.1l-0.4-1.2h-2.3l-0.4,1.2c0,0,0,0.1-0.1,0.1c0,0-0.1,0.1-0.1,0.1
				c-0.1,0-0.1,0-0.2,0c-0.1,0-0.2,0-0.3,0c-0.1,0-0.3,0-0.3,0c-0.1,0-0.1,0-0.2-0.1c0,0,0-0.1,0-0.2c0-0.1,0-0.2,0.1-0.3l1.9-5.5
				c0,0,0-0.1,0.1-0.1c0,0,0.1-0.1,0.1-0.1c0.1,0,0.2,0,0.2,0h0.8c0.1,0,0.2,0,0.3,0c0.1,0,0.1,0,0.1,0.1c0,0,0.1,0.1,0.1,0.1
				L477.2,1263.2z M474.4,1258.7L474.4,1258.7l-0.9,2.6h1.7L474.4,1258.7z"/>
			<path class="st8" d="M587,1248.8c-0.4-0.3-1.4,0.6-1.7,0.8c-1.8,1.1-3.9,1.8-6,2.2c-2.4,0.3-4.9,0.2-7.2-0.5
				c-0.7-0.2-1.3-0.4-2-0.7c-0.4-0.3-0.6-0.8-1-1c-1-0.4-1.9,0.3-2.4,0.8c-1.3,1.1-2.7,2.1-3.9,3.1c0.6-1.7,1.2-5-0.6-5.7
				c-1.3-0.5-2.6,0.4-3.4,0.9c-2.1,1.4-3.6,3.8-5,5.5c-0.7-1-2.5-1.3-4-1c0.6-0.6,2.1-2.1,1.6-3.4c-0.6-1.5-3.2-0.6-4.3-0.1
				c-1.6,0.7-3,1.7-4.1,3c-0.8,1-1.5,2.8,0,3.4c-1.3,0.6-2.8,1.5-4.4,1.6c-1.5,0.1-2.2-0.5-2.2-1.8c0-1.6,0.7-3.3,1.2-4.6
				c0.2-0.4,0.4-1.2-0.2-1.2c-0.4,0-0.6,0.5-0.7,0.8c-0.5,1.1-1.3,1.9-2.3,2.5c-0.4,0.2-0.9,0.4-1.3,0.6c-1.3,0.7-2.6,1.3-3.9,1.9
				c0.2-1.3,0.5-4.5-0.7-4.9c-0.6-0.2-1.6,0.2-2.2,0.5c-0.6,0.3-1.2,0.7-1.7,1c-2.3,1.5-4.3,3.2-6.7,4.4c-1.2,0.6-2.7,1.4-4.1,1.5
				c-1.9,0.1-2.2-1-2.3-2.7c2.3-0.5,4.4-1,6.4-2c1.6-0.8,3.9-2.1,3.6-4.8c-0.1-1.1-0.8-2.1-1.7-2.7c-0.6-0.3-1.2-0.4-1.8-0.3
				c-2.3,0.2-4,1.5-5.2,3c-1.3,1.6-2,3.6-2.3,6c-0.5,0-1,0.2-1.5,0.2c0.3-3.3-0.9-5.7-2.2-7.7c-1.4-2-3-3.7-4.9-5.1
				c-4.4-3.3-9.9-4.9-15.5-4.5c-3.1,0.2-5.6,1.1-7.6,2.5c-0.2,0.1-0.3,0.3-0.5,0.4v1.3c0.4-0.4,0.9-0.8,1.4-1.2
				c1.8-1.2,4.4-2,7.2-2.1c5.2-0.3,10.3,1.3,14.4,4.4c1.8,1.3,3.3,2.9,4.6,4.8c1.2,1.8,2.4,4.2,2,7.2c-6.3,0.8-13.9,0.5-19.6-0.6
				c0.8-3.8,1.8-7.6,2.7-11.4c0.1-0.4,0.4-1.3-0.2-1.4s-0.6,0.7-0.8,1.3c-0.9,3.7-1.9,7.6-2.7,11.3c-2.6-0.6-4.8-1.3-6.8-2.4
				c-0.8-0.4-1.5-1-2.2-1.6v1.3c0.5,0.4,1,0.7,1.5,1c2.2,1.3,4.6,2,7.3,2.7c-0.6,2.6-1.3,5.4-1.8,8.1c-0.1,0.7-0.7,2.5,0.2,2.5
				c0.6,0,1-1.4,1.2-1.8c0.8-1.6,1.9-3,3.1-4.4c0.2-0.3,0.4-0.6,0.7-0.7c0.7,1.2,1.5,2.2,2.5,3.1c0.9,0.9,2.2,1.8,3.9,1.8
				c0.7-0.1,1.4-0.2,2.1-0.4c4.6-1.2,8.6-3.3,9.9-7.6c0.6-0.1,1.1-0.1,1.7-0.3c0.1,1.9,0.7,3.4,2.5,3.5c2,0.2,3.5-0.7,4.9-1.4
				c2.4-1.2,4.5-2.7,6.6-4.2c1.1-0.8,2.2-1.6,3.5-1.9c0.5,1.2,0.3,3.4-0.1,4.6c-0.7,0.3-1.4,0.7-2.1,1c-0.5,0.3-1.8,0.7-1.7,1.5
				c0.2,1,2.2,0.3,2.7,0.1c0.8-0.4,1.5-1.1,1.9-1.9c2.3-1.2,4.9-2.2,7-3.5c-0.6,1.8-0.4,3.9,1,4.6c1.5,0.8,3.6,0,5-0.6
				c1.1-0.4,2.1-1,3-1.5c1-0.5,2-1,3.1-1.4c1.7-0.6,4.4-1.5,5.4,0.2c-1.7,2.4-3.4,4.8-4.9,7.4c-0.8,1.3-1.5,2.6-2.2,4
				c-0.6,1.4-1,3.7-0.1,5.1c0.5,0.8,1.4,1.1,2.3,0.9c1.5-0.3,2.7-1.6,3.6-2.7c0.9-1.2,1.7-2.6,2.1-4.1c1-3,1.8-7.5,0.4-10.6
				c1.5-1.9,2.8-4.2,4.9-5.6c0.7-0.5,2.6-1.5,3-0.3c0.4,1.1-0.1,2.7-0.4,3.9c-0.2,0.6-0.3,1.1-0.6,1.7c-0.2,0.5-0.6,1.4-0.3,1.7
				c0.6,0.6,1-0.6,1.2-0.9c0.4-0.5,0.9-1,1.5-1.5c1.1-0.9,2.1-1.7,3.3-2.6c0.5-0.4,1.2-1.2,1.8-1.1c0.4,0.1,0.6,0.6,1,0.9
				c0.5,0.4,1.4,0.6,2.2,0.8c0.8,0.2,1.5,0.4,2.3,0.6c4.4,0.8,8.9-0.2,12.6-2.7C587,1249.6,587.6,1249.1,587,1248.8z M513.5,1249.4
				c1-1.3,2.6-2.5,4.5-2.6c1.6-0.1,2.7,1.1,2.5,2.7c0,0.2-0.1,0.5-0.2,0.7c-0.6,1.4-2.1,2.1-3.7,2.8c-1.6,0.7-3.3,1.2-5.1,1.5
				C511.7,1252.7,512.3,1250.9,513.5,1249.4z M500.6,1262c-1.1,0.4-2.2,0.7-3.4,0.9c-2,0.2-3.4-1.1-4.3-2.1c-0.4-0.5-0.9-1-1.2-1.6
				c-0.3-0.4-0.7-1.5-1.2-1.6c-0.5,0-0.9,0.7-1.2,1c-1,1.1-1.9,2.3-2.8,3.5c0.4-1.6,0.7-3.3,1.1-4.9c0.1-0.6,0.2-1.2,0.4-1.7
				c6.5,1.1,13,1.3,19.5,0.6C506.4,1259.2,503.8,1260.9,500.6,1262z M545.4,1254.7c-0.7,0.3-1.7,0.7-2.5,0.1
				c-0.1-0.7,0.5-1.3,0.9-1.8c1.2-1.3,3.3-2.8,5.4-3c0.3,0,0.8-0.1,1,0.2c0.1,0.8-0.5,1.5-1,2
				C548.2,1253.3,546.9,1254.1,545.4,1254.7z M552.8,1265.7c-0.7,2-1.8,3.8-3.5,5.1c-0.4,0.3-1.3,0.9-2.1,0.7
				c-1.4-0.4-0.9-3.3-0.4-4.5c1.1-2.8,2.7-5.1,4.3-7.4c0.8-1.2,1.6-2.5,2.5-3.5c0,0,0,0,0,0C554.6,1259.1,553.7,1263.1,552.8,1265.7
				z"/>
			<path class="st8" d="M540.9,1239.7c0.9-0.2,0.9,1.1,0.1,1.1c-0.3,0-0.6-0.3-0.6-0.6C540.5,1240,540.7,1239.8,540.9,1239.7z"/>
		</g>
	</g>
</g>
<g>
	<path class="st8" d="M240.8,58.2c0.5,0.7,0.8,1.5,0.8,2.6c0,1.4-0.5,2.5-1.6,3.2c-1.1,0.8-2.6,1.1-4.6,1.1h-7.7V49.1h7.2
		c1.8,0,3.3,0.4,4.3,1.1c1,0.7,1.5,1.8,1.5,3.1c0,0.8-0.2,1.6-0.6,2.2c-0.4,0.6-0.9,1.1-1.6,1.4C239.5,57.1,240.3,57.5,240.8,58.2z
		 M230.1,50.9v5.2h4.7c1.2,0,2.1-0.2,2.7-0.7s1-1.1,1-1.9c0-0.8-0.3-1.5-1-1.9s-1.5-0.7-2.7-0.7H230.1z M238.3,62.7
		c0.7-0.4,1-1.1,1-2c0-1.8-1.3-2.7-3.9-2.7h-5.3v5.4h5.3C236.7,63.3,237.6,63.1,238.3,62.7z"/>
	<path class="st8" d="M267.4,65.2l-3.5-4.9c-0.4,0-0.8,0-1,0h-4v4.9h-2.3V49.1h6.3c2.1,0,3.7,0.5,4.9,1.5c1.2,1,1.8,2.4,1.8,4.1
		c0,1.2-0.3,2.3-0.9,3.2c-0.6,0.9-1.5,1.5-2.6,1.9l3.8,5.4H267.4z M266.2,57.4c0.8-0.6,1.1-1.5,1.1-2.7c0-1.2-0.4-2.1-1.1-2.7
		c-0.8-0.6-1.9-0.9-3.3-0.9H259v7.2h3.9C264.3,58.3,265.5,58,266.2,57.4z"/>
	<path class="st8" d="M295.2,61.1h-8.6l-1.8,4h-2.4l7.3-16.1h2.3l7.3,16.1h-2.4L295.2,61.1z M294.3,59.3l-3.5-7.9l-3.5,7.9H294.3z"
		/>
	<path class="st8" d="M327.1,49.1v16.1h-1.9l-9.7-12v12h-2.3V49.1h1.9l9.7,12v-12H327.1z"/>
	<path class="st8" d="M343.4,49.1h6.8c1.7,0,3.2,0.3,4.5,1c1.3,0.7,2.3,1.6,3.1,2.8c0.7,1.2,1.1,2.6,1.1,4.2s-0.4,3-1.1,4.2
		c-0.7,1.2-1.8,2.2-3.1,2.8c-1.3,0.7-2.8,1-4.5,1h-6.8V49.1z M350.1,63.2c1.3,0,2.4-0.3,3.4-0.8c1-0.5,1.8-1.2,2.3-2.1
		c0.5-0.9,0.8-2,0.8-3.2c0-1.2-0.3-2.2-0.8-3.2c-0.5-0.9-1.3-1.6-2.3-2.1c-1-0.5-2.1-0.8-3.4-0.8h-4.3v12.1H350.1z"/>
	<path class="st8" d="M391.6,49.1h2.3v16.1h-2.3V49.1z"/>
	<path class="st8" d="M424.1,49.1v16.1h-1.9l-9.7-12v12h-2.3V49.1h1.9l9.7,12v-12H424.1z"/>
	<path class="st8" d="M442.7,51.1v5.6h8.1v2h-8.1v6.5h-2.3V49.1h11.4v2H442.7z"/>
	<path class="st8" d="M469.2,64.3c-1.3-0.7-2.3-1.7-3.1-3c-0.7-1.3-1.1-2.7-1.1-4.2s0.4-3,1.1-4.2c0.7-1.3,1.8-2.2,3.1-3
		c1.3-0.7,2.8-1.1,4.4-1.1c1.6,0,3.1,0.4,4.4,1.1c1.3,0.7,2.3,1.7,3.1,2.9c0.7,1.2,1.1,2.7,1.1,4.2s-0.4,3-1.1,4.2
		c-0.7,1.2-1.8,2.2-3.1,2.9c-1.3,0.7-2.8,1.1-4.4,1.1C472,65.3,470.5,65,469.2,64.3z M476.8,62.5c0.9-0.5,1.7-1.3,2.2-2.2
		c0.5-0.9,0.8-2,0.8-3.2c0-1.2-0.3-2.2-0.8-3.2c-0.5-0.9-1.3-1.7-2.2-2.2c-0.9-0.5-2-0.8-3.2-0.8c-1.2,0-2.3,0.3-3.2,0.8
		c-1,0.5-1.7,1.3-2.3,2.2c-0.5,0.9-0.8,2-0.8,3.2c0,1.2,0.3,2.2,0.8,3.2c0.5,0.9,1.3,1.7,2.3,2.2c1,0.5,2,0.8,3.2,0.8
		C474.8,63.3,475.8,63,476.8,62.5z"/>
	<path class="st8" d="M507.9,65.2l-3.5-4.9c-0.4,0-0.8,0-1,0h-4v4.9h-2.3V49.1h6.3c2.1,0,3.7,0.5,4.9,1.5c1.2,1,1.8,2.4,1.8,4.1
		c0,1.2-0.3,2.3-0.9,3.2s-1.5,1.5-2.6,1.9l3.8,5.4H507.9z M506.7,57.4c0.8-0.6,1.2-1.5,1.2-2.7c0-1.2-0.4-2.1-1.2-2.7
		s-1.9-0.9-3.3-0.9h-3.9v7.2h3.9C504.8,58.3,505.9,58,506.7,57.4z"/>
	<path class="st8" d="M540.3,65.2l0-11.7l-5.8,9.8h-1.1l-5.8-9.7v11.7h-2.2V49.1h1.9l6.7,11.3l6.6-11.3h1.9l0,16.1H540.3z"/>
	<path class="st8" d="M569.1,61.1h-8.6l-1.8,4h-2.4l7.3-16.1h2.3l7.3,16.1h-2.4L569.1,61.1z M568.3,59.3l-3.5-7.9l-3.5,7.9H568.3z"
		/>
	<path class="st8" d="M589.6,51.1H584v-2h13.3v2h-5.5v14.1h-2.3V51.1z"/>
	<path class="st8" d="M611.4,49.1h2.3v16.1h-2.3V49.1z"/>
	<path class="st8" d="M632.9,64.3c-1.3-0.7-2.3-1.7-3.1-3c-0.7-1.3-1.1-2.7-1.1-4.2s0.4-3,1.1-4.2c0.7-1.3,1.8-2.2,3.1-3
		c1.3-0.7,2.8-1.1,4.4-1.1c1.6,0,3.1,0.4,4.4,1.1c1.3,0.7,2.3,1.7,3.1,2.9c0.7,1.2,1.1,2.7,1.1,4.2s-0.4,3-1.1,4.2
		c-0.7,1.2-1.8,2.2-3.1,2.9c-1.3,0.7-2.8,1.1-4.4,1.1C635.6,65.3,634.2,65,632.9,64.3z M640.4,62.5c0.9-0.5,1.7-1.3,2.2-2.2
		c0.5-0.9,0.8-2,0.8-3.2c0-1.2-0.3-2.2-0.8-3.2c-0.5-0.9-1.3-1.7-2.2-2.2c-0.9-0.5-2-0.8-3.2-0.8s-2.2,0.3-3.2,0.8
		c-1,0.5-1.7,1.3-2.3,2.2c-0.5,0.9-0.8,2-0.8,3.2c0,1.2,0.3,2.2,0.8,3.2c0.5,0.9,1.3,1.7,2.3,2.2c1,0.5,2,0.8,3.2,0.8
		S639.5,63,640.4,62.5z"/>
	<path class="st8" d="M674.7,49.1v16.1h-1.9l-9.7-12v12h-2.3V49.1h1.9l9.7,12v-12H674.7z"/>
	<path class="st8" d="M711,51.1v5.6h8.1v2H711v6.5h-2.3V49.1H720v2H711z"/>
	<path class="st8" d="M737.5,64.3c-1.3-0.7-2.3-1.7-3.1-3c-0.7-1.3-1.1-2.7-1.1-4.2s0.4-3,1.1-4.2c0.7-1.3,1.8-2.2,3.1-3
		c1.3-0.7,2.8-1.1,4.4-1.1c1.6,0,3.1,0.4,4.4,1.1c1.3,0.7,2.3,1.7,3.1,2.9c0.7,1.2,1.1,2.7,1.1,4.2s-0.4,3-1.1,4.2
		c-0.7,1.2-1.8,2.2-3.1,2.9c-1.3,0.7-2.8,1.1-4.4,1.1C740.2,65.3,738.8,65,737.5,64.3z M745,62.5c0.9-0.5,1.7-1.3,2.2-2.2
		c0.5-0.9,0.8-2,0.8-3.2c0-1.2-0.3-2.2-0.8-3.2c-0.5-0.9-1.3-1.7-2.2-2.2c-0.9-0.5-2-0.8-3.2-0.8s-2.2,0.3-3.2,0.8
		c-1,0.5-1.7,1.3-2.3,2.2c-0.5,0.9-0.8,2-0.8,3.2c0,1.2,0.3,2.2,0.8,3.2c0.5,0.9,1.3,1.7,2.3,2.2c1,0.5,2,0.8,3.2,0.8
		S744.1,63,745,62.5z"/>
	<path class="st8" d="M776.2,65.2l-3.5-4.9c-0.4,0-0.8,0-1,0h-4v4.9h-2.3V49.1h6.3c2.1,0,3.7,0.5,4.9,1.5c1.2,1,1.8,2.4,1.8,4.1
		c0,1.2-0.3,2.3-0.9,3.2s-1.5,1.5-2.6,1.9l3.8,5.4H776.2z M775,57.4c0.8-0.6,1.2-1.5,1.2-2.7c0-1.2-0.4-2.1-1.2-2.7
		s-1.9-0.9-3.3-0.9h-3.9v7.2h3.9C773.1,58.3,774.2,58,775,57.4z"/>
</g>
<g>
	<path class="st8" d="M357.9,580.8c0.5,0.7,0.8,1.5,0.8,2.6c0,1.4-0.5,2.5-1.6,3.2c-1.1,0.8-2.6,1.1-4.6,1.1h-7.7v-16.1h7.2
		c1.8,0,3.3,0.4,4.3,1.1s1.5,1.8,1.5,3.1c0,0.8-0.2,1.6-0.6,2.2c-0.4,0.6-0.9,1.1-1.6,1.4C356.6,579.6,357.3,580.1,357.9,580.8z
		 M347.1,573.5v5.2h4.7c1.2,0,2.1-0.2,2.7-0.7c0.6-0.4,1-1.1,1-1.9c0-0.8-0.3-1.5-1-1.9c-0.6-0.4-1.5-0.7-2.7-0.7H347.1z
		 M355.3,585.2c0.7-0.4,1-1.1,1-2c0-1.8-1.3-2.7-3.9-2.7h-5.3v5.4h5.3C353.7,585.9,354.7,585.6,355.3,585.2z"/>
	<path class="st8" d="M384.5,587.7l-3.5-4.9c-0.4,0-0.8,0-1,0h-4v4.9h-2.3v-16.1h6.3c2.1,0,3.7,0.5,4.9,1.5c1.2,1,1.8,2.4,1.8,4.1
		c0,1.2-0.3,2.3-0.9,3.2c-0.6,0.9-1.5,1.5-2.6,1.9l3.8,5.4H384.5z M383.3,579.9c0.8-0.6,1.1-1.5,1.1-2.7s-0.4-2.1-1.1-2.7
		c-0.8-0.6-1.9-0.9-3.3-0.9H376v7.2h3.9C381.4,580.9,382.5,580.6,383.3,579.9z"/>
	<path class="st8" d="M412.2,583.7h-8.6l-1.8,4h-2.4l7.3-16.1h2.3l7.3,16.1H414L412.2,583.7z M411.4,581.9l-3.5-7.9l-3.5,7.9H411.4z
		"/>
	<path class="st8" d="M444.1,571.6v16.1h-1.9l-9.7-12v12h-2.3v-16.1h1.9l9.7,12v-12H444.1z"/>
	<path class="st8" d="M460.5,571.6h6.8c1.7,0,3.2,0.3,4.5,1c1.3,0.7,2.3,1.6,3.1,2.8c0.7,1.2,1.1,2.6,1.1,4.2s-0.4,3-1.1,4.2
		c-0.7,1.2-1.8,2.2-3.1,2.8c-1.3,0.7-2.8,1-4.5,1h-6.8V571.6z M467.1,585.7c1.3,0,2.4-0.3,3.4-0.8c1-0.5,1.8-1.2,2.3-2.1
		c0.5-0.9,0.8-2,0.8-3.2c0-1.2-0.3-2.2-0.8-3.2c-0.5-0.9-1.3-1.6-2.3-2.1c-1-0.5-2.1-0.8-3.4-0.8h-4.3v12.1H467.1z"/>
	<path class="st8" d="M511.5,586.8c-1.3-0.7-2.3-1.7-3-2.9c-0.7-1.2-1.1-2.7-1.1-4.2c0-1.6,0.4-3,1.1-4.2s1.8-2.2,3.1-2.9
		c1.3-0.7,2.8-1.1,4.4-1.1c1.3,0,2.4,0.2,3.5,0.6s1.9,1,2.7,1.9l-1.5,1.4c-1.2-1.3-2.7-1.9-4.5-1.9c-1.2,0-2.3,0.3-3.2,0.8
		c-1,0.5-1.7,1.3-2.3,2.2c-0.5,0.9-0.8,2-0.8,3.2c0,1.2,0.3,2.2,0.8,3.2c0.5,0.9,1.3,1.7,2.3,2.2c1,0.5,2,0.8,3.2,0.8
		c1.8,0,3.3-0.6,4.5-1.9l1.5,1.4c-0.7,0.8-1.6,1.5-2.7,1.9c-1,0.4-2.2,0.6-3.5,0.6C514.2,587.9,512.8,587.6,511.5,586.8z"/>
	<path class="st8" d="M539.3,586.8c-1.3-0.7-2.3-1.7-3.1-3c-0.7-1.3-1.1-2.7-1.1-4.2s0.4-3,1.1-4.2c0.7-1.3,1.8-2.2,3.1-3
		c1.3-0.7,2.8-1.1,4.4-1.1c1.6,0,3.1,0.4,4.4,1.1c1.3,0.7,2.3,1.7,3.1,2.9c0.7,1.2,1.1,2.7,1.1,4.2c0,1.6-0.4,3-1.1,4.2
		c-0.7,1.2-1.8,2.2-3.1,2.9c-1.3,0.7-2.8,1.1-4.4,1.1C542.1,587.9,540.6,587.6,539.3,586.8z M546.9,585.1c0.9-0.5,1.7-1.3,2.2-2.2
		c0.5-0.9,0.8-2,0.8-3.2c0-1.2-0.3-2.2-0.8-3.2c-0.5-0.9-1.3-1.7-2.2-2.2c-0.9-0.5-2-0.8-3.2-0.8s-2.2,0.3-3.2,0.8
		c-1,0.5-1.7,1.3-2.3,2.2c-0.5,0.9-0.8,2-0.8,3.2c0,1.2,0.3,2.2,0.8,3.2c0.5,0.9,1.3,1.7,2.3,2.2c1,0.5,2,0.8,3.2,0.8
		S545.9,585.6,546.9,585.1z"/>
	<path class="st8" d="M567.2,571.6h2.3v14.1h8.7v2h-11V571.6z"/>
	<path class="st8" d="M595,586.8c-1.3-0.7-2.3-1.7-3.1-3c-0.7-1.3-1.1-2.7-1.1-4.2s0.4-3,1.1-4.2c0.7-1.3,1.8-2.2,3.1-3
		c1.3-0.7,2.8-1.1,4.4-1.1c1.6,0,3.1,0.4,4.4,1.1c1.3,0.7,2.3,1.7,3.1,2.9c0.7,1.2,1.1,2.7,1.1,4.2c0,1.6-0.4,3-1.1,4.2
		c-0.7,1.2-1.8,2.2-3.1,2.9c-1.3,0.7-2.8,1.1-4.4,1.1C597.8,587.9,596.3,587.6,595,586.8z M602.6,585.1c0.9-0.5,1.7-1.3,2.2-2.2
		c0.5-0.9,0.8-2,0.8-3.2c0-1.2-0.3-2.2-0.8-3.2c-0.5-0.9-1.3-1.7-2.2-2.2c-0.9-0.5-2-0.8-3.2-0.8s-2.2,0.3-3.2,0.8
		c-1,0.5-1.7,1.3-2.3,2.2c-0.5,0.9-0.8,2-0.8,3.2c0,1.2,0.3,2.2,0.8,3.2c0.5,0.9,1.3,1.7,2.3,2.2c1,0.5,2,0.8,3.2,0.8
		S601.6,585.6,602.6,585.1z"/>
	<path class="st8" d="M633.7,587.7l-3.5-4.9c-0.4,0-0.8,0-1,0h-4v4.9h-2.3v-16.1h6.3c2.1,0,3.7,0.5,4.9,1.5c1.2,1,1.8,2.4,1.8,4.1
		c0,1.2-0.3,2.3-0.9,3.2s-1.5,1.5-2.6,1.9l3.8,5.4H633.7z M632.5,579.9c0.8-0.6,1.2-1.5,1.2-2.7s-0.4-2.1-1.2-2.7s-1.9-0.9-3.3-0.9
		h-3.9v7.2h3.9C630.6,580.9,631.7,580.6,632.5,579.9z"/>
	<path class="st8" d="M652.3,587.3c-1.1-0.4-2-0.9-2.7-1.5l0.9-1.8c0.6,0.6,1.4,1,2.4,1.3c1,0.3,1.9,0.5,3,0.5c1.3,0,2.3-0.2,3-0.7
		c0.7-0.5,1-1.1,1-1.8c0-0.6-0.2-1-0.5-1.3c-0.4-0.3-0.8-0.6-1.3-0.8c-0.5-0.2-1.3-0.4-2.2-0.6c-1.2-0.3-2.2-0.6-2.9-0.9
		c-0.7-0.3-1.4-0.7-1.9-1.3c-0.5-0.6-0.8-1.4-0.8-2.5c0-0.9,0.2-1.6,0.7-2.3c0.5-0.7,1.1-1.2,2.1-1.7s2.1-0.6,3.4-0.6
		c1,0,1.9,0.1,2.8,0.4s1.7,0.6,2.4,1.1l-0.8,1.8c-0.7-0.4-1.4-0.8-2.2-1c-0.8-0.2-1.5-0.3-2.3-0.3c-1.3,0-2.3,0.2-2.9,0.7
		s-1,1.1-1,1.8c0,0.6,0.2,1,0.6,1.3c0.4,0.3,0.8,0.6,1.4,0.8c0.5,0.2,1.3,0.4,2.2,0.6c1.2,0.3,2.2,0.6,2.9,0.9
		c0.7,0.3,1.4,0.7,1.9,1.3c0.5,0.6,0.8,1.4,0.8,2.4c0,0.8-0.2,1.6-0.7,2.3c-0.5,0.7-1.2,1.2-2.1,1.7s-2.1,0.6-3.4,0.6
		C654.6,587.9,653.5,587.7,652.3,587.3z"/>
</g>
<g>
	<path class="st8" d="M104.4,896v16.1h-2.3v-7.2h-9.2v7.2h-2.3V896h2.3v6.9h9.2V896H104.4z"/>
	<path class="st8" d="M132.4,910.1v2h-11.7V896h11.4v2H123v4.9h8.1v2H123v5.2H132.4z"/>
	<path class="st8" d="M157.9,908.1h-8.6l-1.8,4h-2.4l7.3-16.1h2.3l7.3,16.1h-2.4L157.9,908.1z M157.1,906.2l-3.5-7.9l-3.5,7.9H157.1
		z"/>
	<path class="st8" d="M176,896h6.8c1.7,0,3.2,0.3,4.5,1c1.3,0.7,2.3,1.6,3.1,2.8c0.7,1.2,1.1,2.6,1.1,4.2s-0.4,3-1.1,4.2
		c-0.7,1.2-1.8,2.2-3.1,2.8c-1.3,0.7-2.8,1-4.5,1H176V896z M182.6,910.1c1.3,0,2.4-0.3,3.4-0.8c1-0.5,1.8-1.2,2.3-2.1
		c0.5-0.9,0.8-2,0.8-3.2c0-1.2-0.3-2.2-0.8-3.2c-0.5-0.9-1.3-1.6-2.3-2.1c-1-0.5-2.1-0.8-3.4-0.8h-4.3v12.1H182.6z"/>
	<path class="st8" d="M206.5,896h2.3v16.1h-2.3V896z"/>
	<path class="st8" d="M239,896v16.1h-1.9l-9.7-12v12h-2.3V896h1.9l9.7,12v-12H239z"/>
	<path class="st8" d="M266.4,904h2.2v6.3c-0.8,0.7-1.7,1.2-2.8,1.5c-1.1,0.4-2.2,0.5-3.3,0.5c-1.6,0-3.1-0.4-4.4-1.1
		c-1.3-0.7-2.3-1.7-3.1-2.9c-0.7-1.2-1.1-2.7-1.1-4.2c0-1.6,0.4-3,1.1-4.2c0.7-1.3,1.8-2.2,3.1-2.9c1.3-0.7,2.8-1.1,4.4-1.1
		c1.3,0,2.5,0.2,3.5,0.6s1.9,1,2.7,1.9l-1.4,1.4c-1.3-1.2-2.8-1.9-4.7-1.9c-1.2,0-2.3,0.3-3.3,0.8c-1,0.5-1.7,1.3-2.3,2.2
		c-0.6,0.9-0.8,2-0.8,3.2c0,1.2,0.3,2.2,0.8,3.2c0.6,0.9,1.3,1.7,2.3,2.2s2.1,0.8,3.3,0.8c1.4,0,2.7-0.3,3.8-1V904z"/>
	<path class="st8" d="M304.5,898v5.6h8.1v2h-8.1v6.5h-2.3V896h11.4v2H304.5z"/>
	<path class="st8" d="M331,911.2c-1.3-0.7-2.3-1.7-3.1-3c-0.7-1.3-1.1-2.7-1.1-4.2s0.4-3,1.1-4.2c0.7-1.3,1.8-2.2,3.1-3
		c1.3-0.7,2.8-1.1,4.4-1.1c1.6,0,3.1,0.4,4.4,1.1c1.3,0.7,2.3,1.7,3.1,2.9c0.7,1.2,1.1,2.7,1.1,4.2c0,1.6-0.4,3-1.1,4.2
		c-0.7,1.2-1.8,2.2-3.1,2.9c-1.3,0.7-2.8,1.1-4.4,1.1C333.8,912.3,332.3,911.9,331,911.2z M338.6,909.4c0.9-0.5,1.7-1.3,2.2-2.2
		c0.5-0.9,0.8-2,0.8-3.2c0-1.2-0.3-2.2-0.8-3.2c-0.5-0.9-1.3-1.7-2.2-2.2c-0.9-0.5-2-0.8-3.2-0.8s-2.2,0.3-3.2,0.8
		c-1,0.5-1.7,1.3-2.3,2.2c-0.5,0.9-0.8,2-0.8,3.2c0,1.2,0.3,2.2,0.8,3.2c0.5,0.9,1.3,1.7,2.3,2.2c1,0.5,2,0.8,3.2,0.8
		S337.7,910,338.6,909.4z"/>
	<path class="st8" d="M372.8,896v16.1h-1.9l-9.7-12v12H359V896h1.9l9.7,12v-12H372.8z"/>
	<path class="st8" d="M392.3,898h-5.5v-2h13.3v2h-5.5v14.1h-2.3V898z"/>
</g>
<g>
	<path class="st8" d="M642.6,905.2c0.5,0.7,0.8,1.5,0.8,2.6c0,1.4-0.5,2.5-1.6,3.2c-1.1,0.8-2.6,1.1-4.6,1.1h-7.7V896h7.2
		c1.8,0,3.3,0.4,4.3,1.1c1,0.7,1.5,1.8,1.5,3.1c0,0.8-0.2,1.6-0.6,2.2s-0.9,1.1-1.6,1.4C641.4,904,642.1,904.5,642.6,905.2z
		 M631.9,897.9v5.2h4.7c1.2,0,2.1-0.2,2.7-0.7c0.6-0.4,1-1.1,1-1.9c0-0.8-0.3-1.5-1-1.9c-0.6-0.4-1.5-0.7-2.7-0.7H631.9z
		 M640.1,909.6c0.7-0.4,1-1.1,1-2c0-1.8-1.3-2.7-3.9-2.7h-5.3v5.4h5.3C638.5,910.2,639.5,910,640.1,909.6z"/>
	<path class="st8" d="M661.4,911.2c-1.3-0.7-2.3-1.7-3.1-3c-0.7-1.3-1.1-2.7-1.1-4.2s0.4-3,1.1-4.2c0.7-1.3,1.8-2.2,3.1-3
		s2.8-1.1,4.4-1.1c1.6,0,3.1,0.4,4.4,1.1c1.3,0.7,2.3,1.7,3.1,2.9s1.1,2.7,1.1,4.2c0,1.6-0.4,3-1.1,4.2c-0.7,1.2-1.8,2.2-3.1,2.9
		c-1.3,0.7-2.8,1.1-4.4,1.1C664.1,912.3,662.7,911.9,661.4,911.2z M669,909.4c0.9-0.5,1.7-1.3,2.2-2.2s0.8-2,0.8-3.2
		c0-1.2-0.3-2.2-0.8-3.2c-0.5-0.9-1.3-1.7-2.2-2.2c-0.9-0.5-2-0.8-3.2-0.8c-1.2,0-2.3,0.3-3.2,0.8c-1,0.5-1.7,1.3-2.3,2.2
		c-0.5,0.9-0.8,2-0.8,3.2c0,1.2,0.3,2.2,0.8,3.2s1.3,1.7,2.3,2.2s2,0.8,3.2,0.8C666.9,910.2,668,910,669,909.4z"/>
	<path class="st8" d="M689.3,896h6.8c1.7,0,3.2,0.3,4.5,1s2.3,1.6,3.1,2.8c0.7,1.2,1.1,2.6,1.1,4.2s-0.4,3-1.1,4.2
		c-0.7,1.2-1.8,2.2-3.1,2.8c-1.3,0.7-2.8,1-4.5,1h-6.8V896z M696,910.1c1.3,0,2.5-0.3,3.4-0.8c1-0.5,1.8-1.2,2.3-2.1
		c0.5-0.9,0.8-2,0.8-3.2c0-1.2-0.3-2.2-0.8-3.2c-0.5-0.9-1.3-1.6-2.3-2.1c-1-0.5-2.1-0.8-3.4-0.8h-4.3v12.1H696z"/>
	<path class="st8" d="M725.3,906.5v5.6H723v-5.6l-6.4-10.5h2.5l5.2,8.5l5.2-8.5h2.3L725.3,906.5z"/>
	<path class="st8" d="M765.5,898v5.6h8.1v2h-8.1v6.5h-2.3V896h11.4v2H765.5z"/>
	<path class="st8" d="M792,911.2c-1.3-0.7-2.3-1.7-3.1-3c-0.7-1.3-1.1-2.7-1.1-4.2s0.4-3,1.1-4.2c0.7-1.3,1.8-2.2,3.1-3
		c1.3-0.7,2.8-1.1,4.4-1.1c1.6,0,3.1,0.4,4.4,1.1c1.3,0.7,2.3,1.7,3.1,2.9c0.7,1.2,1.1,2.7,1.1,4.2c0,1.6-0.4,3-1.1,4.2
		c-0.7,1.2-1.8,2.2-3.1,2.9c-1.3,0.7-2.8,1.1-4.4,1.1C794.8,912.3,793.3,911.9,792,911.2z M799.6,909.4c0.9-0.5,1.7-1.3,2.2-2.2
		c0.5-0.9,0.8-2,0.8-3.2c0-1.2-0.3-2.2-0.8-3.2c-0.5-0.9-1.3-1.7-2.2-2.2c-0.9-0.5-2-0.8-3.2-0.8s-2.2,0.3-3.2,0.8
		c-1,0.5-1.7,1.3-2.3,2.2c-0.5,0.9-0.8,2-0.8,3.2c0,1.2,0.3,2.2,0.8,3.2c0.5,0.9,1.3,1.7,2.3,2.2c1,0.5,2,0.8,3.2,0.8
		S798.6,910,799.6,909.4z"/>
	<path class="st8" d="M833.8,896v16.1h-1.9l-9.7-12v12h-2.3V896h1.9l9.7,12v-12H833.8z"/>
	<path class="st8" d="M853.3,898h-5.5v-2h13.3v2h-5.5v14.1h-2.3V898z"/>
</g>
<g id="Artwork_18_1_">
	<g>
		<defs>
			<rect id="SVGID_1_" x="320.4" y="111.8" width="359.1" height="359.1"/>
		</defs>
		<clipPath id="SVGID_2_">
			<use xlink:href="#SVGID_1_"  style="overflow:visible;"/>
		</clipPath>
		<g class="st9">
			<defs>
				<rect id="SVGID_3_" x="320.4" y="111.8" width="359.1" height="359.1"/>
			</defs>
			<clipPath id="SVGID_4_">
				<use xlink:href="#SVGID_3_"  style="overflow:visible;"/>
			</clipPath>
			<path class="st10" d="M679.6,291.3c0,99.2-80.4,179.6-179.6,179.6c-99.2,0-179.6-80.4-179.6-179.6S400.8,111.8,500,111.8
				C599.2,111.8,679.6,192.2,679.6,291.3"/>
			<path class="st11" d="M404.5,226.1c-3.1,1.1-6.3,1.4-9.5,0.7c-3.2-0.6-6-2.1-8.6-4.4c-2.6-2.3-4.3-5-5.3-8.1
				c-0.9-3.1-1-6.3-0.2-9.5c0.8-3.2,2.4-6.2,4.9-8.9c2.5-2.7,5.3-4.6,8.4-5.7c3.1-1.1,6.3-1.4,9.5-0.7c3.2,0.6,6.1,2.1,8.6,4.4
				c2.6,2.3,4.3,5,5.2,8.1c0.9,3.1,1,6.3,0.2,9.5c-0.8,3.2-2.4,6.2-4.9,8.9C410.4,223.1,407.6,225,404.5,226.1 M410.4,210.6
				c0.4-1.9,0.3-3.8-0.3-5.6c-0.6-1.9-1.8-3.5-3.4-5c-1.6-1.5-3.4-2.4-5.3-2.9c-1.9-0.4-3.8-0.4-5.6,0.2c-1.8,0.6-3.5,1.7-4.9,3.2
				c-1.4,1.5-2.3,3.3-2.7,5.2c-0.4,1.9-0.3,3.8,0.3,5.6c0.6,1.9,1.8,3.5,3.4,5c1.6,1.5,3.4,2.4,5.3,2.9c1.9,0.4,3.8,0.4,5.6-0.2
				c1.8-0.6,3.5-1.7,4.9-3.2C409.1,214.2,410,212.5,410.4,210.6"/>
			<path class="st11" d="M429.4,164.4c2.5-0.3,4.8,0,6.8,1c2.1,1,3.8,2.6,5.1,4.9c1.3,2.2,2,4.5,1.9,6.8c-0.1,2.3-0.8,4.5-2.3,6.5
				c-1.4,2.1-3.5,3.9-6.2,5.5l-6.1,3.7l5,8.3l-7,4.2l-18.3-30.2l13.1-7.9C424.3,165.7,426.9,164.7,429.4,164.4 M435,179.5
				c0.5-1.6,0.3-3.2-0.7-4.9c-1-1.7-2.4-2.7-4-2.9c-1.6-0.2-3.5,0.3-5.6,1.5l-5.7,3.4l6.3,10.5l5.7-3.4
				C433.1,182.5,434.4,181,435,179.5"/>
			<polygon class="st11" points="478.8,175.4 480.7,181.7 454.5,189.4 444.5,155.6 470.1,148 472,154.3 454.1,159.6 456.3,166.9 
				472,162.3 473.8,168.4 458.1,173 460.4,180.9 			"/>
			<polygon class="st11" points="514.4,145.5 514.9,180.8 508.2,180.9 490.3,159.8 490.6,181.2 482.6,181.3 482,146 488.7,145.9 
				506.6,167.1 506.3,145.7 			"/>
			<polygon class="st11" points="559.4,196.4 568.1,177 551.4,188.7 548.1,187.2 545.6,167.5 537.1,186.4 530.1,183.2 544.6,151 
				550.8,153.8 553.8,179.2 574.7,164.5 580.8,167.3 566.4,199.5 			"/>
			
				<rect x="565.5" y="187.8" transform="matrix(0.6134 -0.7898 0.7898 0.6134 73.9007 534.763)" class="st11" width="35.3" height="8.2"/>
			<path class="st11" d="M585.9,215.3c-0.7-3.2-0.6-6.4,0.4-9.4c1-3.1,2.8-5.8,5.5-8c2.6-2.3,5.6-3.7,8.7-4.3
				c3.2-0.6,6.3-0.3,9.4,0.9c3.1,1.2,5.8,3.1,8.2,5.9c2,2.3,3.4,4.8,4.2,7.3c0.8,2.6,1,5.2,0.6,7.7l-7.1-0.8
				c0.5-3.6-0.4-6.7-2.7-9.4c-1.4-1.7-3.1-2.8-4.9-3.5c-1.8-0.7-3.7-0.8-5.7-0.4c-1.9,0.4-3.7,1.3-5.4,2.7c-1.7,1.4-2.8,3.1-3.5,4.9
				c-0.7,1.8-0.8,3.7-0.4,5.7c0.4,1.9,1.3,3.7,2.7,5.4c2.3,2.7,5.3,4,9,4l-0.2,7.1c-2.7,0.1-5.2-0.5-7.6-1.7
				c-2.4-1.2-4.7-2.9-6.7-5.2C588.1,221.5,586.6,218.5,585.9,215.3"/>
			<polygon class="st11" points="446.5,411.9 436.2,407.4 438.8,401.3 467,413.6 464.4,419.7 454,415.2 442.6,441.4 435.1,438.2 			
				"/>
			<polygon class="st11" points="489.5,446.3 488.4,452.7 461.4,448.1 467.4,413.3 493.7,417.8 492.6,424.3 474.3,421.2 473,428.7 
				489.2,431.5 488.1,437.7 471.9,435 470.6,443 			"/>
			<path class="st11" d="M506.4,450.8c-3-1.3-5.5-3.3-7.4-5.9c-1.9-2.6-3-5.7-3.3-9.1c-0.3-3.5,0.2-6.7,1.7-9.6
				c1.4-2.9,3.5-5.3,6.3-7.1c2.8-1.8,5.9-2.9,9.6-3.2c3-0.3,5.8,0,8.4,0.9c2.6,0.9,4.8,2.2,6.6,4.1l-4.8,5.3
				c-2.6-2.5-5.7-3.6-9.2-3.3c-2.2,0.2-4.1,0.8-5.7,1.9c-1.6,1.1-2.8,2.6-3.6,4.3c-0.8,1.8-1.1,3.8-0.9,6c0.2,2.2,0.8,4.1,1.9,5.7
				c1.1,1.6,2.6,2.8,4.3,3.6c1.8,0.8,3.8,1.1,6,0.9c3.5-0.3,6.3-2,8.5-5l5.7,4.4c-1.5,2.2-3.4,3.9-5.8,5.2c-2.4,1.3-5.1,2.1-8.1,2.3
				C512.8,452.6,509.5,452.1,506.4,450.8"/>
			<polygon class="st11" points="558.4,403 571.4,435.8 563.8,438.8 558.5,425.4 543.6,431.3 548.9,444.7 541.3,447.7 528.3,414.9 
				535.9,411.9 541,424.8 555.9,418.9 550.8,406 			"/>
			<path class="st11" d="M471.1,261.8c4.2-4.2,6.8-10,6.8-16.4c0-12.8-10.4-23.1-23.1-23.1c-6.4,0-12.2,2.6-16.4,6.8
				c-4.2,4.2-6.8,10-6.8,16.4c0,12.8,10.4,23.1,23.1,23.1C461.1,268.6,466.9,266,471.1,261.8"/>
			<path class="st11" d="M544,252.5v19h3.7v-19c0-13.6-11.1-24.6-24.6-24.6c-6.5,0-12.7,2.6-17.4,7.2c-4.7,4.7-7.2,10.8-7.2,17.4
				v100.7c0,11.6-9.4,20.9-21,20.9c-11.5,0-20.9-9.4-20.9-20.9v-12h3.9c2.8,0,5.1-2.2,5.3-5l3.8-65.5c-4.5,2.6-9.5,4.1-14.9,4.1
				c-5.4,0-10.5-1.5-14.8-4.1l3.8,65.5c0.2,2.8,2.5,5,5.2,5h3.9v12c0,13.6,11.1,24.6,24.6,24.6c13.6,0,24.6-11,24.6-24.6V252.5
				c0-5.6,2.2-10.8,6.2-14.8c4-3.9,9.2-6.1,14.8-6.1C534.6,231.5,544,240.9,544,252.5 M450.7,307.5v-14.8c0-2.2,1.8-4,4-4
				c2.2,0,4,1.8,4,4v14.8c0,2.2-1.8,4-4,4C452.5,311.5,450.7,309.7,450.7,307.5"/>
			<path class="st11" d="M567.6,290.2c-0.2-1.1-0.4-2.1-0.7-3.2c-2.5-8.4-10-14.8-19.2-15.6v3.1v8.1c1.5,0.7,2.3,2.1,2.3,3.6v7.8
				c0,1.5-0.8,2.9-2.1,3.6v4.6c0,1.2-0.9,2.1-2.1,2.1s-2.1-1-2.1-2.1v-4.6c-1.2-0.7-2.1-2.1-2.1-3.6v-7.8c0-1.2,0.5-2.2,1.2-3
				c0.2-0.2,0.5-0.5,1.2-0.6v-8.1v-3.1c-9.4,0.9-16.9,7.2-19.4,15.7c-0.3,1-0.5,2.1-0.7,3.2c-0.1,1-0.2,2-0.2,3V324
				c0,12.1,9.9,22,22,22c12.1,0,22-9.9,22-22v-30.8C567.8,292.2,567.8,291.2,567.6,290.2"/>
			<path class="st11" d="M543.7,287.6v5.2c0,1.2,0.9,2.1,2.1,2.1c1.1,0,2.1-0.9,2.1-2c0,0,0-0.1,0-0.1v-5.2c0,0,0-0.1,0-0.1
				c-0.1-1.1-1-2-2.1-2C544.6,285.5,543.7,286.4,543.7,287.6"/>
		</g>
	</g>
</g>
</svg>
