<?xml version="1.0" encoding="utf-8"?>
<!-- Generator: Adobe Illustrator 23.0.4, SVG Export Plug-In . SVG Version: 6.00 Build 0)  -->
<svg version="1.1" id="Layer_1" xmlns="http://www.w3.org/2000/svg" xmlns:xlink="http://www.w3.org/1999/xlink" x="0px" y="0px"
	 viewBox="0 0 1920 1920" style="enable-background:new 0 0 1920 1920;" xml:space="preserve">
<style type="text/css">
	.st0{fill:none;}
	.st1{clip-path:url(#SVGID_2_);}
	.st2{fill:#E0E1E2;}
	.st3{opacity:0.38;}
	.st4{fill:none;stroke:#AAAAAA;stroke-width:5;stroke-linecap:round;stroke-linejoin:round;stroke-miterlimit:10;}
	.st5{opacity:0.38;fill:none;stroke:#AAAAAA;stroke-width:5;stroke-linecap:round;stroke-linejoin:round;stroke-miterlimit:10;}
	.st6{fill:url(#SVGID_3_);}
	.st7{fill:#00A79D;}
	.st8{fill:#FFFFFF;}
</style>
<pattern  y="1920" width="650" height="650" patternUnits="userSpaceOnUse" id="OMT_Light_Gray" viewBox="145.4 -711.5 650 650" style="overflow:visible;">
	<g>
		<rect x="145.4" y="-711.5" class="st0" width="650" height="650"/>
		<g>
			<defs>
				<rect id="SVGID_1_" x="145.4" y="-711.5" width="650" height="650"/>
			</defs>
			<clipPath id="SVGID_2_">
				<use xlink:href="#SVGID_1_"  style="overflow:visible;"/>
			</clipPath>
			<g class="st1">
				<rect x="112.6" y="-745.2" class="st2" width="715.7" height="716.6"/>
				<g class="st3">
					
						<rect x="559.7" y="-583.4" transform="matrix(-1 -1.224647e-16 1.224647e-16 -1 1178.7408 -1112.5537)" class="st4" width="59.3" height="54.3"/>
					<polyline class="st4" points="619.5,-571.6 628.4,-571.6 628.4,-517.3 569.1,-517.3 569.1,-528.7 					"/>
					<polyline class="st4" points="628.7,-559.8 637.7,-559.8 637.7,-505.4 578.4,-505.4 578.4,-516.6 					"/>
				</g>
				<g class="st3">
					<path class="st4" d="M316.6-588.3h47.7c1.7,0,3.2-1.4,3.2-3.2v-71.7c0-1.7-1.4-3.2-3.2-3.2h-47.7c-1.7,0-3.2,1.4-3.2,3.2v71.7
						C313.4-589.8,314.9-588.3,316.6-588.3z"/>
					<path class="st4" d="M321.1-641.9h38.6c0.6,0,1.1-0.5,1.1-1.1v-15.7c0-0.6-0.5-1.1-1.1-1.1h-38.6c-0.6,0-1.1,0.5-1.1,1.1v15.7
						C320-642.4,320.5-641.9,321.1-641.9z"/>
					
						<rect x="351.1" y="-635.5" transform="matrix(-1 -1.224647e-16 1.224647e-16 -1 711.9953 -1261.3466)" class="st4" width="9.7" height="9.7"/>
					
						<rect x="335.6" y="-635.5" transform="matrix(-1 -1.224647e-16 1.224647e-16 -1 680.8822 -1261.3466)" class="st4" width="9.7" height="9.7"/>
					
						<rect x="320" y="-635.5" transform="matrix(-1 -1.224647e-16 1.224647e-16 -1 649.7691 -1261.3466)" class="st4" width="9.7" height="9.7"/>
					
						<rect x="351.1" y="-620.2" transform="matrix(-1 -1.224647e-16 1.224647e-16 -1 711.9953 -1230.6798)" class="st4" width="9.7" height="9.7"/>
					
						<rect x="335.6" y="-620.2" transform="matrix(-1 -1.224647e-16 1.224647e-16 -1 680.8822 -1230.6798)" class="st4" width="9.7" height="9.7"/>
					
						<rect x="320" y="-620.2" transform="matrix(-1 -1.224647e-16 1.224647e-16 -1 649.7691 -1230.6798)" class="st4" width="9.7" height="9.7"/>
					
						<rect x="351.1" y="-604.9" transform="matrix(-1 -1.224647e-16 1.224647e-16 -1 711.9953 -1200.0131)" class="st4" width="9.7" height="9.7"/>
					
						<rect x="335.6" y="-604.9" transform="matrix(-1 -1.224647e-16 1.224647e-16 -1 680.8822 -1200.0131)" class="st4" width="9.7" height="9.7"/>
					
						<rect x="320" y="-604.9" transform="matrix(-1 -1.224647e-16 1.224647e-16 -1 649.7691 -1200.0131)" class="st4" width="9.7" height="9.7"/>
				</g>
				<g class="st3">
					<path class="st4" d="M354.3-513.2v13.3c0,4.6-3.7,8.3-8.3,8.3c-4.6,0-8.3-3.7-8.3-8.3v-5.5c0-4.6-3.7-8.3-8.3-8.3
						c-4.6,0-8.3,3.7-8.3,8.3v43.4"/>
					<path class="st4" d="M321-377.8L321-377.8c-20.7,0-37.5-16.8-37.5-37.5V-448c0-20.7,16.8-37.5,37.5-37.5l0,0
						c20.7,0,37.5,16.8,37.5,37.5v32.7C358.4-394.6,341.7-377.8,321-377.8z"/>
					<line class="st4" x1="283.5" y1="-445.8" x2="312" y2="-445.8"/>
					<line class="st4" x1="329.4" y1="-445.8" x2="357.9" y2="-445.8"/>
					<path class="st4" d="M321-437L321-437c-4.3,0-7.8-3.5-7.8-7.8v-9.3c0-4.3,3.5-7.8,7.8-7.8l0,0c4.3,0,7.8,3.5,7.8,7.8v9.3
						C328.8-440.5,325.3-437,321-437z"/>
				</g>
				<g class="st3">
					<path class="st4" d="M470.8-302.8h-78.1c-2.6,0-4.7,2.1-4.7,4.7v6.8h87.6v-6.8C475.5-300.7,473.4-302.8,470.8-302.8z"/>
					<path class="st4" d="M405.8-302.9c0,0,9.5-6.2,9.5-18"/>
					<path class="st4" d="M457.7-302.9c0,0-9.5-6.2-9.5-18"/>
					<circle class="st4" cx="431.9" cy="-370" r="50.7"/>
					<circle class="st4" cx="431.8" cy="-370" r="24.5"/>
					<path class="st4" d="M442.9-378.1c0,3.1-2.5,5.6-5.6,5.6c-3.1,0-5.6-2.5-5.6-5.6c0-3.1,2.5-5.6,5.6-5.6
						C440.4-383.7,442.9-381.2,442.9-378.1z"/>
					<circle class="st4" cx="431.8" cy="-370" r="33"/>
				</g>
				<g class="st3">
					<path class="st4" d="M360.3-148.1c1.6-5.3,2.5-21.4,2.5-27.2c0-31.9-25.9-57.8-57.8-57.8s-57.8,25.9-57.8,57.8
						c0,5.8,0.9,21.9,2.5,27.2"/>
					<path class="st4" d="M279.2-109.2l-10.3,1.6c-3.2,0.5-6.2-1.7-6.7-4.9l-7.2-39c-0.5-3.2,1.7-6.2,4.9-6.7l10.3-1.6
						c3.2-0.5,6.2,1.7,6.7,4.9l7.2,39C284.6-112.7,282.4-109.7,279.2-109.2z"/>
					<path class="st4" d="M261.2-112.9l-4.3,0.7c-2.2,0.3-4.3-1.7-4.7-4.6l-4.9-24.7c-0.4-2.9,1-5.4,3.1-5.8l4.3-0.7"/>
					<path class="st4" d="M330.8-109.2l10.3,1.6c3.2,0.5,6.2-1.7,6.7-4.9l7.2-39c0.5-3.2-1.7-6.2-4.9-6.7l-10.3-1.6
						c-3.2-0.5-6.2,1.7-6.7,4.9l-7.2,39C325.4-112.7,327.6-109.7,330.8-109.2z"/>
					<path class="st4" d="M348.7-112.9l4.3,0.7c2.2,0.3,4.3-1.7,4.7-4.6l4.9-24.7c0.4-2.9-1-5.4-3.1-5.8l-4.3-0.7"/>
				</g>
				<g class="st3">
					<circle class="st4" cx="639.5" cy="-240.4" r="9.3"/>
					
						<ellipse transform="matrix(0.9732 -0.2298 0.2298 0.9732 80.9855 134.944)" class="st4" cx="620" cy="-280.3" rx="8.2" ry="8.2"/>
					<rect x="652.1" y="-292.1" class="st4" width="14.4" height="14.4"/>
					<polygon class="st4" points="651.1,-297.5 627.9,-297.5 639.5,-309.1 					"/>
					<line class="st4" x1="639.5" y1="-297.3" x2="639.5" y2="-249.6"/>
					<polyline class="st4" points="620,-272.1 620,-263.4 639.5,-255.3 					"/>
					<polyline class="st4" points="659.3,-277 659.3,-268.4 639.8,-260.2 					"/>
				</g>
				<g class="st3">
					<circle class="st4" cx="693.3" cy="-627.3" r="18.1"/>
					<path class="st4" d="M693.3-594.4c-4.6,0-8.3,3.5-8.8,7.9c-5-1.1-9.7-3-13.8-5.7c2.8-3.5,2.6-8.6-0.6-11.8
						c-3.2-3.2-8.3-3.4-11.8-0.6c-2.7-4.2-4.7-8.8-5.7-13.8c4.4-0.5,7.9-4.2,7.9-8.8c0-4.6-3.5-8.3-7.9-8.8c1.1-5,3-9.7,5.7-13.8
						c3.5,2.8,8.6,2.6,11.8-0.6s3.4-8.3,0.6-11.8c4.2-2.7,8.8-4.7,13.8-5.7c0.5,4.4,4.2,7.9,8.8,7.9s8.3-3.5,8.8-7.9
						c5,1.1,9.7,3,13.8,5.7c-2.8,3.5-2.6,8.6,0.6,11.8c3.2,3.2,8.3,3.4,11.8,0.6c2.7,4.2,4.7,8.8,5.7,13.8c-4.4,0.5-7.9,4.2-7.9,8.8
						c0,4.6,3.5,8.3,7.9,8.8c-1.1,5-3,9.7-5.7,13.8c-3.5-2.8-8.6-2.6-11.8,0.6c-3.2,3.2-3.4,8.3-0.6,11.8c-4.2,2.7-8.8,4.7-13.8,5.7
						C701.7-591,697.9-594.4,693.3-594.4z"/>
					
						<ellipse transform="matrix(0.1656 -0.9862 0.9862 0.1656 1184.8798 308.442)" class="st4" cx="774.7" cy="-546" rx="26.4" ry="26.4"/>
					<path class="st4" d="M774.7-497.8c-6.7,0-12.2,5.1-12.9,11.6c-7.3-1.6-14.2-4.5-20.2-8.4c4.1-5.1,3.8-12.6-0.9-17.3
						c-4.7-4.7-12.2-5-17.3-0.9c-3.9-6.1-6.8-12.9-8.4-20.2c6.5-0.7,11.6-6.2,11.6-12.9c0-6.7-5.1-12.2-11.6-12.9
						c1.6-7.3,4.5-14.2,8.4-20.2c5.1,4.1,12.6,3.8,17.3-0.9s5-12.2,0.9-17.3c6.1-3.9,12.9-6.8,20.2-8.4c0.7,6.5,6.2,11.6,12.9,11.6
						s12.2-5.1,12.9-11.6c7.3,1.6,14.2,4.5,20.2,8.4c-4.1,5.1-3.8,12.6,0.9,17.3c4.7,4.7,12.2,5,17.3,0.9c3.9,6.1,6.8,12.9,8.4,20.2
						c-6.5,0.7-11.6,6.2-11.6,12.9c0,6.7,5.1,12.2,11.6,12.9c-1.6,7.3-4.5,14.2-8.4,20.2c-5.1-4.1-12.6-3.8-17.3,0.9
						c-4.7,4.7-5,12.2-0.9,17.3c-6.1,3.9-12.9,6.8-20.2,8.4C786.9-492.7,781.4-497.8,774.7-497.8z"/>
				</g>
				<g class="st3">
					<circle class="st4" cx="506.9" cy="-600" r="6.9"/>
					<path class="st4" d="M506.9-587.5c-1.7,0-3.2,1.3-3.4,3c-1.9-0.4-3.7-1.2-5.3-2.2c1.1-1.3,1-3.3-0.2-4.5
						c-1.2-1.2-3.2-1.3-4.5-0.2c-1-1.6-1.8-3.4-2.2-5.3c1.7-0.2,3-1.6,3-3.4c0-1.7-1.3-3.2-3-3.4c0.4-1.9,1.2-3.7,2.2-5.3
						c1.3,1.1,3.3,1,4.5-0.2c1.2-1.2,1.3-3.2,0.2-4.5c1.6-1,3.4-1.8,5.3-2.2c0.2,1.7,1.6,3,3.4,3c1.7,0,3.2-1.3,3.4-3
						c1.9,0.4,3.7,1.2,5.3,2.2c-1.1,1.3-1,3.3,0.2,4.5s3.2,1.3,4.5,0.2c1,1.6,1.8,3.4,2.2,5.3c-1.7,0.2-3,1.6-3,3.4
						c0,1.7,1.3,3.2,3,3.4c-0.4,1.9-1.2,3.7-2.2,5.3c-1.3-1.1-3.3-1-4.5,0.2c-1.2,1.2-1.3,3.2-0.2,4.5c-1.6,1-3.4,1.8-5.3,2.2
						C510.1-586.1,508.7-587.5,506.9-587.5z"/>
					<polygon class="st4" points="533,-613.8 533,-626.1 520.7,-626.1 524.4,-622.4 519.8,-617.9 524.8,-612.9 529.4,-617.5 					
						"/>
					<polygon class="st4" points="493.1,-626.1 480.8,-626.1 480.8,-613.8 484.5,-617.5 489,-612.9 494,-617.9 489.4,-622.5 					
						"/>
					<polygon class="st4" points="480.8,-586.2 480.8,-573.9 493.1,-573.9 489.4,-577.6 494,-582.1 489,-587.1 484.5,-582.5 					
						"/>
					<polygon class="st4" points="520.7,-573.9 533,-573.9 533,-586.2 529.3,-582.5 524.8,-587.1 519.8,-582.1 524.4,-577.5 					
						"/>
				</g>
				<g class="st3">
					<path class="st4" d="M503.2-38.5H459c-1.5,0-2.7-1.2-2.7-2.7v-37.2H506v37.2C506-39.8,504.8-38.5,503.2-38.5z"/>
					<path class="st4" d="M466.6-78.9V-95c0-2.3,1.9-4.3,4.3-4.3l0,0c2.3,0,4.3,1.9,4.3,4.3v16.2"/>
					<path class="st4" d="M487.1-78.9V-95c0-2.3,1.9-4.3,4.3-4.3l0,0c2.3,0,4.3,1.9,4.3,4.3v16.2"/>
					<path class="st4" d="M452.8-18.6c-15-9.4-24.9-26.1-24.9-45c0-29.4,23.8-53.2,53.2-53.2c29.4,0,53.2,23.8,53.2,53.2
						s-23.8,53.2-53.2,53.2v-27.3"/>
				</g>
				<g class="st3">
					<path class="st4" d="M503.2-688.5H459c-1.5,0-2.7-1.2-2.7-2.7v-37.2H506v37.2C506-689.8,504.8-688.5,503.2-688.5z"/>
					<path class="st4" d="M466.6-728.9V-745c0-2.3,1.9-4.3,4.3-4.3l0,0c2.3,0,4.3,1.9,4.3,4.3v16.2"/>
					<path class="st4" d="M487.1-728.9V-745c0-2.3,1.9-4.3,4.3-4.3l0,0c2.3,0,4.3,1.9,4.3,4.3v16.2"/>
					<path class="st4" d="M452.8-668.6c-15-9.4-24.9-26.1-24.9-45c0-29.4,23.8-53.2,53.2-53.2c29.4,0,53.2,23.8,53.2,53.2
						c0,29.4-23.8,53.2-53.2,53.2v-27.3"/>
				</g>
				<g class="st3">
					<path class="st4" d="M292.3-291.3h-13.9c-1.5,0-2.8-1.2-2.8-2.8v-21c0-1.5,1.2-2.8,2.8-2.8h13.9c1.5,0,2.8,1.2,2.8,2.8v21
						C295-292.5,293.8-291.3,292.3-291.3z"/>
					<polyline class="st4" points="278.1,-318.5 278.1,-328.2 292.6,-328.2 292.6,-318.5 					"/>
					<path class="st4" d="M336.9-287h13.9c1.5,0,2.8,1.2,2.8,2.8v21c0,1.5-1.2,2.8-2.8,2.8h-13.9c-1.5,0-2.8-1.2-2.8-2.8v-21
						C334.1-285.8,335.4-287,336.9-287z"/>
					<polyline class="st4" points="351.1,-259.8 351.1,-250.2 336.6,-250.2 336.6,-259.8 					"/>
					<path class="st4" d="M285.3-291.3v1.7c0,8.1,6.6,14.6,14.6,14.6l0,0c8.1,0,14.6-6.6,14.6-14.6v-2.6c0-8.1,6.6-14.6,14.6-14.6
						l0,0c8.1,0,14.6,6.6,14.6,14.6v4.4"/>
				</g>
				<g class="st3">
					<path class="st4" d="M851-412.6H732c-28.8,0-52.2,23.4-52.2,52.4c0,28.9,23.4,52.4,52.2,52.4c20.3,0,37.9-11.7,46.5-28.7h26
						c8.6,17,26.2,28.7,46.5,28.7c28.8,0,52.2-23.4,52.2-52.4C903.2-389.1,879.8-412.6,851-412.6z"/>
					<ellipse class="st4" cx="732.5" cy="-360.2" rx="35.3" ry="35.4"/>
					<ellipse class="st4" cx="850.8" cy="-360.2" rx="35.3" ry="35.4"/>
					<ellipse class="st4" cx="791.7" cy="-369.5" rx="8.2" ry="8.3"/>
					<path class="st4" d="M860.7-371.2C860.7-371.2,860.7-371.2,860.7-371.2C860.7-371.2,860.7-371.2,860.7-371.2
						c0-5.5-4.5-10-9.9-10c-5.5,0-9.9,4.5-9.9,9.9c0,0,0,0,0,0c0,0,0,0,0,0c-5.5,0-9.9,4.4-9.9,9.9s4.5,9.9,9.9,9.9c0,0,0,0,0,0
						c0,0,0,0,0,0c0,5.5,4.4,9.9,9.9,9.9c5.5,0,9.9-4.5,9.9-9.9c0,0,0,0,0,0c0,0,0,0,0,0c5.5,0,9.9-4.4,9.9-9.9
						S866.2-371.2,860.7-371.2z"/>
					<line class="st4" x1="777" y1="-393.3" x2="805.6" y2="-393.3"/>
					<polygon class="st4" points="750.3,-369.7 740.8,-369.7 740.8,-379.2 724.1,-379.2 724.1,-369.7 714.6,-369.7 714.6,-352.9 
						724.1,-352.9 724.1,-343.4 740.8,-343.4 740.8,-352.9 750.3,-352.9 					"/>
					<path class="st4" d="M751.6-413.6v-8.9c0-5.7-5.4-10.3-12.1-10.3h-14c-6.7,0-12.1,4.6-12.1,10.3v12.3"/>
					<path class="st4" d="M869.9-410.1v-12.3c0-5.7-5.4-10.3-12.1-10.3h-14c-6.7,0-12.1,4.6-12.1,10.3v8.9"/>
					<path class="st4" d="M778.5-336.5l-28.9,102.2c-4.8,18.1-23.5,28.8-41.5,23.8l0,0c-16.3-4.6-26.7-20.7-24.2-37.5l10.3-75.1"/>
					<path class="st4" d="M804.3-336.5l28.9,102.2c4.8,18.1,23.5,28.8,41.5,23.8l0,0c16.3-4.6,26.7-20.7,24.2-37.5l-10.3-75.1"/>
				</g>
				<g class="st3">
					<polygon class="st4" points="689.5,-515.5 675,-530 660.4,-515.5 669.1,-515.5 669.1,-504.7 680.9,-504.7 680.9,-515.5 					
						"/>
					<path class="st4" d="M651.3-481.8c0.7,0,1.5,0.1,2.2,0.2c1.4-4.9,5.9-8.6,11.3-8.6c2.7,0,5.1,0.9,7.1,2.4
						c2.1-5.8,7.6-9.9,14.1-9.9c8.3,0,15,6.7,15,14.9c0,1.5-0.2,2.9-0.6,4.2c0.2,0,0.4,0,0.6,0c7.4,0,13.3,6,13.3,13.3
						c0,7.1-5.6,12.9-12.6,13.3l0,0h-50.4c-8.3,0-15-6.7-15-14.9S643-481.8,651.3-481.8z"/>
				</g>
				<g class="st3">
					<polygon class="st4" points="425.2,-485.9 418.3,-485.9 418.3,-492.7 410.4,-492.7 410.4,-485.9 403.5,-485.9 403.5,-478 
						410.4,-478 410.4,-471.1 418.3,-471.1 418.3,-478 425.2,-478 					"/>
					<rect x="391.9" y="-569" class="st4" width="71.8" height="108.5"/>
					<line class="st4" x1="402.1" y1="-505.5" x2="409.1" y2="-505.5"/>
					<line class="st4" x1="416.8" y1="-505.5" x2="423.8" y2="-505.5"/>
					<line class="st4" x1="431.4" y1="-505.5" x2="438.4" y2="-505.5"/>
					<line class="st4" x1="446" y1="-505.5" x2="453" y2="-505.5"/>
					<rect x="402.1" y="-559.6" class="st4" width="50.8" height="44.8"/>
					<circle class="st4" cx="445.3" cy="-481.9" r="7.7"/>
				</g>
				<g class="st3">
					<ellipse class="st4" cx="534.2" cy="-163" rx="19.2" ry="19.2"/>
					<path class="st4" d="M534.4-172.7c5.3,0,9.5,4.3,9.5,9.5"/>
					<path class="st4" d="M498.5-229.1l7.5-7.9c1.2-1.3,2.9-2,4.6-2h47.7c1.7,0,3.3,0.7,4.5,1.9l7.9,8"/>
					<path class="st4" d="M593.1-143.8c3.2,0,5.6-2.6,5.4-5.6c-3-31.1-30.5-55.4-64-55.4c-33.5,0-61,24.3-64,55.4
						c-0.3,3,2.2,5.6,5.3,5.6h0.2c2.8,0,5.2-2,5.4-4.6c2.5-25.8,25.3-46,53.1-46c27.8,0,50.6,20.2,53.1,46c0.2,2.6,2.6,4.6,5.4,4.6
						H593.1z"/>
					<path class="st4" d="M504.5-262.9l15.5-1.7c3.6-0.4,6.7,2.4,6.7,6l0,0c0,3.6-3.1,6.4-6.7,6l-15.5-1.7"/>
					<path class="st4" d="M492.6-254.2l-15.5,1.7c-3.6,0.4-6.7-2.4-6.7-6l0,0c0-3.6,3.1-6.4,6.7-6l15.5,1.7"/>
					<path class="st4" d="M504-250.3h-10.9v-16.1c0-3,2.4-5.4,5.4-5.4l0,0c3,0,5.4,2.4,5.4,5.4V-250.3z"/>
					<path class="st4" d="M576.3-262.9l15.5-1.7c3.6-0.4,6.7,2.4,6.7,6l0,0c0,3.6-3.1,6.4-6.7,6l-15.5-1.7"/>
					<path class="st4" d="M564.4-254.2l-15.5,1.7c-3.6,0.4-6.7-2.4-6.7-6l0,0c0-3.6,3.1-6.4,6.7-6l15.5,1.7"/>
					<path class="st4" d="M575.8-250.3h-10.9v-16.1c0-3,2.4-5.4,5.4-5.4l0,0c3,0,5.4,2.4,5.4,5.4V-250.3z"/>
					<path class="st4" d="M525.9-239.8c0-4.3,3.5-7.8,7.8-7.8h1.4c4.3,0,7.8,3.5,7.8,7.8"/>
					<path class="st4" d="M498.5-250.3v24c0,5.2,4.2,9.4,9.4,9.4h11.9c1,6.5,6.6,11.5,13.3,11.5h2.5c6.8,0,12.4-5,13.3-11.5h12.3
						c5.2,0,9.4-4.2,9.4-9.4v-24"/>
					<line class="st4" x1="534.4" y1="-182.2" x2="534.4" y2="-193.5"/>
				</g>
				<g class="st3">
					<polyline class="st4" points="233.4,-499 233.4,-515.2 255.4,-515.2 255.4,-499 					"/>
					<path class="st4" d="M229-498.3v36.9c0,2.1,1.7,3.8,3.8,3.8H256c2.1,0,3.8-1.7,3.8-3.8v-36.9H229z"/>
					<line class="st4" x1="240.6" y1="-507.8" x2="240.6" y2="-499"/>
					<line class="st4" x1="248.6" y1="-507.8" x2="248.6" y2="-499"/>
					<polyline class="st4" points="249.3,-457.6 249.3,-448.2 239.5,-448.2 239.5,-457.6 					"/>
					<line class="st4" x1="244.4" y1="-447.8" x2="244.4" y2="-437.1"/>
				</g>
				<g class="st3">
					<circle class="st4" cx="265.9" cy="-658.3" r="5"/>
					<line class="st4" x1="229.3" y1="-682.3" x2="229.3" y2="-724.5"/>
					<line class="st4" x1="302.6" y1="-724.5" x2="302.6" y2="-682.3"/>
					<line class="st4" x1="265.9" y1="-674.8" x2="265.9" y2="-663.3"/>
					<rect x="226.9" y="-731.3" class="st4" width="78" height="6.4"/>
					<rect x="226.9" y="-681.8" class="st4" width="78" height="6.4"/>
				</g>
				<g class="st3">
					<path class="st4" d="M560.1-470l-18.8,18.8c-0.8,0.8-2,0.8-2.8,0l-45.4-45.4c-0.8-0.8-0.8-2,0-2.8l18.8-18.8
						c0.8-0.8,2-0.8,2.8,0l45.4,45.4C560.8-472,560.8-470.8,560.1-470z"/>
					<path class="st4" d="M499.2-506.2l-0.7-0.7c-1.6-1.6-1.6-4.3,0-5.9l0,0c1.6-1.6,4.3-1.6,5.9,0l0.7,0.7"/>
					<path class="st4" d="M509.2-498.7c1.3,1.3,1.3,3.3,0,4.6c-1.3,1.3-3.3,1.3-4.6,0c-1.3-1.3-1.3-3.3,0-4.6
						C505.9-500,507.9-500,509.2-498.7z"/>
					<path class="st4" d="M517.2-506.7c1.3,1.3,1.3,3.3,0,4.6c-1.3,1.3-3.3,1.3-4.6,0c-1.3-1.3-1.3-3.3,0-4.6
						C513.9-508,516-508,517.2-506.7z"/>
					<path class="st4" d="M517.4-490.5c1.3,1.3,1.3,3.3,0,4.6c-1.3,1.3-3.3,1.3-4.6,0c-1.3-1.3-1.3-3.3,0-4.6
						C514.1-491.8,516.2-491.8,517.4-490.5z"/>
					<circle class="st4" cx="523.1" cy="-496.2" r="3.3"/>
					<circle class="st4" cx="523.3" cy="-480" r="3.3"/>
					<path class="st4" d="M533.7-490.3c1.3,1.3,1.3,3.3,0,4.6c-1.3,1.3-3.3,1.3-4.6,0c-1.3-1.3-1.3-3.3,0-4.6
						C530.3-491.6,532.4-491.6,533.7-490.3z"/>
					<path class="st4" d="M542.7-462.1l-1.5,1.5c-0.9,0.9-2.3,0.9-3.2,0l-7.2-7.2c-0.9-0.9-0.9-2.3,0-3.2l1.5-1.5
						c0.9-0.9,2.3-0.9,3.2,0l7.2,7.2C543.5-464.4,543.5-463,542.7-462.1z"/>
					<line class="st4" x1="534.7" y1="-464.7" x2="538.6" y2="-468.6"/>
					<path class="st4" d="M550.7-470.1l-1.5,1.5c-0.9,0.9-2.3,0.9-3.2,0l-7.2-7.2c-0.9-0.9-0.9-2.3,0-3.2l1.5-1.5
						c0.9-0.9,2.3-0.9,3.2,0l7.2,7.2C551.6-472.4,551.6-471,550.7-470.1z"/>
					<line class="st4" x1="542.7" y1="-472.7" x2="546.6" y2="-476.6"/>
					<path class="st4" d="M488.5-507.3c-1.2-4.2-0.1-9,3.2-12.3c3.3-3.3,8-4.4,12.3-3.2"/>
					<path class="st4" d="M483.3-506c-1.7-6-0.2-12.7,4.5-17.4c4.7-4.7,11.4-6.2,17.4-4.5"/>
				</g>
				<g class="st3">
					
						<ellipse transform="matrix(0.1402 -0.9901 0.9901 0.1402 716.069 494.4924)" class="st4" cx="642.8" cy="-165.1" rx="12.9" ry="12.9"/>
					<line class="st4" x1="639.1" y1="-152.1" x2="639.1" y2="-124.6"/>
					<line class="st4" x1="646.4" y1="-152.1" x2="646.4" y2="-124.6"/>
					<path class="st4" d="M633.8-118.2v-1.5c0-2.3,1.8-4.1,4.1-4.1h9.7c2.3,0,4.1,1.8,4.1,4.1v1.5"/>
					<path class="st4" d="M609-111.3v-3.1c0-1.6,1.4-2.9,3.1-2.9h7.4c1.7,0,3.1,1.3,3.1,2.9v3.1"/>
					<path class="st4" d="M663-111.3v-3.1c0-1.6,1.4-2.9,3.1-2.9h7.4c1.7,0,3.1,1.3,3.1,2.9v3.1"/>
					<path class="st4" d="M627.4-111.8v-2.6c0-1.9,1.5-3.4,3.4-3.4h24c1.9,0,3.4,1.5,3.4,3.4v2.6"/>
					<path class="st4" d="M678.6-110.8h-71.6c-1.8,0-3.2,1.4-3.2,3.2v4.5c0,1.8,1.4,3.2,3.2,3.2h71.6c1.8,0,3.2-1.4,3.2-3.2v-4.5
						C681.8-109.4,680.3-110.8,678.6-110.8z"/>
				</g>
				<g class="st3">
					<path class="st4" d="M527.9-400.3v43.6c0,3.5,2.9,6.4,6.4,6.4h26.3c2.8,0,5.3-1.8,6.1-4.5l0.7-2.4c0.8-2.7,3.3-4.5,6.1-4.5H585
						c2.8,0,5.3,1.8,6.1,4.5l0.7,2.4c0.8,2.7,3.3,4.5,6.1,4.5h26.4c3.5,0,6.4-2.9,6.4-6.4v-43.6c0-3.5-2.9-6.4-6.4-6.4h-90.1
						C530.7-406.7,527.9-403.9,527.9-400.3z"/>
					<polyline class="st4" points="527.4,-366.5 515.9,-366.5 515.9,-391.6 527.4,-391.6 					"/>
					<polyline class="st4" points="631.2,-391.6 642.8,-391.6 642.8,-366.5 631.2,-366.5 					"/>
					<line class="st4" x1="579.3" y1="-442" x2="579.3" y2="-429.7"/>
					<line class="st4" x1="610.3" y1="-436.9" x2="604.6" y2="-425.9"/>
					<line class="st4" x1="548.4" y1="-436.9" x2="554" y2="-425.9"/>
					<line class="st4" x1="579.3" y1="-315.1" x2="579.3" y2="-327.4"/>
					<line class="st4" x1="548.4" y1="-320.2" x2="554" y2="-331.2"/>
					<line class="st4" x1="610.3" y1="-320.2" x2="604.6" y2="-331.2"/>
					<line class="st4" x1="539.2" y1="-370" x2="546.7" y2="-362.6"/>
					<line class="st4" x1="543" y1="-380.1" x2="556.8" y2="-366.3"/>
				</g>
				<g class="st3">
					<circle class="st4" cx="423.8" cy="-173.4" r="12.3"/>
					<path class="st4" d="M408.2-155.7h31.2c2.4,0,4.4-2,4.4-4.4v-69.3c0-2.4-2-4.4-4.4-4.4h-31.2c-2.4,0-4.4,2-4.4,4.4v69.3
						C403.8-157.6,405.8-155.7,408.2-155.7z"/>
					<line class="st4" x1="443.1" y1="-224.6" x2="404.4" y2="-224.6"/>
					<line class="st4" x1="404.4" y1="-191.5" x2="443.1" y2="-191.5"/>
					<path class="st4" d="M427.5-177.1C427.5-177.1,427.5-177.1,427.5-177.1C427.4-177.1,427.4-177.1,427.5-177.1
						c0-2.1-1.7-3.7-3.7-3.7c-2,0-3.7,1.7-3.7,3.7c0,0,0,0,0,0c0,0,0,0,0,0c-2,0-3.7,1.7-3.7,3.7c0,2,1.7,3.7,3.7,3.7c0,0,0,0,0,0
						c0,0,0,0,0,0c0,2,1.7,3.7,3.7,3.7c2,0,3.7-1.7,3.7-3.7c0,0,0,0,0,0c0,0,0,0,0,0c2,0,3.7-1.7,3.7-3.7
						C431.2-175.4,429.5-177.1,427.5-177.1z"/>
				</g>
				<g class="st3">
					<circle class="st4" cx="275.6" cy="-554.2" r="8"/>
					<circle class="st4" cx="244.6" cy="-554.2" r="8"/>
					<circle class="st4" cx="213.6" cy="-554.2" r="8"/>
					
						<ellipse transform="matrix(0.6168 -0.7871 0.7871 0.6168 554.3293 -31.7304)" class="st4" cx="244.6" cy="-585.2" rx="10.5" ry="10.5"/>
					<polyline class="st4" points="255.1,-585.2 275.6,-585.2 275.6,-562.2 					"/>
					<line class="st4" x1="244.6" y1="-574.7" x2="244.6" y2="-562.2"/>
					<polyline class="st4" points="213.6,-562.2 213.6,-568.4 244.4,-568.4 					"/>
					<circle class="st4" cx="213.6" cy="-616.2" r="8"/>
					<circle class="st4" cx="244.6" cy="-616.2" r="8"/>
					<circle class="st4" cx="275.6" cy="-616.2" r="8"/>
					<polyline class="st4" points="234.1,-585.2 213.6,-585.2 213.6,-608.2 					"/>
					<line class="st4" x1="244.6" y1="-595.7" x2="244.6" y2="-608.2"/>
					<polyline class="st4" points="275.6,-608.2 275.6,-601.9 244.8,-601.9 					"/>
				</g>
				<g class="st3">
					<circle class="st4" cx="43.3" cy="-627.3" r="18.1"/>
					<path class="st4" d="M43.3-594.4c-4.6,0-8.3,3.5-8.8,7.9c-5-1.1-9.7-3-13.8-5.7c2.8-3.5,2.6-8.6-0.6-11.8
						c-3.2-3.2-8.3-3.4-11.8-0.6c-2.7-4.2-4.7-8.8-5.7-13.8c4.4-0.5,7.9-4.2,7.9-8.8c0-4.6-3.5-8.3-7.9-8.8c1.1-5,3-9.7,5.7-13.8
						c3.5,2.8,8.6,2.6,11.8-0.6s3.4-8.3,0.6-11.8c4.2-2.7,8.8-4.7,13.8-5.7c0.5,4.4,4.2,7.9,8.8,7.9c4.6,0,8.3-3.5,8.8-7.9
						c5,1.1,9.7,3,13.8,5.7c-2.8,3.5-2.6,8.6,0.6,11.8c3.2,3.2,8.3,3.4,11.8,0.6c2.7,4.2,4.7,8.8,5.7,13.8c-4.4,0.5-7.9,4.2-7.9,8.8
						c0,4.6,3.5,8.3,7.9,8.8c-1.1,5-3,9.7-5.7,13.8c-3.5-2.8-8.6-2.6-11.8,0.6c-3.2,3.2-3.4,8.3-0.6,11.8c-4.2,2.7-8.8,4.7-13.8,5.7
						C51.7-591,47.9-594.4,43.3-594.4z"/>
					
						<ellipse transform="matrix(0.1656 -0.9862 0.9862 0.1656 642.4805 -332.5995)" class="st4" cx="124.7" cy="-546" rx="26.4" ry="26.4"/>
					<path class="st4" d="M124.7-497.8c-6.7,0-12.2,5.1-12.9,11.6c-7.3-1.6-14.2-4.5-20.2-8.4c4.1-5.1,3.8-12.6-0.9-17.3
						c-4.7-4.7-12.2-5-17.3-0.9c-3.9-6.1-6.8-12.9-8.4-20.2c6.5-0.7,11.6-6.2,11.6-12.9c0-6.7-5.1-12.2-11.6-12.9
						c1.6-7.3,4.5-14.2,8.4-20.2c5.1,4.1,12.6,3.8,17.3-0.9c4.7-4.7,5-12.2,0.9-17.3c6.1-3.9,12.9-6.8,20.2-8.4
						c0.7,6.5,6.2,11.6,12.9,11.6s12.2-5.1,12.9-11.6c7.3,1.6,14.2,4.5,20.2,8.4c-4.1,5.1-3.8,12.6,0.9,17.3
						c4.7,4.7,12.2,5,17.3,0.9c3.9,6.1,6.8,12.9,8.4,20.2c-6.5,0.7-11.6,6.2-11.6,12.9c0,6.7,5.1,12.2,11.6,12.9
						c-1.6,7.3-4.5,14.2-8.4,20.2c-5.1-4.1-12.6-3.8-17.3,0.9c-4.7,4.7-5,12.2-0.9,17.3c-6.1,3.9-12.9,6.8-20.2,8.4
						C136.9-492.7,131.4-497.8,124.7-497.8z"/>
				</g>
				<g class="st3">
					<circle class="st4" cx="265.9" cy="-8.3" r="5"/>
					<line class="st4" x1="229.3" y1="-32.3" x2="229.3" y2="-74.5"/>
					<line class="st4" x1="302.6" y1="-74.5" x2="302.6" y2="-32.3"/>
					<line class="st4" x1="265.9" y1="-24.8" x2="265.9" y2="-13.3"/>
					<rect x="226.9" y="-81.3" class="st4" width="78" height="6.4"/>
					<rect x="226.9" y="-31.8" class="st4" width="78" height="6.4"/>
				</g>
				<g class="st3">
					<path class="st4" d="M201-412.6H82c-28.8,0-52.2,23.4-52.2,52.4c0,28.9,23.4,52.4,52.2,52.4c20.3,0,37.9-11.7,46.5-28.7h26
						c8.6,17,26.2,28.7,46.5,28.7c28.8,0,52.2-23.4,52.2-52.4C253.2-389.1,229.8-412.6,201-412.6z"/>
					<ellipse class="st4" cx="82.5" cy="-360.2" rx="35.3" ry="35.4"/>
					<ellipse class="st4" cx="200.8" cy="-360.2" rx="35.3" ry="35.4"/>
					<ellipse class="st4" cx="141.7" cy="-369.5" rx="8.2" ry="8.3"/>
					<path class="st4" d="M210.7-371.2C210.7-371.2,210.7-371.2,210.7-371.2C210.7-371.2,210.7-371.2,210.7-371.2
						c0-5.5-4.5-10-9.9-10c-5.5,0-9.9,4.5-9.9,9.9c0,0,0,0,0,0c0,0,0,0,0,0c-5.5,0-9.9,4.4-9.9,9.9s4.5,9.9,9.9,9.9c0,0,0,0,0,0
						c0,0,0,0,0,0c0,5.5,4.4,9.9,9.9,9.9c5.5,0,9.9-4.5,9.9-9.9c0,0,0,0,0,0c0,0,0,0,0,0c5.5,0,9.9-4.4,9.9-9.9
						S216.2-371.2,210.7-371.2z"/>
					<line class="st4" x1="127" y1="-393.3" x2="155.6" y2="-393.3"/>
					<polygon class="st4" points="100.3,-369.7 90.8,-369.7 90.8,-379.2 74.1,-379.2 74.1,-369.7 64.6,-369.7 64.6,-352.9 
						74.1,-352.9 74.1,-343.4 90.8,-343.4 90.8,-352.9 100.3,-352.9 					"/>
					<path class="st4" d="M101.6-413.6v-8.9c0-5.7-5.4-10.3-12.1-10.3h-14c-6.7,0-12.1,4.6-12.1,10.3v12.3"/>
					<path class="st4" d="M219.9-410.1v-12.3c0-5.7-5.4-10.3-12.1-10.3h-14c-6.7,0-12.1,4.6-12.1,10.3v8.9"/>
					<path class="st4" d="M128.5-336.5L99.6-234.3c-4.8,18.1-23.5,28.8-41.5,23.8l0,0c-16.3-4.6-26.7-20.7-24.2-37.5l10.3-75.1"/>
					<path class="st4" d="M154.3-336.5l28.9,102.2c4.8,18.1,23.5,28.8,41.5,23.8l0,0c16.3-4.6,26.7-20.7,24.2-37.5l-10.3-75.1"/>
				</g>
				<g class="st3">
					<circle class="st4" cx="621.3" cy="-11.8" r="9.3"/>
					
						<ellipse transform="matrix(0.9732 -0.2298 0.2298 0.9732 27.9781 136.891)" class="st4" cx="601.8" cy="-51.7" rx="8.2" ry="8.2"/>
					<rect x="634" y="-63.4" class="st4" width="14.4" height="14.4"/>
					<polygon class="st4" points="632.9,-68.9 609.7,-68.9 621.3,-80.5 					"/>
					<line class="st4" x1="621.3" y1="-68.7" x2="621.3" y2="-21"/>
					<polyline class="st4" points="601.8,-43.5 601.8,-34.8 621.3,-26.7 					"/>
					<polyline class="st4" points="641.2,-48.4 641.2,-39.8 621.7,-31.6 					"/>
				</g>
				<g class="st3">
					<circle class="st4" cx="621.3" cy="-661.8" r="9.3"/>
					
						<ellipse transform="matrix(0.9732 -0.2298 0.2298 0.9732 177.3167 119.503)" class="st4" cx="601.8" cy="-701.7" rx="8.2" ry="8.2"/>
					<rect x="634" y="-713.4" class="st4" width="14.4" height="14.4"/>
					<polygon class="st4" points="632.9,-718.9 609.7,-718.9 621.3,-730.5 					"/>
					<line class="st4" x1="621.3" y1="-718.7" x2="621.3" y2="-671"/>
					<polyline class="st4" points="601.8,-693.5 601.8,-684.8 621.3,-676.7 					"/>
					<polyline class="st4" points="641.2,-698.4 641.2,-689.8 621.7,-681.6 					"/>
				</g>
				<g class="st3">
					<g>
						<path class="st4" d="M748.2-90.1c0,3.5-2.9,6.4-6.4,6.4c-3.5,0-6.4-2.9-6.4-6.4s2.9-6.4,6.4-6.4
							C745.4-96.4,748.2-93.6,748.2-90.1z"/>
						<line class="st4" x1="748.2" y1="-90.1" x2="761.8" y2="-90.1"/>
						<path class="st4" d="M748.2-66.3c0,3.5-2.9,6.4-6.4,6.4c-3.5,0-6.4-2.9-6.4-6.4c0-3.5,2.9-6.4,6.4-6.4
							C745.4-72.6,748.2-69.8,748.2-66.3z"/>
						<line class="st4" x1="748.2" y1="-66.3" x2="761.8" y2="-66.3"/>
						<path class="st4" d="M781.6-32.8c3.5,0,6.4,2.9,6.4,6.4c0,3.5-2.9,6.4-6.4,6.4s-6.4-2.9-6.4-6.4
							C775.3-30,778.1-32.8,781.6-32.8z"/>
						<line class="st4" x1="781.6" y1="-32.8" x2="781.6" y2="-46.4"/>
						<path class="st4" d="M805.4-32.8c3.5,0,6.4,2.9,6.4,6.4c0,3.5-2.9,6.4-6.4,6.4c-3.5,0-6.4-2.9-6.4-6.4
							C799.1-30,801.9-32.8,805.4-32.8z"/>
						<line class="st4" x1="805.4" y1="-32.8" x2="805.4" y2="-46.4"/>
						<path class="st4" d="M838.9-66.3c0-3.5,2.9-6.4,6.4-6.4c3.5,0,6.4,2.9,6.4,6.4c0,3.5-2.9,6.4-6.4,6.4
							C841.7-59.9,838.9-62.7,838.9-66.3z"/>
						<line class="st4" x1="838.9" y1="-66.3" x2="825.3" y2="-66.3"/>
						<path class="st4" d="M838.9-90.1c0-3.5,2.9-6.4,6.4-6.4c3.5,0,6.4,2.9,6.4,6.4s-2.9,6.4-6.4,6.4
							C841.7-83.7,838.9-86.5,838.9-90.1z"/>
						<line class="st4" x1="838.9" y1="-90.1" x2="825.3" y2="-90.1"/>
						<path class="st4" d="M805.4-123.5c-3.5,0-6.4-2.9-6.4-6.4c0-3.5,2.9-6.4,6.4-6.4c3.5,0,6.4,2.9,6.4,6.4
							C811.8-126.3,809-123.5,805.4-123.5z"/>
						<line class="st4" x1="805.4" y1="-123.5" x2="805.4" y2="-109.9"/>
						<path class="st4" d="M781.6-123.5c-3.5,0-6.4-2.9-6.4-6.4c0-3.5,2.9-6.4,6.4-6.4s6.4,2.9,6.4,6.4
							C788-126.3,785.2-123.5,781.6-123.5z"/>
						<line class="st4" x1="781.6" y1="-123.5" x2="781.6" y2="-109.9"/>
						<rect x="762.6" y="-109.1" class="st4" width="61.8" height="61.8"/>
						<rect x="776" y="-95.7" class="st4" width="35" height="35"/>
					</g>
					<g>
						<path class="st4" d="M98.2-90.1c0,3.5-2.9,6.4-6.4,6.4c-3.5,0-6.4-2.9-6.4-6.4s2.9-6.4,6.4-6.4C95.3-96.4,98.2-93.6,98.2-90.1
							z"/>
						<line class="st4" x1="98.2" y1="-90.1" x2="111.8" y2="-90.1"/>
						<path class="st4" d="M98.2-66.3c0,3.5-2.9,6.4-6.4,6.4c-3.5,0-6.4-2.9-6.4-6.4c0-3.5,2.9-6.4,6.4-6.4
							C95.3-72.6,98.2-69.8,98.2-66.3z"/>
						<line class="st4" x1="98.2" y1="-66.3" x2="111.8" y2="-66.3"/>
						<path class="st4" d="M131.6-32.8c3.5,0,6.4,2.9,6.4,6.4c0,3.5-2.9,6.4-6.4,6.4c-3.5,0-6.4-2.9-6.4-6.4
							C125.2-30,128.1-32.8,131.6-32.8z"/>
						<line class="st4" x1="131.6" y1="-32.8" x2="131.6" y2="-46.4"/>
						<path class="st4" d="M155.4-32.8c3.5,0,6.4,2.9,6.4,6.4c0,3.5-2.9,6.4-6.4,6.4c-3.5,0-6.4-2.9-6.4-6.4
							C149-30,151.9-32.8,155.4-32.8z"/>
						<line class="st4" x1="155.4" y1="-32.8" x2="155.4" y2="-46.4"/>
						<path class="st4" d="M188.9-66.3c0-3.5,2.9-6.4,6.4-6.4c3.5,0,6.4,2.9,6.4,6.4c0,3.5-2.9,6.4-6.4,6.4
							C191.7-59.9,188.9-62.7,188.9-66.3z"/>
						<line class="st4" x1="188.9" y1="-66.3" x2="175.3" y2="-66.3"/>
						<path class="st4" d="M188.9-90.1c0-3.5,2.9-6.4,6.4-6.4c3.5,0,6.4,2.9,6.4,6.4s-2.9,6.4-6.4,6.4
							C191.7-83.7,188.9-86.5,188.9-90.1z"/>
						<line class="st4" x1="188.9" y1="-90.1" x2="175.3" y2="-90.1"/>
						<path class="st4" d="M155.4-123.5c-3.5,0-6.4-2.9-6.4-6.4c0-3.5,2.9-6.4,6.4-6.4c3.5,0,6.4,2.9,6.4,6.4
							C161.8-126.3,158.9-123.5,155.4-123.5z"/>
						<line class="st4" x1="155.4" y1="-123.5" x2="155.4" y2="-109.9"/>
						<path class="st4" d="M131.6-123.5c-3.5,0-6.4-2.9-6.4-6.4c0-3.5,2.9-6.4,6.4-6.4c3.5,0,6.4,2.9,6.4,6.4
							C138-126.3,135.1-123.5,131.6-123.5z"/>
						<line class="st4" x1="131.6" y1="-123.5" x2="131.6" y2="-109.9"/>
						<rect x="112.6" y="-109.1" class="st4" width="61.8" height="61.8"/>
						<rect x="126" y="-95.7" class="st4" width="35" height="35"/>
					</g>
				</g>
				<g class="st3">
					<g>
						<path class="st4" d="M748.2-740.1c0,3.5-2.9,6.4-6.4,6.4c-3.5,0-6.4-2.9-6.4-6.4c0-3.5,2.9-6.4,6.4-6.4
							C745.4-746.4,748.2-743.6,748.2-740.1z"/>
						<line class="st4" x1="748.2" y1="-740.1" x2="761.8" y2="-740.1"/>
						<path class="st4" d="M748.2-716.3c0,3.5-2.9,6.4-6.4,6.4c-3.5,0-6.4-2.9-6.4-6.4c0-3.5,2.9-6.4,6.4-6.4
							C745.4-722.6,748.2-719.8,748.2-716.3z"/>
						<line class="st4" x1="748.2" y1="-716.3" x2="761.8" y2="-716.3"/>
						<path class="st4" d="M781.6-682.8c3.5,0,6.4,2.9,6.4,6.4c0,3.5-2.9,6.4-6.4,6.4s-6.4-2.9-6.4-6.4
							C775.3-680,778.1-682.8,781.6-682.8z"/>
						<line class="st4" x1="781.6" y1="-682.8" x2="781.6" y2="-696.4"/>
						<path class="st4" d="M805.4-682.8c3.5,0,6.4,2.9,6.4,6.4c0,3.5-2.9,6.4-6.4,6.4c-3.5,0-6.4-2.9-6.4-6.4
							C799.1-680,801.9-682.8,805.4-682.8z"/>
						<line class="st4" x1="805.4" y1="-682.8" x2="805.4" y2="-696.4"/>
						<path class="st4" d="M838.9-716.3c0-3.5,2.9-6.4,6.4-6.4c3.5,0,6.4,2.9,6.4,6.4c0,3.5-2.9,6.4-6.4,6.4
							C841.7-709.9,838.9-712.7,838.9-716.3z"/>
						<line class="st4" x1="838.9" y1="-716.3" x2="825.3" y2="-716.3"/>
						<path class="st4" d="M838.9-740.1c0-3.5,2.9-6.4,6.4-6.4c3.5,0,6.4,2.9,6.4,6.4c0,3.5-2.9,6.4-6.4,6.4
							C841.7-733.7,838.9-736.5,838.9-740.1z"/>
						<line class="st4" x1="838.9" y1="-740.1" x2="825.3" y2="-740.1"/>
						<path class="st4" d="M805.4-773.5c-3.5,0-6.4-2.9-6.4-6.4c0-3.5,2.9-6.4,6.4-6.4c3.5,0,6.4,2.9,6.4,6.4
							C811.8-776.3,809-773.5,805.4-773.5z"/>
						<line class="st4" x1="805.4" y1="-773.5" x2="805.4" y2="-759.9"/>
						<path class="st4" d="M781.6-773.5c-3.5,0-6.4-2.9-6.4-6.4c0-3.5,2.9-6.4,6.4-6.4s6.4,2.9,6.4,6.4
							C788-776.3,785.2-773.5,781.6-773.5z"/>
						<line class="st4" x1="781.6" y1="-773.5" x2="781.6" y2="-759.9"/>
						<rect x="762.6" y="-759.1" class="st4" width="61.8" height="61.8"/>
						<rect x="776" y="-745.7" class="st4" width="35" height="35"/>
					</g>
					<g>
						<path class="st4" d="M98.2-740.1c0,3.5-2.9,6.4-6.4,6.4c-3.5,0-6.4-2.9-6.4-6.4c0-3.5,2.9-6.4,6.4-6.4
							C95.3-746.4,98.2-743.6,98.2-740.1z"/>
						<line class="st4" x1="98.2" y1="-740.1" x2="111.8" y2="-740.1"/>
						<path class="st4" d="M98.2-716.3c0,3.5-2.9,6.4-6.4,6.4c-3.5,0-6.4-2.9-6.4-6.4c0-3.5,2.9-6.4,6.4-6.4
							C95.3-722.6,98.2-719.8,98.2-716.3z"/>
						<line class="st4" x1="98.2" y1="-716.3" x2="111.8" y2="-716.3"/>
						<path class="st4" d="M131.6-682.8c3.5,0,6.4,2.9,6.4,6.4c0,3.5-2.9,6.4-6.4,6.4c-3.5,0-6.4-2.9-6.4-6.4
							C125.2-680,128.1-682.8,131.6-682.8z"/>
						<line class="st4" x1="131.6" y1="-682.8" x2="131.6" y2="-696.4"/>
						<path class="st4" d="M155.4-682.8c3.5,0,6.4,2.9,6.4,6.4c0,3.5-2.9,6.4-6.4,6.4c-3.5,0-6.4-2.9-6.4-6.4
							C149-680,151.9-682.8,155.4-682.8z"/>
						<line class="st4" x1="155.4" y1="-682.8" x2="155.4" y2="-696.4"/>
						<path class="st4" d="M188.9-716.3c0-3.5,2.9-6.4,6.4-6.4c3.5,0,6.4,2.9,6.4,6.4c0,3.5-2.9,6.4-6.4,6.4
							C191.7-709.9,188.9-712.7,188.9-716.3z"/>
						<line class="st4" x1="188.9" y1="-716.3" x2="175.3" y2="-716.3"/>
						<path class="st4" d="M188.9-740.1c0-3.5,2.9-6.4,6.4-6.4c3.5,0,6.4,2.9,6.4,6.4c0,3.5-2.9,6.4-6.4,6.4
							C191.7-733.7,188.9-736.5,188.9-740.1z"/>
						<line class="st4" x1="188.9" y1="-740.1" x2="175.3" y2="-740.1"/>
						<path class="st4" d="M155.4-773.5c-3.5,0-6.4-2.9-6.4-6.4c0-3.5,2.9-6.4,6.4-6.4c3.5,0,6.4,2.9,6.4,6.4
							C161.8-776.3,158.9-773.5,155.4-773.5z"/>
						<line class="st4" x1="155.4" y1="-773.5" x2="155.4" y2="-759.9"/>
						<path class="st4" d="M131.6-773.5c-3.5,0-6.4-2.9-6.4-6.4c0-3.5,2.9-6.4,6.4-6.4c3.5,0,6.4,2.9,6.4,6.4
							C138-776.3,135.1-773.5,131.6-773.5z"/>
						<line class="st4" x1="131.6" y1="-773.5" x2="131.6" y2="-759.9"/>
						<rect x="112.6" y="-759.1" class="st4" width="61.8" height="61.8"/>
						<rect x="126" y="-745.7" class="st4" width="35" height="35"/>
					</g>
				</g>
				<circle class="st5" cx="367.4" cy="-60.7" r="22.1"/>
				<circle class="st5" cx="367.4" cy="-711.4" r="22.1"/>
				<circle class="st5" cx="711.4" cy="-159.9" r="26.2"/>
				<circle class="st5" cx="596.2" cy="-621.8" r="8.9"/>
				<circle class="st5" cx="568.7" cy="-660.1" r="14.7"/>
				<circle class="st5" cx="351.9" cy="-547.6" r="6.6"/>
				<circle class="st5" cx="762.6" cy="-194.7" r="5.6"/>
				<circle class="st5" cx="491.4" cy="-432.5" r="8.6"/>
				<polygon class="st5" points="213.6,-182.2 192.9,-154.5 179.2,-186.3 				"/>
				<polygon class="st5" points="521.7,-297.5 494.4,-305 514.5,-324.8 				"/>
				<polygon class="st5" points="278.1,-357 266.3,-368.8 282.4,-373.1 				"/>
				<polygon class="st5" points="325,-348.8 364.5,-362.7 356.8,-321.5 				"/>
				<polygon class="st5" points="427.6,-616.2 388.5,-638.1 427,-661 				"/>
				<rect x="174.6" y="-483.2" class="st5" width="21.3" height="21.3"/>
				<rect x="770.2" y="-263.7" class="st5" width="11.4" height="24.8"/>
				<circle class="st5" cx="168.1" cy="-213.9" r="7.1"/>
			</g>
		</g>
	</g>
</pattern>
<pattern  id="SVGID_3_" xlink:href="#OMT_Light_Gray" patternTransform="matrix(1 0 0 1 174.4682 -83.7194)">
</pattern>
<rect class="st6" width="1920" height="1920"/>
<title>teal</title>
<g>
	<g id="Layer_1-2">
		<circle class="st7" cx="960" cy="960" r="660"/>
		<path class="st8" d="M608.9,720.4c-34.4,12.4-72.3-5.2-84.7-39.6c-4.5-12.4-5.2-25.9-2-38.7c6.6-24.7,24.7-44.8,48.6-53.9
			c11.2-4.1,23.2-4.9,34.9-2.7c24,5.1,43.6,22.8,51.1,46.1c3.4,11.3,3.7,23.5,0.7,34.9c-3.1,12.2-9.3,23.3-17.8,32.4
			C631.4,708.6,620.7,715.9,608.9,720.4z M630.8,663.2c1.6-6.9,1.1-14-1.1-20.6c-2.5-6.9-6.8-13.2-12.4-18.1
			c-5.5-5.1-12.2-8.8-19.5-10.6c-6.8-1.6-14-1.3-20.6,0.8c-6.6,2.4-12.7,6.4-17.4,11.7c-4.9,5.4-8.3,11.9-10,18.9
			c-1.6,6.9-1.1,14,1.1,20.6c5.2,14.3,17.3,25,32,28.8c6.8,1.6,14,1.3,20.6-0.8c13.9-4.9,24.3-16.5,27.9-30.8L630.8,663.2z"/>
		<path class="st8" d="M700.4,493.6c8.6-1.3,17.3,0.1,25.2,3.8c15.7,8.5,25.6,24.9,25.9,42.7c-0.1,8.8-3,17.3-8.1,24.3
			c-6.1,8.3-13.9,15.3-22.8,20.4l-22.3,13.6l18.5,30.5l-25.9,15.3l-67.2-111l47.9-29C680.4,498.7,690.2,495,700.4,493.6z M721,548.9
			c2-6.1,1-12.6-2.5-17.8c-3-5.7-8.3-9.6-14.7-10.7c-7.4-0.6-14.6,1.4-20.6,5.7L662,538.7l23.3,38.5l20.9-12.7
			C712.8,561.2,718,555.7,721,548.9z"/>
		<path class="st8" d="M882.2,534.1l6.8,23.1l-96.3,28.3l-36.6-124.4l94-27.7l6.8,23.1l-65.5,19.2l8.1,27.2l57.8-17l6.5,22.5
			l-57.7,17l8.1,28.8L882.2,534.1z"/>
		<path class="st8" d="M1012.7,424.2l2.1,129.7l-24.3,0.4l-66-77.8l1.3,78.8l-29.6,0.4L894.1,426h24.7l65.8,77.6l-1.3-78.8
			L1012.7,424.2z"/>
		<path class="st8" d="M1178.5,611l31.7-71.1l-61.1,42.8l-12.3-5.7l-9.1-72.5l-31.3,69.4l-25.9-11.5l53.2-118.4l22.9,9.8l11.3,93.5
			l76.6-54l22.5,10.3l-52.7,118.5L1178.5,611z"/>
		<path class="st8" d="M1293.6,534.1l23.6,18.5L1237.6,655l-23.8-18.4L1293.6,534.1z"/>
		<path class="st8" d="M1275.5,680.6c-2.7-11.5-2.1-23.5,1.6-34.6c4-11.6,11-21.8,20.5-29.6c9.2-8.2,20.4-13.6,32.4-15.7
			c11.6-2,23.6-0.8,34.5,3.4c11.7,4.5,22.1,12,30.1,21.6c6.9,7.8,12.3,17,15.6,26.9c3,9.2,3.7,18.9,2.1,28.6l-26.2-3
			c2.1-12.4-1.4-25.2-9.8-34.6c-4.8-5.8-11-10.2-18.1-12.9c-6.6-2.4-13.9-3-20.8-1.4c-14.8,3.4-26.9,14-32.4,28.1
			c-2.5,6.6-3,13.9-1.6,20.8c1.7,7.4,5.1,14.1,10.2,19.7c8.1,9.5,20.1,14.8,32.7,14.4l-0.8,26.3c-9.8,0.3-19.4-1.8-28.1-6.1
			c-9.3-4.7-17.5-11.3-24.3-19.2C1284.4,704,1278.5,692.7,1275.5,680.6z"/>
		<path class="st8" d="M763.6,1402.9l-38-16.3l9.8-22.3l103.7,45.1l-9.8,22.5l-38-16.3l-42,95.9l-27.3-12L763.6,1402.9z"/>
		<path class="st8" d="M921.4,1529.3l-4.1,23.8l-99-16.8l21.8-128l96.7,16.3l-4.1,23.8l-67.2-11.5l-4.8,27.9l59.4,10.2l-3.8,23.3
			l-59.4-10.2l-5.5,29.6L921.4,1529.3z"/>
		<path class="st8" d="M983.6,1545.9c-10.7-4.5-20.2-11.9-27.2-21.4c-14.1-20.2-16.4-46.4-6.2-68.9c5.1-10.7,13-19.8,22.9-26.3
			c10.5-6.8,22.6-10.9,35.1-11.9c10.5-1.1,20.9,0,30.8,3.3c9.2,3,17.5,8.1,24.3,15l-17.4,19.5c-8.9-9.1-21.4-13.6-33.9-12.3
			c-7.5,0.6-14.7,3-20.9,7.1c-5.9,4-10.6,9.6-13.4,16.3c-3,6.9-4.1,14.4-3.4,21.9c0.4,7.5,3,14.7,7.1,20.9c4,5.9,9.6,10.6,16.3,13.4
			c6.9,3.1,14.4,4.2,21.9,3.4c12.6-1,24-7.8,31.1-18.2l20.8,16.3c-5.5,8.1-12.9,14.6-21.4,19.2c-9.3,4.9-19.5,7.8-30,8.6
			C1007.8,1553,995.2,1551,983.6,1545.9z"/>
		<path class="st8" d="M1174.7,1370.5l47.7,120.6l-27.9,11.2l-19.5-49.5l-54.9,21.6l19.5,49.5l-27.9,11l-47.7-120.6l27.9-11.3
			l18.8,47.5l54.9-21.6l-18.8-47.5L1174.7,1370.5z"/>
		<path class="st8" d="M853.8,851.5c33.2-33.2,33.2-87.1,0-120.3c-33.2-33.2-87.1-33.2-120.3,0c-33.2,33.2-33.2,87.1,0,120.3
			c16,16,37.6,24.9,60.1,24.9C816.2,876.4,837.8,867.5,853.8,851.5z"/>
		<path class="st8" d="M1121.6,817.2v69.7h13.6v-69.7c-1.6-49.9-43.3-89.2-93.2-87.8c-47.8,1.4-86.3,39.9-87.8,87.8v369.9
			c0,42.6-34.5,77.1-77.1,77.1c-42.6,0-77.1-34.5-77.1-77.1l0,0v-43.7h14.4c10.2-0.1,18.7-8.1,19.4-18.2l14-241.3
			c-33.7,19.9-75.5,19.9-109,0l14,240.8c0.4,10.3,8.9,18.5,19.2,18.7h14.3v44.1c1.6,49.9,43.3,89.2,93.2,87.8
			c47.8-1.4,86.3-39.9,87.8-87.8V817.2c0-42.6,34.5-77.1,77.1-77.1C1087.1,740.1,1121.6,774.6,1121.6,817.2L1121.6,817.2z
			 M779,1019.4v-54.4c0.6-8.1,7.6-14.3,15.8-13.6c7.4,0.6,13.2,6.4,13.6,13.6v54.3c-0.6,8.1-7.6,14.3-15.8,13.6
			c-7.4-0.6-13.2-6.4-13.6-13.6V1019.4z"/>
		<path class="st8" d="M1208.3,955.9c-0.6-4-1.4-7.8-2.5-11.6c-9.6-31.7-37.5-54.4-70.4-57.3v41.3c5.2,2.4,8.6,7.6,8.6,13.3v28.6
			c-0.1,5.5-3.3,10.6-8.1,13.3v17c-1.1,4.4-5.7,6.9-9.9,5.7c-2.8-0.7-4.9-3-5.7-5.7v-17c-4.7-2.8-7.6-7.8-7.5-13.3v-28.6
			c0-4.1,1.6-8.1,4.5-10.9c1.1-1.3,2.7-2,4.2-2.4V887c-33.4,2.7-61.7,25.6-71.1,57.7c-1.1,3.8-2,7.6-2.5,11.6
			c-0.6,3.7-0.8,7.4-0.8,11v112.6c0,44.8,36.3,81,81,81c44.8,0,81-36.3,81-81v-113C1209.2,963.1,1208.7,959.4,1208.3,955.9z"/>
		<path class="st8" d="M1120.5,946.3v19.1c1.1,4.4,5.5,6.9,9.9,5.8c2.7-0.7,4.8-2.7,5.7-5.4c0-0.1,0-0.3,0-0.4v-19.1
			c0-0.1,0-0.4,0-0.6c-1.4-4.2-5.9-6.5-10.2-5.2C1123.2,941.5,1121.2,943.6,1120.5,946.3z"/>
	</g>
</g>
</svg>
