<svg xmlns="http://www.w3.org/2000/svg" xmlns:xlink="http://www.w3.org/1999/xlink" viewBox="0 0 1920 1920"><defs><style>.cls-1{fill:url(#linear-gradient);}.cls-2{fill:#9ccc4e;}.cls-3{fill:#b1742a;}.cls-4{fill:#fff;}.cls-5,.cls-6{fill:#636566;}.cls-5{stroke:#636566;stroke-miterlimit:10;stroke-width:6px;}.cls-6{isolation:isolate;font-size:97.51px;font-family:OpenSans, Open Sans;}.cls-7{fill:#006838;}</style><linearGradient id="linear-gradient" x1="29.38" y1="29.38" x2="1949.38" y2="1949.38" gradientUnits="userSpaceOnUse"><stop offset="0.04" stop-color="#f2dbc2"/><stop offset="1" stop-color="#f8d3a9"/></linearGradient></defs><g id="Layer_2" data-name="Layer 2"><g id="Layer_1-2" data-name="Layer 1"><rect class="cls-1" width="1920" height="1920"/><path class="cls-2" d="M684.38,891.91c-8.87,31.58-24.58,61.8-42.67,81.09a114.68,114.68,0,0,1-162.17,5.46c-46.26-43.36-48.82-115.91-5.46-162.17,18.09-19.46,47.11-37.21,78-48.14a418.82,418.82,0,0,0,54.62-23.73c32.27-16.9,73.92-24.24,95.43-4.09s17.07,62.13,2.39,95.42A401.54,401.54,0,0,0,684.38,891.91Zm-90.64,43c20.31-21.68,35.17-72.89,13.49-93-21.68-20.32-71.7-1.88-92,19.8a53.68,53.68,0,1,0,78.52,73.23Z"/><path class="cls-3" d="M607.23,841.9c21.68,20.31,6.82,71.35-13.49,93a53.74,53.74,0,1,1-78.52-73.4C535.53,840,585.55,821.75,607.23,841.9Z"/><path class="cls-4" d="M564.55,934.59a6.33,6.33,0,0,1-1.37-2.05,6.26,6.26,0,0,1,3.08-8.19,25.69,25.69,0,0,0,9.22-6.66c7-7.51,13.65-21.68,16.21-34.83a62,62,0,0,0,1.2-10.75,6.23,6.23,0,0,1,12.46.17,70.7,70.7,0,0,1-1.37,13c-3.07,15.54-10.58,31.58-19.29,40.8a38.46,38.46,0,0,1-13.31,9.39A5.58,5.58,0,0,1,564.55,934.59Z"/><circle class="cls-4" cx="594.25" cy="855.89" r="6.15"/><path class="cls-5" d="M681.14,1191.67a45,45,0,0,1-44.89-44.9,43,43,0,0,1,6.14-22.53,7.77,7.77,0,0,0-6.66-11.61H518.63a7.77,7.77,0,0,0-6.66,3.93,7.65,7.65,0,0,0,.17,7.85,43,43,0,0,1,6.15,22.53,44.9,44.9,0,1,1-89.79,0,44.36,44.36,0,0,1,6.49-23,7.52,7.52,0,0,0,.34-7.34,7.78,7.78,0,0,0-6-4.27,45.62,45.62,0,0,1-39.6-45.07V781.81a7.81,7.81,0,0,0-4.78-7.17L322,748a4.86,4.86,0,0,1-2.9-2.9,5.68,5.68,0,0,1,0-4.1,5.19,5.19,0,0,1,4.95-3.24,4.6,4.6,0,0,1,2.05.51l70.84,29.87c.17.17.51.17.68.34l.17.17h.17c.35.17.52.52.69.69l.51.51h0c.17.17.17.34.34.51s.17.34.34.51l.17.17.17.35v.17a.62.62,0,0,0,.17.51h0v.17c0,.34.17.68.17,1V819a7.74,7.74,0,0,0,6.66,7.68L734.4,871.77a2.92,2.92,0,0,0,1.2.17h.17l.51.34a3.72,3.72,0,0,1,.85.51l.17.17.17.17h0c.17.18.34.52.52.69a.17.17,0,0,0,.17.17l.17.17a.17.17,0,0,0,.17.17l.17.34c0,.17.17.34.17.51h0c0,.17,0,.17.17.34V986a45.68,45.68,0,0,1-45.58,45.58H435.33a46,46,0,0,1-23.22-6.32,7.93,7.93,0,0,0-3.92-1,6.9,6.9,0,0,0-3.76,1,7.77,7.77,0,0,0-3.93,6.66v35.33a34.87,34.87,0,0,0,34.83,34.83h246a44.81,44.81,0,1,1-.17,89.62Zm.17-79.21a34.31,34.31,0,1,0,34.31,34.31A34.31,34.31,0,0,0,681.31,1112.46Zm-207.74,0a34.31,34.31,0,1,0,34.31,34.31A34.32,34.32,0,0,0,473.57,1112.46ZM408,837.46a8.23,8.23,0,0,0-5.13,1.88,7.65,7.65,0,0,0-2.56,5.8V985.8a34.86,34.86,0,0,0,34.83,34.82H693.77a34.9,34.9,0,0,0,34.83-35v-97.3a7.74,7.74,0,0,0-6.66-7.68L409.21,837.46Z"/><text class="cls-6" transform="translate(779.62 1086.24)">Shop. Scan. Save.</text><path class="cls-7" d="M879.5,913.51H822.31l-6.71,15.91Q809,945.25,809,948.8a3.91,3.91,0,0,0,1.24,3.26q1.23,1,6.27,1.58l9.5,1.09V961q-9.5-.69-21.36-.69-14.24,0-25,.69v-6.23l3-.1q6.93-.2,8.95-1.43t4.3-6.08q7-14.24,14.34-30.75l27.18-61.59q10.88-24.53,14.83-35.59h6.73l50,116.36q5,11.87,6.73,14.29a10,10,0,0,0,3.85,3.46q2.18,1,9.79,1.43V961q-12.85-.69-24.52-.69-10.87,0-29,.69v-6.23l9.79-.59c3.49-.26,5.57-.63,6.23-1.09a3.29,3.29,0,0,0,1.48-2.77q0-1.77-3-9.29ZM826,905.4H875.8L850.91,846Z"/><path class="cls-7" d="M986.22,873.07v-5.73q10.2.69,18.21.69,9.32,0,19.9-.69v5.73h-3.06a11.7,11.7,0,0,0-4.45.89,7.35,7.35,0,0,0-2.57,1.78q-1,1.1-7.12,13.76Q996,912.53,990,925.87t-15,36H964.75Q951.69,929.32,938,898.57q-5-11.27-6.13-14.43-2.17-6.42-4.9-8.75a10.38,10.38,0,0,0-7-2.32h-3.26v-5.73q14.54.69,24.22.69,10.38,0,22.74-.69v5.73h-4.35q-6,0-8.5,1.28a3.23,3.23,0,0,0-1.68,3c0,1.12.59,3.4,1.78,6.82s9.17,23.37,23.94,59.82l17.72-42.71q6-14.84,7.42-20.57a11.51,11.51,0,0,0,.4-2.67,3.14,3.14,0,0,0-1.29-2.77c-.86-.59-3.06-1.08-6.62-1.48Z"/><path class="cls-7" d="M1036.17,913.51a48.64,48.64,0,0,1,6.33-24.67,44.69,44.69,0,0,1,17.74-17.25,53.27,53.27,0,0,1,26-6.23q21.06,0,33.71,12.45T1132.56,911q0,24.53-16.51,39-14.73,12.94-35.29,13-19.77,0-32.18-13.3T1036.17,913.51Zm18.59-7q0,20.38,8.35,34.89t24.08,14.5a23.65,23.65,0,0,0,19.32-9.11q7.37-9.1,7.37-27.61,0-15-4.35-25.89t-11.47-15.93a27,27,0,0,0-15.92-5,25.83,25.83,0,0,0-14.08,4,23.77,23.77,0,0,0-9.25,10.59A47.23,47.23,0,0,0,1054.76,906.53Z"/><path class="cls-7" d="M1219.66,946.92l2.67,2.37-4,6.33a60.31,60.31,0,0,1-13.84,5.49,58.16,58.16,0,0,1-14.53,1.83q-14.54,0-24.67-5.54a38,38,0,0,1-15.67-16q-5.53-10.47-5.54-24.91,0-12.75,4.25-22.19a35,35,0,0,1,11.92-14.78A117.26,117.26,0,0,1,1179.33,869a43.44,43.44,0,0,1,18.09-3.66,60,60,0,0,1,13.1,1.24,52.82,52.82,0,0,1,11.81,4.41,155.07,155.07,0,0,0-2.67,26.18h-6.22v-4.94c0-4.22-.62-7.2-1.83-9s-4-3.47-8.36-5.19a38.55,38.55,0,0,0-14.23-2.57q-13.35,0-20.57,8.15T1161.23,908q0,20.84,10.68,33.37,9.58,11.36,24.72,11.35a46.31,46.31,0,0,0,11.66-1.48A55.79,55.79,0,0,0,1219.66,946.92Z"/><path class="cls-7" d="M1243.59,892.25l.1-6.62-.1-6.83,10.78-6.13a61.11,61.11,0,0,1,12.8-5.73,42.26,42.26,0,0,1,11.71-1.58q13.65,0,22,6.12a24.11,24.11,0,0,1,10,15.6q1.18,7.11,1.48,35.26.19,26.56,1.19,29.33t4.94,2.76h7.71V961q-11.27-.69-15.72-.69-5.54,0-14.83.69l.1-8.79c0-2.83,0-5.7-.1-8.59l-20.46,15.6a18.28,18.28,0,0,1-5.44,2.92,25.76,25.76,0,0,1-7.42.84q-12.75,0-19.47-6.27t-6.73-16.83a31.45,31.45,0,0,1,4.8-17.42,28.23,28.23,0,0,1,13.64-11q8.85-3.54,41.08-9.27-.2-12.55-5.54-18.79-6.72-7.8-19.17-7.81a33.07,33.07,0,0,0-8.9,1.16,27.72,27.72,0,0,0-7.71,3.49q-2.88,7.06-5.24,13.54Zm52.1,15.72q-27.48,5.91-34.9,11.1t-7.41,16q0,7.3,4.25,11.69a14.58,14.58,0,0,0,11,4.39,26.8,26.8,0,0,0,14.19-4.14,47.56,47.56,0,0,0,12.9-12.33l-.2-21.9Z"/><path class="cls-7" d="M1415,871.39V835.52q0-6.24-1.38-7.83t-6.33-1.58h-8.5v-5.93a108.33,108.33,0,0,0,32.91-7.22l1.79,1.19q-.69,10.1-1.19,24.33l-.39,26.32-.2,8.51v59.06q0,16.53,1,18.4c1,1.79,3.72,3,8.2,3.57l7,.89V961q-12.2-.88-21.51-.89-1.7,0-12.5.89.69-6.69,1.09-19-8.4,6.49-21.43,18.21a48.2,48.2,0,0,1-14.81,2.76,36,36,0,0,1-27.94-12.56q-11.25-12.55-11.25-33.61,0-13.15,4.34-22.44t10.37-13.5a164.75,164.75,0,0,1,18.76-10.63q9.76-4.85,18.07-4.84a48.05,48.05,0,0,1,11.6,1.48A63.37,63.37,0,0,1,1415,871.39Zm0,17a50.31,50.31,0,0,0-14.16-11,34.06,34.06,0,0,0-15.35-3.66q-12.93,0-20.83,9.46t-7.89,27.66q0,18.51,9,29.06t22,10.54a25.69,25.69,0,0,0,14.51-4.4,26,26,0,0,0,9.67-11.44q3.06-7,3.06-22.07Z"/><path class="cls-7" d="M1461.49,913.51a48.64,48.64,0,0,1,6.32-24.67,44.72,44.72,0,0,1,17.75-17.25,53.21,53.21,0,0,1,26-6.23q21.06,0,33.71,12.45T1557.88,911q0,24.53-16.51,39-14.73,12.94-35.3,13-19.77,0-32.18-13.3T1461.49,913.51Zm18.58-7q0,20.38,8.36,34.89t24.07,14.5a23.67,23.67,0,0,0,19.33-9.11q7.37-9.1,7.36-27.61,0-15-4.35-25.89t-11.46-15.93a27,27,0,0,0-15.92-5,25.84,25.84,0,0,0-14.09,4,23.69,23.69,0,0,0-9.24,10.59A47.08,47.08,0,0,0,1480.07,906.53Z"/></g></g></svg>